<?xml version="1.0" encoding="utf-8"?>
<!-- Generator: Adobe Illustrator 19.0.1, SVG Export Plug-In . SVG Version: 6.00 Build 0)  -->
<svg version="1.1" id="Layer_1" xmlns="http://www.w3.org/2000/svg" xmlns:xlink="http://www.w3.org/1999/xlink" x="0px" y="0px"
	 viewBox="0 0 400 200" enable-background="new 0 0 400 200" xml:space="preserve">
<g>
	<path fill="#643282" d="M96.1,45.4c-0.4,0.8-0.3,2.8,0.3,5.9c0.6,0.2,0.9,0.4,0.9,0.6c0.2,1.2,0.2,1.9,0,1.9c0,0.2-0.2,0.5-0.6,0.9
		c-0.2,1.2,0.1,2.3,0.9,3.1c0,0.4,0.1,1.4,0.3,3c0.2,1.6,0,2.6-0.6,3c0.2,0.2,0.3,0.5,0.3,0.9c0,0.4,0.1,0.6,0.3,0.6
		c0,0.2,0.2,0.7,0.6,1.4c0.4,0.7,0.6,1.4,0.6,2l-0.3,0.6c0.2,0.2,0.4,0.5,0.6,0.9s0.4,0.7,0.5,0.9c0.1,0.2,0.1,0.7-0.2,1.6
		c0,0.2,0,0.5,0,0.9c0,0.4,0,0.7,0,0.9c0,0.2,0,0.5,0,0.8c0,0.3,0,0.6,0,0.8c0,0.2,0.1,0.5,0.3,0.8c0.2,0.3,0.4,0.5,0.5,0.6
		c0.1,0.1,0.1,0.4,0,0.8c-0.1,0.4-0.2,0.7-0.2,0.8c0,0.1,0.2,0.6,0.6,1.4c0.4,2.7,0.9,4.1,1.6,4.1c0.4,0,0.6-0.2,0.6-0.6
		c0.2-0.2,0.4-0.3,0.5-0.3c0.1,0,0.3-0.1,0.6-0.3c0.3-0.2,0.6-0.4,0.8-0.6c0,0.2,0,0.4,0.2,0.5c0.1,0.1,0.3,0.2,0.5,0.2
		c1.7-0.4,2.6-0.6,2.8-0.6c0.4,0,0.7-0.1,0.9-0.3c0.2-0.2,0.4-0.3,0.6-0.3c0.2,0,0.5,0.1,0.9,0.3c0.8,0.2,1.3,0,1.6-0.6h1.6
		c1,0.8,1.6,1.4,1.6,1.6c0.2,0,0.5,0.1,0.9,0.3c0.6,0.6,1.5,1.5,2.5,2.5c1,1,1.9,1.9,2.5,2.5c0.4,0,0.8,0.1,1.2,0.3
		c0,0.4,0,1.4,0,2.8c0,1.5,0,2.5,0,3.1c0.6,0.4,0.7,0.8,0.3,1.2c-0.4,0.4-0.8,0.7-1.2,0.9c0,0.4,0,1,0,1.9c-0.4,0.2-0.9,0.4-1.6,0.6
		c-0.2,0-0.3,0.2-0.3,0.6s0,0.7,0,0.9c-0.4-0.2-0.7-0.3-0.9-0.3c-0.6,0.4-0.9,0.9-0.9,1.6c-0.6,0.6-1,0.8-1.2,0.6
		c-0.2,0.2-0.5,0.6-0.9,1.1c-0.4,0.5-0.8,0.9-1.3,1.1c-0.2-0.2-0.5-0.1-0.9,0.3c-0.4,0.4-0.6,0.7-0.6,0.9c-0.4,0-1.1,0-1.9,0
		c-0.8-0.2-1.4,0-1.6,0.6c-0.4,0-1,0.1-1.9,0.2c-0.8,0.1-1.5,0.2-1.9,0.2c-0.4,0.2-0.6,0.7-0.6,1.4c0,0.7,0.2,1.3,0.6,1.7
		c0,0.2-0.1,0.4-0.3,0.5c-0.2,0.1-0.3,0.3-0.3,0.5c0,0.6,0,1.5,0,2.6c0,1.2,0.1,1.9,0.3,2.4c0,0.4,0.2,1,0.6,1.9
		c0.4,0.8,0.6,1.5,0.6,1.9c0,0.2-0.1,0.5-0.3,0.8c-0.2,0.3-0.3,0.6-0.2,0.8c0.1,0.2,0.2,0.4,0.2,0.6c0.2,0.2,0.4,0.3,0.6,0.3
		c0,0.2,0.1,0.3,0.3,0.2c0.2-0.1,0.3-0.1,0.3,0.2c0.2,0.4,0,0.6-0.6,0.6c-0.4,0.2-0.6,0.6-0.6,1.1s0,0.9,0,1.1
		c0,0.2,0.1,0.4,0.3,0.6c0.2,0.2,0.4,0.4,0.6,0.6c0,0.2-0.2,0.4-0.5,0.5c-0.3,0.1-0.5,0.3-0.5,0.5c0.2,0.2,0.6,0.5,1.1,0.9
		c0.5,0.4,0.8,0.8,0.8,1.2c0,0.2-0.2,0.5-0.5,0.9c-0.3,0.4-0.5,0.7-0.5,0.9c-0.2,0-0.2,0.3,0,0.9c0,0.4-0.1,1.2-0.2,2.4
		c-0.1,1.1-0.1,2.1,0,2.8c0.1,0.7,0.4,1.3,0.8,1.7c0,0.2,0.1,0.7,0.3,1.6c0,0.6-0.1,2.1-0.2,4.4c-0.1,2.3-0.1,3.7,0.2,4.1
		c0,0.2,0.3,0.6,0.9,1.3c0.2,0.6,0.3,1.7,0.2,3.1c-0.1,1.5-0.2,2.5-0.2,3.1c0,1,0,1.7,0,1.9c0,1.2,0,2.1,0,2.5
		c0.2,0,0.5,0.2,0.8,0.6c0.3,0.4,0.4,0.8,0.2,1.3c-0.6,0.2-0.9,0.8-0.9,1.7s0.3,1.5,0.9,1.7c-0.2,0.6-0.3,1.4-0.3,2.2
		c-0.6,0.6-0.6,1.8,0,3.4c0.6,1.7,0.4,2.7-0.6,3.1v1.9c-1.5,0.4-2.6,0.9-3.4,1.6c0.4,0.4,0.5,0.6,0.3,0.6c-0.2,0.2-0.4,0.2-0.6-0.2
		c-0.2-0.3-0.4-0.5-0.6-0.5c-0.2,0.2-0.4,0.5-0.6,0.8c-0.2,0.3-0.4,0.5-0.6,0.5c-0.2,0-0.5,0-0.8,0c-0.3,0-0.6,0-0.8,0
		c-1.7,1.2-2.7,1.6-3.1,0.9l-0.9,0.3c-0.2,0-0.4-0.1-0.6-0.3c-0.2-0.2-0.4-0.3-0.5-0.3c-0.1,0-0.3,0.1-0.5,0.3
		c-0.2,0.2-0.4,0.3-0.6,0.3c-0.4-1.5-0.7-2.3-0.9-2.5c-0.6,0-2.2-0.8-4.7-2.5c-0.2,0-0.4,0-0.6,0c-0.2,0-0.4,0-0.6,0
		c0-0.6-0.3-1.3-0.9-2.2c0-0.2-0.1-0.3-0.3-0.2c-0.2,0.1-0.4,0.2-0.6,0.2c0-0.2,0.2-0.6,0.6-1.2c0.2-1-0.1-1.8-0.9-2.2
		c0-0.2,0.1-0.4,0.3-0.6c0.2-0.2,0.3-0.4,0.3-0.6c0-0.2-0.1-0.6-0.3-1.1c-0.2-0.5-0.4-1-0.6-1.4c0-0.6,0.1-1.4,0.3-2.2
		c0.2-1.3,0.5-2.2,0.9-2.8c0-0.2-0.2-0.5-0.6-0.9c0-0.2,0.1-0.4,0.3-0.6c0.2-0.2,0.3-0.4,0.3-0.6c0-0.2-0.2-0.5-0.5-0.9
		c-0.3-0.4-0.5-0.7-0.5-0.9c0.2-0.4,0.3-0.7,0.3-0.9c0-0.2,0-0.4,0-0.6c0-0.2,0.1-0.4,0.3-0.6c0.2-0.2,0.3-0.4,0.3-0.6
		c0-0.2-0.3-0.5-0.9-0.9c0.6-0.8,0.9-1.6,0.9-2.2c-0.2,0-0.4-0.2-0.6-0.6c-0.2-0.4-0.3-0.8-0.3-1.1c0-0.3,0-0.8,0-1.6
		c0-0.7,0-1.2,0-1.4c0-0.6,0-1.3,0-2.2c0-1.5-0.3-2.4-0.9-2.8c0-2.7-0.1-5.2-0.3-7.5c0-0.2,0-0.6,0-1.2s0-1,0-1.2
		c0-0.2-0.2-0.5-0.6-0.8c-0.4-0.3-0.5-0.7-0.3-1.1c0.6-0.2,0.9-0.4,0.9-0.6c-0.4-1.2-0.6-2-0.6-2.2c0.4-0.4,0.6-0.7,0.6-0.9
		c0-0.2-0.2-0.7-0.5-1.4c-0.3-0.7-0.3-1.2,0.2-1.4c-0.2-0.4-0.3-1-0.3-1.7c0-0.7,0-1.4,0-2c0-0.4-0.1-0.8-0.3-1.2s-0.3-0.7-0.3-0.8
		c0-0.1,0-0.3,0.2-0.6c0.1-0.3,0.3-0.5,0.5-0.5c0-1.3-0.4-2.1-1.3-2.5c0-0.2,0.1-0.5,0.2-0.8c0.1-0.3,0.1-0.5-0.2-0.5
		c-0.2-0.4-0.5-0.5-0.8-0.3c-0.3,0.2-0.5,0.5-0.5,0.9c-0.6,0.2-1.4,0.2-2.2,0c-1.2-0.2-2.1,0-2.5,0.6c-0.2,0-0.8,0-1.9,0
		c-0.2,0-0.7,0.5-1.6,1.6c-0.2,0-0.3-0.2-0.2-0.5c0.1-0.3,0.1-0.5-0.2-0.5c0-0.4-0.4-0.3-1.3,0.3c-0.4,0.2-0.9,0.3-1.4,0.2
		c-0.5-0.1-0.9-0.2-1.1-0.2c-0.2,0.2-0.4,0.4-0.6,0.6c-0.2,0.2-0.4,0.3-0.6,0.3c-2.7,0.2-4.2,0.6-4.4,1.3c-3.8,0-5.8,0.4-6.2,1.2
		c-0.2,0-0.8-0.1-1.9-0.3h-0.6c-0.6,0-1.5,0.2-2.5,0.5c-1.1,0.3-1.8,0.5-2.2,0.5c-0.4,0.2-0.9,0.2-1.6,0c-1.5-0.2-2.3-0.1-2.5,0.3
		c-0.2,0-0.4,0.2-0.5,0.6s-0.3,0.6-0.5,0.6c-0.2-0.2-0.6-0.3-1.2-0.2c-0.6,0.1-1,0.2-1.2,0.2c-0.2,0-0.4-0.1-0.6-0.3
		c-0.2-0.2-0.4-0.3-0.6-0.3c-0.2,0-0.5,0.2-0.9,0.6h-8.1c0-0.2-0.6-0.4-1.9-0.6c-0.2-0.2-0.4-0.3-0.6-0.3c-0.8-0.4-1.5-0.6-1.9-0.6
		c-0.6,0.2-0.9,1-0.9,2.5l-0.3,0.9c0,0.2,0.1,0.5,0.3,0.9c0.2,0.4,0.3,0.7,0.3,0.9c0,0.4,0,1,0,1.9c-0.2,1.7-0.1,2.7,0.3,3.1
		c-0.2,1-0.1,1.9,0.3,2.5c0.4-0.2,0.7-0.3,0.9-0.3c0,0.2-0.1,0.4-0.3,0.6c-0.2,0.2-0.3,0.4-0.3,0.6c0.2,1.1,0,1.9-0.6,2.5
		c0,0.2,0.4,0.5,1.2,0.9v0.9c0,0.2-0.2,0.4-0.6,0.6c-0.2,3.1-0.2,4.8,0,5c0,0.4,0,1,0,1.9c0,1.3,0.3,2.1,0.9,2.5c0,0.2,0,0.5,0,0.8
		c0,0.3,0,0.5,0,0.6c0,0.1-0.2,0.3-0.5,0.5c-0.3,0.2-0.5,0.4-0.5,0.6c0,0.2,0.2,0.6,0.5,1.1c0.3,0.5,0.4,1,0.2,1.4
		c0,0.2-0.2,0.6-0.6,1.2c0,0.2,0.3,0.6,0.9,1.3c0,0.2-0.1,0.4-0.3,0.5c-0.2,0.1-0.3,0.3-0.3,0.5c0.4,0.2,0.5,1.2,0.3,3.1
		c0,0.4,0.1,1,0.2,1.9c0.1,0.8,0.2,1.3,0.2,1.6c0,3.8,0.2,5.8,0.6,6.2l0.3,2.5c0,1.2,0,2.6,0,4.1c0,1.5,0.2,2.5,0.6,3.1
		c0,0.2-0.1,0.5-0.3,0.9c-0.2,1.9-1.6,4.1-4.1,6.6c-0.4-0.2-1.1,0.2-2.2,1.2c-0.8,0.6-1.4,0.9-1.6,0.9c-0.6-0.4-1-0.6-1.2-0.6
		c-0.4,0-0.9,0.5-1.6,1.6c-0.2,0-0.3-0.1-0.3-0.3c0-0.2-0.1-0.4-0.3-0.6c-0.2-0.6-1.1-0.8-2.5-0.6c-0.6-0.4-1-0.9-1.2-1.6
		c-2.1,0.2-3.1-0.4-3.1-1.9c-0.8,0.4-1.8,0.5-2.8,0.3v-0.9c-0.2-0.2-0.5-0.6-0.9-1.2c-0.4-0.6-0.6-1-0.6-1.2c-0.6,0.2-0.9,0.2-0.9,0
		c-0.2-0.6,0-1.1,0.6-1.6c-0.2-0.2-0.3-1.3-0.2-3.3c0.1-2,0.2-3.2,0.2-3.6c0-0.4-0.1-2-0.3-4.7c-0.2-0.8-0.3-1.3-0.3-1.6
		c-0.2,0-0.4,0.1-0.6,0.2c-0.2,0.1-0.3,0.1-0.3-0.2c-0.2,0-0.3-0.8-0.3-2.5c0.2-0.2,0.4-0.4,0.6-0.5c0.2-0.1,0.3-0.3,0.3-0.5
		c-0.2-0.6-0.3-1.8-0.2-3.6s0.1-3.1-0.2-3.9c0-0.2-0.1-0.4-0.2-0.6c-0.1-0.2-0.2-0.4-0.2-0.6c0-0.2,0.1-0.5,0.3-0.9
		c0.2-0.4,0.3-0.7,0.3-0.9c0-0.6-0.1-1.1-0.3-1.6c0-0.2-0.1-0.5-0.3-0.8c-0.2-0.3-0.3-0.6-0.3-0.8c0.2-0.4,0.3-0.7,0.3-0.9
		c0-0.2-0.1-0.4-0.2-0.6C7,148.1,7,147.9,7,147.8c0-0.1,0.1-0.3,0.2-0.6s0.1-0.5,0-0.6S6.9,146,6.8,145c-0.1-0.9-0.2-1.7-0.2-2.3
		c0.2-1.3,0.3-2.1,0.3-2.5c-0.2,0-0.3-0.3-0.3-0.9c0-1.2-0.1-2-0.3-2.2c0.2-0.2,0.3-0.5,0.2-0.9c-0.1-0.4-0.4-0.7-0.8-0.9
		c-0.4-1-0.2-1.7,0.6-1.9c0-0.2-0.1-0.4-0.3-0.5c-0.2-0.1-0.4-0.3-0.6-0.5c0.6-0.6,0.8-1.4,0.6-2.2c-0.2-0.6-0.3-2.2-0.2-4.8
		c0.1-2.6,0.2-4.3,0.2-5.2c0-2.7-0.2-4.5-0.6-5.3c0.4-0.6,0.6-1.3,0.5-2.2c-0.1-0.8-0.5-1.2-1.1-1.2c-0.2-0.2-0.3-0.5-0.3-0.9v-0.3
		c0.2-0.2,0.4-0.3,0.5-0.2c0.1,0.1,0.3,0.1,0.5-0.2c0.2-0.2,0.1-0.5-0.3-0.9c0-0.2,0-0.4,0-0.6c-0.2-0.8-0.2-2.7,0-5.6
		S5,98.2,4.2,98H3.5c-0.2-0.2,0-0.7,0.6-1.6c-0.4-0.8-0.5-1.8-0.3-2.8c0.2-1,0.2-2,0-3c-0.2-0.9-0.7-1.4-1.6-1.4
		c0.2-2.1,0.5-3.2,0.9-3.4C3,85.4,3,84.4,3.1,83c0.1-1.5,0-2.5-0.2-3.1c-0.2-0.2-0.4-0.5-0.6-0.8C2.1,78.7,2,78.5,2,78.3
		c0-0.2,0.1-0.7,0.3-1.6C2.1,76.5,2,75.5,2,73.6c0-0.2-0.1-0.6-0.2-1.2c-0.1-0.6-0.2-1-0.2-1.2c0-0.2,0-0.5,0-0.9
		c0-0.2-0.2-0.4-0.5-0.6c-0.3-0.2-0.4-0.4-0.3-0.6C1,68.7,1.3,68.4,1.7,68c0-0.2-0.1-0.5-0.3-0.8c-0.2-0.3-0.3-0.6-0.3-0.8
		C0.8,66,0.8,65.5,0.9,65c0.1-0.5,0.2-0.9,0.2-1.1c0-0.2-0.1-0.6-0.2-1.2c-0.1-0.6-0.2-1.1-0.2-1.6c0-0.2,0-0.7,0-1.4
		c0-0.7,0-1.2,0-1.4c0-1.2-0.1-2-0.3-2.2c0.6-0.8,0.7-1.6,0.3-2.2c0-0.2-0.2-0.3-0.5-0.3c-0.3,0-0.5-0.1-0.5-0.3
		c-0.2-0.4,0.1-1,0.9-1.9c-0.4-0.4-0.6-1-0.6-1.9c0-0.4-0.1-1.1-0.2-2.2c-0.1-1-0.2-1.8-0.2-2.2c0.2-0.8,0.3-1.3,0.3-1.4
		c0-0.1-0.1-0.3-0.2-0.6c-0.1-0.3-0.2-0.5-0.2-0.6c0-0.1,0.2-0.5,0.6-1.1c0.4-0.6,0.6-1.2,0.6-1.9c0.2-0.2,0.6-0.6,1.2-1.3
		c1-1.2,2.1-2,3.1-2.2c0.2-0.2,0.4-0.5,0.6-0.9c0-0.2,0-0.4,0-0.6c0.4,0,0.8,0.1,1.1,0.3c0.3,0.2,0.7,0.3,1.1,0.3
		c0.2,0,0.4-0.2,0.5-0.5c0.1-0.3,0.3-0.5,0.5-0.5c0.2,0,0.5,0.1,0.8,0.3c0.3,0.2,0.5,0.4,0.5,0.6c0.4-0.2,0.8-0.3,1.2-0.2
		c0.4,0.1,0.8,0.2,1.3,0.2c1.5,0.8,2.2,1.4,2.2,1.6c2.7,1.1,4.8,2.6,6.2,4.7c0.2,0.4,0.3,0.7,0.3,0.9c0.4,0.4,0.9,1,1.6,1.9
		c0,0.2-0.1,0.4-0.2,0.6c-0.1,0.2-0.2,0.4-0.2,0.6c0.4,0.6,0.6,1.3,0.6,1.9c0,0.2,0.1,0.5,0.2,0.8c0.1,0.3,0.2,0.5,0.2,0.6
		c0,0.1-0.1,0.5-0.3,1.1c0,0.4,0,1,0,1.7c0,0.7,0,1.3,0,1.7c0,1,0.2,1.7,0.6,1.9c-1,0.6-0.9,1.3,0.3,1.9c0,0.2-0.3,0.5-0.9,0.9
		c0.2,2.9,0.4,4.5,0.6,4.7c0,1,0.2,1.9,0.6,2.5c-0.4,0-0.5,0.8-0.3,2.5c0.2,1.7,0.3,2.7,0.3,3.1c-0.2,0.6-0.3,1-0.3,1.1
		c0,0.1,0,0.3,0,0.5c0,0.2,0.1,0.3,0.3,0.3c0,0.4,0,0.9,0,1.6c-0.2,1.5,0,2.3,0.6,2.5c-0.4,0.4-0.6,0.7-0.6,0.9
		c-0.2,0.4-0.2,1.2,0.2,2.3c0.3,1.1,0.5,1.9,0.5,2.3c0.2,1.1,0.4,1.8,0.6,2.2c-0.2,0.2-0.3,1.2-0.3,2.8c0,0.6,0,1,0,1.1
		c0,0.1,0.1,0.3,0.3,0.6c0.2,0.3,0.3,0.6,0.3,0.8c0,0.2,0,0.5,0,0.8c0,0.3,0,0.5,0,0.6c0,0.1,0.1,0.3,0.3,0.5
		c0.2,0.2,0.3,0.4,0.3,0.6s-0.1,0.4-0.3,0.5s-0.4,0.3-0.6,0.5c0.4,0.4,0.6,1,0.5,1.9c-0.1,0.8-0.2,1.5-0.2,1.9
		c0.2,0.6,0.7,1.1,1.6,1.4c0.8,0.3,1.7,0.4,2.7,0.3c0.9-0.1,1.8-0.2,2.7-0.2c2.1,0.4,3.2,0.4,3.4,0l1.6,0.3c0.2,0,0.5,0.1,0.8,0.3
		c0.3,0.2,0.6,0.3,0.8,0.3c0.6,0.2,1.5-0.1,2.5-0.9c0.4,0,0.9,0.1,1.6,0.2c0.6,0.1,1,0.2,1.2,0.2c0.2,0,0.3-0.1,0.3-0.3
		c2.3,0.6,3.8,0.3,4.4-0.9c0.4,0,0.7,0.1,0.9,0.3c0.2,0.2,0.4,0.4,0.6,0.6c1.7-1,2.6-1.7,2.8-1.9c0.4,0,1,0,1.9,0c0.4,0,0.9,0,1.6,0
		s1,0,1.2,0c0.2,0,0.5-0.1,0.8-0.3c0.3-0.2,0.6-0.3,0.8-0.3c0.2,0,0.5,0.1,0.8,0.2c0.3,0.1,0.5,0.2,0.6,0.2c0.1,0,0.4-0.1,0.9-0.3
		c0.5-0.2,0.9-0.3,1.1-0.3l4.7-0.9c0.2,0,0.5-0.2,0.8-0.5c0.3-0.3,0.6-0.5,0.8-0.5c0.2,0,0.4,0.1,0.6,0.3c0.2,0.2,0.4,0.3,0.6,0.3
		c0.4,0,0.9-0.3,1.6-0.9c0.2,0,0.4-0.2,0.6-0.6c0.6-0.8,1.4-0.9,2.2-0.3c0.4-0.4,1.3-0.7,2.5-0.8c1.2-0.1,2.1-0.3,2.5-0.5
		c0-0.2,0.1-0.6,0.2-1.1c0.1-0.5,0.1-0.8,0-0.9c-0.1-0.1-0.3-0.3-0.5-0.5c-0.2-0.2-0.3-0.4-0.3-0.6c0.2-0.4,0.3-0.7,0.3-0.9
		l-0.3-0.6c-0.4-0.6-0.4-1.1,0-1.6c0-1-0.3-1.8-0.9-2.2c0-0.6,0-1.6,0-3c0-1.3-0.1-2.3-0.3-3c-0.4-0.6-0.6-1-0.6-1.3
		c0-0.4,0-1.1,0-2.2c0-1-0.1-1.7-0.3-1.9c0-0.6-0.1-1-0.2-1.1c-0.1-0.1-0.3-0.2-0.6-0.3c-0.3-0.1-0.6-0.2-0.8-0.2
		c0-0.4,0.3-0.8,0.9-1.2c0-1-0.1-2.1-0.3-3.1c-0.2-1-0.7-1.5-1.6-1.2c0-0.4,0.3-0.9,0.9-1.6c-0.2-0.4-0.3-1-0.2-1.9
		c0.1-0.8,0.1-1.5-0.2-1.9c0-0.2-0.3-0.6-0.9-1.3c0-0.4,0-0.9,0-1.6c0-0.6,0-1,0-1.3c-0.2-0.2-0.4-0.4-0.6-0.5
		c-0.2-0.1-0.4-0.3-0.6-0.5c0.2-2.7,0.1-4.4-0.3-5c0-0.4-0.1-1.1-0.3-2c-0.2-0.9-0.3-1.5-0.3-1.7c0-0.2,0.1-0.5,0.2-0.9
		c0.1-0.4,0.2-0.7,0.2-0.9c0-0.2-0.3-0.5-0.9-0.9c0.2-0.6,0.1-1.3-0.3-2.2c-0.4-0.8-0.6-1.3-0.6-1.6c0-0.4,0-1.1,0-2
		c0-0.9,0-1.6,0-2c-0.2-0.2-0.5-0.5-0.9-0.9c-0.2-0.2-0.3-0.6-0.2-1.2s0.2-1,0.2-1.2c-0.2-0.2-0.4-0.5-0.6-0.8
		c-0.2-0.3-0.4-0.6-0.6-0.8c0-0.2,0.1-0.9,0.2-2c0.1-1.1,0.1-1.9-0.2-2.3c-0.4,0-0.6-0.1-0.6-0.3c-0.2-0.2-0.3-0.9-0.3-2.2
		c0-1.2-0.3-1.9-0.9-1.9c0.6-2.1,0.5-3.8-0.3-5c0.2,0,0.4,0,0.6,0c0.2,0,0.3-0.1,0.3-0.3c0.8-1.3,1.2-2.1,1.2-2.5
		c0.6-0.8,1.6-1.7,3-2.5c1.3-0.8,2.2-1.5,2.7-1.9c0.4,0.4,0.7,0.6,0.9,0.6C76,9.1,77,8.9,78.9,8.9c0.4,0.4,1,0.7,1.9,0.9
		c0.8,0.2,1.5,0.5,1.9,0.8c0.4,0.3,1,1,1.9,2c0.2,0,0.4,0,0.5,0c0.1,0,0.3,0,0.5,0c0,0.2,0.3,0.6,0.9,1.1c0.6,0.5,1,0.9,1.2,1.1
		c0.2,0.2,0.4,0.5,0.5,0.9c0.1,0.4,0.2,0.7,0.2,0.9c0.2,0.2,0.5,0.6,0.9,1.1c0.4,0.5,0.6,0.9,0.6,1.1c0,0.2,0,0.5,0,0.9
		c0.4,0.4,0.8,1.1,1.1,2.2c0.3,1,0.7,1.8,1.1,2.2c0,0.4-0.1,1.3-0.2,2.5c-0.1,1.2-0.1,2.1,0.2,2.5c0,0.2,0.2,0.5,0.6,0.9
		c0,0.2,0,0.5,0,0.9s0,0.7,0,0.9c0,0.2,0.1,0.5,0.3,0.9c0,0.2-0.1,0.5-0.2,0.8c-0.1,0.3-0.2,0.6-0.2,0.8c0.2,0.4,0.5,1,0.8,1.9
		c0.3,0.8,0.5,1.5,0.5,1.9c0,0.2,0,0.6,0,1.3c0,0.2,0.1,0.6,0.3,1.2c0.2,0.6,0.4,1.1,0.6,1.6l0.6,2.8C95.9,45.1,96.1,45.2,96.1,45.4
		z M96.1,45.4c-0.4,0.8-0.3,2.8,0.3,5.9c0.6,0.2,0.9,0.4,0.9,0.6c0.2,1.2,0.2,1.9,0,1.9c0,0.2-0.2,0.5-0.6,0.9
		c-0.2,1.2,0.1,2.3,0.9,3.1c0,0.4,0.1,1.4,0.3,3c0.2,1.6,0,2.6-0.6,3c0.2,0.2,0.3,0.5,0.3,0.9c0,0.4,0.1,0.6,0.3,0.6
		c0,0.2,0.2,0.7,0.6,1.4c0.4,0.7,0.6,1.4,0.6,2l-0.3,0.6c0.2,0.2,0.4,0.5,0.6,0.9s0.4,0.7,0.5,0.9c0.1,0.2,0.1,0.7-0.2,1.6
		c-0.2,0.2-0.3,0.5-0.2,0.9c0.1,0.4,0.2,0.7,0.2,0.9c0,0.2,0,0.5,0,0.8c0,0.3,0,0.6,0,0.8c0,0.2,0.1,0.5,0.3,0.8
		c0.2,0.3,0.4,0.5,0.5,0.6c0.1,0.1,0.1,0.4,0,0.8c-0.1,0.4-0.2,0.7-0.2,0.8c0,0.1,0.2,0.6,0.6,1.4c0.4,2.7,0.9,4.1,1.6,4.1
		c0.4,0,0.6-0.2,0.6-0.6c0.2-0.2,0.4-0.3,0.5-0.3c0.1,0,0.3-0.1,0.6-0.3c0.3-0.2,0.6-0.4,0.8-0.6c0,0.2,0,0.4,0.2,0.5
		c0.1,0.1,0.3,0.2,0.5,0.2c1.7-0.4,2.6-0.6,2.8-0.6c0.4,0,0.7-0.1,0.9-0.3c0.2-0.2,0.4-0.3,0.6-0.3c0.2,0,0.5,0.1,0.9,0.3
		c0.8,0.2,1.3,0,1.6-0.6h1.6c1,0.8,1.6,1.4,1.6,1.6c0.2,0,0.5,0.1,0.9,0.3c0.6,0.6,1.5,1.5,2.5,2.5c1,1,1.9,1.9,2.5,2.5
		c0.4,0,0.8,0.1,1.2,0.3c0,0.4,0,1.4,0,2.8c0,1.5,0,2.5,0,3.1c0.6,0.4,0.7,0.8,0.3,1.2c-0.4,0.4-0.8,0.7-1.2,0.9c0,0.4,0,1,0,1.9
		c-0.4,0.2-0.9,0.4-1.6,0.6c-0.2,0-0.3,0.2-0.3,0.6s0,0.7,0,0.9c-0.4-0.2-0.7-0.3-0.9-0.3c-0.6,0.4-0.9,0.9-0.9,1.6
		c-0.6,0.6-1,0.8-1.2,0.6c-0.2,0.2-0.5,0.6-0.9,1.1c-0.4,0.5-0.8,0.9-1.3,1.1c-0.2-0.2-0.5-0.1-0.9,0.3c-0.4,0.4-0.6,0.7-0.6,0.9
		c-0.4,0-1.1,0-1.9,0c-0.8-0.2-1.4,0-1.6,0.6c-0.4,0-1,0.1-1.9,0.2c-0.8,0.1-1.5,0.2-1.9,0.2c-0.4,0.2-0.6,0.7-0.6,1.4
		c0,0.7,0.2,1.3,0.6,1.7c0,0.2-0.1,0.4-0.3,0.5c-0.2,0.1-0.3,0.3-0.3,0.5c0,0.6,0,1.5,0,2.6c0,1.2,0.1,1.9,0.3,2.4
		c0,0.4,0.2,1,0.6,1.9c0.4,0.8,0.6,1.5,0.6,1.9c0,0.2-0.1,0.5-0.3,0.8c-0.2,0.3-0.3,0.6-0.2,0.8c0.1,0.2,0.2,0.4,0.2,0.6
		c0.2,0.2,0.4,0.3,0.6,0.3c0,0.2,0.1,0.3,0.3,0.2c0.2-0.1,0.3-0.1,0.3,0.2c0.2,0.4,0,0.6-0.6,0.6c-0.4,0.2-0.6,0.6-0.6,1.1
		s0,0.9,0,1.1c0,0.2,0.1,0.4,0.3,0.6c0.2,0.2,0.4,0.4,0.6,0.6c0,0.2-0.2,0.4-0.5,0.5c-0.3,0.1-0.5,0.3-0.5,0.5
		c0.2,0.2,0.6,0.5,1.1,0.9c0.5,0.4,0.8,0.8,0.8,1.2c0,0.2-0.2,0.5-0.5,0.9c-0.3,0.4-0.5,0.7-0.5,0.9c-0.2,0-0.2,0.3,0,0.9
		c0,0.4-0.1,1.2-0.2,2.4c-0.1,1.1-0.1,2.1,0,2.8c0.1,0.7,0.4,1.3,0.8,1.7c0,0.2,0.1,0.7,0.3,1.6c0,0.6-0.1,2.1-0.2,4.4
		c-0.1,2.3-0.1,3.7,0.2,4.1c0,0.2,0.3,0.6,0.9,1.3c0.2,0.6,0.3,1.7,0.2,3.1c-0.1,1.5-0.2,2.5-0.2,3.1c0,1,0,1.7,0,1.9
		c0,1.2,0,2.1,0,2.5c0.2,0,0.5,0.2,0.8,0.6c0.3,0.4,0.4,0.8,0.2,1.3c-0.6,0.2-0.9,0.8-0.9,1.7s0.3,1.5,0.9,1.7
		c-0.2,0.6-0.3,1.4-0.3,2.2c-0.6,0.6-0.6,1.8,0,3.4c0.6,1.7,0.4,2.7-0.6,3.1v1.9c-1.5,0.4-2.6,0.9-3.4,1.6c0.4,0.4,0.5,0.6,0.3,0.6
		c-0.2,0.2-0.4,0.2-0.6-0.2c-0.2-0.3-0.4-0.5-0.6-0.5c-0.2,0.2-0.4,0.5-0.6,0.8c-0.2,0.3-0.4,0.5-0.6,0.5c-0.2,0-0.5,0-0.8,0
		c-0.3,0-0.6,0-0.8,0c-1.7,1.2-2.7,1.6-3.1,0.9c-0.4,0.2-0.7,0.3-0.9,0.3c-0.2,0-0.4-0.1-0.6-0.3c-0.2-0.2-0.4-0.3-0.5-0.3
		c-0.1,0-0.3,0.1-0.5,0.3c-0.2,0.2-0.4,0.3-0.6,0.3c-0.4-1.5-0.7-2.3-0.9-2.5c-0.6,0-2.2-0.8-4.7-2.5c-0.2,0-0.4,0-0.6,0
		c-0.2,0-0.4,0-0.6,0c0-0.6-0.3-1.3-0.9-2.2c0-0.2-0.1-0.3-0.3-0.2c-0.2,0.1-0.4,0.2-0.6,0.2c0-0.2,0.2-0.6,0.6-1.2
		c0.2-1-0.1-1.8-0.9-2.2c0-0.2,0.1-0.4,0.3-0.6c0.2-0.2,0.3-0.4,0.3-0.6c0-0.2-0.1-0.6-0.3-1.1c-0.2-0.5-0.4-1-0.6-1.4
		c0-0.6,0.1-1.4,0.3-2.2c0.2-1.3,0.5-2.2,0.9-2.8c0-0.2-0.2-0.5-0.6-0.9c0-0.2,0.1-0.4,0.3-0.6c0.2-0.2,0.3-0.4,0.3-0.6
		c0-0.2-0.2-0.5-0.5-0.9c-0.3-0.4-0.5-0.7-0.5-0.9c0.2-0.4,0.3-0.7,0.3-0.9c0-0.2,0-0.4,0-0.6c0-0.2,0.1-0.4,0.3-0.6
		c0.2-0.2,0.3-0.4,0.3-0.6c0-0.2-0.3-0.5-0.9-0.9c0.6-0.8,0.9-1.6,0.9-2.2c-0.2,0-0.4-0.2-0.6-0.6c-0.2-0.4-0.3-0.8-0.3-1.1
		c0-0.3,0-0.8,0-1.6c0-0.7,0-1.2,0-1.4c0-0.6,0-1.3,0-2.2c0-1.5-0.3-2.4-0.9-2.8c0-2.7-0.1-5.2-0.3-7.5c0-0.2,0-0.6,0-1.2s0-1,0-1.2
		c0-0.2-0.2-0.5-0.6-0.8c-0.4-0.3-0.5-0.7-0.3-1.1c0.6-0.2,0.9-0.4,0.9-0.6c-0.4-1.2-0.6-2-0.6-2.2c0.4-0.4,0.6-0.7,0.6-0.9
		c0-0.2-0.2-0.7-0.5-1.4c-0.3-0.7-0.3-1.2,0.2-1.4c-0.2-0.4-0.3-1-0.3-1.7c0-0.7,0-1.4,0-2c0-0.4-0.1-0.8-0.3-1.2s-0.3-0.7-0.3-0.8
		c0-0.1,0-0.3,0.2-0.6c0.1-0.3,0.3-0.5,0.5-0.5c0-1.3-0.4-2.1-1.3-2.5c0-0.2,0.1-0.5,0.2-0.8c0.1-0.3,0.1-0.5-0.2-0.5
		c-0.2-0.4-0.5-0.5-0.8-0.3c-0.3,0.2-0.5,0.5-0.5,0.9c-0.6,0.2-1.4,0.2-2.2,0c-1.2-0.2-2.1,0-2.5,0.6c-0.2,0-0.8,0-1.9,0
		c-0.2,0-0.7,0.5-1.6,1.6c-0.2,0-0.3-0.2-0.2-0.5c0.1-0.3,0.1-0.5-0.2-0.5c0-0.4-0.4-0.3-1.3,0.3c-0.4,0.2-0.9,0.3-1.4,0.2
		c-0.5-0.1-0.9-0.2-1.1-0.2c-0.2,0.2-0.4,0.4-0.6,0.6c-0.2,0.2-0.4,0.3-0.6,0.3c-2.7,0.2-4.2,0.6-4.4,1.3c-3.8,0-5.8,0.4-6.2,1.2
		c-0.2,0-0.8-0.1-1.9-0.3h-0.6c-0.6,0-1.5,0.2-2.5,0.5c-1.1,0.3-1.8,0.5-2.2,0.5c-0.4,0.2-0.9,0.2-1.6,0c-1.5-0.2-2.3-0.1-2.5,0.3
		c-0.2,0-0.4,0.2-0.5,0.6s-0.3,0.6-0.5,0.6c-0.2-0.2-0.6-0.3-1.2-0.2c-0.6,0.1-1,0.2-1.2,0.2c-0.2,0-0.4-0.1-0.6-0.3
		c-0.2-0.2-0.4-0.3-0.6-0.3c-0.2,0-0.5,0.2-0.9,0.6h-8.1c0-0.2-0.6-0.4-1.9-0.6c-0.2-0.2-0.4-0.3-0.6-0.3c-0.8-0.4-1.5-0.6-1.9-0.6
		c-0.6,0.2-0.9,1-0.9,2.5l-0.3,0.9c0,0.2,0.1,0.5,0.3,0.9c0.2,0.4,0.3,0.7,0.3,0.9c0,0.4,0,1,0,1.9c-0.2,1.7-0.1,2.7,0.3,3.1
		c-0.2,1-0.1,1.9,0.3,2.5c0.4-0.2,0.7-0.3,0.9-0.3c0,0.2-0.1,0.4-0.3,0.6c-0.2,0.2-0.3,0.4-0.3,0.6c0.2,1.1,0,1.9-0.6,2.5
		c0,0.2,0.4,0.5,1.2,0.9v0.9c0,0.2-0.2,0.4-0.6,0.6c-0.2,3.1-0.2,4.8,0,5c0,0.4,0,1,0,1.9c0,1.3,0.3,2.1,0.9,2.5c0,0.2,0,0.5,0,0.8
		c0,0.3,0,0.5,0,0.6c0,0.1-0.2,0.3-0.5,0.5c-0.3,0.2-0.5,0.4-0.5,0.6c0,0.2,0.2,0.6,0.5,1.1c0.3,0.5,0.4,1,0.2,1.4
		c0,0.2-0.2,0.6-0.6,1.2c0,0.2,0.3,0.6,0.9,1.3c0,0.2-0.1,0.4-0.3,0.5c-0.2,0.1-0.3,0.3-0.3,0.5c0.4,0.2,0.5,1.2,0.3,3.1
		c0,0.4,0.1,1,0.2,1.9c0.1,0.8,0.2,1.3,0.2,1.6c0,3.8,0.2,5.8,0.6,6.2l0.3,2.5c0,1.2,0,2.6,0,4.1c0,1.5,0.2,2.5,0.6,3.1
		c0,0.2-0.1,0.5-0.3,0.9c-0.2,1.9-1.6,4.1-4.1,6.6c-0.4-0.2-1.1,0.2-2.2,1.2c-0.8,0.6-1.4,0.9-1.6,0.9c-0.6-0.4-1-0.6-1.2-0.6
		c-0.4,0-0.9,0.5-1.6,1.6c-0.2,0-0.3-0.1-0.3-0.3c0-0.2-0.1-0.4-0.3-0.6c-0.2-0.6-1.1-0.8-2.5-0.6c-0.6-0.4-1-0.9-1.2-1.6
		c-2.1,0.2-3.1-0.4-3.1-1.9c-0.8,0.4-1.8,0.5-2.8,0.3v-0.9c-0.2-0.2-0.5-0.6-0.9-1.2c-0.4-0.6-0.6-1-0.6-1.2c-0.6,0.2-0.9,0.2-0.9,0
		c-0.2-0.6,0-1.1,0.6-1.6c-0.2-0.2-0.3-1.3-0.2-3.3c0.1-2,0.2-3.2,0.2-3.6c0-0.4-0.1-2-0.3-4.7c-0.2-0.8-0.3-1.3-0.3-1.6
		c-0.2,0-0.4,0.1-0.6,0.2c-0.2,0.1-0.3,0.1-0.3-0.2c-0.2,0-0.3-0.8-0.3-2.5c0.2-0.2,0.4-0.4,0.6-0.5c0.2-0.1,0.3-0.3,0.3-0.5
		c-0.2-0.6-0.3-1.8-0.2-3.6s0.1-3.1-0.2-3.9c0-0.2-0.1-0.4-0.2-0.6c-0.1-0.2-0.2-0.4-0.2-0.6c0-0.2,0.1-0.5,0.3-0.9
		c0.2-0.4,0.3-0.7,0.3-0.9c0-0.6-0.1-1.1-0.3-1.6c0-0.2-0.1-0.5-0.3-0.8c-0.2-0.3-0.3-0.6-0.3-0.8c0.2-0.4,0.3-0.7,0.3-0.9
		c0-0.2-0.1-0.4-0.2-0.6C7,148.1,7,147.9,7,147.8c0-0.1,0.1-0.3,0.2-0.6s0.1-0.5,0-0.6S6.9,146,6.8,145c-0.1-0.9-0.2-1.7-0.2-2.3
		c0.2-1.3,0.3-2.1,0.3-2.5c-0.2,0-0.3-0.3-0.3-0.9c0-1.2-0.1-2-0.3-2.2c0.2-0.2,0.3-0.5,0.2-0.9c-0.1-0.4-0.4-0.7-0.8-0.9
		c-0.4-1-0.2-1.7,0.6-1.9c0-0.2-0.1-0.4-0.3-0.5c-0.2-0.1-0.4-0.3-0.6-0.5c0.6-0.6,0.8-1.4,0.6-2.2c-0.2-0.6-0.3-2.2-0.2-4.8
		c0.1-2.6,0.2-4.3,0.2-5.2c0-2.7-0.2-4.5-0.6-5.3c0.4-0.6,0.6-1.3,0.5-2.2c-0.1-0.8-0.5-1.2-1.1-1.2c-0.2-0.2-0.3-0.5-0.3-0.9v-0.3
		c0.2-0.2,0.4-0.3,0.5-0.2c0.1,0.1,0.3,0.1,0.5-0.2c0.2-0.2,0.1-0.5-0.3-0.9c0-0.2,0-0.4,0-0.6c-0.2-0.8-0.2-2.7,0-5.6
		S5,98.2,4.2,98H3.5c-0.2-0.2,0-0.7,0.6-1.6c-0.4-0.8-0.5-1.8-0.3-2.8c0.2-1,0.2-2,0-3c-0.2-0.9-0.7-1.4-1.6-1.4
		c0.2-2.1,0.5-3.2,0.9-3.4C3,85.4,3,84.4,3.1,83c0.1-1.5,0-2.5-0.2-3.1c-0.2-0.2-0.4-0.5-0.6-0.8C2.1,78.7,2,78.5,2,78.3
		c0-0.2,0.1-0.7,0.3-1.6C2.1,76.5,2,75.5,2,73.6c0-0.2-0.1-0.6-0.2-1.2c-0.1-0.6-0.2-1-0.2-1.2c0-0.2,0-0.5,0-0.9
		c0-0.2-0.2-0.4-0.5-0.6c-0.3-0.2-0.4-0.4-0.3-0.6C1,68.7,1.3,68.4,1.7,68c0-0.2-0.1-0.5-0.3-0.8c-0.2-0.3-0.3-0.6-0.3-0.8
		C0.8,66,0.8,65.5,0.9,65c0.1-0.5,0.2-0.9,0.2-1.1c0-0.2-0.1-0.6-0.2-1.2c-0.1-0.6-0.2-1.1-0.2-1.6c0-0.2,0-0.7,0-1.4
		c0-0.7,0-1.2,0-1.4c0-1.2-0.1-2-0.3-2.2c0.6-0.8,0.7-1.6,0.3-2.2c0-0.2-0.2-0.3-0.5-0.3c-0.3,0-0.5-0.1-0.5-0.3
		c-0.2-0.4,0.1-1,0.9-1.9c-0.4-0.4-0.6-1-0.6-1.9c0-0.4-0.1-1.1-0.2-2.2c-0.1-1-0.2-1.8-0.2-2.2c0.2-0.8,0.3-1.3,0.3-1.4
		c0-0.1-0.1-0.3-0.2-0.6c-0.1-0.3-0.2-0.5-0.2-0.6c0-0.1,0.2-0.5,0.6-1.1c0.4-0.6,0.6-1.2,0.6-1.9c0.2-0.2,0.6-0.6,1.2-1.3
		c1-1.2,2.1-2,3.1-2.2c0.2-0.2,0.4-0.5,0.6-0.9c0-0.2,0-0.4,0-0.6c0.4,0,0.8,0.1,1.1,0.3c0.3,0.2,0.7,0.3,1.1,0.3
		c0.2,0,0.4-0.2,0.5-0.5c0.1-0.3,0.3-0.5,0.5-0.5c0.2,0,0.5,0.1,0.8,0.3c0.3,0.2,0.5,0.4,0.5,0.6c0.4-0.2,0.8-0.3,1.2-0.2
		c0.4,0.1,0.8,0.2,1.3,0.2c1.5,0.8,2.2,1.4,2.2,1.6c2.7,1.1,4.8,2.6,6.2,4.7c0.2,0.4,0.3,0.7,0.3,0.9c0.4,0.4,0.9,1,1.6,1.9
		c0,0.2-0.1,0.4-0.2,0.6c-0.1,0.2-0.2,0.4-0.2,0.6c0.4,0.6,0.6,1.3,0.6,1.9c0,0.2,0.1,0.5,0.2,0.8c0.1,0.3,0.2,0.5,0.2,0.6
		c0,0.1-0.1,0.5-0.3,1.1c0,0.4,0,1,0,1.7c0,0.7,0,1.3,0,1.7c0,1,0.2,1.7,0.6,1.9c-1,0.6-0.9,1.3,0.3,1.9c0,0.2-0.3,0.5-0.9,0.9
		c0.2,2.9,0.4,4.5,0.6,4.7c0,1,0.1,1.9,0.3,2.5c-0.2,0-0.2,0.8,0,2.5c0.2,1.7,0.3,2.7,0.3,3.1c-0.2,0.6-0.3,1-0.3,1.1
		c0,0.1,0,0.4,0,0.8c0.2,0.4,0.3,0.9,0.3,1.6c-0.2,1.5,0,2.3,0.6,2.5c-0.4,0.4-0.7,0.7-0.9,0.9c0,0.4,0.2,1.2,0.5,2.3
		c0.3,1.1,0.5,1.9,0.5,2.3c0.2,1.1,0.4,1.8,0.6,2.2c-0.2,0.2-0.3,1.2-0.3,2.8c0,0.6,0,1,0,1.1c0,0.1,0.1,0.3,0.3,0.6
		c0.2,0.3,0.3,0.6,0.3,0.8c0,0.2,0,0.5,0,0.8c0,0.3,0,0.5,0,0.6c0,0.1,0.1,0.3,0.3,0.5c0.2,0.2,0.3,0.4,0.3,0.6s-0.1,0.4-0.3,0.5
		s-0.4,0.3-0.6,0.5c0.4,0.4,0.6,1,0.5,1.9c-0.1,0.8-0.2,1.5-0.2,1.9c0.2,0.6,0.7,1.1,1.6,1.4c0.8,0.3,1.7,0.4,2.7,0.3
		c0.9-0.1,1.8-0.2,2.7-0.2c2.1,0.4,3.2,0.4,3.4,0l1.6,0.3c0.2,0,0.5,0.1,0.8,0.3c0.3,0.2,0.6,0.3,0.8,0.3c0.6,0.2,1.5-0.1,2.5-0.9
		c0.4,0,0.9,0.1,1.6,0.2c0.6,0.1,1,0.2,1.2,0.2c0.2,0,0.3-0.1,0.3-0.3c2.3,0.6,3.8,0.3,4.4-0.9c0.4,0,0.7,0.1,0.9,0.3
		c0.2,0.2,0.4,0.4,0.6,0.6c1.7-1,2.6-1.7,2.8-1.9c0.4,0,1,0,1.9,0c0.4,0,0.9,0,1.6,0s1,0,1.2,0c0.2,0,0.5-0.1,0.8-0.3
		c0.3-0.2,0.6-0.3,0.8-0.3c0.2,0,0.5,0.1,0.8,0.2c0.3,0.1,0.5,0.2,0.6,0.2c0.1,0,0.4-0.1,0.9-0.3c0.5-0.2,0.9-0.3,1.1-0.3l4.7-0.9
		c0.2,0,0.5-0.2,0.8-0.5c0.3-0.3,0.6-0.5,0.8-0.5c0.2,0,0.4,0.1,0.6,0.3c0.2,0.2,0.4,0.3,0.6,0.3c0.4,0,0.9-0.3,1.6-0.9
		c0.2,0,0.4-0.2,0.6-0.6c0.6-0.8,1.4-0.9,2.2-0.3c0.4-0.4,1.3-0.7,2.5-0.8c1.2-0.1,2.1-0.3,2.5-0.5c0-0.2,0.1-0.6,0.2-1.1
		c0.1-0.5,0.1-0.8,0-0.9c-0.1-0.1-0.3-0.3-0.5-0.5c-0.2-0.2-0.3-0.4-0.3-0.6c0.2-0.4,0.3-0.7,0.3-0.9l-0.3-0.6
		c-0.4-0.6-0.4-1.1,0-1.6c0-1-0.3-1.8-0.9-2.2c0-0.6,0-1.6,0-3c0-1.3-0.1-2.3-0.3-3c-0.4-0.6-0.6-1-0.6-1.3c0-0.4,0-1.1,0-2.2
		c0-1-0.1-1.7-0.3-1.9c0-0.6-0.1-1-0.2-1.1c-0.1-0.1-0.3-0.2-0.6-0.3c-0.3-0.1-0.6-0.2-0.8-0.2c0-0.4,0.3-0.8,0.9-1.2
		c0-1-0.1-2.1-0.3-3.1c-0.2-1-0.7-1.5-1.6-1.2c0-0.4,0.3-0.9,0.9-1.6c-0.2-0.4-0.3-1-0.2-1.9c0.1-0.8,0.1-1.5-0.2-1.9
		c0-0.2-0.3-0.6-0.9-1.3c0-0.4,0-0.9,0-1.6c0-0.6-0.1-1-0.3-1.3c0-0.2-0.1-0.4-0.3-0.5c-0.2-0.1-0.4-0.3-0.6-0.5
		c0.2-2.7,0.1-4.4-0.3-5c0-0.4-0.1-1.1-0.3-2c-0.2-0.9-0.3-1.5-0.3-1.7c0-0.2,0.1-0.5,0.2-0.9c0.1-0.4,0.2-0.7,0.2-0.9
		c0-0.2-0.3-0.5-0.9-0.9c0.2-0.6,0.1-1.3-0.3-2.2c-0.4-0.8-0.6-1.3-0.6-1.6c0-0.4,0-1.1,0-2c0-0.9,0-1.6,0-2
		c-0.2-0.2-0.5-0.5-0.9-0.9c-0.2-0.2-0.3-0.6-0.2-1.2s0.2-1,0.2-1.2c-0.2-0.2-0.4-0.5-0.6-0.8c-0.2-0.3-0.4-0.6-0.6-0.8
		c0-0.2,0.1-0.9,0.2-2c0.1-1.1,0.1-1.9-0.2-2.3c-0.4,0-0.6-0.1-0.6-0.3c-0.2-0.2-0.3-0.9-0.3-2.2c0-1.2-0.3-1.9-0.9-1.9
		c0.6-2.1,0.5-3.8-0.3-5c0.2,0,0.4,0,0.6,0c0.2,0,0.3-0.1,0.3-0.3c0.8-1.3,1.2-2.1,1.2-2.5c0.6-0.8,1.6-1.7,3-2.5
		c1.3-0.8,2.2-1.5,2.7-1.9c0.4,0.4,0.7,0.6,0.9,0.6C76,9.1,77,8.9,78.9,8.9c0.4,0.4,1,0.7,1.9,0.9c0.8,0.2,1.5,0.5,1.9,0.8
		c0.4,0.3,1,1,1.9,2c0.2,0,0.4,0,0.5,0c0.1,0,0.3,0,0.5,0c0,0.2,0.3,0.6,0.9,1.1c0.6,0.5,1,0.9,1.2,1.1c0.2,0.2,0.4,0.5,0.5,0.9
		c0.1,0.4,0.2,0.7,0.2,0.9c0.2,0.2,0.5,0.6,0.9,1.1c0.4,0.5,0.6,0.9,0.6,1.1c0,0.2,0,0.5,0,0.9c0.4,0.4,0.8,1.1,1.1,2.2
		c0.3,1,0.7,1.8,1.1,2.2c0,0.4-0.1,1.3-0.2,2.5c-0.1,1.2-0.1,2.1,0.2,2.5c0,0.2,0.2,0.5,0.6,0.9c0,0.2,0,0.5,0,0.9s0,0.7,0,0.9
		c0,0.2,0.1,0.5,0.3,0.9c0,0.2-0.1,0.5-0.2,0.8c-0.1,0.3-0.2,0.6-0.2,0.8c0.2,0.4,0.5,1,0.8,1.9c0.3,0.8,0.5,1.5,0.5,1.9
		c0,0.2,0,0.6,0,1.3c0,0.2,0.1,0.6,0.3,1.2c0.2,0.6,0.4,1.1,0.6,1.6l0.6,2.8C95.9,45.1,96.1,45.2,96.1,45.4z"/>
	<path fill="#643282" d="M169.6,124.2c0.8,0.6,1.5,0.9,1.9,0.9l0.9-0.6c1.5,0,3.4,0,5.9,0c2.5,0,4.5,0,5.9,0c1,0.6,1.7,0.8,1.9,0.6
		c0.2,0.2,0.3,0.7,0.3,1.6c0.2,0.4,0.6,0.8,1.1,1.1c0.5,0.3,0.9,0.7,1.1,1.1c0.2,0.6,0.4,0.9,0.6,0.9c0.4-0.4,0.7-0.5,0.9-0.3
		l0.3,2.2c0.2,0.2,0.6,0.5,1.3,0.9c0.2,1.9,0.6,2.7,1.2,2.5c0.2,0,0.4-0.1,0.5-0.3c0.1-0.2,0.3-0.4,0.5-0.6c0.2,0,0.6,0.3,1.2,0.9
		c0.2,0,0.6,0,1.2,0c1.3,0.2,2.1,0.1,2.5-0.3c0,0.8,0.3,1.2,0.9,1.2c0.2,0.2,0.4,0.2,0.6,0c0.2-0.2,0.4-0.3,0.6-0.3v0.9
		c1.9,0.8,3.1,1.7,3.8,2.5c0-0.2,0.3-0.2,0.9,0c2.7,2.7,4.3,4.4,4.7,5c0.2,0.2,0.7,0.5,1.6,0.9c0,0.2,0.3,0.7,0.8,1.4
		c0.5,0.7,1.1,1.2,1.7,1.4c1,1.5,1.6,2.5,1.6,3.1c0.2,0.2,0.4,0.5,0.6,0.9c0,0.4,0.1,0.7,0.2,0.9c0.1,0.2,0.3,0.4,0.5,0.6
		c0.2,0.2,0.4,0.4,0.6,0.6c0,0.2-0.1,0.7-0.3,1.6c0,0.4,0.1,1.1,0.3,2.2c0.2,1,0.3,1.8,0.3,2.2c0,0.2-0.1,0.8-0.3,1.7
		c-0.2,0.9-0.2,1.6,0,2c-0.4,0.4-0.8,1.2-1.2,2.5c-0.4,1.3-0.9,2.1-1.6,2.5c-0.2,0.6-0.7,1.4-1.4,2.3c-0.7,0.9-1.2,1.6-1.4,2h-0.6
		c-1,0.8-2.6,2.1-4.7,3.8c-2.1,1.7-3.7,2.9-4.7,3.8c0.2,0.6,0.2,0.9,0,0.9c-0.2,0-0.6-0.2-1.2-0.6c-1.5,0.8-2.5,0.9-3.1,0.3
		c-1.7,1.2-2.6,2.2-2.8,2.8c-1-0.4-2.3-0.2-3.8,0.6c-0.6,0.4-1,0.7-1.2,0.9c-0.2,0-0.4,0-0.6,0c-0.2,0-0.3,0.1-0.3,0.3
		c-0.2,0-0.5,0.2-0.8,0.5c-0.3,0.3-0.5,0.5-0.6,0.5c-0.1,0-0.4,0-0.9-0.2c-0.5-0.1-0.9-0.1-1.1,0.2c-0.4,0.4-0.7,0.6-0.9,0.6
		c-0.2,0.2-0.8,0.4-1.7,0.6c-0.9,0.2-1.6,0.5-2,0.9c-1.5-0.2-2.5-0.2-3.1,0c-0.6,0.6-1,0.9-1.2,0.9c-0.2-0.4-0.6-0.6-1.2-0.6
		c-0.6,0-1.1,0.2-1.3,0.6c-3.1-0.6-4.9-0.6-5.3,0c-1.3-0.4-2-0.4-2.2,0c-0.4-0.2-1.2-0.3-2.2-0.2c-1.1,0.1-1.6-0.2-1.6-0.8
		c-0.2,0-0.7,0-1.4,0c-0.7,0-1.2-0.1-1.4-0.3c-0.8,0.4-1.7,0.3-2.5-0.3c-0.4-0.2-0.7-0.4-0.9-0.5c-0.2-0.1-0.5-0.2-0.8-0.2
		c-0.3,0-0.6,0-0.8,0c-1-0.8-1.8-1.1-2.2-0.9c-0.4-0.2-0.7-0.5-0.9-0.9h-0.6c-1-1-2.1-1.7-3.1-1.9c-0.8-0.8-1.7-1.3-2.5-1.6
		c-0.4-1-1.2-2.2-2.5-3.4c-1.2-1.2-2-2.1-2.2-2.5c0-0.4-0.3-1-0.9-1.9c0-0.2,0-0.4,0.2-0.5c0.1-0.1,0.2-0.3,0.2-0.5
		c-0.2-0.2-0.5-0.4-0.9-0.5c-0.4-0.1-0.7-0.3-0.8-0.5c-0.1-0.2,0.1-0.5,0.5-0.9c0-0.4-0.2-0.9-0.6-1.6c-0.4-0.6-0.6-1-0.6-1.2
		c-0.4-1.3-0.7-2-0.9-2.2c0-0.8-0.1-1.5-0.3-1.9c0-0.2,0.1-0.4,0.3-0.5c0.2-0.1,0.2-0.3,0-0.5c0-0.2-0.2-0.4-0.6-0.6
		c-0.2,0-0.3-0.1-0.3-0.3c-0.2-0.6,0-1.4,0.6-2.2c0.2-0.4,0.3-1.1,0.2-2.2c-0.1-1-0.2-1.8-0.2-2.2c0-0.2,0.2-0.5,0.5-0.9
		c0.3-0.4,0.5-0.7,0.6-0.8c0.1-0.1,0.1-0.3,0-0.6c-0.1-0.3-0.1-0.6,0.2-0.8c0-0.4,0.4-1.1,1.2-2.2l1.6-2.2c1-1.3,1.7-2,1.9-2.2
		c0-0.2,0-0.5,0-0.8c0-0.3,0.1-0.6,0.2-0.8c0.1-0.2,0.5-0.4,1.1-0.6c1-1,1.8-1.9,2.2-2.5c0.2,0,0.4-0.1,0.5-0.3
		c0.1-0.2,0.2-0.4,0.2-0.6c0.2-0.2,0.7-0.7,1.6-1.4c0.8-0.7,1.3-1.3,1.6-1.7c0.2,0,0.4-0.1,0.5-0.2c0.1-0.1,0.3-0.2,0.5-0.2
		c0.2-0.2,0.5-0.5,0.8-0.9c0.3-0.4,0.5-0.7,0.6-0.9c0.1-0.2,0.4-0.4,0.9-0.5c0.5-0.1,0.9-0.3,1.1-0.5c0.2-0.2,0.5-0.5,0.9-0.9
		c0.4-0.4,0.7-0.7,0.9-0.9c0.4,0,0.7,0,0.9,0l3.8-3.8c0.2,0,0.8-0.4,1.9-1.2h0.6c1.7-1.2,3.2-2,4.7-2.2
		C168.4,125.1,168.9,124.4,169.6,124.2z M168,126.1c0.4-1,0.9-1.7,1.6-1.9c0.8,0.6,1.5,0.9,1.9,0.9l0.9-0.6c1.5,0,3.4,0,5.9,0
		c2.5,0,4.5,0,5.9,0c1,0.6,1.7,0.8,1.9,0.6c0.2,0.2,0.3,0.7,0.3,1.6c0.2,0.4,0.6,0.8,1.1,1.1c0.5,0.3,0.9,0.7,1.1,1.1
		c0.2,0.6,0.4,0.9,0.6,0.9c0.4-0.4,0.7-0.5,0.9-0.3l0.3,2.2c0.2,0.2,0.6,0.5,1.3,0.9c0.2,1.9,0.6,2.7,1.2,2.5c0.2,0,0.4-0.1,0.5-0.3
		c0.1-0.2,0.3-0.4,0.5-0.6c0.2,0,0.4,0.2,0.6,0.5c0.2,0.3,0.4,0.5,0.6,0.5c0.2,0,0.6,0,1.2,0c1.3,0.2,2.1,0.1,2.5-0.3
		c0,0.8,0.3,1.2,0.9,1.2c0.2,0.2,0.4,0.2,0.6,0c0.2-0.2,0.4-0.3,0.6-0.3v0.9c1.9,0.8,3.1,1.7,3.8,2.5c0-0.2,0.3-0.2,0.9,0
		c2.7,2.7,4.3,4.4,4.7,5c0.2,0.2,0.7,0.5,1.6,0.9c0,0.2,0.3,0.7,0.8,1.4c0.5,0.7,1.1,1.2,1.7,1.4c1,1.5,1.6,2.5,1.6,3.1
		c0.2,0.2,0.4,0.5,0.6,0.9c0,0.4,0.1,0.7,0.2,0.9c0.1,0.2,0.3,0.4,0.5,0.6c0.2,0.2,0.4,0.4,0.6,0.6c0,0.2-0.1,0.7-0.3,1.6
		c0,0.4,0.1,1.1,0.3,2.2c0.2,1,0.3,1.8,0.3,2.2c0,0.2-0.1,0.8-0.3,1.7c-0.2,0.9-0.2,1.6,0,2c-0.4,0.4-0.8,1.2-1.2,2.5
		c-0.4,1.3-0.9,2.1-1.6,2.5c-0.2,0.6-0.7,1.4-1.4,2.3c-0.7,0.9-1.2,1.6-1.4,2h-0.6c-1,0.8-2.6,2.1-4.7,3.8c-2.1,1.7-3.7,2.9-4.7,3.8
		c0.2,0.6,0.2,0.9,0,0.9c-0.2,0-0.6-0.2-1.2-0.6c-1.5,0.8-2.5,0.9-3.1,0.3c-1.7,1.2-2.6,2.2-2.8,2.8c-1-0.4-2.3-0.2-3.8,0.6
		c-0.6,0.4-1,0.7-1.2,0.9c-0.2,0-0.4,0-0.6,0c-0.2,0-0.3,0.1-0.3,0.3c-0.2,0-0.5,0.2-0.8,0.5c-0.3,0.3-0.5,0.5-0.6,0.5
		c-0.1,0-0.4,0-0.9-0.2c-0.5-0.1-0.9-0.1-1.1,0.2c-0.4,0.4-0.7,0.6-0.9,0.6c-0.2,0.2-0.8,0.4-1.7,0.6c-0.9,0.2-1.6,0.5-2,0.9
		c-1.5-0.2-2.5-0.2-3.1,0c-0.6,0.6-1,0.9-1.2,0.9c-0.2-0.4-0.6-0.6-1.2-0.6c-0.6,0-1.1,0.2-1.3,0.6c-3.1-0.6-4.9-0.6-5.3,0
		c-1.3-0.4-2-0.4-2.2,0c-0.4-0.2-1.2-0.3-2.2-0.2c-1.1,0.1-1.6-0.2-1.6-0.8c-0.2,0-0.7,0-1.4,0c-0.7,0-1.2-0.1-1.4-0.3
		c-0.8,0.4-1.7,0.3-2.5-0.3c-0.4-0.2-0.7-0.4-0.9-0.5c-0.2-0.1-0.5-0.2-0.8-0.2c-0.3,0-0.6,0-0.8,0c-1-0.8-1.8-1.1-2.2-0.9
		c-0.4-0.2-0.7-0.5-0.9-0.9h-0.6c-1-1-2.1-1.7-3.1-1.9c-0.8-0.8-1.7-1.3-2.5-1.6c-0.4-1-1.2-2.2-2.5-3.4c-1.2-1.2-2-2.1-2.2-2.5
		c0-0.4-0.3-1-0.9-1.9c0-0.2,0-0.4,0.2-0.5c0.1-0.1,0.2-0.3,0.2-0.5c-0.2-0.2-0.5-0.4-0.9-0.5c-0.4-0.1-0.7-0.3-0.8-0.5
		c-0.1-0.2,0.1-0.5,0.5-0.9c0-0.4-0.2-0.9-0.6-1.6c-0.4-0.6-0.6-1-0.6-1.2c-0.4-1.3-0.7-2-0.9-2.2c0-0.8-0.1-1.5-0.3-1.9
		c0-0.2,0.1-0.4,0.3-0.5c0.2-0.1,0.2-0.3,0-0.5c0-0.2-0.2-0.4-0.6-0.6c-0.2,0-0.3-0.1-0.3-0.3c-0.2-0.6,0-1.4,0.6-2.2
		c0.2-0.4,0.3-1.1,0.2-2.2c-0.1-1-0.2-1.8-0.2-2.2c0-0.2,0.2-0.5,0.5-0.9c0.3-0.4,0.5-0.7,0.6-0.8c0.1-0.1,0.1-0.3,0-0.6
		c-0.1-0.3-0.1-0.6,0.2-0.8c0-0.4,0.4-1.1,1.2-2.2l1.6-2.2c1-1.3,1.7-2,1.9-2.2c0-0.2,0-0.5,0-0.8c0-0.3,0.1-0.6,0.2-0.8
		c0.1-0.2,0.5-0.4,1.1-0.6c1-1,1.8-1.9,2.2-2.5c0.2,0,0.4-0.1,0.5-0.3c0.1-0.2,0.2-0.4,0.2-0.6c0.2-0.2,0.7-0.7,1.6-1.4
		c0.8-0.7,1.3-1.3,1.6-1.7c0.2,0,0.4-0.1,0.5-0.2c0.1-0.1,0.3-0.2,0.5-0.2c0.2-0.2,0.5-0.5,0.8-0.9c0.3-0.4,0.5-0.7,0.6-0.9
		c0.1-0.2,0.4-0.4,0.9-0.5c0.5-0.1,0.9-0.3,1.1-0.5c0.2-0.2,0.5-0.5,0.9-0.9c0.4-0.4,0.7-0.7,0.9-0.9c0.4,0,0.7,0,0.9,0
		c0.4-0.4,1-1,1.9-1.9c0.8-0.8,1.5-1.5,1.9-1.9c0.2,0,0.8-0.4,1.9-1.2h0.6C165,127,166.5,126.3,168,126.1z M177.4,147.4
		c-0.6-0.4-1.2-0.4-1.9,0.2c-0.6,0.5-1.3,0.7-1.9,0.5c-1,0.8-1.7,1.3-1.9,1.3c-0.8,0.6-1.5,1-1.9,1.2l-0.3,0.3
		c-0.2,0-0.6,0.2-1.1,0.5c-0.5,0.3-0.9,0.6-1.1,0.8c-0.2,0.2-0.3,0.4-0.3,0.6c0,0.2-0.1,0.4-0.2,0.5c-0.1,0.1-0.3,0.2-0.6,0.3
		c-0.3,0.1-0.5,0.2-0.6,0.3c-0.1,0.1-0.4,0.5-0.8,1.1c-0.2,0.2-0.5,0.5-0.8,0.8c-0.3,0.3-0.6,0.6-0.8,0.8c-1.9,1.7-3.1,2.9-3.8,3.8
		v0.9c-0.2,0.4-0.5,0.7-0.9,0.9c0,0.6-0.2,1.3-0.6,2c-0.4,0.7-0.6,1.4-0.6,2c0.8,1,1.3,1.8,1.3,2.2c0.2,0.2,0.6,0.6,1.1,1.1
		c0.5,0.5,1,0.9,1.4,1.1c0.4-0.2,1.9-0.2,4.5,0c2.6,0.2,3.9-0.1,3.9-0.9c0.2,0,0.4,0.1,0.6,0.3c0.2,0.2,0.4,0.3,0.6,0.3
		c0-0.2,0.1-0.4,0.3-0.5c0.2-0.1,0.4-0.2,0.6-0.2c0.2,0.2,0.4,0.3,0.6,0.3c0.4-0.2,1.8-0.3,4.1-0.3c0.2-0.6,0.8-0.9,1.9-0.9
		c0.6,0,1-0.1,1.2-0.3c0.2,0,0.4-0.1,0.6-0.3c0.8-0.6,1.6-0.8,2.2-0.6c0-0.2,0.8-0.5,2.5-0.9l0.9-0.6c2.1-1.2,3.2-2,3.4-2.2
		c0.4,0,0.7,0,0.9,0c2.1-1.9,3.4-2.9,4.1-3.1c0-0.2,0.2-0.5,0.5-0.8c0.3-0.3,0.5-0.7,0.5-1.1c0-0.4-0.5-0.7-1.6-0.9
		c-1-0.2-1.7-0.3-1.9-0.3c0,0.2-0.9,0.2-2.8,0c-0.2,0-0.5,0-0.8,0s-0.6,0-0.8,0c-0.2,0-0.6-0.1-1.1-0.3c-0.5-0.2-1-0.2-1.4,0
		c-0.2-0.4-0.7-0.8-1.4-1.2c-0.7-0.4-1.2-0.8-1.4-1.3c-0.2-0.2-0.3-0.5-0.3-0.9c0-0.4-0.1-0.7-0.3-0.9c-0.8,0.2-1.3,0.2-1.3,0
		c-0.2,0-0.3-0.5-0.3-1.6c0-0.2-0.2-0.3-0.6-0.3c-0.4,0-0.7-0.1-0.9-0.3c0.6-0.8,0.8-2,0.6-3.4C178.7,147.1,178.2,147.2,177.4,147.4
		z M178.9,147.1c-0.2,0-0.7,0.1-1.6,0.3c-0.6-0.4-1.2-0.4-1.9,0.2c-0.6,0.5-1.3,0.7-1.9,0.5c-1,0.8-1.7,1.3-1.9,1.3
		c-0.8,0.6-1.5,1-1.9,1.2l-0.3,0.3c-0.2,0-0.6,0.2-1.1,0.5c-0.5,0.3-0.9,0.6-1.1,0.8c-0.2,0.2-0.3,0.4-0.3,0.6
		c0,0.2-0.1,0.4-0.2,0.5c-0.1,0.1-0.3,0.2-0.6,0.3c-0.3,0.1-0.5,0.2-0.6,0.3c-0.1,0.1-0.4,0.5-0.8,1.1c-0.2,0.2-0.5,0.5-0.8,0.8
		c-0.3,0.3-0.6,0.6-0.8,0.8c-1.9,1.7-3.1,2.9-3.8,3.8v0.9c-0.2,0.4-0.5,0.7-0.9,0.9c0,0.6-0.2,1.3-0.6,2c-0.4,0.7-0.6,1.4-0.6,2
		c0.8,1,1.3,1.8,1.3,2.2c0.2,0,0.6,0.3,1.1,0.9c0.5,0.6,1,1,1.4,1.2c0.4-0.2,1.9-0.2,4.5,0c2.6,0.2,3.9-0.1,3.9-0.9
		c0.2,0,0.4,0.1,0.6,0.3c0.2,0.2,0.4,0.3,0.6,0.3c0-0.2,0.1-0.4,0.3-0.5c0.2-0.1,0.4-0.2,0.6-0.2c0.2,0.2,0.4,0.3,0.6,0.3
		c0.4-0.2,1.8-0.3,4.1-0.3c0.2-0.6,0.8-0.9,1.9-0.9c0.6,0,1-0.1,1.2-0.3c0.2,0,0.4-0.1,0.6-0.3c0.8-0.6,1.6-0.8,2.2-0.6
		c0-0.2,0.8-0.5,2.5-0.9l0.9-0.6c2.1-1.2,3.2-2,3.4-2.2c0.4,0,0.7,0,0.9,0c2.1-1.9,3.4-2.9,4.1-3.1c0-0.2,0.2-0.5,0.5-0.8
		c0.3-0.3,0.5-0.7,0.5-1.1c0-0.4-0.5-0.7-1.6-0.9c-1-0.2-1.7-0.3-1.9-0.3c0,0.2-0.9,0.2-2.8,0c-0.2,0-0.5,0-0.8,0s-0.6,0-0.8,0
		c-0.2,0-0.6-0.1-1.1-0.3c-0.5-0.2-1-0.2-1.4,0c-0.2-0.4-0.7-0.8-1.4-1.2c-0.7-0.4-1.2-0.8-1.4-1.3c-0.2-0.2-0.3-0.5-0.3-0.9
		c0-0.4-0.1-0.7-0.3-0.9c-0.8,0.2-1.3,0.2-1.3,0c-0.2,0-0.3-0.5-0.3-1.6c0-0.2-0.2-0.3-0.6-0.3c-0.4,0-0.7-0.1-0.9-0.3
		C178.9,149.7,179.1,148.5,178.9,147.1z"/>
	<path fill="#643282" d="M269,115.8c0.8,0.8,1.5,1.2,1.9,1.2c0.4,0.4,1.1,0.8,2.2,1.3c1,0.4,1.7,0.7,1.9,0.9c0,0.2,0,0.5,0,0.9
		c0.2,0.4,0.5,0.8,0.9,1.2c0.2,0.4,0.8,1.2,1.7,2.4s0.9,1.9-0.2,2.3c0,0.2,0.3,0.5,0.8,0.8c0.5,0.3,0.8,0.7,0.8,1.1
		c0,0.2,0,0.4,0,0.6c0,0.2,0,0.4,0,0.6c-0.2,0-0.2,0.3,0,0.9c-0.2,0.4-0.5,0.8-0.9,1.2l-0.6,0.3c-0.2,0.2-0.6,0.6-1.1,1.3
		c-0.5,0.6-1,0.9-1.4,0.9c0,0.6,0.1,1.1,0.3,1.3c-0.6,0.4-1.4,1.1-2.3,2c-0.9,0.9-1.6,1.6-2,2c-0.8,0.2-1.2,0.4-1.2,0.6
		c0.4,0.4,1.3,0.7,2.6,0.8c1.4,0.1,2.2,0.4,2.7,0.8c0.2,0,1,0,2.5,0c0.2,0,0.5,0.2,0.9,0.5c0.4,0.3,0.7,0.5,0.9,0.5
		c0.2,0,0.5-0.1,0.8-0.2c0.3-0.1,0.6-0.2,0.8-0.2s0.6,0.1,1.3,0.3c0.2,0,0.6,0,1.2,0c0.6,0,1,0.1,1.2,0.3c0.4,0.2,0.7,0.3,0.9,0.3
		c0.2,0.2,0.7,0.3,1.4,0.2c0.7-0.1,1.3-0.1,1.6,0c0.3,0.1,0.9,0.8,1.7,2c0.2,0,0.5,0,0.9,0c2.9,2.5,4.6,4,5,4.4
		c0.4,1,0.8,1.7,1.3,1.9c0,0.8,0.3,1.7,0.9,2.5c0.2,0.2,0.2,1.2,0,2.8c0,0.4,0.1,1,0.3,1.9c0.2,1.9,0,3.1-0.6,3.8
		c-0.2,2.1-0.6,3.3-1.2,3.8c0,0.2-0.3,0.9-0.9,2.2c0,0.2,0.2,0.4,0.5,0.5c0.3,0.1,0.5,0.3,0.5,0.5c0,0.2-0.2,0.4-0.5,0.5
		c-0.3,0.1-0.6,0.3-0.8,0.5c0.2,0.6,0.1,1.2-0.5,1.7c-0.5,0.5-0.8,1-0.8,1.4c-0.2,0-0.5-0.1-0.9-0.3c0,0.2-0.1,0.6-0.3,1.1
		c-0.2,0.5-0.4,0.9-0.6,1.1c-2.3,2.5-4.6,4.8-6.9,6.9v0.9c-0.2,0-0.4-0.1-0.5-0.3c-0.1-0.2-0.3-0.2-0.5,0c-2.1,1.5-3.2,2.4-3.4,2.8
		c-1,0.2-1.9,0.2-2.5,0c-0.4,0-0.6,0.2-0.6,0.6c0,0.4-0.1,0.6-0.3,0.6c-0.2,0-0.4-0.1-0.6-0.3c-0.2-0.2-0.4-0.3-0.5-0.3
		c-0.1,0-0.3,0.1-0.5,0.3c-0.2,0.2-0.3,0.5-0.2,0.8c0.1,0.3,0.1,0.5-0.2,0.5c-0.6,0.4-1.4,0.3-2.2-0.3c-0.4,0.2-0.6,0.7-0.6,1.6
		c-0.6,0-1,0-1.2,0c-0.2,0-0.4-0.1-0.5-0.3c-0.1-0.2-0.3-0.3-0.5-0.3c-0.2,0-0.5,0.2-0.9,0.6c-0.4,0.2-1.1,0.3-2,0.3
		c-0.9,0-1.5,0.1-1.7,0.3c-0.2,0-0.5,0.2-0.8,0.5c-0.3,0.3-0.6,0.5-0.8,0.5c-0.2,0-0.7,0-1.4,0c-0.7,0-1.2,0-1.4,0
		c-1.5-0.2-2.4-0.3-2.8-0.3c-0.2,0-0.6,0-1.2,0c-0.6,0-1.2,0-1.6,0c-0.4,0.2-0.7,0.3-0.9,0.3c-0.2,0-0.6-0.1-1.2-0.3
		c-0.6-0.2-1.2-0.2-1.6,0c-0.4-0.8-1.5-1-3.1-0.6c-0.4-0.6-1.8-1.6-4.1-2.8c0,0.2,0,0.5,0,0.8c0,0.3-0.1,0.5-0.3,0.5
		c-0.2-0.4-0.5-1-0.8-1.7c-0.3-0.7-0.6-1.2-0.8-1.4h-0.6c-1.2-2.3-2.3-3.6-3.1-4.1c-0.2-1.2-0.8-2.2-1.9-2.8c0-0.2,0.2-0.4,0.5-0.5
		c0.3-0.1,0.5-0.3,0.5-0.5c-0.6-1-0.8-1.7-0.6-1.9c0.2-0.2,0.5-0.2,0.8,0c0.3,0.2,0.6,0.3,0.8,0.3c0.2-0.4,0-0.9-0.6-1.4
		c-0.6-0.5-0.9-0.9-0.9-1.1c0-0.2,0.1-0.7,0.3-1.6c0.8-0.4,1.5-1,1.9-1.9c1-0.4,1.7-0.9,1.9-1.6c0.2-0.2,0.6-0.5,1.1-0.9
		c0.5-0.4,1-0.6,1.4-0.6c0.2-1,0.4-1.6,0.6-1.6c0.4,0,0.6,0.3,0.6,0.8c0,0.5,0.1,0.8,0.3,0.8c0.8,0,1.4-0.6,1.6-1.9
		c1-0.4,2-0.2,3,0.6c0.9,0.8,1.6,1.7,2,2.5c0.6,0,1.4,0.2,2.2,0.6c0.8,0.4,1.6,0.5,2.2,0.3c0.4-0.4,0.7-0.6,0.9-0.6s0.4,0.1,0.6,0.3
		c0.6,0.2,1,0.1,1.3-0.3c-0.2-0.4-0.3-0.7-0.3-0.9c1.9-0.2,3,0,3.4,0.6c0.2,0,0.4-0.1,0.5-0.3c0.1-0.2,0.3-0.3,0.5-0.3
		c0.2-0.2,0.6-0.3,1.2-0.3c0.6,0,1-0.1,1.3-0.3c0.2,0,0.4,0,0.5-0.2c0.1-0.1,0.2-0.2,0.3-0.3c0.1-0.1,0.4-0.2,0.8-0.2
		c0.6-0.2,0.9-0.4,0.9-0.6l-0.3-1.6c0.2,0,0.4,0.3,0.6,0.9c1.7-0.4,3.4-1.5,5.3-3.1c-0.2-0.2-0.4-0.4-0.6-0.6c-0.2,0-0.6,0-1.3,0
		c-0.8-0.4-3.1-0.6-6.9-0.6c-0.4,0-1.1-0.1-2-0.3c-0.9-0.2-1.6-0.3-1.9-0.3c-0.3,0-0.9,0.3-1.7,0.8c-0.8,0.5-1.6,0.6-2.2,0.2
		c-0.2-0.8-0.5-1.3-0.9-1.6c-1.2-0.6-2.3-0.5-3.1,0.3v-0.6c-0.6-0.8-1.7-0.9-3.1-0.3c-0.2,0-0.3-0.2-0.3-0.6
		c-0.8-0.4-1.6-0.9-2.2-1.6c-0.2,0-0.4,0.1-0.6,0.3h-0.3c-0.2,0-0.5-0.3-0.9-0.9c-1,0.2-2,0-2.8-0.6c-0.8-0.6-1.5-1.1-1.9-1.6
		c-0.2,0-0.5,0.1-0.8,0.2c-0.3,0.1-0.7,0.2-1.1,0.2c0-0.4,0-0.7,0-0.9c-0.2-0.4-0.8-1.1-1.9-2.2c-1-1-1.8-2-2.2-2.8
		c-0.8-1-1.5-1.9-1.9-2.5c-0.2,0-0.4-0.1-0.6-0.3c0-0.2-0.1-0.5-0.3-0.9c-0.2-0.8-0.5-1.3-0.9-1.6c0-0.8-0.1-1.8-0.3-2.8
		c-0.2,0-0.4,0-0.6,0l-0.3-0.3c-0.2-0.4-0.2-0.9,0-1.6h0.6c0.4-0.4,0.6-1.2,0.6-2.3c0-1.1,0.2-2,0.6-2.7c0.2,0,0.4,0.1,0.5,0.3
		c0.1,0.2,0.3,0.4,0.5,0.6c0.2-0.2,0.4-0.6,0.6-1.2c0.2-0.6,0.4-0.9,0.6-0.9c0.2-0.2,0.2-0.5,0-0.9c0.4-0.2,1-0.4,1.9-0.5
		c0.8-0.1,1.3-0.3,1.6-0.5c0.2,0,0.5-0.3,0.8-0.8c0.3-0.5,0.7-0.8,1.1-0.8c0.2-0.2,0.7-0.4,1.6-0.5c0.8-0.1,1.4-0.4,1.6-0.8
		c0.8,0,1.5-0.3,1.9-0.9c0.8,0,1.3-0.3,1.6-0.9c0.8,0,1.5-0.2,1.9-0.6c0-0.2-0.1-0.4-0.2-0.5c-0.1-0.1-0.2-0.3-0.2-0.5
		c0.6-0.2,1.3-0.1,1.9,0.3c0.2,0,0.6-0.3,1.1-0.9c0.5-0.6,1-0.9,1.4-0.9c0.2,0,0.4,0,0.5,0s0.3,0,0.5,0c0.2-0.2,0.5-0.5,0.9-0.9
		c0.4-0.4,0.7-0.6,0.9-0.6c1.7,0,2.7-0.7,3.1-2.2c1.5-0.8,2.5-0.9,3.1-0.3c0.4-0.2,0.9-0.6,1.6-1.3c0.6-0.6,1.1-1,1.6-1.2
		c0.2,0.2,0.6,0.5,1.2,0.9c0.6,0.2,1.2,0.2,1.7,0S268.8,115.8,269,115.8z M267.9,116.1c0.5-0.2,0.9-0.3,1.1-0.3
		c0.8,0.8,1.5,1.2,1.9,1.2c0.4,0.4,1.1,0.8,2.2,1.3c1,0.4,1.7,0.7,1.9,0.9c0,0.2,0,0.5,0,0.9c0.2,0.4,0.5,0.8,0.9,1.2
		c0.2,0.4,0.8,1.2,1.7,2.4s0.9,1.9-0.2,2.3c0,0.2,0.3,0.5,0.8,0.8c0.5,0.3,0.8,0.7,0.8,1.1c0,0.2,0,0.4,0,0.6c0,0.2,0,0.4,0,0.6
		c-0.2,0-0.2,0.3,0,0.9c-0.2,0.4-0.5,0.8-0.9,1.2l-0.6,0.3c-0.2,0.2-0.6,0.6-1.1,1.3c-0.5,0.6-1,0.9-1.4,0.9c0,0.6,0.1,1.1,0.3,1.3
		c-0.6,0.4-1.4,1.1-2.3,2c-0.9,0.9-1.6,1.6-2,2c-0.8,0.2-1.2,0.4-1.2,0.6c0.4,0.4,1.3,0.7,2.6,0.8c1.4,0.1,2.2,0.4,2.7,0.8
		c0.2,0,1,0,2.5,0c0.2,0,0.5,0.2,0.9,0.5c0.4,0.3,0.7,0.5,0.9,0.5c0.2,0,0.5-0.1,0.8-0.2c0.3-0.1,0.6-0.2,0.8-0.2s0.6,0.1,1.3,0.3
		c0.2,0,0.6,0,1.2,0c0.6,0,1,0.1,1.2,0.3c0.4,0.2,0.7,0.3,0.9,0.3c0.2,0.2,0.7,0.3,1.4,0.2c0.7-0.1,1.3-0.1,1.6,0
		c0.3,0.1,0.9,0.8,1.7,2c0.2,0,0.5,0,0.9,0c2.9,2.5,4.6,4,5,4.4c0.4,1,0.8,1.7,1.3,1.9c0,0.8,0.3,1.7,0.9,2.5c0.2,0.2,0.2,1.2,0,2.8
		c0,0.4,0.1,1,0.3,1.9c0.2,1.9,0,3.1-0.6,3.8c-0.2,2.1-0.6,3.3-1.2,3.8c0,0.2-0.3,0.9-0.9,2.2c0,0.2,0.2,0.4,0.5,0.5
		c0.3,0.1,0.5,0.3,0.5,0.5c0,0.2-0.2,0.4-0.5,0.5c-0.3,0.1-0.6,0.3-0.8,0.5c0.2,0.6,0.1,1.2-0.5,1.7c-0.5,0.5-0.8,1-0.8,1.4
		c-0.2,0-0.5-0.1-0.9-0.3c0,0.2-0.1,0.6-0.3,1.1c-0.2,0.5-0.4,0.9-0.6,1.1c-2.3,2.5-4.6,4.8-6.9,6.9v0.9c-0.2,0-0.4-0.1-0.5-0.3
		c-0.1-0.2-0.3-0.2-0.5,0c-2.1,1.5-3.2,2.4-3.4,2.8c-1,0.2-1.9,0.2-2.5,0c-0.4,0-0.6,0.2-0.6,0.6c0,0.4-0.1,0.6-0.3,0.6
		c-0.2,0-0.4-0.1-0.6-0.3c-0.2-0.2-0.4-0.3-0.5-0.3c-0.1,0-0.3,0.1-0.5,0.3c-0.2,0.2-0.3,0.5-0.2,0.8c0.1,0.3,0.1,0.5-0.2,0.5
		c-0.6,0.4-1.4,0.3-2.2-0.3c-0.4,0.2-0.6,0.7-0.6,1.6c-0.6,0-1,0-1.2,0c-0.2,0-0.4-0.1-0.5-0.3c-0.1-0.2-0.3-0.3-0.5-0.3
		c-0.2,0-0.5,0.2-0.9,0.6c-0.4,0.2-1.1,0.3-2,0.3c-0.9,0-1.5,0.1-1.7,0.3c-0.2,0-0.5,0.2-0.8,0.5c-0.3,0.3-0.6,0.5-0.8,0.5
		c-0.2,0-0.7,0-1.4,0c-0.7,0-1.2,0-1.4,0c-1.5-0.2-2.4-0.3-2.8-0.3c-0.2,0-0.6,0-1.2,0c-0.6,0-1.2,0-1.6,0c-0.4,0.2-0.7,0.3-0.9,0.3
		c-0.2,0-0.6-0.1-1.2-0.3c-0.6-0.2-1.2-0.2-1.6,0c-0.4-0.8-1.5-1-3.1-0.6c-0.4-0.6-1.8-1.6-4.1-2.8c0,0.2,0,0.5,0,0.8
		c0,0.3-0.1,0.5-0.3,0.5c-0.2-0.4-0.5-1-0.8-1.7c-0.3-0.7-0.6-1.2-0.8-1.4h-0.6c-1.2-2.3-2.3-3.6-3.1-4.1c-0.2-1.2-0.8-2.2-1.9-2.8
		c0-0.2,0.2-0.4,0.5-0.5c0.3-0.1,0.5-0.3,0.5-0.5c-0.6-1-0.8-1.7-0.6-1.9c0.2-0.2,0.5-0.2,0.8,0c0.3,0.2,0.6,0.3,0.8,0.3
		c0.2-0.4,0-0.9-0.6-1.4c-0.6-0.5-0.9-0.9-0.9-1.1c0-0.2,0.1-0.7,0.3-1.6c0.8-0.4,1.5-1,1.9-1.9c1-0.4,1.7-0.9,1.9-1.6
		c0.2-0.2,0.6-0.5,1.1-0.9c0.5-0.4,1-0.6,1.4-0.6c0.2-1,0.4-1.6,0.6-1.6c0.4,0,0.6,0.3,0.6,0.8c0,0.5,0.1,0.8,0.3,0.8
		c0.8,0,1.4-0.6,1.6-1.9c1-0.4,2-0.2,3,0.6c0.9,0.8,1.6,1.7,2,2.5c0.6,0,1.4,0.2,2.2,0.6c0.8,0.4,1.6,0.5,2.2,0.3
		c0.4-0.4,0.7-0.6,0.9-0.6s0.4,0.1,0.6,0.3c0.6,0.2,1,0.1,1.3-0.3c-0.2-0.4-0.3-0.7-0.3-0.9c1.9-0.2,3,0,3.4,0.6
		c0.2,0,0.4-0.1,0.5-0.3c0.1-0.2,0.3-0.3,0.5-0.3c0.2-0.2,0.6-0.3,1.2-0.3c0.6,0,1,0,1.3,0c0.2-0.2,0.4-0.4,0.5-0.5
		c0.1-0.1,0.2-0.2,0.3-0.3c0.1-0.1,0.4-0.2,0.8-0.2c0.6-0.2,0.9-0.4,0.9-0.6l-0.3-1.6c0.2,0,0.4,0.3,0.6,0.9
		c1.7-0.4,3.4-1.5,5.3-3.1c-0.2-0.2-0.4-0.4-0.6-0.6c-0.2,0-0.6,0-1.3,0c-0.8-0.4-3.1-0.6-6.9-0.6c-0.4,0-1.1-0.1-2-0.3
		c-0.9-0.2-1.6-0.3-1.9-0.3c-0.3,0-0.9,0.3-1.7,0.8c-0.8,0.5-1.6,0.6-2.2,0.2c-0.2-0.8-0.5-1.3-0.9-1.6c-1.2-0.6-2.3-0.5-3.1,0.3
		v-0.6c-0.6-0.8-1.7-0.9-3.1-0.3c-0.2,0-0.3-0.2-0.3-0.6c-0.8-0.4-1.6-0.9-2.2-1.6c-0.2,0-0.4,0.1-0.6,0.3h-0.3
		c-0.2,0-0.5-0.3-0.9-0.9c-1,0.2-2,0-2.8-0.6c-0.8-0.6-1.5-1.1-1.9-1.6c-0.2,0-0.5,0.1-0.8,0.2c-0.3,0.1-0.7,0.2-1.1,0.2
		c0-0.4,0-0.7,0-0.9c-0.2-0.4-0.8-1.1-1.9-2.2c-1-1-1.8-2-2.2-2.8c-0.8-1-1.5-1.9-1.9-2.5c-0.2,0-0.4-0.1-0.6-0.3
		c0-0.2-0.1-0.5-0.3-0.9c-0.2-0.8-0.5-1.3-0.9-1.6c0-0.8-0.1-1.8-0.3-2.8c-0.2,0-0.4,0-0.6,0l-0.3-0.3c-0.2-0.4-0.2-0.9,0-1.6h0.6
		c0.4-0.4,0.6-1.2,0.6-2.3c0-1.1,0.2-2,0.6-2.7c0.2,0,0.4,0.1,0.5,0.3c0.1,0.2,0.3,0.4,0.5,0.6c0.2-0.2,0.4-0.6,0.6-1.2
		c0.2-0.6,0.4-0.9,0.6-0.9c0.2-0.2,0.2-0.5,0-0.9c0.4-0.2,1-0.4,1.9-0.5c0.8-0.1,1.3-0.3,1.6-0.5c0.2,0,0.5-0.3,0.8-0.8
		c0.3-0.5,0.7-0.8,1.1-0.8c0.2-0.2,0.7-0.4,1.6-0.5c0.8-0.1,1.4-0.4,1.6-0.8c0.8,0,1.5-0.3,1.9-0.9c0.8,0,1.3-0.3,1.6-0.9
		c0.8,0,1.5-0.2,1.9-0.6c0-0.2-0.1-0.4-0.2-0.5c-0.1-0.1-0.2-0.3-0.2-0.5c0.6-0.2,1.3-0.1,1.9,0.3c0.2,0,0.6-0.3,1.1-0.9
		c0.5-0.6,1-0.9,1.4-0.9c0.2,0,0.4,0,0.5,0s0.3,0,0.5,0c0.2-0.2,0.5-0.5,0.9-0.9c0.4-0.4,0.7-0.6,0.9-0.6c1.7,0,2.7-0.7,3.1-2.2
		c1.5-0.8,2.5-0.9,3.1-0.3c0.4-0.2,0.9-0.6,1.6-1.3c0.6-0.6,1.1-1,1.6-1.2c0.2,0.2,0.6,0.5,1.2,0.9
		C266.8,116.3,267.3,116.3,267.9,116.1z"/>
	<path fill="#643282" d="M341.2,73.6c0.2,0.4,0.8,0.7,1.9,0.8c1,0.1,1.7,0.4,1.9,0.8c0.2,0,0.5,0,0.9,0c0.4,0,0.7,0,0.9,0
		c0.2-0.2,0.4-0.4,0.6-0.6c0.6-0.4,1.1-0.5,1.6-0.3c0.2,0.2,0.4,0.5,0.6,0.8c0.2,0.3,0.4,0.6,0.6,0.8c0.6,0.2,1.2,0.7,1.9,1.4
		c0.6,0.7,1,1.2,1.3,1.4c0,0.4,0,0.7,0,0.9c0.4,0.6,1.1,1.3,2.2,1.9c0.8,2.5,1,4.6,0.6,6.2v1.6c0,0.2-0.2,0.4-0.5,0.6
		c-0.3,0.2-0.5,0.4-0.5,0.6c0,0.6,0.1,1.8,0.2,3.6c0.1,1.8,0.1,3.2-0.2,4.2c0,2.7,0,4.3,0,4.7c0.4,0.6,0.6,1,0.6,1.1
		c0,0.1-0.1,0.6-0.3,1.4c-0.2,0.8-0.1,1.2,0.3,1.2c0,0.2-0.1,0.5-0.3,0.8c-0.2,0.3-0.3,0.7-0.3,1.1c0,0.2,0.2,0.4,0.5,0.6
		c0.3,0.2,0.5,0.4,0.5,0.6c0,0.2-0.1,0.6-0.2,1.1c-0.1,0.5-0.1,1,0.2,1.4c0,0.4,0,0.7,0,0.9c0.2,0.4,0.3,1,0.3,1.7
		c0,0.7,0,1.2,0,1.4c0,0.2,0.1,0.4,0.3,0.6c0.2,0.2,0.3,0.4,0.3,0.6c0,0.2-0.1,0.5-0.2,0.9c-0.1,0.4-0.2,0.7-0.2,0.9
		s0.1,0.5,0.3,0.8c0.2,0.3,0.3,0.6,0.3,0.8s-0.1,0.7-0.2,1.4c-0.1,0.7-0.1,1.2,0.2,1.4c0.2,0.4,0.6,0.6,1.1,0.5
		c0.5-0.1,0.8-0.5,0.8-1.1c0.4,0,0.7,0.1,0.9,0.3c0,0.2,0.1,0.3,0.3,0.3c0.2,0,0.8,0.1,1.7,0.2c0.9,0.1,1.5,0.1,1.7-0.2
		c0.2,0,0.6-0.2,1.1-0.5c0.5-0.3,0.9-0.6,1.1-0.8c0.6,0,1.4,0.1,2.2,0.3l0.9,0.3c0.2,0,0.4-0.1,0.6-0.2c0.2-0.1,0.4-0.2,0.6-0.2
		c0.4-0.2,1-0.2,1.9,0c1.5,0,2.4-0.2,2.8-0.6c0.8,0.2,1.5,0,1.9-0.6c0.2,0.2,1.3,0,3.1-0.6c0.2,0,0.5,0,0.9,0s0.7,0,0.9,0
		c0.2,0,0.4-0.1,0.6-0.2c0.2-0.1,0.4-0.2,0.6-0.2c1.7-0.2,2.5-0.6,2.5-1.2c0.8,0.6,1.8,0.8,2.8,0.6c0.6-0.4,1-0.6,1.2-0.6
		s0.5,0,0.9,0c1.5,0,2.5,0.1,3.1,0.3v0.6c1-0.4,2.2,0,3.4,1.2c0.2,0,0.7,0,1.6,0c0.2,0.4,0.3,1.1,0.3,2.2c0,0.6,0.1,1,0.3,1.2
		c0,0.2,0.1,0.4,0.3,0.6c0.2,0.2,0.3,0.4,0.3,0.6s0,1,0,2.5c0,0.2,0,0.5,0,0.8c0,0.3,0,0.5,0,0.6s-0.2,0.5-0.6,1.1
		c-0.4,0.6-0.6,1.2-0.6,1.9c-0.4,0.8-1,1.5-1.9,1.9c0,0.8-0.6,1.7-1.9,2.5c-0.2,0.2-0.4,0.4-0.6,0.6c-0.2,0.2-0.4,0.4-0.5,0.5
		c-0.1,0.1-0.3,0.1-0.6,0c-0.3-0.1-0.5,0-0.5,0.2c-0.4,0-0.8,0.3-1.2,0.8c-0.4,0.5-0.7,0.9-0.9,1.1c-0.2-0.2-0.5-0.2-0.9,0.2
		c-0.4,0.3-0.7,0.5-0.9,0.5c-1.7,0.2-2.6,0.4-2.8,0.6c-0.2,0.6-0.4,1.1-0.6,1.3c-0.4,0-0.8-0.2-1.2-0.6c-1.7,0-2.7,0.1-3.1,0.3
		c-1-0.6-1.8-0.4-2.2,0.6c-0.4,0-1,0-1.9,0c-1.7,0-2.6,0.3-2.8,0.9c0.2,0.2,0.3,0.4,0.3,0.6c-0.2,0-0.4-0.2-0.6-0.6
		c-3.5,0-5.6,0.4-6.3,1.2c-0.4-0.2-0.9-0.2-1.4,0.2c-0.5,0.3-0.9,0.5-1.1,0.5l-2.2,0.6c0.2,0.2,0.3,0.8,0.2,1.7
		c-0.1,0.9-0.1,1.5,0.2,1.7c0,0.2,0.1,0.4,0.3,0.6c0.2,0.2,0.3,0.4,0.3,0.6c0.2,0.2,0.3,0.6,0.3,1.3c0,0.6,0,1,0,1.2
		c0,0.2,0.1,0.4,0.2,0.6c0.1,0.2,0.2,0.4,0.2,0.6c0,0.2-0.1,0.4-0.2,0.6c-0.1,0.2-0.2,0.4-0.2,0.6c0.2,0.2,0.5,0.6,0.8,1.1
		c0.3,0.5,0.5,1,0.5,1.4h0.9c-0.4,1.7-0.6,2.8-0.5,3.3c0.1,0.5,0.6,0.9,1.4,1.1c0.4,0,0.3,0.7-0.3,2.2c0,0.2,0.2,0.6,0.5,1.1
		c0.3,0.5,0.5,1,0.5,1.4c0,0.4,0,1.1,0,2c0,0.9,0,1.7,0,2.3c0.2,0.2,0.4,0.5,0.6,0.9c0.2,0.4,0.3,0.7,0.3,0.9
		c0.2,1.5,0.3,2.8,0.3,4.1c-0.4,1.2-0.6,2.2-0.6,2.8c-0.4,0.6-0.9,1.1-1.6,1.6c0,0.8-0.3,1.5-0.9,1.9c-0.2,1.1-0.7,1.9-1.4,2.7
		c-0.7,0.7-1.4,0.8-2,0.2c-1.7,1-2.7,2-3.1,2.8c-1.2,0-2.2,0.2-2.8,0.6c-0.2,0-0.6-0.2-1.2-0.5c-0.6-0.3-1-0.7-1.3-1.1
		c-0.2,0-0.7,0-1.6,0c-0.6-0.4-0.8-0.8-0.6-1.2c-1.2-1.3-1.9-2.4-1.9-3.4c-0.6-0.4-1.5-0.6-2.5-0.6c0-0.4,0.1-1.1,0.2-2.2
		c0.1-1-0.1-1.7-0.5-1.9c-0.2,0-0.3,0.2-0.3,0.6c-0.4-0.8-0.5-1.8-0.3-2.8c0.2,0,0.4,0,0.6,0c0.2,0,0.3-0.1,0.3-0.3
		c0.2-0.2,0.1-0.6-0.3-1.2c0-0.4,0-1,0-1.7c0-0.7,0-1.3,0-1.7c0-0.2-0.2-0.5-0.6-0.9c-0.4-0.8-0.6-1.7-0.6-2.5
		c0.2-0.6,0.3-1,0.3-1.1c0-0.1-0.1-0.3-0.3-0.5c-0.2-0.2-0.4-0.4-0.5-0.5c-0.1-0.1-0.2-0.5-0.3-1.2c-0.1-0.7-0.4-1.1-0.8-1.1
		c0-2.3-0.5-3.4-1.6-3.4c1-1,0.9-2.7-0.3-5c-0.2,0.2-0.4,0.3-0.6,0.3c0-0.2,0.1-0.5,0.2-0.8c0.1-0.3,0.2-0.7,0.2-1.1
		c0-0.2-0.1-0.5-0.3-0.8c-0.2-0.3-0.3-0.6-0.3-0.8c-0.6-2.5-1.1-3.9-1.6-4.1c-5.2,0.2-8.1,0.7-8.8,1.6c-0.4,0-1-0.2-1.9-0.6
		c-0.4,0-0.8,0-1.2,0c-0.8,0.2-1.5,0.5-1.9,0.9c-0.8-0.6-1.5-0.7-1.9-0.3h-3.1c-0.4-0.4-0.9-0.6-1.6-0.6c-0.8-0.6-1.6-1.2-2.2-1.9
		l-0.6-0.3c-0.8-1.5-1.8-2.5-2.8-3.1c0-0.4-0.1-0.8-0.3-1.2c-0.2-0.4-0.4-0.7-0.5-0.8c-0.1-0.1-0.1-0.4,0.2-0.8
		c0-0.4-0.2-0.8-0.6-1.1c-0.4-0.3-0.7-0.6-0.9-0.8c-0.2-0.4-0.2-1.7,0-3.8c0.4-2.1,1.1-3.7,2.2-4.7c0.2,0,0.6-0.2,1.1-0.6
		c0.5-0.4,0.8-0.7,0.9-0.8c0.1-0.1,0.3-0.4,0.5-0.8c0.2-0.4,0.4-0.7,0.5-0.8c0.1-0.1,0.3-0.2,0.6-0.2c0.3,0,0.5-0.1,0.6-0.2
		c0.1-0.1,0.4-0.3,0.8-0.5c0.2-0.2,0.6,0,1.2,0.6c0.4,0,0.8-0.2,1.3-0.6c1.7,0,2.9-0.3,3.7-0.9c0.4,0.2,2.5,0.3,6.3,0.3
		c0.6,0.2,1,0.3,1.2,0.3c0.2,0,0.6-0.2,1.3-0.5c0.6-0.3,1-0.5,1.2-0.5c0.2-1.7,0.2-2.7,0-3.1c0-0.2-0.1-0.4-0.3-0.6
		s-0.3-0.4-0.3-0.6c-0.2-0.4-0.3-1.5-0.2-3.1c0.1-1.7-0.2-2.6-0.8-2.8c0.4-0.6,0.3-1.3-0.3-1.9c0.2-0.8,0.3-2.1,0.2-3.9
		c-0.1-1.8-0.6-2.7-1.4-2.7c0-0.8,0.3-1.2,0.9-1.2c0.4-1.9,0.2-2.9-0.6-3.1c0.2,0,0.2-0.4,0-1.2c-0.2-0.8-0.3-1.4-0.3-1.6
		c0-0.4,0.1-1,0.3-1.9c0.2-0.8,0.3-1.5,0.3-1.9c-0.4-0.6-0.6-1-0.6-1.1c0-0.1,0.2-0.5,0.6-1.1c0-0.2,0-0.7,0-1.4c0-0.7,0-1.2,0-1.4
		s-0.2-0.5-0.6-0.9c0-0.2,0-0.5,0-0.9c0.2-0.2,0.2-0.7,0-1.6c-0.2-0.8-0.2-1.5,0-1.9c0.8,0.2,1.2-0.1,1.2-0.8c0-0.7-0.4-1.1-1.2-1.1
		v-0.6c0.2-0.2,0.4-0.3,0.6-0.3c0.2,0,0.3-0.1,0.3-0.3c0.8-3.1,1.6-4.9,2.2-5.3c0-0.2,0.1-0.4,0.2-0.5c0.1-0.1,0.1-0.3-0.2-0.5
		c1.7-1,2.6-2,2.8-2.8c0.4-0.2,1-0.1,1.9,0.3C340.9,74.9,341.2,74.4,341.2,73.6z M340.2,75.1c0.6-0.2,0.9-0.6,0.9-1.2
		c0.2,0.2,0.8,0.4,1.9,0.5c1,0.1,1.7,0.4,1.9,0.8c0.2,0,0.5,0,0.9,0c0.4,0,0.7,0,0.9,0c0.2-0.2,0.4-0.4,0.6-0.6
		c0.6-0.4,1.1-0.5,1.6-0.3c0.2,0.2,0.4,0.5,0.6,0.8c0.2,0.3,0.4,0.6,0.6,0.8c0.6,0.2,1.2,0.7,1.9,1.4c0.6,0.7,1,1.2,1.3,1.4
		c0,0.4,0,0.7,0,0.9c0.4,0.6,1.1,1.3,2.2,1.9c0.8,2.5,1,4.6,0.6,6.2v1.6c0,0.2-0.2,0.4-0.5,0.6c-0.3,0.2-0.5,0.4-0.5,0.6
		c0,0.6,0.1,1.8,0.2,3.6c0.1,1.8,0.1,3.2-0.2,4.2c0,2.7,0,4.3,0,4.7c0.4,0.6,0.6,1,0.6,1.1c0,0.1-0.1,0.6-0.3,1.4
		c-0.2,0.8-0.1,1.2,0.3,1.2c0,0.2-0.1,0.5-0.3,0.8c-0.2,0.3-0.3,0.7-0.3,1.1c0,0.2,0.2,0.4,0.5,0.6c0.3,0.2,0.5,0.4,0.5,0.6
		c0,0.2-0.1,0.6-0.2,1.1c-0.1,0.5-0.1,1,0.2,1.4c0,0.4,0,0.7,0,0.9c0.2,0.4,0.3,1,0.3,1.7c0,0.7,0,1.2,0,1.4c0,0.2,0.1,0.4,0.3,0.6
		c0.2,0.2,0.3,0.4,0.3,0.6c0,0.2-0.1,0.5-0.2,0.9c-0.1,0.4-0.2,0.7-0.2,0.9s0.1,0.5,0.3,0.8c0.2,0.3,0.3,0.6,0.3,0.8
		s-0.1,0.7-0.2,1.4c-0.1,0.7-0.1,1.2,0.2,1.4c0.2,0.4,0.6,0.6,1.1,0.5c0.5-0.1,0.8-0.5,0.8-1.1c0.4,0,0.7,0.1,0.9,0.3
		c0,0.2,0.1,0.3,0.3,0.3c0.2,0,0.8,0.1,1.7,0.2c0.9,0.1,1.5,0.1,1.7-0.2c0.2,0,0.6-0.2,1.1-0.5c0.5-0.3,0.9-0.6,1.1-0.8
		c0.6,0,1.4,0.1,2.2,0.3l0.9,0.3c0.2,0,0.4-0.1,0.6-0.2c0.2-0.1,0.4-0.2,0.6-0.2c0.4-0.2,1-0.2,1.9,0c1.5,0,2.4-0.2,2.8-0.6
		c0.8,0.2,1.5,0,1.9-0.6c0.2,0.2,1.3,0,3.1-0.6c0.2,0,0.5,0,0.9,0s0.7,0,0.9,0c0.2,0,0.4-0.1,0.6-0.2c0.2-0.1,0.4-0.2,0.6-0.2
		c1.7-0.2,2.5-0.6,2.5-1.2c0.8,0.6,1.8,0.8,2.8,0.6c0.6-0.4,1-0.6,1.2-0.6s0.5,0,0.9,0c1.5,0,2.5,0.1,3.1,0.3v0.6
		c1-0.4,2.2,0,3.4,1.2c0.2,0,0.7,0,1.6,0c0.2,0.4,0.3,1.1,0.3,2.2c0,0.6,0.1,1,0.3,1.2c0,0.2,0.1,0.4,0.3,0.6
		c0.2,0.2,0.3,0.4,0.3,0.6s0,1,0,2.5c0,0.2,0,0.5,0,0.8c0,0.3,0,0.5,0,0.6s-0.2,0.5-0.6,1.1c-0.4,0.6-0.6,1.2-0.6,1.9
		c-0.4,0.8-1,1.5-1.9,1.9c0,0.8-0.6,1.7-1.9,2.5c-0.2,0.2-0.4,0.4-0.6,0.6c-0.2,0.2-0.4,0.4-0.5,0.5c-0.1,0.1-0.3,0.1-0.6,0
		c-0.3-0.1-0.5,0-0.5,0.2c-0.4,0-0.8,0.3-1.2,0.8c-0.4,0.5-0.7,0.9-0.9,1.1c-0.2,0-0.5,0.1-0.9,0.3s-0.7,0.3-0.9,0.3
		c-1.7,0.2-2.6,0.4-2.8,0.6c-0.2,0.6-0.4,1.1-0.6,1.3c-0.4,0-0.8-0.2-1.2-0.6c-1.7,0-2.7,0.1-3.1,0.3c-1-0.6-1.8-0.4-2.2,0.6
		c-0.4,0-1,0-1.9,0c-1.7,0-2.6,0.3-2.8,0.9c0.2,0.2,0.3,0.4,0.3,0.6c-0.2,0-0.4-0.2-0.6-0.6c-3.5,0-5.6,0.4-6.3,1.2
		c-0.4-0.2-0.9-0.2-1.4,0.2c-0.5,0.3-0.9,0.5-1.1,0.5l-2.2,0.6c0.2,0.2,0.3,0.8,0.2,1.7c-0.1,0.9-0.1,1.5,0.2,1.7
		c0,0.2,0.1,0.4,0.3,0.6c0.2,0.2,0.3,0.4,0.3,0.6c0.2,0.2,0.3,0.6,0.3,1.3c0,0.6,0,1,0,1.2c0,0.2,0.1,0.4,0.2,0.6
		c0.1,0.2,0.2,0.4,0.2,0.6c0,0.2-0.1,0.4-0.2,0.6c-0.1,0.2-0.2,0.4-0.2,0.6c0.2,0.2,0.5,0.6,0.8,1.1c0.3,0.5,0.5,1,0.5,1.4h0.9
		c-0.4,1.7-0.6,2.8-0.5,3.3c0.1,0.5,0.6,0.9,1.4,1.1c0.4,0,0.3,0.7-0.3,2.2c0,0.2,0.2,0.6,0.5,1.1c0.3,0.5,0.5,1,0.5,1.4
		c0,0.4,0,1.1,0,2c0,0.9,0,1.7,0,2.3c0.2,0.2,0.4,0.5,0.6,0.9c0.2,0.4,0.3,0.7,0.3,0.9c0.2,1.5,0.3,2.8,0.3,4.1
		c-0.4,1.2-0.6,2.2-0.6,2.8c-0.4,0.6-0.9,1.1-1.6,1.6c0,0.8-0.3,1.5-0.9,1.9c-0.2,1.1-0.7,1.9-1.4,2.7c-0.7,0.7-1.4,0.8-2,0.2
		c-1.7,1-2.7,2-3.1,2.8c-1.2,0-2.2,0.2-2.8,0.6c-0.2,0-0.6-0.2-1.2-0.5c-0.6-0.3-1-0.7-1.3-1.1c-0.2,0-0.7,0-1.6,0
		c-0.6-0.4-0.8-0.8-0.6-1.2c-1.2-1.3-1.9-2.4-1.9-3.4c-0.6-0.4-1.5-0.6-2.5-0.6c0-0.4,0.1-1.1,0.2-2.2c0.1-1-0.1-1.7-0.5-1.9
		c-0.2,0-0.3,0.2-0.3,0.6c-0.4-0.8-0.5-1.8-0.3-2.8c0.2,0,0.4,0,0.6,0c0.2,0,0.3-0.1,0.3-0.3c0.2-0.2,0.1-0.6-0.3-1.2
		c0-0.4,0-1,0-1.7c0-0.7,0-1.3,0-1.7c0-0.2-0.2-0.5-0.6-0.9c-0.4-0.8-0.6-1.7-0.6-2.5c0.2-0.6,0.3-1,0.3-1.1c0-0.1-0.1-0.3-0.3-0.5
		c-0.2-0.2-0.4-0.4-0.5-0.5c-0.1-0.1-0.2-0.5-0.3-1.2c-0.1-0.7-0.4-1.1-0.8-1.1c0-2.3-0.5-3.4-1.6-3.4c1-1,0.9-2.7-0.3-5
		c-0.2,0.2-0.4,0.3-0.6,0.3c0-0.2,0.1-0.5,0.2-0.8c0.1-0.3,0.2-0.7,0.2-1.1c0-0.2-0.1-0.5-0.3-0.8c-0.2-0.3-0.3-0.6-0.3-0.8
		c-0.6-2.5-1.1-3.9-1.6-4.1c-5.2,0.2-8.1,0.7-8.8,1.6c-0.4,0-1-0.2-1.9-0.6c-0.4,0-0.8,0-1.2,0c-0.8,0.2-1.5,0.5-1.9,0.9
		c-0.8-0.6-1.5-0.7-1.9-0.3h-3.1c-0.4-0.4-0.9-0.6-1.6-0.6c-0.8-0.6-1.6-1.2-2.2-1.9l-0.6-0.3c-0.8-1.5-1.8-2.5-2.8-3.1
		c0-0.4-0.1-0.8-0.3-1.2c-0.2-0.4-0.4-0.7-0.5-0.8c-0.1-0.1-0.1-0.4,0.2-0.8c0-0.4-0.2-0.8-0.6-1.1c-0.4-0.3-0.7-0.6-0.9-0.8
		c-0.2-0.4-0.2-1.7,0-3.8c0.4-2.1,1.1-3.7,2.2-4.7c0.2,0,0.6-0.2,1.1-0.6c0.5-0.4,0.8-0.7,0.9-0.8c0.1-0.1,0.3-0.4,0.5-0.8
		c0.2-0.4,0.4-0.7,0.5-0.8c0.1-0.1,0.3-0.2,0.6-0.2c0.3,0,0.5-0.1,0.6-0.2c0.1-0.1,0.4-0.3,0.8-0.5c0.2,0,0.6,0.2,1.2,0.6
		c0.4,0,0.8-0.2,1.3-0.6c1.7,0,2.9-0.3,3.7-0.9c0.4,0.2,2.5,0.3,6.3,0.3c0.6,0.2,1,0.3,1.2,0.3c0.2,0,0.6-0.2,1.3-0.5
		c0.6-0.3,1-0.5,1.2-0.5c0.2-1.7,0.2-2.7,0-3.1c0-0.2-0.1-0.4-0.3-0.6s-0.3-0.4-0.3-0.6c-0.2-0.4-0.3-1.5-0.2-3.1
		c0.1-1.7-0.2-2.6-0.8-2.8c0.4-0.6,0.3-1.3-0.3-1.9c0.2-0.8,0.3-2.1,0.2-3.9c-0.1-1.8-0.6-2.7-1.4-2.7c0-0.8,0.3-1.2,0.9-1.2
		c0.4-1.9,0.2-2.9-0.6-3.1c0.2,0,0.2-0.4,0-1.2c-0.2-0.8-0.3-1.4-0.3-1.6c0-0.4,0.1-1,0.3-1.9c0.2-0.8,0.3-1.5,0.3-1.9
		c-0.4-0.6-0.6-1-0.6-1.1c0-0.1,0.2-0.5,0.6-1.1c0-0.2,0-0.7,0-1.4c0-0.7,0-1.2,0-1.4s-0.2-0.5-0.6-0.9c0-0.2,0-0.5,0-0.9
		c0.2-0.2,0.2-0.7,0-1.6c-0.2-0.8-0.2-1.5,0-1.9c0.8,0.2,1.2-0.1,1.2-0.8c0-0.7-0.4-1.1-1.2-1.1v-0.6c0.2-0.2,0.5-0.3,0.9-0.3
		c0.8-3.3,1.6-5.2,2.2-5.6c0-0.2,0.1-0.4,0.2-0.5c0.1-0.1,0.1-0.3-0.2-0.5c1.7-1,2.6-2,2.8-2.8C338.8,74.6,339.4,74.7,340.2,75.1z"
		/>
</g>
</svg>
