<?xml version="1.0" encoding="utf-8"?>
<!-- Generator: Adobe Illustrator 19.0.1, SVG Export Plug-In . SVG Version: 6.00 Build 0)  -->
<svg version="1.1" id="Layer_1" xmlns="http://www.w3.org/2000/svg" xmlns:xlink="http://www.w3.org/1999/xlink" x="0px" y="0px"
	 viewBox="0 0 400 200" enable-background="new 0 0 400 200" xml:space="preserve">
<g>
	<path fill="#643282" d="M114.4,5.2c0-0.5,0.3-0.5,1,0c0.2,0.3,0.5,0.3,0.8,0.2c0.3-0.1,0.6,0,0.8,0.2v1.5c0.4,0.2,0.8,0.4,1.3,0.4
		c0.2,0.2,0.7,0.6,1.6,1.1c0.8,0.5,1.5,0.9,1.9,1.1c0-0.2,0.3-0.2,0.9,0c0.2,0.5,0.5,1,1,1.5h1.3c0.2,0.3,0.3,0.7,0.2,1.3
		c-0.1,0.6-0.1,1,0,1.1c0.1,0.1,0.4,0.6,0.8,1.3c0.4,0.7,0.5,1.5,0.3,2.2c0,0.3,0.2,0.4,0.5,0.4c0.3,0,0.6,0.1,0.8,0.4
		c0,0.5-0.2,1.1-0.6,1.9c0.2,3,0.6,4.4,1.3,4.4c0.2,0.3,0.3,1.5,0.3,3.7l-1,0.4c-0.2,0.2-0.3,0.6-0.3,1.1c-0.2,1.3-0.8,1.6-1.9,1.1
		c0,0.3-0.2,0.7-0.5,1.3c-0.3,0.6-0.6,1.2-0.8,1.7c-2.1-0.2-3.3-0.4-3.5-0.4c-0.2,0-0.5,0.3-1,0.9s-0.6,1.1-0.6,1.3
		c-0.4-0.2-0.9-0.2-1.4,0c-0.5,0.2-0.9,0.4-1.1,0.4c-0.4-0.2-0.6-0.5-0.6-0.7c-1.3,0-1.9,0.7-1.9,2.2c-0.6,0.2-1.2,0.2-1.6,0
		c-0.2-1.2-0.4-1.9-0.6-1.9c-0.9,0.5-1.4,0.6-1.6,0.4c-0.4-1-0.8-1.6-1.3-1.9c-0.2,0-0.4,0.1-0.5,0.4s-0.3,0.4-0.5,0.4
		c-1.7-0.8-3.2-0.8-4.5,0c0,0.5,0,0.9,0,1.1c-0.4,0.3-2.2,0.3-5.3,0.2c-3.1-0.1-4.9-0.2-5.6-0.2c-0.2,0-0.4-0.1-0.6-0.4
		c-2.3-0.2-3.2,0.2-2.5,1.5c-3,0.7-4.8,0.6-5.4-0.4c-0.4,0.3-0.6,1-0.6,2.2s0.2,2,0.6,2.2c0.4,0,0.7,0,1,0c0.2,0.5,0,1-0.6,1.5
		c0,1.7,0.4,3,1.3,3.7v1.5c0.4,0.2,0.6,0.5,0.6,0.7s-0.2,0.6-0.6,1.1c-0.2,0.7-0.1,1.4,0.3,2c0.4,0.6,0.6,1.2,0.6,1.7
		c-0.2,1-0.3,1.6-0.3,1.9c0.2,0.3,0.5,0.6,0.8,1.1c0.3,0.5,0.4,1,0.2,1.5c0.4,0.3,0.8,0.9,1.1,1.9c0.3,1,0.9,1.5,1.8,1.5
		c0,0.3-0.1,0.6-0.2,1.1c-0.1,0.5-0.1,0.9,0.2,1.1c0.2,0,0.4-0.1,0.5-0.4c0.1-0.2,0.3-0.2,0.5,0c0,0.3-0.2,0.6-0.6,1.1v2.2
		c0.4,0.2,0.8,0.8,1.1,1.7c0.3,0.9,0.7,1.4,1.1,1.7c-0.2,1,0,2,0.6,3c0.6,1,0.9,1.9,0.9,2.6c0.2,0.3,0.5,0.6,0.8,1.1
		c0.3,0.5,0.5,1,0.5,1.5c0.2,0,0.5,0.4,0.9,1.1s0.8,1.2,1,1.5c-0.2,1.5,0.4,2.9,1.9,4.1c0.2,1,0.8,2.2,1.9,3.7v1.1
		c0.2,0.3,0.6,0.5,1.3,0.7c1.1,2.5,1.8,4,2.2,4.5c0.2,0,0.5,0.1,1,0.4c0.4,0.2,0.8,0.4,1.3,0.4c0,0.8-0.2,1.5-0.6,2.2
		c0.2,0.2,0.4,0.6,0.6,1.1c0.2,0.5,0.3,1,0.3,1.5c0.2,0,0.5,0.1,1,0.4c0.4,0.2,0.8,0.4,1.3,0.4c0,0.5,0.2,1.2,0.5,2
		c0.3,0.9,0.6,1.4,0.8,1.7c0.2,0.2,0.5,0.4,0.8,0.6c0.3,0.1,0.6,0.2,0.8,0.2c0.2,1.7,0.5,2.6,1,2.6c0,0.3,0,0.4,0,0.6s0,0.3,0,0.6
		c0.2,0,0.4,0,0.6,0c0.2,0,0.4,0.1,0.5,0.2s0.1,0.3,0,0.4c-0.1,0.1-0.1,0.2,0,0.4c0.1,0.1,0.4,0.3,0.8,0.6c0.6,1.7,1.5,3.3,2.6,4.8
		h1c0,0.2,0.1,0.4,0.3,0.5c0.2,0.1,0.3,0.3,0.3,0.6c0,0.3,0,0.4,0,0.6c0,0.1,0.1,0.3,0.3,0.4c0.2,0.1,0.4,0.2,0.5,0.4
		c0.1,0.1,0.2,0.4,0.2,0.7c0,0.4,0,0.7,0.2,0.9c0.1,0.2,0.4,0.6,0.8,1.1c0.2,1.5,1,2.6,2.2,3.3c0,0.2,0.4,0.9,1.3,1.9
		c0,1,0.3,2,0.8,3c0.5,1,0.8,1.7,0.8,2.2c1.5,1.5,2.2,2.6,2.2,3.3l0.9,0.7c0.2,2,0.8,3.5,1.6,4.5c0,0.5,0.4,2.2,1.3,5.2
		c0,0.3,0.3,0.5,0.9,0.7c0.2,0.5,0.1,1.2-0.3,2.2c0,1,0.3,1.7,0.9,2.2c0,1.7,0,2.9,0,3.3l0.6,0.7c0,2.2-0.2,3.5-0.6,3.7
		c0.2,1-0.1,1.9-0.9,2.6c0.4,2.2,0.2,3.7-0.6,4.5v0.7l-2.9,4.8c-0.4,0-0.7,0.1-0.9,0.4c-0.2,0.5-0.3,1-0.3,1.5c-0.4,0-0.8,0.5-1,1.5
		c-0.2,0-0.4-0.2-0.6-0.7c-1.1,0.7-1.5,1.9-1.3,3.3c-0.2,0-0.8-0.1-1.6-0.4c-0.4,0-0.9,0.4-1.3,1.1c-0.4,0.7-0.9,1.1-1.3,1.1
		c0,0.2-0.1,0.5-0.2,0.7c-0.1,0.3-0.3,0.5-0.5,0.7c-0.2-0.2-0.5-0.2-0.8,0.2c-0.3,0.4-0.6,0.6-0.8,0.6c-0.4-0.7-1.1-1-2.1-0.9
		c-1,0.1-1.7,0.7-2.1,1.7c0,0.2,0.1,0.5,0.3,0.7c0.2,0.2,0.3,0.5,0.3,0.7c-0.2,0-0.5-0.2-1-0.7c-0.2-0.2-0.4-0.4-0.6-0.4
		c-0.6,0-1.7,0.4-3.2,1.1c-0.2,0-0.4-0.1-0.5-0.2c-0.1-0.1-0.3-0.2-0.5-0.2c-0.4,0-1,0.3-1.8,0.7c-0.7,0.5-1.3,0.8-1.8,0.8
		c-0.2,0.2-0.5,0.3-0.8,0.2c-0.3-0.1-0.5-0.1-0.6,0c-0.1,0.1-0.3,0.3-0.5,0.6c-0.2,0.2-0.4,0.4-0.6,0.4c-0.2,0.3-0.7,0.3-1.4,0.2
		c-0.8-0.1-1.2-0.1-1.4,0.2c-0.2,0-0.4,0.2-0.5,0.6c-0.1,0.4-0.3,0.6-0.5,0.6c-1.5,0-2.3,0.1-2.4,0.2c-0.1,0.1-0.3,0.4-0.5,0.9
		c-0.2,0.5-0.4,0.7-0.6,0.7c-0.4,0-0.7-0.2-0.9-0.7c-0.2-0.5-0.4-0.7-0.6-0.7c-0.4,0.3-1.3,0.4-2.7,0.6c-1.4,0.1-2.1,0.7-2.1,1.7
		c-0.2,0-0.4-0.2-0.6-0.6c-0.2-0.4-0.4-0.6-0.6-0.6c-0.2-0.2-0.9-0.1-2.1,0.6c-1.2,0.6-1.9,1.1-2.1,1.3c-0.4-0.2-1.1-0.4-1.9-0.4
		c-0.9,0-1.4-0.1-1.6-0.4c-0.2,0-0.4,0.1-0.6,0.4c-0.2,0.3-0.4,0.4-0.6,0.4c-0.2,0-0.4-0.1-0.5-0.4c-0.1-0.2-0.3-0.4-0.5-0.4
		c-1.3-0.5-3,0-5.1,1.5c-0.2,0-0.4-0.2-0.5-0.6c-0.1-0.4-0.3-0.7-0.5-0.9c-1.3,0-2.3,0.1-3.2,0.4c-0.2,0.3-0.4,0.6-0.6,1.1
		c-0.9,1.2-1.6,1.2-2.2,0c-0.6,1.5-1.3,1.6-1.9,0.4c-0.2,0-0.4,0.3-0.6,0.8c-0.2,0-0.4-0.1-0.5-0.4c-0.1-0.2-0.3-0.4-0.5-0.4
		c0-0.5-0.5-0.5-1.6-0.2c-1.1,0.4-1.7,0.6-1.9,0.6s-0.5-0.1-0.8-0.2c-0.3-0.1-0.6-0.2-0.8-0.2c-0.4,0-1.2,0.1-2.2,0.2
		c-1.1,0.1-1.9,0.1-2.5-0.2c-0.6,1.5-1.4,1.5-2.2,0c-1.3,1.3-2.2,1.3-2.9,0c-0.2,0-0.4,0.1-0.6,0.4c-0.2,0.3-0.4,0.4-0.6,0.4
		s-0.4-0.1-0.5-0.4c-0.1-0.2-0.3-0.4-0.5-0.4c-0.2,0-1.3,0-3.2,0l-0.6,0.8c-1.5,0-3.9,0-7.3,0s-5.6,0-6.7,0
		c-0.2-1.2-0.6-1.9-1.1-1.9c-0.5,0-1.1,0.2-1.8,0.7c-0.2,0-0.3-0.2-0.3-0.6s0-0.7,0-0.9c-1.1-0.3-1.9-0.3-2.5,0v-0.8
		c0-0.2-0.1-0.4-0.3-0.5c-0.2-0.1-0.4-0.2-0.6-0.2c0-0.5-0.2-1.1-0.6-1.9c0-1-0.3-1.6-1-1.8c-0.2,0-1,0.2-2.2,0.7l0.3-0.7
		c-0.4-0.5-0.8-0.8-1-0.8c0-0.2-0.2-1-0.6-2.2c-0.2,0-0.4,0.1-0.5,0.4c-0.1,0.2-0.3,0.4-0.5,0.4c-0.2-0.2-0.5-0.9-0.8-1.9
		c-0.3-1-0.7-1.6-1.1-1.9c-0.2-0.7,0-1.4,0.6-1.9c0.2-0.2,0.3-0.5,0.3-0.7c0.4-1.5,0.8-2.2,1-2.2c0-0.2-0.1-0.5-0.3-0.7
		c-0.2-0.2-0.3-0.4-0.3-0.6c0-0.1,0.4-0.7,1.3-1.7c0.2-0.2,0.4-0.6,0.5-0.9c0.1-0.4,0.2-0.6,0.3-0.7c0.1-0.1,0.3-0.3,0.6-0.6
		c0.3-0.2,0.5-0.5,0.5-0.7c0.8-1.2,1.5-1.9,1.9-1.9c0.2-0.5,0.3-0.9,0.3-1.1c0.6,0.3,1.1,0.1,1.4-0.4c0.3-0.5,0.7-0.7,1.1-0.7
		c2.6-2.5,4.6-4.1,6.1-4.8l0.3-1.1c0.8,0.5,1.8,0.3,2.9-0.7c0.2-0.5,0.5-0.7,1-0.7c0-0.7,0.1-1.1,0.3-1.1c0,1,0.6,1.2,1.9,0.7
		c0.6-0.2,1.2-0.4,1.6-0.4c0.8-1,1.6-1.4,2.2-1.1c0.2-0.2,0.9-1,2.2-2.2c0.4,0,1-0.1,1.8-0.4c0.7-0.2,1.4-0.4,2.1-0.4
		c0.2,0,0.3-0.1,0.2-0.4c-0.1-0.2-0.1-0.4,0.2-0.4c0.4,0,1,0,1.6,0s1-0.4,1-1.1c0.2,0.3,0.4,0.5,0.5,0.8c0.1,0.2,0.3,0.4,0.5,0.4
		c0.2,0,0.4-0.1,0.6-0.4c0.2-0.3,0.4-0.4,0.6-0.4c0.4,1.2,1.3,1.9,2.6,1.9c0.2,0,0.4,0.2,0.5,0.6c0.1,0.4,0.3,0.6,0.5,0.6
		c0.2,0.2,0.7,0.4,1.6,0.4c0.8,0,1.4,0.3,1.6,0.7c0,0.3-0.1,0.6-0.2,0.9c-0.1,0.4-0.2,0.7-0.2,0.9c0.9,0,1.4,0.1,1.6,0.4
		c-0.4,0.5-0.6,1.7-0.5,3.5c0.1,1.9-0.2,2.8-0.8,2.8c0.2,0.7-0.1,1.5-0.8,2.4c-0.8,0.9-1.2,1.4-1.4,1.7c0.2,0.5,0.7,0.7,1.4,0.6
		c0.7-0.1,1.2-0.4,1.4-0.9c0.2,0.7,0.8,1.1,1.9,1.1c1.1,0,1.8,0.3,2.2,0.7c1.9-0.7,3-0.9,3.2-0.4c0.2,0,0.5-0.1,1-0.4
		c0.4-0.2,1-0.1,1.8,0.4c0.8,0.5,1.2,0.6,1.4,0.4c0.2,0,0.4-0.1,0.6-0.4c0.2-0.3,0.4-0.4,0.6-0.4c0.2,0,0.8,0.3,1.8,0.7
		c1,0.5,1.5,0.4,1.8-0.4c0.6,0.2,1.3,0.1,1.9-0.4c0.2-0.2,0.4-0.4,0.6-0.4c0.4-0.2,1.2-0.2,2.4,0c1.2,0.3,2,0.3,2.4,0
		c0-0.2,0.1-0.4,0.3-0.5c0.2-0.1,0.4-0.3,0.6-0.6c3.2-0.2,4.8-0.2,4.8,0c0.2,0,0.5-0.4,1-1.1c0.4,0,1.3-0.1,2.7-0.2
		c1.4-0.1,2.2-0.1,2.4,0.2c0.8,0.3,1.7-0.2,2.6-1.5c0.2,0,0.6,0,1.1,0c0.5,0,0.9-0.1,1.1-0.4c0.2,0.3,0.4,0.4,0.5,0.6
		c0.1,0.1,0.3,0.2,0.5,0.2c0.4,0,0.6-0.1,0.6-0.4V161c0.2,0,0.7,0,1.6,0v-1.1c0.2,0,0.6,0,1.3,0c0.6,0,1-0.2,1-0.7
		c1.1,0.2,1.7,0,1.9-0.8c0.2,0.5,0.4,0.8,0.6,0.8l0.6-0.4c0.9-0.5,1.3-1.1,1.3-1.9c0.2-0.2,0.5-0.1,0.9,0.4c0.6-0.2,1.1-0.9,1.3-1.9
		c1.3-0.2,1.8-1,1.6-2.2c0-0.2,0.2-0.5,0.5-0.7c0.3-0.2,0.5-0.5,0.5-0.7c0.2-3-0.3-4.3-1.6-4.1c0-0.5,0.1-0.9,0.3-1.3
		c0.2-0.4,0.3-0.8,0.3-1.3c-0.2-0.2-0.4-0.4-0.6-0.6c-0.2-0.1-0.4-0.3-0.6-0.6c0-0.5,0-0.9,0-1.1c0-0.2-0.2-0.5-0.5-0.7
		c-0.3-0.2-0.5-0.5-0.5-0.7c0-0.7-0.3-1.5-0.9-2.2c-0.6-0.7-1.1-1.2-1.3-1.5h-0.3c-0.6-0.2-1-0.5-1-0.7s0.3-0.4,0.8-0.6
		c0.5-0.1,0.8-0.3,0.8-0.6c-0.2-0.2-0.6-0.6-1.1-1.1c-0.5-0.5-0.8-1-0.8-1.5c-0.2-0.2-0.5-0.5-1-0.7h-0.3c-0.4,0-0.7,0-0.9,0
		c0.2-1.7-0.1-2.6-1-2.6c0-1.7-0.6-3.3-1.9-4.6c-1.3-1.4-2-2.5-2.2-3.5c0-0.2-0.2-0.6-0.6-1.1l-0.3-1.5c-0.2,0-1,0-2.2,0
		c0-0.2,0.1-0.5,0.3-0.7c0-0.2-0.1-0.6-0.3-1.1c-0.2-0.5-0.4-1-0.6-1.5c-1.9-1.7-3-3.2-3.2-4.5c-0.6-0.7-1.1-1.5-1.3-2.2
		c-0.4-0.2-0.7-1-0.9-2.2c-0.2-0.5-0.3-0.9-0.3-1.1c-0.2-0.3-0.4-0.4-0.6-0.6c-0.2-0.1-0.3-0.2-0.3-0.4c0-0.1-0.1-0.4-0.3-0.9
		c-0.6-0.7-1.1-1.4-1.3-1.9H85l-0.3-1.1c-0.4,0-0.8-0.1-1-0.4c-0.4-3-1.3-4.5-2.6-4.5c0-0.8-0.2-1.6-0.6-2.4c-0.4-0.9-0.6-1.5-0.6-2
		c-0.9-1.2-1.4-1.9-1.6-1.9c0-1.7-0.5-2.5-1.6-2.2c-0.2-0.5-0.4-0.9-0.6-1.1c0.2-1.5-0.5-2.5-2.2-3c0.4-2.2-0.1-4.2-1.6-5.9
		c0-2-0.4-3-1.3-3c-0.2-1-0.8-2.3-1.6-3.9c-0.9-1.6-1.4-2.9-1.6-3.9c-0.4-0.2-0.7-0.5-1-0.7c0.2-0.7,0.2-1.4,0-1.9
		c-0.2,0-0.5,0.1-0.9,0.4c0.4-1.7,0.4-3.1,0-4.1c-0.6-0.7-0.9-1.5-0.6-2.2c-0.2-0.5-0.8-0.9-1.6-1.1V55c0.6-0.7,0.2-2.6-1.3-5.6
		c0.2,0,0.1-1.1-0.3-3.4c0-0.5,0-0.8,0-0.9c0-0.1-0.1-0.3-0.3-0.6c-0.2-0.2-0.3-0.5-0.3-0.7c-0.2-0.5-0.3-1.2-0.3-2.2
		c-0.2-1.7-0.8-2.7-1.6-3c-0.4,0-1.4,0.1-2.9,0.2c-1.5,0.1-2.5,0.6-2.9,1.3c-0.2,0-0.4-0.1-0.5-0.2c-0.1-0.1-0.3-0.2-0.5-0.2
		c-0.2,0.2-0.7,0.4-1.4,0.4c-0.8,0-1.2,0.1-1.4,0.4c-0.6-0.5-1.1-0.7-1.4-0.7c-0.3,0-0.7,0.1-1.3,0.2c-0.5,0.1-0.9,0.2-1.1,0.2
		c-0.2,0-0.6,0-1.3,0c-1.1-0.2-1.8-0.1-2.2,0.4c-0.2,0.2-0.3,0.5-0.3,0.7c-0.4,0.2-0.8,0.4-1,0.4C41.1,41.4,41,41,41,40.5
		c-0.4-0.5-1.2-0.5-2.2,0c-0.2,0-0.3,0.1-0.3,0.4c0,0.3,0,0.5,0,0.8c-0.4-0.3-1.8-0.3-4.1,0c-1.1-1.5-2-1.9-2.9-1.1l0.3,0.7
		c-0.6,0.5-1.3,0.4-1.9-0.4c-0.6,0-1.6,0-2.9,0c-0.2,0-0.4-0.1-0.5-0.4c-0.1-0.2-0.3-0.4-0.6-0.4c-0.3,0-0.5,0.2-0.6,0.6
		s-0.3,0.6-0.5,0.6c-0.2,0.2-0.4-0.1-0.6-1.1c-0.4-0.2-1.3-0.3-2.7-0.2c-1.4,0.1-2.4,0.2-3,0.2c0-0.7-0.1-1.1-0.3-1.1
		c-0.2,0.3-0.4,0.4-0.6,0.4c-0.2-0.5-0.7-0.6-1.6-0.4c-0.4,0-0.7,0-0.9,0c-0.2,0-0.4-0.1-0.5-0.4c-0.1-0.2-0.2-0.4-0.3-0.4
		s-0.4,0-0.8,0c-0.2,0-0.4-0.1-0.6-0.4c-0.2-0.2-0.4-0.4-0.6-0.4c-0.4,0.3-0.7,0.3-0.9,0c-0.2,0-0.5-0.4-1-1.1
		c-0.6-0.2-1.4-0.7-2.4-1.5c-1-0.7-1.8-1.2-2.4-1.5v-1.1c0-0.2-0.2-0.5-0.5-0.7c-0.3-0.2-0.5-0.5-0.5-0.7c0-0.5-0.1-1-0.3-1.5
		c-0.2-0.5-0.3-0.9-0.3-1.1c-0.2-0.7-0.7-1.4-1.4-2C1.5,25.6,1,25,0.8,24.5c-0.2,0-0.5,0.1-1,0.4l0.6-1.9c0-0.5-0.1-1.8-0.2-3.9
		S0.5,16,1.1,16c0.2-0.2,0.6-0.6,1.3-1.1C2.6,13.6,3.3,13,4.3,13c0.4,0,0.9-0.4,1.6-1.3c0.6-0.9,1.2-1.3,1.6-1.3
		c0.4-0.2,1.3-0.2,2.6,0c1.3,0.3,2.2,0.3,2.9,0c0.2,0.3,0.3,0.5,0.3,0.7c0,0.3,0.1,0.4,0.3,0.4c0.9,0.2,1.8,0.3,2.7,0.2
		c1-0.1,1.9-0.1,2.7,0.2c0.8,0.3,1.4,0.6,1.6,1.1c0.6,0,1.6,0.1,2.9,0.2c1.3,0.1,2.1,0.1,2.6-0.2c0.2,0,0.4-0.1,0.5-0.4
		c0.1-0.3,0.3-0.4,0.5-0.4c0,0.3,0.1,0.6,0.2,0.9c0.1,0.4,0.3,0.6,0.5,0.6c0.4,0,0.7-0.5,0.9-1.5c0.6,0,1,0,1.1,0s0.1,0.4-0.2,1.1
		c0.6,0.7,1.3,1,1.9,0.7c0.2,0,0.4-0.1,0.6-0.2c0.2-0.1,0.4-0.2,0.5-0.2c0.1,0,0.5,0.1,1.1,0.4c0.4-0.2,0.9-0.5,1.4-0.7
		c0.5-0.2,0.9-0.4,1.1-0.4c1.1-0.2,2.6-0.4,4.5-0.4c0.4,0,1.6,0.1,3.7,0.4c2,0.3,3.2,0.3,3.7,0c0.2,0,0.4-0.1,0.5-0.2
		c0.1-0.1,0.3-0.2,0.5-0.2s0.5,0.1,0.8,0.2c0.3,0.1,0.6,0.2,0.8,0.2l1-0.4c0.2,0,1.1,0.1,2.5,0.4c1.5,0.3,2.5,0.3,2.9,0l0.9-0.7
		l2.9-0.4c0.2,0,0.9,0,2.1,0s2,0,2.4,0c0.2,0,0.6-0.1,1.1-0.4c0.5-0.2,0.9-0.4,1.1-0.4c0.2,0,0.8,0.1,1.8,0.4
		c0.9,0.2,1.6,0.4,2.1,0.4c0.2,0,0.4-0.2,0.6-0.5c0.2-0.4,0.4-0.6,0.6-0.6c0.2,0,0.4,0,0.5,0c0.1,0,0.3,0,0.5,0
		c1.3-0.2,2.1-0.2,2.5,0c0.8-0.2,4-0.4,9.6-0.4L86,10c0.2,0,0.4,0.1,0.5,0.2c0.1,0.1,0.3,0.2,0.5,0.2c0.2,0,0.5-0.1,0.8-0.2
		c0.3-0.1,0.6-0.1,0.8,0.2c1.9-1.5,4.6-1.7,8-0.7c0.6-0.7,1.4-0.7,2.2,0c0.2-0.2,0.7-0.3,1.4-0.2c0.7,0.1,1.2,0.1,1.3,0
		c0.1-0.1,0.5-0.4,1.3-0.9c0.7-0.5,1.5-0.7,2.4-0.7c0.2,0,0.6-0.1,1.3-0.4c0.8-0.5,1.3-1.1,1.3-1.9c0.4-0.2,1-0.2,1.6,0.2
		c0.6,0.4,1.1,0.3,1.3-0.2C112.5,6.1,113.7,5.9,114.4,5.2z M115.3,5.2c0.2,0.3,0.5,0.3,0.8,0.2c0.3-0.1,0.6,0,0.8,0.2v1.5
		c0.4,0.2,0.8,0.4,1.3,0.4c0.2,0.2,0.7,0.6,1.6,1.1c0.8,0.5,1.5,0.9,1.9,1.1c0-0.2,0.3-0.2,0.9,0c0.2,0.5,0.5,1,1,1.5h1.3
		c0.2,0.3,0.3,0.7,0.2,1.3c-0.1,0.6-0.1,1,0,1.1c0.1,0.1,0.4,0.6,0.8,1.3c0.4,0.7,0.5,1.5,0.3,2.2c0,0.3,0.2,0.4,0.5,0.4
		c0.3,0,0.6,0.1,0.8,0.4c0,0.5-0.2,1.1-0.6,1.9c0.2,3,0.6,4.4,1.3,4.4c0.2,0.3,0.3,1.5,0.3,3.7l-1,0.4c-0.2,0.2-0.3,0.6-0.3,1.1
		c-0.2,1.3-0.8,1.6-1.9,1.1c0,0.3-0.2,0.7-0.5,1.3c-0.3,0.6-0.6,1.2-0.8,1.7c-2.1-0.2-3.3-0.4-3.5-0.4c-0.2,0-0.5,0.3-1,0.9
		s-0.6,1.1-0.6,1.3c-0.4-0.2-0.9-0.2-1.4,0c-0.5,0.2-0.9,0.4-1.1,0.4c-0.4-0.2-0.6-0.5-0.6-0.7c-1.3,0-1.9,0.7-1.9,2.2
		c-0.6,0.2-1.2,0.2-1.6,0c-0.2-1.2-0.4-1.9-0.6-1.9c-0.9,0.5-1.4,0.6-1.6,0.4c-0.4-1-0.8-1.6-1.3-1.9c-0.2,0-0.4,0.1-0.5,0.4
		s-0.3,0.4-0.5,0.4c-1.7-0.8-3.2-0.8-4.5,0c0,0.5,0,0.9,0,1.1c-0.4,0.3-2.2,0.3-5.3,0.2c-3.1-0.1-4.9-0.2-5.6-0.2
		c-0.2,0-0.4-0.1-0.6-0.4c-2.3-0.2-3.2,0.2-2.5,1.5c-3,0.7-4.8,0.6-5.4-0.4c-0.4,0.3-0.6,1-0.6,2.2s0.2,2,0.6,2.2c0.4,0,0.7,0,1,0
		c0.2,0.5,0,1-0.6,1.5c0,1.7,0.4,3,1.3,3.7v1.5c0.4,0.2,0.6,0.5,0.6,0.7s-0.2,0.6-0.6,1.1c-0.2,0.7-0.1,1.4,0.3,2
		c0.4,0.6,0.6,1.2,0.6,1.7c-0.2,1-0.3,1.6-0.3,1.9c0.2,0.3,0.5,0.6,0.8,1.1c0.3,0.5,0.4,1,0.2,1.5c0.4,0.3,0.8,0.9,1.1,1.9
		c0.3,1,0.9,1.5,1.8,1.5c0,0.3-0.1,0.6-0.2,1.1c-0.1,0.5-0.1,0.9,0.2,1.1c0.2,0,0.4-0.1,0.5-0.4c0.1-0.2,0.3-0.2,0.5,0
		c0,0.3-0.2,0.6-0.6,1.1v2.2c0.4,0.2,0.8,0.8,1.1,1.7c0.3,0.9,0.7,1.4,1.1,1.7c-0.2,1,0,2,0.6,3c0.6,1,0.9,1.9,0.9,2.6
		c0.2,0.3,0.5,0.6,0.8,1.1c0.3,0.5,0.5,1,0.5,1.5c0.2,0,0.5,0.4,0.9,1.1s0.8,1.2,1,1.5c-0.2,1.5,0.4,2.9,1.9,4.1
		c0.2,1,0.8,2.2,1.9,3.7v1.1c0.2,0.3,0.6,0.5,1.3,0.7c1.1,2.5,1.8,4,2.2,4.5c0.2,0,0.5,0.1,1,0.4c0.4,0.2,0.8,0.4,1.3,0.4
		c0,0.8-0.2,1.5-0.6,2.2c0.2,0.2,0.4,0.6,0.6,1.1c0.2,0.5,0.3,1,0.3,1.5c0.2,0,0.5,0.1,1,0.4c0.4,0.2,0.8,0.4,1.3,0.4
		c0,0.5,0.2,1.2,0.5,2c0.3,0.9,0.6,1.4,0.8,1.7c0.2,0.2,0.5,0.4,0.8,0.6c0.3,0.1,0.6,0.2,0.8,0.2c0.2,1.7,0.5,2.6,1,2.6
		c0,0.3,0,0.4,0,0.6s0,0.3,0,0.6c0.2,0,0.4,0,0.6,0c0.2,0,0.4,0.1,0.5,0.2s0.1,0.3,0,0.4c-0.1,0.1-0.1,0.2,0,0.4
		c0.1,0.1,0.4,0.3,0.8,0.6c0.6,1.7,1.5,3.3,2.6,4.8h1c0,0.2,0.1,0.4,0.3,0.5c0.2,0.1,0.3,0.3,0.3,0.6c0,0.3,0,0.4,0,0.6
		c0,0.1,0.1,0.3,0.3,0.4c0.2,0.1,0.4,0.2,0.5,0.4c0.1,0.1,0.2,0.4,0.2,0.7c0,0.4,0,0.7,0.2,0.9c0.1,0.2,0.4,0.6,0.8,1.1
		c0.2,1.5,1,2.6,2.2,3.3c0,0.2,0.4,0.9,1.3,1.9c0,1,0.3,2,0.8,3c0.5,1,0.8,1.7,0.8,2.2c1.5,1.5,2.2,2.6,2.2,3.3l0.9,0.7
		c0.2,2,0.8,3.5,1.6,4.5c0,0.5,0.4,2.2,1.3,5.2c0,0.3,0.3,0.5,0.9,0.7c0.2,0.5,0.1,1.2-0.3,2.2c0,1,0.3,1.7,0.9,2.2
		c0,1.7,0,2.9,0,3.3l0.6,0.7c0,2.2-0.2,3.5-0.6,3.7c0.2,1-0.1,1.9-0.9,2.6c0.4,2.2,0.2,3.7-0.6,4.5v0.7c-1.9,3-2.9,4.6-2.9,4.8
		c-0.4,0-0.7,0.1-0.9,0.4c-0.2,0.5-0.3,1-0.3,1.5c-0.4,0-0.8,0.5-1,1.5c-0.2,0-0.4-0.2-0.6-0.7c-1.1,0.7-1.5,1.9-1.3,3.3
		c-0.2,0-0.8-0.1-1.6-0.4c-0.4,0-0.9,0.4-1.3,1.1c-0.4,0.7-0.9,1.1-1.3,1.1c0,0.2-0.1,0.5-0.2,0.7c-0.1,0.3-0.3,0.5-0.5,0.7
		c-0.2-0.2-0.5-0.2-0.8,0.2c-0.3,0.4-0.6,0.6-0.8,0.6c-0.4-0.7-1.1-1-2.1-0.9c-1,0.1-1.7,0.7-2.1,1.7c0,0.2,0.1,0.5,0.3,0.7
		c0.2,0.2,0.3,0.5,0.3,0.7c-0.2,0-0.5-0.2-1-0.7c-0.2-0.2-0.4-0.4-0.6-0.4c-0.6,0-1.7,0.4-3.2,1.1c-0.2,0-0.4-0.1-0.5-0.2
		c-0.1-0.1-0.3-0.2-0.5-0.2c-0.4,0-1,0.3-1.8,0.7c-0.7,0.5-1.3,0.8-1.8,0.8c-0.2,0.2-0.5,0.3-0.8,0.2c-0.3-0.1-0.5-0.1-0.6,0
		c-0.1,0.1-0.3,0.3-0.5,0.6c-0.2,0.2-0.4,0.4-0.6,0.4c-0.2,0.3-0.7,0.3-1.4,0.2c-0.8-0.1-1.2-0.1-1.4,0.2c-0.2,0-0.4,0.2-0.5,0.6
		c-0.1,0.4-0.3,0.6-0.5,0.6c-1.5,0-2.3,0.1-2.4,0.2c-0.1,0.1-0.3,0.4-0.5,0.9c-0.2,0.5-0.4,0.7-0.6,0.7c-0.4,0-0.7-0.2-0.9-0.7
		c-0.2-0.5-0.4-0.7-0.6-0.7c-0.4,0.3-1.3,0.4-2.7,0.6c-1.4,0.1-2.1,0.7-2.1,1.7c-0.2,0-0.4-0.2-0.6-0.6c-0.2-0.4-0.4-0.6-0.6-0.6
		c-0.2-0.2-0.9-0.1-2.1,0.6c-1.2,0.6-1.9,1.1-2.1,1.3c-0.4-0.2-1.1-0.4-1.9-0.4c-0.9,0-1.4-0.1-1.6-0.4c-0.2,0-0.4,0.1-0.6,0.4
		c-0.2,0.3-0.4,0.4-0.6,0.4c-0.2,0-0.4-0.1-0.5-0.4c-0.1-0.2-0.3-0.4-0.5-0.4c-1.3-0.5-3,0-5.1,1.5c-0.2,0-0.4-0.2-0.5-0.6
		c-0.1-0.4-0.3-0.7-0.5-0.9c-1.3,0-2.3,0.1-3.2,0.4c-0.2,0.3-0.4,0.6-0.6,1.1c-0.9,1.2-1.6,1.2-2.2,0c-0.6,1.5-1.3,1.6-1.9,0.4
		c-0.2,0-0.4,0.3-0.6,0.8c-0.2,0-0.4-0.1-0.5-0.4c-0.1-0.2-0.3-0.4-0.5-0.4c0-0.5-0.5-0.5-1.6-0.2c-1.1,0.4-1.7,0.6-1.9,0.6
		s-0.5-0.1-0.8-0.2c-0.3-0.1-0.6-0.2-0.8-0.2c-0.4,0-1.2,0.1-2.2,0.2c-1.1,0.1-1.9,0.1-2.5-0.2c-0.6,1.5-1.4,1.5-2.2,0
		c-1.3,1.3-2.2,1.3-2.9,0c-0.2,0-0.4,0.1-0.6,0.4c-0.2,0.3-0.4,0.4-0.6,0.4s-0.4-0.1-0.5-0.4c-0.1-0.2-0.3-0.4-0.5-0.4
		c-0.2,0-1.3,0-3.2,0l-0.6,0.8c-1.5,0-3.9,0-7.3,0s-5.6,0-6.7,0c-0.2-1.2-0.6-1.9-1.1-1.9c-0.5,0-1.1,0.2-1.8,0.7
		c-0.2,0-0.3-0.2-0.3-0.6s0-0.7,0-0.9c-1.1-0.3-1.9-0.3-2.5,0v-0.8c0-0.2-0.1-0.4-0.3-0.5c-0.2-0.1-0.4-0.2-0.6-0.2
		c0-0.5-0.2-1.1-0.6-1.9c0-1-0.3-1.6-1-1.8c-0.2,0-1,0.2-2.2,0.7l0.3-0.7c-0.4-0.5-0.8-0.8-1-0.8c0-0.2-0.2-1-0.6-2.2
		c-0.2,0-0.4,0.1-0.5,0.4c-0.1,0.2-0.3,0.4-0.5,0.4c-0.2-0.2-0.5-0.9-0.8-1.9c-0.3-1-0.7-1.6-1.1-1.9c-0.2-0.7,0-1.4,0.6-1.9
		c0.2-0.2,0.3-0.5,0.3-0.7c0.4-1.5,0.8-2.2,1-2.2c0-0.2-0.1-0.5-0.3-0.7c-0.2-0.2-0.3-0.4-0.3-0.6c0-0.1,0.4-0.7,1.3-1.7
		c0.2-0.2,0.4-0.6,0.5-0.9c0.1-0.4,0.2-0.6,0.3-0.7c0.1-0.1,0.3-0.3,0.6-0.6c0.3-0.2,0.5-0.5,0.5-0.7c0.8-1.2,1.5-1.9,1.9-1.9
		c0.2-0.5,0.3-0.9,0.3-1.1c0.6,0.3,1.1,0.1,1.4-0.4c0.3-0.5,0.7-0.7,1.1-0.7c2.6-2.5,4.6-4.1,6.1-4.8l0.3-1.1
		c0.8,0.5,1.8,0.3,2.9-0.7c0.2-0.5,0.5-0.7,1-0.7c0-0.7,0.1-1.1,0.3-1.1c0,1,0.6,1.2,1.9,0.7c0.6-0.2,1.2-0.4,1.6-0.4
		c0.8-1,1.6-1.4,2.2-1.1c0.2-0.2,0.9-1,2.2-2.2c0.4,0,1-0.1,1.8-0.4c0.7-0.2,1.4-0.4,2.1-0.4c0.2,0,0.3-0.1,0.2-0.4
		c-0.1-0.2-0.1-0.4,0.2-0.4c0.4,0,1,0,1.6,0s1-0.4,1-1.1c0.2,0.3,0.4,0.5,0.5,0.8c0.1,0.2,0.3,0.4,0.5,0.4c0.2,0,0.4-0.1,0.6-0.4
		c0.2-0.3,0.4-0.4,0.6-0.4c0.4,1.2,1.3,1.9,2.6,1.9c0.2,0,0.4,0.2,0.5,0.6c0.1,0.4,0.3,0.6,0.5,0.6c0.2,0.2,0.7,0.4,1.6,0.4
		c0.8,0,1.4,0.3,1.6,0.7c0,0.3-0.1,0.6-0.2,0.9c-0.1,0.4-0.2,0.7-0.2,0.9c0.9,0,1.4,0.1,1.6,0.4c-0.4,0.5-0.6,1.7-0.5,3.5
		c0.1,1.9-0.2,2.8-0.8,2.8c0.2,0.7-0.1,1.5-0.8,2.4c-0.8,0.9-1.2,1.4-1.4,1.7c0.2,0.5,0.7,0.7,1.4,0.6c0.7-0.1,1.2-0.4,1.4-0.9
		c0.2,0.7,0.8,1.1,1.9,1.1c1.1,0,1.8,0.3,2.2,0.7c1.9-0.7,3-0.9,3.2-0.4c0.2,0,0.5-0.1,1-0.4c0.4-0.2,1-0.1,1.8,0.4
		c0.8,0.5,1.2,0.7,1.4,0.7c0.2-0.2,0.4-0.5,0.6-0.7c0.2-0.3,0.4-0.4,0.6-0.4c0.2,0,0.8,0.3,1.8,0.7c1,0.5,1.5,0.4,1.8-0.4
		c0.6,0.2,1.3,0.1,1.9-0.4c0.2-0.2,0.4-0.4,0.6-0.4c0.4-0.2,1.2-0.2,2.4,0c1.2,0.3,2,0.3,2.4,0c0-0.2,0.1-0.4,0.3-0.5
		c0.2-0.1,0.4-0.3,0.6-0.6c3.2-0.2,4.8-0.2,4.8,0c0.2,0,0.5-0.4,1-1.1c0.4,0,1.3-0.1,2.7-0.2c1.4-0.1,2.2-0.1,2.4,0.2
		c0.8,0.3,1.7-0.2,2.6-1.5c0.2,0,0.6,0,1.1,0c0.5,0,0.9-0.1,1.1-0.4c0.2,0.3,0.4,0.4,0.5,0.6c0.1,0.1,0.3,0.2,0.5,0.2
		c0.4,0,0.6-0.1,0.6-0.4V161c0.2,0,0.7,0,1.6,0v-1.1c0.2,0,0.6,0,1.3,0c0.6,0,1-0.2,1-0.7c1.1,0.2,1.7,0,1.9-0.8
		c0.2,0.5,0.4,0.8,0.6,0.8l0.6-0.4c0.9-0.5,1.3-1.1,1.3-1.9c0.2-0.2,0.5-0.1,0.9,0.4c0.6-0.2,1.1-0.9,1.3-1.9c1.3-0.2,1.8-1,1.6-2.2
		c0-0.2,0.2-0.5,0.5-0.7c0.3-0.2,0.5-0.5,0.5-0.7c0.2-3-0.3-4.3-1.6-4.1c0-0.5,0.1-0.9,0.3-1.3c0.2-0.4,0.3-0.8,0.3-1.3
		c-0.2-0.2-0.4-0.4-0.6-0.6c-0.2-0.1-0.4-0.3-0.6-0.6c0-0.5,0-0.9,0-1.1c0-0.2-0.2-0.5-0.5-0.7c-0.3-0.2-0.5-0.5-0.5-0.7
		c0-0.7-0.3-1.5-0.9-2.2c-0.6-0.7-1.1-1.2-1.3-1.5l-1.3-0.7c0-0.2,0.3-0.4,0.8-0.6c0.5-0.1,0.8-0.3,0.8-0.6
		c-0.2-0.2-0.6-0.6-1.1-1.1c-0.5-0.5-0.8-1-0.8-1.5c-0.2-0.2-0.5-0.5-1-0.7h-0.3c-0.4,0-0.7,0-0.9,0c0.2-1.7-0.1-2.6-1-2.6
		c0-1.7-0.6-3.3-1.9-4.6c-1.3-1.4-2-2.5-2.2-3.5c0-0.2-0.2-0.6-0.6-1.1l-0.3-1.5c-0.2,0-1,0-2.2,0c0-0.2,0.1-0.5,0.3-0.7
		c0-0.2-0.1-0.6-0.3-1.1c-0.2-0.5-0.4-1-0.6-1.5c-1.9-1.7-3-3.2-3.2-4.5c-0.6-0.7-1.1-1.5-1.3-2.2c-0.4-0.2-0.7-1-0.9-2.2
		c-0.2-0.5-0.3-0.9-0.3-1.1c-0.2-0.3-0.4-0.4-0.6-0.6c-0.2-0.1-0.3-0.2-0.3-0.4c0-0.1-0.1-0.4-0.3-0.9c-0.6-0.7-1.1-1.4-1.3-1.9H85
		l-0.3-1.1c-0.4,0-0.8,0-1,0c-0.4-3.2-1.3-4.8-2.6-4.8c0-0.8-0.2-1.6-0.6-2.4c-0.4-0.9-0.6-1.5-0.6-2c-0.9-1.2-1.4-1.9-1.6-1.9
		c0-1.7-0.5-2.5-1.6-2.2c-0.2-0.5-0.4-0.9-0.6-1.1c0.2-1.5-0.5-2.5-2.2-3c0.4-2.2-0.1-4.2-1.6-5.9c0-2-0.4-3-1.3-3
		c-0.2-1-0.8-2.3-1.6-3.9c-0.9-1.6-1.4-2.9-1.6-3.9c-0.4-0.2-0.7-0.5-1-0.7c0.2-0.7,0.2-1.4,0-1.9c-0.2,0-0.5,0.1-0.9,0.4
		c0.4-1.7,0.4-3.1,0-4.1c-0.6-0.7-0.9-1.5-0.6-2.2c-0.2-0.5-0.8-0.9-1.6-1.1V55c0.6-0.7,0.2-2.6-1.3-5.6c0.2,0,0.1-1.1-0.3-3.4
		c0-0.5,0-0.8,0-0.9c0-0.1-0.1-0.3-0.3-0.6c-0.2-0.2-0.3-0.5-0.3-0.7c-0.2-0.5-0.3-1.2-0.3-2.2c-0.2-1.7-0.8-2.7-1.6-3
		c-0.4,0-1.4,0.1-2.9,0.2c-1.5,0.1-2.5,0.6-2.9,1.3c-0.2,0-0.4-0.1-0.5-0.2c-0.1-0.1-0.3-0.2-0.5-0.2c-0.2,0.2-0.7,0.4-1.4,0.4
		c-0.8,0-1.2,0.1-1.4,0.4c-0.6-0.5-1.1-0.7-1.4-0.7c-0.3,0-0.7,0.1-1.3,0.2c-0.5,0.1-0.9,0.2-1.1,0.2c-0.2,0-0.6,0-1.3,0
		c-1.1-0.2-1.8-0.1-2.2,0.4c-0.2,0.2-0.3,0.5-0.3,0.7c-0.4,0.2-0.8,0.4-1,0.4C41.1,41.4,41,41,41,40.5c-0.4-0.5-1.2-0.5-2.2,0
		c-0.2,0-0.3,0.1-0.3,0.4c0,0.3,0,0.5,0,0.8c-0.4-0.3-1.8-0.3-4.1,0c-1.1-1.5-2-1.9-2.9-1.1l0.3,0.7c-0.6,0.5-1.3,0.4-1.9-0.4
		c-0.6,0-1.6,0-2.9,0c-0.2,0-0.4-0.1-0.5-0.4c-0.1-0.2-0.3-0.4-0.6-0.4c-0.3,0-0.5,0.2-0.6,0.6s-0.3,0.6-0.5,0.6
		c-0.2,0.2-0.4-0.1-0.6-1.1c-0.4-0.2-1.3-0.3-2.7-0.2c-1.4,0.1-2.4,0.2-3,0.2c0-0.7-0.1-1.1-0.3-1.1c-0.2,0.3-0.4,0.4-0.6,0.4
		c-0.2-0.5-0.7-0.6-1.6-0.4c-0.4,0-0.7,0-0.9,0c-0.2,0-0.4-0.1-0.5-0.4c-0.1-0.2-0.2-0.4-0.3-0.4s-0.4,0-0.8,0
		c-0.2,0-0.4-0.1-0.6-0.4c-0.2-0.2-0.4-0.4-0.6-0.4c-0.4,0.3-0.7,0.3-0.9,0c-0.2,0-0.5-0.4-1-1.1c-0.6-0.2-1.4-0.7-2.4-1.5
		c-1-0.7-1.8-1.2-2.4-1.5v-1.1c0-0.2-0.2-0.5-0.5-0.7c-0.3-0.2-0.5-0.5-0.5-0.7c0-0.5-0.1-1-0.3-1.5c-0.2-0.5-0.3-0.9-0.3-1.1
		c-0.2-0.7-0.7-1.4-1.4-2C1.5,25.6,1,25,0.8,24.5c-0.2,0-0.5,0.1-1,0.4l0.6-1.9c0-0.5-0.1-1.8-0.2-3.9S0.5,16,1.1,16
		c0.2-0.2,0.6-0.6,1.3-1.1C2.6,13.6,3.3,13,4.3,13c0.4,0,0.9-0.4,1.6-1.3c0.6-0.9,1.2-1.3,1.6-1.3c0.4-0.2,1.3-0.2,2.6,0
		c1.3,0.3,2.2,0.3,2.9,0c0.2,0.3,0.3,0.5,0.3,0.7c0,0.3,0.1,0.4,0.3,0.4c0.9,0.2,1.8,0.3,2.7,0.2c1-0.1,1.9-0.1,2.7,0.2
		c0.8,0.3,1.4,0.6,1.6,1.1c0.6,0,1.6,0.1,2.9,0.2c1.3,0.1,2.1,0.1,2.6-0.2c0.2,0,0.4-0.1,0.5-0.4c0.1-0.3,0.3-0.4,0.5-0.4
		c0,0.3,0.1,0.6,0.2,0.9c0.1,0.4,0.3,0.6,0.5,0.6c0.4,0,0.7-0.5,0.9-1.5c0.6,0,1,0,1.1,0s0.1,0.4-0.2,1.1c0.6,0.7,1.3,1,1.9,0.7
		c0.2,0,0.4-0.1,0.6-0.2c0.2-0.1,0.4-0.2,0.5-0.2c0.1,0,0.5,0.1,1.1,0.4c0.4-0.2,0.9-0.5,1.4-0.7c0.5-0.2,0.9-0.4,1.1-0.4
		c1.1-0.2,2.6-0.4,4.5-0.4c0.4,0,1.6,0.1,3.7,0.4c2,0.3,3.2,0.3,3.7,0c0.2,0,0.4-0.1,0.5-0.2c0.1-0.1,0.3-0.2,0.5-0.2
		s0.5,0.1,0.8,0.2c0.3,0.1,0.6,0.2,0.8,0.2l1-0.4c0.2,0,1.1,0.1,2.5,0.4c1.5,0.3,2.5,0.3,2.9,0l0.9-0.7l2.9-0.4c0.2,0,0.9,0,2.1,0
		s2,0,2.4,0c0.2,0,0.6-0.1,1.1-0.4c0.5-0.2,0.9-0.4,1.1-0.4c0.2,0,0.8,0.1,1.8,0.4c0.9,0.2,1.6,0.4,2.1,0.4c0.2,0,0.4-0.2,0.6-0.5
		c0.2-0.4,0.4-0.6,0.6-0.6c0.2,0,0.4,0,0.5,0c0.1,0,0.3,0,0.5,0c1.3-0.2,2.1-0.2,2.5,0c0.8-0.2,4-0.4,9.6-0.4L86,10
		c0.2,0,0.4,0.1,0.5,0.2c0.1,0.1,0.3,0.2,0.5,0.2c0.2,0,0.5-0.1,0.8-0.2c0.3-0.1,0.6-0.1,0.8,0.2c1.9-1.5,4.6-1.7,8-0.7
		c0.6-0.7,1.4-0.7,2.2,0c0.2-0.2,0.7-0.3,1.4-0.2c0.7,0.1,1.2,0.1,1.3,0c0.1-0.1,0.5-0.4,1.3-0.9c0.7-0.5,1.5-0.7,2.4-0.7
		c0.2,0,0.6-0.1,1.3-0.4c0.8-0.5,1.3-1.1,1.3-1.9c0.4-0.2,1-0.2,1.6,0.2c0.6,0.4,1.1,0.3,1.3-0.2c1.9,0.5,3.2,0.4,3.8-0.4
		C114.4,4.7,114.7,4.7,115.3,5.2z M50.6,41.7c0,0-0.1,0-0.3,0c-0.2,0-0.3-0.1-0.3-0.4c0-0.2,0.1-0.5,0.3-0.7
		C50.5,41.3,50.6,41.7,50.6,41.7z M50.3,40.5c0.2,0.7,0.2,1.1,0,1.1c-0.2,0-0.3-0.1-0.3-0.4C49.9,41,50,40.8,50.3,40.5z
		 M102.6,187.1c0,0.5-0.3,0.7-0.8,0.6c-0.5-0.1-0.8-0.4-0.8-0.9c0.2-0.2,0.5-0.4,1-0.4C102.3,186.3,102.6,186.6,102.6,187.1z
		 M101,186.7c0.2-0.2,0.5-0.4,1-0.4c0.4,0,0.6,0.2,0.6,0.7s-0.3,0.7-0.8,0.6C101.2,187.5,101,187.2,101,186.7z"/>
	<path fill="#643282" d="M182,108.2c0.8,0.7,1.5,1.1,1.9,1.1l1-0.7c1.5,0,3.5,0,6.1,0c2.5,0,4.6,0,6.1,0c1.1,0.7,1.7,1,1.9,0.7
		c0.2,0.3,0.3,0.9,0.3,1.9c0.2,0.5,0.6,0.9,1.1,1.3c0.5,0.4,0.9,0.8,1.1,1.3c0.2,0.7,0.4,1.1,0.6,1.1c0.4-0.5,0.7-0.6,1-0.4l0.3,2.6
		c0.2,0.3,0.6,0.6,1.3,1.1c0.2,2.2,0.6,3.2,1.3,3c0.2,0,0.4-0.1,0.5-0.4c0.1-0.2,0.3-0.5,0.5-0.7c0.2,0,0.6,0.4,1.3,1.1
		c0.2,0,0.6,0,1.3,0c1.3,0.2,2.1,0.1,2.6-0.4c0,1,0.3,1.5,1,1.5c0.2,0.3,0.4,0.3,0.6,0c0.2-0.2,0.4-0.4,0.6-0.4v1.1
		c1.9,1,3.2,2,3.8,3c0-0.2,0.3-0.2,1,0c2.8,3.2,4.3,5.2,4.8,5.9c0.2,0.3,0.7,0.6,1.6,1.1c0,0.3,0.3,0.8,0.8,1.7
		c0.5,0.9,1.1,1.4,1.8,1.7c1.1,1.7,1.6,3,1.6,3.7c0.2,0.3,0.4,0.6,0.6,1.1c0,0.5,0.1,0.9,0.2,1.1c0.1,0.2,0.3,0.5,0.5,0.7
		c0.2,0.2,0.4,0.5,0.6,0.7c0,0.2-0.1,0.9-0.3,1.9c0,0.5,0.1,1.4,0.3,2.6c0.2,1.2,0.3,2.1,0.3,2.6c0,0.2-0.1,0.9-0.3,2
		c-0.2,1.1-0.2,1.9,0,2.4c-0.4,0.5-0.9,1.5-1.3,3c-0.4,1.5-1,2.5-1.6,3c-0.2,0.7-0.7,1.7-1.4,2.8c-0.7,1.1-1.2,1.9-1.4,2.4H225
		c-1.1,1-2.7,2.5-4.8,4.5c-2.1,2-3.7,3.5-4.8,4.5c0.2,0.7,0.2,1.1,0,1.1s-0.6-0.3-1.3-0.8c-1.5,1-2.6,1.1-3.2,0.4
		c-1.7,1.5-2.7,2.6-2.9,3.3c-1.1-0.5-2.3-0.2-3.8,0.7c-0.6,0.5-1.1,0.9-1.3,1.1c-0.2,0-0.4,0-0.6,0c-0.2,0-0.3,0.1-0.3,0.4
		c-0.2,0-0.5,0.2-0.8,0.6c-0.3,0.4-0.5,0.5-0.6,0.5c-0.1,0-0.4,0-0.9-0.2c-0.5-0.1-0.9-0.1-1.1,0.2c-0.4,0.5-0.8,0.8-1,0.8
		c-0.2,0.2-0.8,0.5-1.8,0.7c-1,0.2-1.6,0.6-2.1,1.1c-1.5-0.2-2.6-0.2-3.2,0c-0.6,0.8-1.1,1.1-1.3,1.1c-0.2-0.5-0.6-0.7-1.3-0.7
		s-1.1,0.3-1.3,0.7c-3.2-0.7-5-0.7-5.4,0c-1.3-0.5-2-0.5-2.2,0c-0.4-0.2-1.2-0.3-2.2-0.2c-1.1,0.1-1.6-0.2-1.6-0.9
		c-0.2,0-0.7,0-1.4,0c-0.8,0-1.2-0.1-1.4-0.4c-0.8,0.5-1.7,0.4-2.5-0.4c-0.4-0.2-0.8-0.4-1-0.6c-0.2-0.1-0.5-0.2-0.8-0.2
		c-0.3,0-0.6,0-0.8,0c-1.1-1-1.8-1.4-2.2-1.1c-0.4-0.2-0.7-0.6-1-1.1h-0.6c-1.1-1.2-2.1-2-3.2-2.2c-0.9-1-1.7-1.6-2.6-1.9
		c-0.4-1.2-1.3-2.6-2.6-4.1c-1.3-1.5-2-2.5-2.2-3c0-0.5-0.3-1.2-0.9-2.2c0-0.2,0-0.4,0.2-0.6c0.1-0.1,0.2-0.3,0.2-0.6
		c-0.2-0.2-0.5-0.4-1-0.6c-0.4-0.1-0.7-0.3-0.8-0.6c-0.1-0.2,0.1-0.6,0.5-1.1c0-0.5-0.2-1.1-0.6-1.9c-0.4-0.7-0.6-1.2-0.6-1.5
		c-0.4-1.5-0.8-2.4-1-2.6c0-1-0.1-1.7-0.3-2.2c0-0.2,0.1-0.4,0.3-0.6c0.2-0.1,0.2-0.3,0-0.6c0-0.2-0.2-0.5-0.6-0.7
		c-0.2,0-0.3-0.1-0.3-0.4c-0.2-0.8,0-1.6,0.6-2.6c0.2-0.5,0.3-1.4,0.2-2.6c-0.1-1.2-0.2-2.1-0.2-2.6c0-0.3,0.2-0.6,0.5-1.1
		c0.3-0.5,0.5-0.8,0.6-0.9c0.1-0.1,0.1-0.4,0-0.7c-0.1-0.4-0.1-0.7,0.2-0.9c0-0.5,0.4-1.4,1.3-2.6l1.6-2.6c1.1-1.5,1.7-2.4,1.9-2.6
		c0-0.2,0-0.6,0-0.9c0-0.4,0.1-0.7,0.2-0.9c0.1-0.2,0.5-0.5,1.1-0.7c1.1-1.2,1.8-2.2,2.2-3c0.2,0,0.4-0.1,0.5-0.4
		c0.1-0.2,0.2-0.5,0.2-0.7c0.2-0.2,0.7-0.8,1.6-1.7c0.8-0.9,1.4-1.5,1.6-2c0.2,0,0.4-0.1,0.5-0.2c0.1-0.1,0.3-0.2,0.5-0.2
		c0.2-0.2,0.5-0.6,0.8-1.1c0.3-0.5,0.5-0.9,0.6-1.1c0.1-0.2,0.4-0.4,0.9-0.5c0.5-0.1,0.9-0.3,1.1-0.6c0.2-0.2,0.5-0.6,0.9-1.1
		c0.4-0.5,0.7-0.9,1-1.1c0.4,0,0.7,0,1,0l3.8-4.5c0.2,0,0.8-0.5,1.9-1.5h0.6c1.7-1.5,3.3-2.3,4.8-2.6
		C180.8,109.2,181.4,108.5,182,108.2z M180.4,110.5c0.4-1.2,1-2,1.6-2.2c0.8,0.7,1.5,1.1,1.9,1.1l1-0.7c1.5,0,3.5,0,6.1,0
		c2.5,0,4.6,0,6.1,0c1.1,0.7,1.7,1,1.9,0.7c0.2,0.3,0.3,0.9,0.3,1.9c0.2,0.5,0.6,0.9,1.1,1.3c0.5,0.4,0.9,0.8,1.1,1.3
		c0.2,0.7,0.4,1.1,0.6,1.1c0.4-0.5,0.7-0.6,1-0.4l0.3,2.6c0.2,0.3,0.6,0.6,1.3,1.1c0.2,2.2,0.6,3.2,1.3,3c0.2,0,0.4-0.1,0.5-0.4
		c0.1-0.2,0.3-0.5,0.5-0.7c0.2,0,0.4,0.2,0.6,0.6c0.2,0.4,0.4,0.6,0.6,0.6c0.2,0,0.6,0,1.3,0c1.3,0.2,2.1,0.1,2.6-0.4
		c0,1,0.3,1.5,1,1.5c0.2,0.3,0.4,0.3,0.6,0c0.2-0.2,0.4-0.4,0.6-0.4v1.1c1.9,1,3.2,2,3.8,3c0-0.2,0.3-0.2,1,0
		c2.8,3.2,4.3,5.2,4.8,5.9c0.2,0.3,0.7,0.6,1.6,1.1c0,0.3,0.3,0.8,0.8,1.7c0.5,0.9,1.1,1.4,1.8,1.7c1.1,1.7,1.6,3,1.6,3.7
		c0.2,0.3,0.4,0.6,0.6,1.1c0,0.5,0.1,0.9,0.2,1.1c0.1,0.2,0.3,0.5,0.5,0.7c0.2,0.2,0.4,0.5,0.6,0.7c0,0.2-0.1,0.9-0.3,1.9
		c0,0.5,0.1,1.4,0.3,2.6c0.2,1.2,0.3,2.1,0.3,2.6c0,0.2-0.1,0.9-0.3,2c-0.2,1.1-0.2,1.9,0,2.4c-0.4,0.5-0.9,1.5-1.3,3
		c-0.4,1.5-1,2.5-1.6,3c-0.2,0.7-0.7,1.7-1.4,2.8c-0.7,1.1-1.2,1.9-1.4,2.4H225c-1.1,1-2.7,2.5-4.8,4.5c-2.1,2-3.7,3.5-4.8,4.5
		c0.2,0.7,0.2,1.1,0,1.1s-0.6-0.3-1.3-0.8c-1.5,1-2.6,1.1-3.2,0.4c-1.7,1.5-2.7,2.6-2.9,3.3c-1.1-0.5-2.3-0.2-3.8,0.7
		c-0.6,0.5-1.1,0.9-1.3,1.1c-0.2,0-0.4,0-0.6,0c-0.2,0-0.3,0.1-0.3,0.4c-0.2,0-0.5,0.2-0.8,0.6c-0.3,0.4-0.5,0.5-0.6,0.5
		c-0.1,0-0.4,0-0.9-0.2c-0.5-0.1-0.9-0.1-1.1,0.2c-0.4,0.5-0.8,0.8-1,0.8c-0.2,0.2-0.8,0.5-1.8,0.7c-1,0.2-1.6,0.6-2.1,1.1
		c-1.5-0.2-2.6-0.2-3.2,0c-0.6,0.8-1.1,1.1-1.3,1.1c-0.2-0.5-0.6-0.7-1.3-0.7s-1.1,0.3-1.3,0.7c-3.2-0.7-5-0.7-5.4,0
		c-1.3-0.5-2-0.5-2.2,0c-0.4-0.2-1.2-0.3-2.2-0.2c-1.1,0.1-1.6-0.2-1.6-0.9c-0.2,0-0.7,0-1.4,0c-0.8,0-1.2-0.1-1.4-0.4
		c-0.8,0.5-1.7,0.4-2.5-0.4c-0.4-0.2-0.8-0.4-1-0.6c-0.2-0.1-0.5-0.2-0.8-0.2c-0.3,0-0.6,0-0.8,0c-1.1-1-1.8-1.4-2.2-1.1
		c-0.4-0.2-0.7-0.6-1-1.1h-0.6c-1.1-1.2-2.1-2-3.2-2.2c-0.9-1-1.7-1.6-2.6-1.9c-0.4-1.2-1.3-2.6-2.6-4.1c-1.3-1.5-2-2.5-2.2-3
		c0-0.5-0.3-1.2-0.9-2.2c0-0.2,0-0.4,0.2-0.6c0.1-0.1,0.2-0.3,0.2-0.6c-0.2-0.2-0.5-0.4-1-0.6c-0.4-0.1-0.7-0.3-0.8-0.6
		c-0.1-0.2,0.1-0.6,0.5-1.1c0-0.5-0.2-1.1-0.6-1.9c-0.4-0.7-0.6-1.2-0.6-1.5c-0.4-1.5-0.8-2.4-1-2.6c0-1-0.1-1.7-0.3-2.2
		c0-0.2,0.1-0.4,0.3-0.6c0.2-0.1,0.2-0.3,0-0.6c0-0.2-0.2-0.5-0.6-0.7c-0.2,0-0.3-0.1-0.3-0.4c-0.2-0.8,0-1.6,0.6-2.6
		c0.2-0.5,0.3-1.4,0.2-2.6c-0.1-1.2-0.2-2.1-0.2-2.6c0-0.3,0.2-0.6,0.5-1.1c0.3-0.5,0.5-0.8,0.6-0.9c0.1-0.1,0.1-0.4,0-0.7
		c-0.1-0.4-0.1-0.7,0.2-0.9c0-0.5,0.4-1.4,1.3-2.6l1.6-2.6c1.1-1.5,1.7-2.4,1.9-2.6c0-0.2,0-0.6,0-0.9c0-0.4,0.1-0.7,0.2-0.9
		c0.1-0.2,0.5-0.5,1.1-0.7c1.1-1.2,1.8-2.2,2.2-3c0.2,0,0.4-0.1,0.5-0.4c0.1-0.2,0.2-0.5,0.2-0.7c0.2-0.2,0.7-0.8,1.6-1.7
		c0.8-0.9,1.4-1.5,1.6-2c0.2,0,0.4-0.1,0.5-0.2c0.1-0.1,0.3-0.2,0.5-0.2c0.2-0.2,0.5-0.6,0.8-1.1c0.3-0.5,0.5-0.9,0.6-1.1
		c0.1-0.2,0.4-0.4,0.9-0.5c0.5-0.1,0.9-0.3,1.1-0.6c0.2-0.2,0.5-0.6,0.9-1.1c0.4-0.5,0.7-0.9,1-1.1c0.4,0,0.7,0,1,0
		c0.4-0.5,1.1-1.2,1.9-2.2c0.8-1,1.5-1.7,1.9-2.2c0.2,0,0.8-0.5,1.9-1.5h0.6C177.3,111.6,178.9,110.7,180.4,110.5z M190,135.7
		c-0.6-0.5-1.3-0.4-1.9,0.2c-0.6,0.6-1.3,0.8-1.9,0.5c-1.1,1-1.7,1.5-1.9,1.5c-0.9,0.7-1.5,1.2-1.9,1.5l-0.3,0.4
		c-0.2,0-0.6,0.2-1.1,0.5c-0.5,0.4-0.9,0.7-1.1,0.9c-0.2,0.2-0.3,0.5-0.3,0.7c0,0.3-0.1,0.4-0.2,0.6c-0.1,0.1-0.3,0.2-0.6,0.4
		c-0.3,0.1-0.5,0.3-0.6,0.4c-0.1,0.1-0.4,0.6-0.8,1.3c-0.2,0.3-0.5,0.6-0.8,0.9c-0.3,0.4-0.6,0.7-0.8,0.9c-1.9,2-3.2,3.5-3.8,4.5
		v1.1c-0.2,0.5-0.5,0.9-0.9,1.1c0,0.7-0.2,1.6-0.6,2.4c-0.4,0.9-0.6,1.7-0.6,2.4c0.9,1.2,1.3,2.1,1.3,2.6c0.2,0.2,0.6,0.7,1.1,1.3
		c0.5,0.6,1,1.1,1.4,1.3c0.4-0.2,2-0.2,4.6,0c2.6,0.2,4-0.1,4-1.1c0.2,0,0.4,0.1,0.6,0.4c0.2,0.2,0.4,0.4,0.6,0.4
		c0-0.2,0.1-0.4,0.3-0.6c0.2-0.1,0.4-0.2,0.6-0.2c0.2,0.3,0.4,0.4,0.6,0.4c0.4-0.2,1.8-0.4,4.1-0.4c0.2-0.7,0.9-1.1,1.9-1.1
		c0.6,0,1.1-0.1,1.3-0.4c0.2,0,0.4-0.1,0.6-0.4c0.9-0.7,1.6-1,2.2-0.7c0-0.2,0.9-0.6,2.6-1.1l1-0.7c2.1-1.5,3.3-2.3,3.5-2.6
		c0.4,0,0.7,0,1,0c2.1-2.2,3.5-3.5,4.1-3.7c0-0.2,0.2-0.5,0.5-0.9c0.3-0.4,0.5-0.8,0.5-1.3s-0.5-0.9-1.6-1.1
		c-1.1-0.2-1.7-0.4-1.9-0.4c0,0.2-1,0.2-2.9,0c-0.2,0-0.5,0-0.8,0c-0.3,0-0.6,0-0.8,0c-0.2,0-0.6-0.1-1.1-0.4c-0.5-0.2-1-0.2-1.4,0
		c-0.2-0.5-0.7-1-1.4-1.5c-0.7-0.5-1.2-1-1.4-1.5c-0.2-0.2-0.3-0.6-0.3-1.1c0-0.5-0.1-0.9-0.3-1.1c-0.9,0.3-1.3,0.3-1.3,0
		c-0.2,0-0.3-0.6-0.3-1.9c0-0.2-0.2-0.4-0.6-0.4c-0.4,0-0.8-0.1-1-0.4c0.6-1,0.8-2.4,0.6-4.1C191.3,135.4,190.8,135.5,190,135.7z
		 M191.6,135.4c-0.2,0-0.8,0.1-1.6,0.4c-0.6-0.5-1.3-0.4-1.9,0.2c-0.6,0.6-1.3,0.8-1.9,0.5c-1.1,1-1.7,1.5-1.9,1.5
		c-0.9,0.7-1.5,1.2-1.9,1.5l-0.3,0.4c-0.2,0-0.6,0.2-1.1,0.5c-0.5,0.4-0.9,0.7-1.1,0.9c-0.2,0.2-0.3,0.5-0.3,0.7
		c0,0.3-0.1,0.4-0.2,0.6c-0.1,0.1-0.3,0.2-0.6,0.4c-0.3,0.1-0.5,0.3-0.6,0.4c-0.1,0.1-0.4,0.6-0.8,1.3c-0.2,0.3-0.5,0.6-0.8,0.9
		c-0.3,0.4-0.6,0.7-0.8,0.9c-1.9,2-3.2,3.5-3.8,4.5v1.1c-0.2,0.5-0.5,0.9-0.9,1.1c0,0.7-0.2,1.6-0.6,2.4c-0.4,0.9-0.6,1.7-0.6,2.4
		c0.9,1.2,1.3,2.1,1.3,2.6c0.2,0,0.6,0.4,1.1,1.1c0.5,0.7,1,1.2,1.4,1.5c0.4-0.2,2-0.2,4.6,0c2.6,0.2,4-0.1,4-1.1
		c0.2,0,0.4,0.1,0.6,0.4c0.2,0.2,0.4,0.4,0.6,0.4c0-0.2,0.1-0.4,0.3-0.6c0.2-0.1,0.4-0.2,0.6-0.2c0.2,0.3,0.4,0.4,0.6,0.4
		c0.4-0.2,1.8-0.4,4.1-0.4c0.2-0.7,0.9-1.1,1.9-1.1c0.6,0,1.1-0.1,1.3-0.4c0.2,0,0.4-0.1,0.6-0.4c0.9-0.7,1.6-1,2.2-0.7
		c0-0.2,0.9-0.6,2.6-1.1l1-0.7c2.1-1.5,3.3-2.3,3.5-2.6c0.4,0,0.7,0,1,0c2.1-2.2,3.5-3.5,4.1-3.7c0-0.2,0.2-0.5,0.5-0.9
		c0.3-0.4,0.5-0.8,0.5-1.3s-0.5-0.9-1.6-1.1c-1.1-0.2-1.7-0.4-1.9-0.4c0,0.2-1,0.2-2.9,0c-0.2,0-0.5,0-0.8,0c-0.3,0-0.6,0-0.8,0
		c-0.2,0-0.6-0.1-1.1-0.4c-0.5-0.2-1-0.2-1.4,0c-0.2-0.5-0.7-1-1.4-1.5c-0.7-0.5-1.2-1-1.4-1.5c-0.2-0.2-0.3-0.6-0.3-1.1
		c0-0.5-0.1-0.9-0.3-1.1c-0.9,0.3-1.3,0.3-1.3,0c-0.2,0-0.3-0.6-0.3-1.9c0-0.2-0.2-0.4-0.6-0.4c-0.4,0-0.8-0.1-1-0.4
		C191.6,138.5,191.8,137.1,191.6,135.4z"/>
	<path fill="#643282" d="M255.5,58.6c1.4-0.1,2.2-0.1,2.4,0.2c0,1,0.3,1.5,1,1.5c1.1-0.2,1.7-0.4,1.9-0.4c0,1.7,0.6,2.7,1.9,3
		c0.2,0,0.3-0.1,0.3-0.2c0-0.1,0.1-0.2,0.3-0.2c0.4,0.5,0.7,0.7,1,0.7c-0.2,0.5-0.2,1.1,0,1.9c0.2,0.7,0.3,1.2,0.3,1.5
		c0.2,0.3,0.4,0.4,0.6,0.4c0.2,0,0.3,0.1,0.3,0.4c0.2,0,0.5,0.5,0.8,1.5c0.3,1,0.7,1.6,1.1,1.8c0,0.3,0,0.5,0,0.8c0.2,0,0.4,0,0.6,0
		c0.4,0,0.7,0,0.9,0c0.2,1,0,1.7-0.6,2.2c-0.2,0.7,0.1,1.7,1,3c0,0.7,0,2.2,0,4.5c0,2.2,0.1,3.6,0.3,4.1h-1c-0.2,0-0.3,0.2-0.3,0.7
		c0,0.5-0.1,0.7-0.3,0.7c-0.2,0-0.4-0.1-0.6-0.2c-0.2-0.1-0.4-0.2-0.6-0.2c-0.6,0-0.7,0.6-0.3,1.9c0.4,1.2,0.5,2.1,0.3,2.6
		c-0.2,0-0.7,0.1-1.6,0.2c-0.9,0.1-1.4,0.2-1.6,0.2c-0.2,0-0.5-0.2-1-0.7c-0.6-0.7-1.2-0.7-1.6,0c0,0.2,0.1,0.5,0.3,0.7
		c0.2,0.3,0.3,0.5,0.3,0.7c-0.6-0.2-1-0.5-1-0.7c-1.5,0-2.3-0.4-2.5-1.1c-0.2,0-0.4,0.1-0.5,0.2c-0.1,0.1-0.3,0.2-0.5,0.2
		c-0.2-0.2-1.2-1.2-2.9-3l-1-0.4c0-0.2-0.5-0.7-1.6-1.5c0,0.8-0.2,1.1-0.6,1.1c-0.2,0-0.3-0.2-0.3-0.6c0-0.4,0-0.7,0-0.9
		c-0.2,0-0.5,0.1-0.8,0.2c-0.3,0.1-0.5,0.1-0.6,0c-0.1-0.1-0.2-0.4-0.2-0.9c0-0.5,0-0.9,0-1.1c-0.2-0.2-0.8-1.1-1.6-2.6
		c-0.2,0-0.4,0-0.5,0s-0.3,0-0.5,0c0.4-0.5,0.4-1.2,0-2.2c-0.4-1-0.6-1.9-0.6-2.6l-1-0.4c0-0.2-0.1-0.7-0.2-1.3
		c-0.1-0.6-0.1-0.9,0.2-0.9c0-0.2-0.4-1.8-1.3-4.8l1-0.4l0.3-0.7c0.2-1,0.5-1.5,1-1.5c0-1.7,0-2.8,0-3.3c0.2,0,0.5,0,1,0
		c0.4,0,0.7,0,0.9,0c0.2-0.2,0.5-0.6,0.8-1.1c0.3-0.5,0.6-1,0.8-1.5c0.2,0,0.8,0.1,1.6,0.2c0.8,0.1,1.4,0.1,1.6-0.2
		c0-0.2,0-0.6,0-1.1C253.2,58.8,254.1,58.7,255.5,58.6z M257.9,58.8c0,1,0.3,1.5,1,1.5c1.1-0.2,1.7-0.4,1.9-0.4c0,1.7,0.6,2.7,1.9,3
		c0.2,0,0.3-0.1,0.3-0.2c0-0.1,0.1-0.2,0.3-0.2c0.4,0.5,0.7,0.7,1,0.7c-0.2,0.5-0.2,1.1,0,1.9c0.2,0.7,0.3,1.2,0.3,1.5
		c0.2,0.3,0.4,0.4,0.6,0.4c0.2,0,0.3,0.1,0.3,0.4c0.2,0,0.5,0.5,0.8,1.5c0.3,1,0.7,1.6,1.1,1.8c0,0.3,0,0.5,0,0.8c0.2,0,0.4,0,0.6,0
		c0.4,0,0.7,0,0.9,0c0.2,1,0,1.7-0.6,2.2c-0.2,0.7,0.1,1.7,1,3c0,0.7,0,2.2,0,4.5c0,2.2,0.1,3.6,0.3,4.1h-1c-0.2,0-0.3,0.2-0.3,0.7
		c0,0.5-0.1,0.7-0.3,0.7c-0.2,0-0.4-0.1-0.6-0.2c-0.2-0.1-0.4-0.2-0.6-0.2c-0.6,0-0.7,0.6-0.3,1.9c0.4,1.2,0.5,2.1,0.3,2.6
		c-0.2,0-0.7,0.1-1.6,0.2c-0.9,0.1-1.4,0.2-1.6,0.2c-0.2,0-0.5-0.2-1-0.7c-0.6-0.7-1.2-0.7-1.6,0c0,0.2,0.1,0.5,0.3,0.7
		c0.2,0.3,0.3,0.5,0.3,0.7c-0.6-0.2-1-0.5-1-0.7c-1.5,0-2.3-0.4-2.5-1.1c-0.2,0-0.4,0.1-0.5,0.2c-0.1,0.1-0.3,0.2-0.5,0.2
		c-0.2-0.2-1.2-1.2-2.9-3l-1-0.4c0-0.2-0.5-0.7-1.6-1.5c0,0.8-0.2,1.1-0.6,1.1c-0.2,0-0.3-0.2-0.3-0.6c0-0.4,0-0.7,0-0.9
		c-0.2,0-0.5,0.1-0.8,0.2c-0.3,0.1-0.5,0.1-0.6,0c-0.1-0.1-0.2-0.4-0.2-0.9c0-0.5,0-0.9,0-1.1c-0.2-0.2-0.8-1.1-1.6-2.6
		c-0.2,0-0.4,0-0.5,0s-0.3,0-0.5,0c0.4-0.5,0.4-1.2,0-2.2c-0.4-1-0.6-1.9-0.6-2.6l-1-0.4c0-0.2-0.1-0.7-0.2-1.3
		c-0.1-0.6-0.1-0.9,0.2-0.9c0-0.2-0.4-1.8-1.3-4.8l1-0.4l0.3-0.7c0.2-1,0.5-1.5,1-1.5c0-1.7,0-2.8,0-3.3c0.2,0,0.5,0,1,0
		c0.4,0,0.7,0,0.9,0c0.2-0.2,0.5-0.6,0.8-1.1c0.3-0.5,0.6-1,0.8-1.5c0.2,0,0.8,0.1,1.6,0.2c0.8,0.1,1.4,0.1,1.6-0.2
		c0-0.2,0-0.6,0-1.1c0.4,0,1.3-0.1,2.7-0.2C256.9,58.5,257.7,58.5,257.9,58.8z M256,109c0.4-0.2,1.3-0.2,2.5,0
		c0.2,0,0.3,0.1,0.2,0.4c-0.1,0.3-0.1,0.5,0.2,0.7c1.1,0.3,1.6,0.5,1.6,0.8c0.4-0.5,0.9-0.8,1.4-0.8s0.9,0.3,1.1,0.8
		c0,0.2-0.1,0.5-0.3,0.7c1.1,2,1.7,3,1.9,3c-0.2,0.8,0.1,1.3,1,1.5c0.2,0,0.4,0,0.6,0c0.2,1.5,0.6,2.5,1.3,3v1.1
		c0,0.3,0.2,0.4,0.5,0.6c0.3,0.1,0.5,0.3,0.5,0.6c0.2,0.2,0.2,0.9,0,1.9c0,1,0.3,1.6,1,1.9c0.4,0.2,0.5,1.1,0.3,2.6
		c-0.2,1.5-0.2,2.6,0,3.3c0.4,0.5,0.7,0.9,0.9,1.1c-0.2,0.5-0.2,1,0,1.5l1,0.4c0.2,0.8,0.3,1.6,0.2,2.6c-0.1,1-0.2,1.6-0.2,1.9
		c0,0.3,0.2,0.6,0.5,1.1c0.3,0.5,0.4,1,0.2,1.5c0.2,0.7,0.7,1,1.6,0.7v3.4l-0.6,0.7c0,0.7,0.3,1.5,1,2.2c0.4-0.2,0.7-0.4,0.9-0.4
		c0,0.5-0.1,0.9-0.3,1.1c-0.2,0-0.3,0.1-0.3,0.4c-0.2,2,0.1,3.1,1,3.3c0,0.5,0,1.4,0,2.6s0.1,2,0.3,2.2c0,0.2,0.2,0.4,0.6,0.4
		c0.4,1.2,0.3,2.5-0.3,3.7c0.2,0.7,0.7,1.2,1.6,1.5c0,0.7,0,1.2,0,1.5c-0.2,0-0.4,0-0.5,0s-0.3,0-0.5,0c0,0.5,0.3,0.9,1,1.1
		c0.2,1,0,1.9-0.6,2.6c0,0.5,0.2,1.3,0.5,2.2c0.3,1,0.4,1.7,0.2,2.2c-1.1,0.3-1.5,1.5-1.3,3.7c0.2,0.5,0.3,0.9,0.3,1.1
		c-0.4,0-0.8,0.1-1.1,0.4c-0.3,0.3-0.6,0.3-0.8,0c-0.6,1.7-1,2.7-1,3c-0.2,0-0.4-0.1-0.5-0.2s-0.3-0.2-0.5-0.2
		c-0.2,0.3-0.3,0.8-0.2,1.7c0.1,0.9,0.1,1.4-0.2,1.7c-1.5,0-2.3-0.3-2.6-0.8c0-0.2,0.1-0.5,0.2-0.7c0.1-0.2,0.2-0.5,0.2-0.7
		c-0.2-0.2-0.4-0.5-0.6-0.7c0,0.2-0.1,0.6-0.3,1.1s-0.4,0.7-0.6,0.7c-0.2-0.2-0.6-0.2-1.3,0c-0.2,0-0.4,0-0.5,0c-0.1,0-0.3,0-0.6,0
		c-0.3,0-0.5,0-0.6,0s-0.4,0.3-0.9,0.9c-0.5,0.6-1,0.7-1.4,0.2c-0.2,0-0.3-0.1-0.3-0.4s0-0.5,0-0.7c-0.2,0-0.5,0.1-1,0.4
		c-0.4,0.3-0.8,0.3-1,0c0.2-0.7,0.3-1.2,0.3-1.5c-0.2,0-0.4,0.1-0.5,0.4c-0.1,0.2-0.3,0.2-0.5,0c-0.2,0-0.3-0.2-0.2-0.6
		c0.1-0.4,0.1-0.6,0-0.6c-0.1,0-0.5,0-1.1,0c0-0.7-0.3-1.4-1-1.9c0.2-1.7-0.5-3-2.2-3.7c0-0.2,0.1-0.6,0.2-1.1s0.2-0.9,0.2-1.1
		c0-0.2-0.2-0.5-0.5-0.7c-0.3-0.2-0.5-0.5-0.5-0.7c-0.2-0.8-0.4-1.5-0.6-2.2c0-0.2,0.1-0.6,0.3-0.9c0.2-0.4,0.3-0.7,0.3-0.9
		c0-0.7-0.3-2-1-3.7c-0.2,0-0.5,0-0.8,0c-0.3,0-0.6-0.1-0.8-0.4c0-0.7,0-1.7,0-3s0-2.3,0-3.3c0.4-0.2,0.6-0.9,0.5-2
		c-0.1-1.1-0.5-1.8-1.1-2c0-0.5,0-1.1,0-1.9c0-0.7,0-1.2,0-1.5c-0.6-0.5-1-0.9-1-1.1c-0.2-0.5-0.3-1.1-0.2-1.7
		c0.1-0.6,0.2-1.2,0.2-1.7c-0.2-0.2-0.5-0.4-1-0.4c0-0.2,0-0.7,0-1.5s-0.1-1.1-0.3-1.1c-0.2,0-0.4,0-0.6,0c-0.2,0-0.3-0.1-0.3-0.4
		c0-0.2,0-0.7,0-1.5s-0.1-1.2-0.3-1.5c-0.4,0-0.8,0-1,0c0.2-0.2,0.3-0.7,0.2-1.3c-0.1-0.6-0.2-1.2-0.2-1.7c0.4-0.5,0.6-0.9,0.6-1.1
		c0-0.3-0.2-0.5-0.5-0.8c-0.3-0.2-0.5-0.5-0.5-0.7c0-0.7,0-1.2,0-1.5s-0.2-0.7-0.5-1.5c-0.3-0.8-0.6-1.4-0.8-1.9
		c0-0.2,0.1-0.9,0.2-1.9s0.1-1.7-0.2-2.2c0-0.2-0.1-0.4-0.3-0.5c-0.2-0.1-0.3-0.3-0.3-0.6s0.1-0.4,0.2-0.6c0.1-0.1,0.2-0.3,0.2-0.6
		c-0.4-0.2-0.6-0.7-0.6-1.5c0-0.8,0.3-1.1,1-1.1c0-0.2,0.2-0.7,0.6-1.5c0.4-0.8,0.6-1.6,0.6-2.6l0.6-0.8c1.1-0.7,1.5-1.6,1.3-2.6
		c0.4,0,0.9,0.3,1.6,0.8c0.4-0.3,0.6-0.9,0.6-1.9c0.4-0.2,0.9-0.1,1.6,0.4c0.2-0.7,0.4-1.1,0.6-1.1h1.3c0.2,0,0.4-0.2,0.5-0.5
		C255.6,109.2,255.8,109,256,109z M258.5,109c0.2,0,0.3,0.1,0.2,0.4c-0.1,0.3-0.1,0.5,0.2,0.7c1.1,0.3,1.6,0.5,1.6,0.8
		c0.4-0.5,0.9-0.8,1.4-0.8s0.9,0.3,1.1,0.8c0,0.2-0.1,0.5-0.3,0.7c1.1,2,1.7,3,1.9,3c-0.2,0.8,0.1,1.3,1,1.5c0.2,0,0.4,0,0.6,0
		c0.2,1.5,0.6,2.5,1.3,3v1.1c0,0.3,0.2,0.4,0.5,0.6c0.3,0.1,0.5,0.3,0.5,0.6c0.2,0.2,0.2,0.9,0,1.9c0,1,0.3,1.6,1,1.9
		c0.4,0.2,0.5,1.1,0.3,2.6c-0.2,1.5-0.2,2.6,0,3.3c0.4,0.5,0.7,0.9,0.9,1.1c-0.2,0.5-0.2,1,0,1.5l1,0.4c0.2,0.8,0.3,1.6,0.2,2.6
		c-0.1,1-0.2,1.6-0.2,1.9c0,0.3,0.2,0.6,0.5,1.1c0.3,0.5,0.4,1,0.2,1.5c0.2,0.7,0.7,1,1.6,0.7v3.4l-0.6,0.7c0,0.7,0.3,1.5,1,2.2
		c0.4-0.2,0.7-0.4,0.9-0.4c0,0.5-0.1,0.9-0.3,1.1c-0.2,0-0.3,0.1-0.3,0.4c-0.2,2,0.1,3.1,1,3.3c0,0.5,0,1.4,0,2.6s0.1,2,0.3,2.2
		c0,0.2,0.2,0.4,0.6,0.4c0.4,1.2,0.3,2.5-0.3,3.7c0.2,0.7,0.7,1.2,1.6,1.5c0,0.7,0,1.2,0,1.5c-0.2,0-0.4,0-0.5,0s-0.3,0-0.5,0
		c0,0.5,0.3,0.9,1,1.1c0.2,1,0,1.9-0.6,2.6c0,0.5,0.2,1.3,0.5,2.2c0.3,1,0.4,1.7,0.2,2.2c-1.1,0.3-1.5,1.5-1.3,3.7
		c0.2,0.5,0.3,0.9,0.3,1.1c-0.4,0-0.8,0.1-1.1,0.4c-0.3,0.3-0.6,0.3-0.8,0c-0.6,1.7-1,2.7-1,3c-0.2,0-0.4-0.1-0.5-0.2
		s-0.3-0.2-0.5-0.2c-0.2,0.3-0.3,0.8-0.2,1.7c0.1,0.9,0.1,1.4-0.2,1.7c-1.5,0-2.3-0.3-2.6-0.8c0-0.2,0.1-0.5,0.2-0.7
		c0.1-0.2,0.2-0.5,0.2-0.7c-0.2-0.2-0.4-0.5-0.6-0.7c0,0.2-0.1,0.6-0.3,1.1s-0.4,0.7-0.6,0.7c-0.2-0.2-0.6-0.2-1.3,0
		c-0.2,0-0.4,0-0.5,0c-0.1,0-0.3,0-0.6,0c-0.3,0-0.5,0-0.6,0s-0.4,0.3-0.9,0.9c-0.5,0.6-1,0.7-1.4,0.2c-0.2,0-0.3-0.1-0.3-0.4
		s0-0.5,0-0.7c-0.2,0-0.5,0.1-1,0.4c-0.4,0.3-0.8,0.3-1,0c0.2-0.7,0.3-1.2,0.3-1.5c-0.2,0-0.4,0.1-0.5,0.4c-0.1,0.2-0.3,0.2-0.5,0
		c-0.2,0-0.3-0.2-0.2-0.6c0.1-0.4,0.1-0.6,0-0.6c-0.1,0-0.3,0-0.6,0c-0.3,0-0.6,0-0.8,0c0.2-0.7,0-1.4-0.6-1.9
		c0.2-1.7-0.5-3-2.2-3.7c0-0.2,0.1-0.6,0.2-1.1s0.2-0.9,0.2-1.1c0-0.2-0.2-0.5-0.5-0.7c-0.3-0.2-0.5-0.5-0.5-0.7
		c-0.2-0.8-0.4-1.5-0.6-2.2c0-0.2,0.1-0.6,0.3-0.9c0.2-0.4,0.3-0.7,0.3-0.9c0-0.7-0.3-2-1-3.7c-0.2,0-0.5,0-0.8,0
		c-0.3,0-0.6-0.1-0.8-0.4c0-0.7,0-1.7,0-3s0-2.3,0-3.3c0.4-0.2,0.6-0.9,0.5-2c-0.1-1.1-0.5-1.8-1.1-2c0-0.5,0-1.1,0-1.9
		c0-0.7,0-1.2,0-1.5c-0.6-0.5-1-0.9-1-1.1c-0.2-0.5-0.3-1.1-0.2-1.7c0.1-0.6,0.2-1.2,0.2-1.7c-0.2-0.2-0.5-0.4-1-0.4
		c0-0.2,0-0.7,0-1.5s-0.1-1.1-0.3-1.1c-0.2,0-0.4,0-0.6,0c-0.2,0-0.3-0.1-0.3-0.4c0-0.2,0-0.7,0-1.5s-0.1-1.2-0.3-1.5
		c-0.4,0-0.8,0-1,0c0.2-0.2,0.3-0.7,0.2-1.3c-0.1-0.6-0.2-1.2-0.2-1.7c0.4-0.5,0.6-0.9,0.6-1.1c0-0.3-0.2-0.5-0.5-0.8
		c-0.3-0.2-0.5-0.5-0.5-0.7c0-0.7,0-1.2,0-1.5s-0.2-0.7-0.5-1.5c-0.3-0.8-0.6-1.4-0.8-1.9c0-0.2,0.1-0.9,0.2-1.9s0.1-1.7-0.2-2.2
		c0-0.2-0.1-0.4-0.3-0.5c-0.2-0.1-0.3-0.3-0.3-0.6s0.1-0.4,0.2-0.6c0.1-0.1,0.2-0.3,0.2-0.6c-0.4-0.2-0.6-0.7-0.6-1.5
		c0-0.8,0.3-1.1,1-1.1c0-0.2,0.2-0.7,0.6-1.5c0.4-0.8,0.6-1.6,0.6-2.6l0.6-0.8c1.1-0.7,1.5-1.6,1.3-2.6c0.4,0,0.9,0.3,1.6,0.8
		c0.4-0.3,0.6-0.9,0.6-1.9c0.4-0.2,0.9-0.1,1.6,0.4c0.2-0.7,0.4-1.1,0.6-1.1h1.3c0.2,0,0.4-0.2,0.5-0.5c0.1-0.4,0.3-0.6,0.5-0.6
		C256.4,108.7,257.3,108.7,258.5,109z M253.1,159.9c-0.2,0.7-0.1,1.1,0.3,1.1s0.5-0.4,0.3-1.1H253.1z M253.4,161
		c0.4,0,0.5-0.4,0.3-1.1h-0.6C252.9,160.7,253,161,253.4,161z"/>
	<path fill="#643282" d="M337,106.7c0.2,0,0.7,0.1,1.4,0.4c0.7,0.2,1.3,0.4,1.8,0.4c0.2,0,0.3,0.1,0.2,0.4c-0.1,0.3-0.2,0.5-0.2,0.7
		c1.7,2,3.2,2.9,4.5,2.6c0,0.7,0.3,1.5,1,2.2c0.4,0.5,0.7,0.9,0.9,1.1c0.4-0.2,0.8-0.2,1,0c0,0.3,0,0.4,0,0.6c0,0.1,0,0.3,0,0.6
		c0.6,1,1.7,2.2,3.2,3.7c1.5,1.5,2.4,2.7,2.9,3.7c0.2,0,0.3,0.2,0.3,0.7l3.8,4.8c0,0.7,0.1,1.1,0.3,1.1s0.4-0.1,0.6-0.2
		c0.2-0.1,0.4-0.1,0.6,0.2c0,0.7,0.3,1.6,0.8,2.6c0.5,1,0.9,1.7,1.1,2.2l1.3,0.7c0.2,0,0.3,0.2,0.2,0.6c-0.1,0.4-0.2,0.7-0.2,0.9
		c0.2,0.2,0.6,0.6,1.1,1.1c0.5,0.5,0.9,0.7,1.1,0.7c0,0.2,0.1,0.5,0.3,0.7c0.2,0.3,0.3,0.5,0.3,0.7c0.2,0.3,0.5,0.6,0.8,1.1
		c0.3,0.5,0.6,0.9,0.8,1.1c0.2,0,0.4,0.1,0.5,0.4c0.1,0.3,0.2,0.5,0.2,0.7c1.1,1.5,1.8,2.7,2.2,3.7c0.2,0.3,0.5,0.6,0.9,1.1
		c0.4,0.5,0.7,0.9,1,1.1c0.4,1,1.3,2.1,2.7,3.3c1.4,1.2,2.3,2.2,2.7,3l3.2,2.2h1.3c0.8,1.2,1.9,1.7,3.2,1.5c0.2-0.2,0.5-0.5,0.8-0.7
		c0.3-0.2,0.6-0.4,0.8-0.4c0.4-0.5,1-0.7,1.6-0.7c1.3,0,2,0,2.2,0c1.1,1,2.2,0.9,3.5-0.4c0,0.2-0.1,0.5-0.3,0.7
		c-0.2,0.2-0.3,0.5-0.3,0.7c0.2,0.2,0.4,0.5,0.6,0.7c0.8-0.2,1.6,0.2,2.2,1.3c0.6,1.1,1.3,1.6,1.9,1.3c0.2,0,0.3,0.3,0.3,0.7
		c1.3,1.2,1.7,2.6,1.3,4.1c0.2,0.5,0.4,0.7,0.6,0.7c-0.4,0.5-0.7,1.6-0.9,3.3c-0.2,1.7-0.3,2.7-0.3,3c-0.6,0.2-1.3,0.8-1.9,1.7
		c-0.6,0.9-1.2,1.4-1.6,1.7c0,1.2,0,2,0,2.2c-0.4,0-0.9-0.1-1.3-0.4c-0.2,0.2-0.6,0.5-1.3,0.7c-0.6,0.2-1,0.5-1,0.7
		c-0.2,0.2-0.3,0.6-0.3,1.1s-0.1,0.9-0.3,1.1c-0.4,0-0.8-0.1-1.1-0.4c-0.3-0.2-0.6-0.4-0.8-0.4c-0.6,0.3-1,0.4-1.1,0.4
		c-0.1,0-0.3,0-0.5,0c-0.2,0-0.4,0-0.6,0c-0.2,0-0.4,0.2-0.6,0.6c-0.2,0.4-0.4,0.6-0.6,0.6c-0.8-0.3-1.9-0.2-3,0.2
		c-1.2,0.4-2.1,0.4-2.7,0.2c-0.2,0-0.3-0.2-0.3-0.6c0-0.4-0.1-0.6-0.3-0.6c-0.2,0-0.8,0-1.6,0c-0.9,0-1.5,0-1.9,0
		c0-0.7-0.3-1.2-0.9-1.5c-0.6-0.2-1.2-0.2-1.6,0c-0.2-0.2-0.4-0.4-0.6-0.4c0-0.3-0.1-0.8-0.3-1.5c-0.2,0-0.6,0.1-1.1,0.2
		c-0.5,0.1-0.9,0.1-1.1-0.2c0-0.5-0.4-1-1.3-1.5c0-0.2-0.1-0.5-0.3-0.7c-0.2-0.2-0.4-0.4-0.6-0.4c-0.6,0.3-1.1,0.4-1.3,0.4
		c0-0.2,0-0.6,0-1.1l-3.8-4.1h-0.6c-0.4-0.2-0.9-0.7-1.3-1.5c-0.4-0.7-0.7-1.2-0.9-1.5c-0.4-0.2-0.8-0.4-1-0.4
		c-0.2-0.2-0.5-0.7-0.8-1.3c-0.3-0.6-0.6-0.9-0.8-0.9c-1.3-1-1.9-1.9-1.9-2.6c-0.6,0-1.2-0.4-1.8-1.1c-0.5-0.7-0.9-1.1-1.1-1.1
		c-0.2-1.7-1.3-3.6-3.2-5.6c-0.2-0.7-1.2-2.2-2.9-4.5c-0.2-0.5-0.8-1.2-1.9-2.2c-0.2-1-0.9-2.1-1.9-3.4c-0.6-0.7-1.1-1.2-1.3-1.5
		c0-1-0.5-2-1.6-3.2c-1.1-1.1-1.8-1.2-2.2-0.2c0,0.2-0.1,0.4-0.2,0.6s-0.2,0.2-0.3,0.4c-0.1,0.1-0.2,0.3-0.2,0.6
		c-0.2,0.3-0.3,0.6-0.3,0.9c0,0.4-0.1,0.7-0.3,0.9l-0.3,0.4c-0.6,1.2-1.1,1.9-1.3,1.9c0,0.2,0.1,0.5,0.2,0.7
		c0.1,0.2,0.2,0.5,0.2,0.7c-0.9,1.2-1.3,2.5-1.3,3.7c-0.4,0.5-0.9,1.5-1.6,3c-0.6,1.5-1.1,2.4-1.3,2.6c0,0.3,0,0.6,0,1.1
		s0,0.9,0,1.1c0,0.2-0.2,0.6-0.5,1.1c-0.3,0.5-0.5,0.9-0.5,1.1c0,0.3-0.1,0.6-0.2,1.1c-0.1,0.5-0.3,0.9-0.5,1.1
		c0,0.2-0.1,0.4-0.3,0.5c-0.2,0.1-0.3,0.3-0.3,0.6c0,3-0.2,4.6-0.6,4.8c0,0.2,0.2,0.6,0.6,1.1c-1.1,2.5-1.7,4.6-1.9,6.3
		c-0.4,0.5-1.1,1.1-1.9,1.9c-0.8,0.7-1.5,1.4-1.9,1.9c-1.5-0.2-2.5,0.5-2.9,2.2c-0.2,0-0.4-0.1-0.5-0.4c-0.1-0.2-0.2-0.4-0.3-0.4
		s-0.2,0.1-0.3,0.4c-0.1,0.2-0.3,0.4-0.5,0.4c-0.4,0-1-0.6-1.6-1.7c-0.6-1.1-1.2-1.7-1.6-1.7c-0.4,0-0.9,0.3-1.4,0.8
		c-0.5,0.5-1,0.7-1.4,0.7l-1.6-2.2c-0.2-1-0.8-1.7-1.6-2.2c-0.2,0-0.4,0.1-0.5,0.2c-0.1,0.1-0.3,0.2-0.5,0.2c-0.2-0.5-0.6-1.2-1.3-2
		c-0.6-0.9-1-1.8-1-2.8c0-0.2-0.4-0.6-1.3-1.1v-1.1c0-0.2-0.2-0.6-0.6-1.1l-0.3-0.4c0-0.5-0.2-1-0.5-1.7c-0.3-0.6-0.5-1-0.5-1.1
		c0-0.1,0-0.4,0-0.9c0-0.5-0.1-0.9-0.2-1.1c-0.1-0.3-0.3-0.4-0.5-0.6c-0.2-0.1-0.4-0.3-0.6-0.6c0.4-1.2,0.1-2.5-0.9-3.7v-3
		c-0.4-0.5-0.6-1.3-0.6-2.6c-0.2,0-0.3,0-0.3-0.2c0-0.1,0-0.3,0-0.6c0-0.2,0-0.6,0-0.9c0-0.4,0-0.7,0-0.9c0-0.2-0.1-0.5-0.3-0.7
		c-0.2-0.2-0.3-0.5-0.3-0.7c0-0.2,0-0.6,0-0.9c0-0.4-0.1-0.6-0.3-0.6c0-0.2-0.1-0.4-0.2-0.6c-0.1-0.1-0.2-0.3-0.2-0.6
		c-0.2-1.2-0.5-2-0.9-2.2l0.3-1.1c0-0.2-0.2-0.6-0.5-0.9c-0.3-0.4-0.5-0.7-0.5-0.9c0-0.2,0-0.7,0-1.5c0-0.5-0.3-1-1-1.5v-0.7
		c-0.2-0.2-0.6-1.1-1.3-2.6c0-0.2-0.1-0.5-0.3-0.7c-0.2-0.2-0.4-0.5-0.5-0.7c-0.1-0.2-0.1-0.6,0-0.9c0.1-0.4,0.2-0.7,0.2-0.9
		c-0.2-0.2-0.6-0.7-1.1-1.3c-0.5-0.6-0.9-1-1.1-1.3c0-0.2,0-0.5,0-0.7c0-0.2-0.2-0.5-0.5-0.7c-0.3-0.2-0.5-0.5-0.5-0.7
		c0-0.3,0.2-0.8,0.6-1.5c0-0.5,0-0.9,0-1.1c0-0.3,0.2-0.7,0.6-1.3c0.4-0.6,0.7-1,0.8-1.1c0.1-0.1,0.2-0.4,0.2-0.9c0-0.5,0-0.9,0-1.1
		c0.2-0.5,0.7-1,1.4-1.5c0.8-0.5,1.2-1,1.4-1.5c1.9-0.2,3-0.5,3.2-0.7c0-0.5,0-0.9,0-1.1c0.2-0.2,0.7-0.4,1.6-0.6
		c0.8-0.1,1.4-0.3,1.6-0.6c0.2,0,0.4,0.1,0.5,0.4s0.2,0.4,0.3,0.4c0.1,0,0.4-0.1,0.8-0.2c0.4-0.1,0.6-0.1,0.6,0.2
		c0.2,0,0.3,0.1,0.3,0.4c0,0.3,0.1,0.5,0.3,0.7c0.6-0.2,1.1-0.2,1.3,0c1.5,0.3,2.4,1.1,2.9,2.6c0.6,0.5,1.4,1.4,2.2,2.6
		c0.6-0.2,1-0.2,1,0c0,0.7,0.5,1.6,1.6,2.6c0.4,0.3,0.7,0.6,0.9,1.1c0,0.3,0.2,0.9,0.6,1.9c0,1,0.2,1.6,0.6,1.7
		c0.4,0.1,0.7-0.2,0.9-0.9c0.2,0,0.3-0.2,0.3-0.7c0.6-1,1-1.6,1-1.9c0.8-1.2,1.3-2.1,1.3-2.6c1.7-2.2,2.7-4.1,2.9-5.6l0.6-0.4
		c0-0.5,0.4-1.2,1.3-2.2c0.2-1,0.9-2.1,2.2-3.3c0-0.2,0-0.6,0-1.1c0.2,0,0.4,0.1,0.6,0.2c0.2,0.1,0.4,0.2,0.6,0.2s0.5-0.2,1-0.7
		c0.2,0,0.3-0.1,0.3-0.4c1.3,0,2.2-1.1,2.9-3.3c0.2,0,0.4,0.1,0.5,0.2c0.1,0.1,0.3,0.2,0.5,0.2c0.2-0.5,0.8-0.6,1.8-0.2
		C335.9,106.6,336.6,106.7,337,106.7z M340.2,107.5c0.2,0,0.3,0.1,0.2,0.4c-0.1,0.3-0.2,0.5-0.2,0.7c1.7,2,3.2,2.9,4.5,2.6
		c0,0.7,0.3,1.5,1,2.2c0.4,0.5,0.7,0.9,0.9,1.1c0.4-0.2,0.8-0.2,1,0c0,0.3,0,0.4,0,0.6c0,0.1,0,0.3,0,0.6c0.6,1,1.7,2.2,3.2,3.7
		c1.5,1.5,2.4,2.7,2.9,3.7c0.2,0,0.3,0.2,0.3,0.7l3.8,4.8c0,0.7,0.1,1.1,0.3,1.1s0.4-0.1,0.6-0.2c0.2-0.1,0.4-0.1,0.6,0.2
		c0,0.7,0.3,1.6,0.8,2.6c0.5,1,0.9,1.7,1.1,2.2l1.3,0.7c0.2,0,0.3,0.2,0.2,0.6c-0.1,0.4-0.2,0.7-0.2,0.9c0.2,0.2,0.6,0.6,1.1,1.1
		c0.5,0.5,0.9,0.7,1.1,0.7c0,0.2,0.1,0.5,0.3,0.7c0.2,0.3,0.3,0.5,0.3,0.7c0.2,0.3,0.5,0.6,0.8,1.1c0.3,0.5,0.6,0.9,0.8,1.1
		c0.2,0,0.4,0.1,0.5,0.4c0.1,0.3,0.2,0.5,0.2,0.7c1.1,1.5,1.8,2.7,2.2,3.7c0.2,0.3,0.5,0.6,0.9,1.1c0.4,0.5,0.7,0.9,1,1.1
		c0.4,1,1.3,2.1,2.7,3.3c1.4,1.2,2.3,2.2,2.7,3l3.2,2.2h1.3c0.8,1.2,1.9,1.7,3.2,1.5c0.2-0.2,0.5-0.5,0.8-0.7
		c0.3-0.2,0.6-0.4,0.8-0.4c0.4-0.5,1-0.7,1.6-0.7c1.3,0,2,0,2.2,0c1.1,1,2.2,0.9,3.5-0.4c0,0.2-0.1,0.5-0.3,0.7
		c-0.2,0.2-0.3,0.5-0.3,0.7c0.2,0.2,0.4,0.5,0.6,0.7c0.8-0.2,1.6,0.2,2.2,1.3c0.6,1.1,1.3,1.6,1.9,1.3c0.2,0,0.3,0.3,0.3,0.7
		c1.3,1,1.7,2.4,1.3,4.1c0.2,0.5,0.4,0.7,0.6,0.7c-0.4,0.5-0.7,1.6-0.9,3.3c-0.2,1.7-0.3,2.7-0.3,3c-0.6,0.2-1.3,0.8-1.9,1.7
		c-0.6,0.9-1.2,1.4-1.6,1.7c0,1.2,0,2,0,2.2c-0.4,0-0.9-0.1-1.3-0.4c-0.2,0.2-0.6,0.5-1.3,0.7c-0.6,0.2-1,0.5-1,0.7
		c-0.2,0.2-0.3,0.6-0.3,1.1s-0.1,0.9-0.3,1.1c-0.4,0-0.8-0.1-1.1-0.4c-0.3-0.2-0.6-0.4-0.8-0.4c-0.6,0.3-1,0.4-1.1,0.4
		c-0.1,0-0.3,0-0.5,0c-0.2,0-0.4,0-0.6,0c-0.2,0-0.4,0.2-0.6,0.6c-0.2,0.4-0.4,0.6-0.6,0.6c-0.8-0.3-1.9-0.2-3,0.2
		c-1.2,0.4-2.1,0.4-2.7,0.2c-0.2,0-0.3-0.2-0.3-0.6c0-0.4-0.1-0.6-0.3-0.6c-0.2,0-0.8,0-1.6,0c-0.9,0-1.5,0-1.9,0
		c0-0.7-0.3-1.2-0.9-1.5c-0.6-0.2-1.2-0.2-1.6,0c-0.2-0.2-0.4-0.4-0.6-0.4c0-0.3-0.1-0.8-0.3-1.5c-0.2,0-0.6,0.1-1.1,0.2
		c-0.5,0.1-0.9,0.1-1.1-0.2c0-0.5-0.4-1-1.3-1.5c0-0.2-0.1-0.5-0.3-0.7c-0.2-0.2-0.4-0.4-0.6-0.4c-0.6,0.3-1.1,0.4-1.3,0.4
		c0-0.2,0-0.6,0-1.1l-3.8-4.1h-0.6c-0.4-0.2-0.9-0.7-1.3-1.5c-0.4-0.7-0.7-1.2-0.9-1.5c-0.4-0.2-0.8-0.4-1-0.4
		c-0.2-0.2-0.5-0.7-0.8-1.3c-0.3-0.6-0.6-0.9-0.8-0.9c-1.3-1-1.9-1.9-1.9-2.6c-0.6,0-1.2-0.4-1.8-1.1c-0.5-0.7-0.9-1.1-1.1-1.1
		c-0.2-1.7-1.3-3.6-3.2-5.6c-0.2-0.7-1.2-2.2-2.9-4.5c-0.2-0.5-0.8-1.2-1.9-2.2c-0.2-1-0.9-2.1-1.9-3.4c-0.6-0.7-1.1-1.2-1.3-1.5
		c0-1-0.5-2-1.6-3.2c-1.1-1.1-1.8-1.2-2.2-0.2c0,0.2-0.1,0.4-0.2,0.6s-0.2,0.2-0.3,0.4c-0.1,0.1-0.2,0.3-0.2,0.6
		c-0.2,0.3-0.3,0.6-0.3,0.9c0,0.4-0.1,0.7-0.3,0.9l-0.3,0.4c-0.6,1.2-1.1,1.9-1.3,1.9c0,0.2,0.1,0.5,0.2,0.7
		c0.1,0.2,0.2,0.5,0.2,0.7c-0.9,1.2-1.3,2.5-1.3,3.7c-0.4,0.5-0.9,1.5-1.6,3c-0.6,1.5-1.1,2.4-1.3,2.6c0,0.3,0,0.6,0,1.1
		s0,0.9,0,1.1c0,0.2-0.2,0.6-0.5,1.1c-0.3,0.5-0.5,0.9-0.5,1.1c0,0.3-0.1,0.6-0.2,1.1c-0.1,0.5-0.3,0.9-0.5,1.1
		c0,0.2-0.1,0.4-0.3,0.5c-0.2,0.1-0.3,0.3-0.3,0.6c0,3-0.2,4.6-0.6,4.8c0,0.2,0.2,0.6,0.6,1.1c-1.1,2.5-1.7,4.6-1.9,6.3
		c-0.4,0.5-1.1,1.1-1.9,1.9c-0.8,0.7-1.5,1.4-1.9,1.9c-1.5-0.2-2.5,0.5-2.9,2.2c-0.2,0-0.4-0.1-0.5-0.4c-0.1-0.2-0.2-0.4-0.3-0.4
		s-0.2,0.1-0.3,0.4c-0.1,0.2-0.3,0.4-0.5,0.4c-0.4,0-1-0.6-1.6-1.7c-0.6-1.1-1.2-1.7-1.6-1.7c-0.2,0-0.6,0.3-1.3,0.8
		c-0.6,0.5-1.2,0.6-1.6,0.4l-1.6-1.9c-0.2-1-0.8-1.7-1.6-2.2c-0.2,0-0.4,0.1-0.5,0.2c-0.1,0.1-0.3,0.2-0.5,0.2
		c-0.2-0.5-0.6-1.2-1.3-2c-0.6-0.9-1-1.8-1-2.8c0-0.2-0.4-0.6-1.3-1.1v-1.1c0-0.2-0.2-0.6-0.6-1.1l-0.3-0.4c0-0.5-0.2-1-0.5-1.7
		c-0.3-0.6-0.5-1-0.5-1.1c0-0.1,0-0.4,0-0.9c0-0.5-0.1-0.9-0.2-1.1c-0.1-0.3-0.3-0.4-0.5-0.6c-0.2-0.1-0.4-0.3-0.6-0.6
		c0.4-1.2,0.1-2.5-0.9-3.7v-3c-0.4-0.5-0.6-1.3-0.6-2.6c-0.2-0.2-0.3-0.5-0.3-0.7c0-0.2,0-0.6,0-0.9c0-0.4,0-0.7,0-0.9
		c0-0.2-0.1-0.5-0.3-0.7c-0.2-0.2-0.3-0.5-0.3-0.7c0-0.2,0-0.6,0-0.9c0-0.4-0.1-0.6-0.3-0.6c0-0.2-0.1-0.4-0.2-0.6
		c-0.1-0.1-0.2-0.3-0.2-0.6c-0.2-1.2-0.5-2-0.9-2.2l0.3-1.1c0-0.2-0.2-0.6-0.5-0.9c-0.3-0.4-0.5-0.7-0.5-0.9c0-0.2,0-0.7,0-1.5
		c0-0.5-0.3-1-1-1.5v-0.7c-0.2-0.2-0.6-1.1-1.3-2.6c0-0.2-0.1-0.5-0.3-0.7c-0.2-0.2-0.4-0.5-0.5-0.7c-0.1-0.2-0.1-0.6,0-0.9
		c0.1-0.4,0.2-0.7,0.2-0.9c-0.2-0.2-0.6-0.7-1.1-1.3c-0.5-0.6-0.9-1-1.1-1.3c0-0.2,0-0.5,0-0.7c0-0.2-0.2-0.5-0.5-0.7
		c-0.3-0.2-0.5-0.5-0.5-0.7c0-0.3,0.2-0.8,0.6-1.5c0-0.5,0-0.9,0-1.1c0-0.3,0.2-0.7,0.6-1.3c0.4-0.6,0.7-1,0.8-1.1
		c0.1-0.1,0.2-0.4,0.2-0.9c0-0.5,0-0.9,0-1.1c0.2-0.5,0.7-1,1.4-1.5c0.8-0.5,1.2-1,1.4-1.5c1.9-0.2,3-0.5,3.2-0.7c0-0.5,0-0.9,0-1.1
		c0.2-0.2,0.7-0.4,1.6-0.6c0.8-0.1,1.4-0.3,1.6-0.6c0.2,0,0.4,0.1,0.5,0.4s0.2,0.4,0.3,0.4c0.1,0,0.4-0.1,0.8-0.2
		c0.4-0.1,0.6-0.1,0.6,0.2c0.2,0,0.3,0.1,0.3,0.4c0,0.3,0.1,0.5,0.3,0.7c0.6-0.2,1.1-0.2,1.3,0c1.5,0.3,2.4,1.1,2.9,2.6
		c0.6,0.5,1.4,1.4,2.2,2.6c0.6-0.2,1-0.2,1,0c0,0.7,0.5,1.6,1.6,2.6c0.4,0.3,0.7,0.6,0.9,1.1l0.6,1.9c0,1,0.2,1.6,0.6,1.7
		c0.4,0.1,0.7-0.2,0.9-0.9c0.2,0,0.3-0.2,0.3-0.7c0.6-1,1-1.6,1-1.9c0.8-1.2,1.3-2.1,1.3-2.6c1.7-2.2,2.7-4.1,2.9-5.6l0.6-0.4
		c0-0.5,0.4-1.2,1.3-2.2c0.2-1,0.9-2.1,2.2-3.3c0-0.2,0-0.6,0-1.1c0.2,0,0.4,0.1,0.6,0.2c0.2,0.1,0.4,0.2,0.6,0.2s0.5-0.2,1-0.7
		c0.2,0,0.3-0.1,0.3-0.4c1.3,0,2.2-1.1,2.9-3.3c0.2,0,0.4,0.1,0.5,0.2c0.1,0.1,0.3,0.2,0.5,0.2c0.2-0.5,0.8-0.6,1.8-0.2
		c1,0.4,1.6,0.6,2.1,0.6c0.2,0,0.7,0.1,1.4,0.4C339.2,107.4,339.8,107.5,340.2,107.5z"/>
</g>
</svg>
