<?xml version="1.0" encoding="utf-8"?>
<!-- Generator: Adobe Illustrator 19.0.1, SVG Export Plug-In . SVG Version: 6.00 Build 0)  -->
<svg version="1.1" id="Layer_1" xmlns="http://www.w3.org/2000/svg" xmlns:xlink="http://www.w3.org/1999/xlink" x="0px" y="0px"
	 viewBox="0 0 400 100" enable-background="new 0 0 400 100" xml:space="preserve">
<g>
	<path fill="#E0BFE3" d="M23.5,32c0.1,0,0.1,0.1,0.1,0.1c0,0.1-0.1,0.2-0.1,0.3c0.8,0.8,1.5,1.1,2,1c0,0.3,0.1,0.6,0.4,0.9
		c0.2,0.2,0.3,0.3,0.4,0.4c0.2-0.1,0.3-0.1,0.4,0c0,0.1,0,0.2,0,0.2c0,0.1,0,0.1,0,0.2c0.3,0.4,0.8,0.9,1.5,1.5
		c0.7,0.6,1.1,1.1,1.3,1.5c0.1,0,0.1,0.1,0.1,0.3l1.8,1.9c0,0.3,0,0.4,0.1,0.4c0.1,0,0.2,0,0.3-0.1c0.1,0,0.2,0,0.3,0.1
		c0,0.3,0.1,0.6,0.4,1c0.2,0.4,0.4,0.7,0.5,0.9l0.6,0.3c0.1,0,0.1,0.1,0.1,0.2c-0.1,0.1-0.1,0.3-0.1,0.4c0.1,0.1,0.3,0.2,0.5,0.4
		c0.2,0.2,0.4,0.3,0.5,0.3c0,0.1,0,0.2,0.1,0.3c0.1,0.1,0.1,0.2,0.1,0.3c0.1,0.1,0.2,0.2,0.4,0.4c0.1,0.2,0.3,0.3,0.4,0.4
		c0.1,0,0.2,0,0.2,0.1c0,0.1,0.1,0.2,0.1,0.3c0.5,0.6,0.8,1.1,1,1.5c0.1,0.1,0.2,0.2,0.4,0.4c0.2,0.2,0.3,0.3,0.4,0.4
		c0.2,0.4,0.6,0.8,1.2,1.3c0.6,0.5,1,0.9,1.2,1.2l1.5,0.9h0.6c0.4,0.5,0.9,0.7,1.5,0.6c0.1-0.1,0.2-0.2,0.4-0.3
		c0.1-0.1,0.3-0.1,0.4-0.1c0.2-0.2,0.4-0.3,0.7-0.3c0.6,0,0.9,0,1,0c0.5,0.4,1,0.3,1.6-0.1c0,0.1-0.1,0.2-0.1,0.3s-0.1,0.2-0.1,0.3
		c0.1,0.1,0.2,0.2,0.3,0.3c0.4-0.1,0.7,0.1,1,0.5s0.6,0.6,0.9,0.5c0.1,0,0.1,0.1,0.1,0.3c0.6,0.4,0.8,0.9,0.6,1.6
		c0.1,0.2,0.2,0.3,0.3,0.3c-0.2,0.2-0.3,0.6-0.4,1.3c-0.1,0.7-0.1,1.1-0.1,1.2c-0.3,0.1-0.6,0.3-0.9,0.7c-0.3,0.3-0.5,0.6-0.7,0.7
		c0,0.5,0,0.8,0,0.9c-0.2,0-0.4,0-0.6-0.1c-0.1,0.1-0.3,0.2-0.6,0.3c-0.3,0.1-0.4,0.2-0.4,0.3c-0.1,0.1-0.1,0.2-0.1,0.4
		s-0.1,0.3-0.1,0.4c-0.2,0-0.4,0-0.5-0.1c-0.1-0.1-0.3-0.1-0.4-0.1c-0.3,0.1-0.5,0.1-0.5,0.1c-0.1,0-0.1,0-0.2,0c-0.1,0-0.2,0-0.3,0
		c-0.1,0-0.2,0.1-0.3,0.2c-0.1,0.1-0.2,0.2-0.3,0.2C44,61.9,43.6,61.9,43,62c-0.5,0.1-1,0.2-1.2,0.1c-0.1,0-0.1-0.1-0.1-0.2
		c0-0.1,0-0.2-0.1-0.2c-0.1,0-0.3,0-0.7,0c-0.4,0-0.7,0-0.9,0c0-0.3-0.1-0.5-0.4-0.6c-0.3-0.1-0.5-0.1-0.7,0
		c-0.1-0.1-0.2-0.1-0.3-0.1c0-0.1-0.1-0.3-0.1-0.6c-0.1,0-0.3,0-0.5,0.1c-0.2,0.1-0.4,0-0.5-0.1c0-0.2-0.2-0.4-0.6-0.6
		c0-0.1-0.1-0.2-0.1-0.3c-0.1-0.1-0.2-0.1-0.3-0.1c-0.3,0.1-0.5,0.1-0.6,0.1c0-0.1,0-0.2,0-0.4l-1.8-1.6h-0.3
		c-0.2-0.1-0.4-0.3-0.6-0.6c-0.2-0.3-0.3-0.5-0.4-0.6c-0.2-0.1-0.3-0.1-0.4-0.1c-0.1-0.1-0.2-0.3-0.4-0.5c-0.1-0.2-0.3-0.4-0.4-0.4
		c-0.6-0.4-0.9-0.7-0.9-1c-0.3,0-0.6-0.1-0.8-0.4c-0.2-0.3-0.4-0.4-0.5-0.4c-0.1-0.7-0.6-1.4-1.5-2.2c-0.1-0.3-0.5-0.9-1.3-1.8
		c-0.1-0.2-0.4-0.5-0.9-0.9c-0.1-0.4-0.4-0.8-0.9-1.3c-0.3-0.3-0.5-0.5-0.6-0.6c0-0.4-0.2-0.8-0.7-1.2c-0.5-0.4-0.8-0.5-1-0.1
		c0,0.1,0,0.2-0.1,0.2c0,0-0.1,0.1-0.1,0.1c0,0.1-0.1,0.1-0.1,0.2c-0.1,0.1-0.1,0.2-0.1,0.4c0,0.1-0.1,0.3-0.1,0.4l-0.1,0.1
		c-0.3,0.5-0.5,0.7-0.6,0.7c0,0.1,0,0.2,0.1,0.3c0.1,0.1,0.1,0.2,0.1,0.3c-0.4,0.5-0.6,1-0.6,1.5c-0.2,0.2-0.4,0.6-0.7,1.2
		c-0.3,0.6-0.5,0.9-0.6,1c0,0.1,0,0.2,0,0.4s0,0.3,0,0.4c0,0.1-0.1,0.2-0.2,0.4c-0.1,0.2-0.2,0.3-0.2,0.4c0,0.1,0,0.2-0.1,0.4
		c0,0.2-0.1,0.3-0.2,0.4c0,0.1,0,0.2-0.1,0.2c-0.1,0.1-0.1,0.1-0.1,0.2c0,1.2-0.1,1.8-0.3,1.9c0,0.1,0.1,0.2,0.3,0.4
		c-0.5,1-0.8,1.8-0.9,2.5c-0.2,0.2-0.5,0.4-0.9,0.7c-0.4,0.3-0.7,0.5-0.9,0.7c-0.7-0.1-1.1,0.2-1.3,0.9c-0.1,0-0.2-0.1-0.2-0.1
		c-0.1-0.1-0.1-0.1-0.1-0.1c0,0-0.1,0.1-0.1,0.1c-0.1,0.1-0.1,0.1-0.2,0.1c-0.2,0-0.4-0.2-0.7-0.7c-0.3-0.4-0.5-0.7-0.7-0.7
		c-0.1,0-0.3,0.1-0.6,0.3c-0.3,0.2-0.5,0.2-0.7,0.1L10,60.4c-0.1-0.4-0.3-0.7-0.7-0.9c-0.1,0-0.2,0-0.2,0.1c0,0-0.1,0.1-0.2,0.1
		c-0.1-0.2-0.3-0.5-0.6-0.8c-0.3-0.3-0.4-0.7-0.4-1.1c0-0.1-0.2-0.2-0.6-0.4v-0.4c0-0.1-0.1-0.2-0.3-0.4l-0.1-0.1
		c0-0.2-0.1-0.4-0.2-0.7c-0.1-0.2-0.2-0.4-0.2-0.4s0-0.2,0-0.4c0-0.2,0-0.3-0.1-0.4c0-0.1-0.1-0.2-0.2-0.2c-0.1,0-0.2-0.1-0.3-0.2
		c0.2-0.5,0-1-0.4-1.5v-1.2c-0.2-0.2-0.3-0.5-0.3-1C5,50.2,4.9,50.1,4.9,50c0-0.1,0-0.2,0-0.4c0-0.1,0-0.3,0-0.4
		c0-0.1-0.1-0.2-0.1-0.3c-0.1-0.1-0.1-0.2-0.1-0.3c0-0.1,0-0.2,0-0.4c0-0.1-0.1-0.2-0.1-0.2c0-0.1,0-0.2-0.1-0.2
		c-0.1,0-0.1-0.1-0.1-0.2c-0.1-0.5-0.2-0.8-0.4-0.9L4,46.3c0-0.1-0.1-0.2-0.2-0.4c-0.1-0.1-0.2-0.3-0.2-0.4c0-0.1,0-0.3,0-0.6
		c0-0.2-0.1-0.4-0.4-0.6v-0.3c-0.1-0.1-0.3-0.4-0.6-1c0-0.1-0.1-0.2-0.1-0.3c-0.1-0.1-0.2-0.2-0.2-0.3c0-0.1,0-0.2,0-0.4
		c0-0.1,0.1-0.3,0.1-0.4c-0.1-0.1-0.3-0.3-0.5-0.5c-0.2-0.2-0.4-0.4-0.5-0.5c0-0.1,0-0.2,0-0.3c0-0.1-0.1-0.2-0.2-0.3
		c-0.1-0.1-0.2-0.2-0.2-0.3c0-0.1,0.1-0.3,0.3-0.6c0-0.2,0-0.3,0-0.4c0-0.1,0.1-0.3,0.3-0.5s0.3-0.4,0.4-0.4c0,0,0.1-0.2,0.1-0.4
		c0-0.2,0-0.3,0-0.4c0.1-0.2,0.3-0.4,0.7-0.6c0.3-0.2,0.6-0.4,0.7-0.6c0.9-0.1,1.4-0.2,1.5-0.3c0-0.2,0-0.3,0-0.4
		C4.7,35.1,5,35,5.4,35c0.4,0,0.6-0.1,0.7-0.2c0.1,0,0.2,0.1,0.2,0.1C6.4,35,6.4,35,6.5,35c0,0,0.2,0,0.4-0.1c0.2,0,0.3,0,0.3,0.1
		c0.1,0,0.1,0,0.1,0.1c0,0.1,0,0.2,0.1,0.3c0.3-0.1,0.5-0.1,0.6,0c0.7,0.1,1.1,0.4,1.3,1c0.3,0.2,0.6,0.5,1,1c0.3-0.1,0.4-0.1,0.4,0
		c0,0.3,0.2,0.6,0.7,1c0.2,0.1,0.3,0.2,0.4,0.4l0.3,0.7c0,0.4,0.1,0.6,0.3,0.7c0.2,0,0.3-0.1,0.4-0.4c0.1,0,0.1-0.1,0.1-0.3
		c0.3-0.4,0.4-0.6,0.4-0.7c0.4-0.5,0.6-0.8,0.6-1c0.8-0.9,1.2-1.6,1.3-2.2l0.3-0.1c0-0.2,0.2-0.5,0.6-0.9c0.1-0.4,0.4-0.8,1-1.3
		c0-0.1,0-0.2,0-0.4c0.1,0,0.2,0,0.3,0.1c0.1,0,0.2,0.1,0.3,0.1c0.1,0,0.2-0.1,0.4-0.3c0.1,0,0.1,0,0.1-0.1c0.6,0,1-0.4,1.3-1.3
		c0.1,0,0.2,0,0.2,0.1c0,0.1,0.1,0.1,0.2,0.1c0.1-0.2,0.4-0.2,0.8-0.1c0.4,0.1,0.8,0.2,1,0.2c0.1,0,0.3,0.1,0.7,0.1
		C23,31.9,23.3,32,23.5,32z M22,31.7c0.1,0,0.3,0.1,0.7,0.1c0.3,0.1,0.6,0.1,0.8,0.1c0.1,0,0.1,0.1,0.1,0.1c0,0.1-0.1,0.2-0.1,0.3
		c0.8,0.8,1.5,1.1,2,1c0,0.3,0.1,0.6,0.4,0.9c0.2,0.2,0.3,0.3,0.4,0.4c0.2-0.1,0.3-0.1,0.4,0c0,0.1,0,0.2,0,0.2c0,0.1,0,0.1,0,0.2
		c0.3,0.4,0.8,0.9,1.5,1.5c0.7,0.6,1.1,1.1,1.3,1.5c0.1,0,0.1,0.1,0.1,0.3l1.8,1.9c0,0.3,0,0.4,0.1,0.4c0.1,0,0.2,0,0.3-0.1
		c0.1,0,0.2,0,0.3,0.1c0,0.3,0.1,0.6,0.4,1c0.2,0.4,0.4,0.7,0.5,0.9l0.6,0.3c0.1,0,0.1,0.1,0.1,0.2c-0.1,0.1-0.1,0.3-0.1,0.4
		c0.1,0.1,0.3,0.2,0.5,0.4c0.2,0.2,0.4,0.3,0.5,0.3c0,0.1,0,0.2,0.1,0.3c0.1,0.1,0.1,0.2,0.1,0.3c0.1,0.1,0.2,0.2,0.4,0.4
		c0.1,0.2,0.3,0.3,0.4,0.4c0.1,0,0.2,0,0.2,0.1c0,0.1,0.1,0.2,0.1,0.3c0.5,0.6,0.8,1.1,1,1.5c0.1,0.1,0.2,0.2,0.4,0.4
		c0.2,0.2,0.3,0.3,0.4,0.4c0.2,0.4,0.6,0.8,1.2,1.3c0.6,0.5,1,0.9,1.2,1.2l1.5,0.9h0.6c0.4,0.5,0.9,0.7,1.5,0.6
		c0.1-0.1,0.2-0.2,0.4-0.3c0.1-0.1,0.3-0.1,0.4-0.1c0.2-0.2,0.4-0.3,0.7-0.3c0.6,0,0.9,0,1,0c0.5,0.4,1,0.3,1.6-0.1
		c0,0.1-0.1,0.2-0.1,0.3s-0.1,0.2-0.1,0.3c0.1,0.1,0.2,0.2,0.3,0.3c0.4-0.1,0.7,0.1,1,0.5s0.6,0.6,0.9,0.5c0.1,0,0.1,0.1,0.1,0.3
		c0.6,0.5,0.8,1,0.6,1.6c0.1,0.2,0.2,0.3,0.3,0.3c-0.2,0.2-0.3,0.6-0.4,1.3c-0.1,0.7-0.1,1.1-0.1,1.2c-0.3,0.1-0.6,0.3-0.9,0.7
		c-0.3,0.3-0.5,0.6-0.7,0.7c0,0.5,0,0.8,0,0.9c-0.2,0-0.4,0-0.6-0.1c-0.1,0.1-0.3,0.2-0.6,0.3c-0.3,0.1-0.4,0.2-0.4,0.3
		c-0.1,0.1-0.1,0.2-0.1,0.4s-0.1,0.3-0.1,0.4c-0.2,0-0.4,0-0.5-0.1c-0.1-0.1-0.3-0.1-0.4-0.1c-0.3,0.1-0.5,0.1-0.5,0.1
		c-0.1,0-0.1,0-0.2,0c-0.1,0-0.2,0-0.3,0c-0.1,0-0.2,0.1-0.3,0.2c-0.1,0.1-0.2,0.2-0.3,0.2C44,61.9,43.6,61.9,43,62
		c-0.5,0.1-1,0.2-1.2,0.1c-0.1,0-0.1-0.1-0.1-0.2c0-0.1,0-0.2-0.1-0.2c-0.1,0-0.3,0-0.7,0c-0.4,0-0.7,0-0.9,0c0-0.3-0.1-0.5-0.4-0.6
		c-0.3-0.1-0.5-0.1-0.7,0c-0.1-0.1-0.2-0.1-0.3-0.1c0-0.1-0.1-0.3-0.1-0.6c-0.1,0-0.3,0-0.5,0.1c-0.2,0.1-0.4,0-0.5-0.1
		c0-0.2-0.2-0.4-0.6-0.6c0-0.1-0.1-0.2-0.1-0.3c-0.1-0.1-0.2-0.1-0.3-0.1c-0.3,0.1-0.5,0.1-0.6,0.1c0-0.1,0-0.2,0-0.4l-1.8-1.6h-0.3
		c-0.2-0.1-0.4-0.3-0.6-0.6c-0.2-0.3-0.3-0.5-0.4-0.6c-0.2-0.1-0.3-0.1-0.4-0.1c-0.1-0.1-0.2-0.3-0.4-0.5c-0.1-0.2-0.3-0.4-0.4-0.4
		c-0.6-0.4-0.9-0.7-0.9-1c-0.3,0-0.6-0.1-0.8-0.4c-0.2-0.3-0.4-0.4-0.5-0.4c-0.1-0.7-0.6-1.4-1.5-2.2c-0.1-0.3-0.5-0.9-1.3-1.8
		c-0.1-0.2-0.4-0.5-0.9-0.9c-0.1-0.4-0.4-0.8-0.9-1.3c-0.3-0.3-0.5-0.5-0.6-0.6c0-0.4-0.2-0.8-0.7-1.2c-0.5-0.4-0.8-0.5-1-0.1
		c0,0.1,0,0.2-0.1,0.2c0,0-0.1,0.1-0.1,0.1c0,0.1-0.1,0.1-0.1,0.2c-0.1,0.1-0.1,0.2-0.1,0.4c0,0.1-0.1,0.3-0.1,0.4l-0.1,0.1
		c-0.3,0.5-0.5,0.7-0.6,0.7c0,0.1,0,0.2,0.1,0.3c0.1,0.1,0.1,0.2,0.1,0.3c-0.4,0.5-0.6,1-0.6,1.5c-0.2,0.2-0.4,0.6-0.7,1.2
		c-0.3,0.6-0.5,0.9-0.6,1c0,0.1,0,0.2,0,0.4s0,0.3,0,0.4c0,0.1-0.1,0.2-0.2,0.4c-0.1,0.2-0.2,0.3-0.2,0.4c0,0.1,0,0.2-0.1,0.4
		c0,0.2-0.1,0.3-0.2,0.4c0,0.1,0,0.2-0.1,0.2c-0.1,0.1-0.1,0.1-0.1,0.2c0,1.2-0.1,1.8-0.3,1.9c0,0.1,0.1,0.2,0.3,0.4
		c-0.5,1-0.8,1.8-0.9,2.5c-0.2,0.2-0.5,0.4-0.9,0.7c-0.4,0.3-0.7,0.5-0.9,0.7c-0.7-0.1-1.1,0.2-1.3,0.9c-0.1,0-0.2-0.1-0.2-0.1
		c-0.1-0.1-0.1-0.1-0.1-0.1c0,0-0.1,0.1-0.1,0.1c-0.1,0.1-0.1,0.1-0.2,0.1c-0.2,0-0.4-0.2-0.7-0.7c-0.3-0.4-0.5-0.7-0.7-0.7
		s-0.4,0.1-0.7,0.3s-0.5,0.3-0.7,0.3L10,60.4c-0.1-0.4-0.3-0.7-0.7-0.9c-0.1,0-0.2,0-0.2,0.1c0,0-0.1,0.1-0.2,0.1
		c-0.1-0.2-0.3-0.5-0.6-0.8c-0.3-0.3-0.4-0.7-0.4-1.1c0-0.1-0.2-0.2-0.6-0.4v-0.4c0-0.1-0.1-0.2-0.3-0.4l-0.1-0.1
		c0-0.2-0.1-0.4-0.2-0.7c-0.1-0.2-0.2-0.4-0.2-0.4s0-0.2,0-0.4c0-0.2,0-0.3-0.1-0.4c0-0.1-0.1-0.2-0.2-0.2c-0.1,0-0.2-0.1-0.3-0.2
		c0.2-0.5,0-1-0.4-1.5v-1.2c-0.2-0.2-0.3-0.5-0.3-1c-0.1,0-0.1,0-0.1-0.1c0,0,0-0.1,0-0.2c0-0.1,0-0.2,0-0.4c0-0.1,0-0.3,0-0.4
		c0-0.1-0.1-0.2-0.1-0.3c-0.1-0.1-0.1-0.2-0.1-0.3c0-0.1,0-0.2,0-0.4c0-0.1-0.1-0.2-0.1-0.2c0-0.1,0-0.2-0.1-0.2
		c-0.1,0-0.1-0.1-0.1-0.2c-0.1-0.5-0.2-0.8-0.4-0.9L4,46.3c0-0.1-0.1-0.2-0.2-0.4c-0.1-0.1-0.2-0.3-0.2-0.4c0-0.1,0-0.3,0-0.6
		c0-0.2-0.1-0.4-0.4-0.6v-0.3c-0.1-0.1-0.3-0.4-0.6-1c0-0.1-0.1-0.2-0.1-0.3c-0.1-0.1-0.2-0.2-0.2-0.3c0-0.1,0-0.2,0-0.4
		c0-0.1,0.1-0.3,0.1-0.4c-0.1-0.1-0.3-0.3-0.5-0.5c-0.2-0.2-0.4-0.4-0.5-0.5c0-0.1,0-0.2,0-0.3c0-0.1-0.1-0.2-0.2-0.3
		c-0.1-0.1-0.2-0.2-0.2-0.3c0-0.1,0.1-0.3,0.3-0.6c0-0.2,0-0.3,0-0.4c0-0.1,0.1-0.3,0.3-0.5s0.3-0.4,0.4-0.4c0,0,0.1-0.2,0.1-0.4
		c0-0.2,0-0.3,0-0.4c0.1-0.2,0.3-0.4,0.7-0.6c0.3-0.2,0.6-0.4,0.7-0.6c0.9-0.1,1.4-0.2,1.5-0.3c0-0.2,0-0.3,0-0.4
		C4.7,35.1,5,35,5.4,35c0.4,0,0.6-0.1,0.7-0.2c0.1,0,0.2,0.1,0.2,0.1C6.4,35,6.4,35,6.5,35c0,0,0.2,0,0.4-0.1c0.2,0,0.3,0,0.3,0.1
		c0.1,0,0.1,0,0.1,0.1c0,0.1,0,0.2,0.1,0.3c0.3-0.1,0.5-0.1,0.6,0c0.7,0.1,1.1,0.4,1.3,1c0.3,0.2,0.6,0.5,1,1c0.3-0.1,0.4-0.1,0.4,0
		c0,0.3,0.2,0.6,0.7,1c0.2,0.1,0.3,0.2,0.4,0.4c0,0.1,0.1,0.3,0.3,0.7c0,0.4,0.1,0.6,0.3,0.7c0.2,0,0.3-0.1,0.4-0.4
		c0.1,0,0.1-0.1,0.1-0.3c0.3-0.4,0.4-0.6,0.4-0.7c0.4-0.5,0.6-0.8,0.6-1c0.8-0.9,1.2-1.6,1.3-2.2l0.3-0.1c0-0.2,0.2-0.5,0.6-0.9
		c0.1-0.4,0.4-0.8,1-1.3c0-0.1,0-0.2,0-0.4c0.1,0,0.2,0,0.3,0.1c0.1,0,0.2,0.1,0.3,0.1c0.1,0,0.2-0.1,0.4-0.3c0.1,0,0.1,0,0.1-0.1
		c0.6,0,1-0.4,1.3-1.3c0.1,0,0.2,0,0.2,0.1c0,0.1,0.1,0.1,0.2,0.1c0.1-0.2,0.4-0.2,0.8-0.1C21.5,31.6,21.8,31.7,22,31.7z"/>
	<path fill="#E0BFE3" d="M63.3,12.8c0,0.4,0.1,0.6,0.4,0.6c0.5-0.1,0.8-0.1,0.9-0.1c0,0.7,0.3,1.1,0.9,1.2c0.1,0,0.1,0,0.1-0.1
		s0-0.1,0.1-0.1c0.2,0.2,0.3,0.3,0.4,0.3c-0.1,0.2-0.1,0.4,0,0.7c0.1,0.3,0.1,0.5,0.1,0.6c0.1,0.1,0.2,0.1,0.3,0.1
		c0.1,0,0.1,0,0.1,0.1c0.1,0,0.2,0.2,0.4,0.6c0.1,0.4,0.3,0.6,0.5,0.7c0,0.1,0,0.2,0,0.3c0.1,0,0.2,0,0.3,0c0.2,0,0.3,0,0.4,0
		c0.1,0.4,0,0.7-0.3,0.9c-0.1,0.3,0,0.7,0.4,1.2c0,0.3,0,0.9,0,1.8c0,0.9,0,1.4,0.1,1.6h-0.4c-0.1,0-0.1,0.1-0.1,0.3s0,0.3-0.1,0.3
		c-0.1,0-0.2,0-0.3-0.1c-0.1,0-0.2-0.1-0.3-0.1c-0.3,0-0.3,0.2-0.1,0.7c0.2,0.5,0.2,0.8,0.1,1c-0.1,0-0.3,0-0.7,0.1
		c-0.4,0-0.6,0.1-0.7,0.1c-0.1,0-0.2-0.1-0.4-0.3c-0.3-0.3-0.5-0.3-0.7,0c0,0.1,0,0.2,0.1,0.3c0.1,0.1,0.1,0.2,0.1,0.3
		c-0.3-0.1-0.4-0.2-0.4-0.3c-0.7,0-1.1-0.1-1.2-0.4c-0.1,0-0.2,0-0.2,0.1c0,0-0.1,0.1-0.2,0.1c-0.1-0.1-0.5-0.5-1.3-1.2l-0.4-0.1
		c0-0.1-0.2-0.3-0.7-0.6c0,0.3-0.1,0.4-0.3,0.4c-0.1,0-0.1-0.1-0.1-0.2c0-0.1,0-0.3,0-0.4c-0.1,0-0.2,0-0.4,0.1
		c-0.1,0.1-0.2,0.1-0.3,0c0,0-0.1-0.2-0.1-0.4s0-0.3,0-0.4c-0.1-0.1-0.3-0.4-0.7-1c-0.1,0-0.2,0-0.2,0s-0.1,0-0.2,0
		c0.2-0.2,0.2-0.5,0-0.9c-0.2-0.4-0.3-0.7-0.3-1l-0.4-0.1c0-0.1,0-0.3-0.1-0.5c0-0.2,0-0.4,0.1-0.4c0-0.1-0.2-0.7-0.6-1.9l0.4-0.1
		l0.1-0.3c0.1-0.4,0.2-0.6,0.4-0.6c0-0.7,0-1.1,0-1.3c0.1,0,0.2,0,0.4,0c0.2,0,0.3,0,0.4,0c0.1-0.1,0.2-0.2,0.4-0.4
		c0.1-0.2,0.3-0.4,0.4-0.6c0.1,0,0.3,0,0.7,0.1c0.4,0,0.6,0,0.7-0.1c0-0.1,0-0.2,0-0.4c0.2,0,0.6,0,1.2-0.1
		C62.8,12.7,63.2,12.7,63.3,12.8z M62.2,12.7c0.6,0,1,0,1.1,0.1c0,0.4,0.1,0.6,0.4,0.6c0.5-0.1,0.8-0.1,0.9-0.1
		c0,0.7,0.3,1.1,0.9,1.2c0.1,0,0.1,0,0.1-0.1s0-0.1,0.1-0.1c0.2,0.2,0.3,0.3,0.4,0.3c-0.1,0.2-0.1,0.4,0,0.7
		c0.1,0.3,0.1,0.5,0.1,0.6c0.1,0.1,0.2,0.1,0.3,0.1c0.1,0,0.1,0,0.1,0.1c0.1,0,0.2,0.2,0.4,0.6c0.1,0.4,0.3,0.6,0.5,0.7
		c0,0.1,0,0.2,0,0.3c0.1,0,0.2,0,0.3,0c0.2,0,0.3,0,0.4,0c0.1,0.4,0,0.7-0.3,0.9c-0.1,0.3,0,0.7,0.4,1.2c0,0.3,0,0.9,0,1.8
		c0,0.9,0,1.4,0.1,1.6h-0.4c-0.1,0-0.1,0.1-0.1,0.3s0,0.3-0.1,0.3c-0.1,0-0.2,0-0.3-0.1c-0.1,0-0.2-0.1-0.3-0.1
		c-0.3,0-0.3,0.2-0.1,0.7c0.2,0.5,0.2,0.8,0.1,1c-0.1,0-0.3,0-0.7,0.1c-0.4,0-0.6,0.1-0.7,0.1c-0.1,0-0.2-0.1-0.4-0.3
		c-0.3-0.3-0.5-0.3-0.7,0c0,0.1,0,0.2,0.1,0.3c0.1,0.1,0.1,0.2,0.1,0.3c-0.3-0.1-0.4-0.2-0.4-0.3c-0.7,0-1.1-0.1-1.2-0.4
		c-0.1,0-0.2,0-0.2,0.1c0,0-0.1,0.1-0.2,0.1c-0.1-0.1-0.5-0.5-1.3-1.2l-0.4-0.1c0-0.1-0.2-0.3-0.7-0.6c0,0.3-0.1,0.4-0.3,0.4
		c-0.1,0-0.1-0.1-0.1-0.2c0-0.1,0-0.3,0-0.4c-0.1,0-0.2,0-0.4,0.1c-0.1,0.1-0.2,0.1-0.3,0c0,0-0.1-0.2-0.1-0.4s0-0.3,0-0.4
		c-0.1-0.1-0.3-0.4-0.7-1c-0.1,0-0.2,0-0.2,0s-0.1,0-0.2,0c0.2-0.2,0.2-0.5,0-0.9c-0.2-0.4-0.3-0.7-0.3-1l-0.4-0.1
		c0-0.1,0-0.3-0.1-0.5c0-0.2,0-0.4,0.1-0.4c0-0.1-0.2-0.7-0.6-1.9l0.4-0.1l0.1-0.3c0.1-0.4,0.2-0.6,0.4-0.6c0-0.7,0-1.1,0-1.3
		c0.1,0,0.2,0,0.4,0c0.2,0,0.3,0,0.4,0c0.1-0.1,0.2-0.2,0.4-0.4c0.1-0.2,0.3-0.4,0.4-0.6c0.1,0,0.3,0,0.7,0.1c0.4,0,0.6,0,0.7-0.1
		c0-0.1,0-0.2,0-0.4C61.2,12.8,61.6,12.8,62.2,12.7z M62.4,32.6c0.2-0.1,0.6-0.1,1.2,0c0.1,0,0.1,0,0.1,0.1c-0.1,0.1,0,0.2,0.1,0.3
		c0.5,0.1,0.7,0.2,0.7,0.3c0.2-0.2,0.4-0.3,0.7-0.3c0.2,0,0.4,0.1,0.5,0.3c0,0.1-0.1,0.2-0.1,0.3c0.5,0.8,0.8,1.2,0.9,1.2
		c-0.1,0.3,0,0.5,0.4,0.6c0.1,0,0.2,0,0.3,0c0.1,0.6,0.3,1,0.6,1.2v0.4c0,0.1,0.1,0.2,0.2,0.2c0.1,0,0.2,0.1,0.2,0.2
		c0.1,0.1,0.1,0.3,0,0.7c0,0.4,0.1,0.6,0.4,0.7c0.2,0.1,0.2,0.4,0.1,1c-0.1,0.6-0.1,1,0,1.3c0.2,0.2,0.3,0.3,0.4,0.4
		c-0.1,0.2-0.1,0.4,0,0.6l0.4,0.1c0.1,0.3,0.1,0.6,0.1,1c0,0.4-0.1,0.6-0.1,0.7c0,0.1,0.1,0.2,0.2,0.4c0.1,0.2,0.2,0.4,0.1,0.6
		c0.1,0.3,0.3,0.4,0.7,0.3v1.3L70.3,47c0,0.3,0.1,0.6,0.4,0.9c0.2-0.1,0.3-0.1,0.4-0.1c0,0.2,0,0.3-0.1,0.4c-0.1,0-0.1,0.1-0.1,0.1
		c-0.1,0.8,0,1.2,0.4,1.3c0,0.2,0,0.5,0,1c0,0.5,0,0.8,0.1,0.9c0,0.1,0.1,0.1,0.3,0.1c0.2,0.5,0.1,1-0.1,1.5
		c0.1,0.3,0.3,0.5,0.7,0.6c0,0.3,0,0.5,0,0.6c-0.1,0-0.2,0-0.2,0c0,0-0.1,0-0.2,0c0,0.2,0.1,0.3,0.4,0.4c0.1,0.4,0,0.7-0.3,1
		c0,0.2,0.1,0.5,0.2,0.9c0.1,0.4,0.2,0.7,0.1,0.9c-0.5,0.1-0.7,0.6-0.6,1.5c0.1,0.2,0.1,0.3,0.1,0.4c-0.2,0-0.4,0-0.5,0.1
		c-0.1,0.1-0.3,0.1-0.4,0c-0.3,0.7-0.4,1.1-0.4,1.2c-0.1,0-0.2,0-0.2-0.1c0,0-0.1-0.1-0.2-0.1c-0.1,0.1-0.1,0.3-0.1,0.7
		c0,0.3,0,0.6-0.1,0.7c-0.7,0-1.1-0.1-1.2-0.3c0-0.1,0-0.2,0.1-0.3c0.1-0.1,0.1-0.2,0.1-0.3c-0.1-0.1-0.2-0.2-0.3-0.3
		c0,0.1-0.1,0.2-0.1,0.4c-0.1,0.2-0.2,0.3-0.3,0.3c-0.1-0.1-0.3-0.1-0.6,0c-0.1,0-0.2,0-0.2,0c-0.1,0-0.1,0-0.3,0
		c-0.1,0-0.3,0-0.3,0c0,0-0.2,0.1-0.4,0.4c-0.2,0.2-0.5,0.3-0.7,0.1c-0.1,0-0.1-0.1-0.1-0.1s0-0.2,0-0.3c-0.1,0-0.3,0-0.4,0.1
		c-0.2,0.1-0.3,0.1-0.4,0c0.1-0.3,0.1-0.5,0.1-0.6c-0.1,0-0.2,0.1-0.2,0.1c-0.1,0.1-0.1,0.1-0.2,0c-0.1,0-0.1-0.1-0.1-0.2
		c0-0.1,0-0.2,0-0.2c-0.1,0-0.2,0-0.5,0c0-0.3-0.1-0.5-0.4-0.7c0.1-0.7-0.2-1.2-1-1.5c0-0.1,0-0.2,0.1-0.4c0-0.2,0.1-0.3,0.1-0.4
		c0-0.1-0.1-0.2-0.2-0.3c-0.1-0.1-0.2-0.2-0.2-0.3c-0.1-0.3-0.2-0.6-0.3-0.9c0-0.1,0-0.2,0.1-0.4c0.1-0.1,0.1-0.3,0.1-0.4
		c0-0.3-0.1-0.8-0.4-1.5c-0.1,0-0.2,0-0.4,0c-0.1,0-0.3,0-0.4-0.1c0-0.3,0-0.7,0-1.2c0-0.5,0-0.9,0-1.3c0.2-0.1,0.3-0.4,0.2-0.8
		c-0.1-0.4-0.2-0.7-0.5-0.8c0-0.2,0-0.4,0-0.7s0-0.5,0-0.6c-0.3-0.2-0.4-0.3-0.4-0.4c-0.1-0.2-0.1-0.4-0.1-0.7
		c0-0.2,0.1-0.5,0.1-0.7c-0.1-0.1-0.2-0.1-0.4-0.1c0-0.1,0-0.3,0-0.6s0-0.4-0.1-0.4c-0.1,0-0.2,0-0.3,0c-0.1,0-0.1,0-0.1-0.1
		c0-0.1,0-0.3,0-0.6c0-0.3,0-0.5-0.1-0.6c-0.2,0-0.3,0-0.4,0c0.1-0.1,0.1-0.3,0.1-0.5c0-0.2-0.1-0.5-0.1-0.7
		c0.2-0.2,0.3-0.3,0.3-0.4c0-0.1-0.1-0.2-0.2-0.3c-0.1-0.1-0.2-0.2-0.2-0.3c0-0.3,0-0.5,0-0.6c0-0.1-0.1-0.3-0.2-0.6
		c-0.1-0.3-0.3-0.5-0.4-0.7c0-0.1,0-0.3,0.1-0.7c0-0.4,0-0.7-0.1-0.9c0-0.1,0-0.2-0.1-0.2c-0.1-0.1-0.1-0.1-0.1-0.2s0-0.2,0.1-0.2
		c0,0,0.1-0.1,0.1-0.2c-0.2-0.1-0.3-0.3-0.3-0.6c0-0.3,0.1-0.4,0.4-0.4c0-0.1,0.1-0.3,0.3-0.6c0.2-0.3,0.3-0.6,0.3-1l0.3-0.3
		c0.5-0.3,0.7-0.6,0.6-1c0.2,0,0.4,0.1,0.7,0.3c0.2-0.1,0.3-0.3,0.3-0.7c0.2-0.1,0.4,0,0.7,0.1c0.1-0.3,0.2-0.4,0.3-0.4H62
		c0.1,0,0.2-0.1,0.2-0.2C62.3,32.6,62.3,32.6,62.4,32.6z M63.6,32.6c0.1,0,0.1,0,0.1,0.1c-0.1,0.1,0,0.2,0.1,0.3
		c0.5,0.1,0.7,0.2,0.7,0.3c0.2-0.2,0.4-0.3,0.7-0.3c0.2,0,0.4,0.1,0.5,0.3c0,0.1-0.1,0.2-0.1,0.3c0.5,0.8,0.8,1.2,0.9,1.2
		c-0.1,0.3,0,0.5,0.4,0.6c0.1,0,0.2,0,0.3,0c0.1,0.6,0.3,1,0.6,1.2v0.4c0,0.1,0.1,0.2,0.2,0.2c0.1,0,0.2,0.1,0.2,0.2
		c0.1,0.1,0.1,0.3,0,0.7c0,0.4,0.1,0.6,0.4,0.7c0.2,0.1,0.2,0.4,0.1,1c-0.1,0.6-0.1,1,0,1.3c0.2,0.2,0.3,0.3,0.4,0.4
		c-0.1,0.2-0.1,0.4,0,0.6l0.4,0.1c0.1,0.3,0.1,0.6,0.1,1c0,0.4-0.1,0.6-0.1,0.7c0,0.1,0.1,0.2,0.2,0.4c0.1,0.2,0.2,0.4,0.1,0.6
		c0.1,0.3,0.3,0.4,0.7,0.3v1.3L70.3,47c0,0.3,0.1,0.6,0.4,0.9c0.2-0.1,0.3-0.1,0.4-0.1c0,0.2,0,0.3-0.1,0.4c-0.1,0-0.1,0.1-0.1,0.1
		c-0.1,0.8,0,1.2,0.4,1.3c0,0.2,0,0.5,0,1c0,0.5,0,0.8,0.1,0.9c0,0.1,0.1,0.1,0.3,0.1c0.2,0.5,0.1,1-0.1,1.5
		c0.1,0.3,0.3,0.5,0.7,0.6c0,0.3,0,0.5,0,0.6c-0.1,0-0.2,0-0.2,0c0,0-0.1,0-0.2,0c0,0.2,0.1,0.3,0.4,0.4c0.1,0.4,0,0.7-0.3,1
		c0,0.2,0.1,0.5,0.2,0.9c0.1,0.4,0.2,0.7,0.1,0.9c-0.5,0.1-0.7,0.6-0.6,1.5c0.1,0.2,0.1,0.3,0.1,0.4c-0.2,0-0.4,0-0.5,0.1
		c-0.1,0.1-0.3,0.1-0.4,0c-0.3,0.7-0.4,1.1-0.4,1.2c-0.1,0-0.2,0-0.2-0.1c0,0-0.1-0.1-0.2-0.1c-0.1,0.1-0.1,0.3-0.1,0.7
		c0,0.3,0,0.6-0.1,0.7c-0.7,0-1.1-0.1-1.2-0.3c0-0.1,0-0.2,0.1-0.3c0.1-0.1,0.1-0.2,0.1-0.3c-0.1-0.1-0.2-0.2-0.3-0.3
		c0,0.1-0.1,0.2-0.1,0.4c-0.1,0.2-0.2,0.3-0.3,0.3c-0.1-0.1-0.3-0.1-0.6,0c-0.1,0-0.2,0-0.2,0c-0.1,0-0.1,0-0.3,0
		c-0.1,0-0.3,0-0.3,0c0,0-0.2,0.1-0.4,0.4c-0.2,0.2-0.5,0.3-0.7,0.1c-0.1,0-0.1-0.1-0.1-0.1s0-0.2,0-0.3c-0.1,0-0.3,0-0.4,0.1
		c-0.2,0.1-0.3,0.1-0.4,0c0.1-0.3,0.1-0.5,0.1-0.6c-0.1,0-0.2,0.1-0.2,0.1c-0.1,0.1-0.1,0.1-0.2,0c-0.1,0-0.1-0.1-0.1-0.2
		c0-0.1,0-0.2,0-0.2c-0.1,0-0.1,0-0.3,0c-0.1,0-0.3,0-0.4,0c0.1-0.3,0-0.5-0.3-0.7c0.1-0.7-0.2-1.2-1-1.5c0-0.1,0-0.2,0.1-0.4
		c0-0.2,0.1-0.3,0.1-0.4c0-0.1-0.1-0.2-0.2-0.3c-0.1-0.1-0.2-0.2-0.2-0.3c-0.1-0.3-0.2-0.6-0.3-0.9c0-0.1,0-0.2,0.1-0.4
		c0.1-0.1,0.1-0.3,0.1-0.4c0-0.3-0.1-0.8-0.4-1.5c-0.1,0-0.2,0-0.4,0c-0.1,0-0.3,0-0.4-0.1c0-0.3,0-0.7,0-1.2c0-0.5,0-0.9,0-1.3
		c0.2-0.1,0.3-0.4,0.2-0.8c-0.1-0.4-0.2-0.7-0.5-0.8c0-0.2,0-0.4,0-0.7s0-0.5,0-0.6c-0.3-0.2-0.4-0.3-0.4-0.4
		c-0.1-0.2-0.1-0.4-0.1-0.7c0-0.2,0.1-0.5,0.1-0.7c-0.1-0.1-0.2-0.1-0.4-0.1c0-0.1,0-0.3,0-0.6s0-0.4-0.1-0.4c-0.1,0-0.2,0-0.3,0
		c-0.1,0-0.1,0-0.1-0.1c0-0.1,0-0.3,0-0.6c0-0.3,0-0.5-0.1-0.6c-0.2,0-0.3,0-0.4,0c0.1-0.1,0.1-0.3,0.1-0.5c0-0.2-0.1-0.5-0.1-0.7
		c0.2-0.2,0.3-0.3,0.3-0.4c0-0.1-0.1-0.2-0.2-0.3c-0.1-0.1-0.2-0.2-0.2-0.3c0-0.3,0-0.5,0-0.6c0-0.1-0.1-0.3-0.2-0.6
		c-0.1-0.3-0.3-0.5-0.4-0.7c0-0.1,0-0.3,0.1-0.7c0-0.4,0-0.7-0.1-0.9c0-0.1,0-0.2-0.1-0.2c-0.1-0.1-0.1-0.1-0.1-0.2s0-0.2,0.1-0.2
		c0,0,0.1-0.1,0.1-0.2c-0.2-0.1-0.3-0.3-0.3-0.6c0-0.3,0.1-0.4,0.4-0.4c0-0.1,0.1-0.3,0.3-0.6c0.2-0.3,0.3-0.6,0.3-1l0.3-0.3
		c0.5-0.3,0.7-0.6,0.6-1c0.2,0,0.4,0.1,0.7,0.3c0.2-0.1,0.3-0.3,0.3-0.7c0.2-0.1,0.4,0,0.7,0.1c0.1-0.3,0.2-0.4,0.3-0.4H62
		c0.1,0,0.2-0.1,0.2-0.2c0-0.1,0.1-0.2,0.2-0.2C62.6,32.5,63,32.5,63.6,32.6z M61.1,52.6C61,52.9,61.1,53,61.3,53
		c0.2,0,0.2-0.1,0.1-0.4H61.1z M61.3,53c0.2,0,0.2-0.1,0.1-0.4h-0.3C61,52.9,61.1,53,61.3,53z"/>
	<path fill="#E0BFE3" d="M103.7,37.8l-0.6,0.3c-0.1,0-0.3,0-0.5,0c-0.2,0-0.4,0-0.5,0c-0.1,0.1-0.2,0.2-0.2,0.3
		c0,0.1-0.1,0.1-0.2,0.1c-0.4,0.1-0.7,0.3-0.9,0.6h-0.6c-0.1,0.2-0.3,0.3-0.7,0.4c-0.4,0.1-0.6,0.1-0.7,0.2c0,0.2,0,0.3,0,0.4
		c-0.7,0-1.1,0.3-1.3,1c-0.6-0.1-1.2,0-1.9,0.4c-0.2,0.2-0.4,0.3-0.6,0.3c0,0.1,0,0.2,0,0.4h-0.6c-0.1,0.2-0.3,0.4-0.5,0.7
		c-0.2,0.2-0.4,0.4-0.5,0.5c-0.2,0.1-0.3,0.1-0.4,0.1c-0.1,0.3-0.4,0.7-0.8,1.1c-0.4,0.4-0.7,0.9-0.8,1.2c-0.1,0.1-0.2,0.2-0.4,0.4
		c-0.1,0.1-0.3,0.3-0.5,0.4c-0.4,0.9-0.8,1.7-1.3,2.3c0,0.1,0,0.3,0.1,0.7c0,0.3,0.1,0.6,0.1,0.7l0.4,0.1c0.1,0.1,0.2,0.3,0.2,0.5
		c0,0.2,0.1,0.4,0.1,0.4c0,0.1,0.1,0.2,0.4,0.4c0.4,0.5,0.6,0.7,0.7,0.7c0.3-0.2,0.5-0.2,0.7-0.1c-0.1,0.4,0,0.6,0.4,0.7
		c0.4,0.1,0.6,0.2,0.6,0.3c0.3-0.1,0.8,0.1,1.5,0.4c0.1,0,0.1,0,0.1-0.1c0-0.1,0-0.1,0.1-0.1c0.4,0.5,1.1,0.6,2.2,0.4
		c1.1-0.2,2-0.1,2.6,0.1c0.9-0.3,1.4-0.3,1.6-0.1c0.1,0,0.2,0,0.2-0.1c0,0,0.1-0.1,0.2-0.1c0.2,0.1,0.9,0,2-0.1
		c1-0.2,1.5-0.4,1.6-0.6h1.5c0.2,0,0.4-0.1,0.5-0.2c0.1-0.1,0.3-0.2,0.4-0.2c0.1-0.1,0.3-0.1,0.7-0.1c0.3,0,0.6,0,0.7,0
		c0.8-0.2,1.2-0.3,1.3-0.3c0,0.1,0,0.2,0,0.4c0,0.2,0,0.3,0.1,0.3c0,0.1,0.2,0.1,0.5,0.1c0.3,0,0.6,0,0.7,0.1
		c-0.1,0.4-0.1,0.6-0.1,0.7c0,0.1,0.2,0.1,0.6,0.1c0,0.2,0,0.4,0,0.7c0.1,0.7,0.1,1.1,0,1.3c0,0.1,0,0.3,0.1,0.4
		c-0.4,0.2-0.7,0.5-0.9,1c-0.2,0.5,0,0.7,0.6,0.7c0,0.2-0.2,0.3-0.6,0.3c-0.1,0-0.2,0-0.3,0c-0.1,0.1-0.3,0.3-0.5,0.5
		c-0.3,0.2-0.4,0.4-0.5,0.5c-0.3,0.2-0.7,0.4-1.2,0.6c-0.2,0.2-0.4,0.5-0.7,0.9c-0.3,0.4-0.5,0.8-0.7,1c-0.2,0.2-0.3,0.3-0.4,0.3
		c-0.2,0-0.3,0-0.4,0c-0.1,0-0.2,0.1-0.4,0.4c-0.3,0.1-0.7,0.1-1.2,0.1c-0.5,0-1,0-1.2,0.1c-0.1,0-0.1,0.1-0.1,0.4
		c-0.2,0-0.5,0-1-0.1c-0.4,0-0.7,0-0.8,0.1c0,0.1,0,0.2,0,0.4c-0.9,0.1-1.4,0-1.6-0.1c-0.5,0-1.2,0-2.1-0.1c-0.9,0-1.6,0-2,0.1
		c-0.6,0.1-0.9,0.1-1,0c-0.3,0-0.8-0.1-1.5-0.3c-0.7-0.2-1.1-0.2-1.3,0c-0.4-0.2-0.6-0.4-0.7-0.6c-0.1,0-0.2,0-0.4,0.1
		C90.8,63,90.6,63,90.5,63c-0.2-0.1-0.5-0.3-0.9-0.6c-0.1,0-0.2,0-0.3,0c-0.1,0-0.2,0-0.2-0.1c0,0-0.2-0.1-0.4-0.3
		c-0.2-0.1-0.4-0.2-0.6-0.1c-0.1-0.2-0.3-0.4-0.7-0.5c-0.3-0.1-0.5-0.3-0.5-0.4c-0.1,0-0.2,0-0.3,0.1c-0.1,0.1-0.2,0.1-0.3,0.1
		c0-0.1,0-0.2-0.1-0.4c0-0.1-0.1-0.2-0.2-0.3c-0.1,0-0.2,0-0.4,0.1c-1.1-1.3-2-2.2-2.8-2.8c-0.1-0.2-0.3-0.5-0.4-0.9
		c-0.1,0-0.2,0-0.3,0.1c-0.1,0.1-0.2,0.1-0.3,0c0-0.4-0.2-0.7-0.6-0.9v-0.4c0-0.1-0.1-0.2-0.4-0.4c0-0.3-0.1-0.6-0.4-0.9
		c-0.3-0.3-0.4-0.6-0.4-0.9c-0.1-0.1-0.2-0.2-0.3-0.4c-0.1-0.1-0.2-0.3-0.3-0.4c0-0.4-0.1-0.7-0.4-1c0.1-0.3,0.1-0.7,0-1.2
		c-0.1-0.5-0.1-0.8-0.1-0.9c0-0.8,0-1.2-0.1-1.2c0,0-0.1-0.1-0.2-0.1s-0.2,0-0.3,0c0-0.2,0.1-0.3,0.4-0.4c0.2-0.3,0.3-0.7,0.3-1.2
		c0-0.5,0-0.9,0-1.3c0.1,0,0.2-0.1,0.4-0.4c0.1-0.3,0.2-0.5,0.2-0.7c0.3-0.4,0.6-0.9,0.8-1.7c0.2-0.7,0.4-1.2,0.5-1.4
		c0.2-0.1,0.3-0.3,0.4-0.6c0.4-0.3,0.6-0.5,0.7-0.6c0.1-1,0.8-1.9,2-2.8c0-0.1,0-0.2,0-0.2c0,0,0-0.1,0-0.2c0.3-0.2,0.7-0.6,1.3-1.1
		c0.6-0.5,1.1-1,1.5-1.2c0-0.2,0-0.3,0.1-0.4c0,0,0.1,0,0.2,0.1c0.1,0.1,0.2,0.1,0.3,0.1c0.3,0,0.5-0.2,0.6-0.6
		c0.1-0.4,0.2-0.6,0.3-0.7c0.3-0.1,0.5-0.1,0.6-0.1c0.1-0.2,0.2-0.3,0.2-0.4c0,0,0.1-0.1,0.3-0.1c0.1,0,0.2,0,0.2-0.1
		c0,0,0-0.1,0.1-0.1c0.1,0,0.1-0.1,0.1-0.1c0,0,0.1-0.1,0.3-0.1c0.1-0.1,0.2-0.2,0.4-0.4c0.1-0.1,0.3-0.3,0.4-0.4c0-0.1,0-0.2,0-0.4
		c0.1,0,0.2,0.1,0.3,0.1c0.1,0.1,0.2,0.1,0.3,0.1l1.5-1c0.1,0,0.4,0,0.9,0c0.1,0,0.1-0.1,0.1-0.2c0-0.1,0-0.3,0-0.4
		c0.5,0.1,0.9,0,1.3-0.4c0.4-0.3,0.6-0.5,0.7-0.5c0.1,0,0.2,0,0.2,0.1c0,0.1,0.1,0.1,0.2,0.1c0.2,0.1,0.4,0.1,0.7,0
		c0.1-0.1,0.2-0.1,0.3-0.1s0.2,0,0.4,0c0.1,0,0.2,0,0.4-0.1c0.1-0.1,0.3-0.1,0.4-0.1c0.2-0.1,0.6-0.1,1.3-0.1
		c0.7,0.1,1.1,0.1,1.2,0.1c0.1,0.1,0.2,0.2,0.4,0.4s0.3,0.2,0.5,0.2c0.1,0.2,0.3,0.3,0.6,0.4c0.1,0.5,0.3,0.9,0.7,1.3
		c0.4,0.4,0.6,0.7,0.7,0.9c0,0.3,0.1,0.7,0.3,1.1c0.2,0.4,0.3,0.7,0.3,0.8c0,0.1-0.1,0.3-0.4,0.7c0,0.6-0.1,1-0.3,1.3
		c-0.2,0.2-0.3,0.3-0.3,0.4c0,0.1,0.1,0.2,0.2,0.4c0.1,0.2,0.2,0.3,0.2,0.4C103.8,37.3,103.6,37.6,103.7,37.8z M104.1,36.9
		c-0.4,0.4-0.5,0.7-0.4,0.9l-0.6,0.3c-0.1,0-0.3,0-0.5,0c-0.2,0-0.4,0-0.5,0c-0.1,0.1-0.2,0.2-0.2,0.3c0,0.1-0.1,0.1-0.2,0.1
		c-0.4,0.1-0.7,0.3-0.9,0.6h-0.6c-0.1,0.2-0.3,0.3-0.7,0.4c-0.4,0.1-0.6,0.1-0.7,0.2c0,0.2,0,0.3,0,0.4c-0.7,0-1.1,0.3-1.3,1
		c-0.6-0.1-1.2,0-1.9,0.4c-0.2,0.2-0.4,0.3-0.6,0.3c0,0.1,0,0.2,0,0.4h-0.6c-0.1,0.2-0.3,0.4-0.5,0.7c-0.2,0.2-0.4,0.4-0.5,0.5
		c-0.2,0.1-0.3,0.1-0.4,0.1c-0.1,0.3-0.4,0.7-0.8,1.1c-0.4,0.4-0.7,0.9-0.8,1.2c-0.1,0.1-0.2,0.2-0.4,0.4c-0.1,0.1-0.3,0.3-0.5,0.4
		c-0.4,0.9-0.8,1.7-1.3,2.3c0,0.1,0,0.3,0.1,0.7c0,0.3,0.1,0.6,0.1,0.7l0.4,0.1c0.1,0.1,0.2,0.3,0.2,0.5c0,0.2,0.1,0.4,0.1,0.4
		c0,0.1,0.1,0.2,0.4,0.4c0.4,0.5,0.6,0.7,0.7,0.7c0.3-0.2,0.5-0.2,0.7-0.1c-0.1,0.4,0,0.6,0.4,0.7c0.4,0.1,0.6,0.2,0.6,0.3
		c0.3-0.1,0.8,0.1,1.5,0.4c0.1,0,0.1,0,0.1-0.1c0-0.1,0-0.1,0.1-0.1c0.4,0.5,1.1,0.6,2.2,0.4c1.1-0.2,2-0.1,2.6,0.1
		c0.9-0.3,1.4-0.3,1.6-0.1c0.1,0,0.2,0,0.2-0.1c0,0,0.1-0.1,0.2-0.1c0.2,0.1,0.9,0,2-0.1c1-0.2,1.5-0.4,1.6-0.6h1.5
		c0.2,0,0.4-0.1,0.5-0.2c0.1-0.1,0.3-0.2,0.4-0.2c0.1-0.1,0.3-0.1,0.7-0.1c0.3,0,0.6,0,0.7,0c0.8-0.2,1.2-0.3,1.3-0.3
		c0,0.1,0,0.2,0,0.4c0,0.2,0,0.3,0.1,0.3c0,0.1,0.2,0.1,0.5,0.1c0.3,0,0.6,0,0.7,0.1c-0.1,0.4-0.1,0.6-0.1,0.7
		c0,0.1,0.2,0.1,0.6,0.1c0,0.2,0,0.4,0,0.7c0.1,0.7,0.1,1.1,0,1.3c0,0.1,0,0.3,0.1,0.4c-0.4,0.2-0.7,0.5-0.9,1
		c-0.2,0.5,0,0.7,0.6,0.7c0,0.2-0.2,0.3-0.6,0.3c-0.1,0-0.2,0-0.3,0c-0.1,0.1-0.3,0.3-0.5,0.5c-0.3,0.2-0.4,0.4-0.5,0.5
		c-0.3,0.2-0.7,0.4-1.2,0.6c-0.2,0.2-0.4,0.5-0.7,0.9c-0.3,0.4-0.5,0.8-0.7,1c-0.2,0.2-0.3,0.3-0.4,0.3c-0.2,0-0.3,0-0.4,0
		c-0.1,0-0.2,0.1-0.4,0.4c-0.3,0.1-0.7,0.1-1.2,0.1c-0.5,0-1,0-1.2,0.1c-0.1,0-0.1,0.1-0.1,0.4c-0.2,0-0.5,0-1-0.1
		c-0.4,0-0.7,0-0.8,0.1c0,0.1,0,0.2,0,0.4c-0.9,0.1-1.4,0-1.6-0.1c-0.5,0-1.2,0-2.1-0.1c-0.9,0-1.6,0-2,0.1c-0.6,0.1-0.9,0.1-1,0
		c-0.3,0-0.8-0.1-1.5-0.3c-0.7-0.2-1.1-0.2-1.3,0c-0.4-0.2-0.6-0.4-0.7-0.6c-0.1,0-0.2,0-0.4,0.1C90.8,63,90.6,63,90.5,63
		c-0.2-0.1-0.5-0.3-0.9-0.6c-0.1,0-0.2,0-0.3,0c-0.1,0-0.2,0-0.2-0.1c0,0-0.2-0.1-0.4-0.3c-0.2-0.1-0.4-0.2-0.6-0.1
		c-0.1-0.2-0.3-0.4-0.7-0.5c-0.3-0.1-0.5-0.3-0.5-0.4c-0.1,0-0.2,0-0.3,0.1c-0.1,0.1-0.2,0.1-0.3,0.1c0-0.1,0-0.2-0.1-0.4
		c0-0.1-0.1-0.2-0.2-0.3c-0.1,0-0.2,0-0.4,0.1c-1.1-1.3-2-2.2-2.8-2.8c-0.1-0.2-0.3-0.5-0.4-0.9c-0.1,0-0.2,0-0.3,0.1
		c-0.1,0.1-0.2,0.1-0.3,0c0-0.4-0.2-0.7-0.6-0.9v-0.4c0-0.1-0.1-0.2-0.4-0.4c0-0.3-0.1-0.6-0.4-0.9c-0.3-0.3-0.4-0.6-0.4-0.9
		c-0.1-0.1-0.2-0.2-0.3-0.4c-0.1-0.1-0.2-0.3-0.3-0.4c0-0.4-0.1-0.7-0.4-1c0.1-0.3,0.1-0.7,0-1.2c-0.1-0.5-0.1-0.8-0.1-0.9
		c0-0.8,0-1.2-0.1-1.2c0,0-0.1-0.1-0.2-0.1s-0.2,0-0.3,0c0-0.2,0.1-0.3,0.4-0.4c0.2-0.3,0.3-0.7,0.3-1.2c0-0.5,0-0.9,0-1.3
		c0.1,0,0.2-0.1,0.4-0.4c0.1-0.3,0.2-0.5,0.2-0.7c0.3-0.4,0.6-0.9,0.8-1.7c0.2-0.7,0.4-1.2,0.5-1.4c0.2-0.1,0.3-0.3,0.4-0.6
		c0.4-0.3,0.6-0.5,0.7-0.6c0.1-1,0.8-1.9,2-2.8c0-0.1,0-0.2,0-0.2c0,0,0-0.1,0-0.2c0.3-0.2,0.7-0.6,1.3-1.1c0.6-0.5,1.1-1,1.5-1.2
		c0-0.2,0-0.3,0.1-0.4c0,0,0.1,0,0.2,0.1c0.1,0.1,0.2,0.1,0.3,0.1c0.3,0,0.5-0.2,0.6-0.6c0.1-0.4,0.2-0.6,0.3-0.7
		c0.3-0.1,0.5-0.1,0.6-0.1c0.1-0.2,0.2-0.3,0.2-0.4c0,0,0.1-0.1,0.3-0.1c0.1,0,0.2,0,0.2-0.1c0,0,0-0.1,0.1-0.1
		c0.1,0,0.1-0.1,0.1-0.1c0,0,0.1-0.1,0.3-0.1c0.1-0.1,0.2-0.2,0.4-0.4c0.1-0.1,0.3-0.3,0.4-0.4c0-0.1,0-0.2,0-0.4
		c0.1,0,0.2,0.1,0.3,0.1c0.1,0.1,0.2,0.1,0.3,0.1l1.5-1c0.1,0,0.4,0,0.9,0c0.1,0,0.1-0.1,0.1-0.2c0-0.1,0-0.3,0-0.4
		c0.5,0.1,0.9,0,1.3-0.4c0.4-0.3,0.6-0.5,0.7-0.5c0.1,0,0.2,0,0.2,0.1c0,0.1,0.1,0.1,0.2,0.1c0.1,0.1,0.4,0.1,1-0.1
		c0.1,0,0.2,0,0.4,0c0.1,0,0.2,0,0.4-0.1c0.1-0.1,0.3-0.1,0.4-0.1c0.2-0.1,0.6-0.1,1.3-0.1c0.7,0.1,1.1,0.1,1.2,0.1
		c0.1,0.1,0.2,0.2,0.4,0.4s0.3,0.2,0.5,0.2c0.1,0.2,0.3,0.3,0.6,0.4c0.1,0.5,0.3,0.9,0.7,1.3c0.4,0.4,0.6,0.7,0.7,0.9
		c0,0.3,0.1,0.7,0.3,1.1c0.2,0.4,0.3,0.7,0.3,0.8c0,0.1-0.1,0.3-0.4,0.7c0,0.6-0.1,1-0.3,1.3c-0.2,0.2-0.3,0.3-0.3,0.4
		c0,0.1,0.1,0.2,0.2,0.4C104.1,36.7,104.1,36.8,104.1,36.9z"/>
	<path fill="#E0BFE3" d="M122,10.7c-0.1-0.5,0.3-0.6,1.2-0.4c0.1,0.3,0.4,0.6,0.9,0.9c0.1,0,0.2,0,0.3-0.1c0.1,0,0.2,0.1,0.3,0.1
		c0.1,0,0.4,0,0.8,0c0.4,0,0.7,0,0.7,0.1c0,0,0,0.2,0.1,0.4c0,0.2,0.1,0.4,0.2,0.4c0.1,0,0.1-0.1,0.1-0.2c0-0.1,0-0.3,0.1-0.4
		c0.1,0,0.1,0.1,0.1,0.3s0,0.3,0.1,0.3c-0.1,0.3,0,0.5,0.2,0.7c0.2,0.2,0.3,0.4,0.2,0.6c0.1,0.1,0.2,0.2,0.3,0.2
		c0.1,0.1,0.2,0.1,0.3,0.2v0.6c0.1,0.1,0.2,0.2,0.3,0.2c0.1,0.1,0.2,0.1,0.3,0.2c0,0.2-0.1,0.5-0.1,1c-0.1,1,0.1,1.5,0.6,1.6
		c0,0.1,0,0.3-0.1,0.6c0.2,0.2,0.2,0.5,0.1,1c-0.1,0.5-0.1,0.8,0.1,0.9l0.4,0.1c0,1.4,0.1,2.1,0.3,2.3c0,0.8,0.1,1.3,0.3,1.5
		c0.3,0,0.4,0,0.4,0.1c0,0.1-0.1,0.3-0.3,0.7c0.1,1.4,0.3,2.1,0.6,2.3c-0.1,0.4,0,0.7,0.4,0.9c-0.1,0.9-0.1,1.5,0.1,1.9
		c-0.3,0.5-0.2,1,0.3,1.5c-0.1,1,0,1.6,0.4,1.9c-0.1,0.3,0,0.7,0.4,1.2c-0.1,0.5,0,0.8,0.1,0.9c0.9-0.5,1.6-1.2,2-2
		c0.1,0,0.2,0,0.3,0c0.2-0.1,0.4-0.4,0.7-0.9c0.2-0.5,0.5-0.8,0.8-0.9c0.1-0.2,0.3-0.4,0.6-0.7c0.3-0.3,0.5-0.6,0.6-0.9
		c0-0.1,0-0.2,0.1-0.3c0.1-0.1,0.2-0.2,0.3-0.3v-0.4c0.1-0.1,0.2-0.3,0.4-0.6c0-0.1,0-0.3,0-0.6s0-0.5,0-0.6
		c0.2-0.2,0.3-0.5,0.4-0.9c0.2,0,0.3-0.6,0.4-1.9c-0.2-0.1-0.3-0.2-0.3-0.3v-0.6c0.2-0.2,0.3-0.4,0.2-0.7c-0.1-0.3-0.2-0.5-0.4-0.6
		c0-0.1,0.1-0.2,0.1-0.3c0.1-0.1,0.1-0.2,0.1-0.3c-0.4-0.4-0.5-0.6-0.4-0.7c0-0.1,0.1-0.1,0.3,0c0.3-0.6,0.5-0.9,0.7-0.9
		c0.1-0.3,0.1-0.6-0.1-0.8c-0.1-0.2-0.2-0.5-0.2-0.7c0.2,0,0.4,0,0.5,0.1c0.1,0,0.3,0.1,0.4,0.1c0.1-0.1,0.2-0.2,0.3-0.4
		c0.1-0.2,0.2-0.3,0.3-0.4c0.2,0,0.4,0,0.6-0.1c0.1-0.1,0.2-0.1,0.3-0.1c0.2,0.3,0.5,0.4,1,0.3c0.4-0.1,0.7-0.3,0.7-0.7
		c0.1,0,0.2,0,0.4,0l0.1,0.7l0.7-0.3c0.1,0.4,0.2,0.6,0.3,0.6c0.2-0.1,0.5,0,0.9,0.1c0.4-0.2,0.7-0.2,0.9-0.1c0.1,0.5,0.5,0.8,1.3,1
		c0.1,0,0.1,0.1,0.1,0.2c0,0.1,0,0.2,0,0.3s0,0.1,0.1,0.2c0.1,0.1,0.1,0.3,0.1,0.6c0,0.5,0.2,0.7,0.6,0.6c0.1,0.1,0.1,0.2,0.1,0.4
		c0,0.1,0,0.2,0,0.3c-0.4,0.2-0.5,0.6-0.4,1.3c0.1,0.1,0.2,0.2,0.4,0.4c0.1,0.2,0.2,0.4,0.2,0.6c0.1,0,0.2,0,0.3,0.1
		c0.1,0,0.2,0.1,0.3,0.2c0,0.1-0.1,0.2-0.4,0.4c0,0.1,0,0.2,0.1,0.4c-0.3,0.2-0.4,0.4-0.3,0.6c0.1,0.2,0.2,0.3,0.4,0.4
		c0.1,0.1,0,0.2-0.1,0.4c-0.2,0.1-0.3,0.3-0.3,0.4c-0.1,0.2-0.1,0.5-0.1,0.8c0,0.3,0.1,0.6,0.1,0.8c0,0.1,0.1,0.2,0.3,0.3
		c0,0.6,0,0.9-0.1,1c-0.3-0.1-0.4,0-0.4,0.1c0,0.1,0,0.2,0.1,0.4c0,0.2,0,0.3-0.1,0.4h-0.3c-0.3,0-0.4,0.2-0.4,0.6
		c0,0.4,0,0.7-0.1,1c0,0.1-0.1,0.2-0.2,0.3S148,33,148,33.1v0.4c-0.3,0.2-0.5,0.6-0.7,1.2c-0.1,0.6-0.4,1-0.7,1.2c0,0.1,0,0.2,0,0.3
		c-0.2,0.2-0.3,0.4-0.4,0.6c0,0.1,0,0.3-0.1,0.4c0,0.2-0.1,0.3-0.1,0.4c-0.1,0-0.2,0-0.3-0.1c-0.1,0-0.2-0.1-0.3-0.1
		c-0.1-0.1-0.3,0.1-0.7,0.7c0.1,0.2,0.1,0.4-0.1,0.7c-0.1,0.2-0.2,0.5-0.2,0.7H144c0.1,0.2,0.1,0.3,0,0.4c-0.7-0.1-1.1,0.3-1.2,1.2
		c-0.3,0-0.6,0.2-0.9,0.6c-0.2,0.2-0.3,0.3-0.4,0.3c-0.1,0.1-0.2,0.2-0.3,0.2c-0.1,0.1-0.2,0.1-0.2,0.1s-0.1,0.1-0.1,0.2
		c-0.1,0.1-0.1,0.2-0.1,0.2c0,0.1-0.1,0.1-0.2,0.1c-0.1,0-0.1,0-0.1,0.1c0.1,0.2,0.3,0.3,0.5,0.2c0.2,0,0.4-0.1,0.5-0.1
		c0.3,0.3,0.5,0.4,0.6,0.4c0,0.1,0,0.1,0.1,0c0-0.1,0.1-0.1,0.2-0.1c0.1,0,0.2,0,0.3,0c0.3,0,0.5,0,0.7,0c0,0.1,0,0.2-0.1,0.3
		c0.1,0.3,0.5,0.4,1.2,0.4c0.3-0.3,0.6-0.3,0.9-0.1c0.1,0.4,0.2,0.6,0.4,0.6c0.1-0.1,0.7-0.1,1.8-0.1c0,0.1,0,0.2,0,0.3
		c0,0.1,0.2,0.1,0.6,0.1c0.1,0.1,0.2,0.3,0.3,0.6c0.3,0.1,0.5,0,0.6-0.4c0.7,0,1,0.1,1,0.3c0.2,0.1,0.7,0.1,1.6,0.1
		c0.9,0,1.4,0,1.5,0.1c0.1,0,0.2,0,0.2,0c0,0,0.1,0,0.1,0c0,0,0.2,0.1,0.4,0.3c0.4-0.3,0.8-0.4,1.3-0.3c0,0.4,0.1,0.6,0.3,0.7
		c0.2-0.2,0.3-0.3,0.4-0.3c0.3,0.4,0.7,0.5,1.2,0.4c0.6-0.3,0.9-0.4,1-0.3c0.1,0,0.1,0.1,0,0.3c0.3,0.3,0.7,0.2,1.3-0.3h1
		c0,0.1,0,0.2-0.1,0.3c0.3,0.4,0.6,0.4,1,0.1c0.1,0.1,0.2,0.2,0.2,0.2c0,0.1,0.1,0.1,0.2,0.1c0.1,0,0.3-0.1,0.5-0.2
		c0.2-0.1,0.4-0.1,0.4,0.1c0.1,0,0.1,0,0.1,0.1c-0.1,0.1-0.1,0.1-0.1,0.2c0.1,0.1,0.3,0.2,0.7,0.4c0.3,0.1,0.6,0.3,0.7,0.4
		c0,0.1,0,0.1,0.1,0c0-0.1,0.1-0.1,0.2-0.1c0.1,0.1,0.2,0.3,0.4,0.7c0.2,0.3,0.4,0.6,0.6,0.7c0,0.2,0,0.3-0.1,0.4
		c0.7,0.4,0.9,0.9,0.6,1.5c0,0.1,0.1,0.2,0.3,0.4c0.2,0.1,0.3,0.3,0.3,0.4c0,0.1,0,0.3-0.1,0.5c-0.1,0.2,0,0.4,0.1,0.5
		c-0.5,0-0.9,0.2-1.2,0.6c0.2,0.2,0.2,0.3,0.1,0.4c-0.2,0.1-0.4,0.1-0.6-0.1c-0.3,0.4-0.4,0.8-0.3,1.3c-0.1,0.1-0.3,0.1-0.5-0.1
		c-0.3-0.1-0.5-0.1-0.7,0c-0.2,0.1-0.5,0.6-0.9,1.2c-0.1,0-0.2,0-0.4-0.1c-0.3,0.2-0.9,0.3-1.8,0.2c-0.9,0-1.6,0-2,0.1
		c-0.1,0.1-0.2,0.2-0.3,0.4c-0.1-0.1-0.2-0.2-0.3-0.4c-0.1-0.1-0.2-0.2-0.3-0.2c-0.3,0-0.7,0-1.2-0.1c-0.5-0.1-0.8-0.1-1,0
		c-0.2-0.1-0.5-0.2-0.9-0.2c-0.4,0-0.7,0-0.9,0.2c-0.1,0-0.6,0-1.6,0c-0.1,0-0.1-0.1,0-0.3c0-0.2-0.1-0.3-0.3-0.3s-0.3,0-0.4,0.1
		c0,0.1,0,0.2,0.1,0.2c0,0.1,0.1,0.1,0.1,0.2c-0.1,0.1-0.3,0.1-0.7,0c0-0.1,0-0.2,0.1-0.3c-0.1-0.1-0.3-0.2-0.7-0.4
		c-0.4-0.1-0.6-0.3-0.7-0.4c-0.3,0.2-0.7,0.1-1.3-0.1c-0.4,0.4-0.7,0.4-1,0c-0.3,0-0.7,0-1.3,0c-0.6,0-0.9,0.1-1,0.1h-0.7l-0.1-0.1
		c-0.2,0.1-0.3,0.1-0.4,0.1c-0.1-0.4-0.5-0.5-1.2-0.4c-0.6,0-1,0-1.2-0.1l-0.1-0.3H139c-0.1-0.1-0.1-0.2-0.1-0.3
		c0-0.1-0.1-0.2-0.1-0.3c-0.2-0.1-0.4-0.1-0.6,0.1c-0.2,0.1-0.4,0.2-0.6,0.2c0.1-0.5,0-0.7-0.3-0.7c-0.3,0.2-0.5,0.2-0.7,0.1
		l0.1-0.3c-0.1-0.3-0.3-0.3-0.6,0c0.2,0.1,0.3,0.2,0.3,0.3c-0.1,0.1-0.2,0.1-0.4,0c-0.1,0-0.1-0.1,0-0.3c0-0.1-0.1-0.2-0.4-0.3
		c-0.3,0-0.4,0.3-0.4,0.9s0,1,0,1.3c-0.5,0-0.7,0.5-0.6,1.5c0.1,0.5,0.1,0.8,0,1l-0.3,0.1c-0.1,0.2-0.2,0.5-0.2,0.9
		c-0.1,0.4-0.1,0.8-0.1,1c-0.3,0.1-0.3,0.3-0.1,0.7c0,0.1,0,0.2,0,0.3h-0.1h-0.1c-0.1,0.1-0.2,0.3-0.4,0.5c-0.1,0.2-0.3,0.4-0.4,0.5
		c0,0.3-0.1,0.6-0.4,0.8c-0.2,0.2-0.4,0.4-0.4,0.5c-0.1,0.1-0.2,0.1-0.3,0c-0.1-0.1-0.2-0.1-0.3-0.1c-0.5,0.6-0.9,0.8-1.2,0.6
		c-0.4,0-0.4,0.2-0.1,0.6c-0.1,0.2-0.5,0.3-1.3,0.3c-0.1,0-0.2,0-0.2,0.1c0,0.1-0.1,0.1-0.2,0.1c-0.2,0-0.4-0.1-0.7-0.3
		c-0.3-0.2-0.5-0.3-0.7-0.3c0-0.3-0.1-0.4-0.1-0.4h-0.6c-0.1-0.1-0.1-0.2-0.1-0.2c0.1,0,0.1-0.1,0.1-0.2l-0.3-0.1
		c0-0.3-0.2-0.7-0.7-1.3c0.1-0.2,0.1-0.3,0-0.4c-0.1-0.1-0.2-0.1-0.4-0.1c-0.1-0.4-0.1-0.6,0-0.6c0-0.2-0.1-0.4-0.3-0.6
		c-0.1-0.2-0.1-0.5-0.1-0.9c0-0.4,0.1-0.7,0.1-0.8c0-0.1-0.1-0.2-0.2-0.4c-0.1-0.1-0.2-0.3-0.1-0.5c0.2,0.1,0.3,0.1,0.4,0
		c0.3-0.2,0.4-0.5,0.3-0.9c0-0.1-0.1-0.2-0.1-0.3c-0.1-0.1-0.1-0.2-0.1-0.3c0-0.1,0.1-0.6,0.1-1.6h0.3c0.5-2,0.5-3.5,0-4.5
		c-0.2,0.1-0.3,0.1-0.3,0c0-0.1,0-0.2-0.1-0.4c0-0.4,0.1-0.6,0.1-0.7c0.2,0.1,0.3,0.1,0.3,0c0-0.2,0-0.2-0.1-0.1h-0.1
		c-0.1-0.4-0.1-0.9-0.1-1.6c0-0.1,0.1-0.2,0.1-0.4c0.1-0.6-0.1-0.9-0.6-0.9v-0.3c0-0.1,0-0.1,0.1-0.1c0.1,0,0.2,0.1,0.3,0.1
		c0.1-0.1,0.1-0.2,0.1-0.4c0-0.1,0-0.2-0.1-0.2c-0.1,0-0.2,0-0.2,0c-0.1,0-0.1,0-0.2,0c-0.1-0.2-0.1-0.4-0.1-0.7
		c0-0.2,0.2-0.4,0.4-0.5c0-1.1-0.1-1.8-0.4-2c-0.1-0.1-0.1-0.3,0-0.7c-0.3-0.1-0.4-0.2-0.4-0.3c0.1-0.1,0.2-0.2,0.3-0.4
		c0.1-0.1,0.1-0.3,0.1-0.5c-0.1-0.1-0.2-0.2-0.4-0.3c-0.1-0.1-0.2-0.2-0.2-0.3c0.2-0.8,0-1.2-0.4-1.2c-0.1-0.2-0.1-0.4-0.1-0.6
		c0-0.2,0-0.3-0.1-0.4c-0.1-0.2-0.1-0.3-0.1-0.4c-0.1-0.1-0.1-0.3-0.1-0.6c0-0.6-0.2-0.9-0.6-1c0-0.1,0-0.2-0.1-0.4
		c-0.1-0.1,0-0.3,0.1-0.4c0.1-0.2,0.1-0.3,0.1-0.4c0.1-0.2,0.1-0.5,0-0.9c0-0.4-0.2-0.6-0.7-0.7c0-0.1,0-0.2,0-0.4
		c0.3-0.1,0.4-0.3,0.3-0.7c0-0.1-0.2-0.2-0.7-0.4c0-0.1,0-0.2,0.1-0.2c0-0.1,0.1-0.1,0.2-0.1c0-1.3-0.2-1.9-0.6-2
		c-0.1-0.2-0.1-0.4,0-0.7c0.1-0.3,0.1-0.5,0-0.6c0-0.1-0.1-0.2-0.1-0.4c-0.1-0.2-0.2-0.3-0.3-0.4c0-0.1,0-0.3,0-0.5
		c0-0.2,0-0.4,0-0.5l-0.4-0.3c-0.2-0.1-0.2-0.3-0.1-0.6c0.1-0.3,0.2-0.5,0.3-0.6c0-0.1-0.2-0.4-0.6-1c-0.4-0.6-0.4-1,0-1.2
		c0-0.3-0.2-0.5-0.7-0.7v-2c0.3-0.2,0.4-0.5,0.3-0.8c-0.1-0.3-0.3-0.5-0.7-0.4c0-0.1,0-0.2,0.1-0.3c0.1-0.1,0.1-0.2,0.1-0.3v-1
		c-0.2-0.2-0.3-0.3-0.3-0.4l0.3-1.3c0.3-0.2,0.4-0.3,0.4-0.4c0-0.8,0.2-1.2,0.7-1.2c0.3-0.2,0.5-0.5,0.6-1
		C120.3,10.7,120.9,10.7,122,10.7z M123.2,10.3c0.1,0.3,0.4,0.6,0.9,0.9c0.1,0,0.2,0,0.3-0.1c0.1,0,0.2,0.1,0.3,0.1
		c0.1,0,0.4,0,0.8,0c0.4,0,0.7,0,0.7,0.1c0,0,0,0.2,0.1,0.4c0,0.2,0.1,0.4,0.2,0.4c0.1,0,0.1-0.1,0.1-0.2c0-0.1,0-0.3,0.1-0.4
		c0.1,0,0.1,0.1,0.1,0.3s0,0.3,0.1,0.3c-0.1,0.3,0,0.5,0.2,0.7c0.2,0.2,0.3,0.4,0.2,0.6c0.1,0.1,0.2,0.2,0.3,0.2
		c0.1,0.1,0.2,0.1,0.3,0.2v0.6c0,0.1,0.1,0.2,0.2,0.2c0.1,0.1,0.3,0.1,0.4,0.2c0,0.2-0.1,0.5-0.1,1c-0.1,1,0.1,1.5,0.6,1.6
		c0,0.1,0,0.3-0.1,0.6c0.2,0.2,0.2,0.5,0.1,1c-0.1,0.5-0.1,0.8,0.1,0.9l0.4,0.1c0,1.4,0.1,2.1,0.3,2.3c0,0.8,0.1,1.3,0.3,1.5
		c0.3,0,0.4,0,0.4,0.1c0,0.1-0.1,0.3-0.3,0.7c0.1,1.4,0.3,2.1,0.6,2.2c-0.1,0.5,0,0.8,0.4,1c-0.1,0.9-0.1,1.5,0.1,1.8
		c-0.3,0.6-0.2,1.1,0.3,1.6c-0.1,1,0,1.6,0.4,1.9c-0.1,0.3,0,0.7,0.4,1.2c-0.1,0.5,0,0.8,0.1,0.9c0.9-0.5,1.6-1.2,2-2
		c0.1,0,0.2,0,0.3,0c0.2-0.1,0.4-0.4,0.7-0.9c0.2-0.5,0.5-0.8,0.8-0.9c0.1-0.2,0.3-0.4,0.6-0.7c0.3-0.3,0.5-0.6,0.6-0.9
		c0-0.1,0-0.2,0.1-0.3c0.1-0.1,0.2-0.2,0.3-0.3v-0.4c0.1-0.1,0.2-0.3,0.4-0.6c0-0.1,0-0.3,0-0.6s0-0.5,0-0.7
		c0.2-0.1,0.3-0.3,0.4-0.7c0.2,0,0.3-0.6,0.4-1.9c-0.2-0.1-0.3-0.2-0.3-0.3v-0.6c0.2-0.2,0.3-0.4,0.2-0.7c-0.1-0.3-0.2-0.5-0.4-0.6
		c0-0.1,0.1-0.2,0.1-0.3c0.1-0.1,0.1-0.2,0.1-0.3c-0.4-0.4-0.5-0.6-0.4-0.7c0-0.1,0.1-0.1,0.3,0c0.3-0.6,0.5-0.9,0.7-0.9
		c0.1-0.3,0.1-0.6-0.1-0.8c-0.1-0.2-0.2-0.5-0.2-0.7c0.2,0,0.4,0,0.5,0.1c0.1,0,0.3,0.1,0.4,0.1c0.1-0.1,0.2-0.2,0.3-0.4
		c0.1-0.2,0.2-0.3,0.3-0.4c0.2,0,0.4,0,0.6-0.1c0.1-0.1,0.2-0.1,0.3-0.1c0.2,0.3,0.5,0.4,1,0.3c0.4-0.1,0.7-0.3,0.7-0.7
		c0.1,0,0.2,0,0.4,0l0.1,0.7l0.7-0.3c0.1,0.4,0.2,0.6,0.3,0.6c0.2-0.1,0.5,0,0.9,0.1c0.4-0.2,0.7-0.2,0.9-0.1c0.1,0.5,0.5,0.8,1.3,1
		c0.1,0,0.1,0.1,0.1,0.2c0,0.1,0,0.2,0,0.3s0,0.1,0.1,0.2c0.1,0.1,0.1,0.3,0.1,0.6c0,0.5,0.2,0.7,0.6,0.6c0.1,0.1,0.1,0.2,0.1,0.4
		c0,0.1,0,0.2,0,0.3c-0.4,0.2-0.5,0.6-0.4,1.3c0.1,0.1,0.2,0.2,0.4,0.4c0.1,0.2,0.2,0.4,0.2,0.6c0.1,0,0.2,0,0.3,0.1
		c0.1,0,0.2,0.1,0.3,0.2c0,0.1-0.1,0.2-0.4,0.4c0,0.1,0,0.2,0.1,0.4c-0.3,0.2-0.4,0.4-0.3,0.6c0.1,0.2,0.2,0.3,0.4,0.4
		c0.1,0.1,0,0.2-0.1,0.4c-0.2,0.1-0.3,0.3-0.3,0.4c-0.1,0.2-0.1,0.5-0.1,0.8c0,0.3,0.1,0.6,0.1,0.8c0,0.1,0.1,0.2,0.3,0.3
		c0,0.6,0,0.9-0.1,0.9c-0.3,0-0.4,0.1-0.4,0.3c0,0.1,0,0.2,0.1,0.4c0,0.2,0,0.3-0.1,0.4h-0.3c-0.3,0-0.4,0.2-0.4,0.6
		c0,0.4,0,0.7-0.1,1c0,0.1-0.1,0.2-0.2,0.3S148,33,148,33.1v0.4c-0.3,0.2-0.5,0.6-0.7,1.2c-0.1,0.6-0.4,1-0.7,1.2c0,0.1,0,0.2,0,0.3
		c-0.2,0.2-0.3,0.4-0.4,0.6c0,0.1,0,0.3-0.1,0.4c0,0.2-0.1,0.3-0.1,0.4c-0.1,0-0.2,0-0.3-0.1c-0.1,0-0.2-0.1-0.3-0.2
		c-0.1,0-0.3,0.3-0.7,0.9c0.1,0.2,0.1,0.4-0.1,0.7c-0.1,0.2-0.2,0.5-0.2,0.7H144c0.1,0.2,0.1,0.3,0,0.4c-0.7-0.1-1.1,0.3-1.2,1.2
		c-0.3,0-0.6,0.2-0.9,0.6c-0.2,0.2-0.3,0.3-0.4,0.3c-0.1,0.1-0.2,0.2-0.3,0.2c-0.1,0.1-0.2,0.1-0.2,0.1s-0.1,0.1-0.1,0.2
		c-0.1,0.1-0.1,0.2-0.1,0.2c0,0.1-0.1,0.1-0.2,0.1c-0.1,0-0.1,0-0.1,0.1c0.1,0.2,0.3,0.3,0.5,0.2c0.2,0,0.4-0.1,0.5-0.1
		c0.3,0.3,0.5,0.4,0.6,0.4c0,0.1,0,0.1,0.1,0c0-0.1,0.1-0.1,0.2-0.1h0.3c0.3,0,0.5,0,0.7,0c0,0.1,0,0.2-0.1,0.3
		c0.1,0.3,0.5,0.4,1.2,0.4c0.3-0.3,0.6-0.3,0.9-0.1c0.1,0.4,0.2,0.6,0.4,0.6c0.1-0.1,0.7-0.1,1.8-0.1c0,0.1,0,0.2,0,0.3
		c0,0.1,0.2,0.1,0.6,0.1c0.1,0.1,0.2,0.3,0.3,0.6c0.3,0.1,0.5,0,0.6-0.4c0.7,0,1,0.1,1,0.3c0.2,0.1,0.7,0.1,1.6,0.1
		c0.9,0,1.4,0,1.5,0.1c0.1,0,0.2,0,0.2,0c0,0,0.1,0,0.1,0c0,0,0.2,0.1,0.4,0.3c0.4-0.3,0.8-0.4,1.3-0.3c0,0.4,0.1,0.6,0.3,0.7
		c0.2-0.2,0.3-0.3,0.4-0.3c0.3,0.4,0.7,0.5,1.2,0.4c0.6-0.3,0.9-0.4,1-0.3c0.1,0,0.1,0.1,0,0.3c0.3,0.3,0.7,0.2,1.3-0.3h1
		c0,0.1,0,0.2-0.1,0.3c0.3,0.4,0.6,0.4,1,0.1c0.1,0.1,0.2,0.2,0.2,0.2c0,0.1,0.1,0.1,0.2,0.1c0.1,0,0.3-0.1,0.5-0.2
		c0.2-0.1,0.4-0.1,0.4,0.1c0.1,0,0.1,0,0.1,0.1c-0.1,0.1-0.1,0.1-0.1,0.2c0.1,0.1,0.3,0.2,0.7,0.4c0.3,0.1,0.6,0.3,0.7,0.4
		c0,0.1,0,0.1,0.1,0c0-0.1,0.1-0.1,0.2-0.1c0.1,0.1,0.2,0.3,0.4,0.7c0.2,0.3,0.4,0.6,0.6,0.7c0,0.2,0,0.3-0.1,0.4
		c0.7,0.4,0.9,0.9,0.6,1.5c0,0.1,0.1,0.2,0.3,0.4c0.2,0.1,0.3,0.3,0.3,0.4c0,0.1,0,0.3-0.1,0.5c-0.1,0.2,0,0.4,0.1,0.5
		c-0.5,0-0.9,0.2-1.2,0.6c0.2,0.2,0.2,0.3,0.1,0.4c-0.2,0.1-0.4,0.1-0.6-0.1c-0.3,0.4-0.4,0.8-0.3,1.3c-0.1,0.1-0.3,0.1-0.5-0.1
		c-0.3-0.1-0.5-0.1-0.7,0c-0.2,0.1-0.5,0.6-0.9,1.2c-0.1,0-0.2,0-0.4-0.1c-0.3,0.2-0.9,0.3-1.8,0.2c-0.9,0-1.6,0-2,0.1
		c-0.1,0.1-0.2,0.2-0.3,0.4c-0.1-0.1-0.2-0.2-0.3-0.4c-0.1-0.1-0.2-0.2-0.3-0.2c-0.3,0-0.7,0-1.2-0.1c-0.5-0.1-0.8-0.1-1,0
		c-0.2-0.1-0.5-0.2-0.9-0.2c-0.4,0-0.7,0-0.9,0.2c-0.1,0-0.6,0-1.6,0c-0.1,0-0.1-0.1,0-0.3c0-0.2-0.1-0.3-0.3-0.3s-0.3,0-0.4,0.1
		c0,0.1,0,0.2,0.1,0.2c0,0.1,0.1,0.1,0.1,0.2c-0.1,0.1-0.3,0.1-0.7,0c0-0.1,0-0.2,0.1-0.3c-0.1-0.1-0.3-0.2-0.7-0.4
		c-0.4-0.1-0.6-0.3-0.7-0.4c-0.3,0.2-0.7,0.1-1.3-0.1c-0.4,0.4-0.7,0.4-1,0c-0.3,0-0.7,0-1.3,0c-0.6,0-0.9,0.1-1,0.1h-0.7l-0.1-0.1
		c-0.2,0.1-0.3,0.1-0.4,0.1c-0.1-0.4-0.5-0.6-1.2-0.6c-0.6,0.1-1,0.1-1.2,0l-0.1-0.3H139c-0.1-0.1-0.1-0.2-0.1-0.3
		c0-0.1-0.1-0.2-0.1-0.3c-0.2-0.1-0.4-0.1-0.6,0.1c-0.2,0.1-0.4,0.2-0.6,0.2c0.1-0.5,0-0.7-0.3-0.7c-0.3,0.2-0.5,0.2-0.7,0.1
		l0.1-0.3c-0.1-0.3-0.3-0.3-0.6,0c0.2,0.1,0.3,0.2,0.3,0.3c-0.1,0.1-0.2,0.1-0.4,0c-0.1,0-0.1-0.1,0-0.3c0-0.1-0.1-0.2-0.4-0.3
		c-0.3,0-0.4,0.3-0.4,0.9s0,1,0,1.3c-0.5,0-0.7,0.5-0.6,1.5c0.1,0.5,0.1,0.8,0,1l-0.3,0.1c-0.1,0.2-0.2,0.5-0.2,0.9
		c-0.1,0.4-0.1,0.8-0.1,1c-0.3,0.1-0.3,0.3-0.1,0.7c0,0.1,0,0.2,0,0.3h-0.1h-0.1c-0.1,0.1-0.2,0.3-0.4,0.5c-0.1,0.2-0.3,0.4-0.4,0.5
		c0,0.3-0.1,0.6-0.4,0.8c-0.2,0.2-0.4,0.4-0.4,0.5c-0.1,0.1-0.2,0.1-0.3,0c-0.1-0.1-0.2-0.1-0.3-0.1c-0.5,0.6-0.9,0.7-1.2,0.4
		c-0.4,0.1-0.4,0.3-0.1,0.7c-0.1,0.2-0.5,0.3-1.3,0.3c-0.1,0-0.2,0-0.2,0.1c0,0.1-0.1,0.1-0.2,0.1c-0.2,0-0.4-0.1-0.7-0.3
		c-0.3-0.2-0.5-0.3-0.7-0.3c0-0.3-0.1-0.4-0.1-0.4h-0.6c-0.1-0.1-0.1-0.2-0.1-0.2c0.1,0,0.1-0.1,0.1-0.2l-0.3-0.1
		c0-0.3-0.2-0.7-0.7-1.3c0.1-0.2,0.1-0.3,0-0.4c-0.1-0.1-0.2-0.1-0.4-0.1c-0.1-0.4-0.1-0.6,0-0.6c0-0.2-0.1-0.4-0.3-0.6
		c-0.1-0.2-0.1-0.5-0.1-0.9c0-0.4,0.1-0.7,0.1-0.8c0-0.1-0.1-0.2-0.2-0.4c-0.1-0.1-0.2-0.3-0.1-0.5c0.2,0.1,0.3,0.1,0.4,0
		c0.3-0.2,0.4-0.5,0.3-0.9c0-0.1-0.1-0.2-0.1-0.3c-0.1-0.1-0.1-0.2-0.1-0.3c0-0.1,0.1-0.6,0.1-1.6h0.3c0.5-2,0.5-3.5,0-4.5
		c-0.2,0.1-0.3,0.1-0.3,0c0-0.1,0-0.2-0.1-0.4c0-0.4,0.1-0.6,0.1-0.7c0.2,0.1,0.3,0.1,0.3,0c0-0.2,0-0.2-0.1-0.1h-0.1
		c-0.1-0.4-0.1-0.9-0.1-1.6c0-0.1,0.1-0.2,0.1-0.4c0.1-0.6-0.1-0.9-0.6-0.9v-0.3c0-0.1,0-0.1,0.1-0.1c0.1,0,0.2,0.1,0.3,0.1
		c0.1-0.1,0.1-0.2,0.1-0.4c0-0.1,0-0.2-0.1-0.2c-0.1,0-0.2,0-0.2,0c-0.1,0-0.1,0-0.2,0c-0.1-0.2-0.1-0.4-0.1-0.7
		c0-0.2,0.2-0.4,0.4-0.5c0-1.1-0.1-1.8-0.4-2c-0.1-0.1-0.1-0.3,0-0.7c0-0.1-0.1-0.1-0.2-0.1c-0.1,0-0.2,0-0.2-0.1
		c0.1-0.1,0.2-0.2,0.3-0.4c0.1-0.1,0.1-0.3,0.1-0.5c-0.1-0.1-0.2-0.2-0.4-0.3c-0.1-0.1-0.2-0.2-0.2-0.3c0.2-0.8,0-1.2-0.4-1.2
		c-0.1-0.2-0.1-0.4-0.1-0.6c0-0.2,0-0.3-0.1-0.4c-0.1-0.2-0.1-0.3-0.1-0.4c-0.1-0.1-0.1-0.3-0.1-0.6c0-0.6-0.2-0.9-0.6-1
		c0-0.1,0-0.2-0.1-0.4c-0.1-0.1,0-0.3,0.1-0.4c0.1-0.2,0.1-0.3,0.1-0.4c0.1-0.2,0.1-0.5,0-0.9c0-0.4-0.2-0.6-0.7-0.7
		c0-0.1,0-0.2,0-0.4c0.3-0.1,0.4-0.3,0.3-0.7c0-0.1-0.2-0.2-0.7-0.4c0-0.1,0-0.2,0.1-0.2c0-0.1,0.1-0.1,0.2-0.1c0-1.3-0.2-1.9-0.6-2
		c-0.1-0.2-0.1-0.4,0-0.7c0.1-0.3,0.1-0.5,0-0.6c0-0.1-0.1-0.2-0.1-0.4c-0.1-0.2-0.2-0.3-0.3-0.4c0-0.1,0-0.3,0-0.5
		c0-0.2,0-0.4,0-0.5l-0.4-0.3c-0.2-0.1-0.2-0.3-0.1-0.6c0.1-0.3,0.1-0.5,0.1-0.6c0.1-0.1,0-0.4-0.4-1c-0.4-0.6-0.4-1,0-1.2
		c0-0.3-0.2-0.5-0.7-0.7v-2c0.3-0.2,0.4-0.5,0.3-0.8c-0.1-0.3-0.3-0.5-0.7-0.4c0-0.1,0-0.2,0.1-0.3c0.1-0.1,0.1-0.2,0.1-0.3v-1
		c-0.2-0.2-0.3-0.3-0.3-0.4l0.3-1.3c0.3-0.2,0.4-0.3,0.4-0.4c0-0.8,0.2-1.2,0.7-1.2c0.3-0.2,0.5-0.5,0.6-1c0.2,0,0.8,0,1.9,0
		C121.9,10.3,122.3,10.1,123.2,10.3z M143.7,39.9c0.1,0,0.1-0.1,0.1-0.3h-0.1V39.9z M143.7,39.6v0.3c0.1,0,0.1-0.1,0.1-0.3H143.7z
		 M155.7,46c-0.1,0-0.2,0-0.2-0.1c0,0,0-0.1,0.1-0.2c0.1,0,0.1,0,0.1,0.1s0,0.1,0.1,0.1C155.8,45.9,155.8,45.9,155.7,46z
		 M155.5,45.7c0.1,0,0.1,0,0.1,0.1s0,0.1,0.1,0.1c0,0,0,0.1-0.1,0.1c-0.1,0-0.2,0-0.2-0.1C155.4,45.9,155.4,45.8,155.5,45.7z
		 M161.5,56.4c0-0.1,0.1-0.2,0.3-0.2s0.3,0,0.3,0.2C161.8,56.6,161.6,56.6,161.5,56.4z M162.1,56.4c-0.3,0.2-0.5,0.2-0.6,0
		c0-0.1,0.1-0.2,0.3-0.2S162.1,56.2,162.1,56.4z"/>
	<path fill="#E0BFE3" d="M194.7,32c0.1,0,0.1,0.1,0.1,0.1c0,0.1-0.1,0.2-0.1,0.3c0.8,0.8,1.5,1.1,2,1c0,0.3,0.1,0.6,0.4,0.9
		c0.2,0.2,0.3,0.3,0.4,0.4c0.2-0.1,0.3-0.1,0.4,0c0,0.1,0,0.2,0,0.2c0,0.1,0,0.1,0,0.2c0.3,0.4,0.8,0.9,1.5,1.5
		c0.7,0.6,1.1,1.1,1.3,1.5c0.1,0,0.1,0.1,0.1,0.3l1.8,1.9c0,0.3,0,0.4,0.1,0.4c0.1,0,0.2,0,0.3-0.1c0.1,0,0.2,0,0.3,0.1
		c0,0.3,0.1,0.6,0.4,1c0.2,0.4,0.4,0.7,0.5,0.9l0.6,0.3c0.1,0,0.1,0.1,0.1,0.2c-0.1,0.1-0.1,0.3-0.1,0.4c0.1,0.1,0.3,0.2,0.5,0.4
		c0.2,0.2,0.4,0.3,0.5,0.3c0,0.1,0,0.2,0.1,0.3c0.1,0.1,0.1,0.2,0.1,0.3c0.1,0.1,0.2,0.2,0.4,0.4c0.1,0.2,0.3,0.3,0.4,0.4
		c0.1,0,0.2,0,0.2,0.1c0,0.1,0.1,0.2,0.1,0.3c0.5,0.6,0.8,1.1,1,1.5c0.1,0.1,0.2,0.2,0.4,0.4c0.2,0.2,0.3,0.3,0.4,0.4
		c0.2,0.4,0.6,0.8,1.2,1.3c0.6,0.5,1,0.9,1.2,1.2l1.5,0.9h0.6c0.4,0.5,0.9,0.7,1.5,0.6c0.1-0.1,0.2-0.2,0.4-0.3s0.3-0.1,0.4-0.1
		c0.2-0.2,0.4-0.3,0.7-0.3c0.6,0,0.9,0,1,0c0.5,0.4,1,0.3,1.6-0.1c0,0.1-0.1,0.2-0.1,0.3c-0.1,0.1-0.1,0.2-0.1,0.3
		c0.1,0.1,0.2,0.2,0.3,0.3c0.4-0.1,0.7,0.1,1,0.5c0.3,0.4,0.6,0.6,0.9,0.5c0.1,0,0.1,0.1,0.1,0.3c0.6,0.4,0.8,0.9,0.6,1.6
		c0.1,0.2,0.2,0.3,0.3,0.3c-0.2,0.2-0.3,0.6-0.4,1.3c-0.1,0.7-0.1,1.1-0.1,1.2c-0.3,0.1-0.6,0.3-0.9,0.7c-0.3,0.3-0.5,0.6-0.7,0.7
		c0,0.5,0,0.8,0,0.9c-0.2,0-0.4,0-0.6-0.1c-0.1,0.1-0.3,0.2-0.6,0.3c-0.3,0.1-0.4,0.2-0.4,0.3c-0.1,0.1-0.1,0.2-0.1,0.4
		s-0.1,0.3-0.1,0.4c-0.2,0-0.4,0-0.5-0.1c-0.1-0.1-0.3-0.1-0.4-0.1c-0.3,0.1-0.5,0.1-0.5,0.1c-0.1,0-0.1,0-0.2,0c-0.1,0-0.2,0-0.3,0
		c-0.1,0-0.2,0.1-0.3,0.2c-0.1,0.1-0.2,0.2-0.3,0.2c-0.4-0.1-0.9-0.1-1.4,0.1c-0.5,0.1-1,0.2-1.2,0.1c-0.1,0-0.1-0.1-0.1-0.2
		c0-0.1,0-0.2-0.1-0.2c-0.1,0-0.3,0-0.7,0c-0.4,0-0.7,0-0.9,0c0-0.3-0.1-0.5-0.4-0.6c-0.3-0.1-0.5-0.1-0.7,0
		c-0.1-0.1-0.2-0.1-0.3-0.1c0-0.1-0.1-0.3-0.1-0.6c-0.1,0-0.3,0-0.5,0.1c-0.2,0.1-0.4,0-0.5-0.1c0-0.2-0.2-0.4-0.6-0.6
		c0-0.1-0.1-0.2-0.1-0.3c-0.1-0.1-0.2-0.1-0.3-0.1c-0.3,0.1-0.5,0.1-0.6,0.1c0-0.1,0-0.2,0-0.4l-1.8-1.6h-0.3
		c-0.2-0.1-0.4-0.3-0.6-0.6c-0.2-0.3-0.3-0.5-0.4-0.6c-0.2-0.1-0.3-0.1-0.4-0.1c-0.1-0.1-0.2-0.3-0.4-0.5c-0.1-0.2-0.3-0.4-0.4-0.4
		c-0.6-0.4-0.9-0.7-0.9-1c-0.3,0-0.6-0.1-0.8-0.4c-0.2-0.3-0.4-0.4-0.5-0.4c-0.1-0.7-0.6-1.4-1.5-2.2c-0.1-0.3-0.5-0.9-1.3-1.8
		c-0.1-0.2-0.4-0.5-0.9-0.9c-0.1-0.4-0.4-0.8-0.9-1.3c-0.3-0.3-0.5-0.5-0.6-0.6c0-0.4-0.2-0.8-0.7-1.2c-0.5-0.4-0.8-0.5-1-0.1
		c0,0.1,0,0.2-0.1,0.2s-0.1,0.1-0.1,0.1c0,0.1-0.1,0.1-0.1,0.2c-0.1,0.1-0.1,0.2-0.1,0.4c0,0.1-0.1,0.3-0.1,0.4l-0.1,0.1
		c-0.3,0.5-0.5,0.7-0.6,0.7c0,0.1,0,0.2,0.1,0.3c0.1,0.1,0.1,0.2,0.1,0.3c-0.4,0.5-0.6,1-0.6,1.5c-0.2,0.2-0.4,0.6-0.7,1.2
		c-0.3,0.6-0.5,0.9-0.6,1c0,0.1,0,0.2,0,0.4s0,0.3,0,0.4c0,0.1-0.1,0.2-0.2,0.4c-0.1,0.2-0.2,0.3-0.2,0.4c0,0.1,0,0.2-0.1,0.4
		c0,0.2-0.1,0.3-0.2,0.4c0,0.1,0,0.2-0.1,0.2c-0.1,0.1-0.1,0.1-0.1,0.2c0,1.2-0.1,1.8-0.3,1.9c0,0.1,0.1,0.2,0.3,0.4
		c-0.5,1-0.8,1.8-0.9,2.5c-0.2,0.2-0.5,0.4-0.9,0.7c-0.4,0.3-0.7,0.5-0.9,0.7c-0.7-0.1-1.1,0.2-1.3,0.9c-0.1,0-0.2-0.1-0.2-0.1
		c-0.1-0.1-0.1-0.1-0.1-0.1s-0.1,0.1-0.1,0.1c-0.1,0.1-0.1,0.1-0.2,0.1c-0.2,0-0.4-0.2-0.7-0.7c-0.3-0.4-0.5-0.7-0.7-0.7
		c-0.1,0-0.3,0.1-0.6,0.3c-0.3,0.2-0.5,0.2-0.7,0.1l-0.7-0.7c-0.1-0.4-0.3-0.7-0.7-0.9c-0.1,0-0.2,0-0.2,0.1s-0.1,0.1-0.2,0.1
		c-0.1-0.2-0.3-0.5-0.6-0.8c-0.3-0.3-0.4-0.7-0.4-1.1c0-0.1-0.2-0.2-0.6-0.4v-0.4c0-0.1-0.1-0.2-0.3-0.4l-0.1-0.1
		c0-0.2-0.1-0.4-0.2-0.7c-0.1-0.2-0.2-0.4-0.2-0.4s0-0.2,0-0.4c0-0.2,0-0.3-0.1-0.4c0-0.1-0.1-0.2-0.2-0.2c-0.1,0-0.2-0.1-0.3-0.2
		c0.2-0.5,0-1-0.4-1.5v-1.2c-0.2-0.2-0.3-0.5-0.3-1c-0.1-0.1-0.1-0.2-0.1-0.3c0-0.1,0-0.2,0-0.4c0-0.1,0-0.3,0-0.4
		c0-0.1-0.1-0.2-0.1-0.3c-0.1-0.1-0.1-0.2-0.1-0.3c0-0.1,0-0.2,0-0.4c0-0.1-0.1-0.2-0.1-0.2c0-0.1,0-0.2-0.1-0.2
		c-0.1,0-0.1-0.1-0.1-0.2c-0.1-0.5-0.2-0.8-0.4-0.9l0.1-0.4c0-0.1-0.1-0.2-0.2-0.4c-0.1-0.1-0.2-0.3-0.2-0.4c0-0.1,0-0.3,0-0.6
		c0-0.2-0.1-0.4-0.4-0.6v-0.3c-0.1-0.1-0.3-0.4-0.6-1c0-0.1-0.1-0.2-0.1-0.3c-0.1-0.1-0.2-0.2-0.2-0.3c0-0.1,0-0.2,0-0.4
		c0-0.1,0.1-0.3,0.1-0.4c-0.1-0.1-0.3-0.3-0.5-0.5c-0.2-0.2-0.4-0.4-0.5-0.5c0-0.1,0-0.2,0-0.3c0-0.1-0.1-0.2-0.2-0.3
		c-0.1-0.1-0.2-0.2-0.2-0.3c0-0.1,0.1-0.3,0.3-0.6c0-0.2,0-0.3,0-0.4c0-0.1,0.1-0.3,0.3-0.5s0.3-0.4,0.4-0.4s0.1-0.2,0.1-0.4
		c0-0.2,0-0.3,0-0.4c0.1-0.2,0.3-0.4,0.7-0.6c0.3-0.2,0.6-0.4,0.7-0.6c0.9-0.1,1.4-0.2,1.5-0.3c0-0.2,0-0.3,0-0.4
		c0.1-0.1,0.3-0.2,0.7-0.2c0.4,0,0.6-0.1,0.7-0.2c0.1,0,0.2,0.1,0.2,0.1c0,0.1,0.1,0.1,0.1,0.1c0,0,0.2,0,0.4-0.1
		c0.2,0,0.3,0,0.3,0.1c0.1,0,0.1,0,0.1,0.1c0,0.1,0,0.2,0.1,0.3c0.3-0.1,0.5-0.1,0.6,0c0.7,0.1,1.1,0.4,1.3,1c0.3,0.2,0.6,0.5,1,1
		c0.3-0.1,0.4-0.1,0.4,0c0,0.3,0.2,0.6,0.7,1c0.2,0.1,0.3,0.2,0.4,0.4l0.3,0.7c0,0.4,0.1,0.6,0.3,0.7c0.2,0,0.3-0.1,0.4-0.4
		c0.1,0,0.1-0.1,0.1-0.3c0.3-0.4,0.4-0.6,0.4-0.7c0.4-0.5,0.6-0.8,0.6-1c0.8-0.9,1.2-1.6,1.3-2.2l0.3-0.1c0-0.2,0.2-0.5,0.6-0.9
		c0.1-0.4,0.4-0.8,1-1.3c0-0.1,0-0.2,0-0.4c0.1,0,0.2,0,0.3,0.1c0.1,0,0.2,0.1,0.3,0.1c0.1,0,0.2-0.1,0.4-0.3c0.1,0,0.1,0,0.1-0.1
		c0.6,0,1-0.4,1.3-1.3c0.1,0,0.2,0,0.2,0.1c0,0.1,0.1,0.1,0.2,0.1c0.1-0.2,0.4-0.2,0.8-0.1c0.4,0.1,0.8,0.2,1,0.2
		c0.1,0,0.3,0.1,0.7,0.1C194.3,31.9,194.5,32,194.7,32z M193.3,31.7c0.1,0,0.3,0.1,0.7,0.1c0.3,0.1,0.6,0.1,0.8,0.1
		c0.1,0,0.1,0.1,0.1,0.1c0,0.1-0.1,0.2-0.1,0.3c0.8,0.8,1.5,1.1,2,1c0,0.3,0.1,0.6,0.4,0.9c0.2,0.2,0.3,0.3,0.4,0.4
		c0.2-0.1,0.3-0.1,0.4,0c0,0.1,0,0.2,0,0.2c0,0.1,0,0.1,0,0.2c0.3,0.4,0.8,0.9,1.5,1.5c0.7,0.6,1.1,1.1,1.3,1.5
		c0.1,0,0.1,0.1,0.1,0.3l1.8,1.9c0,0.3,0,0.4,0.1,0.4c0.1,0,0.2,0,0.3-0.1c0.1,0,0.2,0,0.3,0.1c0,0.3,0.1,0.6,0.4,1
		c0.2,0.4,0.4,0.7,0.5,0.9l0.6,0.3c0.1,0,0.1,0.1,0.1,0.2c-0.1,0.1-0.1,0.3-0.1,0.4c0.1,0.1,0.3,0.2,0.5,0.4
		c0.2,0.2,0.4,0.3,0.5,0.3c0,0.1,0,0.2,0.1,0.3c0.1,0.1,0.1,0.2,0.1,0.3c0.1,0.1,0.2,0.2,0.4,0.4c0.1,0.2,0.3,0.3,0.4,0.4
		c0.1,0,0.2,0,0.2,0.1c0,0.1,0.1,0.2,0.1,0.3c0.5,0.6,0.8,1.1,1,1.5c0.1,0.1,0.2,0.2,0.4,0.4c0.2,0.2,0.3,0.3,0.4,0.4
		c0.2,0.4,0.6,0.8,1.2,1.3c0.6,0.5,1,0.9,1.2,1.2l1.5,0.9h0.6c0.4,0.5,0.9,0.7,1.5,0.6c0.1-0.1,0.2-0.2,0.4-0.3s0.3-0.1,0.4-0.1
		c0.2-0.2,0.4-0.3,0.7-0.3c0.6,0,0.9,0,1,0c0.5,0.4,1,0.3,1.6-0.1c0,0.1-0.1,0.2-0.1,0.3c-0.1,0.1-0.1,0.2-0.1,0.3
		c0.1,0.1,0.2,0.2,0.3,0.3c0.4-0.1,0.7,0.1,1,0.5c0.3,0.4,0.6,0.6,0.9,0.5c0.1,0,0.1,0.1,0.1,0.3c0.6,0.5,0.8,1,0.6,1.6
		c0.1,0.2,0.2,0.3,0.3,0.3c-0.2,0.2-0.3,0.6-0.4,1.3c-0.1,0.7-0.1,1.1-0.1,1.2c-0.3,0.1-0.6,0.3-0.9,0.7c-0.3,0.3-0.5,0.6-0.7,0.7
		c0,0.5,0,0.8,0,0.9c-0.2,0-0.4,0-0.6-0.1c-0.1,0.1-0.3,0.2-0.6,0.3c-0.3,0.1-0.4,0.2-0.4,0.3c-0.1,0.1-0.1,0.2-0.1,0.4
		s-0.1,0.3-0.1,0.4c-0.2,0-0.4,0-0.5-0.1c-0.1-0.1-0.3-0.1-0.4-0.1c-0.3,0.1-0.5,0.1-0.5,0.1c-0.1,0-0.1,0-0.2,0c-0.1,0-0.2,0-0.3,0
		c-0.1,0-0.2,0.1-0.3,0.2c-0.1,0.1-0.2,0.2-0.3,0.2c-0.4-0.1-0.9-0.1-1.4,0.1c-0.5,0.1-1,0.2-1.2,0.1c-0.1,0-0.1-0.1-0.1-0.2
		c0-0.1,0-0.2-0.1-0.2c-0.1,0-0.3,0-0.7,0c-0.4,0-0.7,0-0.9,0c0-0.3-0.1-0.5-0.4-0.6c-0.3-0.1-0.5-0.1-0.7,0
		c-0.1-0.1-0.2-0.1-0.3-0.1c0-0.1-0.1-0.3-0.1-0.6c-0.1,0-0.3,0-0.5,0.1c-0.2,0.1-0.4,0-0.5-0.1c0-0.2-0.2-0.4-0.6-0.6
		c0-0.1-0.1-0.2-0.1-0.3c-0.1-0.1-0.2-0.1-0.3-0.1c-0.3,0.1-0.5,0.1-0.6,0.1c0-0.1,0-0.2,0-0.4l-1.8-1.6h-0.3
		c-0.2-0.1-0.4-0.3-0.6-0.6c-0.2-0.3-0.3-0.5-0.4-0.6c-0.2-0.1-0.3-0.1-0.4-0.1c-0.1-0.1-0.2-0.3-0.4-0.5c-0.1-0.2-0.3-0.4-0.4-0.4
		c-0.6-0.4-0.9-0.7-0.9-1c-0.3,0-0.6-0.1-0.8-0.4c-0.2-0.3-0.4-0.4-0.5-0.4c-0.1-0.7-0.6-1.4-1.5-2.2c-0.1-0.3-0.5-0.9-1.3-1.8
		c-0.1-0.2-0.4-0.5-0.9-0.9c-0.1-0.4-0.4-0.8-0.9-1.3c-0.3-0.3-0.5-0.5-0.6-0.6c0-0.4-0.2-0.8-0.7-1.2c-0.5-0.4-0.8-0.5-1-0.1
		c0,0.1,0,0.2-0.1,0.2s-0.1,0.1-0.1,0.1c0,0.1-0.1,0.1-0.1,0.2c-0.1,0.1-0.1,0.2-0.1,0.4c0,0.1-0.1,0.3-0.1,0.4l-0.1,0.1
		c-0.3,0.5-0.5,0.7-0.6,0.7c0,0.1,0,0.2,0.1,0.3c0.1,0.1,0.1,0.2,0.1,0.3c-0.4,0.5-0.6,1-0.6,1.5c-0.2,0.2-0.4,0.6-0.7,1.2
		c-0.3,0.6-0.5,0.9-0.6,1c0,0.1,0,0.2,0,0.4s0,0.3,0,0.4c0,0.1-0.1,0.2-0.2,0.4c-0.1,0.2-0.2,0.3-0.2,0.4c0,0.1,0,0.2-0.1,0.4
		c0,0.2-0.1,0.3-0.2,0.4c0,0.1,0,0.2-0.1,0.2c-0.1,0.1-0.1,0.1-0.1,0.2c0,1.2-0.1,1.8-0.3,1.9c0,0.1,0.1,0.2,0.3,0.4
		c-0.5,1-0.8,1.8-0.9,2.5c-0.2,0.2-0.5,0.4-0.9,0.7c-0.4,0.3-0.7,0.5-0.9,0.7c-0.7-0.1-1.1,0.2-1.3,0.9c-0.1,0-0.2-0.1-0.2-0.1
		c-0.1-0.1-0.1-0.1-0.1-0.1s-0.1,0.1-0.1,0.1c-0.1,0.1-0.1,0.1-0.2,0.1c-0.2,0-0.4-0.2-0.7-0.7c-0.3-0.4-0.5-0.7-0.7-0.7
		s-0.4,0.1-0.7,0.3c-0.2,0.2-0.5,0.3-0.7,0.3l-0.7-0.9c-0.1-0.4-0.3-0.7-0.7-0.9c-0.1,0-0.2,0-0.2,0.1s-0.1,0.1-0.2,0.1
		c-0.1-0.2-0.3-0.5-0.6-0.8c-0.3-0.3-0.4-0.7-0.4-1.1c0-0.1-0.2-0.2-0.6-0.4v-0.4c0-0.1-0.1-0.2-0.3-0.4l-0.1-0.1
		c0-0.2-0.1-0.4-0.2-0.7c-0.1-0.2-0.2-0.4-0.2-0.4s0-0.2,0-0.4c0-0.2,0-0.3-0.1-0.4c0-0.1-0.1-0.2-0.2-0.2c-0.1,0-0.2-0.1-0.3-0.2
		c0.2-0.5,0-1-0.4-1.5v-1.2c-0.2-0.2-0.3-0.5-0.3-1c-0.1,0-0.1,0-0.1-0.1c0,0,0-0.1,0-0.2c0-0.1,0-0.2,0-0.4c0-0.1,0-0.3,0-0.4
		c0-0.1-0.1-0.2-0.1-0.3c-0.1-0.1-0.1-0.2-0.1-0.3c0-0.1,0-0.2,0-0.4c0-0.1-0.1-0.2-0.1-0.2c0-0.1,0-0.2-0.1-0.2
		c-0.1,0-0.1-0.1-0.1-0.2c-0.1-0.5-0.2-0.8-0.4-0.9l0.1-0.4c0-0.1-0.1-0.2-0.2-0.4c-0.1-0.1-0.2-0.3-0.2-0.4c0-0.1,0-0.3,0-0.6
		c0-0.2-0.1-0.4-0.4-0.6v-0.3c-0.1-0.1-0.3-0.4-0.6-1c0-0.1-0.1-0.2-0.1-0.3c-0.1-0.1-0.2-0.2-0.2-0.3c0-0.1,0-0.2,0-0.4
		c0-0.1,0.1-0.3,0.1-0.4c-0.1-0.1-0.3-0.3-0.5-0.5c-0.2-0.2-0.4-0.4-0.5-0.5c0-0.1,0-0.2,0-0.3c0-0.1-0.1-0.2-0.2-0.3
		c-0.1-0.1-0.2-0.2-0.2-0.3c0-0.1,0.1-0.3,0.3-0.6c0-0.2,0-0.3,0-0.4c0-0.1,0.1-0.3,0.3-0.5s0.3-0.4,0.4-0.4s0.1-0.2,0.1-0.4
		c0-0.2,0-0.3,0-0.4c0.1-0.2,0.3-0.4,0.7-0.6c0.3-0.2,0.6-0.4,0.7-0.6c0.9-0.1,1.4-0.2,1.5-0.3c0-0.2,0-0.3,0-0.4
		c0.1-0.1,0.3-0.2,0.7-0.2c0.4,0,0.6-0.1,0.7-0.2c0.1,0,0.2,0.1,0.2,0.1c0,0.1,0.1,0.1,0.1,0.1c0,0,0.2,0,0.4-0.1
		c0.2,0,0.3,0,0.3,0.1c0.1,0,0.1,0,0.1,0.1c0,0.1,0,0.2,0.1,0.3c0.3-0.1,0.5-0.1,0.6,0c0.7,0.1,1.1,0.4,1.3,1c0.3,0.2,0.6,0.5,1,1
		c0.3-0.1,0.4-0.1,0.4,0c0,0.3,0.2,0.6,0.7,1c0.2,0.1,0.3,0.2,0.4,0.4c0,0.1,0.1,0.3,0.3,0.7c0,0.4,0.1,0.6,0.3,0.7
		c0.2,0,0.3-0.1,0.4-0.4c0.1,0,0.1-0.1,0.1-0.3c0.3-0.4,0.4-0.6,0.4-0.7c0.4-0.5,0.6-0.8,0.6-1c0.8-0.9,1.2-1.6,1.3-2.2l0.3-0.1
		c0-0.2,0.2-0.5,0.6-0.9c0.1-0.4,0.4-0.8,1-1.3c0-0.1,0-0.2,0-0.4c0.1,0,0.2,0,0.3,0.1c0.1,0,0.2,0.1,0.3,0.1c0.1,0,0.2-0.1,0.4-0.3
		c0.1,0,0.1,0,0.1-0.1c0.6,0,1-0.4,1.3-1.3c0.1,0,0.2,0,0.2,0.1c0,0.1,0.1,0.1,0.2,0.1c0.1-0.2,0.4-0.2,0.8-0.1
		C192.8,31.6,193.1,31.7,193.3,31.7z"/>
	<path fill="#E0BFE3" d="M253.9,30.8c0.1,0,0.2,0,0.4,0c0.1,0,0.3,0,0.4,0c0.1,0.3,0.3,0.6,0.7,0.9c0.3,0.3,0.5,0.5,0.5,0.7
		c0,0.1,0,0.3,0,0.6c0,0.3,0,0.5,0,0.6c0,0.1,0.1,0.1,0.3,0.1c0.2,0,0.2,0.1,0.1,0.3h-0.3c-0.1,0.2,0,0.5,0.1,0.9
		c-0.1,0.2-0.2,0.4-0.4,0.7l-0.3,0.6c-0.1,0.2-0.1,0.4,0.1,0.5c0.1,0.1,0.2,0.3,0.2,0.4c-0.3,0.3-0.4,0.5-0.4,0.6
		c0,0.1,0,0.2,0.1,0.4c0.1,0.1,0.1,0.3,0.1,0.4c-0.7,0.8-1.4,1.2-2,1.2c-0.1,0-0.2,0-0.4,0c-0.1,0-0.3,0-0.5,0l-0.3,0.1
		c-0.2,0-0.5-0.1-0.8-0.4c-0.3-0.2-0.7-0.3-1-0.2c-0.4-0.3-0.7-0.4-1-0.4c-0.2,0.2-0.3,0.3-0.4,0.4c-0.1,0.1-0.2,0.1-0.3,0.1
		c-0.1,0-0.2,0-0.2,0.1s-0.1,0.1-0.2,0.1c-0.1,0-0.1,0.1-0.1,0.2c-0.1,0-0.3,0.1-0.7,0.4c-0.4,0.2-0.7,0.5-0.9,0.7
		c-0.2,0.2-0.3,0.3-0.4,0.4c-0.3,0.2-0.9,0.9-1.9,2c-0.1,0.2-0.3,0.4-0.5,0.7c-0.2,0.3-0.4,0.5-0.5,0.6c0,0.1,0,0.2-0.1,0.3
		c-0.1,0.1-0.2,0.1-0.3,0.1c0,0.3-0.1,0.6-0.4,0.8c-0.2,0.2-0.4,0.4-0.5,0.5v0.4c-0.3,0.2-0.6,0.6-1,1.2c-0.3,0.6-0.6,1-0.8,1.2
		c0,0.3-0.1,0.6-0.2,1c-0.1,0.3-0.3,0.6-0.4,0.8c-0.2,0.1-0.3,0.2-0.3,0.3c0,0.1,0,0.2,0.1,0.3c0.1,0.1,0.1,0.2,0.1,0.3
		c0,0.1-0.1,0.2-0.3,0.2c-0.2,0.1-0.3,0.1-0.4,0.1c0.1,0.4,0.3,0.5,0.7,0.3c0.1,0,0.2-0.1,0.4-0.4c0.2-0.2,0.4-0.4,0.7-0.4
		c0.1-0.1,0.2-0.2,0.3-0.3c0.1-0.1,0.2-0.2,0.3-0.3h0.3c0.2-0.1,0.4-0.3,0.7-0.6c0.3-0.3,0.5-0.5,0.6-0.6c0.1-0.1,0.2-0.2,0.4-0.2
		c0.2,0,0.3-0.1,0.4-0.2c0.2-0.1,0.4-0.3,0.6-0.7c0.2-0.2,0.3-0.3,0.4-0.3c0.2-0.2,0.5-0.5,1-1c0.2-0.2,0.5-0.5,0.8-0.9
		c0.3-0.4,0.6-0.6,0.8-0.7c0.8-0.8,1.3-1.3,1.5-1.6c0.2-0.1,0.6-0.4,1.2-1c0.1-0.5,0.1-0.8,0.1-0.8c0,0,0.1,0,0.2,0
		c0.1,0.1,0.3,0.1,0.4,0.1s0.2-0.1,0.2-0.3c0-0.2,0.1-0.3,0.2-0.3c0-0.1,0.1-0.2,0.3-0.3c0.2-0.1,0.3-0.2,0.4-0.2
		c0.1,0,0.2-0.2,0.3-0.4c0.1-0.2,0.2-0.3,0.3-0.4c0.3,0.1,0.6,0,1-0.4c0.2,0.1,0.5,0.1,0.9,0h0.3c0.1,0,0.2,0,0.3,0
		c0.1,0,0.2,0,0.3,0c0.1,0,0.2,0,0.3-0.1c0.1-0.1,0.2-0.1,0.2-0.1s0.1,0,0.1,0.1c0,0.1,0.1,0.1,0.2,0.1h0.1c0.1,0.1,0.3,0.2,0.6,0.4
		c0.1,0.1,0.2,0.1,0.4,0.1c0.1,0,0.3,0,0.4,0.1l0.4,0.7c0.4,0,0.9,0.4,1.6,1.3c-0.1,0.3,0,0.6,0.4,0.9c0.2,0.1,0.3,0.2,0.3,0.3
		c0.1,0,0.2,0.2,0.3,0.6c0.1,0.1,0.2,0.2,0.2,0.2c0,0.1,0.1,0.1,0.1,0.2c0.1,0.1,0.2,0.2,0.2,0.4c0,0.2,0.1,0.3,0.1,0.4
		c0.1,0.1,0.2,0.3,0.4,0.5c0.1,0.2,0.3,0.4,0.4,0.5c0.1,0.4,0.2,0.7,0.4,0.9c0,0.1,0,0.2,0.1,0.4c0,0.2,0.1,0.3,0.1,0.4l0.4,0.1
		c-0.2,0.4-0.1,0.8,0.2,1.1c0.3,0.3,0.5,0.7,0.5,1l0.7,1c0.3,0.2,0.7,0.5,1.1,1c0.4,0.4,0.7,0.7,0.8,0.8c0,0.1,0,0.2,0.1,0.2
		c0,0,0.1,0.1,0.1,0.2c0.2,0.2,0.6,0.6,1.2,1.2c0.6,0.6,1.1,1.1,1.5,1.4h0.3c0.5,0.3,0.9,0.4,1.2,0.4c0.2,0.2,0.4,0.5,0.7,0.9
		c0.4,0,1-0.2,1.8-0.6c0.1,0.1,0.4,0.1,0.9,0c0.8,0,1.3,0.1,1.5,0.3c0.1,0.1,0.2,0.1,0.2,0.1c0-0.1,0.1-0.1,0.2-0.1
		c0.3,0.4,0.9,0.4,1.8,0.1c0.1,0.2,0.1,0.4,0,0.7c-0.1,0.1-0.1,0.2-0.1,0.3c-0.1,0.5,0.2,0.8,0.9,0.9c0.3,0,0.5,0.1,0.6,0.1
		c0.1,0.1,0.1,0.3-0.1,0.5c-0.1,0.2-0.2,0.4-0.1,0.5c0,0.2,0,0.3,0.1,0.4c0.1,0.1,0.2,0.2,0.3,0.3c0,0.4-0.2,0.7-0.6,1
		c-0.4,0.3-0.6,0.5-0.7,0.6c0,0.2,0,0.4,0.1,0.7c0,0.2,0.1,0.4,0.1,0.5c-0.1,0.2-0.2,0.5-0.4,0.8c-0.2,0.3-0.3,0.6-0.3,0.8
		c-1.5,0-2.3,0.6-2.6,1.9c-0.2,0-0.3-0.1-0.4-0.1c-0.1-0.1-0.2-0.1-0.3-0.1c-0.1,0-0.2,0.1-0.3,0.3c0,0.1-0.1,0.1-0.1,0.1
		c-0.4-0.1-0.7-0.1-0.9,0c-0.3-0.6-0.6-0.6-0.9,0c-0.1,0-0.2,0-0.4-0.1c-0.1-0.1-0.3-0.1-0.5-0.1c-0.1,0-0.1,0-0.1,0.1
		c0,0.1,0,0.1-0.1,0.1c-0.1-0.1-0.4-0.1-1-0.1c-0.1-0.1-0.1-0.2-0.1-0.4c-0.1,0-0.2,0-0.4-0.1c-0.2-0.1-0.3-0.1-0.4-0.1
		c-0.1,0-0.2,0-0.3,0.1c-0.1,0.1-0.2,0.1-0.4,0c0-0.4-0.1-0.6-0.1-0.6c-0.4,0.1-0.6,0.1-0.7,0.1c0-0.4-0.1-0.6-0.3-0.7
		c-0.1,0-0.2,0-0.3,0.1c-0.1,0.1-0.2,0.1-0.3,0c0-0.2-0.1-0.3-0.1-0.3c0-0.1-0.1-0.1-0.3,0l-0.6-0.7c-0.2,0-0.3,0.1-0.4,0.1
		c-0.1,0.1-0.2,0.1-0.3,0.1V65l-0.1-0.1c-0.2-0.1-0.5-0.4-1-0.8c-0.5-0.4-0.9-0.7-1.2-0.8c-0.2-0.3-0.5-0.6-1-1
		c-0.4-0.4-0.7-0.6-0.8-0.7c-0.1,0-0.2,0-0.4-0.1c-0.2-0.1-0.3-0.2-0.4-0.3c0-0.1-0.1-0.3-0.3-0.7c-0.4-0.1-0.7-0.4-1-0.9
		c0.1-0.2,0.1-0.3,0.1-0.4c0,0-0.1-0.1-0.1-0.2c-0.7-0.1-1-0.3-1-0.7c0-0.1-0.3-0.4-1-1l-0.4-0.9c0-0.1,0-0.2,0-0.3s0-0.2-0.1-0.2
		c-0.1,0-0.3-0.2-0.8-0.5c-0.3-1-0.6-1.5-0.9-1.5c-0.3-0.1-0.6,0.1-1,0.7c-0.4,0.5-0.6,0.8-0.7,0.8c-0.3,0.2-0.6,0.4-0.9,0.7
		c-0.1,0.1-0.2,0.1-0.3,0.1c-0.1,0.1-0.3,0.3-0.6,0.4c-0.3,0.2-0.4,0.3-0.4,0.4c-0.1,0.1-0.2,0.2-0.4,0.4c-0.1,0.1-0.3,0.3-0.4,0.4
		c-0.1,0.1-0.2,0.2-0.4,0.3c-0.5,0.2-0.7,0.5-0.7,0.9c-0.4-0.1-0.8,0-1.2,0.4c-0.4,0.3-0.6,0.5-0.7,0.5c0,0.1-0.1,0.2-0.1,0.4
		c-0.8,0-1.3,0.3-1.6,1l-0.3-0.1c-0.1,0.2-0.4,0.3-0.8,0.4c-0.4,0.1-0.7,0.2-0.8,0.4c-0.4,0-0.7,0-0.9,0.1c-0.2,0.1-0.3,0.3-0.3,0.6
		c0,0.1-0.2,0.1-0.6,0.1c-0.1-0.3-0.2-0.4-0.3-0.4c-0.1,0-0.2,0.1-0.3,0.2c-0.1,0.1-0.2,0.2-0.3,0.2c-0.1,0-0.2,0-0.2-0.1
		c0-0.1-0.1-0.1-0.2-0.1c-0.2,0-0.3,0.1-0.4,0.4c-0.6,0.1-1.1,0-1.5-0.1c-0.5,0.4-0.9,0.2-1.2-0.4h-0.6c-0.1,0-0.3-0.2-0.7-0.7
		c-0.4-0.4-0.8-0.7-1.2-0.7c-0.3-0.5-0.8-1-1.5-1.5s-1.2-1-1.4-1.5c-0.3-0.1-0.5-0.1-0.7-0.1c-0.1-0.1-0.1-0.3-0.1-0.5
		c0-0.2,0-0.4,0-0.5c0-0.1-0.1-0.2-0.2-0.4c-0.1-0.1-0.2-0.3-0.2-0.4c0-0.1,0-0.2,0.1-0.4c0.1-0.2,0.1-0.3,0.1-0.4
		c-0.1-0.1-0.1-0.2-0.2-0.4c-0.1-0.1-0.2-0.3-0.3-0.4c0.1-0.1,0.2-0.2,0.2-0.2c0,0,0.1-0.1,0.1-0.2c0-0.1-0.1-0.3-0.4-0.6
		c-0.2-0.3-0.3-0.5-0.1-0.7c0-0.1-0.1-0.2-0.2-0.3c-0.1-0.1-0.3-0.2-0.4-0.3c0.1-0.2,0.2-0.4,0.3-0.6c0.1-0.7,0-1.2-0.1-1.5
		c-0.3-0.2-0.4-0.3-0.3-0.4h0.3c0.1-0.1,0.2-0.2,0.4-0.4c0.1-0.1,0.3-0.3,0.4-0.4c0.1-0.2,0.1-0.7,0.1-1.5c0-0.8,0.1-1.2,0.4-1.3
		c0-0.1,0-0.2,0-0.2c0,0,0-0.1,0-0.2c0.1-0.1,0.3-0.5,0.7-1.2c0.4-0.7,0.7-1.2,1-1.4c0-0.4,0.1-0.8,0.4-1.2v-0.3
		c0-0.1,0.2-0.4,0.5-0.9c0.3-0.5,0.6-0.8,0.8-1c0-0.2,0.1-0.5,0.4-0.9c0-0.4,0.1-0.7,0.4-1c0.1,0,0.2,0,0.3,0c0.3-0.2,0.6-0.6,1-1.3
		c0.4-0.7,0.7-1.1,1-1.3v-0.4c0.2-0.1,0.7-0.7,1.6-1.9c0.6-0.2,1-0.5,1.2-0.9c0.1-0.3,0.2-0.4,0.2-0.4c0,0,0.2-0.1,0.5-0.2
		c0.3-0.1,0.4-0.3,0.4-0.5c0.2,0,0.4-0.1,0.7-0.3s0.5-0.3,0.7-0.3c0-0.1,0.2-0.3,0.5-0.5c0.3-0.2,0.5-0.5,0.5-0.8
		c0.1,0,0.2,0,0.2,0.1c0,0,0.1,0.1,0.2,0.1l0.4-0.4c0.1,0,0.3,0,0.5,0c0.2,0,0.4,0,0.5-0.1c0.3,0,0.6-0.1,0.8-0.3
		c0.2-0.2,0.4-0.3,0.5-0.3c0.1,0,0.2,0,0.3,0c0.4,0.2,0.7,0.2,0.9,0.1c0.1,0,0.2-0.1,0.2-0.3c0-0.2,0.2-0.2,0.5-0.1
		c0.4,0.2,0.7,0.3,0.8,0.4c0.1,0,0.3,0,0.6,0c0.2,0,0.5-0.1,0.7-0.1c0,0.1,0,0.1,0.1,0.1c0.1,0,0.2,0,0.3,0c0.1,0.1,0.3,0.1,0.7,0.1
		c0.3,0,0.6-0.1,0.7-0.1c0.8,0.1,1.2,0.4,1.3,0.9c0,0.1,0,0.2,0,0.4c0,0.2,0,0.3,0,0.4c0,0,0.1,0.2,0.3,0.4S253.9,30.5,253.9,30.8z
		 M253.3,29.3c0,0.2,0,0.3,0,0.3s0,0,0,0.1c0,0,0.1,0.2,0.3,0.4s0.3,0.4,0.3,0.7c0.1,0,0.2,0,0.4,0c0.1,0,0.3,0,0.4,0
		c0.1,0.3,0.3,0.6,0.7,0.9c0.3,0.3,0.5,0.5,0.5,0.7c0,0.1,0,0.3,0,0.6c0,0.3,0,0.5,0,0.6c0,0.1,0.1,0.1,0.3,0.1
		c0.2,0,0.2,0.1,0.1,0.3h-0.3c-0.1,0.2,0,0.5,0.1,0.9c-0.1,0.2-0.2,0.4-0.4,0.7l-0.3,0.6c-0.1,0.2-0.1,0.4,0.1,0.5
		c0.1,0.1,0.2,0.3,0.2,0.4c-0.3,0.3-0.4,0.5-0.4,0.6c0,0.1,0,0.2,0.1,0.4c0.1,0.1,0.1,0.3,0.1,0.4c-0.7,0.8-1.4,1.2-2,1.2
		c-0.1,0-0.2,0-0.4,0c-0.1,0-0.3,0-0.5,0l-0.3,0.1c-0.2,0-0.5-0.1-0.8-0.4c-0.3-0.2-0.7-0.3-1-0.2c-0.4-0.3-0.7-0.4-1-0.4
		c-0.2,0.2-0.3,0.3-0.4,0.4c-0.1,0.1-0.2,0.1-0.3,0.1c-0.1,0-0.2,0-0.2,0.1s-0.1,0.1-0.2,0.1c-0.1,0-0.1,0.1-0.1,0.2
		c-0.1,0-0.3,0.1-0.7,0.4c-0.4,0.2-0.7,0.5-0.9,0.7c-0.2,0.2-0.3,0.3-0.4,0.4c-0.3,0.2-0.9,0.9-1.9,2c-0.1,0.2-0.3,0.4-0.5,0.7
		c-0.2,0.3-0.4,0.5-0.5,0.6c0,0.1,0,0.2-0.1,0.3c-0.1,0.1-0.2,0.1-0.3,0.1c0,0.3-0.1,0.6-0.4,0.8c-0.2,0.2-0.4,0.4-0.5,0.5v0.4
		c-0.3,0.2-0.6,0.6-1,1.2c-0.3,0.6-0.6,1-0.8,1.2c0,0.3-0.1,0.6-0.2,1c-0.1,0.3-0.3,0.6-0.4,0.8c-0.2,0.1-0.3,0.2-0.3,0.3
		c0,0.1,0,0.2,0.1,0.3c0.1,0.1,0.1,0.2,0.1,0.3c0,0.1-0.1,0.2-0.3,0.2c-0.2,0.1-0.3,0.1-0.4,0.1c0.1,0.4,0.3,0.5,0.7,0.3
		c0.1,0,0.2-0.1,0.4-0.4c0.2-0.2,0.4-0.4,0.7-0.4c0.1-0.1,0.2-0.2,0.3-0.3c0.1-0.1,0.2-0.2,0.3-0.3h0.3c0.2-0.1,0.4-0.3,0.7-0.6
		c0.3-0.3,0.5-0.5,0.6-0.6c0.1-0.1,0.2-0.2,0.4-0.2c0.2,0,0.3-0.1,0.4-0.2c0.2-0.1,0.4-0.3,0.6-0.7c0.2-0.2,0.3-0.3,0.4-0.3
		c0.2-0.2,0.5-0.5,1-1c0.2-0.2,0.5-0.5,0.8-0.9c0.3-0.4,0.6-0.6,0.8-0.7c0.8-0.8,1.3-1.3,1.5-1.6c0.2-0.1,0.6-0.4,1.2-1
		c0.1-0.5,0.1-0.8,0.1-0.8c0,0,0.1,0,0.2,0c0.1,0.1,0.3,0.1,0.4,0.1s0.2-0.1,0.2-0.3c0-0.2,0.1-0.3,0.2-0.3c0-0.1,0.1-0.2,0.3-0.3
		c0.2-0.1,0.3-0.2,0.4-0.2c0.1,0,0.2-0.2,0.3-0.4c0.1-0.2,0.2-0.3,0.3-0.4c0.3,0.1,0.6,0,1-0.4c0.2,0.1,0.5,0.1,0.9,0h0.3
		c0.1,0,0.2,0,0.3,0c0.1,0,0.2,0,0.3,0c0.1,0,0.2,0,0.3-0.1c0.1-0.1,0.2-0.1,0.2-0.1s0.1,0,0.1,0.1c0,0.1,0.1,0.1,0.2,0.1h0.1
		c0.1,0.1,0.3,0.2,0.6,0.4c0.1,0.1,0.2,0.1,0.4,0.1c0.1,0,0.3,0,0.4,0.1l0.4,0.7c0.4,0,0.9,0.4,1.6,1.3c-0.1,0.3,0,0.6,0.4,0.9
		c0.2,0.1,0.3,0.2,0.3,0.3c0.1,0,0.2,0.2,0.3,0.6c0.1,0.1,0.2,0.2,0.2,0.2c0,0.1,0.1,0.1,0.1,0.2c0.1,0.1,0.2,0.2,0.2,0.4
		c0,0.2,0.1,0.3,0.1,0.4c0.1,0.1,0.2,0.3,0.4,0.5c0.1,0.2,0.3,0.4,0.4,0.5c0.1,0.4,0.2,0.7,0.4,0.9c0,0.1,0,0.2,0.1,0.4
		c0,0.2,0.1,0.3,0.1,0.4l0.4,0.1c-0.2,0.4-0.1,0.8,0.2,1.1c0.3,0.3,0.5,0.7,0.5,1l0.7,1c0.3,0.2,0.7,0.5,1.1,1
		c0.4,0.4,0.7,0.7,0.8,0.8c0,0.1,0,0.2,0.1,0.2c0,0,0.1,0.1,0.1,0.2c0.2,0.2,0.6,0.6,1.2,1.2c0.6,0.6,1.1,1.1,1.5,1.4h0.3
		c0.5,0.3,0.9,0.4,1.2,0.4c0.2,0.2,0.4,0.5,0.7,0.9c0.4,0,1-0.2,1.8-0.6c0.1,0.1,0.4,0.1,0.9,0c0.8,0,1.3,0.1,1.5,0.3
		c0.1,0.1,0.2,0.1,0.2,0.1c0-0.1,0.1-0.1,0.2-0.1c0.3,0.4,0.9,0.4,1.8,0.1c0.1,0.2,0.1,0.4,0,0.7c-0.1,0.1-0.1,0.2-0.1,0.3
		c-0.1,0.5,0.2,0.8,0.9,0.9c0.3,0,0.5,0.1,0.6,0.1c0.1,0.1,0.1,0.3-0.1,0.5c-0.1,0.2-0.2,0.4-0.1,0.5c0,0.2,0,0.3,0.1,0.4
		c0.1,0.1,0.2,0.2,0.3,0.3c0,0.4-0.2,0.7-0.6,1c-0.4,0.3-0.6,0.5-0.7,0.6c0,0.2,0,0.4,0.1,0.7c0,0.2,0.1,0.4,0.1,0.5
		c-0.1,0.2-0.2,0.5-0.4,0.8c-0.2,0.3-0.3,0.6-0.3,0.8c-1.5,0-2.3,0.6-2.6,1.9c-0.2,0-0.3-0.1-0.4-0.1c-0.1-0.1-0.2-0.1-0.3-0.1
		c-0.1,0-0.2,0.1-0.3,0.3c0,0.1-0.1,0.1-0.1,0.1c-0.4-0.1-0.7-0.1-0.9,0c-0.3-0.6-0.6-0.6-0.9,0c-0.1,0-0.2,0-0.4-0.1
		c-0.1-0.1-0.3-0.1-0.5-0.1c-0.1,0-0.1,0-0.1,0.1c0,0.1,0,0.1-0.1,0.1c-0.1-0.1-0.4-0.1-1-0.1c-0.1-0.1-0.1-0.2-0.1-0.4
		c-0.1,0-0.2,0-0.4-0.1c-0.2-0.1-0.3-0.1-0.4-0.1c-0.1,0-0.2,0-0.3,0.1c-0.1,0.1-0.2,0.1-0.4,0c0-0.4-0.1-0.6-0.1-0.6
		c-0.4,0.1-0.6,0.1-0.7,0.1c0-0.4-0.1-0.6-0.3-0.7c-0.1,0-0.2,0-0.3,0.1c-0.1,0.1-0.2,0.1-0.3,0c0-0.2-0.1-0.3-0.1-0.3
		c0-0.1-0.1-0.1-0.3,0l-0.6-0.7c-0.2,0-0.3,0.1-0.4,0.1c-0.1,0.1-0.2,0.1-0.3,0.1V65l-0.1-0.1c-0.2-0.1-0.5-0.4-1-0.8
		c-0.5-0.4-0.9-0.7-1.2-0.8c-0.2-0.3-0.5-0.6-1-1c-0.4-0.4-0.7-0.6-0.8-0.7c-0.1,0-0.2,0-0.4-0.1c-0.2-0.1-0.3-0.2-0.4-0.3
		c0-0.1-0.1-0.3-0.3-0.7c-0.4-0.1-0.7-0.4-1-0.9c0.1-0.2,0.1-0.3,0.1-0.4c0,0-0.1-0.1-0.1-0.2c-0.7-0.1-1-0.3-1-0.7
		c0-0.1-0.3-0.4-1-1l-0.4-0.9c0-0.1,0-0.2,0-0.3s0-0.2-0.1-0.2c-0.1,0-0.3-0.2-0.8-0.5c-0.3-1-0.6-1.5-0.9-1.5
		c-0.3-0.1-0.6,0.1-1,0.7c-0.4,0.5-0.6,0.8-0.7,0.8c-0.3,0.2-0.6,0.4-0.9,0.7c-0.1,0.1-0.2,0.1-0.3,0.1c-0.1,0.1-0.3,0.3-0.6,0.4
		c-0.3,0.2-0.4,0.3-0.4,0.4c-0.1,0.1-0.2,0.2-0.4,0.4c-0.1,0.1-0.3,0.3-0.4,0.4c-0.1,0.1-0.2,0.2-0.4,0.3c-0.5,0.2-0.7,0.5-0.7,0.9
		c-0.4-0.1-0.8,0-1.2,0.4c-0.4,0.3-0.6,0.5-0.7,0.5c0,0.1-0.1,0.2-0.1,0.4c-0.8,0-1.3,0.3-1.6,1l-0.3-0.1c-0.1,0.2-0.4,0.3-0.8,0.4
		c-0.4,0.1-0.7,0.2-0.8,0.4c-0.4,0-0.7,0-0.9,0.1c-0.2,0.1-0.3,0.3-0.3,0.6c0,0.1-0.2,0.1-0.6,0.1c-0.1-0.3-0.2-0.4-0.3-0.4
		c-0.1,0-0.2,0.1-0.3,0.2c-0.1,0.1-0.2,0.2-0.3,0.2c-0.1,0-0.2,0-0.2-0.1c0-0.1-0.1-0.1-0.2-0.1c-0.2,0-0.3,0.1-0.4,0.4
		c-0.6,0.1-1.1,0-1.5-0.1c-0.5,0.4-0.9,0.2-1.2-0.4h-0.6c-0.1,0-0.3-0.2-0.7-0.7c-0.4-0.4-0.8-0.7-1.2-0.7c-0.3-0.5-0.8-1-1.5-1.5
		s-1.2-1-1.4-1.5c-0.3-0.1-0.5-0.1-0.7-0.1c-0.1-0.1-0.1-0.3-0.1-0.5c0-0.2,0-0.4,0-0.5c0-0.1-0.1-0.2-0.2-0.4
		c-0.1-0.1-0.2-0.3-0.2-0.4c0-0.1,0-0.2,0.1-0.4c0.1-0.2,0.1-0.3,0.1-0.4c-0.1-0.1-0.1-0.2-0.2-0.4c-0.1-0.1-0.2-0.3-0.3-0.4
		c0.1-0.1,0.2-0.2,0.2-0.2c0,0,0.1-0.1,0.1-0.2c0-0.1-0.1-0.3-0.4-0.6c-0.2-0.3-0.3-0.5-0.1-0.7c0-0.1-0.1-0.2-0.2-0.3
		c-0.1-0.1-0.3-0.2-0.4-0.3c0.1-0.2,0.2-0.4,0.3-0.6c0.1-0.7,0-1.2-0.1-1.5c-0.3-0.2-0.4-0.3-0.3-0.4h0.3c0.1-0.1,0.2-0.2,0.4-0.4
		c0.1-0.1,0.3-0.3,0.4-0.4c0.1-0.2,0.1-0.7,0.1-1.5c0-0.8,0.1-1.2,0.4-1.3c0-0.1,0-0.2,0-0.2c0,0,0-0.1,0-0.2
		c0.1-0.1,0.3-0.5,0.7-1.2c0.4-0.7,0.7-1.2,1-1.4c0-0.4,0.1-0.8,0.4-1.2v-0.3c0-0.1,0.2-0.4,0.5-0.9c0.3-0.5,0.6-0.8,0.8-1
		c0-0.2,0.1-0.5,0.4-0.9c0-0.4,0.1-0.7,0.4-1c0.1,0,0.2,0,0.3,0c0.3-0.2,0.6-0.6,1-1.3c0.4-0.7,0.7-1.1,1-1.3v-0.4
		c0.2-0.1,0.7-0.7,1.6-1.9c0.6-0.2,1-0.5,1.2-0.9c0.1-0.3,0.2-0.4,0.2-0.4c0,0,0.2-0.1,0.5-0.2c0.3-0.1,0.4-0.3,0.4-0.5
		c0.2,0,0.4-0.1,0.7-0.3s0.5-0.3,0.7-0.3c0-0.1,0.2-0.3,0.5-0.5c0.3-0.2,0.5-0.5,0.5-0.8c0.1,0,0.2,0,0.2,0.1c0,0,0.1,0.1,0.2,0.1
		l0.4-0.4c0.1,0,0.3,0,0.5,0c0.2,0,0.4,0,0.5-0.1c0.3,0,0.6-0.1,0.8-0.3c0.2-0.2,0.4-0.3,0.5-0.3c0.1,0,0.2,0,0.3,0
		c0.4,0.2,0.7,0.2,0.9,0.1c0.1,0,0.2-0.1,0.2-0.3c0-0.2,0.2-0.2,0.5-0.1c0.4,0.2,0.7,0.3,0.8,0.4c0.1,0,0.3,0,0.6,0
		c0.2,0,0.5-0.1,0.7-0.1c0,0.1,0,0.1,0.1,0.1c0.1,0,0.2,0,0.3,0c0.1,0.1,0.3,0.1,0.7,0.1c0.3,0,0.6-0.1,0.7-0.1
		c0.8,0.1,1.2,0.4,1.3,0.9C253.3,29,253.3,29.1,253.3,29.3z M233.7,60.5c0.1,0,0.2,0,0.3,0c0-0.2-0.1-0.3-0.3-0.3
		c-0.1,0.1-0.1,0.2-0.1,0.2C233.5,60.5,233.6,60.5,233.7,60.5z M233.7,60.2c-0.1,0.1-0.1,0.2-0.1,0.2c0,0.1,0,0.1,0.1,0.1
		c0.1,0,0.2,0,0.3,0C234,60.3,233.9,60.2,233.7,60.2z M256.1,34.7v-0.1h0.1C256.3,34.7,256.3,34.7,256.1,34.7z M256.1,34.6h0.1
		c0.1,0.1,0,0.1-0.1,0.1V34.6z"/>
	<path fill="#E0BFE3" d="M323.2,26.5c-0.1-0.3-0.1-0.4,0-0.4c0.2-0.1,0.4,0,0.7,0.3c0.4-0.1,1,0.1,1.8,0.7c0.2,0,0.3,0,0.4,0
		c0.1,0.1,0.3,0.3,0.7,0.7c0.3,0.4,0.7,0.7,1,0.9c0.1,0.3,0.5,0.6,1.1,1c0.6,0.3,1,0.7,1.2,0.9v0.3c0.6,0.6,1,0.9,1.3,0.9l0.1,0.6
		c0.3,0.4,0.8,0.9,1.4,1.5c0.6,0.6,1.1,1,1.4,1.2c0,0.1,0,0.2,0,0.4c0.1,0.1,0.2,0.2,0.4,0.3c0.1,0.1,0.3,0.2,0.4,0.3
		c0,0.1,0,0.2,0,0.3c0.1,0.2,0.2,0.4,0.4,0.7c0.4,0.6,0.7,1,1,1.2c0,0.5,0.3,0.9,1,1.3c0,0.1,0,0.2,0.1,0.4c0.4,0.5,0.6,0.8,0.6,1
		c0.2,0.2,0.5,0.5,0.9,0.9c0.4,0.4,0.7,0.7,0.9,0.9c0.1,0.4,0.5,0.9,1.3,1.6c0.3,0.2,0.5,0.4,0.7,0.6c0,0.1,0.1,0.2,0.2,0.4
		c0.1,0.1,0.3,0.3,0.4,0.4c0.3,0.3,0.5,0.4,0.6,0.4c0.1,0,0.2,0,0.4,0.1c0.1,0,0.2,0.1,0.3,0.3c0.2,0.2,0.5,0.2,1,0
		c-0.1,0.1-0.1,0.2,0,0.3c0.8,0.6,1.3,1.1,1.6,1.5c0,0.3,0.1,0.6,0.4,0.9c0.3,0.3,0.5,0.6,0.6,0.7c0.2,0.1,0.3,0.1,0.4,0.1
		c-0.1,1.5,0,2.3,0.1,2.5h0.1c0.1,0,0.2,0.1,0.2,0.1c0,0.1-0.1,0.2-0.4,0.3c-0.3,0.2-0.5,0.4-0.7,0.6l-0.4,0.3
		c0,0.2-0.1,0.4-0.4,0.7c-0.2,0.2-0.4,0.4-0.4,0.5c-0.1,0.1-0.2,0.2-0.4,0.2c-0.1,0-0.2,0.1-0.2,0.2c-0.1,0-0.1,0.1-0.1,0.4
		c0,0.3,0,0.4-0.1,0.4c-0.2,0.1-0.6,0.1-1.1-0.1c-0.5-0.2-1-0.2-1.2,0c-0.4-0.2-0.7-0.2-0.9-0.1c-0.1-0.1-0.5,0-1.2,0.1
		c0.2-0.4,0-0.7-0.6-0.9c-0.4-0.1-0.6-0.2-0.6-0.3c-0.1,0-0.2,0-0.4,0.1c-0.1,0.1-0.3,0.1-0.3,0c0,0-0.1-0.1-0.1-0.2
		c0-0.1,0-0.2-0.1-0.2c-0.1,0-0.1-0.1-0.2-0.1c-0.2-0.1-0.3-0.2-0.3-0.4c-0.1,0-0.2,0-0.3-0.1c-0.1,0-0.2-0.1-0.3-0.1
		c-0.6-0.8-1.1-1.3-1.5-1.5c-0.6-0.6-0.9-0.9-1-0.9c-0.2-0.3-0.4-0.5-0.7-0.7c-0.1,0-0.1,0-0.1,0.1c0,0.1,0,0.1-0.1,0l-0.1-0.3
		c-0.7-0.6-1.2-1.3-1.5-2c-0.3-0.1-0.5-0.1-0.6-0.1c-0.2-0.1-0.3-0.4-0.4-0.9c-0.4-0.1-0.7-0.4-1-0.9c-0.3-0.5-0.5-0.7-0.6-0.7
		c-0.4,0.2-0.6-0.2-0.6-1.2c-0.1,0-0.3,0-0.6-0.1c0-0.1-0.1-0.3-0.3-0.6c-0.2-0.3-0.4-0.4-0.6-0.4c0-0.2-0.3-0.8-1-1.9
		c-0.2,0-0.3,0-0.4,0c-0.1-0.3-0.2-0.5-0.4-0.6c-0.1-0.7-0.4-1.1-1-1.3c-0.1,0-0.1,0.2-0.1,0.6c-0.1,0-0.2,0.3-0.4,1
		c-0.1,0-0.2,0-0.2,0.1c0,0.1-0.1,0.2-0.1,0.2c-0.1,0.1-0.1,0.1-0.1,0.3c0,0.1,0,0.2,0,0.3s-0.1,0.2-0.3,0.5
		c-0.1,0.2-0.1,0.5-0.1,0.8c0,0.3,0,0.6,0,0.7c-0.1,0.1-0.2,0.2-0.3,0.3c-0.1,0.1-0.1,0.2-0.1,0.3c-0.1,0.2-0.1,0.5-0.1,0.9
		c0,0.4,0,0.6-0.1,0.7c-0.2,0.2-0.3,0.3-0.4,0.4c-0.1,0.1-0.1,0.2-0.1,0.4c0,0.1,0,0.3,0,0.4c0,0.1-0.1,0.2-0.4,0.4
		c0.1,0.3,0,0.7-0.1,1.1c-0.2,0.4-0.3,0.7-0.3,0.8c-0.1,0.1-0.1,0.2,0,0.4c-0.1,0.1-0.2,0.2-0.3,0.4c-0.1,0.1-0.1,0.3-0.1,0.4
		c0,0.2,0,0.3-0.1,0.3s-0.1,0.1-0.2,0.3c-0.1,0.1-0.2,0.3-0.3,0.7c-0.1,0.3-0.2,0.6-0.3,0.7c0,0.1,0,0.2,0.1,0.2
		c0.1,0,0.1,0.1,0.1,0.2c-0.1,0.1-0.2,0.3-0.4,0.6c-0.4,0.6-0.8,1-1.3,1.2c-0.2,0.5-0.3,0.8-0.4,0.9c-0.1,0-0.3,0-0.6-0.1
		c-0.3,0-0.5,0-0.6,0.1c-0.2,0.2-0.3,0.3-0.4,0.3c0,0-0.3,0-0.7-0.1c-0.1,0.1-0.2,0.1-0.3,0.1c-0.2-0.3-0.3-0.5-0.4-0.6
		c-0.1,0-0.3,0.1-0.5,0.2c-0.2,0.1-0.4,0.3-0.5,0.4c-0.4-0.2-0.6-0.4-0.6-0.7c-0.6-0.1-1-0.4-1.2-1c-0.4,0-0.8-0.2-1.2-0.7
		c-0.4-0.5-0.7-0.8-0.8-0.9V53c0-0.1-0.1-0.2-0.2-0.3c-0.1-0.1-0.3-0.2-0.4-0.3c0.1-0.2,0.1-0.3,0-0.3c0-0.1-0.4-0.4-1.2-0.9
		c0-0.1,0-0.2,0.1-0.3c0-0.1,0.1-0.2,0.1-0.3c-0.4-0.2-0.6-0.3-0.7-0.4c0.1-0.5,0-0.9-0.4-1.3c-0.3-0.4-0.6-0.7-0.7-1
		c0-0.1-0.1-0.2-0.2-0.2c-0.1,0-0.3-0.1-0.4-0.2c0-0.2-0.2-0.4-0.6-0.7c0-0.3-0.1-0.6-0.4-0.9c0-0.5-0.2-0.9-0.6-1.2
		c-0.2-0.1-0.3-0.2-0.4-0.3c0-0.5-0.2-0.8-0.7-1c-0.5,1.3-0.7,3.1-0.6,5.6c-0.1,0.1-0.2,0.2-0.3,0.3c-0.1,0.1-0.1,0.2-0.1,0.3
		c-0.1,0.2-0.1,0.5,0,0.8c0.1,0.3,0.1,0.6,0,0.8c-0.3,0.2-0.4,0.3-0.4,0.4s0.1,0.3,0.2,0.5c0.1,0.2,0.2,0.5,0.1,0.8
		c-0.2,0.3-0.3,0.5-0.4,0.6c0,0.1,0,0.4,0.1,0.8c0,0.4,0,0.7-0.2,0.7c0,0.1,0.1,0.2,0.1,0.2c0.1,0,0.1,0.1,0.1,0.2
		c0,0.1-0.1,0.2-0.4,0.3c0,0.3,0,0.8-0.1,1.4c-0.1,0.6-0.1,1.1-0.1,1.4c-0.2,0.1-0.3,0.2-0.3,0.4c0,0.2,0.1,0.3,0.4,0.4
		c0,0.1-0.1,0.2-0.2,0.2c-0.1,0-0.2,0.1-0.2,0.1c0,0,0,0.4-0.1,0.9c-0.1,0.3-0.2,0.5-0.4,0.6c0.1,0.3,0.1,0.6-0.1,1
		c-0.1,0.4-0.3,0.6-0.5,0.6c-0.2,0-0.3,0-0.4-0.1c-0.4,0.2-0.8,0.5-1.3,0.9c-0.3,0.3-0.4,0.6-0.4,1c-0.1,0-0.2,0-0.3,0
		c-0.1-0.1-0.1-0.3-0.1-0.6c0-0.3-0.1-0.5-0.3-0.6c-0.1,0-0.2,0.2-0.4,0.7h-0.4c0.1-0.7-0.2-1-1-1c0,0.3-0.1,0.4-0.1,0.4
		c-0.4-0.1-0.6-0.2-0.7-0.4c0-0.1,0-0.2,0-0.3c0-0.1,0-0.1-0.1-0.1c-0.1-0.6-0.7-0.8-1.9-0.7c-0.2-0.1-0.3-0.3-0.3-0.6v-0.3
		c-0.1-0.2-0.3-0.4-0.5-0.7c-0.2-0.3-0.4-0.5-0.5-0.6c0-0.1-0.1-0.1-0.1-0.1s-0.1,0-0.1-0.1c-0.1-0.4-0.2-0.7-0.3-0.9l-0.3-0.1
		c0.1-0.9,0.1-1.4,0.1-1.5c-0.1-0.1-0.2-0.4-0.4-0.7c-0.2-0.3-0.3-0.5-0.4-0.6c0-0.2,0.1-0.4,0.3-0.7c0-0.3-0.1-0.6-0.3-1
		c-0.2-0.3-0.3-0.7-0.1-1c-0.1-0.2-0.3-0.3-0.7-0.3c-0.1-0.2,0-0.3,0.3-0.4c0-0.2,0-0.4,0-0.5c0-0.1,0-0.3,0-0.4
		c0-0.1-0.1-0.2-0.2-0.4c-0.1-0.1-0.2-0.3-0.2-0.4c-0.1-0.2-0.1-0.5-0.1-0.8c0-0.3,0-0.6-0.1-0.7c0-0.1-0.1-0.2-0.2-0.3
		c-0.1-0.1-0.2-0.2-0.2-0.2c0,0,0-0.3,0.1-0.7c-0.1-0.7-0.2-1.1-0.4-1.3c0-1.1-0.1-1.7-0.3-1.8c-0.3,0-0.4,0-0.4-0.1
		c0-0.1,0-0.2,0.1-0.2c0.1,0,0.1-0.1,0.1-0.2c0-0.1,0-0.3,0-0.6c-0.1-0.8-0.3-1.2-0.7-1.2c-0.2-0.2-0.1-0.6,0.1-1.2
		c0-0.2-0.1-0.3-0.2-0.4c-0.1-0.1-0.2-0.2-0.2-0.3c0.1-0.5,0-0.8-0.4-1c0.2-0.2,0.3-0.3,0.3-0.4c-0.2-0.1-0.3-0.4-0.3-0.9
		c0-0.5-0.1-0.8-0.3-0.9c0-0.1,0-0.2,0.1-0.2c0,0,0.1-0.1,0.1-0.2c-0.2-0.2-0.3-0.3-0.3-0.4c0-0.1,0-0.3-0.1-0.5
		c-0.1-0.2-0.1-0.4-0.1-0.5c-0.1,0-0.2-0.1-0.4-0.3c-0.1-0.1-0.1-0.2,0-0.3c0.1-0.1,0.1-0.2,0.1-0.3c-0.1-1.7,0.1-2.5,0.7-2.6v-0.9
		c0.6-0.6,1.2-0.9,1.9-0.9l0.3-0.4c0.3,0.2,0.9,0.1,1.8-0.3c0.2,0.2,0.4,0.3,0.7,0.3c0.3,0,0.5,0,0.7,0c0.1,0,0.2,0.1,0.4,0.2
		c0.1,0.1,0.3,0.2,0.4,0.2c0.5,0.2,0.7,0.3,0.7,0.4c0.2,0.1,0.3,0.1,0.4,0c1.4,1.5,2,2.2,2,2.3c0.4,0,0.6,0,0.7-0.1s0.1-0.1,0.1-0.3
		c0-0.1,0-0.2,0.1-0.3c0,0,0.1-0.1,0.2-0.2c0.1-0.1,0.2-0.2,0.3-0.3c0-0.1,0-0.2-0.1-0.4c0-0.1,0.1-0.2,0.3-0.4
		c0.2-0.2,0.3-0.4,0.3-0.6c0.1,0,0.2-0.1,0.4-0.3c0.3-0.4,0.6-0.5,1-0.4c0.2-0.1,0.4-0.3,0.5-0.6c0.1-0.3,0.3-0.5,0.5-0.6h0.4
		c0.1,0,0.2-0.1,0.4-0.2c0.1-0.1,0.3-0.2,0.4-0.2c0.4,0,0.7,0,1-0.1c0.1,0,0.3,0,0.6,0.1c0.2,0.3,0.6,0.5,1.2,0.7
		c0.6,0.2,0.9,0.3,0.9,0.4c0,0.3,0.2,0.5,0.7,0.6c0.2,0.1,0.3,0.2,0.4,0.3c0,0.4,0.2,0.6,0.6,0.7c0.2,0.3,0.6,0.8,1.3,1.4
		c0.7,0.6,1.2,1.2,1.5,1.7v0.3c0.3,0.2,0.6,0.5,1,0.9c0.3,0.4,0.6,0.8,0.8,1c0.1,0.2,0.3,0.4,0.5,0.7s0.4,0.6,0.4,0.9
		c0.1,0,0.2,0,0.3,0.1c0.1,0,0.2,0.1,0.3,0.1c0.1,0.4,0.4,0.9,0.9,1.5c0.2,0.4,0.3,0.7,0.4,0.9c0,0.2,0,0.3,0.1,0.3
		c0.2,0.2,0.3,0,0.4-0.6c0.1-0.1,0.2-0.3,0.4-0.6c0.1-0.3,0.3-0.5,0.4-0.6c0-0.4,0.1-0.8,0.4-1.3c0.2-0.5,0.4-0.9,0.4-1.3
		c0.1-0.1,0.2-0.4,0.4-0.9c0.1-0.5,0.3-0.8,0.4-0.9c0-0.4,0.3-0.9,1-1.5c0-0.1,0-0.2,0-0.4c0-0.1,0-0.2,0.1-0.3
		c0.1-0.1,0.2-0.2,0.3-0.3c0-0.2,0-0.3,0-0.4s0-0.1,0.1-0.2c0.1-0.1,0.1-0.2,0.1-0.2c0,0,0-0.2,0.1-0.5c0.5-0.4,0.7-0.7,0.6-0.9
		c0.2-0.1,0.4-0.4,0.6-0.9c0.2,0,0.3,0,0.4,0c0.2-1,0.8-1.4,1.8-1.3c0.2-0.1,0.5-0.2,0.8-0.4C322.8,26.9,323,26.7,323.2,26.5z
		 M323.2,26.1c0.2-0.1,0.4,0,0.7,0.3c0.4-0.1,1,0.1,1.8,0.7c0.2,0,0.3,0,0.4,0c0.1,0.1,0.3,0.3,0.7,0.7c0.3,0.4,0.7,0.7,1,0.9
		c0.1,0.3,0.5,0.6,1.1,1c0.6,0.3,1,0.7,1.2,0.9v0.3c0.6,0.6,1,0.9,1.3,0.9l0.1,0.6c0.3,0.4,0.8,0.9,1.4,1.5c0.6,0.6,1.1,1,1.4,1.2
		c0,0.1,0,0.2,0,0.4c0.1,0.1,0.2,0.2,0.4,0.3c0.1,0.1,0.3,0.2,0.4,0.3c0,0.1,0,0.2,0,0.3c0.1,0.2,0.2,0.4,0.4,0.7
		c0.4,0.6,0.7,1,1,1.2c0,0.5,0.3,0.9,1,1.3c0,0.1,0,0.2,0.1,0.4c0.4,0.5,0.6,0.8,0.6,1c0.2,0.2,0.5,0.5,0.9,0.9
		c0.4,0.4,0.7,0.7,0.9,0.9c0.1,0.4,0.5,0.9,1.3,1.6c0.3,0.2,0.5,0.4,0.7,0.6c0,0.1,0.1,0.2,0.2,0.4c0.1,0.1,0.3,0.3,0.4,0.4
		c0.3,0.3,0.5,0.4,0.6,0.4c0.1,0,0.2,0,0.4,0.1c0.1,0,0.2,0.1,0.3,0.3c0.2,0.2,0.5,0.2,1,0c-0.1,0.1-0.1,0.2,0,0.3
		c0.8,0.6,1.3,1.1,1.6,1.5c0,0.3,0.1,0.6,0.4,0.9c0.3,0.3,0.5,0.6,0.6,0.7c0.2,0.1,0.3,0.1,0.4,0.1c-0.1,1.5,0,2.3,0.1,2.5h0.1
		c0.1,0,0.2,0.1,0.2,0.1c0,0.1-0.1,0.2-0.4,0.3c-0.3,0.2-0.5,0.4-0.7,0.6l-0.4,0.3c0,0.2-0.1,0.4-0.4,0.7c-0.2,0.2-0.4,0.4-0.4,0.5
		c-0.1,0.1-0.2,0.2-0.4,0.2c-0.1,0-0.2,0.1-0.2,0.2c-0.1,0-0.1,0.1-0.1,0.4c0,0.3,0,0.4-0.1,0.4c-0.2,0.1-0.6,0.1-1.1-0.1
		c-0.5-0.2-1-0.2-1.2,0c-0.4-0.2-0.7-0.2-0.9-0.1c-0.1-0.1-0.5,0-1.2,0.1c0.2-0.4,0-0.7-0.6-0.9c-0.4-0.1-0.6-0.2-0.6-0.3
		c-0.1,0-0.2,0-0.4,0.1c-0.1,0.1-0.3,0.1-0.3,0c0,0-0.1-0.1-0.1-0.2c0-0.1,0-0.2-0.1-0.2c-0.1,0-0.1-0.1-0.2-0.1
		c-0.2-0.1-0.3-0.2-0.3-0.4c-0.1,0-0.2,0-0.3-0.1c-0.1,0-0.2-0.1-0.3-0.1c-0.6-0.8-1.1-1.3-1.5-1.5c-0.1-0.1-0.2-0.2-0.3-0.3
		c-0.2-0.4-0.4-0.6-0.7-0.6c-0.2-0.3-0.4-0.5-0.7-0.7c-0.1,0-0.1,0-0.1,0.1c0,0.1,0,0.1-0.1,0l-0.1-0.3c-0.7-0.6-1.2-1.3-1.5-2
		c-0.3-0.1-0.5-0.1-0.6-0.1c-0.2-0.1-0.3-0.4-0.4-0.9c-0.4-0.1-0.7-0.4-1-0.9c-0.3-0.5-0.5-0.7-0.6-0.7c-0.4,0.2-0.6-0.2-0.6-1.2
		c-0.1,0-0.3,0-0.6-0.1c0-0.1-0.1-0.3-0.3-0.6c-0.2-0.3-0.4-0.4-0.6-0.4c0-0.2-0.3-0.8-1-1.9c-0.2,0-0.3,0-0.4,0
		c-0.1-0.3-0.2-0.5-0.4-0.6c-0.1-0.7-0.4-1.1-1-1.3c-0.1,0-0.1,0.2-0.1,0.6c-0.1,0-0.2,0.3-0.4,1c-0.1,0-0.2,0-0.2,0.1
		c0,0.1-0.1,0.2-0.1,0.2c-0.1,0.1-0.1,0.1-0.1,0.3c0,0.1,0,0.2,0,0.3s-0.1,0.2-0.3,0.5c-0.1,0.2-0.1,0.5-0.1,0.8c0,0.3,0,0.6,0,0.7
		c-0.1,0.1-0.2,0.2-0.3,0.3c-0.1,0.1-0.1,0.2-0.1,0.3c-0.1,0.2-0.1,0.5-0.1,0.9c0,0.4,0,0.6-0.1,0.7c-0.2,0.2-0.3,0.3-0.4,0.4
		c-0.1,0.1-0.1,0.2-0.1,0.4c0,0.1,0,0.3,0,0.4c0,0.1-0.1,0.2-0.4,0.4c0.1,0.3,0,0.7-0.1,1.1c-0.2,0.4-0.3,0.7-0.3,0.8
		c-0.1,0.1-0.1,0.2,0,0.4c-0.1,0.1-0.2,0.2-0.3,0.4c-0.1,0.1-0.1,0.3-0.1,0.4c0,0.2,0,0.3-0.1,0.3s-0.1,0.1-0.2,0.3
		c-0.1,0.1-0.2,0.3-0.3,0.7c-0.1,0.3-0.2,0.6-0.3,0.7c0,0.1,0,0.2,0.1,0.2c0.1,0,0.1,0.1,0.1,0.2c-0.1,0.1-0.2,0.3-0.4,0.6
		c-0.4,0.6-0.8,1-1.3,1.2c-0.2,0.5-0.3,0.8-0.4,0.9c-0.1,0-0.3,0-0.6-0.1c-0.3,0-0.5,0-0.6,0.1c-0.2,0.2-0.3,0.3-0.4,0.3
		c0,0-0.3,0-0.7-0.1c-0.1,0.1-0.2,0.1-0.3,0.1c-0.2-0.3-0.3-0.5-0.4-0.6c-0.1,0.1-0.3,0.2-0.5,0.3c-0.2,0.1-0.4,0.2-0.5,0.3
		c-0.4-0.2-0.6-0.4-0.6-0.7c-0.6-0.1-1-0.4-1.2-1c-0.4,0-0.8-0.2-1.2-0.7c-0.4-0.5-0.7-0.8-0.8-0.9V53c0-0.1-0.1-0.2-0.2-0.3
		c-0.1-0.1-0.3-0.2-0.4-0.3c0.1-0.2,0.1-0.3,0-0.3c0-0.1-0.4-0.4-1.2-0.9c0-0.1,0-0.2,0.1-0.3c0-0.1,0.1-0.2,0.1-0.3
		c-0.4-0.2-0.6-0.3-0.7-0.4c0.1-0.5,0-0.9-0.4-1.3c-0.3-0.4-0.6-0.7-0.7-1c0-0.1-0.1-0.2-0.2-0.2c-0.1,0-0.3-0.1-0.4-0.2
		c0-0.2-0.2-0.4-0.6-0.7c0-0.3-0.1-0.6-0.4-0.9c0-0.5-0.2-0.9-0.6-1.2c-0.2-0.1-0.3-0.2-0.4-0.3c0-0.5-0.2-0.8-0.7-1
		c-0.5,1.3-0.7,3.1-0.6,5.6c-0.1,0.1-0.2,0.2-0.3,0.3c-0.1,0.1-0.1,0.2-0.1,0.3c-0.1,0.2-0.1,0.5,0,0.8c0.1,0.3,0.1,0.6,0,0.8
		c-0.3,0.2-0.4,0.3-0.4,0.4s0.1,0.3,0.2,0.5c0.1,0.2,0.2,0.5,0.1,0.8c-0.2,0.3-0.3,0.5-0.4,0.6c0,0.1,0,0.4,0.1,0.8
		c0,0.4,0,0.7-0.2,0.7c0,0.1,0.1,0.2,0.1,0.2c0.1,0,0.1,0.1,0.1,0.2c0,0.1-0.1,0.2-0.4,0.3c0,0.3,0,0.8-0.1,1.4
		c-0.1,0.6-0.1,1.1-0.1,1.4c-0.2,0.1-0.3,0.2-0.3,0.4c0,0.2,0.1,0.3,0.4,0.4c0,0.1-0.1,0.2-0.2,0.2c-0.1,0-0.2,0.1-0.2,0.1
		c0,0,0,0.4-0.1,0.9c-0.1,0.3-0.2,0.5-0.4,0.6c0.1,0.3,0.1,0.6-0.1,1c-0.1,0.4-0.3,0.6-0.5,0.6c-0.2,0-0.3,0-0.4-0.1
		c-0.4,0.2-0.8,0.5-1.3,0.9c-0.3,0.3-0.4,0.6-0.4,1c-0.1,0-0.2,0-0.3,0c-0.1-0.1-0.1-0.3-0.1-0.5c0-0.2-0.1-0.5-0.3-0.7
		c-0.1,0-0.2,0.2-0.4,0.7h-0.4c0-0.3-0.1-0.5-0.3-0.7c-0.2-0.2-0.4-0.3-0.7-0.3c0,0.3-0.1,0.4-0.1,0.4c-0.4-0.1-0.6-0.2-0.7-0.4
		c0-0.1,0-0.2,0-0.3c0-0.1,0-0.1-0.1-0.1c-0.1-0.6-0.7-0.8-1.9-0.7c-0.2-0.1-0.3-0.3-0.3-0.6v-0.3c-0.1-0.2-0.3-0.4-0.5-0.7
		c-0.2-0.3-0.4-0.5-0.5-0.6c0-0.1-0.1-0.1-0.1-0.1s-0.1,0-0.1-0.1c-0.1-0.4-0.2-0.7-0.3-0.9l-0.3-0.1c0.1-0.9,0.1-1.4,0.1-1.5
		c-0.1-0.1-0.2-0.4-0.4-0.7c-0.2-0.3-0.3-0.5-0.4-0.6c0-0.2,0.1-0.4,0.3-0.7c0-0.3-0.1-0.6-0.3-1c-0.2-0.3-0.3-0.7-0.1-1
		c-0.1-0.2-0.3-0.3-0.7-0.3c-0.1-0.2,0-0.3,0.3-0.4c0-0.2,0-0.4,0-0.5c0-0.1,0-0.3,0-0.4c0-0.1-0.1-0.2-0.2-0.4
		c-0.1-0.1-0.2-0.3-0.2-0.4c-0.1-0.2-0.1-0.5-0.1-0.8c0-0.3,0-0.6-0.1-0.7c0-0.1-0.1-0.2-0.2-0.3c-0.1-0.1-0.2-0.2-0.2-0.2
		c0,0,0-0.3,0.1-0.7c-0.1-0.7-0.2-1.1-0.4-1.3c0-1.1-0.1-1.7-0.3-1.8c-0.3,0-0.4,0-0.4-0.1c0-0.1,0-0.2,0.1-0.2
		c0.1,0,0.1-0.1,0.1-0.2c0-0.1,0-0.3,0-0.6c-0.1-0.8-0.3-1.2-0.7-1.2c-0.2-0.2-0.1-0.6,0.1-1.2c0-0.2-0.1-0.3-0.2-0.4
		c-0.1-0.1-0.2-0.2-0.2-0.3c0.1-0.5,0-0.8-0.4-1c0.2-0.2,0.3-0.3,0.3-0.4c-0.2-0.1-0.3-0.4-0.3-0.9c0-0.5-0.1-0.8-0.3-0.9
		c0-0.1,0-0.2,0.1-0.2c0,0,0.1-0.1,0.1-0.2c-0.2-0.2-0.3-0.3-0.3-0.4c0-0.1,0-0.3-0.1-0.5c-0.1-0.2-0.1-0.4-0.1-0.5
		c-0.1,0-0.2-0.1-0.4-0.3c-0.1-0.1-0.1-0.2,0-0.3c0.1-0.1,0.1-0.2,0.1-0.3c-0.1-1.7,0.1-2.5,0.7-2.6v-0.9c0.6-0.6,1.2-0.9,1.9-0.9
		l0.3-0.4c0.3,0.2,0.9,0.1,1.8-0.3c0.2,0.2,0.4,0.3,0.7,0.3c0.3,0,0.5,0,0.7,0c0.1,0,0.2,0.1,0.4,0.2c0.1,0.1,0.3,0.2,0.4,0.2
		c0.5,0.2,0.7,0.3,0.7,0.4c0.2,0.1,0.3,0.1,0.4,0c1.4,1.5,2,2.2,2,2.3c0.4,0,0.6,0,0.7-0.1s0.1-0.1,0.1-0.3c0-0.1,0-0.2,0.1-0.3
		c0,0,0.1-0.1,0.2-0.2c0.1-0.1,0.2-0.2,0.3-0.3c0-0.1,0-0.2-0.1-0.4c0-0.1,0.1-0.2,0.3-0.4c0.2-0.2,0.3-0.4,0.3-0.6
		c0.1,0,0.2-0.1,0.4-0.3c0.3-0.4,0.6-0.5,1-0.4c0.2-0.1,0.4-0.3,0.5-0.6c0.1-0.3,0.3-0.5,0.5-0.6h0.4c0.1,0,0.2-0.1,0.4-0.2
		c0.1-0.1,0.3-0.2,0.4-0.2c0.4,0,0.7,0,1-0.1c0.1,0,0.3,0,0.6,0.1c0.2,0.3,0.6,0.5,1.2,0.7c0.6,0.2,0.9,0.3,0.9,0.4
		c0,0.3,0.2,0.5,0.7,0.6c0.2,0.1,0.3,0.2,0.4,0.3c0,0.4,0.2,0.6,0.6,0.7c0.2,0.3,0.6,0.8,1.3,1.4c0.7,0.6,1.2,1.2,1.5,1.7v0.3
		c0.3,0.2,0.6,0.5,1,0.9c0.3,0.4,0.6,0.8,0.8,1c0.1,0.2,0.3,0.4,0.5,0.7s0.4,0.6,0.4,0.9c0.1,0,0.2,0,0.3,0.1c0.1,0,0.2,0.1,0.3,0.1
		c0.1,0.4,0.4,0.9,0.9,1.5c0.2,0.4,0.3,0.7,0.4,0.9c0,0.2,0,0.3,0.1,0.3c0.2,0.2,0.3,0,0.4-0.6c0.1-0.1,0.2-0.3,0.4-0.6
		c0.1-0.3,0.3-0.5,0.4-0.6c0-0.4,0.1-0.8,0.4-1.3c0.2-0.5,0.4-0.9,0.4-1.3c0.1-0.1,0.2-0.4,0.4-0.9c0.1-0.5,0.3-0.8,0.4-0.9
		c0-0.4,0.3-0.9,1-1.5c0-0.1,0-0.2,0-0.4c0-0.1,0-0.2,0.1-0.3c0.1-0.1,0.2-0.2,0.3-0.3c0-0.2,0-0.3,0-0.4s0-0.1,0.1-0.2
		c0.1-0.1,0.1-0.2,0.1-0.2c0,0,0-0.2,0.1-0.5c0.5-0.4,0.7-0.7,0.6-0.9c0.2-0.1,0.4-0.4,0.6-0.9c0.2,0,0.3,0,0.4,0
		c0.2-1,0.8-1.4,1.8-1.3c0.2-0.1,0.5-0.2,0.8-0.4c0.3-0.2,0.6-0.4,0.8-0.6C323.1,26.3,323.1,26.1,323.2,26.1z"/>
	<path fill="#E0BFE3" d="M379.1,27.7c0,0.3,0.2,0.7,0.7,1.2c1,0.8,1.6,1.2,1.9,1.3c0,0.1,0,0.2-0.1,0.2c-0.1,0.1-0.1,0.1-0.1,0.2
		c0.2,0.2,0.5,0.4,0.8,0.7c0.3,0.3,0.6,0.5,0.7,0.7c0,0.3,0.1,0.7,0.4,1.2s0.3,0.9,0,1.1l0.9,1.8c0,0.1-0.1,0.2-0.2,0.4
		c-0.1,0.2-0.2,0.4-0.2,0.6c-0.1,0.2-0.1,0.6,0,1.3c0.1,0.7,0.1,1.2,0,1.6c-0.3,0.4-0.5,0.6-0.6,0.7c0,0.2-0.1,0.5-0.1,0.8
		c-0.1,0.3-0.1,0.6-0.1,0.8c-0.1,0.1-0.3,0.3-0.5,0.7c-0.2,0.3-0.4,0.6-0.4,0.8c-0.6,0.5-0.9,0.9-0.9,1.3c-0.1,0-0.2,0-0.2,0
		c-0.1,0-0.1,0-0.2,0v0.6c-0.1,0-0.2,0-0.3-0.1c-0.1,0-0.2-0.1-0.3-0.1c-0.2,0-0.3,0.1-0.4,0.4c-0.1,0.2-0.2,0.4-0.3,0.5
		c-0.1,0-0.3,0-0.7-0.1c-0.4,0-0.6,0-0.7,0.1c-0.2,0.3-0.3,0.4-0.4,0.4c-0.1,0-0.2,0-0.4,0.1c-0.1,0.1-0.3,0.2-0.4,0.2
		c-0.1,0.1-0.2,0.2-0.4,0.4c-0.1,0-0.2,0-0.4,0.1c-0.1,0-0.2,0.1-0.2,0.2c0,0.1,0,0.2,0.1,0.2c0.1,0,0.1,0.1,0,0.2
		c-0.6,0.6-1.3,0.8-2,0.7c-0.1,0.1-0.3,0.2-0.7,0.3c-0.1,0.1-0.2,0.2-0.4,0.4c-0.2,0.1-0.3,0.2-0.4,0.2c-0.1,0-0.1,0-0.3,0
		c-0.1,0-0.3,0-0.4,0c-0.2,0-0.4,0.1-0.7,0.2c-0.3,0.1-0.5,0.2-0.6,0.2c-0.1,0-0.2,0-0.4-0.1c-0.2-0.1-0.3-0.1-0.4-0.1
		c-0.4,0.2-0.6,0.3-0.7,0.3c-0.1,0-0.2,0-0.2-0.1c-0.1-0.1-0.1-0.1-0.2-0.1l-0.9-0.1c-0.2-0.2-0.3-0.3-0.4-0.3c-0.1,0-0.4,0-1-0.1
		c-0.6,0-1-0.1-1.2-0.1c-0.2,0.1-0.3,0.2-0.2,0.4c0,0.2,0.1,0.3,0.2,0.3c0.3,1.2,0.6,2,1,2.3v0.4c0.3,0.4,0.8,0.8,1.5,1.1
		c0.7,0.3,1.1,0.6,1.3,0.8c0.6,0.1,1,0,1.2-0.3c0.4,0,0.6,0,0.7,0.1c0,0,0,0.2-0.1,0.4c0.1,0.1,0.3,0.2,0.6,0.3
		c0.3,0.1,0.5,0.1,0.6,0.1c0-0.1,0.1-0.2,0.4-0.3c0.2-0.1,0.4-0.1,0.5,0v0.3c0.3,0.3,0.9,0.4,2,0.4s1.7,0.1,2.1,0.1
		c0.6-0.3,1-0.5,1.3-0.6c0.1,0,0.2,0,0.4,0.1c0.7,0.1,1.8-0.1,3.2-0.7c0.1,0,0.2-0.1,0.4-0.2c0.2-0.1,0.4-0.2,0.6-0.2
		c0.1-0.1,0.3-0.1,0.6-0.1c0.3,0.1,0.5,0.1,0.6,0.1c0.1,0,0.2,0,0.2-0.1c0-0.1,0.1-0.1,0.1-0.1s0.2,0,0.5-0.1
		c0.3-0.1,0.5-0.2,0.6-0.3c0.8,0,1.6-0.4,2.3-1.3c0.1,0,0.2,0.1,0.4,0.3c0.2,0,0.4-0.1,0.5-0.3c0.1-0.2,0.3-0.3,0.5-0.3
		c0.1,0,0.2-0.1,0.3-0.1c0.1-0.1,0.1-0.2,0.1-0.3c0.4,0.1,0.7,0,1-0.3c0.3,0.1,0.6,0,0.9-0.3c0.1-0.1,0.2-0.2,0.3-0.2
		c0.1,0,0.2-0.1,0.4-0.1c0.1,0,0.3,0,0.4,0c0.1-0.1,0.3-0.2,0.5-0.4c0.2-0.1,0.5-0.3,0.7-0.4l1.5,0.1c0.1,0,0.2,0.1,0.2,0.2
		c0,0.1,0.1,0.2,0.2,0.2c0.4-0.1,0.6-0.1,0.7,0c0,0.1-0.1,0.1-0.4,0.1c0,0.2,0.2,0.3,0.6,0.3c0.7,0.4,1,0.8,1,1.3
		c0.5,0.1,0.8,0.2,0.9,0.3c0.3,0.7,0.1,1.5-0.4,2.3v0.1c-0.5,0-0.9,0.2-1.1,0.7c-0.2,0.5-0.4,0.8-0.5,0.9c-0.1,0.1-0.2,0.2-0.4,0.3
		c-0.1,0.1-0.3,0.2-0.4,0.3c0-0.1-0.1-0.1-0.3,0c-0.1,0-0.2,0.1-0.4,0.4c-0.1,0.2-0.3,0.4-0.4,0.4c-0.1,0.1-0.3,0.1-0.6,0.2
		c-0.3,0.1-0.5,0.2-0.6,0.3c-0.1,0-0.2,0.1-0.3,0.3c-0.1,0.2-0.2,0.3-0.3,0.4c-0.2,0.1-0.6,0.2-1.1,0.2c-0.5,0.1-1,0.2-1.2,0.4
		c-0.9,0.1-1.4,0.2-1.5,0.3c0,0.2,0,0.3,0,0.4c-0.7,0.1-1.1,0.3-1.3,0.7c-0.4-0.1-0.8,0-1.3,0.3c-0.2,0.2-0.4,0.3-0.6,0.4h-0.3
		c-0.1,0.1-0.2,0.2-0.4,0.3c-0.4,0.2-0.7,0.2-0.9,0c-0.4,0.3-0.7,0.5-1,0.6c-0.3,0.2-0.4,0.3-0.4,0.4c-0.3,0.1-0.8,0.1-1.5,0.1
		c-0.1,0-0.2,0-0.4,0c-0.1,0-0.3,0-0.4,0c-0.1,0-0.2,0-0.3,0.1c-0.1,0.1-0.2,0.2-0.3,0.3c-0.1,0-0.2,0-0.4,0c-0.1,0-0.3,0-0.4,0
		c-0.1,0-0.3,0-0.6,0.1c-0.1,0-0.2,0-0.4-0.1c-0.2,0-0.3-0.1-0.4-0.1c-0.2,0-0.4,0-0.7,0.1c-0.3,0-0.5,0.1-0.7,0.1
		c-0.2,0-0.5,0-1-0.1c-0.4,0-0.8-0.1-1-0.1c-0.2,0-0.6,0-1,0.1c-0.7,0.1-1.1,0.1-1.2-0.1c-0.2,0-0.5,0-0.8,0.1
		c-0.3,0-0.6,0.1-0.8,0.1c-0.1,0-0.2,0-0.4-0.1c-0.1,0-0.2-0.1-0.3-0.1c-0.1,0-0.1,0-0.3,0c-0.1,0-0.2,0-0.3,0c-0.1,0-0.1,0-0.2-0.1
		c-0.1,0-0.2-0.1-0.3-0.2c-0.1,0-0.2,0-0.4,0.1c-0.1,0-0.2,0.1-0.3,0.1s-0.2-0.1-0.5-0.3c-0.7-0.2-1-0.3-1-0.4
		c-0.4-0.1-0.6-0.2-0.7-0.3c0-0.1-0.2-0.2-0.6-0.2c-0.4,0-0.6-0.2-0.7-0.4c-0.4,0-0.7-0.1-1-0.4c-0.3,0-0.6-0.1-1-0.3
		c-0.3,0-0.5,0-0.6,0c0-0.2,0-0.3,0-0.4c-0.8-0.7-1.3-1.2-1.6-1.6c-0.1,0-0.2,0-0.3,0.1c-0.1,0.1-0.2,0-0.3-0.1
		c0-0.1-0.1-0.3-0.3-0.5c-0.2-0.2-0.3-0.5-0.3-0.7c-0.2-0.1-0.4-0.1-0.6-0.1v-0.3c-0.3-0.2-0.6-0.3-0.9-0.4c-0.5-0.7-0.8-1-0.9-1
		v-0.3c-0.1-0.2-0.3-0.5-0.5-1c-0.2-0.5-0.4-0.8-0.5-0.9c-0.4-0.5-0.6-0.8-0.6-0.9c-0.1-0.1-0.1-0.2-0.1-0.4c0-0.2,0-0.3,0-0.4
		c-0.1-0.1-0.1-0.2-0.2-0.4c-0.1-0.2-0.2-0.3-0.3-0.4c0-0.2,0-0.4,0-0.7s0-0.5,0-0.7c0-0.1,0-0.2-0.1-0.3c0-0.1-0.1-0.2-0.1-0.3
		c0-0.2,0.2-0.5,0.6-0.9c-0.1-0.3-0.3-0.4-0.6-0.4l-0.3-1c0.7-0.4,0.8-0.8,0.4-1.2c0.2-0.6,0.3-0.9,0.3-1c0,0,0.1-0.2,0.3-0.4
		c0.2-0.2,0.2-0.4,0.1-0.6c0-0.1,0.1-0.2,0.2-0.2c0.1-0.1,0.2-0.1,0.2-0.2c0-0.1-0.1-0.2-0.2-0.2c-0.1,0-0.2-0.1-0.2-0.2
		c0-0.1,0.1-0.3,0.3-0.6c0-0.1,0-0.3,0-0.6c0-0.3,0-0.5,0-0.6c0.2-0.5,0.3-0.8,0.3-1c0.3,0,0.4-0.2,0.4-0.7c0-0.3,0-0.5,0-0.7
		c0.1-0.1,0.3-0.3,0.7-0.6c0.6-0.6,0.9-1,1-1.1c0-0.1,0.1-0.4,0.1-0.7c0-0.3,0.1-0.6,0.1-0.7c0.1-0.1,0.2-0.2,0.4-0.3
		c0.2-0.1,0.3-0.2,0.4-0.2c0,0,0-0.1-0.1-0.2c-0.1-0.1-0.1-0.2-0.1-0.3c0.1-0.1,0.2-0.3,0.3-0.5c0.1-0.2,0.2-0.4,0.3-0.5
		c0.3-0.1,0.6-0.3,1-0.7c-0.1-0.2,0-0.6,0.3-1.3c0.7-0.1,1.1-0.5,1.2-1.2c0.1-0.1,0.2-0.1,0.3-0.1c0.1,0,0.2-0.1,0.3-0.4
		c0.1,0,0.2,0,0.3,0.1c0.1,0.1,0.2,0.1,0.3,0.2c0.3,0,0.6-0.2,1-0.7c0-0.4,0-0.6,0.1-0.7c0.1,0,0.3,0.1,0.7,0.4
		c0.7-0.1,0.9-0.5,0.7-1.3c0.3,0,0.6-0.1,1-0.3c0.4-0.2,0.7-0.3,0.9-0.4c0.3,0,0.5,0,0.5,0s0.1,0,0.1-0.1c0,0,0.1-0.1,0.1-0.1
		c0,0,0.1-0.1,0.3-0.1c0.1,0,0.2,0,0.2-0.1c0.1,0,0.3-0.1,0.5-0.4c0.2-0.2,0.4-0.4,0.5-0.4c0.1-0.1,0.3-0.1,0.7-0.1
		c0.4,0.1,0.6,0,0.7-0.1c0.1,0,0.2,0,0.4-0.1c0.1-0.1,0.2-0.2,0.3-0.2c0-0.1,0.1-0.1,0.3-0.1c0.1,0,0.3,0,0.4,0s0.2-0.1,0.3-0.2
		c0.1-0.1,0.2-0.2,0.4-0.2c0.1,0,0.2,0.1,0.3,0.2c0.1,0.1,0.2,0.2,0.3,0.2c0.1,0,0.2,0,0.4,0c0.2,0,0.4,0,0.6,0
		c0.2,0.3,0.6,0.5,1.3,0.6c0.1,0,0.2,0,0.4,0.1c0.1,0,0.3,0.1,0.4,0.1l1.2,0.3C378.6,27.4,378.8,27.7,379.1,27.7z M377.2,26.5
		l1.2,0.3c0.2,0.6,0.4,0.9,0.7,0.9c0,0.3,0.2,0.7,0.7,1.2c1,0.8,1.6,1.2,1.9,1.3c0,0.1,0,0.2-0.1,0.2c-0.1,0.1-0.1,0.1-0.1,0.2
		c0.2,0.2,0.5,0.4,0.8,0.7c0.3,0.3,0.6,0.5,0.7,0.7c0,0.3,0.1,0.7,0.4,1.2s0.3,0.9,0,1.1l0.9,1.8c0,0.1-0.1,0.2-0.2,0.4
		c-0.1,0.2-0.2,0.4-0.2,0.6c-0.1,0.2-0.1,0.6,0,1.3c0.1,0.7,0.1,1.2,0,1.6c-0.3,0.4-0.5,0.6-0.6,0.7c0,0.2-0.1,0.5-0.1,0.8
		c-0.1,0.3-0.1,0.6-0.1,0.7c-0.1,0.2-0.3,0.5-0.5,0.8c-0.2,0.3-0.4,0.6-0.4,0.8c-0.6,0.5-0.9,0.9-0.9,1.3c-0.1,0-0.2,0-0.2,0
		c-0.1,0-0.1,0-0.2,0v0.6c-0.1,0-0.2,0-0.3-0.1c-0.1,0-0.2-0.1-0.3-0.1c-0.2,0-0.3,0.1-0.4,0.4c-0.1,0.2-0.2,0.4-0.3,0.5
		c-0.1,0-0.3,0-0.7-0.1c-0.4,0-0.6,0-0.7,0.1c-0.2,0.3-0.3,0.4-0.4,0.4c-0.1,0-0.2,0-0.4,0.1c-0.1,0.1-0.3,0.2-0.4,0.2
		c-0.1,0.1-0.2,0.2-0.4,0.4c-0.1,0-0.2,0-0.4,0.1c-0.1,0-0.2,0.1-0.2,0.2c0,0.1,0,0.2,0.1,0.2c0.1,0,0.1,0.1,0,0.2
		c-0.6,0.6-1.3,0.8-2,0.7c-0.1,0.1-0.3,0.2-0.7,0.3c-0.1,0.1-0.2,0.2-0.4,0.4c-0.2,0.1-0.3,0.2-0.4,0.2c-0.1,0-0.1,0-0.3,0
		c-0.1,0-0.3,0-0.4,0c-0.2,0-0.4,0.1-0.7,0.2c-0.3,0.1-0.5,0.2-0.6,0.2c-0.1,0-0.2,0-0.4-0.1c-0.2-0.1-0.3-0.1-0.4-0.1
		c-0.4,0.2-0.6,0.3-0.7,0.3c-0.1,0-0.2,0-0.2-0.1c-0.1-0.1-0.1-0.1-0.2-0.1l-0.9-0.1c-0.2-0.2-0.3-0.3-0.4-0.3c-0.1,0-0.4,0-1-0.1
		c-0.6,0-1-0.1-1.3-0.1c-0.1,0.1-0.1,0.2-0.1,0.4c0,0.2,0.1,0.3,0.2,0.3c0.3,1.2,0.6,2,1,2.3v0.4c0.3,0.4,0.8,0.8,1.5,1.1
		c0.7,0.3,1.1,0.6,1.3,0.8c0.6,0.1,1,0,1.2-0.3c0.4,0,0.6,0,0.7,0.1c0,0,0,0.2-0.1,0.4c0.1,0.1,0.3,0.2,0.6,0.3h0.6
		c0.5-0.2,0.8-0.2,0.9-0.1v0.3c0.3,0.3,0.9,0.4,2,0.4s1.7,0.1,2.1,0.1c0.6-0.3,1-0.5,1.3-0.6c0.1,0,0.2,0,0.4,0.1
		c0.7,0.1,1.8-0.1,3.2-0.7c0.1,0,0.2-0.1,0.4-0.2c0.2-0.1,0.4-0.2,0.6-0.2c0.1-0.1,0.3-0.1,0.6-0.1c0.3,0.1,0.5,0.1,0.6,0.1
		c0.1,0,0.2,0,0.2-0.1c0-0.1,0.1-0.1,0.1-0.1s0.2,0,0.5-0.1c0.3-0.1,0.5-0.2,0.6-0.3c0.8,0,1.6-0.4,2.3-1.3c0.1,0,0.2,0.1,0.4,0.3
		c0.2,0,0.4-0.1,0.5-0.3c0.1-0.2,0.3-0.3,0.5-0.3c0.1,0,0.2-0.1,0.3-0.1c0.1-0.1,0.1-0.2,0.1-0.3c0.4,0.1,0.7,0,1-0.3
		c0.3,0.1,0.6,0,0.9-0.3c0.1-0.1,0.2-0.2,0.3-0.2c0.1,0,0.2-0.1,0.4-0.1c0.1,0,0.3,0,0.4,0c0.1-0.1,0.3-0.2,0.5-0.4
		c0.2-0.1,0.5-0.3,0.7-0.4l1.5,0.1c0.1,0,0.2,0.1,0.2,0.2c0,0.1,0.1,0.2,0.2,0.2c0.4-0.1,0.6-0.1,0.7,0c0,0.1-0.1,0.1-0.4,0.1
		c0,0.2,0.2,0.3,0.6,0.3c0.7,0.4,1,0.8,1,1.3c0.5,0.1,0.8,0.2,0.9,0.3c0.3,0.7,0.1,1.5-0.4,2.3v0.1c-0.5,0-0.9,0.2-1.1,0.7
		c-0.2,0.5-0.4,0.8-0.5,0.9c-0.1,0.1-0.2,0.2-0.4,0.3c-0.1,0.1-0.3,0.2-0.4,0.3c0-0.1-0.1-0.1-0.3,0c-0.1,0-0.2,0.1-0.4,0.4
		c-0.1,0.2-0.3,0.4-0.4,0.4c-0.1,0.1-0.3,0.1-0.6,0.2c-0.3,0.1-0.5,0.2-0.6,0.3c-0.1,0-0.2,0.1-0.3,0.3c-0.1,0.2-0.2,0.3-0.3,0.4
		c-0.2,0.1-0.6,0.2-1.1,0.2c-0.5,0.1-1,0.2-1.2,0.4c-0.9,0.1-1.4,0.2-1.5,0.3c0,0.2,0,0.3,0,0.4c-0.7,0.1-1.1,0.3-1.3,0.7
		c-0.4-0.1-0.8,0-1.3,0.3c-0.2,0.2-0.4,0.3-0.6,0.4h-0.3c-0.1,0.1-0.2,0.2-0.4,0.3c-0.4,0.2-0.7,0.2-0.9,0c-0.4,0.3-0.7,0.5-1,0.6
		c-0.3,0.2-0.4,0.3-0.4,0.4c-0.3,0.1-0.8,0.1-1.5,0.1c-0.1,0-0.2,0-0.4,0c-0.1,0-0.3,0-0.4,0c-0.1,0-0.2,0-0.3,0.1
		c-0.1,0.1-0.2,0.2-0.3,0.3c-0.1,0-0.2,0-0.4,0c-0.1,0-0.3,0-0.4,0c-0.1,0-0.3,0-0.6,0.1c-0.1,0-0.2,0-0.4-0.1
		c-0.2,0-0.3-0.1-0.4-0.1c-0.2,0-0.4,0-0.7,0.1c-0.3,0-0.5,0.1-0.7,0.1c-0.2,0-0.5,0-1-0.1c-0.4,0-0.8-0.1-1-0.1c-0.2,0-0.6,0-1,0.1
		c-0.7,0.1-1.1,0.1-1.2-0.1c-0.2,0-0.5,0-0.8,0.1c-0.3,0-0.6,0.1-0.8,0.1c-0.1,0-0.2,0-0.4-0.1c-0.1,0-0.2-0.1-0.3-0.1
		c-0.1,0-0.1,0-0.3,0c-0.1,0-0.2,0-0.3,0c-0.1,0-0.1,0-0.2-0.1c-0.1,0-0.2-0.1-0.3-0.2c-0.1,0-0.2,0-0.4,0.1c-0.1,0-0.2,0.1-0.3,0.1
		s-0.2-0.1-0.5-0.3c-0.7-0.2-1-0.3-1-0.4c-0.4-0.1-0.6-0.2-0.7-0.3c0-0.1-0.2-0.2-0.6-0.2c-0.4,0-0.6-0.2-0.7-0.4
		c-0.4,0-0.7-0.1-1-0.4c-0.3,0-0.6-0.1-1-0.3c-0.3,0-0.5,0-0.6,0c0-0.2,0-0.3,0-0.4c-0.8-0.7-1.3-1.2-1.6-1.6c-0.1,0-0.2,0-0.3,0.1
		c-0.1,0.1-0.2,0-0.3-0.1c0-0.1-0.1-0.3-0.3-0.5c-0.2-0.2-0.3-0.5-0.3-0.7c-0.2-0.1-0.4-0.1-0.6-0.1v-0.3c-0.3-0.2-0.6-0.3-0.9-0.4
		c-0.5-0.7-0.8-1-0.9-1v-0.3c-0.1-0.2-0.3-0.5-0.5-1c-0.2-0.5-0.4-0.8-0.5-0.9c-0.4-0.5-0.6-0.8-0.6-0.9c-0.1-0.1-0.1-0.2-0.1-0.4
		c0-0.2,0-0.3,0-0.4c-0.1-0.1-0.1-0.2-0.2-0.4c-0.1-0.2-0.2-0.3-0.3-0.4c0-0.2,0-0.4,0-0.7s0-0.5,0-0.7c0-0.1,0-0.2-0.1-0.3
		c0-0.1-0.1-0.2-0.1-0.3c0-0.2,0.2-0.5,0.6-0.9c-0.1-0.3-0.3-0.4-0.6-0.4l-0.3-1c0.7-0.4,0.8-0.8,0.4-1.2c0.2-0.6,0.3-0.9,0.3-1
		c0,0,0.1-0.2,0.3-0.4c0.2-0.2,0.2-0.4,0.1-0.6c0-0.1,0.1-0.2,0.2-0.2c0.1-0.1,0.2-0.1,0.2-0.2c0-0.1-0.1-0.2-0.2-0.2
		c-0.1,0-0.2-0.1-0.2-0.2c0-0.1,0.1-0.3,0.3-0.6c0-0.1,0-0.3,0-0.6c0-0.3,0-0.5,0-0.6c0.2-0.5,0.3-0.8,0.3-1c0.3,0,0.4-0.2,0.4-0.7
		c0-0.3,0-0.5,0-0.7c0.1-0.1,0.3-0.3,0.7-0.6c0.6-0.6,0.9-1,1-1.1c0-0.1,0.1-0.4,0.1-0.7c0-0.3,0.1-0.6,0.1-0.7
		c0.1-0.1,0.2-0.2,0.4-0.3c0.2-0.1,0.3-0.2,0.4-0.2c0,0,0-0.1-0.1-0.2c-0.1-0.1-0.1-0.2-0.1-0.3c0.1-0.1,0.2-0.3,0.3-0.5
		c0.1-0.2,0.2-0.4,0.3-0.5c0.3-0.1,0.6-0.3,1-0.7c-0.1-0.2,0-0.6,0.3-1.3c0.7-0.1,1.1-0.5,1.2-1.2c0.1-0.1,0.2-0.1,0.3-0.1
		c0.1,0,0.2-0.1,0.3-0.4c0.1,0,0.2,0,0.3,0.1c0.1,0.1,0.2,0.1,0.3,0.2c0.3,0,0.6-0.2,1-0.7c0-0.4,0-0.6,0.1-0.7
		c0.1,0,0.3,0.1,0.7,0.4c0.7-0.1,0.9-0.5,0.7-1.3c0.3,0,0.6-0.1,1-0.3c0.4-0.2,0.7-0.3,0.9-0.4c0.3,0,0.5,0,0.5,0s0.1,0,0.1-0.1
		c0,0,0.1-0.1,0.1-0.1c0,0,0.1-0.1,0.3-0.1c0.1,0,0.2,0,0.2-0.1c0.1,0,0.3-0.1,0.5-0.4c0.2-0.2,0.4-0.4,0.5-0.4
		c0.1-0.1,0.3-0.1,0.7-0.1c0.4,0.1,0.6,0,0.7-0.1c0.1,0,0.2,0,0.4-0.1c0.1-0.1,0.2-0.2,0.3-0.2c0-0.1,0.1-0.1,0.3-0.1
		c0.1,0,0.3,0,0.4,0s0.2-0.1,0.3-0.2c0.1-0.1,0.2-0.2,0.4-0.2c0.1,0,0.2,0.1,0.3,0.2c0.1,0.1,0.2,0.2,0.3,0.2c0.1,0,0.2,0,0.4,0
		c0.2,0,0.4,0,0.6,0c0.2,0.3,0.6,0.5,1.3,0.6c0.1,0,0.2,0,0.4,0.1C377,26.5,377.1,26.5,377.2,26.5z M362.6,30.9c0,0.1,0,0.2,0,0.3
		c0.1,0.1,0.2,0.1,0.3,0.1c0-0.1,0-0.2-0.1-0.3C362.8,31,362.7,30.9,362.6,30.9z M362.6,31.2c0.1,0.1,0.2,0.1,0.3,0.1
		c0-0.1,0-0.2-0.1-0.3c-0.1-0.1-0.1-0.1-0.2-0.1C362.6,31,362.6,31.1,362.6,31.2z M369.8,40.5c0.4,0,0.8-0.1,1.2-0.4
		c0.4-0.2,0.8-0.4,1-0.5c0.4-0.5,0.9-0.8,1.5-1c0-0.1,0.1-0.2,0.3-0.4c0.4-0.7,0.6-1.2,0.6-1.5c0-0.5-0.2-0.7-0.6-0.6
		c-0.7,0.2-1.2,0.5-1.5,0.9c-0.3-0.2-0.7-0.1-1.2,0.3c-1.3,0.9-2,1.5-2,1.8c-0.2,0.1-0.4,0.2-0.6,0.4c0,0.2-0.1,0.4-0.1,0.5
		c-0.1,0.1-0.1,0.3-0.1,0.4c0.1,0.1,0.4,0.1,0.8,0.1C369.4,40.3,369.7,40.4,369.8,40.5z M368.2,40.3c0.1,0.1,0.4,0.1,0.8,0.1
		c0.4,0,0.7,0,0.8,0.1c0.4,0,0.8-0.1,1.2-0.4c0.4-0.2,0.8-0.4,1-0.5c0.4-0.5,0.9-0.8,1.5-1c0-0.1,0.1-0.2,0.3-0.4
		c0.4-0.7,0.6-1.2,0.6-1.5c0-0.5-0.2-0.7-0.6-0.6c-0.7,0.2-1.2,0.5-1.5,0.9c-0.3-0.2-0.7-0.1-1.2,0.3c-1.3,0.9-2,1.5-2,1.8
		c-0.2,0.1-0.4,0.2-0.6,0.4c0,0.2-0.1,0.4-0.1,0.5C368.2,40.1,368.2,40.2,368.2,40.3z"/>
</g>
</svg>
