<?xml version="1.0" encoding="utf-8"?>
<!-- Generator: Adobe Illustrator 19.0.1, SVG Export Plug-In . SVG Version: 6.00 Build 0)  -->
<svg version="1.1" id="Layer_1" xmlns="http://www.w3.org/2000/svg" xmlns:xlink="http://www.w3.org/1999/xlink" x="0px" y="0px"
	 viewBox="0 0 400 140" enable-background="new 0 0 400 140" xml:space="preserve">
<g>
	<path fill="#E0BFE3" d="M24.9,43.6c0.5,0.5,1,0.8,1.2,0.8c0.3,0.3,0.7,0.5,1.4,0.8s1.1,0.5,1.2,0.6c0,0.1,0,0.3,0,0.6
		c0.1,0.3,0.3,0.5,0.6,0.8c0.1,0.3,0.5,0.8,1.1,1.5s0.6,1.2-0.1,1.5c0,0.1,0.2,0.3,0.5,0.5c0.3,0.2,0.5,0.4,0.5,0.7
		c0,0.1,0,0.3,0,0.4s0,0.3,0,0.4c-0.1,0-0.1,0.2,0,0.6c-0.1,0.3-0.3,0.5-0.6,0.8L30.4,54c-0.1,0.1-0.4,0.4-0.7,0.8s-0.6,0.6-0.9,0.6
		c0,0.4,0.1,0.7,0.2,0.8c-0.4,0.3-0.9,0.7-1.5,1.3c-0.6,0.6-1.1,1.1-1.3,1.3c-0.5,0.1-0.8,0.3-0.8,0.4c0.3,0.3,0.8,0.4,1.7,0.5
		c0.9,0.1,1.5,0.2,1.7,0.5c0.1,0,0.7,0,1.6,0c0.1,0,0.3,0.1,0.6,0.3c0.3,0.2,0.5,0.3,0.6,0.3c0.1,0,0.3,0,0.5-0.1
		c0.2-0.1,0.4-0.1,0.5-0.1s0.4,0.1,0.8,0.2c0.1,0,0.4,0,0.8,0s0.7,0.1,0.8,0.2c0.3,0.1,0.5,0.2,0.6,0.2c0.1,0.1,0.4,0.2,0.9,0.1
		c0.5-0.1,0.8-0.1,1,0c0.2,0.1,0.6,0.5,1.1,1.3c0.1,0,0.3,0,0.6,0c1.9,1.6,3,2.6,3.2,2.8c0.3,0.7,0.5,1.1,0.8,1.2
		c0,0.5,0.2,1.1,0.6,1.6c0.1,0.1,0.1,0.8,0,1.8c0,0.3,0.1,0.7,0.2,1.2c0.1,1.2,0,2-0.4,2.4c-0.1,1.4-0.4,2.2-0.8,2.4
		c0,0.1-0.2,0.6-0.6,1.4c0,0.1,0.1,0.2,0.3,0.3c0.2,0.1,0.3,0.2,0.3,0.3c0,0.1-0.1,0.2-0.3,0.3c-0.2,0.1-0.4,0.2-0.5,0.3
		c0.1,0.4,0,0.8-0.3,1.1c-0.3,0.3-0.5,0.6-0.5,0.9c-0.1,0-0.3-0.1-0.6-0.2c0,0.1-0.1,0.4-0.2,0.7c-0.1,0.3-0.3,0.6-0.4,0.7
		c-1.5,1.6-3,3.1-4.5,4.5v0.6c-0.1,0-0.2-0.1-0.3-0.2c-0.1-0.1-0.2-0.1-0.3,0c-1.4,1-2.1,1.6-2.2,1.8c-0.7,0.1-1.2,0.1-1.6,0
		c-0.3,0-0.4,0.1-0.4,0.4c0,0.3-0.1,0.4-0.2,0.4c-0.1,0-0.3-0.1-0.4-0.2c-0.1-0.1-0.2-0.2-0.3-0.2c-0.1,0-0.2,0.1-0.3,0.2
		c-0.1,0.1-0.2,0.3-0.1,0.5c0.1,0.2,0,0.3-0.1,0.3c-0.4,0.3-0.9,0.2-1.4-0.2c-0.3,0.1-0.4,0.5-0.4,1c-0.4,0-0.7,0-0.8,0
		c-0.1,0-0.2-0.1-0.3-0.2c-0.1-0.1-0.2-0.2-0.3-0.2c-0.1,0-0.3,0.1-0.6,0.4c-0.3,0.1-0.7,0.2-1.3,0.2c-0.6,0-1,0.1-1.1,0.2
		c-0.1,0-0.3,0.1-0.5,0.3c-0.2,0.2-0.4,0.3-0.5,0.3s-0.4,0-0.9,0c-0.5,0-0.8,0-0.9,0c-1-0.1-1.6-0.2-1.8-0.2c-0.1,0-0.4,0-0.8,0
		c-0.4,0-0.8,0-1,0c-0.3,0.1-0.5,0.2-0.6,0.2c-0.1,0-0.4-0.1-0.8-0.2c-0.4-0.1-0.8-0.1-1,0c-0.3-0.5-1-0.7-2-0.4
		c-0.3-0.4-1.1-1-2.6-1.8c0,0.1,0,0.3,0,0.5c0,0.2-0.1,0.3-0.2,0.3c-0.1-0.3-0.3-0.6-0.5-1.1c-0.2-0.5-0.4-0.8-0.5-0.9H7.8
		c-0.8-1.5-1.5-2.4-2-2.6c-0.1-0.8-0.5-1.4-1.2-1.8c0-0.1,0.1-0.2,0.3-0.3c0.2-0.1,0.3-0.2,0.3-0.3c-0.4-0.7-0.5-1.1-0.4-1.2
		c0.1-0.1,0.3-0.1,0.5,0c0.2,0.1,0.4,0.2,0.5,0.2c0.1-0.3,0-0.6-0.4-0.9c-0.4-0.3-0.6-0.6-0.6-0.7c0-0.1,0.1-0.5,0.2-1
		c0.5-0.3,0.9-0.7,1.2-1.2c0.7-0.3,1.1-0.6,1.2-1c0.1-0.1,0.4-0.3,0.7-0.6c0.3-0.3,0.6-0.4,0.9-0.4c0.1-0.7,0.3-1,0.4-1
		c0.3,0,0.4,0.2,0.4,0.5s0.1,0.5,0.2,0.5c0.5,0,0.9-0.4,1-1.2c0.7-0.3,1.3-0.1,1.9,0.4c0.6,0.5,1,1.1,1.3,1.6c0.4,0,0.9,0.1,1.4,0.4
		c0.5,0.3,1,0.3,1.4,0.2c0.3-0.3,0.5-0.4,0.6-0.4c0.1,0,0.3,0.1,0.4,0.2c0.4,0.1,0.7,0.1,0.8-0.2c-0.1-0.3-0.2-0.5-0.2-0.6
		c1.2-0.1,2,0,2.2,0.4c0.1,0,0.2-0.1,0.3-0.2c0.1-0.1,0.2-0.2,0.3-0.2c0.1-0.1,0.4-0.2,0.8-0.2c0.4,0,0.7-0.1,0.8-0.2
		c0.1,0,0.2,0,0.3-0.1c0.1-0.1,0.1-0.1,0.2-0.2c0.1-0.1,0.2-0.1,0.5-0.1c0.4-0.1,0.6-0.3,0.6-0.4l-0.2-1c0.1,0,0.3,0.2,0.4,0.6
		c1.1-0.3,2.2-1,3.5-2c-0.1-0.1-0.3-0.3-0.4-0.4c-0.1,0-0.4,0-0.8,0c-0.5-0.3-2-0.4-4.5-0.4c-0.3,0-0.7-0.1-1.3-0.2
		c-0.6-0.1-1-0.2-1.2-0.2c-0.2,0-0.6,0.2-1.1,0.5c-0.5,0.3-1,0.4-1.4,0.1c-0.1-0.5-0.3-0.9-0.6-1c-0.8-0.4-1.5-0.3-2,0.2v-0.4
		c-0.4-0.5-1.1-0.6-2-0.2c-0.1,0-0.2-0.1-0.2-0.4c-0.5-0.3-1-0.6-1.4-1c-0.1,0-0.3,0.1-0.4,0.2h-0.2c-0.1,0-0.3-0.2-0.6-0.6
		c-0.7,0.1-1.3,0-1.8-0.4c-0.5-0.4-1-0.7-1.2-1c-0.1,0-0.3,0-0.5,0.1c-0.2,0.1-0.4,0.1-0.7,0.1c0-0.3,0-0.5,0-0.6
		c-0.1-0.3-0.5-0.7-1.2-1.4s-1.1-1.3-1.4-1.8c-0.5-0.7-1-1.2-1.2-1.6c-0.1,0-0.3-0.1-0.4-0.2c0-0.1-0.1-0.3-0.2-0.6
		c-0.1-0.5-0.3-0.9-0.6-1c0-0.5-0.1-1.1-0.2-1.8c-0.1,0-0.3,0-0.4,0l-0.2-0.2c-0.1-0.3-0.1-0.6,0-1h0.4c0.3-0.3,0.4-0.8,0.4-1.5
		c0-0.7,0.1-1.3,0.4-1.7c0.1,0,0.2,0.1,0.3,0.2c0.1,0.1,0.2,0.3,0.3,0.4c0.1-0.1,0.3-0.4,0.4-0.8c0.1-0.4,0.3-0.6,0.4-0.6
		c0.1-0.1,0.1-0.3,0-0.6C3,53,3.4,52.9,4,52.9c0.5-0.1,0.9-0.2,1-0.3c0.1,0,0.3-0.2,0.5-0.5c0.2-0.3,0.4-0.5,0.7-0.5
		c0.1-0.1,0.5-0.2,1-0.3c0.5-0.1,0.9-0.2,1-0.5c0.5,0,1-0.2,1.2-0.6c0.5,0,0.9-0.2,1-0.6c0.5,0,1-0.1,1.2-0.4c0-0.1,0-0.2-0.1-0.3
		c-0.1-0.1-0.1-0.2-0.1-0.3c0.4-0.1,0.8-0.1,1.2,0.2c0.1,0,0.4-0.2,0.7-0.6s0.6-0.6,0.9-0.6c0.1,0,0.2,0,0.3,0c0.1,0,0.2,0,0.3,0
		c0.1-0.1,0.3-0.3,0.6-0.6c0.3-0.3,0.5-0.4,0.6-0.4c1.1,0,1.8-0.5,2-1.4c1-0.5,1.6-0.6,2-0.2c0.3-0.1,0.6-0.4,1-0.8s0.7-0.7,1-0.8
		c0.1,0.1,0.4,0.3,0.8,0.6c0.4,0.1,0.8,0.1,1.1,0C24.5,43.7,24.8,43.6,24.9,43.6z M24.2,43.8c0.3-0.1,0.6-0.2,0.7-0.2
		c0.5,0.5,1,0.8,1.2,0.8c0.3,0.3,0.7,0.5,1.4,0.8s1.1,0.5,1.2,0.6c0,0.1,0,0.3,0,0.6c0.1,0.3,0.3,0.5,0.6,0.8
		c0.1,0.3,0.5,0.8,1.1,1.5s0.6,1.2-0.1,1.5c0,0.1,0.2,0.3,0.5,0.5c0.3,0.2,0.5,0.4,0.5,0.7c0,0.1,0,0.3,0,0.4s0,0.3,0,0.4
		c-0.1,0-0.1,0.2,0,0.6c-0.1,0.3-0.3,0.5-0.6,0.8L30.4,54c-0.1,0.1-0.4,0.4-0.7,0.8s-0.6,0.6-0.9,0.6c0,0.4,0.1,0.7,0.2,0.8
		c-0.4,0.3-0.9,0.7-1.5,1.3c-0.6,0.6-1.1,1.1-1.3,1.3c-0.5,0.1-0.8,0.3-0.8,0.4c0.3,0.3,0.8,0.4,1.7,0.5c0.9,0.1,1.5,0.2,1.7,0.5
		c0.1,0,0.7,0,1.6,0c0.1,0,0.3,0.1,0.6,0.3c0.3,0.2,0.5,0.3,0.6,0.3c0.1,0,0.3,0,0.5-0.1c0.2-0.1,0.4-0.1,0.5-0.1s0.4,0.1,0.8,0.2
		c0.1,0,0.4,0,0.8,0s0.7,0.1,0.8,0.2c0.3,0.1,0.5,0.2,0.6,0.2c0.1,0.1,0.4,0.2,0.9,0.1c0.5-0.1,0.8-0.1,1,0c0.2,0.1,0.6,0.5,1.1,1.3
		c0.1,0,0.3,0,0.6,0c1.9,1.6,3,2.6,3.2,2.8c0.3,0.7,0.5,1.1,0.8,1.2c0,0.5,0.2,1.1,0.6,1.6c0.1,0.1,0.1,0.8,0,1.8
		c0,0.3,0.1,0.7,0.2,1.2c0.1,1.2,0,2-0.4,2.4c-0.1,1.4-0.4,2.2-0.8,2.4c0,0.1-0.2,0.6-0.6,1.4c0,0.1,0.1,0.2,0.3,0.3
		c0.2,0.1,0.3,0.2,0.3,0.3c0,0.1-0.1,0.2-0.3,0.3c-0.2,0.1-0.4,0.2-0.5,0.3c0.1,0.4,0,0.8-0.3,1.1c-0.3,0.3-0.5,0.6-0.5,0.9
		c-0.1,0-0.3-0.1-0.6-0.2c0,0.1-0.1,0.4-0.2,0.7c-0.1,0.3-0.3,0.6-0.4,0.7c-1.5,1.6-3,3.1-4.5,4.5v0.6c-0.1,0-0.2-0.1-0.3-0.2
		c-0.1-0.1-0.2-0.1-0.3,0c-1.4,1-2.1,1.6-2.2,1.8c-0.7,0.1-1.2,0.1-1.6,0c-0.3,0-0.4,0.1-0.4,0.4c0,0.3-0.1,0.4-0.2,0.4
		c-0.1,0-0.3-0.1-0.4-0.2c-0.1-0.1-0.2-0.2-0.3-0.2c-0.1,0-0.2,0.1-0.3,0.2c-0.1,0.1-0.2,0.3-0.1,0.5c0.1,0.2,0,0.3-0.1,0.3
		c-0.4,0.3-0.9,0.2-1.4-0.2c-0.3,0.1-0.4,0.5-0.4,1c-0.4,0-0.7,0-0.8,0c-0.1,0-0.2-0.1-0.3-0.2c-0.1-0.1-0.2-0.2-0.3-0.2
		c-0.1,0-0.3,0.1-0.6,0.4c-0.3,0.1-0.7,0.2-1.3,0.2c-0.6,0-1,0.1-1.1,0.2c-0.1,0-0.3,0.1-0.5,0.3c-0.2,0.2-0.4,0.3-0.5,0.3
		s-0.4,0-0.9,0c-0.5,0-0.8,0-0.9,0c-1-0.1-1.6-0.2-1.8-0.2c-0.1,0-0.4,0-0.8,0c-0.4,0-0.8,0-1,0c-0.3,0.1-0.5,0.2-0.6,0.2
		c-0.1,0-0.4-0.1-0.8-0.2c-0.4-0.1-0.8-0.1-1,0c-0.3-0.5-1-0.7-2-0.4c-0.3-0.4-1.1-1-2.6-1.8c0,0.1,0,0.3,0,0.5
		c0,0.2-0.1,0.3-0.2,0.3c-0.1-0.3-0.3-0.6-0.5-1.1c-0.2-0.5-0.4-0.8-0.5-0.9H7.8c-0.8-1.5-1.5-2.4-2-2.6c-0.1-0.8-0.5-1.4-1.2-1.8
		c0-0.1,0.1-0.2,0.3-0.3c0.2-0.1,0.3-0.2,0.3-0.3c-0.4-0.7-0.5-1.1-0.4-1.2c0.1-0.1,0.3-0.1,0.5,0c0.2,0.1,0.4,0.2,0.5,0.2
		c0.1-0.3,0-0.6-0.4-0.9c-0.4-0.3-0.6-0.6-0.6-0.7c0-0.1,0.1-0.5,0.2-1c0.5-0.3,0.9-0.7,1.2-1.2c0.7-0.3,1.1-0.6,1.2-1
		c0.1-0.1,0.4-0.3,0.7-0.6c0.3-0.3,0.6-0.4,0.9-0.4c0.1-0.7,0.3-1,0.4-1c0.3,0,0.4,0.2,0.4,0.5s0.1,0.5,0.2,0.5c0.5,0,0.9-0.4,1-1.2
		c0.7-0.3,1.3-0.1,1.9,0.4c0.6,0.5,1,1.1,1.3,1.6c0.4,0,0.9,0.1,1.4,0.4c0.5,0.3,1,0.3,1.4,0.2c0.3-0.3,0.5-0.4,0.6-0.4
		c0.1,0,0.3,0.1,0.4,0.2c0.4,0.1,0.7,0.1,0.8-0.2c-0.1-0.3-0.2-0.5-0.2-0.6c1.2-0.1,2,0,2.2,0.4c0.1,0,0.2-0.1,0.3-0.2
		c0.1-0.1,0.2-0.2,0.3-0.2c0.1-0.1,0.4-0.2,0.8-0.2c0.4,0,0.7,0,0.8,0c0.1-0.1,0.2-0.2,0.3-0.3c0.1-0.1,0.1-0.1,0.2-0.2
		c0.1-0.1,0.2-0.1,0.5-0.1c0.4-0.1,0.6-0.3,0.6-0.4l-0.2-1c0.1,0,0.3,0.2,0.4,0.6c1.1-0.3,2.2-1,3.5-2c-0.1-0.1-0.3-0.3-0.4-0.4
		c-0.1,0-0.4,0-0.8,0c-0.5-0.3-2-0.4-4.5-0.4c-0.3,0-0.7-0.1-1.3-0.2c-0.6-0.1-1-0.2-1.2-0.2c-0.2,0-0.6,0.2-1.1,0.5
		c-0.5,0.3-1,0.4-1.4,0.1c-0.1-0.5-0.3-0.9-0.6-1c-0.8-0.4-1.5-0.3-2,0.2v-0.4c-0.4-0.5-1.1-0.6-2-0.2c-0.1,0-0.2-0.1-0.2-0.4
		c-0.5-0.3-1-0.6-1.4-1c-0.1,0-0.3,0.1-0.4,0.2h-0.2c-0.1,0-0.3-0.2-0.6-0.6c-0.7,0.1-1.3,0-1.8-0.4c-0.5-0.4-1-0.7-1.2-1
		c-0.1,0-0.3,0-0.5,0.1c-0.2,0.1-0.4,0.1-0.7,0.1c0-0.3,0-0.5,0-0.6c-0.1-0.3-0.5-0.7-1.2-1.4s-1.1-1.3-1.4-1.8
		c-0.5-0.7-1-1.2-1.2-1.6c-0.1,0-0.3-0.1-0.4-0.2c0-0.1-0.1-0.3-0.2-0.6c-0.1-0.5-0.3-0.9-0.6-1c0-0.5-0.1-1.1-0.2-1.8
		c-0.1,0-0.3,0-0.4,0l-0.2-0.2c-0.1-0.3-0.1-0.6,0-1h0.4c0.3-0.3,0.4-0.8,0.4-1.5c0-0.7,0.1-1.3,0.4-1.7c0.1,0,0.2,0.1,0.3,0.2
		c0.1,0.1,0.2,0.3,0.3,0.4c0.1-0.1,0.3-0.4,0.4-0.8c0.1-0.4,0.3-0.6,0.4-0.6c0.1-0.1,0.1-0.3,0-0.6C3,53,3.4,52.9,4,52.9
		c0.5-0.1,0.9-0.2,1-0.3c0.1,0,0.3-0.2,0.5-0.5c0.2-0.3,0.4-0.5,0.7-0.5c0.1-0.1,0.5-0.2,1-0.3c0.5-0.1,0.9-0.2,1-0.5
		c0.5,0,1-0.2,1.2-0.6c0.5,0,0.9-0.2,1-0.6c0.5,0,1-0.1,1.2-0.4c0-0.1,0-0.2-0.1-0.3c-0.1-0.1-0.1-0.2-0.1-0.3
		c0.4-0.1,0.8-0.1,1.2,0.2c0.1,0,0.4-0.2,0.7-0.6s0.6-0.6,0.9-0.6c0.1,0,0.2,0,0.3,0c0.1,0,0.2,0,0.3,0c0.1-0.1,0.3-0.3,0.6-0.6
		c0.3-0.3,0.5-0.4,0.6-0.4c1.1,0,1.8-0.5,2-1.4c1-0.5,1.6-0.6,2-0.2c0.3-0.1,0.6-0.4,1-0.8s0.7-0.7,1-0.8c0.1,0.1,0.4,0.3,0.8,0.6
		C23.5,44,23.8,44,24.2,43.8z"/>
	<path fill="#E0BFE3" d="M86.9,42.8c0,0.4,0.3,1,1,1.6c1.3,1.1,2.2,1.7,2.6,1.8c0,0.1,0,0.2-0.1,0.3c-0.1,0.1-0.1,0.2-0.1,0.3
		c0.3,0.3,0.6,0.6,1.1,1c0.5,0.4,0.8,0.7,0.9,1c0,0.4,0.2,1,0.6,1.7c0.4,0.7,0.4,1.3,0,1.5l1.2,2.4c0,0.1-0.1,0.3-0.3,0.6
		c-0.2,0.3-0.3,0.5-0.3,0.8c-0.1,0.3-0.1,0.9,0,1.8c0.1,1,0.1,1.7,0,2.2c-0.4,0.5-0.7,0.9-0.8,1c0,0.3-0.1,0.6-0.2,1.1
		c-0.1,0.5-0.2,0.8-0.2,1.1c-0.1,0.1-0.4,0.4-0.7,0.9c-0.3,0.5-0.5,0.8-0.5,1.1c-0.8,0.7-1.2,1.3-1.2,1.8c-0.1,0-0.2,0-0.3,0
		c-0.1,0-0.2,0-0.3,0V68c-0.1,0-0.3,0-0.4-0.1c-0.1-0.1-0.3-0.1-0.4-0.1c-0.3,0-0.5,0.2-0.6,0.5c-0.1,0.3-0.3,0.6-0.4,0.7
		c-0.1,0-0.5,0-1-0.1c-0.5-0.1-0.9,0-1,0.1c-0.3,0.4-0.5,0.6-0.6,0.6s-0.3,0.1-0.5,0.2c-0.2,0.1-0.4,0.2-0.5,0.3
		c-0.1,0.1-0.3,0.2-0.6,0.5c-0.1,0-0.3,0-0.5,0.1c-0.2,0.1-0.3,0.2-0.3,0.3s0.1,0.2,0.2,0.3c0.1,0.1,0.1,0.2,0,0.3
		c-0.8,0.8-1.8,1.1-2.8,1c-0.1,0.1-0.5,0.3-1,0.4c-0.1,0.1-0.3,0.3-0.6,0.5c-0.3,0.2-0.4,0.3-0.5,0.3c-0.1,0-0.2,0-0.4,0
		c-0.2,0-0.4,0-0.5,0c-0.3,0-0.6,0.1-1,0.3c-0.4,0.2-0.7,0.3-0.8,0.3c-0.1,0-0.3-0.1-0.6-0.2c-0.3-0.1-0.5-0.2-0.6-0.2
		c-0.5,0.3-0.9,0.4-1,0.4c-0.1,0-0.2-0.1-0.3-0.2c-0.1-0.1-0.2-0.2-0.3-0.2l-1.2-0.2c-0.3-0.3-0.4-0.4-0.5-0.4c-0.1,0-0.5,0-1.3-0.1
		c-0.8-0.1-1.4-0.1-1.6-0.1c-0.3,0.1-0.4,0.3-0.3,0.6c0.1,0.3,0.2,0.4,0.3,0.4c0.4,1.6,0.9,2.7,1.4,3.2v0.6c0.4,0.5,1.1,1.1,2,1.5
		c1,0.5,1.6,0.9,1.8,1.1c0.8,0.1,1.3,0,1.6-0.4c0.5,0,0.8,0,0.9,0.1c0.1,0.1,0,0.2-0.1,0.5c0.1,0.1,0.4,0.3,0.8,0.4
		c0.4,0.1,0.7,0.2,0.8,0.2c0-0.1,0.2-0.3,0.5-0.4c0.3-0.1,0.6-0.1,0.7,0v0.4c0.4,0.4,1.3,0.6,2.7,0.6c1.4,0,2.4,0.1,3,0.2
		c0.8-0.4,1.4-0.7,1.8-0.8c0.1,0,0.3,0.1,0.6,0.2c0.9,0.1,2.4-0.2,4.5-1c0.1,0,0.3-0.1,0.6-0.3c0.3-0.2,0.5-0.3,0.8-0.3
		c0.1-0.1,0.4-0.2,0.8-0.1c0.4,0.1,0.7,0.1,0.8,0.1c0.1,0,0.2-0.1,0.3-0.2c0.1-0.1,0.1-0.2,0.2-0.2c0.1,0,0.3-0.1,0.7-0.2
		c0.4-0.1,0.7-0.3,0.8-0.4c1.1,0,2.2-0.6,3.2-1.8c0.1,0,0.3,0.1,0.6,0.4c0.3,0,0.5-0.1,0.7-0.4c0.2-0.3,0.4-0.4,0.7-0.4
		c0.1,0,0.3-0.1,0.4-0.2c0.1-0.1,0.2-0.3,0.2-0.4c0.5,0.1,1,0,1.4-0.4c0.4,0.1,0.8,0,1.2-0.4c0.1-0.1,0.3-0.2,0.4-0.3
		c0.1-0.1,0.3-0.1,0.5-0.1c0.2,0,0.4,0,0.5,0c0.1-0.1,0.4-0.3,0.7-0.5c0.3-0.2,0.6-0.4,0.9-0.5l2,0.2c0.1,0,0.2,0.1,0.3,0.3
		c0.1,0.2,0.2,0.3,0.3,0.3c0.5-0.1,0.9-0.1,1,0c0,0.1-0.2,0.2-0.6,0.2c0,0.3,0.3,0.4,0.8,0.4c1,0.5,1.4,1.2,1.4,1.8
		c0.7,0.1,1.1,0.3,1.2,0.4c0.4,1,0.2,2-0.6,3.2v0.2c-0.7,0-1.2,0.3-1.5,1c-0.3,0.7-0.6,1.1-0.7,1.2c-0.1,0.1-0.3,0.3-0.5,0.4
		c-0.2,0.1-0.4,0.3-0.5,0.4c0-0.1-0.1-0.1-0.4,0c-0.1,0-0.3,0.2-0.5,0.5c-0.2,0.3-0.4,0.5-0.5,0.6c-0.1,0.1-0.4,0.2-0.8,0.3
		c-0.4,0.1-0.7,0.3-0.8,0.4c-0.1,0-0.3,0.1-0.4,0.4c-0.1,0.3-0.3,0.5-0.4,0.6c-0.3,0.1-0.8,0.2-1.5,0.3c-0.8,0.1-1.3,0.2-1.7,0.5
		c-1.2,0.1-1.9,0.3-2,0.4c0,0.3,0,0.5,0,0.6c-1,0.1-1.6,0.5-1.8,1c-0.5-0.1-1.2,0-1.8,0.4c-0.3,0.3-0.5,0.5-0.8,0.6h-0.4
		c-0.1,0.1-0.3,0.3-0.6,0.4c-0.5,0.3-0.9,0.3-1.2,0c-0.5,0.4-1,0.7-1.4,0.8c-0.4,0.3-0.6,0.5-0.6,0.6c-0.4,0.1-1.1,0.2-2,0.2
		c-0.1,0-0.3,0-0.5,0s-0.4,0-0.5,0c-0.1,0-0.3,0.1-0.4,0.2c-0.1,0.1-0.3,0.3-0.4,0.4c-0.1,0-0.3,0-0.5,0c-0.2,0-0.4,0-0.5,0
		c-0.1,0-0.4,0.1-0.8,0.2c-0.1,0-0.3,0-0.6-0.1c-0.3-0.1-0.5-0.1-0.6-0.1c-0.3,0-0.6,0-1,0.1c-0.4,0.1-0.7,0.1-1,0.1s-0.7,0-1.3-0.1
		c-0.6-0.1-1.1-0.1-1.4-0.1s-0.8,0.1-1.3,0.2c-0.9,0.1-1.5,0.1-1.6-0.2c-0.3,0-0.6,0-1.1,0.1c-0.5,0.1-0.9,0.1-1.1,0.1
		c-0.1,0-0.3,0-0.5-0.1c-0.2-0.1-0.3-0.1-0.4-0.1c-0.1,0-0.2,0-0.4,0c-0.2,0-0.3,0-0.4,0c-0.1,0-0.2,0-0.3-0.1
		c-0.1-0.1-0.3-0.2-0.4-0.3c-0.1,0-0.3,0-0.5,0.1c-0.2,0.1-0.3,0.1-0.4,0.1c-0.1,0-0.3-0.1-0.7-0.4c-1-0.3-1.4-0.5-1.4-0.6
		c-0.5-0.1-0.9-0.3-1-0.4c0-0.1-0.3-0.2-0.8-0.3c-0.5-0.1-0.9-0.2-1-0.5c-0.5,0-1-0.2-1.4-0.6c-0.4,0-0.9-0.1-1.4-0.4
		c-0.4,0-0.7,0-0.8,0c0-0.3,0-0.5,0-0.6c-1.1-0.9-1.8-1.7-2.2-2.2c-0.1,0-0.3,0-0.4,0.1c-0.1,0.1-0.3,0-0.4-0.1
		c0-0.1-0.1-0.4-0.4-0.7c-0.3-0.3-0.4-0.6-0.4-0.9c-0.3-0.1-0.5-0.2-0.8-0.2v-0.4c-0.4-0.3-0.8-0.5-1.2-0.6c-0.7-1-1.1-1.4-1.2-1.4
		v-0.4c-0.1-0.3-0.4-0.7-0.7-1.4s-0.6-1.1-0.7-1.2c-0.5-0.7-0.8-1.1-0.8-1.2c-0.1-0.1-0.2-0.3-0.1-0.6c0.1-0.3,0.1-0.5,0-0.6
		c-0.1-0.1-0.2-0.3-0.3-0.6c-0.1-0.3-0.3-0.5-0.4-0.6c0-0.3,0-0.6,0-1c0-0.4,0-0.7,0-1c0-0.1,0-0.3-0.1-0.4s-0.1-0.3-0.1-0.4
		c0-0.3,0.3-0.7,0.8-1.2c-0.1-0.4-0.4-0.6-0.8-0.6l-0.4-1.4c0.9-0.5,1.1-1.1,0.6-1.6c0.3-0.8,0.4-1.2,0.4-1.3c0-0.1,0.1-0.2,0.4-0.5
		c0.3-0.3,0.3-0.5,0.2-0.8c0-0.1,0.1-0.2,0.3-0.3c0.2-0.1,0.3-0.2,0.3-0.3s-0.1-0.2-0.3-0.3c-0.2-0.1-0.3-0.2-0.3-0.3
		c0-0.1,0.1-0.4,0.4-0.8c0-0.1,0-0.4,0-0.8c0-0.4,0-0.7,0-0.8c0.3-0.7,0.4-1.1,0.4-1.4c0.4,0,0.6-0.3,0.6-1c0-0.4,0-0.7,0-1
		c0.1-0.1,0.5-0.4,1-0.8c0.8-0.8,1.3-1.3,1.3-1.5c0.1-0.2,0.1-0.5,0.1-1s0.1-0.8,0.2-0.9c0.1-0.1,0.3-0.3,0.6-0.4
		c0.3-0.1,0.4-0.2,0.5-0.3c0.1-0.1,0-0.2-0.1-0.3c-0.1-0.1-0.2-0.3-0.2-0.4c0.1-0.1,0.3-0.4,0.4-0.7c0.1-0.3,0.3-0.6,0.4-0.7
		c0.4-0.1,0.9-0.5,1.4-1c-0.1-0.3,0-0.9,0.4-1.8c0.9-0.1,1.5-0.7,1.6-1.6c0.1-0.1,0.3-0.2,0.4-0.2c0.1,0,0.3-0.2,0.4-0.6
		c0.1,0,0.3,0,0.4,0.1c0.1,0.1,0.3,0.2,0.4,0.3c0.4,0,0.9-0.3,1.4-1c0-0.5,0.1-0.9,0.2-1c0.1,0,0.5,0.2,1,0.6c0.9-0.1,1.3-0.7,1-1.8
		c0.4,0,0.9-0.1,1.4-0.4c0.5-0.3,1-0.5,1.2-0.6c0.4,0,0.6,0,0.7,0c0.1,0,0.1,0,0.2-0.1c0.1-0.1,0.1-0.1,0.2-0.2
		c0.1-0.1,0.2-0.1,0.4-0.1c0.2,0,0.3-0.1,0.3-0.2c0.1,0,0.4-0.2,0.7-0.5s0.6-0.5,0.7-0.5c0.1-0.1,0.5-0.2,1-0.1c0.5,0.1,0.9,0,1-0.1
		c0.1,0,0.3-0.1,0.5-0.2c0.2-0.1,0.3-0.2,0.4-0.3c0.1-0.1,0.2-0.1,0.4-0.1c0.2,0,0.4,0,0.5,0s0.3-0.1,0.4-0.3
		c0.1-0.2,0.3-0.3,0.6-0.3c0.1,0,0.3,0.1,0.4,0.3c0.1,0.2,0.3,0.3,0.4,0.3s0.3,0,0.6,0c0.3,0,0.5,0,0.8,0c0.3,0.4,0.9,0.7,1.8,0.8
		c0.1,0,0.3,0,0.5,0.1s0.4,0.1,0.5,0.1l1.6,0.4C86.1,42.4,86.5,42.8,86.9,42.8z M84.2,41.2l1.6,0.4c0.3,0.8,0.6,1.2,1,1.2
		c0,0.4,0.3,1,1,1.6c1.3,1.1,2.2,1.7,2.6,1.8c0,0.1,0,0.2-0.1,0.3c-0.1,0.1-0.1,0.2-0.1,0.3c0.3,0.3,0.6,0.6,1.1,1
		c0.5,0.4,0.8,0.7,0.9,1c0,0.4,0.2,1,0.6,1.7c0.4,0.7,0.4,1.3,0,1.5l1.2,2.4c0,0.1-0.1,0.3-0.3,0.6c-0.2,0.3-0.3,0.5-0.3,0.8
		c-0.1,0.3-0.1,0.9,0,1.8c0.1,1,0.1,1.7,0,2.2c-0.4,0.5-0.7,0.9-0.8,1c0,0.3-0.1,0.6-0.2,1.1c-0.1,0.5-0.2,0.8-0.2,0.9
		c-0.1,0.3-0.4,0.6-0.7,1.1c-0.3,0.5-0.5,0.8-0.5,1.1c-0.8,0.7-1.2,1.3-1.2,1.8c-0.1,0-0.2,0-0.3,0c-0.1,0-0.2,0-0.3,0V68
		c-0.1,0-0.3,0-0.4-0.1c-0.1-0.1-0.3-0.1-0.4-0.1c-0.3,0-0.5,0.2-0.6,0.5c-0.1,0.3-0.3,0.6-0.4,0.7c-0.1,0-0.5,0-1-0.1
		c-0.5-0.1-0.9,0-1,0.1c-0.3,0.4-0.5,0.6-0.6,0.6s-0.3,0.1-0.5,0.2c-0.2,0.1-0.4,0.2-0.5,0.3c-0.1,0.1-0.3,0.2-0.6,0.5
		c-0.1,0-0.3,0-0.5,0.1c-0.2,0.1-0.3,0.2-0.3,0.3s0.1,0.2,0.2,0.3c0.1,0.1,0.1,0.2,0,0.3c-0.8,0.8-1.8,1.1-2.8,1
		c-0.1,0.1-0.5,0.3-1,0.4c-0.1,0.1-0.3,0.3-0.6,0.5c-0.3,0.2-0.4,0.3-0.5,0.3c-0.1,0-0.2,0-0.4,0c-0.2,0-0.4,0-0.5,0
		c-0.3,0-0.6,0.1-1,0.3c-0.4,0.2-0.7,0.3-0.8,0.3c-0.1,0-0.3-0.1-0.6-0.2c-0.3-0.1-0.5-0.2-0.6-0.2c-0.5,0.3-0.9,0.4-1,0.4
		c-0.1,0-0.2-0.1-0.3-0.2c-0.1-0.1-0.2-0.2-0.3-0.2l-1.2-0.2c-0.3-0.3-0.4-0.4-0.5-0.4c-0.1,0-0.5,0-1.3-0.1
		c-0.8-0.1-1.4-0.1-1.8-0.1c-0.1,0.1-0.2,0.3-0.1,0.6c0.1,0.3,0.2,0.4,0.3,0.4c0.4,1.6,0.9,2.7,1.4,3.2v0.6c0.4,0.5,1.1,1.1,2,1.5
		c1,0.5,1.6,0.9,1.8,1.1c0.8,0.1,1.3,0,1.6-0.4c0.5,0,0.8,0,0.9,0.1c0.1,0.1,0,0.2-0.1,0.5c0.1,0.1,0.4,0.3,0.8,0.4h0.8
		c0.7-0.3,1.1-0.3,1.2-0.2v0.4c0.4,0.4,1.3,0.6,2.7,0.6c1.4,0,2.4,0.1,3,0.2c0.8-0.4,1.4-0.7,1.8-0.8c0.1,0,0.3,0.1,0.6,0.2
		c0.9,0.1,2.4-0.2,4.5-1c0.1,0,0.3-0.1,0.6-0.3c0.3-0.2,0.5-0.3,0.8-0.3c0.1-0.1,0.4-0.2,0.8-0.1c0.4,0.1,0.7,0.1,0.8,0.1
		c0.1,0,0.2-0.1,0.3-0.2c0.1-0.1,0.1-0.2,0.2-0.2c0.1,0,0.3-0.1,0.7-0.2c0.4-0.1,0.7-0.3,0.8-0.4c1.1,0,2.2-0.6,3.2-1.8
		c0.1,0,0.3,0.1,0.6,0.4c0.3,0,0.5-0.1,0.7-0.4c0.2-0.3,0.4-0.4,0.7-0.4c0.1,0,0.3-0.1,0.4-0.2c0.1-0.1,0.2-0.3,0.2-0.4
		c0.5,0.1,1,0,1.4-0.4c0.4,0.1,0.8,0,1.2-0.4c0.1-0.1,0.3-0.2,0.4-0.3c0.1-0.1,0.3-0.1,0.5-0.1c0.2,0,0.4,0,0.5,0
		c0.1-0.1,0.4-0.3,0.7-0.5c0.3-0.2,0.6-0.4,0.9-0.5l2,0.2c0.1,0,0.2,0.1,0.3,0.3c0.1,0.2,0.2,0.3,0.3,0.3c0.5-0.1,0.9-0.1,1,0
		c0,0.1-0.2,0.2-0.6,0.2c0,0.3,0.3,0.4,0.8,0.4c1,0.5,1.4,1.2,1.4,1.8c0.7,0.1,1.1,0.3,1.2,0.4c0.4,1,0.2,2-0.6,3.2v0.2
		c-0.7,0-1.2,0.3-1.5,1c-0.3,0.7-0.6,1.1-0.7,1.2c-0.1,0.1-0.3,0.3-0.5,0.4c-0.2,0.1-0.4,0.3-0.5,0.4c0-0.1-0.1-0.1-0.4,0
		c-0.1,0-0.3,0.2-0.5,0.5c-0.2,0.3-0.4,0.5-0.5,0.6c-0.1,0.1-0.4,0.2-0.8,0.3c-0.4,0.1-0.7,0.3-0.8,0.4c-0.1,0-0.3,0.1-0.4,0.4
		c-0.1,0.3-0.3,0.5-0.4,0.6c-0.3,0.1-0.8,0.2-1.5,0.3c-0.8,0.1-1.3,0.2-1.7,0.5c-1.2,0.1-1.9,0.3-2,0.4c0,0.3,0,0.5,0,0.6
		c-1,0.1-1.6,0.5-1.8,1c-0.5-0.1-1.2,0-1.8,0.4c-0.3,0.3-0.5,0.5-0.8,0.6h-0.4c-0.1,0.1-0.3,0.3-0.6,0.4c-0.5,0.3-0.9,0.3-1.2,0
		c-0.5,0.4-1,0.7-1.4,0.8c-0.4,0.3-0.6,0.5-0.6,0.6c-0.4,0.1-1.1,0.2-2,0.2c-0.1,0-0.3,0-0.5,0s-0.4,0-0.5,0c-0.1,0-0.3,0.1-0.4,0.2
		c-0.1,0.1-0.3,0.3-0.4,0.4c-0.1,0-0.3,0-0.5,0c-0.2,0-0.4,0-0.5,0c-0.1,0-0.4,0.1-0.8,0.2c-0.1,0-0.3,0-0.6-0.1
		c-0.3-0.1-0.5-0.1-0.6-0.1c-0.3,0-0.6,0-1,0.1c-0.4,0.1-0.7,0.1-1,0.1s-0.7,0-1.3-0.1c-0.6-0.1-1.1-0.1-1.4-0.1s-0.8,0.1-1.3,0.2
		c-0.9,0.1-1.5,0.1-1.6-0.2c-0.3,0-0.6,0-1.1,0.1c-0.5,0.1-0.9,0.1-1.1,0.1c-0.1,0-0.3,0-0.5-0.1c-0.2-0.1-0.3-0.1-0.4-0.1
		c-0.1,0-0.2,0-0.4,0c-0.2,0-0.3,0-0.4,0c-0.1,0-0.2,0-0.3-0.1c-0.1-0.1-0.3-0.2-0.4-0.3c-0.1,0-0.3,0-0.5,0.1
		c-0.2,0.1-0.3,0.1-0.4,0.1c-0.1,0-0.3-0.1-0.7-0.4c-1-0.3-1.4-0.5-1.4-0.6c-0.5-0.1-0.9-0.3-1-0.4c0-0.1-0.3-0.2-0.8-0.3
		c-0.5-0.1-0.9-0.2-1-0.5c-0.5,0-1-0.2-1.4-0.6c-0.4,0-0.9-0.1-1.4-0.4c-0.4,0-0.7,0-0.8,0c0-0.3,0-0.5,0-0.6
		c-1.1-0.9-1.8-1.7-2.2-2.2c-0.1,0-0.3,0-0.4,0.1c-0.1,0.1-0.3,0-0.4-0.1c0-0.1-0.1-0.4-0.4-0.7c-0.3-0.3-0.4-0.6-0.4-0.9
		c-0.3-0.1-0.5-0.2-0.8-0.2v-0.4c-0.4-0.3-0.8-0.5-1.2-0.6c-0.7-1-1.1-1.4-1.2-1.4v-0.4c-0.1-0.3-0.4-0.7-0.7-1.4s-0.6-1.1-0.7-1.2
		c-0.5-0.7-0.8-1.1-0.8-1.2c-0.1-0.1-0.2-0.3-0.1-0.6c0.1-0.3,0.1-0.5,0-0.6c-0.1-0.1-0.2-0.3-0.3-0.6c-0.1-0.3-0.3-0.5-0.4-0.6
		c0-0.3,0-0.6,0-1c0-0.4,0-0.7,0-1c0-0.1,0-0.3-0.1-0.4s-0.1-0.3-0.1-0.4c0-0.3,0.3-0.7,0.8-1.2c-0.1-0.4-0.4-0.6-0.8-0.6l-0.4-1.4
		c0.9-0.5,1.1-1.1,0.6-1.6c0.3-0.8,0.4-1.2,0.4-1.3c0-0.1,0.1-0.2,0.4-0.5c0.3-0.3,0.3-0.5,0.2-0.8c0-0.1,0.1-0.2,0.3-0.3
		c0.2-0.1,0.3-0.2,0.3-0.3s-0.1-0.2-0.3-0.3c-0.2-0.1-0.3-0.2-0.3-0.3c0-0.1,0.1-0.4,0.4-0.8c0-0.1,0-0.4,0-0.8c0-0.4,0-0.7,0-0.8
		c0.3-0.7,0.4-1.1,0.4-1.4c0.4,0,0.6-0.3,0.6-1c0-0.4,0-0.7,0-1c0.1-0.1,0.5-0.4,1-0.8c0.8-0.8,1.3-1.3,1.3-1.5
		c0.1-0.2,0.1-0.5,0.1-1s0.1-0.8,0.2-0.9c0.1-0.1,0.3-0.3,0.6-0.4c0.3-0.1,0.4-0.2,0.5-0.3c0.1-0.1,0-0.2-0.1-0.3
		c-0.1-0.1-0.2-0.3-0.2-0.4c0.1-0.1,0.3-0.4,0.4-0.7c0.1-0.3,0.3-0.6,0.4-0.7c0.4-0.1,0.9-0.5,1.4-1c-0.1-0.3,0-0.9,0.4-1.8
		c0.9-0.1,1.5-0.7,1.6-1.6c0.1-0.1,0.3-0.2,0.4-0.2c0.1,0,0.3-0.2,0.4-0.6c0.1,0,0.3,0,0.4,0.1c0.1,0.1,0.3,0.2,0.4,0.3
		c0.4,0,0.9-0.3,1.4-1c0-0.5,0.1-0.9,0.2-1c0.1,0,0.5,0.2,1,0.6c0.9-0.1,1.3-0.7,1-1.8c0.4,0,0.9-0.1,1.4-0.4c0.5-0.3,1-0.5,1.2-0.6
		c0.4,0,0.6,0,0.7,0c0.1,0,0.1,0,0.2-0.1c0.1-0.1,0.1-0.1,0.2-0.2c0.1-0.1,0.2-0.1,0.4-0.1c0.2,0,0.3-0.1,0.3-0.2
		c0.1,0,0.4-0.2,0.7-0.5s0.6-0.5,0.7-0.5c0.1-0.1,0.5-0.2,1-0.1c0.5,0.1,0.9,0,1-0.1c0.1,0,0.3-0.1,0.5-0.2c0.2-0.1,0.3-0.2,0.4-0.3
		c0.1-0.1,0.2-0.1,0.4-0.1c0.2,0,0.4,0,0.5,0s0.3-0.1,0.4-0.3c0.1-0.2,0.3-0.3,0.6-0.3c0.1,0,0.3,0.1,0.4,0.3
		c0.1,0.2,0.3,0.3,0.4,0.3s0.3,0,0.6,0c0.3,0,0.5,0,0.8,0c0.3,0.4,0.9,0.7,1.8,0.8c0.1,0,0.3,0,0.5,0.1S84.1,41.2,84.2,41.2z
		 M63.9,47.3c0,0.1,0,0.3,0,0.4c0.1,0.1,0.3,0.2,0.4,0.2c0-0.1,0-0.3-0.1-0.4C64.1,47.3,64,47.3,63.9,47.3z M63.9,47.7
		c0.1,0.1,0.3,0.2,0.4,0.2c0-0.1,0-0.3-0.1-0.4c-0.1-0.1-0.2-0.2-0.3-0.2C63.9,47.4,63.9,47.5,63.9,47.7z M71.6,60.3
		c0.1,0.1,0.5,0.2,1.1,0.1c0.6-0.1,1,0,1.1,0.1c0.5,0,1.1-0.2,1.7-0.5c0.6-0.3,1.1-0.6,1.3-0.7c0.5-0.7,1.2-1.1,2-1.4
		c0-0.1,0.1-0.3,0.4-0.6c0.5-1,0.8-1.6,0.8-2c0-0.7-0.3-1-0.8-0.8c-1,0.3-1.6,0.7-2,1.2c-0.4-0.3-1-0.1-1.6,0.4
		c-1.8,1.2-2.7,2-2.8,2.4c-0.3,0.1-0.5,0.3-0.8,0.6c0,0.3-0.1,0.5-0.2,0.7C71.7,60,71.6,60.1,71.6,60.3z M73.9,60.5
		c0.5,0,1.1-0.2,1.7-0.5c0.6-0.3,1.1-0.6,1.3-0.7c0.5-0.7,1.2-1.1,2-1.4c0-0.1,0.1-0.3,0.4-0.6c0.5-1,0.8-1.6,0.8-2
		c0-0.7-0.3-1-0.8-0.8c-1,0.3-1.6,0.7-2,1.2c-0.4-0.3-1-0.1-1.6,0.4c-1.8,1.2-2.7,2-2.8,2.4c-0.3,0.1-0.5,0.3-0.8,0.6
		c0,0.3-0.1,0.5-0.2,0.7c-0.1,0.2-0.2,0.4-0.2,0.5c0.1,0.1,0.5,0.2,1.1,0.1C73.4,60.3,73.7,60.4,73.9,60.5z"/>
	<path fill="#E0BFE3" d="M156.8,45c0,0.3,0,0.4,0,0.4s0,0,0,0.1c0,0.1,0.1,0.2,0.4,0.5c0.3,0.3,0.4,0.6,0.4,1c0.1,0,0.3,0,0.5,0
		c0.2,0,0.4,0,0.5,0c0.1,0.4,0.4,0.8,0.9,1.2c0.5,0.4,0.7,0.8,0.7,1c0,0.1,0,0.4,0,0.8c0,0.4,0,0.7,0,0.8s0.1,0.2,0.4,0.2
		s0.3,0.1,0.2,0.4h-0.4c-0.1,0.3-0.1,0.7,0.2,1.2c-0.1,0.3-0.3,0.6-0.6,1l-0.4,0.8c-0.1,0.3-0.1,0.5,0.1,0.7
		c0.2,0.2,0.3,0.4,0.3,0.5c-0.4,0.4-0.6,0.7-0.6,0.8s0.1,0.3,0.2,0.5c0.1,0.2,0.2,0.4,0.2,0.5c-1,1.1-1.9,1.6-2.8,1.6
		c-0.1,0-0.3,0-0.5,0c-0.2,0-0.4,0-0.7,0l-0.4,0.2c-0.3,0-0.6-0.2-1.1-0.5c-0.5-0.3-0.9-0.4-1.3-0.3c-0.5-0.4-1-0.6-1.4-0.6
		c-0.3,0.3-0.5,0.4-0.6,0.5c-0.1,0.1-0.3,0.1-0.4,0.1s-0.2,0-0.3,0.1c-0.1,0.1-0.2,0.1-0.3,0.2c-0.1,0.1-0.2,0.2-0.2,0.3
		c-0.1,0-0.5,0.2-1,0.5c-0.5,0.3-1,0.6-1.2,0.9c-0.3,0.3-0.5,0.5-0.6,0.6c-0.4,0.3-1.3,1.2-2.6,2.8c-0.1,0.3-0.4,0.6-0.7,1
		c-0.3,0.4-0.6,0.7-0.7,0.8c0,0.1-0.1,0.3-0.2,0.4c-0.1,0.1-0.3,0.2-0.4,0.2c0,0.4-0.2,0.8-0.5,1.1c-0.3,0.3-0.6,0.6-0.7,0.7V69
		c-0.4,0.3-0.8,0.9-1.3,1.7c-0.5,0.9-0.8,1.5-1.1,1.7c0,0.4-0.1,0.8-0.3,1.3c-0.2,0.5-0.4,0.8-0.5,1.1c-0.3,0.1-0.4,0.3-0.4,0.4
		s0.1,0.3,0.2,0.4c0.1,0.1,0.2,0.3,0.2,0.4c0,0.1-0.1,0.2-0.4,0.3c-0.3,0.1-0.5,0.1-0.6,0.1c0.1,0.5,0.5,0.7,1,0.4
		c0.1,0,0.3-0.2,0.6-0.5c0.3-0.3,0.6-0.5,1-0.5c0.1-0.1,0.3-0.3,0.4-0.4c0.1-0.1,0.3-0.3,0.4-0.4h0.4c0.3-0.1,0.6-0.4,1-0.8
		c0.4-0.4,0.7-0.7,0.8-0.8c0.1-0.1,0.3-0.2,0.6-0.3c0.3-0.1,0.5-0.2,0.6-0.3c0.3-0.1,0.5-0.5,0.8-1c0.3-0.3,0.5-0.4,0.6-0.4
		c0.3-0.3,0.7-0.7,1.4-1.4c0.3-0.3,0.6-0.7,1.1-1.2c0.5-0.5,0.8-0.9,1.1-1c1.1-1.1,1.8-1.8,2-2.2c0.3-0.1,0.8-0.6,1.6-1.4
		c0.1-0.7,0.2-1,0.2-1.1c0-0.1,0.1-0.1,0.3,0c0.2,0.1,0.4,0.1,0.5,0.1c0.1,0,0.2-0.1,0.3-0.4c0.1-0.3,0.2-0.4,0.3-0.4
		c0-0.1,0.1-0.3,0.4-0.4s0.5-0.2,0.6-0.3c0.1-0.1,0.3-0.2,0.4-0.5c0.1-0.3,0.3-0.5,0.4-0.6c0.4,0.1,0.9-0.1,1.4-0.6
		c0.3,0.1,0.7,0.1,1.2,0h0.4c0.1,0,0.3,0,0.4,0c0.1,0,0.3,0,0.4,0c0.1,0,0.3-0.1,0.4-0.2c0.1-0.1,0.2-0.2,0.3-0.2s0.1,0.1,0.2,0.2
		c0.1,0.1,0.2,0.2,0.3,0.2h0.2c0.1,0.1,0.4,0.3,0.8,0.6c0.1,0.1,0.3,0.2,0.5,0.1c0.2-0.1,0.4,0,0.5,0.1l0.6,1c0.5,0,1.3,0.6,2.2,1.8
		c-0.1,0.4,0.1,0.8,0.6,1.2c0.3,0.1,0.4,0.3,0.4,0.4c0.1,0,0.3,0.3,0.4,0.8c0.1,0.1,0.2,0.2,0.3,0.3c0.1,0.1,0.1,0.2,0.1,0.3
		c0.1,0.1,0.2,0.3,0.3,0.6s0.1,0.5,0.1,0.6c0.1,0.1,0.3,0.4,0.5,0.7c0.2,0.3,0.4,0.6,0.5,0.7c0.1,0.5,0.3,0.9,0.6,1.2
		c0,0.1,0,0.3,0.1,0.6c0.1,0.3,0.1,0.5,0.1,0.6l0.6,0.2c-0.3,0.5-0.2,1.1,0.3,1.5c0.5,0.5,0.7,0.9,0.7,1.3l1,1.4
		c0.4,0.3,0.9,0.7,1.5,1.3c0.6,0.6,1,1,1.1,1.1c0,0.1,0,0.2,0.1,0.3c0.1,0.1,0.1,0.2,0.1,0.3c0.3,0.3,0.8,0.8,1.6,1.7
		c0.8,0.9,1.5,1.5,2,1.9h0.4c0.7,0.4,1.2,0.6,1.6,0.6c0.3,0.3,0.6,0.7,1,1.2c0.5,0,1.4-0.3,2.4-0.8c0.1,0.1,0.5,0.1,1.2,0
		c1.1,0,1.8,0.1,2,0.4c0.1,0.1,0.2,0.2,0.3,0.1c0.1-0.1,0.2-0.1,0.3-0.1c0.4,0.5,1.2,0.6,2.4,0.2c0.1,0.3,0.1,0.6,0,1
		c-0.1,0.1-0.2,0.3-0.2,0.4c-0.1,0.7,0.3,1.1,1.2,1.2c0.4,0,0.7,0.1,0.8,0.2c0.1,0.1,0.1,0.4-0.1,0.7c-0.2,0.3-0.2,0.6-0.1,0.7
		c0,0.3,0.1,0.5,0.2,0.6c0.1,0.1,0.3,0.3,0.4,0.4c0,0.5-0.3,1-0.8,1.4c-0.5,0.4-0.9,0.7-1,0.8c0,0.3,0,0.6,0.1,0.9
		c0.1,0.3,0.1,0.6,0.1,0.7c-0.1,0.3-0.3,0.6-0.6,1.1c-0.3,0.5-0.4,0.8-0.4,1.1c-2,0-3.2,0.9-3.7,2.6c-0.3,0-0.5-0.1-0.6-0.2
		c-0.1-0.1-0.3-0.2-0.4-0.2c-0.1,0-0.3,0.1-0.4,0.4c0,0.1-0.1,0.2-0.2,0.2c-0.5-0.1-1-0.1-1.2,0c-0.4-0.8-0.8-0.8-1.2,0
		c-0.1,0-0.3-0.1-0.5-0.2c-0.2-0.1-0.4-0.2-0.7-0.2c-0.1,0-0.2,0.1-0.2,0.2c0,0.1-0.1,0.2-0.2,0.2c-0.1-0.1-0.6-0.2-1.4-0.2
		c-0.1-0.1-0.2-0.3-0.2-0.6c-0.1,0-0.3-0.1-0.6-0.2c-0.3-0.1-0.5-0.2-0.6-0.2c-0.1,0-0.3,0.1-0.4,0.2c-0.1,0.1-0.3,0.1-0.6,0
		c0-0.5-0.1-0.8-0.2-0.8c-0.5,0.1-0.9,0.2-1,0.2c0-0.5-0.1-0.9-0.4-1c-0.1,0-0.3,0.1-0.4,0.2c-0.1,0.1-0.3,0.1-0.4,0
		c0-0.3-0.1-0.4-0.2-0.4c0-0.1-0.1-0.1-0.4,0l-0.8-1c-0.3,0-0.5,0.1-0.6,0.2c-0.1,0.1-0.3,0.2-0.4,0.2v-0.6l-0.2-0.2
		c-0.3-0.1-0.7-0.5-1.4-1.1s-1.2-1-1.6-1.1c-0.3-0.4-0.7-0.9-1.3-1.4c-0.6-0.5-1-0.9-1.1-1c-0.1,0-0.3-0.1-0.6-0.2
		c-0.3-0.1-0.5-0.3-0.6-0.4c0-0.1-0.1-0.5-0.4-1c-0.5-0.1-1-0.5-1.4-1.2c0.1-0.3,0.2-0.4,0.2-0.5c0-0.1-0.1-0.2-0.2-0.3
		c-1-0.1-1.4-0.5-1.4-1c0-0.1-0.5-0.6-1.4-1.4l-0.6-1.2c0-0.1,0-0.3,0-0.4s0-0.2-0.1-0.3c-0.1-0.1-0.4-0.3-1.1-0.7
		c-0.4-1.4-0.8-2-1.2-2c-0.4-0.1-0.9,0.2-1.4,0.9c-0.5,0.7-0.9,1.1-1,1.1c-0.4,0.3-0.8,0.6-1.2,1c-0.1,0.1-0.3,0.2-0.4,0.2
		c-0.1,0.1-0.4,0.3-0.8,0.6c-0.4,0.3-0.6,0.5-0.6,0.6c-0.1,0.1-0.3,0.3-0.5,0.5c-0.2,0.2-0.4,0.4-0.5,0.5c-0.1,0.1-0.3,0.3-0.6,0.4
		c-0.7,0.3-1,0.7-1,1.2c-0.5-0.1-1.1,0-1.6,0.5c-0.5,0.5-0.9,0.7-1,0.7c0,0.1-0.1,0.3-0.2,0.6c-1.1,0-1.8,0.5-2.2,1.4l-0.4-0.2
		c-0.1,0.3-0.5,0.5-1.1,0.6c-0.6,0.1-1,0.3-1.1,0.6c-0.5,0-0.9,0.1-1.2,0.2c-0.3,0.1-0.4,0.4-0.4,0.8c0,0.1-0.3,0.2-0.8,0.2
		c-0.1-0.4-0.3-0.6-0.4-0.6s-0.3,0.1-0.4,0.3c-0.1,0.2-0.3,0.3-0.4,0.3c-0.1,0-0.2-0.1-0.3-0.2c-0.1-0.1-0.2-0.2-0.3-0.2
		c-0.3,0-0.5,0.2-0.6,0.6c-0.8,0.1-1.5,0.1-2-0.2c-0.7,0.5-1.2,0.3-1.6-0.6h-0.8c-0.1,0-0.5-0.3-1-0.9c-0.5-0.6-1.1-0.9-1.6-0.9
		c-0.4-0.7-1.1-1.4-2.1-2.1c-1-0.7-1.7-1.5-1.9-2.1c-0.4-0.1-0.7-0.2-1-0.2c-0.1-0.1-0.2-0.4-0.2-0.7c0-0.3,0-0.6,0-0.7
		c0-0.1-0.1-0.3-0.3-0.5c-0.2-0.2-0.3-0.4-0.3-0.5c0-0.1,0.1-0.3,0.2-0.6c0.1-0.3,0.2-0.5,0.1-0.6c-0.1-0.1-0.2-0.3-0.3-0.5
		c-0.1-0.2-0.3-0.4-0.4-0.5c0.1-0.1,0.2-0.2,0.3-0.3c0.1-0.1,0.1-0.2,0.1-0.3c0-0.1-0.2-0.4-0.5-0.8c-0.3-0.4-0.4-0.7-0.1-1
		c0-0.1-0.1-0.3-0.3-0.4c-0.2-0.1-0.4-0.3-0.5-0.4c0.1-0.3,0.3-0.5,0.4-0.8c0.1-1,0.1-1.6-0.2-2c-0.4-0.3-0.5-0.5-0.4-0.6h0.4
		c0.1-0.1,0.3-0.3,0.5-0.5c0.2-0.2,0.4-0.4,0.5-0.5c0.1-0.3,0.2-0.9,0.2-2s0.2-1.7,0.6-1.8c0-0.1,0-0.2,0-0.3c0-0.1,0-0.2,0-0.3
		c0.1-0.1,0.5-0.7,1-1.7c0.5-1,1-1.7,1.4-1.9c0-0.5,0.2-1.1,0.6-1.6v-0.4c0-0.1,0.2-0.5,0.7-1.2c0.5-0.7,0.8-1.1,1.1-1.4
		c0-0.3,0.2-0.7,0.6-1.2c0-0.5,0.2-1,0.6-1.4c0.1,0,0.3,0,0.4,0c0.4-0.3,0.9-0.9,1.4-1.8c0.5-0.9,1-1.6,1.4-1.8v-0.6
		c0.3-0.1,1-1,2.2-2.6c0.8-0.3,1.4-0.7,1.6-1.2c0.1-0.4,0.2-0.6,0.3-0.6c0.1,0,0.3-0.1,0.7-0.3c0.4-0.2,0.6-0.4,0.6-0.7
		c0.3,0,0.6-0.1,0.9-0.4c0.3-0.3,0.6-0.4,0.9-0.4c0-0.1,0.2-0.4,0.7-0.7c0.5-0.3,0.7-0.7,0.7-1.1c0.1,0,0.2,0,0.3,0.1
		c0.1,0.1,0.2,0.1,0.3,0.1l0.6-0.6c0.1,0,0.4,0,0.7,0c0.3,0,0.6-0.1,0.7-0.2c0.4,0,0.8-0.1,1.1-0.4c0.3-0.3,0.6-0.4,0.7-0.4
		c0.1,0,0.3,0,0.4,0c0.5,0.3,0.9,0.3,1.2,0.2c0.1,0,0.2-0.1,0.3-0.4c0.1-0.3,0.3-0.3,0.7-0.2c0.5,0.3,0.9,0.4,1.1,0.5s0.5,0.1,0.8,0
		c0.3-0.1,0.6-0.1,0.9-0.1c0,0.1,0.1,0.2,0.2,0.2c0.1,0,0.3,0,0.4,0c0.1,0.1,0.4,0.2,0.9,0.1c0.5-0.1,0.8-0.1,0.9-0.1
		c1.1,0.1,1.7,0.5,1.8,1.2C156.8,44.6,156.8,44.8,156.8,45z M157.6,47.1c0.1,0,0.3,0,0.5,0c0.2,0,0.4,0,0.5,0
		c0.1,0.4,0.4,0.8,0.9,1.2c0.5,0.4,0.7,0.8,0.7,1c0,0.1,0,0.4,0,0.8c0,0.4,0,0.7,0,0.8s0.1,0.2,0.4,0.2s0.3,0.1,0.2,0.4h-0.4
		c-0.1,0.3-0.1,0.7,0.2,1.2c-0.1,0.3-0.3,0.6-0.6,1l-0.4,0.8c-0.1,0.3-0.1,0.5,0.1,0.7c0.2,0.2,0.3,0.4,0.3,0.5
		c-0.4,0.4-0.6,0.7-0.6,0.8s0.1,0.3,0.2,0.5c0.1,0.2,0.2,0.4,0.2,0.5c-1,1.1-1.9,1.6-2.8,1.6c-0.1,0-0.3,0-0.5,0c-0.2,0-0.4,0-0.7,0
		l-0.4,0.2c-0.3,0-0.6-0.2-1.1-0.5c-0.5-0.3-0.9-0.4-1.3-0.3c-0.5-0.4-1-0.6-1.4-0.6c-0.3,0.3-0.5,0.4-0.6,0.5
		c-0.1,0.1-0.3,0.1-0.4,0.1s-0.2,0-0.3,0.1c-0.1,0.1-0.2,0.1-0.3,0.2c-0.1,0.1-0.2,0.2-0.2,0.3c-0.1,0-0.5,0.2-1,0.5
		c-0.5,0.3-1,0.6-1.2,0.9c-0.3,0.3-0.5,0.5-0.6,0.6c-0.4,0.3-1.3,1.2-2.6,2.8c-0.1,0.3-0.4,0.6-0.7,1c-0.3,0.4-0.6,0.7-0.7,0.8
		c0,0.1-0.1,0.3-0.2,0.4c-0.1,0.1-0.3,0.2-0.4,0.2c0,0.4-0.2,0.8-0.5,1.1c-0.3,0.3-0.6,0.6-0.7,0.7V69c-0.4,0.3-0.8,0.9-1.3,1.7
		c-0.5,0.9-0.8,1.5-1.1,1.7c0,0.4-0.1,0.8-0.3,1.3c-0.2,0.5-0.4,0.8-0.5,1.1c-0.3,0.1-0.4,0.3-0.4,0.4s0.1,0.3,0.2,0.4
		c0.1,0.1,0.2,0.3,0.2,0.4c0,0.1-0.1,0.2-0.4,0.3c-0.3,0.1-0.5,0.1-0.6,0.1c0.1,0.5,0.5,0.7,1,0.4c0.1,0,0.3-0.2,0.6-0.5
		c0.3-0.3,0.6-0.5,1-0.5c0.1-0.1,0.3-0.3,0.4-0.4c0.1-0.1,0.3-0.3,0.4-0.4h0.4c0.3-0.1,0.6-0.4,1-0.8c0.4-0.4,0.7-0.7,0.8-0.8
		c0.1-0.1,0.3-0.2,0.6-0.3c0.3-0.1,0.5-0.2,0.6-0.3c0.3-0.1,0.5-0.5,0.8-1c0.3-0.3,0.5-0.4,0.6-0.4c0.3-0.3,0.7-0.7,1.4-1.4
		c0.3-0.3,0.6-0.7,1.1-1.2c0.5-0.5,0.8-0.9,1.1-1c1.1-1.1,1.8-1.8,2-2.2c0.3-0.1,0.8-0.6,1.6-1.4c0.1-0.7,0.2-1,0.2-1.1
		c0-0.1,0.1-0.1,0.3,0c0.2,0.1,0.4,0.1,0.5,0.1c0.1,0,0.2-0.1,0.3-0.4c0.1-0.3,0.2-0.4,0.3-0.4c0-0.1,0.1-0.3,0.4-0.4
		s0.5-0.2,0.6-0.3c0.1-0.1,0.3-0.2,0.4-0.5c0.1-0.3,0.3-0.5,0.4-0.6c0.4,0.1,0.9-0.1,1.4-0.6c0.3,0.1,0.7,0.1,1.2,0h0.4
		c0.1,0,0.3,0,0.4,0c0.1,0,0.3,0,0.4,0c0.1,0,0.3-0.1,0.4-0.2c0.1-0.1,0.2-0.2,0.3-0.2s0.1,0.1,0.2,0.2c0.1,0.1,0.2,0.2,0.3,0.2h0.2
		c0.1,0.1,0.4,0.3,0.8,0.6c0.1,0.1,0.3,0.2,0.5,0.1c0.2-0.1,0.4,0,0.5,0.1l0.6,1c0.5,0,1.3,0.6,2.2,1.8c-0.1,0.4,0.1,0.8,0.6,1.2
		c0.3,0.1,0.4,0.3,0.4,0.4c0.1,0,0.3,0.3,0.4,0.8c0.1,0.1,0.2,0.2,0.3,0.3c0.1,0.1,0.1,0.2,0.1,0.3c0.1,0.1,0.2,0.3,0.3,0.6
		s0.1,0.5,0.1,0.6c0.1,0.1,0.3,0.4,0.5,0.7c0.2,0.3,0.4,0.6,0.5,0.7c0.1,0.5,0.3,0.9,0.6,1.2c0,0.1,0,0.3,0.1,0.6
		c0.1,0.3,0.1,0.5,0.1,0.6l0.6,0.2c-0.3,0.5-0.2,1.1,0.3,1.5c0.5,0.5,0.7,0.9,0.7,1.3l1,1.4c0.4,0.3,0.9,0.7,1.5,1.3
		c0.6,0.6,1,1,1.1,1.1c0,0.1,0,0.2,0.1,0.3c0.1,0.1,0.1,0.2,0.1,0.3c0.3,0.3,0.8,0.8,1.6,1.7c0.8,0.9,1.5,1.5,2,1.9h0.4
		c0.7,0.4,1.2,0.6,1.6,0.6c0.3,0.3,0.6,0.7,1,1.2c0.5,0,1.4-0.3,2.4-0.8c0.1,0.1,0.5,0.1,1.2,0c1.1,0,1.8,0.1,2,0.4
		c0.1,0.1,0.2,0.2,0.3,0.1c0.1-0.1,0.2-0.1,0.3-0.1c0.4,0.5,1.2,0.6,2.4,0.2c0.1,0.3,0.1,0.6,0,1c-0.1,0.1-0.2,0.3-0.2,0.4
		c-0.1,0.7,0.3,1.1,1.2,1.2c0.4,0,0.7,0.1,0.8,0.2c0.1,0.1,0.1,0.4-0.1,0.7c-0.2,0.3-0.2,0.6-0.1,0.7c0,0.3,0.1,0.5,0.2,0.6
		c0.1,0.1,0.3,0.3,0.4,0.4c0,0.5-0.3,1-0.8,1.4c-0.5,0.4-0.9,0.7-1,0.8c0,0.3,0,0.6,0.1,0.9c0.1,0.3,0.1,0.6,0.1,0.7
		c-0.1,0.3-0.3,0.6-0.6,1.1c-0.3,0.5-0.4,0.8-0.4,1.1c-2,0-3.2,0.9-3.7,2.6c-0.3,0-0.5-0.1-0.6-0.2c-0.1-0.1-0.3-0.2-0.4-0.2
		c-0.1,0-0.3,0.1-0.4,0.4c0,0.1-0.1,0.2-0.2,0.2c-0.5-0.1-1-0.1-1.2,0c-0.4-0.8-0.8-0.8-1.2,0c-0.1,0-0.3-0.1-0.5-0.2
		c-0.2-0.1-0.4-0.2-0.7-0.2c-0.1,0-0.2,0.1-0.2,0.2c0,0.1-0.1,0.2-0.2,0.2c-0.1-0.1-0.6-0.2-1.4-0.2c-0.1-0.1-0.2-0.3-0.2-0.6
		c-0.1,0-0.3-0.1-0.6-0.2c-0.3-0.1-0.5-0.2-0.6-0.2c-0.1,0-0.3,0.1-0.4,0.2c-0.1,0.1-0.3,0.1-0.6,0c0-0.5-0.1-0.8-0.2-0.8
		c-0.5,0.1-0.9,0.2-1,0.2c0-0.5-0.1-0.9-0.4-1c-0.1,0-0.3,0.1-0.4,0.2c-0.1,0.1-0.3,0.1-0.4,0c0-0.3-0.1-0.4-0.2-0.4
		c0-0.1-0.1-0.1-0.4,0l-0.8-1c-0.3,0-0.5,0.1-0.6,0.2c-0.1,0.1-0.3,0.2-0.4,0.2v-0.6l-0.2-0.2c-0.3-0.1-0.7-0.5-1.4-1.1
		s-1.2-1-1.6-1.1c-0.3-0.4-0.7-0.9-1.3-1.4c-0.6-0.5-1-0.9-1.1-1c-0.1,0-0.3-0.1-0.6-0.2c-0.3-0.1-0.5-0.3-0.6-0.4
		c0-0.1-0.1-0.5-0.4-1c-0.5-0.1-1-0.5-1.4-1.2c0.1-0.3,0.2-0.4,0.2-0.5c0-0.1-0.1-0.2-0.2-0.3c-1-0.1-1.4-0.5-1.4-1
		c0-0.1-0.5-0.6-1.4-1.4l-0.6-1.2c0-0.1,0-0.3,0-0.4s0-0.2-0.1-0.3c-0.1-0.1-0.4-0.3-1.1-0.7c-0.4-1.4-0.8-2-1.2-2
		c-0.4-0.1-0.9,0.2-1.4,0.9c-0.5,0.7-0.9,1.1-1,1.1c-0.4,0.3-0.8,0.6-1.2,1c-0.1,0.1-0.3,0.2-0.4,0.2c-0.1,0.1-0.4,0.3-0.8,0.6
		c-0.4,0.3-0.6,0.5-0.6,0.6c-0.1,0.1-0.3,0.3-0.5,0.5c-0.2,0.2-0.4,0.4-0.5,0.5c-0.1,0.1-0.3,0.3-0.6,0.4c-0.7,0.3-1,0.7-1,1.2
		c-0.5-0.1-1.1,0-1.6,0.5c-0.5,0.5-0.9,0.7-1,0.7c0,0.1-0.1,0.3-0.2,0.6c-1.1,0-1.8,0.5-2.2,1.4l-0.4-0.2c-0.1,0.3-0.5,0.5-1.1,0.6
		c-0.6,0.1-1,0.3-1.1,0.6c-0.5,0-0.9,0.1-1.2,0.2c-0.3,0.1-0.4,0.4-0.4,0.8c0,0.1-0.3,0.2-0.8,0.2c-0.1-0.4-0.3-0.6-0.4-0.6
		s-0.3,0.1-0.4,0.3c-0.1,0.2-0.3,0.3-0.4,0.3c-0.1,0-0.2-0.1-0.3-0.2c-0.1-0.1-0.2-0.2-0.3-0.2c-0.3,0-0.5,0.2-0.6,0.6
		c-0.8,0.1-1.5,0.1-2-0.2c-0.7,0.5-1.2,0.3-1.6-0.6h-0.8c-0.1,0-0.5-0.3-1-0.9c-0.5-0.6-1.1-0.9-1.6-0.9c-0.4-0.7-1.1-1.4-2.1-2.1
		c-1-0.7-1.7-1.5-1.9-2.1c-0.4-0.1-0.7-0.2-1-0.2c-0.1-0.1-0.2-0.4-0.2-0.7c0-0.3,0-0.6,0-0.7c0-0.1-0.1-0.3-0.3-0.5
		c-0.2-0.2-0.3-0.4-0.3-0.5c0-0.1,0.1-0.3,0.2-0.6c0.1-0.3,0.2-0.5,0.1-0.6c-0.1-0.1-0.2-0.3-0.3-0.5c-0.1-0.2-0.3-0.4-0.4-0.5
		c0.1-0.1,0.2-0.2,0.3-0.3c0.1-0.1,0.1-0.2,0.1-0.3c0-0.1-0.2-0.4-0.5-0.8c-0.3-0.4-0.4-0.7-0.1-1c0-0.1-0.1-0.3-0.3-0.4
		c-0.2-0.1-0.4-0.3-0.5-0.4c0.1-0.3,0.3-0.5,0.4-0.8c0.1-1,0.1-1.6-0.2-2c-0.4-0.3-0.5-0.5-0.4-0.6h0.4c0.1-0.1,0.3-0.3,0.5-0.5
		c0.2-0.2,0.4-0.4,0.5-0.5c0.1-0.3,0.2-0.9,0.2-2s0.2-1.7,0.6-1.8c0-0.1,0-0.2,0-0.3c0-0.1,0-0.2,0-0.3c0.1-0.1,0.5-0.7,1-1.7
		c0.5-1,1-1.7,1.4-1.9c0-0.5,0.2-1.1,0.6-1.6v-0.4c0-0.1,0.2-0.5,0.7-1.2c0.5-0.7,0.8-1.1,1.1-1.4c0-0.3,0.2-0.7,0.6-1.2
		c0-0.5,0.2-1,0.6-1.4c0.1,0,0.3,0,0.4,0c0.4-0.3,0.9-0.9,1.4-1.8c0.5-0.9,1-1.6,1.4-1.8v-0.6c0.3-0.1,1-1,2.2-2.6
		c0.8-0.3,1.4-0.7,1.6-1.2c0.1-0.4,0.2-0.6,0.3-0.6c0.1,0,0.3-0.1,0.7-0.3c0.4-0.2,0.6-0.4,0.6-0.7c0.3,0,0.6-0.1,0.9-0.4
		c0.3-0.3,0.6-0.4,0.9-0.4c0-0.1,0.2-0.4,0.7-0.7c0.5-0.3,0.7-0.7,0.7-1.1c0.1,0,0.2,0,0.3,0.1c0.1,0.1,0.2,0.1,0.3,0.1l0.6-0.6
		c0.1,0,0.4,0,0.7,0c0.3,0,0.6-0.1,0.7-0.2c0.4,0,0.8-0.1,1.1-0.4c0.3-0.3,0.6-0.4,0.7-0.4c0.1,0,0.3,0,0.4,0
		c0.5,0.3,0.9,0.3,1.2,0.2c0.1,0,0.2-0.1,0.3-0.4c0.1-0.3,0.3-0.3,0.7-0.2c0.5,0.3,0.9,0.4,1.1,0.5s0.5,0.1,0.8,0
		c0.3-0.1,0.6-0.1,0.9-0.1c0,0.1,0.1,0.2,0.2,0.2c0.1,0,0.3,0,0.4,0c0.1,0.1,0.4,0.2,0.9,0.1c0.5-0.1,0.8-0.1,0.9-0.1
		c1.1,0.1,1.7,0.5,1.8,1.2c0,0.1,0,0.3,0,0.6s0,0.4,0,0.5c0,0.1,0.1,0.2,0.4,0.5C157.4,46.3,157.6,46.7,157.6,47.1z M129.5,87.9
		c-0.1,0.1-0.2,0.2-0.2,0.3c0,0.1,0.1,0.1,0.2,0.1c0.1,0,0.3,0,0.4,0C129.9,88.1,129.8,87.9,129.5,87.9z M129.5,88.3
		c0.1,0,0.3,0,0.4,0c0-0.3-0.1-0.4-0.4-0.4c-0.1,0.1-0.2,0.2-0.2,0.3C129.3,88.3,129.4,88.3,129.5,88.3z M160.6,52.6v-0.2h0.2
		C161,52.5,160.9,52.6,160.6,52.6z M160.6,52.4h0.2c0.1,0.1,0.1,0.2-0.2,0.2V52.4z"/>
	<path fill="#E0BFE3" d="M266.9,48.4c0.4,0.2,0.6,0.4,0.6,0.7c-0.3,0.8,0.1,1.4,1.2,1.8c0.1,0.1,0.1,0.3,0,0.5
		c-0.1,0.2-0.2,0.4-0.2,0.5c0.1,0.1,0.3,0.3,0.5,0.4c0.2,0.1,0.3,0.3,0.3,0.4s-0.2,0.3-0.6,0.5c-0.4,0.2-0.5,0.5-0.4,0.9
		c-0.1,0.3-0.4,0.5-0.8,0.6c-0.1,0.4-0.3,1.1-0.4,2c-0.5,0.5-1,0.8-1.4,0.8c-0.1,0-0.2,0.3-0.2,1c0,0.1-0.4,0.2-1.2,0.2
		c-0.1,0.1-0.3,0.2-0.6,0.3c-0.3,0.1-0.4,0.1-0.5,0.1c-0.1,0-0.2,0-0.3-0.1c-0.1-0.1-0.3-0.2-0.4-0.3c-1.3-0.3-2.2-0.1-2.4,0.6
		c-1.1-0.9-1.9-1.4-2.4-1.2c-0.1,0-0.3,0.1-0.4,0.2c-0.1,0.1-0.3,0.2-0.4,0.2l-0.6-0.4c-0.1,0-0.4,0.1-0.9,0.2
		c-0.5,0.1-0.8,0.2-0.9,0.2c-0.1,0-0.3-0.1-0.5-0.2c-0.2-0.1-0.4-0.2-0.5-0.2c-0.5,0.1-0.8,0.5-0.8,1c-0.3,0.1-0.8,0-1.6-0.4
		c-0.5,0-0.9,0.4-1,1.2c-0.7,0-1.1-0.1-1.2-0.4c-0.1,0-0.3,0.1-0.5,0.4c-0.2,0.3-0.4,0.5-0.5,0.6c-0.1,0-0.2,0-0.2-0.1
		c0-0.1-0.1-0.1-0.2-0.1c-1.9,0.7-2.9,1.4-3,2c-0.1,0-0.3-0.1-0.4-0.2c-0.1-0.1-0.3-0.2-0.4-0.2c-0.1,0.1-0.3,0.3-0.4,0.6
		c-0.1,0.3-0.2,0.5-0.2,0.6c-0.4,0-0.8,0.2-1.1,0.5c-0.3,0.3-0.5,0.6-0.5,0.7c0,0.3-0.1,0.5-0.3,0.7c-0.2,0.2-0.3,0.4-0.3,0.5
		c0,0.3,0,0.5,0,0.6c-0.3,0-0.6-0.1-1-0.4c-0.1,0.1-0.2,0.3-0.2,0.6v0.2c-0.1,0.3-0.4,0.8-0.7,1.6c-0.3,0.8-0.6,1.4-0.9,1.6
		c0,0.1-0.1,0.7-0.4,1.8c0,0.1-0.1,0.4-0.2,0.7c-0.1,0.3-0.3,0.6-0.4,0.7c0.1,0.3,0.2,0.5,0.2,0.6s0,0.4,0,0.8c0,0.4,0,0.7,0,0.8
		c0,0.1,0,0.3,0.1,0.4c0.1,0.1,0.1,0.3,0.1,0.4s0,0.3-0.1,0.4c-0.1,0.1-0.2,0.3-0.3,0.4c0.1,0.3,0.2,0.4,0.2,0.5
		c0,0.1-0.1,0.2-0.2,0.5c0,0.3,0,0.6,0.1,0.9c0.1,0.3,0.1,0.6,0.1,0.9c-0.1,0.4-0.2,0.7-0.2,0.8c0,0.1,0.1,0.5,0.2,1.2
		c-0.1,0.4-0.2,0.9-0.2,1.4c0,0.5,0.2,1,0.6,1.2c0,0.1-0.1,0.2-0.2,0.3c-0.1,0.1-0.2,0.2-0.2,0.3c0.5,0.5,0.7,1.2,0.6,1.8
		c0,0.1-0.2,0.4-0.6,0.8c0,0.3,0.1,0.5,0.2,0.8l0.2,0.2c0,0.1,0,0.3-0.1,0.4c-0.1,0.1-0.1,0.3-0.1,0.4c0.4,0.7,0.6,1.1,0.6,1.2
		c-0.1,0-0.3,0-0.4-0.1c-0.1-0.1-0.3,0-0.4,0.1c0.1,0.4,0.2,0.6,0.1,0.7c-0.1,0.1-0.2,0.1-0.4,0c-0.2-0.1-0.4-0.1-0.5-0.1
		c-0.1,0.1-0.3,0.3-0.4,0.5c-0.1,0.2-0.2,0.3-0.3,0.4c-0.1,0.1-0.2,0.1-0.3,0.1c-0.1,0-0.2,0-0.3,0.1c-0.1,0.1-0.2,0.2-0.3,0.3
		c-0.1,0.1-0.2,0.2-0.3,0.3c-0.1,0.1-0.3,0.1-0.6,0c-0.3-0.1-0.6,0-0.9,0.1c-0.3,0.1-0.5,0.3-0.6,0.4c-0.1,0-0.4,0-0.9,0.1
		c-0.5,0.1-0.8,0.2-1.1,0.5c0-0.1,0-0.2-0.1-0.3c-0.1-0.1-0.2-0.1-0.3-0.1c-0.7,0.5-1.1,0.7-1.4,0.6c0-0.4-0.3-0.6-0.9-0.7
		c-0.6-0.1-1-0.2-1.1-0.3c0-0.8-0.7-1.2-2-1.2c0-0.1,0-0.3,0-0.6c-0.3-0.4-0.8-1-1.6-1.6c-0.4-0.4-0.7-0.7-0.8-0.8
		c-0.1,0-0.4-0.2-0.7-0.7c-0.3-0.5-0.6-0.8-0.9-0.9c-0.1-0.4-0.6-0.9-1.3-1.4c-0.7-0.5-1.1-1.1-1.1-1.8c-0.4-0.3-1.1-0.9-1.9-1.9
		c-0.9-1-1.6-1.7-2.1-2.1c-0.3-0.5-0.5-0.9-0.6-1H212c0-0.4-0.2-0.8-0.6-1.2c0.1-0.4,0-0.8-0.3-1.2c-0.3-0.4-0.5-0.7-0.5-1
		c-0.1,0-0.3-0.1-0.6-0.4c-0.3-0.3-0.5-0.4-0.6-0.4c-0.1-1.1-0.7-2.2-1.8-3.2c-0.1-0.4-0.7-1.4-1.8-3.1c0-0.4-0.3-1-0.8-1.8
		c0.1-0.3-0.1-0.7-0.6-1.4c0.1-0.4,0-0.8-0.3-1.1c-0.3-0.3-0.5-0.6-0.5-0.9c0-0.1-0.1-0.2-0.2-0.3c-0.1-0.1-0.3-0.1-0.4-0.1
		c0-0.3-0.1-0.6-0.4-1.1c-0.3-0.5-0.5-0.8-0.6-1.1c0-0.1,0-0.3,0-0.5c0-0.2,0-0.3,0-0.4c0-0.1-0.1-0.2-0.3-0.4
		c-0.2-0.2-0.3-0.4-0.3-0.5v-0.4c0-0.1,0-0.5,0-1.1c0-0.6,0-1.1,0-1.5c0.3-0.3,0.5-0.5,0.6-0.6c-0.5-0.8-0.7-1.4-0.4-1.8
		c0.1-0.1,0.3-0.1,0.6,0c0.1,0,0.2-0.3,0.2-0.8c0.4-0.3,0.7-0.4,0.8-0.4c0.1-0.1,0.4-0.3,0.8-0.4c0.4-0.1,0.6-0.3,0.6-0.6
		c0.4,0,0.9-0.2,1.4-0.6c2-0.1,3.2,0.1,3.5,0.6h0.6c0.1,0,0.2,0.1,0.2,0.2c0,0.1,0.1,0.2,0.2,0.2s0.2,0,0.3-0.1
		c0.1-0.1,0.2-0.1,0.3-0.1c0.5,0.3,1.2,0.8,1.9,1.7c0.7,0.9,1.4,1.5,1.9,1.7c0,0.3,0.1,0.4,0.2,0.4c0.3,0.1,0.5,0.6,0.7,1.3
		c0.2,0.7,0.4,1.2,0.7,1.3c-0.1,0.4,0,0.9,0.4,1.4c0.1,0.1,0.2,0.2,0.2,0.3c0,0.1,0,0.2,0,0.4c0,0.2,0,0.3,0,0.4
		c0,0.1,0.2,0.3,0.6,0.8c0.4,0.5,0.5,1,0.4,1.5c0.7,0.5,1.3,1.6,2,3.2c0.3,0.3,0.6,0.8,1.1,1.5c0.5,0.8,0.9,1.2,1.3,1.3
		c0.1-0.1,0.3-0.4,0.4-0.9c0.1-0.5,0.3-0.8,0.4-1.1l0.6-0.8c0-0.1,0-0.4,0-0.7s0.1-0.6,0.2-0.7c0.3-0.8,0.3-1.4,0-1.6
		c0.1-0.1,0.4-0.5,0.7-1.1c0.3-0.6,0.4-1.1,0.3-1.3c0.1-0.1,0.3-0.3,0.6-0.4c0-0.5,0.2-1,0.7-1.5c0.5-0.5,0.7-0.9,0.7-1.3
		c0.4-0.4,1-1.1,1.8-2c0.8-0.9,1.4-1.6,1.8-2c0-0.1,0-0.2-0.1-0.3c-0.1-0.1-0.1-0.2-0.1-0.3c0.1,0,0.3,0,0.6,0s0.5,0,0.6,0l1-0.6
		c1.2-0.9,1.8-1.5,1.8-1.6c0.7,0.1,1.2-0.1,1.7-0.7c0.5-0.6,0.8-0.9,1.1-0.9s0.5,0,0.6,0c0.3,0,0.6-0.2,1.1-0.6
		c0.5-0.4,0.8-0.7,0.9-0.8c0.3,0,0.6-0.1,1.1-0.3c0.5-0.2,0.8-0.3,1.1-0.3c0.1,0,0.4-0.2,0.8-0.6c0.4,0.1,0.8,0,1.2-0.4
		c0.1-0.1,0.3-0.3,0.4-0.4c0.5-0.1,1-0.2,1.4-0.2c0.1,0,0.3,0,0.4,0.1c0.1,0.1,0.3,0.1,0.4,0.1c0.1,0,0.3,0,0.4-0.1
		c0.1-0.1,0.2-0.2,0.2-0.3c0.3,0,0.6,0,1.1-0.1s0.8-0.1,0.9-0.1c0.3-0.7,0.7-1,1.2-0.8c0.1,0,0.3,0.1,0.6,0.4c0.4,0,1.4-0.1,2.9-0.2
		s2.4-0.1,2.5,0.2c0.3,0.4,0.9,0.6,1.9,0.6s1.7,0.1,2.1,0.4c0.8-0.1,1.5,0.1,2,0.6c0.5,0,1.1,0.3,1.8,0.8c0.4,0.1,0.6,0.2,0.7,0.3
		c0.1,0.1,0.2,0.3,0.3,0.7C266.2,48,266.5,48.2,266.9,48.4z M267.5,49.1c-0.3,0.8,0.1,1.4,1.2,1.8c0.1,0.1,0.1,0.3,0,0.5
		c-0.1,0.2-0.2,0.4-0.2,0.5c0.1,0.1,0.3,0.3,0.5,0.4c0.2,0.1,0.3,0.3,0.3,0.4s-0.2,0.3-0.6,0.5c-0.4,0.2-0.5,0.5-0.4,0.9
		c-0.1,0.3-0.4,0.5-0.8,0.6c-0.1,0.4-0.3,1.1-0.4,2c-0.5,0.5-1,0.8-1.4,0.8c-0.1,0-0.2,0.3-0.2,1c0,0.1-0.4,0.2-1.2,0.2
		c-0.1,0.1-0.3,0.2-0.6,0.3c-0.3,0.1-0.4,0.1-0.5,0.1c-0.1,0-0.2,0-0.3-0.1c-0.1-0.1-0.3-0.2-0.4-0.3c-1.3-0.3-2.2-0.1-2.4,0.6
		c-1.1-0.9-1.9-1.4-2.4-1.2c-0.1,0-0.3,0.1-0.4,0.2c-0.1,0.1-0.3,0.2-0.4,0.2l-0.6-0.4c-0.1,0-0.4,0.1-0.9,0.2
		c-0.5,0.1-0.8,0.2-0.9,0.2c-0.1,0-0.3-0.1-0.5-0.2c-0.2-0.1-0.4-0.2-0.5-0.2c-0.5,0.1-0.8,0.5-0.8,1c-0.3,0.1-0.6,0.1-1,0
		c-0.4-0.1-0.6-0.3-0.6-0.4c-0.5,0-0.9,0.4-1,1.2c-0.7,0-1.1-0.1-1.2-0.4c-0.1,0-0.3,0.1-0.5,0.4c-0.2,0.3-0.4,0.5-0.5,0.6
		c-0.1,0-0.2,0-0.2-0.1c0-0.1-0.1-0.1-0.2-0.1c-1.9,0.7-2.9,1.4-3,2c-0.1,0-0.3-0.1-0.4-0.2c-0.1-0.1-0.3-0.2-0.4-0.2
		c-0.1,0.1-0.3,0.3-0.4,0.6c-0.1,0.3-0.2,0.5-0.2,0.6c-0.4,0-0.8,0.2-1.1,0.5c-0.3,0.3-0.5,0.6-0.5,0.7c0,0.3-0.1,0.5-0.3,0.7
		c-0.2,0.2-0.3,0.4-0.3,0.5c0,0.3,0,0.5,0,0.6c-0.3,0-0.6-0.1-1-0.4c-0.1,0.1-0.2,0.3-0.2,0.6v0.2c-0.1,0.3-0.4,0.8-0.7,1.6
		c-0.3,0.8-0.6,1.4-0.9,1.6c0,0.1-0.1,0.7-0.4,1.8c0,0.1-0.1,0.4-0.2,0.7c-0.1,0.3-0.3,0.6-0.4,0.7c0.1,0.3,0.2,0.5,0.2,0.6
		s0,0.4,0,0.8c0,0.4,0,0.7,0,0.8c0,0.1,0,0.3,0.1,0.4c0.1,0.1,0.1,0.3,0.1,0.4s0,0.3-0.1,0.4c-0.1,0.1-0.2,0.3-0.3,0.4
		c0.1,0.3,0.2,0.4,0.2,0.5c0,0.1-0.1,0.2-0.2,0.5c0,0.3,0,0.6,0.1,0.9c0.1,0.3,0.1,0.6,0.1,0.9c-0.1,0.4-0.2,0.7-0.2,0.8
		c0,0.1,0.1,0.5,0.2,1.2c-0.1,0.4-0.2,0.9-0.2,1.4c0,0.5,0.2,1,0.6,1.2c0,0.1-0.1,0.2-0.2,0.3c-0.1,0.1-0.2,0.2-0.2,0.3
		c0.5,0.5,0.7,1.2,0.6,1.8c0,0.1-0.2,0.4-0.6,0.8c0,0.3,0.1,0.5,0.2,0.8l0.2,0.2c0,0.1,0,0.3-0.1,0.4c-0.1,0.1-0.1,0.3-0.1,0.4
		c0.4,0.7,0.6,1.1,0.6,1.2c-0.1,0-0.3,0-0.4-0.1c-0.1-0.1-0.3,0-0.4,0.1c0.1,0.4,0.2,0.6,0.1,0.7c-0.1,0.1-0.2,0.1-0.4,0
		c-0.2-0.1-0.4-0.1-0.5-0.1c-0.1,0.1-0.3,0.3-0.4,0.5c-0.1,0.2-0.2,0.3-0.3,0.4c-0.1,0.1-0.2,0.1-0.3,0.1c-0.1,0-0.2,0-0.3,0.1
		c-0.1,0.1-0.2,0.2-0.3,0.3c-0.1,0.1-0.2,0.2-0.3,0.3c-0.1,0.1-0.3,0.1-0.6,0c-0.3-0.1-0.6,0-0.9,0.1c-0.3,0.3-0.5,0.4-0.6,0.4
		c-0.1,0-0.4,0-0.9,0.1c-0.5,0.1-0.8,0.2-1.1,0.5c0-0.1,0-0.2-0.1-0.3c-0.1-0.1-0.2-0.1-0.3-0.1c-0.7,0.5-1.1,0.7-1.4,0.6
		c0-0.4-0.3-0.6-0.9-0.7c-0.6-0.1-1-0.2-1.1-0.3c0-0.8-0.7-1.2-2-1.2c0-0.1,0-0.3,0-0.6c-0.3-0.4-0.8-1-1.6-1.6
		c-0.4-0.4-0.7-0.7-0.8-0.8c-0.1,0-0.4-0.2-0.7-0.7c-0.3-0.5-0.6-0.8-0.9-0.9c-0.1-0.4-0.6-0.9-1.3-1.4c-0.7-0.5-1.1-1.1-1.1-1.8
		c-0.4-0.3-1.1-0.9-1.9-1.9c-0.9-1-1.6-1.7-2.1-2.1c-0.3-0.5-0.5-0.9-0.6-1H212c0-0.4-0.2-0.8-0.6-1.2c0.1-0.4,0-0.8-0.3-1.2
		c-0.3-0.4-0.5-0.7-0.5-1c-0.1,0-0.3-0.1-0.6-0.4c-0.3-0.3-0.5-0.4-0.6-0.4c-0.1-1.1-0.7-2.2-1.8-3.2c-0.1-0.4-0.7-1.4-1.8-3.1
		c0-0.4-0.3-1-0.8-1.8c0.1-0.3-0.1-0.7-0.6-1.4c0.1-0.4,0-0.8-0.3-1.1c-0.3-0.3-0.5-0.6-0.5-0.9c0-0.1-0.1-0.2-0.2-0.3
		c-0.1-0.1-0.3-0.1-0.4-0.1c0-0.3-0.1-0.6-0.4-1.1c-0.3-0.5-0.5-0.8-0.6-1.1c0-0.1,0-0.3,0-0.5c0-0.2,0-0.3,0-0.4
		c0-0.1-0.1-0.2-0.3-0.4c-0.2-0.2-0.3-0.4-0.3-0.5v-0.4c0-0.1,0-0.5,0-1.1c0-0.6,0-1.1,0-1.5c0.3-0.3,0.5-0.5,0.6-0.6
		c-0.5-0.8-0.7-1.4-0.4-1.8c0.1-0.1,0.3-0.1,0.6,0c0.1,0,0.2-0.3,0.2-0.8c0.4-0.3,0.7-0.4,0.8-0.4c0.1-0.1,0.4-0.3,0.8-0.4
		c0.4-0.1,0.6-0.3,0.6-0.6c0.4,0,0.9-0.2,1.4-0.6c2-0.1,3.2,0.1,3.5,0.6h0.6c0.1,0,0.2,0.1,0.2,0.2c0,0.1,0.1,0.2,0.2,0.2
		s0.2,0,0.3-0.1c0.1-0.1,0.2-0.1,0.3-0.1c0.5,0.3,1.2,0.8,1.9,1.7c0.7,0.9,1.4,1.5,1.9,1.7c0,0.3,0.1,0.4,0.2,0.4
		c0.3,0.1,0.5,0.6,0.7,1.3c0.2,0.7,0.4,1.2,0.7,1.3c-0.1,0.4,0,0.9,0.4,1.4c0.1,0.1,0.2,0.2,0.2,0.3c0,0.1,0,0.2,0,0.4
		c0,0.2,0,0.3,0,0.4c0,0.1,0.2,0.3,0.6,0.8c0.4,0.5,0.5,1,0.4,1.5c0.7,0.5,1.3,1.6,2,3.2c0.3,0.3,0.6,0.8,1.1,1.5
		c0.5,0.8,0.9,1.2,1.3,1.3c0.1-0.1,0.3-0.4,0.4-0.9c0.1-0.5,0.3-0.8,0.4-1.1l0.6-0.8c0-0.1,0-0.4,0-0.7s0.1-0.6,0.2-0.7
		c0.3-0.8,0.3-1.4,0-1.6c0.1-0.1,0.4-0.5,0.7-1.1c0.3-0.6,0.4-1.1,0.3-1.3c0.1-0.1,0.3-0.3,0.6-0.4c0-0.5,0.2-1,0.7-1.5
		c0.5-0.5,0.7-0.9,0.7-1.3c0.4-0.4,1-1.1,1.8-2c0.8-0.9,1.4-1.6,1.8-2c0-0.1,0-0.2-0.1-0.3c-0.1-0.1-0.1-0.2-0.1-0.3
		c0.1,0,0.3,0,0.6,0s0.5,0,0.6,0l1-0.6c1.2-0.9,1.8-1.5,1.8-1.6c0.7,0.1,1.2-0.1,1.7-0.7c0.5-0.6,0.8-0.9,1.1-0.9s0.5,0,0.6,0
		c0.3,0,0.6-0.2,1.1-0.6c0.5-0.4,0.8-0.7,0.9-0.8c0.3,0,0.6-0.1,1.1-0.3c0.5-0.2,0.8-0.3,1.1-0.3c0.1,0,0.4-0.2,0.8-0.6
		c0.4,0.1,0.8,0,1.2-0.4c0.1-0.1,0.3-0.3,0.4-0.4c0.5-0.1,1-0.2,1.4-0.2c0.1,0,0.3,0,0.4,0.1c0.1,0.1,0.3,0.1,0.4,0.1
		c0.1,0,0.3,0,0.4-0.1c0.1-0.1,0.2-0.2,0.2-0.3c0.3,0,0.6,0,1.1-0.1s0.8-0.1,0.9-0.1c0.3-0.5,0.7-0.8,1.2-0.8c0.1,0,0.3,0.1,0.6,0.4
		c0.4,0,1.4-0.1,2.9-0.2s2.4-0.1,2.5,0.2c0.3,0.4,0.9,0.6,1.9,0.6s1.7,0.1,2.1,0.4c0.8-0.1,1.5,0.1,2,0.6c0.5,0,1.1,0.3,1.8,0.8
		c0.4,0.1,0.6,0.2,0.7,0.3c0.1,0.1,0.2,0.3,0.3,0.7c0.1,0.1,0.4,0.3,0.8,0.5C267.3,48.6,267.5,48.8,267.5,49.1z"/>
	<path fill="#E0BFE3" d="M312.8,56.8l-0.8,0.4c-0.1,0-0.4,0-0.7,0c-0.3,0-0.6,0-0.7,0c-0.1,0.1-0.2,0.3-0.3,0.4
		c-0.1,0.1-0.2,0.2-0.3,0.2c-0.5,0.1-1,0.4-1.2,0.8h-0.8c-0.1,0.3-0.5,0.4-1,0.5c-0.5,0.1-0.9,0.2-1,0.3c0,0.3,0,0.5,0,0.6
		c-1,0-1.6,0.5-1.8,1.4c-0.8-0.1-1.7,0.1-2.6,0.6c-0.3,0.3-0.5,0.4-0.8,0.4c0,0.1,0,0.3,0,0.6h-0.8c-0.1,0.3-0.4,0.6-0.7,0.9
		c-0.3,0.3-0.6,0.6-0.7,0.7c-0.3,0.1-0.5,0.2-0.6,0.2c-0.1,0.4-0.5,0.9-1.1,1.5c-0.6,0.6-1,1.2-1.1,1.7c-0.1,0.1-0.3,0.3-0.5,0.5
		c-0.2,0.2-0.4,0.4-0.7,0.5c-0.5,1.2-1.1,2.3-1.8,3.2c0,0.1,0,0.4,0.1,0.9c0.1,0.5,0.1,0.8,0.1,0.9l0.6,0.2c0.1,0.1,0.2,0.4,0.3,0.7
		c0.1,0.3,0.1,0.5,0.1,0.6c0,0.1,0.2,0.2,0.6,0.5c0.5,0.7,0.9,1,1,1c0.4-0.3,0.7-0.3,1-0.2c-0.1,0.5,0.1,0.9,0.6,1
		c0.5,0.1,0.8,0.3,0.8,0.4c0.4-0.1,1.1,0.1,2,0.6c0.1,0,0.2-0.1,0.2-0.2c0-0.1,0.1-0.2,0.2-0.2c0.5,0.7,1.6,0.9,3,0.6
		c1.5-0.3,2.7-0.2,3.7,0.2c1.2-0.4,2-0.5,2.2-0.2c0.1,0,0.2,0,0.3-0.1c0.1-0.1,0.2-0.1,0.3-0.1c0.3,0.1,1.2,0.1,2.8-0.2
		c1.3-0.3,2.1-0.5,2.2-0.8h2c0.3,0,0.5-0.1,0.7-0.3c0.2-0.2,0.4-0.3,0.5-0.3c0.1-0.1,0.4-0.2,0.9-0.2c0.5,0,0.8,0,0.9,0
		c1.1-0.3,1.7-0.4,1.8-0.4c0,0.1,0,0.3,0,0.6c0,0.3,0.1,0.4,0.2,0.4c0,0.1,0.2,0.2,0.7,0.2c0.5,0,0.8,0.1,0.9,0.2
		c-0.1,0.5-0.2,0.8-0.2,0.9c0,0.1,0.3,0.1,0.8,0.1c0,0.3,0,0.6,0,1c0.1,1,0.1,1.6,0,1.8c0,0.1,0.1,0.3,0.2,0.6
		c-0.5,0.3-1,0.7-1.2,1.4c-0.3,0.7,0,1,0.8,1c0,0.3-0.3,0.4-0.8,0.4c-0.1,0-0.3,0-0.4,0c-0.1,0.1-0.4,0.4-0.7,0.7
		c-0.3,0.3-0.6,0.6-0.7,0.7c-0.4,0.3-1,0.5-1.6,0.8c-0.3,0.3-0.6,0.7-1,1.3c-0.4,0.6-0.7,1.1-1,1.3c-0.3,0.3-0.5,0.4-0.6,0.4
		c-0.3,0-0.5,0-0.6,0c-0.1,0-0.3,0.2-0.6,0.6c-0.4,0.1-1,0.2-1.7,0.1c-0.7-0.1-1.3,0-1.7,0.1c-0.1,0-0.2,0.2-0.2,0.6
		c-0.3,0-0.7,0-1.3-0.1c-0.6-0.1-1,0-1.1,0.1c0,0.1,0,0.3,0,0.6c-1.2,0.1-2,0.1-2.2-0.2c-0.7,0-1.7,0-2.9-0.1
		c-1.3-0.1-2.2,0-2.7,0.1c-0.8,0.1-1.3,0.1-1.4,0c-0.4,0-1.1-0.1-2-0.4c-0.9-0.3-1.6-0.3-1.8,0c-0.5-0.3-0.9-0.5-1-0.8
		c-0.1,0-0.3,0-0.5,0.1c-0.2,0.1-0.4,0.1-0.5,0.1c-0.3-0.1-0.7-0.4-1.2-0.8c-0.1,0-0.3,0-0.4,0c-0.1,0-0.2,0-0.3-0.1
		c-0.1-0.1-0.2-0.2-0.5-0.4c-0.3-0.2-0.5-0.2-0.8-0.1c-0.1-0.3-0.4-0.5-0.9-0.7c-0.5-0.2-0.7-0.4-0.7-0.5c-0.1,0-0.3,0-0.4,0.1
		c-0.1,0.1-0.3,0.1-0.4,0.1c0-0.1,0-0.3-0.1-0.5c-0.1-0.2-0.2-0.3-0.3-0.4c-0.1-0.1-0.3,0-0.6,0.1c-1.5-1.8-2.8-3-3.9-3.9
		c-0.1-0.3-0.3-0.7-0.6-1.2c-0.1,0-0.3,0.1-0.4,0.2c-0.1,0.1-0.3,0.1-0.4,0c0-0.5-0.3-1-0.8-1.2v-0.6c0-0.1-0.2-0.3-0.6-0.6
		c0-0.4-0.2-0.8-0.6-1.2c-0.4-0.4-0.6-0.8-0.6-1.2c-0.1-0.1-0.3-0.3-0.4-0.5c-0.1-0.2-0.3-0.4-0.4-0.5c0-0.5-0.2-1-0.6-1.4
		c0.1-0.4,0.1-1,0-1.6c-0.1-0.7-0.2-1.1-0.2-1.2c0-1.1,0-1.7-0.1-1.7c-0.1-0.1-0.2-0.1-0.3-0.1s-0.3,0-0.4,0c0-0.3,0.2-0.5,0.6-0.6
		c0.3-0.4,0.4-1,0.4-1.6s0-1.3,0-1.8c0.1,0,0.3-0.2,0.5-0.6c0.2-0.4,0.3-0.7,0.3-1c0.4-0.5,0.8-1.3,1.1-2.3c0.3-1,0.6-1.7,0.7-1.9
		c0.3-0.1,0.5-0.4,0.6-0.8c0.5-0.4,0.9-0.7,1-0.8c0.1-1.4,1.1-2.6,2.8-3.9c0-0.1,0-0.2,0-0.3s0-0.2,0-0.3c0.4-0.3,1-0.8,1.8-1.5
		c0.8-0.7,1.5-1.3,2-1.7c0-0.3,0-0.4,0.1-0.5c0.1-0.1,0.2,0,0.3,0.1s0.3,0.2,0.4,0.2c0.4,0,0.7-0.3,0.8-0.8c0.1-0.5,0.3-0.9,0.4-1
		c0.4-0.1,0.7-0.2,0.8-0.2c0.1-0.3,0.2-0.4,0.3-0.5c0.1-0.1,0.2-0.1,0.4-0.1c0.2,0,0.3,0,0.3-0.1c0-0.1,0.1-0.1,0.2-0.2
		c0.1-0.1,0.2-0.1,0.2-0.2c0-0.1,0.1-0.1,0.4-0.1c0.1-0.1,0.3-0.3,0.5-0.5c0.2-0.2,0.4-0.4,0.5-0.5c0-0.1,0-0.3,0-0.6
		c0.1,0,0.3,0.1,0.4,0.2c0.1,0.1,0.3,0.2,0.4,0.2l2-1.4c0.1,0,0.5,0,1.2,0c0.1,0,0.2-0.1,0.2-0.3c0-0.2,0-0.4,0-0.5
		c0.7,0.1,1.3,0,1.8-0.5c0.5-0.5,0.9-0.7,1-0.7c0.1,0,0.2,0,0.3,0.1c0.1,0.1,0.2,0.1,0.3,0.1c0.3,0.1,0.6,0.1,1,0
		c0.1-0.1,0.3-0.2,0.4-0.2s0.3,0,0.6,0c0.1,0,0.3-0.1,0.5-0.2c0.2-0.1,0.4-0.2,0.5-0.2c0.3-0.1,0.9-0.2,1.8-0.1
		c0.9,0.1,1.5,0.1,1.6,0.1c0.1,0.1,0.3,0.3,0.5,0.5s0.4,0.3,0.7,0.3c0.1,0.3,0.4,0.5,0.8,0.6c0.1,0.7,0.5,1.3,1,1.8
		c0.5,0.5,0.9,1,1,1.2c0,0.4,0.1,0.9,0.4,1.5c0.3,0.6,0.4,1,0.4,1.1s-0.2,0.5-0.6,1c0,0.8-0.1,1.4-0.4,1.8c-0.3,0.3-0.4,0.5-0.4,0.6
		c0,0.1,0.1,0.3,0.3,0.6c0.2,0.3,0.3,0.5,0.3,0.6C312.9,56.2,312.7,56.6,312.8,56.8z M313.4,55.6c-0.5,0.5-0.7,1-0.6,1.2l-0.8,0.4
		c-0.1,0-0.4,0-0.7,0c-0.3,0-0.6,0-0.7,0c-0.1,0.1-0.2,0.3-0.3,0.4c-0.1,0.1-0.2,0.2-0.3,0.2c-0.5,0.1-1,0.4-1.2,0.8h-0.8
		c-0.1,0.3-0.5,0.4-1,0.5c-0.5,0.1-0.9,0.2-1,0.3c0,0.3,0,0.5,0,0.6c-1,0-1.6,0.5-1.8,1.4c-0.8-0.1-1.7,0.1-2.6,0.6
		c-0.3,0.3-0.5,0.4-0.8,0.4c0,0.1,0,0.3,0,0.6h-0.8c-0.1,0.3-0.4,0.6-0.7,0.9c-0.3,0.3-0.6,0.6-0.7,0.7c-0.3,0.1-0.5,0.2-0.6,0.2
		c-0.1,0.4-0.5,0.9-1.1,1.5c-0.6,0.6-1,1.2-1.1,1.7c-0.1,0.1-0.3,0.3-0.5,0.5c-0.2,0.2-0.4,0.4-0.7,0.5c-0.5,1.2-1.1,2.3-1.8,3.2
		c0,0.1,0,0.4,0.1,0.9c0.1,0.5,0.1,0.8,0.1,0.9l0.6,0.2c0.1,0.1,0.2,0.4,0.3,0.7c0.1,0.3,0.1,0.5,0.1,0.6c0,0.1,0.2,0.2,0.6,0.5
		c0.5,0.7,0.9,1,1,1c0.4-0.3,0.7-0.3,1-0.2c-0.1,0.5,0.1,0.9,0.6,1c0.5,0.1,0.8,0.3,0.8,0.4c0.4-0.1,1.1,0.1,2,0.6
		c0.1,0,0.2-0.1,0.2-0.2c0-0.1,0.1-0.2,0.2-0.2c0.5,0.7,1.6,0.9,3,0.6c1.5-0.3,2.7-0.2,3.7,0.2c1.2-0.4,2-0.5,2.2-0.2
		c0.1,0,0.2,0,0.3-0.1c0.1-0.1,0.2-0.1,0.3-0.1c0.3,0.1,1.2,0.1,2.8-0.2c1.3-0.3,2.1-0.5,2.2-0.8h2c0.3,0,0.5-0.1,0.7-0.3
		c0.2-0.2,0.4-0.3,0.5-0.3c0.1-0.1,0.4-0.2,0.9-0.2c0.5,0,0.8,0,0.9,0c1.1-0.3,1.7-0.4,1.8-0.4c0,0.1,0,0.3,0,0.6
		c0,0.3,0.1,0.4,0.2,0.4c0,0.1,0.2,0.2,0.7,0.2c0.5,0,0.8,0.1,0.9,0.2c-0.1,0.5-0.2,0.8-0.2,0.9c0,0.1,0.3,0.1,0.8,0.1
		c0,0.3,0,0.6,0,1c0.1,1,0.1,1.6,0,1.8c0,0.1,0.1,0.3,0.2,0.6c-0.5,0.3-1,0.7-1.2,1.4c-0.3,0.7,0,1,0.8,1c0,0.3-0.3,0.4-0.8,0.4
		c-0.1,0-0.3,0-0.4,0c-0.1,0.1-0.4,0.4-0.7,0.7c-0.3,0.3-0.6,0.6-0.7,0.7c-0.4,0.3-1,0.5-1.6,0.8c-0.3,0.3-0.6,0.7-1,1.3
		c-0.4,0.6-0.7,1.1-1,1.3c-0.3,0.3-0.5,0.4-0.6,0.4c-0.3,0-0.5,0-0.6,0c-0.1,0-0.3,0.2-0.6,0.6c-0.4,0.1-1,0.2-1.7,0.1
		c-0.7-0.1-1.3,0-1.7,0.1c-0.1,0-0.2,0.2-0.2,0.6c-0.3,0-0.7,0-1.3-0.1c-0.6-0.1-1,0-1.1,0.1c0,0.1,0,0.3,0,0.6
		c-1.2,0.1-2,0.1-2.2-0.2c-0.7,0-1.7,0-2.9-0.1c-1.3-0.1-2.2,0-2.7,0.1c-0.8,0.1-1.3,0.1-1.4,0c-0.4,0-1.1-0.1-2-0.4
		c-0.9-0.3-1.6-0.3-1.8,0c-0.5-0.3-0.9-0.5-1-0.8c-0.1,0-0.3,0-0.5,0.1c-0.2,0.1-0.4,0.1-0.5,0.1c-0.3-0.1-0.7-0.4-1.2-0.8
		c-0.1,0-0.3,0-0.4,0c-0.1,0-0.2,0-0.3-0.1c-0.1-0.1-0.2-0.2-0.5-0.4c-0.3-0.2-0.5-0.2-0.8-0.1c-0.1-0.3-0.4-0.5-0.9-0.7
		c-0.5-0.2-0.7-0.4-0.7-0.5c-0.1,0-0.3,0-0.4,0.1c-0.1,0.1-0.3,0.1-0.4,0.1c0-0.1,0-0.3-0.1-0.5c-0.1-0.2-0.2-0.3-0.3-0.4
		c-0.1-0.1-0.3,0-0.6,0.1c-1.5-1.8-2.8-3-3.9-3.9c-0.1-0.3-0.3-0.7-0.6-1.2c-0.1,0-0.3,0.1-0.4,0.2c-0.1,0.1-0.3,0.1-0.4,0
		c0-0.5-0.3-1-0.8-1.2v-0.6c0-0.1-0.2-0.3-0.6-0.6c0-0.4-0.2-0.8-0.6-1.2c-0.4-0.4-0.6-0.8-0.6-1.2c-0.1-0.1-0.3-0.3-0.4-0.5
		c-0.1-0.2-0.3-0.4-0.4-0.5c0-0.5-0.2-1-0.6-1.4c0.1-0.4,0.1-1,0-1.6c-0.1-0.7-0.2-1.1-0.2-1.2c0-1.1,0-1.7-0.1-1.7
		c-0.1-0.1-0.2-0.1-0.3-0.1s-0.3,0-0.4,0c0-0.3,0.2-0.5,0.6-0.6c0.3-0.4,0.4-1,0.4-1.6s0-1.3,0-1.8c0.1,0,0.3-0.2,0.5-0.6
		c0.2-0.4,0.3-0.7,0.3-1c0.4-0.5,0.8-1.3,1.1-2.3c0.3-1,0.6-1.7,0.7-1.9c0.3-0.1,0.5-0.4,0.6-0.8c0.5-0.4,0.9-0.7,1-0.8
		c0.1-1.4,1.1-2.6,2.8-3.9c0-0.1,0-0.2,0-0.3s0-0.2,0-0.3c0.4-0.3,1-0.8,1.8-1.5c0.8-0.7,1.5-1.3,2-1.7c0-0.3,0-0.4,0.1-0.5
		c0.1-0.1,0.2,0,0.3,0.1s0.3,0.2,0.4,0.2c0.4,0,0.7-0.3,0.8-0.8c0.1-0.5,0.3-0.9,0.4-1c0.4-0.1,0.7-0.2,0.8-0.2
		c0.1-0.3,0.2-0.4,0.3-0.5c0.1-0.1,0.2-0.1,0.4-0.1c0.2,0,0.3,0,0.3-0.1c0-0.1,0.1-0.1,0.2-0.2c0.1-0.1,0.2-0.1,0.2-0.2
		c0-0.1,0.1-0.1,0.4-0.1c0.1-0.1,0.3-0.3,0.5-0.5c0.2-0.2,0.4-0.4,0.5-0.5c0-0.1,0-0.3,0-0.6c0.1,0,0.3,0.1,0.4,0.2
		c0.1,0.1,0.3,0.2,0.4,0.2l2-1.4c0.1,0,0.5,0,1.2,0c0.1,0,0.2-0.1,0.2-0.3c0-0.2,0-0.4,0-0.5c0.7,0.1,1.3,0,1.8-0.5
		c0.5-0.5,0.9-0.7,1-0.7c0.1,0,0.2,0,0.3,0.1c0.1,0.1,0.2,0.1,0.3,0.1c0.1,0.1,0.6,0.1,1.4-0.2c0.1,0,0.3,0,0.6,0
		c0.1,0,0.3-0.1,0.5-0.2c0.2-0.1,0.4-0.2,0.5-0.2c0.3-0.1,0.9-0.2,1.8-0.1c0.9,0.1,1.5,0.1,1.6,0.1c0.1,0.1,0.3,0.3,0.5,0.5
		s0.4,0.3,0.7,0.3c0.1,0.3,0.4,0.5,0.8,0.6c0.1,0.7,0.5,1.3,1,1.8c0.5,0.5,0.9,1,1,1.2c0,0.4,0.1,0.9,0.4,1.5c0.3,0.6,0.4,1,0.4,1.1
		s-0.2,0.5-0.6,1c0,0.8-0.1,1.4-0.4,1.8c-0.3,0.3-0.4,0.5-0.4,0.6c0,0.1,0.1,0.3,0.3,0.6C313.3,55.3,313.4,55.5,313.4,55.6z"/>
	<path fill="#E0BFE3" d="M346.9,16.2c0,0.1,0.1,0.4,0.4,0.8c0.1,0,0.3,0,0.4-0.1c0.1-0.1,0.2,0,0.2,0.1v0.4c-0.5-0.1-0.8,0-0.8,0.5
		c0,0.5,0.3,0.6,0.8,0.5c0,1.6-0.1,2.5-0.4,2.6c0.4,0.1,0.6,0.2,0.7,0.2c0.1,0,0.1,0.1,0.1,0.3c0,0.2,0,0.4,0,0.5
		c0,0.1-0.1,0.3-0.4,0.4c-0.3,0.1-0.4,0.3-0.4,0.6c0.5,0.3,0.8,0.5,0.8,0.6c0,0.1-0.1,0.3-0.3,0.5c-0.2,0.2-0.3,0.4-0.3,0.5
		c0,0.3,0.1,0.6,0.3,1.1c0.2,0.5,0.3,0.8,0.3,0.9c0,0.4,0,0.7,0,1s0.2,0.5,0.6,0.6c0.1,0.7,0.1,1.2-0.2,1.6c0.1,0.3,0.2,0.8,0.2,1.6
		c0,0.8,0,1.4,0,1.6c0,0.1,0.1,0.2,0.3,0.3c0.2,0.1,0.4,0.1,0.5,0.1c0,0.1-0.1,0.4-0.4,0.8c-0.1,0.3-0.1,0.6,0.2,1.1
		c0.3,0.5,0.4,0.8,0.4,0.9c0.1,0.1,0.2,0.5,0.1,1.2c-0.1,0.7,0,1.1,0.1,1.2c-0.3,0.5-0.1,1,0.4,1.2c0.1-0.1,0.3-0.2,0.4-0.2
		c0,0.3-0.1,0.4-0.2,0.5c-0.1,0.1-0.3,0.1-0.4,0.1c0.1,0.3,0.2,0.6,0.2,1c0.1,1.1,0.3,1.7,0.6,1.8c0,0.1,0,0.3-0.1,0.4
		c-0.1,0.1-0.1,0.2-0.1,0.3c0,0.1,0.1,0.2,0.2,0.4c0.1,0.2,0.2,0.3,0.2,0.4s0,0.2,0,0.5c0,0.3,0,0.5,0,0.6s0.1,0.3,0.3,0.5
		c0.2,0.2,0.3,0.4,0.3,0.7c-0.1,0.3-0.2,0.5-0.2,0.6c0,0.1,0,0.3,0.1,0.5c0.1,0.2,0.1,0.4,0.1,0.5c0.1,0.3,0.2,0.6,0.1,1.1
		c-0.1,0.5-0.1,0.9-0.1,1.1c0.4,0.5,0.7,1,0.8,1.4c0,0.1-0.1,0.5-0.2,1.1c-0.1,0.6-0.1,1,0.2,1.1c0,0.1,0.1,0.3,0.2,0.4
		c0.1,0.1,0.2,0.3,0.2,0.4c0,1,0,1.5,0,1.6s0,0.4,0,0.7s0,0.6,0,0.7c0,0.3,0.1,0.6,0.3,1.1c0.2,0.5,0.3,0.8,0.3,0.9
		c0,0.1,0.1,0.5,0.2,1c0,1,0.2,1.6,0.6,1.8c0.7-0.5,1.1-1.1,1.4-1.6c0.4-0.1,0.7-0.5,0.8-1c0.1-0.4,0.3-0.7,0.4-0.8h0.6
		c0.3,0,0.3-0.2,0.2-0.6c0.3-0.3,0.7-0.7,1.3-1.2c0.6-0.5,1-1.1,1.1-1.6c0.7-0.3,1-0.5,1-0.8c0.8-0.5,1.5-1,2-1.4
		c0.4,0.3,0.7,0.2,1-0.3c0.3-0.5,0.5-0.8,0.6-0.9c0.4,0,0.7,0,0.8,0c0.1-0.1,0.3-0.4,0.4-0.7c0.1-0.3,0.3-0.6,0.4-0.7
		c0.9,0.1,1.6-0.2,1.8-1c0.3,0,0.8-0.2,1.6-0.6c0.5,0,1.3-0.3,2.2-0.8c1.1,0.1,1.7,0,1.8-0.4c0.8,0.7,1.4,1.1,1.6,1.2
		c0.1,0.1,0.4,0.4,0.8,0.8c0.4,0.4,0.7,0.7,0.8,1c0.3,0.1,0.4,0.2,0.5,0.3c0.1,0.1,0.1,0.2,0.1,0.3c0,0.1,0,0.2,0.1,0.3
		c0.1,0.1,0.2,0,0.3-0.1s0.3-0.1,0.4,0c0,0.1,0.1,0.3,0.2,0.6c0.4,0.7,0.8,1.1,1.2,1.2c0.3,0.7,0.3,1.2,0.2,1.4
		c0.1,0.1,0.3,0.4,0.6,0.8c0.1,0.1,0.3,0.3,0.6,0.4s0.4,0.3,0.4,0.6c0.1,0,0.2,0.3,0.3,0.9c0.1,0.6,0.2,1,0.5,1.1v0.6
		c0,0.1,0.1,0.3,0.3,0.4c0.2,0.1,0.3,0.3,0.3,0.4c0,0.3,0,0.6,0,0.9s0,0.6,0,0.7s0.1,0.3,0.3,0.4c0.2,0.1,0.3,0.3,0.4,0.4
		c0.1,0.1,0.1,0.3,0,0.6c-0.1,0.3-0.1,0.5,0,0.6c0.1,0.1,0.2,0.3,0.4,0.4c0.2,0.1,0.3,0.3,0.3,0.4c-0.1,0.5-0.1,1.1,0.2,1.8
		c0.3,0.3,0.4,0.5,0.4,0.7s0,0.5,0,0.9c0,0.4,0,0.7,0,0.8s0.1,0.3,0.2,0.4c0.1,0.1,0.2,0.2,0.2,0.3c0,0.1,0.1,0.4,0.2,0.9
		c0.1,0.5,0.3,0.9,0.4,1c0,0.1,0.3,0.5,0.8,1.2c-0.1,0.3,0.1,0.7,0.6,1.4c0,0.1,0,0.3,0,0.5c0,0.2,0,0.4,0,0.5
		c0.1,0.3,0.5,0.7,1.2,1.2c0,0.1,0.1,0.4,0.4,0.7c0.3,0.3,0.5,0.6,0.6,0.7c0.1,0,0.3,0,0.4-0.1c0.1-0.1,0.2-0.1,0.3-0.1
		c0.1,0,0.1,0.1,0.2,0.2c0.1,0.1,0.2,0.2,0.3,0.2c0.1,0,1,0,2.4,0c0.1,0,0.3,0,0.6,0c0.1,0,0.3,0.1,0.4,0.3c0.1,0.2,0.2,0.4,0.2,0.5
		c0.1-0.1,0.3-0.3,0.6-0.4c0.3-0.1,0.5-0.1,0.6,0c0.1,0.1,0.1,0.5-0.2,1.2c0.1,0.1,0.3,0.1,0.6,0c0.3-0.1,0.4-0.1,0.4,0
		c0.4,0.3,0.3,0.8-0.2,1.4l1.2,2c0,0.3,0.1,0.7,0.2,1.3c0.1,0.6,0,1-0.4,1.1c0.1,0.4,0,0.9-0.5,1.3c-0.5,0.5-0.6,0.9-0.5,1.3
		c-0.3,0.3-0.5,0.4-0.6,0.4c0,0.5-0.3,1.1-1,1.6c-0.1,0.1-0.3,0.3-0.4,0.4c0.1,0.4,0.1,0.6,0,0.6c-0.3,0-0.5-0.1-0.8-0.4
		c-0.4,0-0.8,0.2-1,0.6c-0.3,0.4-0.5,0.6-0.6,0.6c-1,0-1.4,0.3-1.4,0.8c-0.3,0-0.7,0-1.4,0c-1.4,0.1-2.1-0.1-2.2-0.6
		c-0.3,0-0.5,0.1-0.8,0.4c-0.1-0.1-0.3-0.3-0.4-0.6c-0.1-0.3-0.3-0.5-0.4-0.6c-0.4,0.1-0.8,0.1-1.1,0c-0.3-0.1-0.6-0.2-0.9-0.2
		c0-0.1-0.1-0.3-0.2-0.6c-1.2-1-2-1.5-2.4-1.6l-0.2-1c-0.1,0-0.5-0.4-1.2-1.2c-0.8-1-1.2-1.5-1.2-1.6c0-0.1,0-0.3,0-0.4s0-0.3,0-0.4
		c-0.1-0.1-0.5-0.3-1.2-0.6c-0.3-0.8-0.7-1.5-1.4-2c0.1-0.5-0.1-0.9-0.8-1.2c0.1-0.4,0-0.7-0.4-1c0.1-1.1-0.1-1.8-0.8-2
		c0.3-0.5,0.1-1.1-0.6-1.6c0.1-0.1,0-0.5-0.4-1.2c0-0.1-0.1-0.3-0.2-0.6c-0.1-0.5-0.3-0.8-0.6-0.8c0.1-0.4,0.1-0.8-0.2-1.2
		c-0.1-0.3-0.2-0.5-0.2-0.6s0-0.3,0-0.6c0-0.3,0-0.5-0.1-0.6c-0.1-0.1-0.2-0.3-0.4-0.6c-0.2-0.3-0.3-0.5-0.3-0.6c0-0.4,0-0.6,0-0.7
		c0-0.1-0.1-0.1-0.2-0.2c-0.1-0.1-0.2-0.2-0.2-0.3c0-0.1,0-0.3,0-0.4c-0.1-0.7-0.3-1-0.6-1c-0.3,0-0.8,0.5-1.6,1.6
		c-0.3,0.1-0.6,0.5-1.1,1.1c-0.5,0.6-0.9,1-1.1,1.1c0,0.3,0,0.5,0,0.6c-0.1,0.1-0.3,0.3-0.6,0.6c-0.1,0.4-0.5,1-1,1.7
		c-0.5,0.7-0.9,1.4-1,1.9c-0.3,0.1-0.5,0.2-0.6,0.2c0,0.1,0,0.2,0,0.3c0,0.1,0,0.2,0,0.3c-0.3,0.3-0.6,0.7-0.9,1.4
		c-0.3,0.7-0.7,1.1-1.1,1.4c0.1,0.4,0,0.8-0.5,1.1c-0.5,0.3-0.7,0.8-0.7,1.3c-0.1,0.1-0.5,0.5-1.2,1.2v0.8c-0.4,0.8-0.6,1.5-0.6,2
		l-0.4,0.4c-0.4,0.1-0.7,0.5-0.8,1.2c-0.1,0.7-0.3,1.1-0.6,1.2v0.6c-0.5,0.5-0.8,1-0.8,1.2c-0.3,0-0.4,0-0.5,0.1
		c-0.1,0.1-0.1,0.2,0,0.3c0.1,0.1,0,0.2-0.1,0.2c-0.1,0-0.3-0.1-0.4-0.4c-0.3,0.4-0.5,0.5-0.8,0.4c0-0.5-0.1-0.8-0.2-0.8
		c-0.1-0.1-0.4-0.1-0.7,0c-0.3,0.1-0.6,0.2-0.7,0.2c0-0.5-0.3-0.8-0.8-0.9c-0.5-0.1-0.8,0.2-0.8,0.7c-0.3,0-0.8,0.2-1.6,0.6l-0.4-1
		c-0.1,0-0.3,0-0.4,0s-0.3-0.1-0.4-0.2c-0.1-0.4-0.5-0.9-1.1-1.4c-0.6-0.5-1-1-1.1-1.4c-0.1-0.1-0.3-0.4-0.6-0.7
		c-0.3-0.3-0.5-0.6-0.8-0.7c0-0.8-0.4-1.4-1.2-1.8c0-0.1,0.1-0.2,0.2-0.2c0.1,0,0.3-0.1,0.4-0.2c0.3-0.3,0.3-0.8,0-1.6
		c0-0.4,0-0.7,0-1c0-0.4,0-0.6,0-0.7c0-0.1-0.3-0.2-0.8-0.3c0-0.4,0.1-0.7,0.4-1c0-1.2-0.2-2-0.6-2.4c0-0.1,0.1-0.3,0.2-0.6
		c-0.1-0.1-0.2-0.7-0.3-1.8c-0.1-1.1-0.4-1.5-1.1-1.2c0-0.3,0.2-0.5,0.6-0.8c0.1-0.1,0.1-0.3,0-0.6c0.3-0.3,0.3-0.8,0.1-1.5
		c-0.2-0.7-0.3-1.3-0.3-1.7c-0.5-0.4-0.5-0.9,0-1.4c0-0.1-0.1-0.3-0.3-0.5c-0.2-0.2-0.3-0.4-0.3-0.5c0-0.4-0.1-0.9-0.3-1.5
		c-0.2-0.6-0.4-1.1-0.5-1.5c0.1,0,0.3,0,0.6,0c-0.3-0.7-0.5-2.2-0.6-4.7c-0.4,0-0.6-0.1-0.6-0.2c-0.1-0.3,0-0.7,0.4-1.2
		c-0.1-0.7-0.3-1.3-0.6-1.8l-0.2-1.8c0-0.1,0-0.4,0-0.7s0-0.6,0-0.7c0-0.1-0.1-0.3-0.2-0.6c-0.1-0.3-0.2-0.5-0.2-0.6
		c0-0.1,0-0.4-0.1-0.7c-0.1-0.3-0.1-0.6-0.1-0.7c-0.1-1.1-0.3-1.7-0.4-1.8c0.3-1,0.2-1.7-0.2-2.2c-0.1-0.1-0.2-0.4-0.1-0.9
		c0.1-0.5,0-0.8-0.1-0.9c-0.1-0.3-0.3-0.4-0.4-0.4c0-0.1,0-0.4-0.1-0.8c-0.1-0.4-0.2-0.7-0.3-1c0.1-0.1,0.2-0.5,0.2-1
		c0-0.5-0.1-0.9-0.4-1c0-0.8-0.2-1.4-0.6-1.8c-0.1,0.1-0.2,0.1-0.2-0.2c0.1,0,0.2,0.1,0.2,0.2c0.3-0.5,0.4-0.9,0.4-1l-0.4-0.6
		c-0.1-0.1-0.2-0.3-0.1-0.6c0.1-0.3,0.1-0.5,0.1-0.6c-0.1-0.1-0.3-0.3-0.4-0.6c-0.1-0.3-0.3-0.5-0.4-0.6c0.1-0.4,0.1-1,0-1.6
		c-0.1-0.7-0.1-1.1,0-1.4l-0.6-0.8c0-0.5,0-1.3,0-2.1c0-0.9,0-1.5,0-1.7c0-0.3-0.1-0.6-0.3-1c-0.2-0.4-0.3-0.7-0.3-0.8
		c-0.1-0.3-0.2-0.7-0.1-1.4c0.1-0.7,0-1.1-0.1-1.4c0-0.1-0.1-0.2-0.2-0.3c-0.1-0.1-0.2-0.2-0.2-0.3c0-0.1,0.1-0.3,0.4-0.4
		c0-0.3-0.1-0.4-0.2-0.5c-0.1-0.1-0.3-0.1-0.4-0.1c0.1-0.3,0.2-0.7,0.1-1.2c-0.1-0.5-0.1-1-0.1-1.4c0.4-0.3,0.6-0.4,0.7-0.5
		c0.1-0.1,0.1-0.2,0.1-0.4c0-0.2,0-0.3,0-0.4c0-0.1,0-0.2,0.1-0.3c0.1-0.1,0.1-0.3,0.1-0.4c0-0.1-0.1-0.4-0.2-0.7
		c-0.1-0.3-0.1-0.6,0-0.7c0.1,0,0.3,0.1,0.6,0.4c0.4,0.1,0.6-0.1,0.7-0.6c0.1-0.5,0.2-0.8,0.5-0.8c1.1,0.1,1.9,0,2.4-0.4
		c0.5,0.1,1.1-0.1,1.6-0.6c0.3,0.1,0.8,0.2,1.5,0.1s1.3-0.1,1.5-0.1c0.1,0,1.1,0.7,3,2.2c0,0.4,0.2,0.8,0.6,1.2
		c0.4,0.4,0.6,0.6,0.7,0.7c0.1,0.1,0.1,0.3,0.1,0.6C346.9,15.8,346.9,16.1,346.9,16.2z M347.8,16.9c0.1-0.1,0.2,0,0.2,0.1v0.4
		c-0.5-0.1-0.8,0-0.8,0.5c0,0.5,0.3,0.6,0.8,0.5c0,1.6-0.1,2.5-0.4,2.6c0.4,0.1,0.6,0.2,0.7,0.2c0.1,0,0.1,0.1,0.1,0.3
		c0,0.2,0,0.4,0,0.5c0,0.1-0.1,0.3-0.4,0.4c-0.3,0.1-0.4,0.3-0.4,0.6c0.5,0.3,0.8,0.5,0.8,0.6c0,0.1-0.1,0.3-0.3,0.5
		c-0.2,0.2-0.3,0.4-0.3,0.5c0,0.3,0.1,0.6,0.3,1.1c0.2,0.5,0.3,0.8,0.3,0.9c0,0.4,0,0.7,0,1s0.2,0.5,0.6,0.6
		c0.1,0.7,0.1,1.2-0.2,1.6c0.1,0.3,0.2,0.8,0.2,1.6c0,0.8,0,1.4,0,1.6c0,0.1,0.1,0.2,0.3,0.3c0.2,0.1,0.4,0.1,0.5,0.1
		c0,0.1-0.1,0.4-0.4,0.8c-0.1,0.3-0.1,0.6,0.2,1.1c0.3,0.5,0.4,0.8,0.4,0.9c0.1,0.1,0.2,0.5,0.1,1.2c-0.1,0.7,0,1.1,0.1,1.2
		c-0.3,0.5-0.1,1,0.4,1.2c0.1-0.1,0.3-0.2,0.4-0.2c0,0.3-0.1,0.4-0.2,0.5c-0.1,0.1-0.3,0.1-0.4,0.1c0.1,0.3,0.2,0.6,0.2,1
		c0.1,1.1,0.3,1.7,0.6,1.8c0,0.1,0,0.3-0.1,0.4c-0.1,0.1-0.1,0.2-0.1,0.3c0,0.1,0.1,0.2,0.2,0.4c0.1,0.2,0.2,0.3,0.2,0.4
		s0,0.2,0,0.5c0,0.3,0,0.5,0,0.6s0.1,0.3,0.3,0.5c0.2,0.2,0.3,0.4,0.3,0.7c-0.1,0.3-0.2,0.5-0.2,0.6c0,0.1,0,0.3,0.1,0.5
		c0.1,0.2,0.1,0.4,0.1,0.5c0.1,0.3,0.2,0.6,0.1,1.1c-0.1,0.5-0.1,0.9-0.1,1.1c0.4,0.5,0.7,1,0.8,1.4c0,0.1-0.1,0.5-0.2,1.1
		c-0.1,0.6-0.1,1,0.2,1.1c0,0.1,0.1,0.3,0.2,0.4c0.1,0.1,0.2,0.3,0.2,0.4c0,1,0,1.5,0,1.6s0,0.4,0,0.7s0,0.6,0,0.7
		c0,0.3,0.1,0.6,0.3,1.1c0.2,0.5,0.3,0.8,0.3,0.9c0,0.1,0.1,0.5,0.2,1c0,1,0.2,1.6,0.6,1.8c0.7-0.5,1.1-1.1,1.4-1.6
		c0.4-0.1,0.7-0.5,0.8-1c0.1-0.4,0.3-0.7,0.4-0.8h0.6c0.3,0,0.3-0.2,0.2-0.6c0.3-0.3,0.7-0.7,1.3-1.2c0.6-0.5,1-1.1,1.1-1.6
		c0.7-0.3,1-0.5,1-0.8c0.8-0.4,1.5-0.9,2-1.4c0.4,0.3,0.7,0.2,1-0.3c0.3-0.5,0.5-0.8,0.6-0.9c0.4,0,0.7,0,0.8,0
		c0.1-0.1,0.3-0.4,0.4-0.7c0.1-0.3,0.3-0.6,0.4-0.7c0.9,0.1,1.6-0.2,1.8-1c0.3,0,0.8-0.2,1.6-0.6c0.5,0,1.3-0.3,2.2-0.8
		c1.1,0.1,1.7,0,1.8-0.4c0.8,0.7,1.4,1.1,1.6,1.2c0.1,0.1,0.4,0.4,0.8,0.8c0.4,0.4,0.7,0.7,0.8,1c0.3,0.1,0.4,0.2,0.5,0.3
		c0.1,0.1,0.1,0.2,0.1,0.3c0,0.1,0,0.2,0.1,0.3c0.1,0.1,0.2,0,0.3-0.1s0.3-0.1,0.4,0c0,0.1,0.1,0.3,0.2,0.6c0.4,0.7,0.8,1.1,1.2,1.2
		c0.3,0.7,0.3,1.2,0.2,1.4c0.1,0.1,0.3,0.4,0.6,0.8c0.1,0.1,0.3,0.3,0.6,0.4s0.4,0.3,0.4,0.6c0.1,0,0.2,0.3,0.3,0.9
		c0.1,0.6,0.2,1,0.5,1.1v0.6c0,0.1,0.1,0.3,0.3,0.4c0.2,0.1,0.3,0.3,0.3,0.4c0,0.3,0,0.6,0,0.9s0,0.6,0,0.7s0.1,0.3,0.3,0.4
		c0.2,0.1,0.3,0.3,0.4,0.4c0.1,0.1,0.1,0.3,0,0.6c-0.1,0.3-0.1,0.5,0,0.6c0.1,0.1,0.2,0.3,0.4,0.4c0.2,0.1,0.3,0.3,0.3,0.4
		c-0.1,0.5-0.1,1.1,0.2,1.8c0.3,0.3,0.4,0.5,0.4,0.7s0,0.5,0,0.9c0,0.4,0,0.7,0,0.8s0.1,0.3,0.2,0.4c0.1,0.1,0.2,0.2,0.2,0.3
		c0,0.1,0.1,0.4,0.2,0.9c0.1,0.5,0.3,0.9,0.4,1c0,0.1,0.3,0.5,0.8,1.2c-0.1,0.3,0.1,0.7,0.6,1.4c0,0.1,0,0.3,0,0.5
		c0,0.2,0,0.4,0,0.5c0.1,0.3,0.5,0.7,1.2,1.2c0,0.1,0.1,0.4,0.4,0.7c0.3,0.3,0.5,0.6,0.6,0.7c0.1,0,0.3,0,0.4-0.1
		c0.1-0.1,0.2-0.1,0.3-0.1c0.1,0,0.1,0.1,0.2,0.2c0.1,0.1,0.2,0.2,0.3,0.2c0.1,0,1,0,2.4,0c0.1,0,0.3,0,0.6,0c0.1,0,0.3,0.1,0.4,0.3
		c0.1,0.2,0.2,0.4,0.2,0.5c0.1-0.1,0.3-0.3,0.6-0.4c0.3-0.1,0.5-0.1,0.6,0c0.1,0.1,0.1,0.5-0.2,1.2c0.1,0.1,0.3,0.1,0.6,0
		c0.3-0.1,0.4-0.1,0.4,0c0.4,0.3,0.3,0.8-0.2,1.4l1.2,2c0,0.3,0.1,0.7,0.2,1.3c0.1,0.6,0,1-0.4,1.1c0.1,0.4,0,0.9-0.5,1.3
		c-0.5,0.5-0.6,0.9-0.5,1.3c-0.3,0.3-0.5,0.4-0.6,0.4c0,0.5-0.3,1.1-1,1.6c-0.1,0.1-0.3,0.3-0.4,0.4c0.1,0.4,0.1,0.6,0,0.6
		c-0.3,0-0.5-0.1-0.8-0.4c-0.4,0-0.8,0.2-1,0.6c-0.3,0.4-0.5,0.6-0.6,0.6c-1,0-1.4,0.3-1.4,0.8c-0.3,0-0.7,0-1.4,0
		c-1.4,0.1-2.1-0.1-2.2-0.6c-0.3,0-0.5,0.1-0.8,0.4c-0.1-0.1-0.3-0.3-0.4-0.6c-0.1-0.3-0.3-0.5-0.4-0.6c-0.4,0.1-0.8,0.1-1.1,0
		c-0.3-0.1-0.6-0.2-0.9-0.2c0-0.1-0.1-0.3-0.2-0.6c-1.2-1-2-1.5-2.4-1.6l-0.2-1c-0.1,0-0.5-0.4-1.2-1.2c-0.8-1-1.2-1.5-1.2-1.6
		c0-0.1,0-0.3,0-0.4s0-0.3,0-0.4c-0.1-0.1-0.5-0.3-1.2-0.6c-0.3-0.8-0.7-1.5-1.4-2c0.1-0.5-0.1-0.9-0.8-1.2c0.1-0.4,0-0.7-0.4-1
		c0.1-1.1-0.1-1.8-0.8-2c0.3-0.5,0.1-1.1-0.6-1.6c0.1-0.1,0-0.5-0.4-1.2c0-0.1-0.1-0.3-0.2-0.6c-0.1-0.5-0.3-0.8-0.6-0.8
		c0.1-0.4,0.1-0.8-0.2-1.2c-0.1-0.3-0.2-0.5-0.2-0.6s0-0.3,0-0.6c0-0.3,0-0.5-0.1-0.6c-0.1-0.1-0.2-0.3-0.4-0.6
		c-0.2-0.3-0.3-0.5-0.3-0.6c0-0.4,0-0.6,0-0.7c0-0.1-0.1-0.1-0.2-0.2c-0.1-0.1-0.2-0.2-0.2-0.3c0-0.1,0-0.3,0-0.4
		c-0.1-0.7-0.3-1-0.6-1c-0.3,0-0.8,0.5-1.6,1.6c-0.3,0.1-0.6,0.5-1.1,1.1c-0.5,0.6-0.9,1-1.1,1.1c0,0.3,0,0.5,0,0.6
		c-0.1,0.1-0.3,0.3-0.6,0.6c-0.1,0.4-0.5,1-1,1.7c-0.5,0.7-0.9,1.4-1,1.9c-0.3,0.1-0.5,0.2-0.6,0.2c0,0.1,0,0.2,0,0.3
		c0,0.1,0,0.2,0,0.3c-0.3,0.3-0.6,0.7-0.9,1.4c-0.3,0.7-0.7,1.1-1.1,1.4c0.1,0.4,0,0.8-0.5,1.1c-0.5,0.3-0.7,0.8-0.7,1.3
		c-0.1,0.1-0.5,0.5-1.2,1.2v0.8c-0.4,0.8-0.6,1.5-0.6,2l-0.4,0.4c-0.4,0.1-0.7,0.5-0.8,1.2c-0.1,0.7-0.3,1.1-0.6,1.2v0.6
		c-0.5,0.5-0.8,1-0.8,1.2c-0.3,0-0.4,0-0.5,0.1c-0.1,0.1-0.1,0.2,0,0.3c0.1,0.1,0,0.2-0.1,0.2c-0.1,0-0.3-0.1-0.4-0.4
		c-0.3,0.4-0.5,0.5-0.8,0.4c0-0.5-0.1-0.8-0.2-0.8c-0.1-0.1-0.4-0.1-0.7,0c-0.3,0.1-0.6,0.2-0.7,0.2c0-0.5-0.3-0.8-0.8-0.9
		c-0.5-0.1-0.8,0.2-0.8,0.7c-0.3,0-0.8,0.2-1.6,0.6l-0.4-1c-0.1,0-0.3,0-0.4,0s-0.3-0.1-0.4-0.2c-0.1-0.4-0.5-0.9-1.1-1.4
		c-0.6-0.5-1-1-1.1-1.4c-0.1-0.1-0.3-0.4-0.6-0.7c-0.3-0.3-0.5-0.6-0.8-0.7c0-0.8-0.4-1.4-1.2-1.8c0-0.1,0.1-0.2,0.2-0.2
		c0.1,0,0.3-0.1,0.4-0.2c0.3-0.3,0.3-0.8,0-1.6c0-0.4,0-0.7,0-1c0-0.4,0-0.6,0-0.7c0-0.1-0.3-0.2-0.8-0.3c0-0.4,0.1-0.7,0.4-1
		c0-1.2-0.2-2-0.6-2.4c0-0.1,0.1-0.3,0.2-0.6c-0.1-0.1-0.2-0.7-0.3-1.8c-0.1-1.1-0.4-1.5-1.1-1.2c0-0.3,0.2-0.5,0.6-0.8
		c0.1-0.1,0.1-0.3,0-0.6c0.3-0.3,0.3-0.8,0.1-1.5c-0.2-0.7-0.3-1.3-0.3-1.7c-0.5-0.4-0.5-0.9,0-1.4c0-0.1-0.1-0.3-0.3-0.5
		c-0.2-0.2-0.3-0.4-0.3-0.5c0-0.4-0.1-0.9-0.3-1.5c-0.2-0.6-0.4-1.1-0.5-1.5c0.1,0,0.3,0,0.6,0c-0.3-0.7-0.5-2.2-0.6-4.7
		c-0.4,0-0.6-0.1-0.6-0.2c-0.1-0.3,0-0.7,0.4-1.2c-0.1-0.7-0.3-1.3-0.6-1.8l-0.2-1.8c0-0.1,0-0.4,0-0.7s0-0.6,0-0.7
		c0-0.1-0.1-0.3-0.2-0.6c-0.1-0.3-0.2-0.5-0.2-0.6c0-0.1,0-0.4-0.1-0.7c-0.1-0.3-0.1-0.6-0.1-0.7c-0.1-1.1-0.3-1.7-0.6-1.8
		c0.4-1,0.4-1.7,0-2.2c-0.1-0.1-0.2-0.4-0.1-0.9c0.1-0.5,0-0.8-0.1-0.9c-0.1-0.3-0.3-0.4-0.4-0.4c0-0.1,0-0.4-0.1-0.8
		c-0.1-0.4-0.2-0.7-0.3-1c0.1-0.1,0.2-0.5,0.2-1c0-0.5-0.1-0.9-0.4-1c0-0.8-0.2-1.4-0.6-1.8c-0.1,0.1-0.2,0.1-0.2-0.2
		c0.1,0,0.2,0.1,0.2,0.2c0.3-0.5,0.4-0.9,0.4-1l-0.4-0.6c-0.1-0.1-0.2-0.3-0.1-0.6c0.1-0.3,0.1-0.5,0.1-0.6
		c-0.1-0.1-0.3-0.3-0.4-0.6c-0.1-0.3-0.3-0.5-0.4-0.6c0.1-0.4,0.1-1,0-1.6c-0.1-0.7-0.1-1.1,0-1.4l-0.6-0.8c0-0.5,0-1.3,0-2.1
		c0-0.9,0-1.5,0-1.7c0-0.3-0.1-0.6-0.3-1c-0.2-0.4-0.3-0.7-0.3-0.8c-0.1-0.3-0.2-0.7-0.1-1.4c0.1-0.7,0-1.1-0.1-1.4
		c0-0.1-0.1-0.2-0.2-0.3c-0.1-0.1-0.2-0.2-0.2-0.3c0-0.1,0.1-0.3,0.4-0.4c0-0.3-0.1-0.4-0.2-0.5c-0.1-0.1-0.3-0.1-0.4-0.1
		c0.1-0.3,0.2-0.7,0.1-1.2c-0.1-0.5-0.1-1-0.1-1.4c0.4-0.3,0.6-0.4,0.7-0.5c0.1-0.1,0.1-0.2,0.1-0.4c0-0.2,0-0.3,0-0.4
		c0-0.1,0-0.2,0.1-0.3c0.1-0.1,0.1-0.3,0.1-0.4c0-0.1-0.1-0.4-0.2-0.7c-0.1-0.3-0.1-0.6,0-0.7c0.1,0,0.3,0.1,0.6,0.4
		c0.4,0.1,0.6-0.1,0.7-0.6c0.1-0.5,0.2-0.8,0.5-0.8c1.1,0.1,1.9,0,2.4-0.4c0.5,0.1,1.1-0.1,1.6-0.6c0.3,0.1,0.8,0.2,1.5,0.1
		s1.3-0.1,1.5-0.1c0.1,0,1.1,0.7,3,2.2c0,0.4,0.2,0.8,0.6,1.2c0.4,0.4,0.6,0.6,0.7,0.7c0.1,0.1,0.1,0.3,0.1,0.6c0,0.3,0,0.6,0,0.7
		c0,0.1,0.1,0.4,0.4,0.8C347.5,17,347.6,17,347.8,16.9z M338.4,54.8v-0.2h0.2v0.2H338.4z M338.4,54.6h0.2v0.2h-0.2V54.6z M350.2,91
		c0.1,0,0.3,0.1,0.4,0.2l-0.2,0.4C350.3,91.4,350.2,91.2,350.2,91z M350.4,91.6c-0.1-0.1-0.2-0.3-0.2-0.6c0.1,0,0.3,0.1,0.4,0.2
		L350.4,91.6z"/>
</g>
</svg>
