<?xml version="1.0" encoding="utf-8"?>
<!-- Generator: Adobe Illustrator 19.0.1, SVG Export Plug-In . SVG Version: 6.00 Build 0)  -->
<svg version="1.1" id="Layer_1" xmlns="http://www.w3.org/2000/svg" xmlns:xlink="http://www.w3.org/1999/xlink" x="0px" y="0px"
	 viewBox="0 -65 400 200" enable-background="new 0 -65 400 200" xml:space="preserve">
<g>
	<path fill="#C35B28" d="M96.1-19.6c-0.4,0.8-0.3,2.8,0.3,5.9c0.6,0.2,0.9,0.4,0.9,0.6c0.2,1.2,0.2,1.9,0,1.9c0,0.2-0.2,0.5-0.6,0.9
		c-0.2,1.2,0.1,2.3,0.9,3.1c0,0.4,0.1,1.4,0.3,3c0.2,1.6,0,2.6-0.6,3c0.2,0.2,0.3,0.5,0.3,0.9s0.1,0.6,0.3,0.6
		c0,0.2,0.2,0.7,0.6,1.4c0.4,0.7,0.6,1.4,0.6,2l-0.3,0.6c0.2,0.2,0.4,0.5,0.6,0.9s0.4,0.7,0.5,0.9c0.1,0.2,0.1,0.7-0.2,1.6
		c0,0.2,0,0.5,0,0.9s0,0.7,0,0.9c0,0.2,0,0.5,0,0.8s0,0.6,0,0.8c0,0.2,0.1,0.5,0.3,0.8c0.2,0.3,0.4,0.5,0.5,0.6s0.1,0.4,0,0.8
		s-0.2,0.7-0.2,0.8c0,0.1,0.2,0.6,0.6,1.4c0.4,2.7,0.9,4.1,1.6,4.1c0.4,0,0.6-0.2,0.6-0.6c0.2-0.2,0.4-0.3,0.5-0.3s0.3-0.1,0.6-0.3
		c0.3-0.2,0.6-0.4,0.8-0.6c0,0.2,0,0.4,0.2,0.5c0.1,0.1,0.3,0.2,0.5,0.2c1.7-0.4,2.6-0.6,2.8-0.6c0.4,0,0.7-0.1,0.9-0.3
		c0.2-0.2,0.4-0.3,0.6-0.3s0.5,0.1,0.9,0.3c0.8,0.2,1.3,0,1.6-0.6h1.6c1,0.8,1.6,1.4,1.6,1.6c0.2,0,0.5,0.1,0.9,0.3
		c0.6,0.6,1.5,1.5,2.5,2.5s1.9,1.9,2.5,2.5c0.4,0,0.8,0.1,1.2,0.3c0,0.4,0,1.4,0,2.8c0,1.5,0,2.5,0,3.1c0.6,0.4,0.7,0.8,0.3,1.2
		c-0.4,0.4-0.8,0.7-1.2,0.9c0,0.4,0,1,0,1.9c-0.4,0.2-0.9,0.4-1.6,0.6c-0.2,0-0.3,0.2-0.3,0.6s0,0.7,0,0.9c-0.4-0.2-0.7-0.3-0.9-0.3
		c-0.6,0.4-0.9,0.9-0.9,1.6c-0.6,0.6-1,0.8-1.2,0.6c-0.2,0.2-0.5,0.6-0.9,1.1s-0.8,0.9-1.3,1.1c-0.2-0.2-0.5-0.1-0.9,0.3
		s-0.6,0.7-0.6,0.9c-0.4,0-1.1,0-1.9,0c-0.8-0.2-1.4,0-1.6,0.6c-0.4,0-1,0.1-1.9,0.2c-0.8,0.1-1.5,0.2-1.9,0.2
		c-0.4,0.2-0.6,0.7-0.6,1.4c0,0.7,0.2,1.3,0.6,1.7c0,0.2-0.1,0.4-0.3,0.5c-0.2,0.1-0.3,0.3-0.3,0.5c0,0.6,0,1.5,0,2.6
		c0,1.2,0.1,1.9,0.3,2.4c0,0.4,0.2,1,0.6,1.9c0.4,0.8,0.6,1.5,0.6,1.9c0,0.2-0.1,0.5-0.3,0.8c-0.2,0.3-0.3,0.6-0.2,0.8
		c0.1,0.2,0.2,0.4,0.2,0.6c0.2,0.2,0.4,0.3,0.6,0.3c0,0.2,0.1,0.3,0.3,0.2c0.2-0.1,0.3-0.1,0.3,0.2c0.2,0.4,0,0.6-0.6,0.6
		c-0.4,0.2-0.6,0.6-0.6,1.1s0,0.9,0,1.1s0.1,0.4,0.3,0.6c0.2,0.2,0.4,0.4,0.6,0.6c0,0.2-0.2,0.4-0.5,0.5s-0.5,0.3-0.5,0.5
		c0.2,0.2,0.6,0.5,1.1,0.9s0.8,0.8,0.8,1.2c0,0.2-0.2,0.5-0.5,0.9s-0.5,0.7-0.5,0.9c-0.2,0-0.2,0.3,0,0.9c0,0.4-0.1,1.2-0.2,2.4
		c-0.1,1.1-0.1,2.1,0,2.8s0.4,1.3,0.8,1.7c0,0.2,0.1,0.7,0.3,1.6c0,0.6-0.1,2.1-0.2,4.4c-0.1,2.3-0.1,3.7,0.2,4.1
		c0,0.2,0.3,0.6,0.9,1.3c0.2,0.6,0.3,1.7,0.2,3.1c-0.1,1.5-0.2,2.5-0.2,3.1c0,1,0,1.7,0,1.9c0,1.2,0,2.1,0,2.5
		c0.2,0,0.5,0.2,0.8,0.6c0.3,0.4,0.4,0.8,0.2,1.3c-0.6,0.2-0.9,0.8-0.9,1.7s0.3,1.5,0.9,1.7c-0.2,0.6-0.3,1.4-0.3,2.2
		c-0.6,0.6-0.6,1.8,0,3.4c0.6,1.7,0.4,2.7-0.6,3.1v1.9c-1.5,0.4-2.6,0.9-3.4,1.6c0.4,0.4,0.5,0.6,0.3,0.6c-0.2,0.2-0.4,0.2-0.6-0.2
		c-0.2-0.3-0.4-0.5-0.6-0.5c-0.2,0.2-0.4,0.5-0.6,0.8s-0.4,0.5-0.6,0.5s-0.5,0-0.8,0s-0.6,0-0.8,0c-1.7,1.2-2.7,1.6-3.1,0.9
		l-0.9,0.3c-0.2,0-0.4-0.1-0.6-0.3s-0.4-0.3-0.5-0.3s-0.3,0.1-0.5,0.3s-0.4,0.3-0.6,0.3c-0.4-1.5-0.7-2.3-0.9-2.5
		c-0.6,0-2.2-0.8-4.7-2.5c-0.2,0-0.4,0-0.6,0s-0.4,0-0.6,0c0-0.6-0.3-1.3-0.9-2.2c0-0.2-0.1-0.3-0.3-0.2c-0.2,0.1-0.4,0.2-0.6,0.2
		c0-0.2,0.2-0.6,0.6-1.2c0.2-1-0.1-1.8-0.9-2.2c0-0.2,0.1-0.4,0.3-0.6c0.2-0.2,0.3-0.4,0.3-0.6c0-0.2-0.1-0.6-0.3-1.1
		c-0.2-0.5-0.4-1-0.6-1.4c0-0.6,0.1-1.4,0.3-2.2c0.2-1.3,0.5-2.2,0.9-2.8c0-0.2-0.2-0.5-0.6-0.9c0-0.2,0.1-0.4,0.3-0.6
		c0.2-0.2,0.3-0.4,0.3-0.6c0-0.2-0.2-0.5-0.5-0.9S87,93.9,87,93.7c0.2-0.4,0.3-0.7,0.3-0.9s0-0.4,0-0.6c0-0.2,0.1-0.4,0.3-0.6
		c0.2-0.2,0.3-0.4,0.3-0.6c0-0.2-0.3-0.5-0.9-0.9c0.6-0.8,0.9-1.6,0.9-2.2c-0.2,0-0.4-0.2-0.6-0.6c-0.2-0.4-0.3-0.8-0.3-1.1
		s0-0.8,0-1.6c0-0.7,0-1.2,0-1.4c0-0.6,0-1.3,0-2.2c0-1.5-0.3-2.4-0.9-2.8c0-2.7-0.1-5.2-0.3-7.5c0-0.2,0-0.6,0-1.2s0-1,0-1.2
		s-0.2-0.5-0.6-0.8s-0.5-0.7-0.3-1.1c0.6-0.2,0.9-0.4,0.9-0.6c-0.4-1.2-0.6-2-0.6-2.2c0.4-0.4,0.6-0.7,0.6-0.9
		c0-0.2-0.2-0.7-0.5-1.4c-0.3-0.7-0.3-1.2,0.2-1.4c-0.2-0.4-0.3-1-0.3-1.7s0-1.4,0-2c0-0.4-0.1-0.8-0.3-1.2s-0.3-0.7-0.3-0.8
		c0-0.1,0-0.3,0.2-0.6c0.1-0.3,0.3-0.5,0.5-0.5c0-1.3-0.4-2.1-1.3-2.5c0-0.2,0.1-0.5,0.2-0.8s0.1-0.5-0.2-0.5
		c-0.2-0.4-0.5-0.5-0.8-0.3s-0.5,0.5-0.5,0.9c-0.6,0.2-1.4,0.2-2.2,0c-1.2-0.2-2.1,0-2.5,0.6c-0.2,0-0.8,0-1.9,0
		c-0.2,0-0.7,0.5-1.6,1.6c-0.2,0-0.3-0.2-0.2-0.5c0.1-0.3,0.1-0.5-0.2-0.5c0-0.4-0.4-0.3-1.3,0.3c-0.4,0.2-0.9,0.3-1.4,0.2
		c-0.5-0.1-0.9-0.2-1.1-0.2c-0.2,0.2-0.4,0.4-0.6,0.6s-0.4,0.3-0.6,0.3c-2.7,0.2-4.2,0.6-4.4,1.3c-3.8,0-5.8,0.4-6.2,1.2
		c-0.2,0-0.8-0.1-1.9-0.3H56c-0.6,0-1.5,0.2-2.5,0.5c-1.1,0.3-1.8,0.5-2.2,0.5c-0.4,0.2-0.9,0.2-1.6,0c-1.5-0.2-2.3-0.1-2.5,0.3
		c-0.2,0-0.4,0.2-0.5,0.6S46.4,57,46.2,57c-0.2-0.2-0.6-0.3-1.2-0.2c-0.6,0.1-1,0.2-1.2,0.2s-0.4-0.1-0.6-0.3
		c-0.2-0.2-0.4-0.3-0.6-0.3c-0.2,0-0.5,0.2-0.9,0.6h-8.1c0-0.2-0.6-0.4-1.9-0.6c-0.2-0.2-0.4-0.3-0.6-0.3c-0.8-0.4-1.5-0.6-1.9-0.6
		c-0.6,0.2-0.9,1-0.9,2.5L28,58.9c0,0.2,0.1,0.5,0.3,0.9c0.2,0.4,0.3,0.7,0.3,0.9c0,0.4,0,1,0,1.9c-0.2,1.7-0.1,2.7,0.3,3.1
		c-0.2,1-0.1,1.9,0.3,2.5c0.4-0.2,0.7-0.3,0.9-0.3c0,0.2-0.1,0.4-0.3,0.6c-0.2,0.2-0.3,0.4-0.3,0.6c0.2,1.1,0,1.9-0.6,2.5
		c0,0.2,0.4,0.5,1.2,0.9v0.9c0,0.2-0.2,0.4-0.6,0.6c-0.2,3.1-0.2,4.8,0,5c0,0.4,0,1,0,1.9c0,1.3,0.3,2.1,0.9,2.5c0,0.2,0,0.5,0,0.8
		s0,0.5,0,0.6s-0.2,0.3-0.5,0.5s-0.5,0.4-0.5,0.6c0,0.2,0.2,0.6,0.5,1.1s0.4,1,0.2,1.4c0,0.2-0.2,0.6-0.6,1.2c0,0.2,0.3,0.6,0.9,1.3
		c0,0.2-0.1,0.4-0.3,0.5c-0.2,0.1-0.3,0.3-0.3,0.5c0.4,0.2,0.5,1.2,0.3,3.1c0,0.4,0.1,1,0.2,1.9c0.1,0.8,0.2,1.3,0.2,1.6
		c0,3.8,0.2,5.8,0.6,6.2l0.3,2.5c0,1.2,0,2.6,0,4.1s0.2,2.5,0.6,3.1c0,0.2-0.1,0.5-0.3,0.9c-0.2,1.9-1.6,4.1-4.1,6.6
		c-0.4-0.2-1.1,0.2-2.2,1.2c-0.8,0.6-1.4,0.9-1.6,0.9c-0.6-0.4-1-0.6-1.2-0.6c-0.4,0-0.9,0.5-1.6,1.6c-0.2,0-0.3-0.1-0.3-0.3
		s-0.1-0.4-0.3-0.6c-0.2-0.6-1.1-0.8-2.5-0.6c-0.6-0.4-1-0.9-1.2-1.6c-2.1,0.2-3.1-0.4-3.1-1.9c-0.8,0.4-1.8,0.5-2.8,0.3v-0.9
		c-0.2-0.2-0.5-0.6-0.9-1.2c-0.4-0.6-0.6-1-0.6-1.2c-0.6,0.2-0.9,0.2-0.9,0c-0.2-0.6,0-1.1,0.6-1.6c-0.2-0.2-0.3-1.3-0.2-3.3
		s0.2-3.2,0.2-3.6c0-0.4-0.1-2-0.3-4.7c-0.2-0.8-0.3-1.3-0.3-1.6c-0.2,0-0.4,0.1-0.6,0.2c-0.2,0.1-0.3,0.1-0.3-0.2
		c-0.2,0-0.3-0.8-0.3-2.5c0.2-0.2,0.4-0.4,0.6-0.5s0.3-0.3,0.3-0.5c-0.2-0.6-0.3-1.8-0.2-3.6S8,92,7.7,91.2c0-0.2-0.1-0.4-0.2-0.6
		c-0.1-0.2-0.2-0.4-0.2-0.6c0-0.2,0.1-0.5,0.3-0.9c0.2-0.4,0.3-0.7,0.3-0.9c0-0.6-0.1-1.1-0.3-1.6c0-0.2-0.1-0.5-0.3-0.8
		C7.1,85.5,7,85.2,7,85c0.2-0.4,0.3-0.7,0.3-0.9s-0.1-0.4-0.2-0.6C7,83.1,7,82.9,7,82.8c0-0.1,0.1-0.3,0.2-0.6s0.1-0.5,0-0.6
		S6.9,81,6.8,80c-0.1-0.9-0.2-1.7-0.2-2.3c0.2-1.3,0.3-2.1,0.3-2.5c-0.2,0-0.3-0.3-0.3-0.9c0-1.2-0.1-2-0.3-2.2
		c0.2-0.2,0.3-0.5,0.2-0.9c-0.1-0.4-0.4-0.7-0.8-0.9c-0.4-1-0.2-1.7,0.6-1.9c0-0.2-0.1-0.4-0.3-0.5c-0.2-0.1-0.4-0.3-0.6-0.5
		C6,66.8,6.2,66,6,65.2c-0.2-0.6-0.3-2.2-0.2-4.8C5.9,57.8,6,56.1,6,55.2c0-2.7-0.2-4.5-0.6-5.3c0.4-0.6,0.6-1.3,0.5-2.2
		c-0.1-0.8-0.5-1.2-1.1-1.2c-0.2-0.2-0.3-0.5-0.3-0.9v-0.3C4.7,45.1,4.9,45,5,45.1c0.1,0.1,0.3,0.1,0.5-0.2c0.2-0.2,0.1-0.5-0.3-0.9
		c0-0.2,0-0.4,0-0.6c-0.2-0.8-0.2-2.7,0-5.6S5,33.2,4.2,33H3.5c-0.2-0.2,0-0.7,0.6-1.6c-0.4-0.8-0.5-1.8-0.3-2.8s0.2-2,0-3
		c-0.2-0.9-0.7-1.4-1.6-1.4c0.2-2.1,0.5-3.2,0.9-3.4C3,20.4,3,19.4,3.1,18c0.1-1.5,0-2.5-0.2-3.1c-0.2-0.2-0.4-0.5-0.6-0.8
		C2.1,13.7,2,13.5,2,13.3s0.1-0.7,0.3-1.6C2.1,11.5,2,10.5,2,8.6C2,8.4,1.9,8,1.8,7.4s-0.2-1-0.2-1.2s0-0.5,0-0.9
		c0-0.2-0.2-0.4-0.5-0.6S0.7,4.3,0.8,4.1C1,3.7,1.3,3.4,1.7,3c0-0.2-0.1-0.5-0.3-0.8S1.1,1.6,1.1,1.4C0.8,1,0.8,0.5,0.9,0
		s0.2-0.9,0.2-1.1c0-0.2-0.1-0.6-0.2-1.2C0.8-2.9,0.7-3.4,0.7-3.9c0-0.2,0-0.7,0-1.4s0-1.2,0-1.4c0-1.2-0.1-2-0.3-2.2
		c0.6-0.8,0.7-1.6,0.3-2.2c0-0.2-0.2-0.3-0.5-0.3s-0.5-0.1-0.5-0.3c-0.2-0.4,0.1-1,0.9-1.9C0.2-14,0-14.6,0-15.5
		c0-0.4-0.1-1.1-0.2-2.2c-0.1-1-0.2-1.8-0.2-2.2c0.2-0.8,0.3-1.3,0.3-1.4c0-0.1-0.1-0.3-0.2-0.6s-0.2-0.5-0.2-0.6s0.2-0.5,0.6-1.1
		s0.6-1.2,0.6-1.9c0.2-0.2,0.6-0.6,1.2-1.3C2.9-28,4-28.8,5-29c0.2-0.2,0.4-0.5,0.6-0.9c0-0.2,0-0.4,0-0.6c0.4,0,0.8,0.1,1.1,0.3
		C7-30,7.4-29.9,7.8-29.9c0.2,0,0.4-0.2,0.5-0.5c0.1-0.3,0.3-0.5,0.5-0.5s0.5,0.1,0.8,0.3s0.5,0.4,0.5,0.6c0.4-0.2,0.8-0.3,1.2-0.2
		s0.8,0.2,1.3,0.2c1.5,0.8,2.2,1.4,2.2,1.6c2.7,1.1,4.8,2.6,6.2,4.7c0.2,0.4,0.3,0.7,0.3,0.9c0.4,0.4,0.9,1,1.6,1.9
		c0,0.2-0.1,0.4-0.2,0.6c-0.1,0.2-0.2,0.4-0.2,0.6c0.4,0.6,0.6,1.3,0.6,1.9c0,0.2,0.1,0.5,0.2,0.8s0.2,0.5,0.2,0.6s-0.1,0.5-0.3,1.1
		c0,0.4,0,1,0,1.7s0,1.3,0,1.7c0,1,0.2,1.7,0.6,1.9c-1,0.6-0.9,1.3,0.3,1.9c0,0.2-0.3,0.5-0.9,0.9c0.2,2.9,0.4,4.5,0.6,4.7
		c0,1,0.2,1.9,0.6,2.5c-0.4,0-0.5,0.8-0.3,2.5s0.3,2.7,0.3,3.1c-0.2,0.6-0.3,1-0.3,1.1s0,0.3,0,0.5s0.1,0.3,0.3,0.3
		c0,0.4,0,0.9,0,1.6c-0.2,1.5,0,2.3,0.6,2.5c-0.4,0.4-0.6,0.7-0.6,0.9c-0.2,0.4-0.2,1.2,0.2,2.3c0.3,1.1,0.5,1.9,0.5,2.3
		c0.2,1.1,0.4,1.8,0.6,2.2c-0.2,0.2-0.3,1.2-0.3,2.8c0,0.6,0,1,0,1.1s0.1,0.3,0.3,0.6c0.2,0.3,0.3,0.6,0.3,0.8c0,0.2,0,0.5,0,0.8
		s0,0.5,0,0.6s0.1,0.3,0.3,0.5c0.2,0.2,0.3,0.4,0.3,0.6s-0.1,0.4-0.3,0.5s-0.4,0.3-0.6,0.5c0.4,0.4,0.6,1,0.5,1.9
		c-0.1,0.8-0.2,1.5-0.2,1.9c0.2,0.6,0.7,1.1,1.6,1.4c0.8,0.3,1.7,0.4,2.7,0.3c0.9-0.1,1.8-0.2,2.7-0.2c2.1,0.4,3.2,0.4,3.4,0
		l1.6,0.3c0.2,0,0.5,0.1,0.8,0.3c0.3,0.2,0.6,0.3,0.8,0.3c0.6,0.2,1.5-0.1,2.5-0.9c0.4,0,0.9,0.1,1.6,0.2c0.6,0.1,1,0.2,1.2,0.2
		s0.3-0.1,0.3-0.3c2.3,0.6,3.8,0.3,4.4-0.9c0.4,0,0.7,0.1,0.9,0.3c0.2,0.2,0.4,0.4,0.6,0.6c1.7-1,2.6-1.7,2.8-1.9c0.4,0,1,0,1.9,0
		c0.4,0,0.9,0,1.6,0s1,0,1.2,0s0.5-0.1,0.8-0.3c0.3-0.2,0.6-0.3,0.8-0.3s0.5,0.1,0.8,0.2s0.5,0.2,0.6,0.2s0.4-0.1,0.9-0.3
		c0.5-0.2,0.9-0.3,1.1-0.3l4.7-0.9c0.2,0,0.5-0.2,0.8-0.5s0.6-0.5,0.8-0.5c0.2,0,0.4,0.1,0.6,0.3c0.2,0.2,0.4,0.3,0.6,0.3
		c0.4,0,0.9-0.3,1.6-0.9c0.2,0,0.4-0.2,0.6-0.6c0.6-0.8,1.4-0.9,2.2-0.3c0.4-0.4,1.3-0.7,2.5-0.8c1.2-0.1,2.1-0.3,2.5-0.5
		c0-0.2,0.1-0.6,0.2-1.1s0.1-0.8,0-0.9s-0.3-0.3-0.5-0.5s-0.3-0.4-0.3-0.6c0.2-0.4,0.3-0.7,0.3-0.9l-0.3-0.6c-0.4-0.6-0.4-1.1,0-1.6
		c0-1-0.3-1.8-0.9-2.2c0-0.6,0-1.6,0-3c0-1.3-0.1-2.3-0.3-3c-0.4-0.6-0.6-1-0.6-1.3c0-0.4,0-1.1,0-2.2c0-1-0.1-1.7-0.3-1.9
		c0-0.6-0.1-1-0.2-1.1S77.3,5.3,77,5.2C76.7,5.1,76.4,5,76.2,5c0-0.4,0.3-0.8,0.9-1.2c0-1-0.1-2.1-0.3-3.1c-0.2-1-0.7-1.5-1.6-1.2
		c0-0.4,0.3-0.9,0.9-1.6c-0.2-0.4-0.3-1-0.2-1.9C76-4.8,76-5.5,75.7-5.9c0-0.2-0.3-0.6-0.9-1.3c0-0.4,0-0.9,0-1.6c0-0.6,0-1,0-1.3
		c-0.2-0.2-0.4-0.4-0.6-0.5s-0.4-0.3-0.6-0.5c0.2-2.7,0.1-4.4-0.3-5c0-0.4-0.1-1.1-0.3-2c-0.2-0.9-0.3-1.5-0.3-1.7s0.1-0.5,0.2-0.9
		s0.2-0.7,0.2-0.9s-0.3-0.5-0.9-0.9c0.2-0.6,0.1-1.3-0.3-2.2c-0.4-0.8-0.6-1.3-0.6-1.6c0-0.4,0-1.1,0-2s0-1.6,0-2
		c-0.2-0.2-0.5-0.5-0.9-0.9c-0.2-0.2-0.3-0.6-0.2-1.2s0.2-1,0.2-1.2c-0.2-0.2-0.4-0.5-0.6-0.8s-0.4-0.6-0.6-0.8c0-0.2,0.1-0.9,0.2-2
		s0.1-1.9-0.2-2.3c-0.4,0-0.6-0.1-0.6-0.3c-0.2-0.2-0.3-0.9-0.3-2.2c0-1.2-0.3-1.9-0.9-1.9c0.6-2.1,0.5-3.8-0.3-5c0.2,0,0.4,0,0.6,0
		S68-49,68-49.2c0.8-1.3,1.2-2.1,1.2-2.5c0.6-0.8,1.6-1.7,3-2.5c1.3-0.8,2.2-1.5,2.7-1.9c0.4,0.4,0.7,0.6,0.9,0.6
		c0.2-0.4,1.2-0.6,3.1-0.6c0.4,0.4,1,0.7,1.9,0.9c0.8,0.2,1.5,0.5,1.9,0.8c0.4,0.3,1,1,1.9,2c0.2,0,0.4,0,0.5,0s0.3,0,0.5,0
		c0,0.2,0.3,0.6,0.9,1.1s1,0.9,1.2,1.1s0.4,0.5,0.5,0.9c0.1,0.4,0.2,0.7,0.2,0.9c0.2,0.2,0.5,0.6,0.9,1.1s0.6,0.9,0.6,1.1
		c0,0.2,0,0.5,0,0.9c0.4,0.4,0.8,1.1,1.1,2.2c0.3,1,0.7,1.8,1.1,2.2c0,0.4-0.1,1.3-0.2,2.5s-0.1,2.1,0.2,2.5c0,0.2,0.2,0.5,0.6,0.9
		c0,0.2,0,0.5,0,0.9s0,0.7,0,0.9c0,0.2,0.1,0.5,0.3,0.9c0,0.2-0.1,0.5-0.2,0.8s-0.2,0.6-0.2,0.8c0.2,0.4,0.5,1,0.8,1.9
		c0.3,0.8,0.5,1.5,0.5,1.9c0,0.2,0,0.6,0,1.3c0,0.2,0.1,0.6,0.3,1.2c0.2,0.6,0.4,1.1,0.6,1.6l0.6,2.8C95.9-19.9,96.1-19.8,96.1-19.6
		z M96.1-19.6c-0.4,0.8-0.3,2.8,0.3,5.9c0.6,0.2,0.9,0.4,0.9,0.6c0.2,1.2,0.2,1.9,0,1.9c0,0.2-0.2,0.5-0.6,0.9
		c-0.2,1.2,0.1,2.3,0.9,3.1c0,0.4,0.1,1.4,0.3,3c0.2,1.6,0,2.6-0.6,3c0.2,0.2,0.3,0.5,0.3,0.9s0.1,0.6,0.3,0.6
		c0,0.2,0.2,0.7,0.6,1.4c0.4,0.7,0.6,1.4,0.6,2l-0.3,0.6c0.2,0.2,0.4,0.5,0.6,0.9s0.4,0.7,0.5,0.9c0.1,0.2,0.1,0.7-0.2,1.6
		c-0.2,0.2-0.3,0.5-0.2,0.9c0.1,0.4,0.2,0.7,0.2,0.9c0,0.2,0,0.5,0,0.8s0,0.6,0,0.8c0,0.2,0.1,0.5,0.3,0.8c0.2,0.3,0.4,0.5,0.5,0.6
		s0.1,0.4,0,0.8s-0.2,0.7-0.2,0.8c0,0.1,0.2,0.6,0.6,1.4c0.4,2.7,0.9,4.1,1.6,4.1c0.4,0,0.6-0.2,0.6-0.6c0.2-0.2,0.4-0.3,0.5-0.3
		s0.3-0.1,0.6-0.3c0.3-0.2,0.6-0.4,0.8-0.6c0,0.2,0,0.4,0.2,0.5c0.1,0.1,0.3,0.2,0.5,0.2c1.7-0.4,2.6-0.6,2.8-0.6
		c0.4,0,0.7-0.1,0.9-0.3c0.2-0.2,0.4-0.3,0.6-0.3s0.5,0.1,0.9,0.3c0.8,0.2,1.3,0,1.6-0.6h1.6c1,0.8,1.6,1.4,1.6,1.6
		c0.2,0,0.5,0.1,0.9,0.3c0.6,0.6,1.5,1.5,2.5,2.5s1.9,1.9,2.5,2.5c0.4,0,0.8,0.1,1.2,0.3c0,0.4,0,1.4,0,2.8c0,1.5,0,2.5,0,3.1
		c0.6,0.4,0.7,0.8,0.3,1.2c-0.4,0.4-0.8,0.7-1.2,0.9c0,0.4,0,1,0,1.9c-0.4,0.2-0.9,0.4-1.6,0.6c-0.2,0-0.3,0.2-0.3,0.6s0,0.7,0,0.9
		c-0.4-0.2-0.7-0.3-0.9-0.3c-0.6,0.4-0.9,0.9-0.9,1.6c-0.6,0.6-1,0.8-1.2,0.6c-0.2,0.2-0.5,0.6-0.9,1.1s-0.8,0.9-1.3,1.1
		c-0.2-0.2-0.5-0.1-0.9,0.3s-0.6,0.7-0.6,0.9c-0.4,0-1.1,0-1.9,0c-0.8-0.2-1.4,0-1.6,0.6c-0.4,0-1,0.1-1.9,0.2
		c-0.8,0.1-1.5,0.2-1.9,0.2c-0.4,0.2-0.6,0.7-0.6,1.4c0,0.7,0.2,1.3,0.6,1.7c0,0.2-0.1,0.4-0.3,0.5c-0.2,0.1-0.3,0.3-0.3,0.5
		c0,0.6,0,1.5,0,2.6c0,1.2,0.1,1.9,0.3,2.4c0,0.4,0.2,1,0.6,1.9c0.4,0.8,0.6,1.5,0.6,1.9c0,0.2-0.1,0.5-0.3,0.8
		c-0.2,0.3-0.3,0.6-0.2,0.8c0.1,0.2,0.2,0.4,0.2,0.6c0.2,0.2,0.4,0.3,0.6,0.3c0,0.2,0.1,0.3,0.3,0.2c0.2-0.1,0.3-0.1,0.3,0.2
		c0.2,0.4,0,0.6-0.6,0.6c-0.4,0.2-0.6,0.6-0.6,1.1s0,0.9,0,1.1s0.1,0.4,0.3,0.6c0.2,0.2,0.4,0.4,0.6,0.6c0,0.2-0.2,0.4-0.5,0.5
		s-0.5,0.3-0.5,0.5c0.2,0.2,0.6,0.5,1.1,0.9s0.8,0.8,0.8,1.2c0,0.2-0.2,0.5-0.5,0.9s-0.5,0.7-0.5,0.9c-0.2,0-0.2,0.3,0,0.9
		c0,0.4-0.1,1.2-0.2,2.4c-0.1,1.1-0.1,2.1,0,2.8s0.4,1.3,0.8,1.7c0,0.2,0.1,0.7,0.3,1.6c0,0.6-0.1,2.1-0.2,4.4
		c-0.1,2.3-0.1,3.7,0.2,4.1c0,0.2,0.3,0.6,0.9,1.3c0.2,0.6,0.3,1.7,0.2,3.1c-0.1,1.5-0.2,2.5-0.2,3.1c0,1,0,1.7,0,1.9
		c0,1.2,0,2.1,0,2.5c0.2,0,0.5,0.2,0.8,0.6c0.3,0.4,0.4,0.8,0.2,1.3c-0.6,0.2-0.9,0.8-0.9,1.7s0.3,1.5,0.9,1.7
		c-0.2,0.6-0.3,1.4-0.3,2.2c-0.6,0.6-0.6,1.8,0,3.4c0.6,1.7,0.4,2.7-0.6,3.1v1.9c-1.5,0.4-2.6,0.9-3.4,1.6c0.4,0.4,0.5,0.6,0.3,0.6
		c-0.2,0.2-0.4,0.2-0.6-0.2c-0.2-0.3-0.4-0.5-0.6-0.5c-0.2,0.2-0.4,0.5-0.6,0.8s-0.4,0.5-0.6,0.5s-0.5,0-0.8,0s-0.6,0-0.8,0
		c-1.7,1.2-2.7,1.6-3.1,0.9c-0.4,0.2-0.7,0.3-0.9,0.3c-0.2,0-0.4-0.1-0.6-0.3s-0.4-0.3-0.5-0.3s-0.3,0.1-0.5,0.3s-0.4,0.3-0.6,0.3
		c-0.4-1.5-0.7-2.3-0.9-2.5c-0.6,0-2.2-0.8-4.7-2.5c-0.2,0-0.4,0-0.6,0s-0.4,0-0.6,0c0-0.6-0.3-1.3-0.9-2.2c0-0.2-0.1-0.3-0.3-0.2
		c-0.2,0.1-0.4,0.2-0.6,0.2c0-0.2,0.2-0.6,0.6-1.2c0.2-1-0.1-1.8-0.9-2.2c0-0.2,0.1-0.4,0.3-0.6c0.2-0.2,0.3-0.4,0.3-0.6
		c0-0.2-0.1-0.6-0.3-1.1c-0.2-0.5-0.4-1-0.6-1.4c0-0.6,0.1-1.4,0.3-2.2c0.2-1.3,0.5-2.2,0.9-2.8c0-0.2-0.2-0.5-0.6-0.9
		c0-0.2,0.1-0.4,0.3-0.6c0.2-0.2,0.3-0.4,0.3-0.6c0-0.2-0.2-0.5-0.5-0.9S87,93.9,87,93.7c0.2-0.4,0.3-0.7,0.3-0.9s0-0.4,0-0.6
		c0-0.2,0.1-0.4,0.3-0.6c0.2-0.2,0.3-0.4,0.3-0.6c0-0.2-0.3-0.5-0.9-0.9c0.6-0.8,0.9-1.6,0.9-2.2c-0.2,0-0.4-0.2-0.6-0.6
		c-0.2-0.4-0.3-0.8-0.3-1.1s0-0.8,0-1.6c0-0.7,0-1.2,0-1.4c0-0.6,0-1.3,0-2.2c0-1.5-0.3-2.4-0.9-2.8c0-2.7-0.1-5.2-0.3-7.5
		c0-0.2,0-0.6,0-1.2s0-1,0-1.2s-0.2-0.5-0.6-0.8s-0.5-0.7-0.3-1.1c0.6-0.2,0.9-0.4,0.9-0.6c-0.4-1.2-0.6-2-0.6-2.2
		c0.4-0.4,0.6-0.7,0.6-0.9c0-0.2-0.2-0.7-0.5-1.4c-0.3-0.7-0.3-1.2,0.2-1.4c-0.2-0.4-0.3-1-0.3-1.7s0-1.4,0-2c0-0.4-0.1-0.8-0.3-1.2
		s-0.3-0.7-0.3-0.8c0-0.1,0-0.3,0.2-0.6c0.1-0.3,0.3-0.5,0.5-0.5c0-1.3-0.4-2.1-1.3-2.5c0-0.2,0.1-0.5,0.2-0.8s0.1-0.5-0.2-0.5
		c-0.2-0.4-0.5-0.5-0.8-0.3s-0.5,0.5-0.5,0.9c-0.6,0.2-1.4,0.2-2.2,0c-1.2-0.2-2.1,0-2.5,0.6c-0.2,0-0.8,0-1.9,0
		c-0.2,0-0.7,0.5-1.6,1.6c-0.2,0-0.3-0.2-0.2-0.5c0.1-0.3,0.1-0.5-0.2-0.5c0-0.4-0.4-0.3-1.3,0.3c-0.4,0.2-0.9,0.3-1.4,0.2
		c-0.5-0.1-0.9-0.2-1.1-0.2c-0.2,0.2-0.4,0.4-0.6,0.6s-0.4,0.3-0.6,0.3c-2.7,0.2-4.2,0.6-4.4,1.3c-3.8,0-5.8,0.4-6.2,1.2
		c-0.2,0-0.8-0.1-1.9-0.3H56c-0.6,0-1.5,0.2-2.5,0.5c-1.1,0.3-1.8,0.5-2.2,0.5c-0.4,0.2-0.9,0.2-1.6,0c-1.5-0.2-2.3-0.1-2.5,0.3
		c-0.2,0-0.4,0.2-0.5,0.6S46.4,57,46.2,57c-0.2-0.2-0.6-0.3-1.2-0.2c-0.6,0.1-1,0.2-1.2,0.2s-0.4-0.1-0.6-0.3
		c-0.2-0.2-0.4-0.3-0.6-0.3c-0.2,0-0.5,0.2-0.9,0.6h-8.1c0-0.2-0.6-0.4-1.9-0.6c-0.2-0.2-0.4-0.3-0.6-0.3c-0.8-0.4-1.5-0.6-1.9-0.6
		c-0.6,0.2-0.9,1-0.9,2.5L28,58.9c0,0.2,0.1,0.5,0.3,0.9c0.2,0.4,0.3,0.7,0.3,0.9c0,0.4,0,1,0,1.9c-0.2,1.7-0.1,2.7,0.3,3.1
		c-0.2,1-0.1,1.9,0.3,2.5c0.4-0.2,0.7-0.3,0.9-0.3c0,0.2-0.1,0.4-0.3,0.6c-0.2,0.2-0.3,0.4-0.3,0.6c0.2,1.1,0,1.9-0.6,2.5
		c0,0.2,0.4,0.5,1.2,0.9v0.9c0,0.2-0.2,0.4-0.6,0.6c-0.2,3.1-0.2,4.8,0,5c0,0.4,0,1,0,1.9c0,1.3,0.3,2.1,0.9,2.5c0,0.2,0,0.5,0,0.8
		s0,0.5,0,0.6s-0.2,0.3-0.5,0.5s-0.5,0.4-0.5,0.6c0,0.2,0.2,0.6,0.5,1.1s0.4,1,0.2,1.4c0,0.2-0.2,0.6-0.6,1.2c0,0.2,0.3,0.6,0.9,1.3
		c0,0.2-0.1,0.4-0.3,0.5c-0.2,0.1-0.3,0.3-0.3,0.5c0.4,0.2,0.5,1.2,0.3,3.1c0,0.4,0.1,1,0.2,1.9c0.1,0.8,0.2,1.3,0.2,1.6
		c0,3.8,0.2,5.8,0.6,6.2l0.3,2.5c0,1.2,0,2.6,0,4.1s0.2,2.5,0.6,3.1c0,0.2-0.1,0.5-0.3,0.9c-0.2,1.9-1.6,4.1-4.1,6.6
		c-0.4-0.2-1.1,0.2-2.2,1.2c-0.8,0.6-1.4,0.9-1.6,0.9c-0.6-0.4-1-0.6-1.2-0.6c-0.4,0-0.9,0.5-1.6,1.6c-0.2,0-0.3-0.1-0.3-0.3
		s-0.1-0.4-0.3-0.6c-0.2-0.6-1.1-0.8-2.5-0.6c-0.6-0.4-1-0.9-1.2-1.6c-2.1,0.2-3.1-0.4-3.1-1.9c-0.8,0.4-1.8,0.5-2.8,0.3v-0.9
		c-0.2-0.2-0.5-0.6-0.9-1.2c-0.4-0.6-0.6-1-0.6-1.2c-0.6,0.2-0.9,0.2-0.9,0c-0.2-0.6,0-1.1,0.6-1.6c-0.2-0.2-0.3-1.3-0.2-3.3
		s0.2-3.2,0.2-3.6c0-0.4-0.1-2-0.3-4.7c-0.2-0.8-0.3-1.3-0.3-1.6c-0.2,0-0.4,0.1-0.6,0.2c-0.2,0.1-0.3,0.1-0.3-0.2
		c-0.2,0-0.3-0.8-0.3-2.5c0.2-0.2,0.4-0.4,0.6-0.5s0.3-0.3,0.3-0.5c-0.2-0.6-0.3-1.8-0.2-3.6S8,92,7.7,91.2c0-0.2-0.1-0.4-0.2-0.6
		c-0.1-0.2-0.2-0.4-0.2-0.6c0-0.2,0.1-0.5,0.3-0.9c0.2-0.4,0.3-0.7,0.3-0.9c0-0.6-0.1-1.1-0.3-1.6c0-0.2-0.1-0.5-0.3-0.8
		C7.1,85.5,7,85.2,7,85c0.2-0.4,0.3-0.7,0.3-0.9s-0.1-0.4-0.2-0.6C7,83.1,7,82.9,7,82.8c0-0.1,0.1-0.3,0.2-0.6s0.1-0.5,0-0.6
		S6.9,81,6.8,80c-0.1-0.9-0.2-1.7-0.2-2.3c0.2-1.3,0.3-2.1,0.3-2.5c-0.2,0-0.3-0.3-0.3-0.9c0-1.2-0.1-2-0.3-2.2
		c0.2-0.2,0.3-0.5,0.2-0.9c-0.1-0.4-0.4-0.7-0.8-0.9c-0.4-1-0.2-1.7,0.6-1.9c0-0.2-0.1-0.4-0.3-0.5c-0.2-0.1-0.4-0.3-0.6-0.5
		C6,66.8,6.2,66,6,65.2c-0.2-0.6-0.3-2.2-0.2-4.8C5.9,57.8,6,56.1,6,55.2c0-2.7-0.2-4.5-0.6-5.3c0.4-0.6,0.6-1.3,0.5-2.2
		c-0.1-0.8-0.5-1.2-1.1-1.2c-0.2-0.2-0.3-0.5-0.3-0.9v-0.3C4.7,45.1,4.9,45,5,45.1c0.1,0.1,0.3,0.1,0.5-0.2c0.2-0.2,0.1-0.5-0.3-0.9
		c0-0.2,0-0.4,0-0.6c-0.2-0.8-0.2-2.7,0-5.6S5,33.2,4.2,33H3.5c-0.2-0.2,0-0.7,0.6-1.6c-0.4-0.8-0.5-1.8-0.3-2.8s0.2-2,0-3
		c-0.2-0.9-0.7-1.4-1.6-1.4c0.2-2.1,0.5-3.2,0.9-3.4C3,20.4,3,19.4,3.1,18c0.1-1.5,0-2.5-0.2-3.1c-0.2-0.2-0.4-0.5-0.6-0.8
		C2.1,13.7,2,13.5,2,13.3s0.1-0.7,0.3-1.6C2.1,11.5,2,10.5,2,8.6C2,8.4,1.9,8,1.8,7.4s-0.2-1-0.2-1.2s0-0.5,0-0.9
		c0-0.2-0.2-0.4-0.5-0.6S0.7,4.3,0.8,4.1C1,3.7,1.3,3.4,1.7,3c0-0.2-0.1-0.5-0.3-0.8S1.1,1.6,1.1,1.4C0.8,1,0.8,0.5,0.9,0
		s0.2-0.9,0.2-1.1c0-0.2-0.1-0.6-0.2-1.2C0.8-2.9,0.7-3.4,0.7-3.9c0-0.2,0-0.7,0-1.4s0-1.2,0-1.4c0-1.2-0.1-2-0.3-2.2
		c0.6-0.8,0.7-1.6,0.3-2.2c0-0.2-0.2-0.3-0.5-0.3s-0.5-0.1-0.5-0.3c-0.2-0.4,0.1-1,0.9-1.9C0.2-14,0-14.6,0-15.5
		c0-0.4-0.1-1.1-0.2-2.2c-0.1-1-0.2-1.8-0.2-2.2c0.2-0.8,0.3-1.3,0.3-1.4c0-0.1-0.1-0.3-0.2-0.6s-0.2-0.5-0.2-0.6s0.2-0.5,0.6-1.1
		s0.6-1.2,0.6-1.9c0.2-0.2,0.6-0.6,1.2-1.3C2.9-28,4-28.8,5-29c0.2-0.2,0.4-0.5,0.6-0.9c0-0.2,0-0.4,0-0.6c0.4,0,0.8,0.1,1.1,0.3
		C7-30,7.4-29.9,7.8-29.9c0.2,0,0.4-0.2,0.5-0.5c0.1-0.3,0.3-0.5,0.5-0.5s0.5,0.1,0.8,0.3s0.5,0.4,0.5,0.6c0.4-0.2,0.8-0.3,1.2-0.2
		s0.8,0.2,1.3,0.2c1.5,0.8,2.2,1.4,2.2,1.6c2.7,1.1,4.8,2.6,6.2,4.7c0.2,0.4,0.3,0.7,0.3,0.9c0.4,0.4,0.9,1,1.6,1.9
		c0,0.2-0.1,0.4-0.2,0.6c-0.1,0.2-0.2,0.4-0.2,0.6c0.4,0.6,0.6,1.3,0.6,1.9c0,0.2,0.1,0.5,0.2,0.8s0.2,0.5,0.2,0.6s-0.1,0.5-0.3,1.1
		c0,0.4,0,1,0,1.7s0,1.3,0,1.7c0,1,0.2,1.7,0.6,1.9c-1,0.6-0.9,1.3,0.3,1.9c0,0.2-0.3,0.5-0.9,0.9c0.2,2.9,0.4,4.5,0.6,4.7
		c0,1,0.1,1.9,0.3,2.5c-0.2,0-0.2,0.8,0,2.5s0.3,2.7,0.3,3.1c-0.2,0.6-0.3,1-0.3,1.1s0,0.4,0,0.8c0.2,0.4,0.3,0.9,0.3,1.6
		c-0.2,1.5,0,2.3,0.6,2.5c-0.4,0.4-0.7,0.7-0.9,0.9c0,0.4,0.2,1.2,0.5,2.3c0.3,1.1,0.5,1.9,0.5,2.3c0.2,1.1,0.4,1.8,0.6,2.2
		c-0.2,0.2-0.3,1.2-0.3,2.8c0,0.6,0,1,0,1.1s0.1,0.3,0.3,0.6c0.2,0.3,0.3,0.6,0.3,0.8c0,0.2,0,0.5,0,0.8s0,0.5,0,0.6
		s0.1,0.3,0.3,0.5c0.2,0.2,0.3,0.4,0.3,0.6s-0.1,0.4-0.3,0.5s-0.4,0.3-0.6,0.5c0.4,0.4,0.6,1,0.5,1.9c-0.1,0.8-0.2,1.5-0.2,1.9
		c0.2,0.6,0.7,1.1,1.6,1.4c0.8,0.3,1.7,0.4,2.7,0.3c0.9-0.1,1.8-0.2,2.7-0.2c2.1,0.4,3.2,0.4,3.4,0l1.6,0.3c0.2,0,0.5,0.1,0.8,0.3
		c0.3,0.2,0.6,0.3,0.8,0.3c0.6,0.2,1.5-0.1,2.5-0.9c0.4,0,0.9,0.1,1.6,0.2c0.6,0.1,1,0.2,1.2,0.2s0.3-0.1,0.3-0.3
		c2.3,0.6,3.8,0.3,4.4-0.9c0.4,0,0.7,0.1,0.9,0.3c0.2,0.2,0.4,0.4,0.6,0.6c1.7-1,2.6-1.7,2.8-1.9c0.4,0,1,0,1.9,0c0.4,0,0.9,0,1.6,0
		s1,0,1.2,0s0.5-0.1,0.8-0.3c0.3-0.2,0.6-0.3,0.8-0.3s0.5,0.1,0.8,0.2s0.5,0.2,0.6,0.2s0.4-0.1,0.9-0.3c0.5-0.2,0.9-0.3,1.1-0.3
		l4.7-0.9c0.2,0,0.5-0.2,0.8-0.5s0.6-0.5,0.8-0.5c0.2,0,0.4,0.1,0.6,0.3c0.2,0.2,0.4,0.3,0.6,0.3c0.4,0,0.9-0.3,1.6-0.9
		c0.2,0,0.4-0.2,0.6-0.6c0.6-0.8,1.4-0.9,2.2-0.3c0.4-0.4,1.3-0.7,2.5-0.8c1.2-0.1,2.1-0.3,2.5-0.5c0-0.2,0.1-0.6,0.2-1.1
		s0.1-0.8,0-0.9s-0.3-0.3-0.5-0.5s-0.3-0.4-0.3-0.6c0.2-0.4,0.3-0.7,0.3-0.9l-0.3-0.6c-0.4-0.6-0.4-1.1,0-1.6c0-1-0.3-1.8-0.9-2.2
		c0-0.6,0-1.6,0-3c0-1.3-0.1-2.3-0.3-3c-0.4-0.6-0.6-1-0.6-1.3c0-0.4,0-1.1,0-2.2c0-1-0.1-1.7-0.3-1.9c0-0.6-0.1-1-0.2-1.1
		S77.3,5.3,77,5.2C76.7,5.1,76.4,5,76.2,5c0-0.4,0.3-0.8,0.9-1.2c0-1-0.1-2.1-0.3-3.1c-0.2-1-0.7-1.5-1.6-1.2c0-0.4,0.3-0.9,0.9-1.6
		c-0.2-0.4-0.3-1-0.2-1.9C76-4.8,76-5.5,75.7-5.9c0-0.2-0.3-0.6-0.9-1.3c0-0.4,0-0.9,0-1.6c0-0.6-0.1-1-0.3-1.3
		c0-0.2-0.1-0.4-0.3-0.5c-0.2-0.1-0.4-0.3-0.6-0.5c0.2-2.7,0.1-4.4-0.3-5c0-0.4-0.1-1.1-0.3-2c-0.2-0.9-0.3-1.5-0.3-1.7
		s0.1-0.5,0.2-0.9s0.2-0.7,0.2-0.9s-0.3-0.5-0.9-0.9c0.2-0.6,0.1-1.3-0.3-2.2c-0.4-0.8-0.6-1.3-0.6-1.6c0-0.4,0-1.1,0-2s0-1.6,0-2
		c-0.2-0.2-0.5-0.5-0.9-0.9c-0.2-0.2-0.3-0.6-0.2-1.2s0.2-1,0.2-1.2c-0.2-0.2-0.4-0.5-0.6-0.8s-0.4-0.6-0.6-0.8c0-0.2,0.1-0.9,0.2-2
		s0.1-1.9-0.2-2.3c-0.4,0-0.6-0.1-0.6-0.3c-0.2-0.2-0.3-0.9-0.3-2.2c0-1.2-0.3-1.9-0.9-1.9c0.6-2.1,0.5-3.8-0.3-5c0.2,0,0.4,0,0.6,0
		S68-49,68-49.2c0.8-1.3,1.2-2.1,1.2-2.5c0.6-0.8,1.6-1.7,3-2.5c1.3-0.8,2.2-1.5,2.7-1.9c0.4,0.4,0.7,0.6,0.9,0.6
		c0.2-0.4,1.2-0.6,3.1-0.6c0.4,0.4,1,0.7,1.9,0.9c0.8,0.2,1.5,0.5,1.9,0.8c0.4,0.3,1,1,1.9,2c0.2,0,0.4,0,0.5,0s0.3,0,0.5,0
		c0,0.2,0.3,0.6,0.9,1.1s1,0.9,1.2,1.1s0.4,0.5,0.5,0.9c0.1,0.4,0.2,0.7,0.2,0.9c0.2,0.2,0.5,0.6,0.9,1.1s0.6,0.9,0.6,1.1
		c0,0.2,0,0.5,0,0.9c0.4,0.4,0.8,1.1,1.1,2.2c0.3,1,0.7,1.8,1.1,2.2c0,0.4-0.1,1.3-0.2,2.5s-0.1,2.1,0.2,2.5c0,0.2,0.2,0.5,0.6,0.9
		c0,0.2,0,0.5,0,0.9s0,0.7,0,0.9c0,0.2,0.1,0.5,0.3,0.9c0,0.2-0.1,0.5-0.2,0.8s-0.2,0.6-0.2,0.8c0.2,0.4,0.5,1,0.8,1.9
		c0.3,0.8,0.5,1.5,0.5,1.9c0,0.2,0,0.6,0,1.3c0,0.2,0.1,0.6,0.3,1.2c0.2,0.6,0.4,1.1,0.6,1.6l0.6,2.8C95.9-19.9,96.1-19.8,96.1-19.6
		z"/>
	<path fill="#C35B28" d="M169.6,59.2c0.8,0.6,1.5,0.9,1.9,0.9l0.9-0.6c1.5,0,3.4,0,5.9,0s4.5,0,5.9,0c1,0.6,1.7,0.8,1.9,0.6
		c0.2,0.2,0.3,0.7,0.3,1.6c0.2,0.4,0.6,0.8,1.1,1.1s0.9,0.7,1.1,1.1c0.2,0.6,0.4,0.9,0.6,0.9c0.4-0.4,0.7-0.5,0.9-0.3l0.3,2.2
		c0.2,0.2,0.6,0.5,1.3,0.9c0.2,1.9,0.6,2.7,1.2,2.5c0.2,0,0.4-0.1,0.5-0.3s0.3-0.4,0.5-0.6c0.2,0,0.6,0.3,1.2,0.9c0.2,0,0.6,0,1.2,0
		c1.3,0.2,2.1,0.1,2.5-0.3c0,0.8,0.3,1.2,0.9,1.2c0.2,0.2,0.4,0.2,0.6,0c0.2-0.2,0.4-0.3,0.6-0.3v0.9c1.9,0.8,3.1,1.7,3.8,2.5
		c0-0.2,0.3-0.2,0.9,0c2.7,2.7,4.3,4.4,4.7,5c0.2,0.2,0.7,0.5,1.6,0.9c0,0.2,0.3,0.7,0.8,1.4s1.1,1.2,1.7,1.4c1,1.5,1.6,2.5,1.6,3.1
		c0.2,0.2,0.4,0.5,0.6,0.9c0,0.4,0.1,0.7,0.2,0.9c0.1,0.2,0.3,0.4,0.5,0.6c0.2,0.2,0.4,0.4,0.6,0.6c0,0.2-0.1,0.7-0.3,1.6
		c0,0.4,0.1,1.1,0.3,2.2c0.2,1,0.3,1.8,0.3,2.2c0,0.2-0.1,0.8-0.3,1.7s-0.2,1.6,0,2c-0.4,0.4-0.8,1.2-1.2,2.5s-0.9,2.1-1.6,2.5
		c-0.2,0.6-0.7,1.4-1.4,2.3c-0.7,0.9-1.2,1.6-1.4,2h-0.6c-1,0.8-2.6,2.1-4.7,3.8c-2.1,1.7-3.7,2.9-4.7,3.8c0.2,0.6,0.2,0.9,0,0.9
		s-0.6-0.2-1.2-0.6c-1.5,0.8-2.5,0.9-3.1,0.3c-1.7,1.2-2.6,2.2-2.8,2.8c-1-0.4-2.3-0.2-3.8,0.6c-0.6,0.4-1,0.7-1.2,0.9
		c-0.2,0-0.4,0-0.6,0c-0.2,0-0.3,0.1-0.3,0.3c-0.2,0-0.5,0.2-0.8,0.5s-0.5,0.5-0.6,0.5s-0.4,0-0.9-0.2c-0.5-0.1-0.9-0.1-1.1,0.2
		c-0.4,0.4-0.7,0.6-0.9,0.6c-0.2,0.2-0.8,0.4-1.7,0.6c-0.9,0.2-1.6,0.5-2,0.9c-1.5-0.2-2.5-0.2-3.1,0c-0.6,0.6-1,0.9-1.2,0.9
		c-0.2-0.4-0.6-0.6-1.2-0.6c-0.6,0-1.1,0.2-1.3,0.6c-3.1-0.6-4.9-0.6-5.3,0c-1.3-0.4-2-0.4-2.2,0c-0.4-0.2-1.2-0.3-2.2-0.2
		c-1.1,0.1-1.6-0.2-1.6-0.8c-0.2,0-0.7,0-1.4,0s-1.2-0.1-1.4-0.3c-0.8,0.4-1.7,0.3-2.5-0.3c-0.4-0.2-0.7-0.4-0.9-0.5
		s-0.5-0.2-0.8-0.2s-0.6,0-0.8,0c-1-0.8-1.8-1.1-2.2-0.9c-0.4-0.2-0.7-0.5-0.9-0.9h-0.6c-1-1-2.1-1.7-3.1-1.9
		c-0.8-0.8-1.7-1.3-2.5-1.6c-0.4-1-1.2-2.2-2.5-3.4c-1.2-1.2-2-2.1-2.2-2.5c0-0.4-0.3-1-0.9-1.9c0-0.2,0-0.4,0.2-0.5
		c0.1-0.1,0.2-0.3,0.2-0.5c-0.2-0.2-0.5-0.4-0.9-0.5s-0.7-0.3-0.8-0.5s0.1-0.5,0.5-0.9c0-0.4-0.2-0.9-0.6-1.6
		c-0.4-0.6-0.6-1-0.6-1.2c-0.4-1.3-0.7-2-0.9-2.2c0-0.8-0.1-1.5-0.3-1.9c0-0.2,0.1-0.4,0.3-0.5s0.2-0.3,0-0.5c0-0.2-0.2-0.4-0.6-0.6
		c-0.2,0-0.3-0.1-0.3-0.3c-0.2-0.6,0-1.4,0.6-2.2c0.2-0.4,0.3-1.1,0.2-2.2c-0.1-1-0.2-1.8-0.2-2.2c0-0.2,0.2-0.5,0.5-0.9
		s0.5-0.7,0.6-0.8s0.1-0.3,0-0.6s-0.1-0.6,0.2-0.8c0-0.4,0.4-1.1,1.2-2.2l1.6-2.2c1-1.3,1.7-2,1.9-2.2c0-0.2,0-0.5,0-0.8
		s0.1-0.6,0.2-0.8c0.1-0.2,0.5-0.4,1.1-0.6c1-1,1.8-1.9,2.2-2.5c0.2,0,0.4-0.1,0.5-0.3s0.2-0.4,0.2-0.6c0.2-0.2,0.7-0.7,1.6-1.4
		c0.8-0.7,1.3-1.3,1.6-1.7c0.2,0,0.4-0.1,0.5-0.2c0.1-0.1,0.3-0.2,0.5-0.2c0.2-0.2,0.5-0.5,0.8-0.9s0.5-0.7,0.6-0.9s0.4-0.4,0.9-0.5
		s0.9-0.3,1.1-0.5c0.2-0.2,0.5-0.5,0.9-0.9s0.7-0.7,0.9-0.9c0.4,0,0.7,0,0.9,0l3.8-3.8c0.2,0,0.8-0.4,1.9-1.2h0.6
		c1.7-1.2,3.2-2,4.7-2.2C168.4,60.1,168.9,59.4,169.6,59.2z M168,61.1c0.4-1,0.9-1.7,1.6-1.9c0.8,0.6,1.5,0.9,1.9,0.9l0.9-0.6
		c1.5,0,3.4,0,5.9,0s4.5,0,5.9,0c1,0.6,1.7,0.8,1.9,0.6c0.2,0.2,0.3,0.7,0.3,1.6c0.2,0.4,0.6,0.8,1.1,1.1s0.9,0.7,1.1,1.1
		c0.2,0.6,0.4,0.9,0.6,0.9c0.4-0.4,0.7-0.5,0.9-0.3l0.3,2.2c0.2,0.2,0.6,0.5,1.3,0.9c0.2,1.9,0.6,2.7,1.2,2.5c0.2,0,0.4-0.1,0.5-0.3
		s0.3-0.4,0.5-0.6c0.2,0,0.4,0.2,0.6,0.5c0.2,0.3,0.4,0.5,0.6,0.5c0.2,0,0.6,0,1.2,0c1.3,0.2,2.1,0.1,2.5-0.3c0,0.8,0.3,1.2,0.9,1.2
		c0.2,0.2,0.4,0.2,0.6,0c0.2-0.2,0.4-0.3,0.6-0.3v0.9c1.9,0.8,3.1,1.7,3.8,2.5c0-0.2,0.3-0.2,0.9,0c2.7,2.7,4.3,4.4,4.7,5
		c0.2,0.2,0.7,0.5,1.6,0.9c0,0.2,0.3,0.7,0.8,1.4s1.1,1.2,1.7,1.4c1,1.5,1.6,2.5,1.6,3.1c0.2,0.2,0.4,0.5,0.6,0.9
		c0,0.4,0.1,0.7,0.2,0.9c0.1,0.2,0.3,0.4,0.5,0.6c0.2,0.2,0.4,0.4,0.6,0.6c0,0.2-0.1,0.7-0.3,1.6c0,0.4,0.1,1.1,0.3,2.2
		c0.2,1,0.3,1.8,0.3,2.2c0,0.2-0.1,0.8-0.3,1.7s-0.2,1.6,0,2c-0.4,0.4-0.8,1.2-1.2,2.5s-0.9,2.1-1.6,2.5c-0.2,0.6-0.7,1.4-1.4,2.3
		c-0.7,0.9-1.2,1.6-1.4,2h-0.6c-1,0.8-2.6,2.1-4.7,3.8c-2.1,1.7-3.7,2.9-4.7,3.8c0.2,0.6,0.2,0.9,0,0.9s-0.6-0.2-1.2-0.6
		c-1.5,0.8-2.5,0.9-3.1,0.3c-1.7,1.2-2.6,2.2-2.8,2.8c-1-0.4-2.3-0.2-3.8,0.6c-0.6,0.4-1,0.7-1.2,0.9c-0.2,0-0.4,0-0.6,0
		c-0.2,0-0.3,0.1-0.3,0.3c-0.2,0-0.5,0.2-0.8,0.5s-0.5,0.5-0.6,0.5s-0.4,0-0.9-0.2c-0.5-0.1-0.9-0.1-1.1,0.2
		c-0.4,0.4-0.7,0.6-0.9,0.6c-0.2,0.2-0.8,0.4-1.7,0.6c-0.9,0.2-1.6,0.5-2,0.9c-1.5-0.2-2.5-0.2-3.1,0c-0.6,0.6-1,0.9-1.2,0.9
		c-0.2-0.4-0.6-0.6-1.2-0.6c-0.6,0-1.1,0.2-1.3,0.6c-3.1-0.6-4.9-0.6-5.3,0c-1.3-0.4-2-0.4-2.2,0c-0.4-0.2-1.2-0.3-2.2-0.2
		c-1.1,0.1-1.6-0.2-1.6-0.8c-0.2,0-0.7,0-1.4,0s-1.2-0.1-1.4-0.3c-0.8,0.4-1.7,0.3-2.5-0.3c-0.4-0.2-0.7-0.4-0.9-0.5
		s-0.5-0.2-0.8-0.2s-0.6,0-0.8,0c-1-0.8-1.8-1.1-2.2-0.9c-0.4-0.2-0.7-0.5-0.9-0.9h-0.6c-1-1-2.1-1.7-3.1-1.9
		c-0.8-0.8-1.7-1.3-2.5-1.6c-0.4-1-1.2-2.2-2.5-3.4c-1.2-1.2-2-2.1-2.2-2.5c0-0.4-0.3-1-0.9-1.9c0-0.2,0-0.4,0.2-0.5
		c0.1-0.1,0.2-0.3,0.2-0.5c-0.2-0.2-0.5-0.4-0.9-0.5s-0.7-0.3-0.8-0.5s0.1-0.5,0.5-0.9c0-0.4-0.2-0.9-0.6-1.6
		c-0.4-0.6-0.6-1-0.6-1.2c-0.4-1.3-0.7-2-0.9-2.2c0-0.8-0.1-1.5-0.3-1.9c0-0.2,0.1-0.4,0.3-0.5s0.2-0.3,0-0.5c0-0.2-0.2-0.4-0.6-0.6
		c-0.2,0-0.3-0.1-0.3-0.3c-0.2-0.6,0-1.4,0.6-2.2c0.2-0.4,0.3-1.1,0.2-2.2c-0.1-1-0.2-1.8-0.2-2.2c0-0.2,0.2-0.5,0.5-0.9
		s0.5-0.7,0.6-0.8s0.1-0.3,0-0.6s-0.1-0.6,0.2-0.8c0-0.4,0.4-1.1,1.2-2.2l1.6-2.2c1-1.3,1.7-2,1.9-2.2c0-0.2,0-0.5,0-0.8
		s0.1-0.6,0.2-0.8c0.1-0.2,0.5-0.4,1.1-0.6c1-1,1.8-1.9,2.2-2.5c0.2,0,0.4-0.1,0.5-0.3s0.2-0.4,0.2-0.6c0.2-0.2,0.7-0.7,1.6-1.4
		c0.8-0.7,1.3-1.3,1.6-1.7c0.2,0,0.4-0.1,0.5-0.2c0.1-0.1,0.3-0.2,0.5-0.2c0.2-0.2,0.5-0.5,0.8-0.9s0.5-0.7,0.6-0.9s0.4-0.4,0.9-0.5
		s0.9-0.3,1.1-0.5c0.2-0.2,0.5-0.5,0.9-0.9s0.7-0.7,0.9-0.9c0.4,0,0.7,0,0.9,0c0.4-0.4,1-1,1.9-1.9c0.8-0.8,1.5-1.5,1.9-1.9
		c0.2,0,0.8-0.4,1.9-1.2h0.6C165,62,166.5,61.3,168,61.1z M177.4,82.4c-0.6-0.4-1.2-0.4-1.9,0.2c-0.6,0.5-1.3,0.7-1.9,0.5
		c-1,0.8-1.7,1.3-1.9,1.3c-0.8,0.6-1.5,1-1.9,1.2l-0.3,0.3c-0.2,0-0.6,0.2-1.1,0.5s-0.9,0.6-1.1,0.8c-0.2,0.2-0.3,0.4-0.3,0.6
		c0,0.2-0.1,0.4-0.2,0.5c-0.1,0.1-0.3,0.2-0.6,0.3s-0.5,0.2-0.6,0.3s-0.4,0.5-0.8,1.1c-0.2,0.2-0.5,0.5-0.8,0.8s-0.6,0.6-0.8,0.8
		c-1.9,1.7-3.1,2.9-3.8,3.8v0.9c-0.2,0.4-0.5,0.7-0.9,0.9c0,0.6-0.2,1.3-0.6,2c-0.4,0.7-0.6,1.4-0.6,2c0.8,1,1.3,1.8,1.3,2.2
		c0.2,0.2,0.6,0.6,1.1,1.1s1,0.9,1.4,1.1c0.4-0.2,1.9-0.2,4.5,0s3.9-0.1,3.9-0.9c0.2,0,0.4,0.1,0.6,0.3c0.2,0.2,0.4,0.3,0.6,0.3
		c0-0.2,0.1-0.4,0.3-0.5s0.4-0.2,0.6-0.2c0.2,0.2,0.4,0.3,0.6,0.3c0.4-0.2,1.8-0.3,4.1-0.3c0.2-0.6,0.8-0.9,1.9-0.9
		c0.6,0,1-0.1,1.2-0.3c0.2,0,0.4-0.1,0.6-0.3c0.8-0.6,1.6-0.8,2.2-0.6c0-0.2,0.8-0.5,2.5-0.9l0.9-0.6c2.1-1.2,3.2-2,3.4-2.2
		c0.4,0,0.7,0,0.9,0c2.1-1.9,3.4-2.9,4.1-3.1c0-0.2,0.2-0.5,0.5-0.8s0.5-0.7,0.5-1.1c0-0.4-0.5-0.7-1.6-0.9c-1-0.2-1.7-0.3-1.9-0.3
		c0,0.2-0.9,0.2-2.8,0c-0.2,0-0.5,0-0.8,0s-0.6,0-0.8,0s-0.6-0.1-1.1-0.3s-1-0.2-1.4,0c-0.2-0.4-0.7-0.8-1.4-1.2s-1.2-0.8-1.4-1.3
		c-0.2-0.2-0.3-0.5-0.3-0.9s-0.1-0.7-0.3-0.9c-0.8,0.2-1.3,0.2-1.3,0c-0.2,0-0.3-0.5-0.3-1.6c0-0.2-0.2-0.3-0.6-0.3
		c-0.4,0-0.7-0.1-0.9-0.3c0.6-0.8,0.8-2,0.6-3.4C178.7,82.1,178.2,82.2,177.4,82.4z M178.9,82.1c-0.2,0-0.7,0.1-1.6,0.3
		c-0.6-0.4-1.2-0.4-1.9,0.2c-0.6,0.5-1.3,0.7-1.9,0.5c-1,0.8-1.7,1.3-1.9,1.3c-0.8,0.6-1.5,1-1.9,1.2l-0.3,0.3
		c-0.2,0-0.6,0.2-1.1,0.5s-0.9,0.6-1.1,0.8c-0.2,0.2-0.3,0.4-0.3,0.6c0,0.2-0.1,0.4-0.2,0.5c-0.1,0.1-0.3,0.2-0.6,0.3
		s-0.5,0.2-0.6,0.3s-0.4,0.5-0.8,1.1c-0.2,0.2-0.5,0.5-0.8,0.8s-0.6,0.6-0.8,0.8c-1.9,1.7-3.1,2.9-3.8,3.8v0.9
		c-0.2,0.4-0.5,0.7-0.9,0.9c0,0.6-0.2,1.3-0.6,2c-0.4,0.7-0.6,1.4-0.6,2c0.8,1,1.3,1.8,1.3,2.2c0.2,0,0.6,0.3,1.1,0.9
		c0.5,0.6,1,1,1.4,1.2c0.4-0.2,1.9-0.2,4.5,0s3.9-0.1,3.9-0.9c0.2,0,0.4,0.1,0.6,0.3c0.2,0.2,0.4,0.3,0.6,0.3c0-0.2,0.1-0.4,0.3-0.5
		s0.4-0.2,0.6-0.2c0.2,0.2,0.4,0.3,0.6,0.3c0.4-0.2,1.8-0.3,4.1-0.3c0.2-0.6,0.8-0.9,1.9-0.9c0.6,0,1-0.1,1.2-0.3
		c0.2,0,0.4-0.1,0.6-0.3c0.8-0.6,1.6-0.8,2.2-0.6c0-0.2,0.8-0.5,2.5-0.9l0.9-0.6c2.1-1.2,3.2-2,3.4-2.2c0.4,0,0.7,0,0.9,0
		c2.1-1.9,3.4-2.9,4.1-3.1c0-0.2,0.2-0.5,0.5-0.8s0.5-0.7,0.5-1.1c0-0.4-0.5-0.7-1.6-0.9c-1-0.2-1.7-0.3-1.9-0.3
		c0,0.2-0.9,0.2-2.8,0c-0.2,0-0.5,0-0.8,0s-0.6,0-0.8,0s-0.6-0.1-1.1-0.3s-1-0.2-1.4,0c-0.2-0.4-0.7-0.8-1.4-1.2s-1.2-0.8-1.4-1.3
		c-0.2-0.2-0.3-0.5-0.3-0.9s-0.1-0.7-0.3-0.9c-0.8,0.2-1.3,0.2-1.3,0c-0.2,0-0.3-0.5-0.3-1.6c0-0.2-0.2-0.3-0.6-0.3
		c-0.4,0-0.7-0.1-0.9-0.3C178.9,84.7,179.1,83.5,178.9,82.1z"/>
	<path fill="#C35B28" d="M269,50.8c0.8,0.8,1.5,1.2,1.9,1.2c0.4,0.4,1.1,0.8,2.2,1.3c1,0.4,1.7,0.7,1.9,0.9c0,0.2,0,0.5,0,0.9
		c0.2,0.4,0.5,0.8,0.9,1.2c0.2,0.4,0.8,1.2,1.7,2.4s0.9,1.9-0.2,2.3c0,0.2,0.3,0.5,0.8,0.8s0.8,0.7,0.8,1.1c0,0.2,0,0.4,0,0.6
		c0,0.2,0,0.4,0,0.6c-0.2,0-0.2,0.3,0,0.9c-0.2,0.4-0.5,0.8-0.9,1.2l-0.6,0.3c-0.2,0.2-0.6,0.6-1.1,1.3c-0.5,0.6-1,0.9-1.4,0.9
		c0,0.6,0.1,1.1,0.3,1.3c-0.6,0.4-1.4,1.1-2.3,2s-1.6,1.6-2,2c-0.8,0.2-1.2,0.4-1.2,0.6c0.4,0.4,1.3,0.7,2.6,0.8
		c1.4,0.1,2.2,0.4,2.7,0.8c0.2,0,1,0,2.5,0c0.2,0,0.5,0.2,0.9,0.5s0.7,0.5,0.9,0.5c0.2,0,0.5-0.1,0.8-0.2c0.3-0.1,0.6-0.2,0.8-0.2
		s0.6,0.1,1.3,0.3c0.2,0,0.6,0,1.2,0s1,0.1,1.2,0.3c0.4,0.2,0.7,0.3,0.9,0.3c0.2,0.2,0.7,0.3,1.4,0.2c0.7-0.1,1.3-0.1,1.6,0
		c0.3,0.1,0.9,0.8,1.7,2c0.2,0,0.5,0,0.9,0c2.9,2.5,4.6,4,5,4.4c0.4,1,0.8,1.7,1.3,1.9c0,0.8,0.3,1.7,0.9,2.5c0.2,0.2,0.2,1.2,0,2.8
		c0,0.4,0.1,1,0.3,1.9c0.2,1.9,0,3.1-0.6,3.8c-0.2,2.1-0.6,3.3-1.2,3.8c0,0.2-0.3,0.9-0.9,2.2c0,0.2,0.2,0.4,0.5,0.5
		s0.5,0.3,0.5,0.5s-0.2,0.4-0.5,0.5s-0.6,0.3-0.8,0.5c0.2,0.6,0.1,1.2-0.5,1.7c-0.5,0.5-0.8,1-0.8,1.4c-0.2,0-0.5-0.1-0.9-0.3
		c0,0.2-0.1,0.6-0.3,1.1c-0.2,0.5-0.4,0.9-0.6,1.1c-2.3,2.5-4.6,4.8-6.9,6.9v0.9c-0.2,0-0.4-0.1-0.5-0.3s-0.3-0.2-0.5,0
		c-2.1,1.5-3.2,2.4-3.4,2.8c-1,0.2-1.9,0.2-2.5,0c-0.4,0-0.6,0.2-0.6,0.6c0,0.4-0.1,0.6-0.3,0.6c-0.2,0-0.4-0.1-0.6-0.3
		s-0.4-0.3-0.5-0.3s-0.3,0.1-0.5,0.3s-0.3,0.5-0.2,0.8c0.1,0.3,0.1,0.5-0.2,0.5c-0.6,0.4-1.4,0.3-2.2-0.3c-0.4,0.2-0.6,0.7-0.6,1.6
		c-0.6,0-1,0-1.2,0s-0.4-0.1-0.5-0.3s-0.3-0.3-0.5-0.3s-0.5,0.2-0.9,0.6c-0.4,0.2-1.1,0.3-2,0.3s-1.5,0.1-1.7,0.3
		c-0.2,0-0.5,0.2-0.8,0.5s-0.6,0.5-0.8,0.5c-0.2,0-0.7,0-1.4,0c-0.7,0-1.2,0-1.4,0c-1.5-0.2-2.4-0.3-2.8-0.3c-0.2,0-0.6,0-1.2,0
		s-1.2,0-1.6,0c-0.4,0.2-0.7,0.3-0.9,0.3s-0.6-0.1-1.2-0.3c-0.6-0.2-1.2-0.2-1.6,0c-0.4-0.8-1.5-1-3.1-0.6c-0.4-0.6-1.8-1.6-4.1-2.8
		c0,0.2,0,0.5,0,0.8s-0.1,0.5-0.3,0.5c-0.2-0.4-0.5-1-0.8-1.7s-0.6-1.2-0.8-1.4h-0.6c-1.2-2.3-2.3-3.6-3.1-4.1
		c-0.2-1.2-0.8-2.2-1.9-2.8c0-0.2,0.2-0.4,0.5-0.5s0.5-0.3,0.5-0.5c-0.6-1-0.8-1.7-0.6-1.9s0.5-0.2,0.8,0s0.6,0.3,0.8,0.3
		c0.2-0.4,0-0.9-0.6-1.4s-0.9-0.9-0.9-1.1c0-0.2,0.1-0.7,0.3-1.6c0.8-0.4,1.5-1,1.9-1.9c1-0.4,1.7-0.9,1.9-1.6
		c0.2-0.2,0.6-0.5,1.1-0.9s1-0.6,1.4-0.6c0.2-1,0.4-1.6,0.6-1.6c0.4,0,0.6,0.3,0.6,0.8s0.1,0.8,0.3,0.8c0.8,0,1.4-0.6,1.6-1.9
		c1-0.4,2-0.2,3,0.6c0.9,0.8,1.6,1.7,2,2.5c0.6,0,1.4,0.2,2.2,0.6c0.8,0.4,1.6,0.5,2.2,0.3c0.4-0.4,0.7-0.6,0.9-0.6s0.4,0.1,0.6,0.3
		c0.6,0.2,1,0.1,1.3-0.3c-0.2-0.4-0.3-0.7-0.3-0.9c1.9-0.2,3,0,3.4,0.6c0.2,0,0.4-0.1,0.5-0.3s0.3-0.3,0.5-0.3
		c0.2-0.2,0.6-0.3,1.2-0.3s1-0.1,1.3-0.3c0.2,0,0.4,0,0.5-0.2c0.1-0.1,0.2-0.2,0.3-0.3c0.1-0.1,0.4-0.2,0.8-0.2
		c0.6-0.2,0.9-0.4,0.9-0.6l-0.3-1.6c0.2,0,0.4,0.3,0.6,0.9c1.7-0.4,3.4-1.5,5.3-3.1c-0.2-0.2-0.4-0.4-0.6-0.6c-0.2,0-0.6,0-1.3,0
		c-0.8-0.4-3.1-0.6-6.9-0.6c-0.4,0-1.1-0.1-2-0.3s-1.6-0.3-1.9-0.3s-0.9,0.3-1.7,0.8c-0.8,0.5-1.6,0.6-2.2,0.2
		c-0.2-0.8-0.5-1.3-0.9-1.6c-1.2-0.6-2.3-0.5-3.1,0.3v-0.6c-0.6-0.8-1.7-0.9-3.1-0.3c-0.2,0-0.3-0.2-0.3-0.6
		c-0.8-0.4-1.6-0.9-2.2-1.6c-0.2,0-0.4,0.1-0.6,0.3h-0.3c-0.2,0-0.5-0.3-0.9-0.9c-1,0.2-2,0-2.8-0.6s-1.5-1.1-1.9-1.6
		c-0.2,0-0.5,0.1-0.8,0.2c-0.3,0.1-0.7,0.2-1.1,0.2c0-0.4,0-0.7,0-0.9c-0.2-0.4-0.8-1.1-1.9-2.2c-1-1-1.8-2-2.2-2.8
		c-0.8-1-1.5-1.9-1.9-2.5c-0.2,0-0.4-0.1-0.6-0.3c0-0.2-0.1-0.5-0.3-0.9c-0.2-0.8-0.5-1.3-0.9-1.6c0-0.8-0.1-1.8-0.3-2.8
		c-0.2,0-0.4,0-0.6,0l-0.3-0.3c-0.2-0.4-0.2-0.9,0-1.6h0.6c0.4-0.4,0.6-1.2,0.6-2.3s0.2-2,0.6-2.7c0.2,0,0.4,0.1,0.5,0.3
		s0.3,0.4,0.5,0.6c0.2-0.2,0.4-0.6,0.6-1.2c0.2-0.6,0.4-0.9,0.6-0.9c0.2-0.2,0.2-0.5,0-0.9c0.4-0.2,1-0.4,1.9-0.5
		c0.8-0.1,1.3-0.3,1.6-0.5c0.2,0,0.5-0.3,0.8-0.8s0.7-0.8,1.1-0.8c0.2-0.2,0.7-0.4,1.6-0.5c0.8-0.1,1.4-0.4,1.6-0.8
		c0.8,0,1.5-0.3,1.9-0.9c0.8,0,1.3-0.3,1.6-0.9c0.8,0,1.5-0.2,1.9-0.6c0-0.2-0.1-0.4-0.2-0.5c-0.1-0.1-0.2-0.3-0.2-0.5
		c0.6-0.2,1.3-0.1,1.9,0.3c0.2,0,0.6-0.3,1.1-0.9s1-0.9,1.4-0.9c0.2,0,0.4,0,0.5,0s0.3,0,0.5,0c0.2-0.2,0.5-0.5,0.9-0.9
		s0.7-0.6,0.9-0.6c1.7,0,2.7-0.7,3.1-2.2c1.5-0.8,2.5-0.9,3.1-0.3c0.4-0.2,0.9-0.6,1.6-1.3c0.6-0.6,1.1-1,1.6-1.2
		c0.2,0.2,0.6,0.5,1.2,0.9c0.6,0.2,1.2,0.2,1.7,0S268.8,50.8,269,50.8z M267.9,51.1c0.5-0.2,0.9-0.3,1.1-0.3
		c0.8,0.8,1.5,1.2,1.9,1.2c0.4,0.4,1.1,0.8,2.2,1.3c1,0.4,1.7,0.7,1.9,0.9c0,0.2,0,0.5,0,0.9c0.2,0.4,0.5,0.8,0.9,1.2
		c0.2,0.4,0.8,1.2,1.7,2.4s0.9,1.9-0.2,2.3c0,0.2,0.3,0.5,0.8,0.8s0.8,0.7,0.8,1.1c0,0.2,0,0.4,0,0.6s0,0.4,0,0.6
		c-0.2,0-0.2,0.3,0,0.9c-0.2,0.4-0.5,0.8-0.9,1.2l-0.6,0.3c-0.2,0.2-0.6,0.6-1.1,1.3c-0.5,0.6-1,0.9-1.4,0.9c0,0.6,0.1,1.1,0.3,1.3
		c-0.6,0.4-1.4,1.1-2.3,2s-1.6,1.6-2,2c-0.8,0.2-1.2,0.4-1.2,0.6c0.4,0.4,1.3,0.7,2.6,0.8c1.4,0.1,2.2,0.4,2.7,0.8c0.2,0,1,0,2.5,0
		c0.2,0,0.5,0.2,0.9,0.5s0.7,0.5,0.9,0.5c0.2,0,0.5-0.1,0.8-0.2c0.3-0.1,0.6-0.2,0.8-0.2s0.6,0.1,1.3,0.3c0.2,0,0.6,0,1.2,0
		s1,0.1,1.2,0.3c0.4,0.2,0.7,0.3,0.9,0.3c0.2,0.2,0.7,0.3,1.4,0.2c0.7-0.1,1.3-0.1,1.6,0c0.3,0.1,0.9,0.8,1.7,2c0.2,0,0.5,0,0.9,0
		c2.9,2.5,4.6,4,5,4.4c0.4,1,0.8,1.7,1.3,1.9c0,0.8,0.3,1.7,0.9,2.5c0.2,0.2,0.2,1.2,0,2.8c0,0.4,0.1,1,0.3,1.9
		c0.2,1.9,0,3.1-0.6,3.8c-0.2,2.1-0.6,3.3-1.2,3.8c0,0.2-0.3,0.9-0.9,2.2c0,0.2,0.2,0.4,0.5,0.5s0.5,0.3,0.5,0.5s-0.2,0.4-0.5,0.5
		s-0.6,0.3-0.8,0.5c0.2,0.6,0.1,1.2-0.5,1.7c-0.5,0.5-0.8,1-0.8,1.4c-0.2,0-0.5-0.1-0.9-0.3c0,0.2-0.1,0.6-0.3,1.1
		c-0.2,0.5-0.4,0.9-0.6,1.1c-2.3,2.5-4.6,4.8-6.9,6.9v0.9c-0.2,0-0.4-0.1-0.5-0.3s-0.3-0.2-0.5,0c-2.1,1.5-3.2,2.4-3.4,2.8
		c-1,0.2-1.9,0.2-2.5,0c-0.4,0-0.6,0.2-0.6,0.6c0,0.4-0.1,0.6-0.3,0.6c-0.2,0-0.4-0.1-0.6-0.3s-0.4-0.3-0.5-0.3s-0.3,0.1-0.5,0.3
		s-0.3,0.5-0.2,0.8c0.1,0.3,0.1,0.5-0.2,0.5c-0.6,0.4-1.4,0.3-2.2-0.3c-0.4,0.2-0.6,0.7-0.6,1.6c-0.6,0-1,0-1.2,0s-0.4-0.1-0.5-0.3
		s-0.3-0.3-0.5-0.3s-0.5,0.2-0.9,0.6c-0.4,0.2-1.1,0.3-2,0.3s-1.5,0.1-1.7,0.3c-0.2,0-0.5,0.2-0.8,0.5s-0.6,0.5-0.8,0.5
		c-0.2,0-0.7,0-1.4,0c-0.7,0-1.2,0-1.4,0c-1.5-0.2-2.4-0.3-2.8-0.3c-0.2,0-0.6,0-1.2,0s-1.2,0-1.6,0c-0.4,0.2-0.7,0.3-0.9,0.3
		s-0.6-0.1-1.2-0.3c-0.6-0.2-1.2-0.2-1.6,0c-0.4-0.8-1.5-1-3.1-0.6c-0.4-0.6-1.8-1.6-4.1-2.8c0,0.2,0,0.5,0,0.8s-0.1,0.5-0.3,0.5
		c-0.2-0.4-0.5-1-0.8-1.7s-0.6-1.2-0.8-1.4h-0.6c-1.2-2.3-2.3-3.6-3.1-4.1c-0.2-1.2-0.8-2.2-1.9-2.8c0-0.2,0.2-0.4,0.5-0.5
		s0.5-0.3,0.5-0.5c-0.6-1-0.8-1.7-0.6-1.9s0.5-0.2,0.8,0s0.6,0.3,0.8,0.3c0.2-0.4,0-0.9-0.6-1.4s-0.9-0.9-0.9-1.1
		c0-0.2,0.1-0.7,0.3-1.6c0.8-0.4,1.5-1,1.9-1.9c1-0.4,1.7-0.9,1.9-1.6c0.2-0.2,0.6-0.5,1.1-0.9s1-0.6,1.4-0.6c0.2-1,0.4-1.6,0.6-1.6
		c0.4,0,0.6,0.3,0.6,0.8s0.1,0.8,0.3,0.8c0.8,0,1.4-0.6,1.6-1.9c1-0.4,2-0.2,3,0.6c0.9,0.8,1.6,1.7,2,2.5c0.6,0,1.4,0.2,2.2,0.6
		c0.8,0.4,1.6,0.5,2.2,0.3c0.4-0.4,0.7-0.6,0.9-0.6s0.4,0.1,0.6,0.3c0.6,0.2,1,0.1,1.3-0.3c-0.2-0.4-0.3-0.7-0.3-0.9
		c1.9-0.2,3,0,3.4,0.6c0.2,0,0.4-0.1,0.5-0.3s0.3-0.3,0.5-0.3c0.2-0.2,0.6-0.3,1.2-0.3s1,0,1.3,0c0.2-0.2,0.4-0.4,0.5-0.5
		s0.2-0.2,0.3-0.3c0.1-0.1,0.4-0.2,0.8-0.2c0.6-0.2,0.9-0.4,0.9-0.6l-0.3-1.6c0.2,0,0.4,0.3,0.6,0.9c1.7-0.4,3.4-1.5,5.3-3.1
		c-0.2-0.2-0.4-0.4-0.6-0.6c-0.2,0-0.6,0-1.3,0c-0.8-0.4-3.1-0.6-6.9-0.6c-0.4,0-1.1-0.1-2-0.3s-1.6-0.3-1.9-0.3s-0.9,0.3-1.7,0.8
		c-0.8,0.5-1.6,0.6-2.2,0.2c-0.2-0.8-0.5-1.3-0.9-1.6c-1.2-0.6-2.3-0.5-3.1,0.3v-0.6c-0.6-0.8-1.7-0.9-3.1-0.3
		c-0.2,0-0.3-0.2-0.3-0.6c-0.8-0.4-1.6-0.9-2.2-1.6c-0.2,0-0.4,0.1-0.6,0.3h-0.3c-0.2,0-0.5-0.3-0.9-0.9c-1,0.2-2,0-2.8-0.6
		s-1.5-1.1-1.9-1.6c-0.2,0-0.5,0.1-0.8,0.2c-0.3,0.1-0.7,0.2-1.1,0.2c0-0.4,0-0.7,0-0.9c-0.2-0.4-0.8-1.1-1.9-2.2
		c-1-1-1.8-2-2.2-2.8c-0.8-1-1.5-1.9-1.9-2.5c-0.2,0-0.4-0.1-0.6-0.3c0-0.2-0.1-0.5-0.3-0.9c-0.2-0.8-0.5-1.3-0.9-1.6
		c0-0.8-0.1-1.8-0.3-2.8c-0.2,0-0.4,0-0.6,0l-0.3-0.3c-0.2-0.4-0.2-0.9,0-1.6h0.6c0.4-0.4,0.6-1.2,0.6-2.3s0.2-2,0.6-2.7
		c0.2,0,0.4,0.1,0.5,0.3s0.3,0.4,0.5,0.6c0.2-0.2,0.4-0.6,0.6-1.2c0.2-0.6,0.4-0.9,0.6-0.9c0.2-0.2,0.2-0.5,0-0.9
		c0.4-0.2,1-0.4,1.9-0.5c0.8-0.1,1.3-0.3,1.6-0.5c0.2,0,0.5-0.3,0.8-0.8s0.7-0.8,1.1-0.8c0.2-0.2,0.7-0.4,1.6-0.5
		c0.8-0.1,1.4-0.4,1.6-0.8c0.8,0,1.5-0.3,1.9-0.9c0.8,0,1.3-0.3,1.6-0.9c0.8,0,1.5-0.2,1.9-0.6c0-0.2-0.1-0.4-0.2-0.5
		c-0.1-0.1-0.2-0.3-0.2-0.5c0.6-0.2,1.3-0.1,1.9,0.3c0.2,0,0.6-0.3,1.1-0.9s1-0.9,1.4-0.9c0.2,0,0.4,0,0.5,0s0.3,0,0.5,0
		c0.2-0.2,0.5-0.5,0.9-0.9s0.7-0.6,0.9-0.6c1.7,0,2.7-0.7,3.1-2.2c1.5-0.8,2.5-0.9,3.1-0.3c0.4-0.2,0.9-0.6,1.6-1.3
		c0.6-0.6,1.1-1,1.6-1.2c0.2,0.2,0.6,0.5,1.2,0.9C266.8,51.3,267.3,51.3,267.9,51.1z"/>
	<path fill="#C35B28" d="M341.2,8.6c0.2,0.4,0.8,0.7,1.9,0.8c1,0.1,1.7,0.4,1.9,0.8c0.2,0,0.5,0,0.9,0s0.7,0,0.9,0
		c0.2-0.2,0.4-0.4,0.6-0.6c0.6-0.4,1.1-0.5,1.6-0.3c0.2,0.2,0.4,0.5,0.6,0.8s0.4,0.6,0.6,0.8c0.6,0.2,1.2,0.7,1.9,1.4
		c0.6,0.7,1,1.2,1.3,1.4c0,0.4,0,0.7,0,0.9c0.4,0.6,1.1,1.3,2.2,1.9c0.8,2.5,1,4.6,0.6,6.2v1.6c0,0.2-0.2,0.4-0.5,0.6
		s-0.5,0.4-0.5,0.6c0,0.6,0.1,1.8,0.2,3.6c0.1,1.8,0.1,3.2-0.2,4.2c0,2.7,0,4.3,0,4.7c0.4,0.6,0.6,1,0.6,1.1s-0.1,0.6-0.3,1.4
		c-0.2,0.8-0.1,1.2,0.3,1.2c0,0.2-0.1,0.5-0.3,0.8c-0.2,0.3-0.3,0.7-0.3,1.1c0,0.2,0.2,0.4,0.5,0.6s0.5,0.4,0.5,0.6
		s-0.1,0.6-0.2,1.1s-0.1,1,0.2,1.4c0,0.4,0,0.7,0,0.9c0.2,0.4,0.3,1,0.3,1.7s0,1.2,0,1.4c0,0.2,0.1,0.4,0.3,0.6
		c0.2,0.2,0.3,0.4,0.3,0.6s-0.1,0.5-0.2,0.9s-0.2,0.7-0.2,0.9s0.1,0.5,0.3,0.8c0.2,0.3,0.3,0.6,0.3,0.8s-0.1,0.7-0.2,1.4
		c-0.1,0.7-0.1,1.2,0.2,1.4c0.2,0.4,0.6,0.6,1.1,0.5s0.8-0.5,0.8-1.1c0.4,0,0.7,0.1,0.9,0.3c0,0.2,0.1,0.3,0.3,0.3
		c0.2,0,0.8,0.1,1.7,0.2c0.9,0.1,1.5,0.1,1.7-0.2c0.2,0,0.6-0.2,1.1-0.5s0.9-0.6,1.1-0.8c0.6,0,1.4,0.1,2.2,0.3l0.9,0.3
		c0.2,0,0.4-0.1,0.6-0.2s0.4-0.2,0.6-0.2c0.4-0.2,1-0.2,1.9,0c1.5,0,2.4-0.2,2.8-0.6c0.8,0.2,1.5,0,1.9-0.6c0.2,0.2,1.3,0,3.1-0.6
		c0.2,0,0.5,0,0.9,0s0.7,0,0.9,0c0.2,0,0.4-0.1,0.6-0.2s0.4-0.2,0.6-0.2c1.7-0.2,2.5-0.6,2.5-1.2c0.8,0.6,1.8,0.8,2.8,0.6
		c0.6-0.4,1-0.6,1.2-0.6s0.5,0,0.9,0c1.5,0,2.5,0.1,3.1,0.3v0.6c1-0.4,2.2,0,3.4,1.2c0.2,0,0.7,0,1.6,0c0.2,0.4,0.3,1.1,0.3,2.2
		c0,0.6,0.1,1,0.3,1.2c0,0.2,0.1,0.4,0.3,0.6c0.2,0.2,0.3,0.4,0.3,0.6s0,1,0,2.5c0,0.2,0,0.5,0,0.8s0,0.5,0,0.6s-0.2,0.5-0.6,1.1
		s-0.6,1.2-0.6,1.9c-0.4,0.8-1,1.5-1.9,1.9c0,0.8-0.6,1.7-1.9,2.5c-0.2,0.2-0.4,0.4-0.6,0.6c-0.2,0.2-0.4,0.4-0.5,0.5
		s-0.3,0.1-0.6,0c-0.3-0.1-0.5,0-0.5,0.2c-0.4,0-0.8,0.3-1.2,0.8c-0.4,0.5-0.7,0.9-0.9,1.1c-0.2-0.2-0.5-0.2-0.9,0.2
		c-0.4,0.3-0.7,0.5-0.9,0.5c-1.7,0.2-2.6,0.4-2.8,0.6c-0.2,0.6-0.4,1.1-0.6,1.3c-0.4,0-0.8-0.2-1.2-0.6c-1.7,0-2.7,0.1-3.1,0.3
		c-1-0.6-1.8-0.4-2.2,0.6c-0.4,0-1,0-1.9,0c-1.7,0-2.6,0.3-2.8,0.9c0.2,0.2,0.3,0.4,0.3,0.6c-0.2,0-0.4-0.2-0.6-0.6
		c-3.5,0-5.6,0.4-6.3,1.2c-0.4-0.2-0.9-0.2-1.4,0.2c-0.5,0.3-0.9,0.5-1.1,0.5l-2.2,0.6c0.2,0.2,0.3,0.8,0.2,1.7
		c-0.1,0.9-0.1,1.5,0.2,1.7c0,0.2,0.1,0.4,0.3,0.6c0.2,0.2,0.3,0.4,0.3,0.6c0.2,0.2,0.3,0.6,0.3,1.3c0,0.6,0,1,0,1.2
		s0.1,0.4,0.2,0.6c0.1,0.2,0.2,0.4,0.2,0.6c0,0.2-0.1,0.4-0.2,0.6c-0.1,0.2-0.2,0.4-0.2,0.6c0.2,0.2,0.5,0.6,0.8,1.1s0.5,1,0.5,1.4
		h0.9c-0.4,1.7-0.6,2.8-0.5,3.3s0.6,0.9,1.4,1.1c0.4,0,0.3,0.7-0.3,2.2c0,0.2,0.2,0.6,0.5,1.1s0.5,1,0.5,1.4s0,1.1,0,2s0,1.7,0,2.3
		c0.2,0.2,0.4,0.5,0.6,0.9s0.3,0.7,0.3,0.9c0.2,1.5,0.3,2.8,0.3,4.1c-0.4,1.2-0.6,2.2-0.6,2.8c-0.4,0.6-0.9,1.1-1.6,1.6
		c0,0.8-0.3,1.5-0.9,1.9c-0.2,1.1-0.7,1.9-1.4,2.7c-0.7,0.7-1.4,0.8-2,0.2c-1.7,1-2.7,2-3.1,2.8c-1.2,0-2.2,0.2-2.8,0.6
		c-0.2,0-0.6-0.2-1.2-0.5s-1-0.7-1.3-1.1c-0.2,0-0.7,0-1.6,0c-0.6-0.4-0.8-0.8-0.6-1.2c-1.2-1.3-1.9-2.4-1.9-3.4
		c-0.6-0.4-1.5-0.6-2.5-0.6c0-0.4,0.1-1.1,0.2-2.2c0.1-1-0.1-1.7-0.5-1.9c-0.2,0-0.3,0.2-0.3,0.6c-0.4-0.8-0.5-1.8-0.3-2.8
		c0.2,0,0.4,0,0.6,0s0.3-0.1,0.3-0.3c0.2-0.2,0.1-0.6-0.3-1.2c0-0.4,0-1,0-1.7s0-1.3,0-1.7c0-0.2-0.2-0.5-0.6-0.9
		c-0.4-0.8-0.6-1.7-0.6-2.5c0.2-0.6,0.3-1,0.3-1.1s-0.1-0.3-0.3-0.5c-0.2-0.2-0.4-0.4-0.5-0.5s-0.2-0.5-0.3-1.2
		c-0.1-0.7-0.4-1.1-0.8-1.1c0-2.3-0.5-3.4-1.6-3.4c1-1,0.9-2.7-0.3-5c-0.2,0.2-0.4,0.3-0.6,0.3c0-0.2,0.1-0.5,0.2-0.8
		s0.2-0.7,0.2-1.1c0-0.2-0.1-0.5-0.3-0.8c-0.2-0.3-0.3-0.6-0.3-0.8c-0.6-2.5-1.1-3.9-1.6-4.1c-5.2,0.2-8.1,0.7-8.8,1.6
		c-0.4,0-1-0.2-1.9-0.6c-0.4,0-0.8,0-1.2,0c-0.8,0.2-1.5,0.5-1.9,0.9c-0.8-0.6-1.5-0.7-1.9-0.3h-3.1c-0.4-0.4-0.9-0.6-1.6-0.6
		c-0.8-0.6-1.6-1.2-2.2-1.9l-0.6-0.3c-0.8-1.5-1.8-2.5-2.8-3.1c0-0.4-0.1-0.8-0.3-1.2c-0.2-0.4-0.4-0.7-0.5-0.8s-0.1-0.4,0.2-0.8
		c0-0.4-0.2-0.8-0.6-1.1s-0.7-0.6-0.9-0.8c-0.2-0.4-0.2-1.7,0-3.8c0.4-2.1,1.1-3.7,2.2-4.7c0.2,0,0.6-0.2,1.1-0.6
		c0.5-0.4,0.8-0.7,0.9-0.8s0.3-0.4,0.5-0.8c0.2-0.4,0.4-0.7,0.5-0.8s0.3-0.2,0.6-0.2c0.3,0,0.5-0.1,0.6-0.2c0.1-0.1,0.4-0.3,0.8-0.5
		c0.2-0.2,0.6,0,1.2,0.6c0.4,0,0.8-0.2,1.3-0.6c1.7,0,2.9-0.3,3.7-0.9c0.4,0.2,2.5,0.3,6.3,0.3c0.6,0.2,1,0.3,1.2,0.3
		s0.6-0.2,1.3-0.5c0.6-0.3,1-0.5,1.2-0.5c0.2-1.7,0.2-2.7,0-3.1c0-0.2-0.1-0.4-0.3-0.6s-0.3-0.4-0.3-0.6c-0.2-0.4-0.3-1.5-0.2-3.1
		c0.1-1.7-0.2-2.6-0.8-2.8c0.4-0.6,0.3-1.3-0.3-1.9c0.2-0.8,0.3-2.1,0.2-3.9c-0.1-1.8-0.6-2.7-1.4-2.7c0-0.8,0.3-1.2,0.9-1.2
		c0.4-1.9,0.2-2.9-0.6-3.1c0.2,0,0.2-0.4,0-1.2c-0.2-0.8-0.3-1.4-0.3-1.6c0-0.4,0.1-1,0.3-1.9c0.2-0.8,0.3-1.5,0.3-1.9
		c-0.4-0.6-0.6-1-0.6-1.1s0.2-0.5,0.6-1.1c0-0.2,0-0.7,0-1.4c0-0.7,0-1.2,0-1.4s-0.2-0.5-0.6-0.9c0-0.2,0-0.5,0-0.9
		c0.2-0.2,0.2-0.7,0-1.6c-0.2-0.8-0.2-1.5,0-1.9c0.8,0.2,1.2-0.1,1.2-0.8c0-0.7-0.4-1.1-1.2-1.1V19c0.2-0.2,0.4-0.3,0.6-0.3
		s0.3-0.1,0.3-0.3c0.8-3.1,1.6-4.9,2.2-5.3c0-0.2,0.1-0.4,0.2-0.5s0.1-0.3-0.2-0.5c1.7-1,2.6-2,2.8-2.8c0.4-0.2,1-0.1,1.9,0.3
		C340.9,9.9,341.2,9.4,341.2,8.6z M340.2,10.1c0.6-0.2,0.9-0.6,0.9-1.2c0.2,0.2,0.8,0.4,1.9,0.5c1,0.1,1.7,0.4,1.9,0.8
		c0.2,0,0.5,0,0.9,0s0.7,0,0.9,0c0.2-0.2,0.4-0.4,0.6-0.6c0.6-0.4,1.1-0.5,1.6-0.3c0.2,0.2,0.4,0.5,0.6,0.8s0.4,0.6,0.6,0.8
		c0.6,0.2,1.2,0.7,1.9,1.4c0.6,0.7,1,1.2,1.3,1.4c0,0.4,0,0.7,0,0.9c0.4,0.6,1.1,1.3,2.2,1.9c0.8,2.5,1,4.6,0.6,6.2v1.6
		c0,0.2-0.2,0.4-0.5,0.6s-0.5,0.4-0.5,0.6c0,0.6,0.1,1.8,0.2,3.6c0.1,1.8,0.1,3.2-0.2,4.2c0,2.7,0,4.3,0,4.7c0.4,0.6,0.6,1,0.6,1.1
		s-0.1,0.6-0.3,1.4c-0.2,0.8-0.1,1.2,0.3,1.2c0,0.2-0.1,0.5-0.3,0.8c-0.2,0.3-0.3,0.7-0.3,1.1c0,0.2,0.2,0.4,0.5,0.6
		s0.5,0.4,0.5,0.6s-0.1,0.6-0.2,1.1s-0.1,1,0.2,1.4c0,0.4,0,0.7,0,0.9c0.2,0.4,0.3,1,0.3,1.7s0,1.2,0,1.4c0,0.2,0.1,0.4,0.3,0.6
		c0.2,0.2,0.3,0.4,0.3,0.6s-0.1,0.5-0.2,0.9s-0.2,0.7-0.2,0.9s0.1,0.5,0.3,0.8c0.2,0.3,0.3,0.6,0.3,0.8s-0.1,0.7-0.2,1.4
		c-0.1,0.7-0.1,1.2,0.2,1.4c0.2,0.4,0.6,0.6,1.1,0.5s0.8-0.5,0.8-1.1c0.4,0,0.7,0.1,0.9,0.3c0,0.2,0.1,0.3,0.3,0.3
		c0.2,0,0.8,0.1,1.7,0.2c0.9,0.1,1.5,0.1,1.7-0.2c0.2,0,0.6-0.2,1.1-0.5s0.9-0.6,1.1-0.8c0.6,0,1.4,0.1,2.2,0.3L369,58
		c0.2,0,0.4-0.1,0.6-0.2s0.4-0.2,0.6-0.2c0.4-0.2,1-0.2,1.9,0c1.5,0,2.4-0.2,2.8-0.6c0.8,0.2,1.5,0,1.9-0.6c0.2,0.2,1.3,0,3.1-0.6
		c0.2,0,0.5,0,0.9,0s0.7,0,0.9,0c0.2,0,0.4-0.1,0.6-0.2s0.4-0.2,0.6-0.2c1.7-0.2,2.5-0.6,2.5-1.2c0.8,0.6,1.8,0.8,2.8,0.6
		c0.6-0.4,1-0.6,1.2-0.6s0.5,0,0.9,0c1.5,0,2.5,0.1,3.1,0.3v0.6c1-0.4,2.2,0,3.4,1.2c0.2,0,0.7,0,1.6,0c0.2,0.4,0.3,1.1,0.3,2.2
		c0,0.6,0.1,1,0.3,1.2c0,0.2,0.1,0.4,0.3,0.6c0.2,0.2,0.3,0.4,0.3,0.6s0,1,0,2.5c0,0.2,0,0.5,0,0.8s0,0.5,0,0.6s-0.2,0.5-0.6,1.1
		s-0.6,1.2-0.6,1.9c-0.4,0.8-1,1.5-1.9,1.9c0,0.8-0.6,1.7-1.9,2.5c-0.2,0.2-0.4,0.4-0.6,0.6c-0.2,0.2-0.4,0.4-0.5,0.5
		s-0.3,0.1-0.6,0c-0.3-0.1-0.5,0-0.5,0.2c-0.4,0-0.8,0.3-1.2,0.8c-0.4,0.5-0.7,0.9-0.9,1.1c-0.2,0-0.5,0.1-0.9,0.3s-0.7,0.3-0.9,0.3
		c-1.7,0.2-2.6,0.4-2.8,0.6c-0.2,0.6-0.4,1.1-0.6,1.3c-0.4,0-0.8-0.2-1.2-0.6c-1.7,0-2.7,0.1-3.1,0.3c-1-0.6-1.8-0.4-2.2,0.6
		c-0.4,0-1,0-1.9,0c-1.7,0-2.6,0.3-2.8,0.9c0.2,0.2,0.3,0.4,0.3,0.6c-0.2,0-0.4-0.2-0.6-0.6c-3.5,0-5.6,0.4-6.3,1.2
		c-0.4-0.2-0.9-0.2-1.4,0.2c-0.5,0.3-0.9,0.5-1.1,0.5l-2.2,0.6c0.2,0.2,0.3,0.8,0.2,1.7c-0.1,0.9-0.1,1.5,0.2,1.7
		c0,0.2,0.1,0.4,0.3,0.6c0.2,0.2,0.3,0.4,0.3,0.6c0.2,0.2,0.3,0.6,0.3,1.3c0,0.6,0,1,0,1.2s0.1,0.4,0.2,0.6c0.1,0.2,0.2,0.4,0.2,0.6
		c0,0.2-0.1,0.4-0.2,0.6c-0.1,0.2-0.2,0.4-0.2,0.6c0.2,0.2,0.5,0.6,0.8,1.1s0.5,1,0.5,1.4h0.9c-0.4,1.7-0.6,2.8-0.5,3.3
		s0.6,0.9,1.4,1.1c0.4,0,0.3,0.7-0.3,2.2c0,0.2,0.2,0.6,0.5,1.1s0.5,1,0.5,1.4s0,1.1,0,2s0,1.7,0,2.3c0.2,0.2,0.4,0.5,0.6,0.9
		s0.3,0.7,0.3,0.9c0.2,1.5,0.3,2.8,0.3,4.1c-0.4,1.2-0.6,2.2-0.6,2.8c-0.4,0.6-0.9,1.1-1.6,1.6c0,0.8-0.3,1.5-0.9,1.9
		c-0.2,1.1-0.7,1.9-1.4,2.7c-0.7,0.7-1.4,0.8-2,0.2c-1.7,1-2.7,2-3.1,2.8c-1.2,0-2.2,0.2-2.8,0.6c-0.2,0-0.6-0.2-1.2-0.5
		s-1-0.7-1.3-1.1c-0.2,0-0.7,0-1.6,0c-0.6-0.4-0.8-0.8-0.6-1.2c-1.2-1.3-1.9-2.4-1.9-3.4c-0.6-0.4-1.5-0.6-2.5-0.6
		c0-0.4,0.1-1.1,0.2-2.2c0.1-1-0.1-1.7-0.5-1.9c-0.2,0-0.3,0.2-0.3,0.6c-0.4-0.8-0.5-1.8-0.3-2.8c0.2,0,0.4,0,0.6,0s0.3-0.1,0.3-0.3
		c0.2-0.2,0.1-0.6-0.3-1.2c0-0.4,0-1,0-1.7s0-1.3,0-1.7c0-0.2-0.2-0.5-0.6-0.9c-0.4-0.8-0.6-1.7-0.6-2.5c0.2-0.6,0.3-1,0.3-1.1
		s-0.1-0.3-0.3-0.5c-0.2-0.2-0.4-0.4-0.5-0.5s-0.2-0.5-0.3-1.2c-0.1-0.7-0.4-1.1-0.8-1.1c0-2.3-0.5-3.4-1.6-3.4c1-1,0.9-2.7-0.3-5
		c-0.2,0.2-0.4,0.3-0.6,0.3c0-0.2,0.1-0.5,0.2-0.8s0.2-0.7,0.2-1.1c0-0.2-0.1-0.5-0.3-0.8c-0.2-0.3-0.3-0.6-0.3-0.8
		c-0.6-2.5-1.1-3.9-1.6-4.1c-5.2,0.2-8.1,0.7-8.8,1.6c-0.4,0-1-0.2-1.9-0.6c-0.4,0-0.8,0-1.2,0c-0.8,0.2-1.5,0.5-1.9,0.9
		c-0.8-0.6-1.5-0.7-1.9-0.3h-3.1c-0.4-0.4-0.9-0.6-1.6-0.6c-0.8-0.6-1.6-1.2-2.2-1.9l-0.6-0.3c-0.8-1.5-1.8-2.5-2.8-3.1
		c0-0.4-0.1-0.8-0.3-1.2c-0.2-0.4-0.4-0.7-0.5-0.8s-0.1-0.4,0.2-0.8c0-0.4-0.2-0.8-0.6-1.1s-0.7-0.6-0.9-0.8c-0.2-0.4-0.2-1.7,0-3.8
		c0.4-2.1,1.1-3.7,2.2-4.7c0.2,0,0.6-0.2,1.1-0.6c0.5-0.4,0.8-0.7,0.9-0.8s0.3-0.4,0.5-0.8c0.2-0.4,0.4-0.7,0.5-0.8s0.3-0.2,0.6-0.2
		c0.3,0,0.5-0.1,0.6-0.2c0.1-0.1,0.4-0.3,0.8-0.5c0.2,0,0.6,0.2,1.2,0.6c0.4,0,0.8-0.2,1.3-0.6c1.7,0,2.9-0.3,3.7-0.9
		c0.4,0.2,2.5,0.3,6.3,0.3c0.6,0.2,1,0.3,1.2,0.3s0.6-0.2,1.3-0.5c0.6-0.3,1-0.5,1.2-0.5c0.2-1.7,0.2-2.7,0-3.1
		c0-0.2-0.1-0.4-0.3-0.6s-0.3-0.4-0.3-0.6c-0.2-0.4-0.3-1.5-0.2-3.1c0.1-1.7-0.2-2.6-0.8-2.8c0.4-0.6,0.3-1.3-0.3-1.9
		c0.2-0.8,0.3-2.1,0.2-3.9c-0.1-1.8-0.6-2.7-1.4-2.7c0-0.8,0.3-1.2,0.9-1.2c0.4-1.9,0.2-2.9-0.6-3.1c0.2,0,0.2-0.4,0-1.2
		c-0.2-0.8-0.3-1.4-0.3-1.6c0-0.4,0.1-1,0.3-1.9c0.2-0.8,0.3-1.5,0.3-1.9c-0.4-0.6-0.6-1-0.6-1.1s0.2-0.5,0.6-1.1c0-0.2,0-0.7,0-1.4
		c0-0.7,0-1.2,0-1.4s-0.2-0.5-0.6-0.9c0-0.2,0-0.5,0-0.9c0.2-0.2,0.2-0.7,0-1.6c-0.2-0.8-0.2-1.5,0-1.9c0.8,0.2,1.2-0.1,1.2-0.8
		c0-0.7-0.4-1.1-1.2-1.1v-0.6c0.2-0.2,0.5-0.3,0.9-0.3c0.8-3.3,1.6-5.2,2.2-5.6c0-0.2,0.1-0.4,0.2-0.5s0.1-0.3-0.2-0.5
		c1.7-1,2.6-2,2.8-2.8C338.8,9.6,339.4,9.7,340.2,10.1z"/>
</g>
</svg>
