<?xml version="1.0" encoding="utf-8"?>
<!-- Generator: Adobe Illustrator 19.0.1, SVG Export Plug-In . SVG Version: 6.00 Build 0)  -->
<svg version="1.1" id="Layer_1" xmlns="http://www.w3.org/2000/svg" xmlns:xlink="http://www.w3.org/1999/xlink" x="0px" y="0px"
	 viewBox="0 0 400 70" enable-background="new 0 0 400 70" xml:space="preserve">
<g>
	<path fill="#F8CBAD" d="M39.7,15.5c0.2,0.1,0.4,0.3,0.4,0.4c-0.2,0.5,0.1,0.9,0.7,1.1c0.1,0.1,0.1,0.2,0,0.3
		c-0.1,0.1-0.1,0.2-0.1,0.3c0.1,0.1,0.2,0.2,0.3,0.2c0.1,0.1,0.2,0.2,0.2,0.2c0,0.1-0.1,0.2-0.4,0.3c-0.2,0.1-0.3,0.3-0.2,0.6
		c-0.1,0.2-0.2,0.3-0.5,0.4c-0.1,0.2-0.2,0.7-0.2,1.2C39.6,20.8,39.3,21,39,21c-0.1,0-0.1,0.2-0.1,0.6c0,0.1-0.2,0.1-0.7,0.1
		C38,21.9,37.9,22,37.7,22s-0.3,0.1-0.3,0.1s-0.1,0-0.2-0.1c-0.1,0-0.2-0.1-0.3-0.2c-0.8-0.2-1.3,0-1.5,0.4
		c-0.7-0.6-1.2-0.8-1.5-0.7c-0.1,0-0.2,0-0.3,0.1s-0.2,0.1-0.2,0.1L33,21.5c-0.1,0-0.3,0-0.6,0.1s-0.5,0.1-0.6,0.1s-0.2,0-0.3-0.1
		c-0.1-0.1-0.2-0.1-0.3-0.1c-0.3,0.1-0.5,0.3-0.5,0.6c-0.2,0.1-0.5,0-1-0.2c-0.3,0-0.5,0.2-0.6,0.7c-0.4,0-0.7-0.1-0.7-0.2
		c-0.1,0-0.2,0.1-0.3,0.2c-0.1,0.2-0.2,0.3-0.3,0.4c-0.1,0-0.1,0-0.1-0.1c0,0,0-0.1-0.1-0.1c-1.1,0.4-1.8,0.8-1.8,1.2
		c-0.1,0-0.2,0-0.3-0.1c-0.1-0.1-0.2-0.1-0.2-0.1c-0.1,0.1-0.2,0.2-0.2,0.4C25,24.4,25,24.5,25,24.6c-0.3,0-0.5,0.1-0.7,0.3
		c-0.2,0.2-0.3,0.4-0.3,0.4c0,0.2-0.1,0.3-0.2,0.4s-0.2,0.2-0.2,0.3c0,0.2,0,0.3,0,0.4c-0.2,0-0.4-0.1-0.6-0.3c0,0.1,0,0.2,0,0.4
		v0.1c-0.1,0.2-0.2,0.5-0.4,1c-0.2,0.5-0.4,0.8-0.6,1c0,0.1-0.1,0.5-0.2,1.1c0,0.1,0,0.2-0.1,0.4c-0.1,0.2-0.2,0.4-0.2,0.4
		c0.1,0.2,0.1,0.3,0.1,0.4s0,0.2,0,0.5s0,0.4,0,0.5s0,0.2,0.1,0.3c0,0.1,0.1,0.2,0.1,0.2c0,0.1,0,0.2-0.1,0.2c0,0.1-0.1,0.2-0.2,0.2
		c0.1,0.2,0.1,0.3,0.1,0.3s0,0.1-0.1,0.3c0,0.2,0,0.4,0.1,0.6c0,0.2,0.1,0.4,0.1,0.6c-0.1,0.2-0.1,0.4-0.1,0.5s0,0.3,0.1,0.7
		c-0.1,0.2-0.1,0.5-0.1,0.9c0,0.3,0.1,0.6,0.4,0.7c0,0.1,0,0.1-0.1,0.2c-0.1,0-0.1,0.1-0.1,0.2c0.3,0.3,0.5,0.7,0.4,1.1
		c0,0.1-0.1,0.2-0.4,0.5c0,0.2,0,0.3,0.1,0.5L22,40c0,0.1,0,0.2-0.1,0.2c0,0.1-0.1,0.2-0.1,0.2c0.3,0.4,0.4,0.7,0.4,0.7
		c-0.1,0-0.2,0-0.2-0.1c-0.1,0-0.2,0-0.2,0.1c0.1,0.2,0.1,0.4,0.1,0.4s-0.1,0-0.2,0s-0.2-0.1-0.3-0.1c-0.1,0.1-0.2,0.2-0.3,0.3
		C21,41.8,21,41.9,20.9,42c0,0-0.1,0.1-0.2,0.1s-0.1,0-0.2,0.1c0,0-0.1,0.1-0.2,0.2c-0.1,0.1-0.1,0.1-0.2,0.2c0,0-0.2,0-0.4,0
		c-0.2,0-0.4,0-0.6,0.1s-0.3,0.2-0.4,0.2s-0.3,0-0.6,0.1c-0.3,0-0.5,0.1-0.7,0.3c0-0.1,0-0.1-0.1-0.2c0,0-0.1-0.1-0.2-0.1
		c-0.4,0.3-0.7,0.5-0.9,0.4c0-0.3-0.2-0.4-0.6-0.4c-0.4,0-0.6-0.1-0.7-0.2c0-0.5-0.4-0.7-1.2-0.7c0-0.1,0-0.2,0-0.4
		c-0.2-0.3-0.5-0.6-1-1c-0.2-0.2-0.4-0.4-0.5-0.5c-0.1,0-0.2-0.1-0.4-0.4c-0.2-0.3-0.4-0.5-0.6-0.6c-0.1-0.2-0.4-0.5-0.8-0.9
		c-0.5-0.3-0.7-0.7-0.7-1.1C9.5,37,9.1,36.6,8.5,36c-0.5-0.6-1-1-1.3-1.3c-0.2-0.3-0.3-0.5-0.4-0.6H6.5c0-0.2-0.1-0.5-0.4-0.7
		c0.1-0.2,0-0.5-0.2-0.7c-0.2-0.3-0.3-0.5-0.3-0.6c-0.1,0-0.2-0.1-0.4-0.3c-0.2-0.2-0.3-0.2-0.4-0.2c-0.1-0.7-0.5-1.3-1.1-2
		c-0.1-0.2-0.5-0.9-1.1-1.8c0-0.2-0.2-0.6-0.5-1.1c0.1-0.2,0-0.5-0.4-0.9c0.1-0.2,0-0.5-0.2-0.7s-0.3-0.4-0.3-0.6
		c0-0.1,0-0.1-0.1-0.2c-0.1,0-0.2-0.1-0.2-0.1c0-0.2-0.1-0.4-0.2-0.7c-0.2-0.3-0.3-0.5-0.4-0.7c0-0.1,0-0.2,0-0.3c0-0.1,0-0.2,0-0.3
		c0,0-0.1-0.1-0.2-0.2c0,0.1-0.1,0-0.1,0v-0.2c0-0.1,0-0.3,0-0.7c0-0.4,0-0.7,0-0.9c0.2-0.2,0.3-0.3,0.4-0.4C0,19.2,0,18.9,0.1,18.6
		c0.1-0.1,0.2-0.1,0.4,0c0.1,0,0.1-0.2,0.1-0.5C0.9,18,1,17.9,1.1,17.9c0.1-0.1,0.2-0.2,0.5-0.2C1.8,17.6,2,17.4,2,17.3
		c0.2,0,0.5-0.1,0.9-0.4c1.2-0.1,1.9,0,2.1,0.4h0.4c0.1,0,0.1,0,0.1,0.1s0,0.1,0.1,0.1s0.1,0,0.2-0.1c0,0,0.1-0.1,0.2-0.1
		c0.3,0.2,0.7,0.5,1.2,1s0.8,0.9,1.2,1c0,0.2,0,0.2,0.1,0.2c0.2,0.1,0.3,0.4,0.4,0.8C9,20.8,9.2,21,9.3,21.1c-0.1,0.2,0,0.5,0.2,0.9
		c0.1,0.1,0.1,0.1,0.1,0.2s0,0.1,0,0.2s0,0.2,0,0.2s0.1,0.2,0.4,0.5c0.2,0.3,0.3,0.6,0.2,0.9c0.4,0.3,0.8,1,1.2,2
		c0.2,0.2,0.4,0.5,0.7,0.9c0.3,0.5,0.6,0.7,0.8,0.8c0.1-0.1,0.2-0.3,0.2-0.6c0.1-0.3,0.2-0.5,0.2-0.7l0.4-0.5c0-0.1,0-0.2,0-0.4
		s0-0.4,0.1-0.4c0.2-0.5,0.2-0.8,0-1c0.1-0.1,0.2-0.3,0.4-0.7c0.2-0.4,0.3-0.6,0.2-0.8c0.1-0.1,0.2-0.2,0.4-0.2
		c0-0.3,0.1-0.6,0.4-0.9c0.3-0.3,0.4-0.6,0.4-0.8c0.2-0.2,0.6-0.7,1.1-1.2c0.5-0.6,0.9-1,1.1-1.2c0-0.1,0-0.1-0.1-0.2
		c0,0-0.1-0.1-0.1-0.2c0.1,0,0.2,0,0.4,0c0.2,0,0.3,0,0.4,0l0.6-0.4c0.7-0.6,1.1-0.9,1.1-1c0.4,0.1,0.8-0.1,1-0.4
		c0.3-0.4,0.5-0.6,0.7-0.6s0.3,0,0.4,0c0.2,0,0.4-0.1,0.7-0.4c0.3-0.2,0.5-0.4,0.6-0.5c0.2,0,0.4-0.1,0.7-0.2
		c0.3-0.1,0.5-0.2,0.7-0.2c0.1,0,0.2-0.1,0.5-0.4c0.2,0.1,0.5,0,0.7-0.3c0.1-0.1,0.2-0.2,0.2-0.2c0.3-0.1,0.6-0.1,0.9-0.1
		c0.1,0,0.2,0,0.2,0.1c0.1,0,0.2,0.1,0.2,0.1c0.1,0,0.2,0,0.2-0.1c0.1,0,0.1-0.1,0.1-0.2c0.2,0,0.4,0,0.7-0.1s0.5-0.1,0.6-0.1
		c0.2-0.4,0.4-0.6,0.7-0.5c0.1,0,0.2,0.1,0.4,0.2c0.2,0,0.8,0,1.8-0.1c1-0.1,1.5,0,1.5,0.1c0.2,0.3,0.6,0.4,1.2,0.4s1,0.1,1.3,0.2
		c0.5-0.1,0.9,0,1.2,0.4c0.3,0,0.7,0.2,1.1,0.5c0.2,0.1,0.4,0.1,0.4,0.2c0,0,0.1,0.2,0.2,0.4C39.3,15.3,39.5,15.4,39.7,15.5z
		 M40.1,15.9c-0.2,0.5,0.1,0.9,0.7,1.1c0.1,0.1,0.1,0.2,0,0.3c-0.1,0.1-0.1,0.2-0.1,0.3c0.1,0.1,0.2,0.2,0.3,0.2
		c0.1,0.1,0.2,0.2,0.2,0.2c0,0.1-0.1,0.2-0.4,0.3c-0.2,0.1-0.3,0.3-0.2,0.6c-0.1,0.2-0.2,0.3-0.5,0.4c-0.1,0.2-0.2,0.7-0.2,1.2
		C39.6,20.8,39.3,21,39,21c-0.1,0-0.1,0.2-0.1,0.6c0,0.1-0.2,0.1-0.7,0.1C38,21.9,37.9,22,37.7,22s-0.3,0.1-0.3,0.1s-0.1,0-0.2-0.1
		c-0.1,0-0.2-0.1-0.3-0.2c-0.8-0.2-1.3,0-1.5,0.4c-0.7-0.6-1.2-0.8-1.5-0.7c-0.1,0-0.2,0-0.3,0.1s-0.2,0.1-0.2,0.1L33,21.5
		c-0.1,0-0.3,0-0.6,0.1s-0.5,0.1-0.6,0.1s-0.2,0-0.3-0.1c-0.1-0.1-0.2-0.1-0.3-0.1c-0.3,0.1-0.5,0.3-0.5,0.6c-0.2,0.1-0.4,0.1-0.6,0
		c0-0.1-0.1-0.2-0.1-0.3c-0.3,0-0.5,0.2-0.6,0.7c-0.4,0-0.7-0.1-0.7-0.2c-0.1,0-0.2,0.1-0.3,0.2c-0.1,0.2-0.2,0.3-0.3,0.4
		c-0.1,0-0.1,0-0.1-0.1c0,0,0-0.1-0.1-0.1c-1.1,0.4-1.8,0.8-1.8,1.2c-0.1,0-0.2,0-0.3-0.1c-0.1-0.1-0.2-0.1-0.2-0.1
		c-0.1,0.1-0.2,0.2-0.2,0.4c-0.1,0.2-0.1,0.3-0.1,0.4c-0.3,0-0.5,0.1-0.7,0.3c-0.2,0.2-0.3,0.4-0.3,0.4c0,0.2-0.1,0.3-0.2,0.4
		s-0.2,0.2-0.2,0.3c0,0.2,0,0.3,0,0.4c-0.2,0-0.4-0.1-0.6-0.3C23,26.2,23,26.3,23,26.5v0.1c-0.1,0.2-0.2,0.5-0.4,1
		c-0.2,0.5-0.4,0.8-0.6,1c0,0.1-0.1,0.5-0.2,1.1c0,0.1,0,0.2-0.1,0.4c-0.1,0.2-0.2,0.4-0.2,0.4c0.1,0.2,0.1,0.3,0.1,0.4s0,0.2,0,0.5
		s0,0.4,0,0.5s0,0.2,0.1,0.3c0,0.1,0.1,0.2,0.1,0.2c0,0.1,0,0.2-0.1,0.2c0,0.1-0.1,0.2-0.2,0.2c0.1,0.2,0.1,0.3,0.1,0.3
		s0,0.1-0.1,0.3c0,0.2,0,0.4,0.1,0.6c0,0.2,0.1,0.4,0.1,0.6c-0.1,0.2-0.1,0.4-0.1,0.5s0,0.3,0.1,0.7c-0.1,0.2-0.1,0.5-0.1,0.9
		c0,0.3,0.1,0.6,0.4,0.7c0,0.1,0,0.1-0.1,0.2c-0.1,0-0.1,0.1-0.1,0.2c0.3,0.3,0.5,0.7,0.4,1.1c0,0.1-0.1,0.2-0.4,0.5
		c0,0.2,0,0.3,0.1,0.5L22,40c0,0.1,0,0.2-0.1,0.2c0,0.1-0.1,0.2-0.1,0.2c0.3,0.4,0.4,0.7,0.4,0.7c-0.1,0-0.2,0-0.2-0.1
		c-0.1,0-0.2,0-0.2,0.1c0.1,0.2,0.1,0.4,0.1,0.4s-0.1,0-0.2,0s-0.2-0.1-0.3-0.1c-0.1,0.1-0.2,0.2-0.3,0.3C21,41.8,21,41.9,20.9,42
		c0,0-0.1,0.1-0.2,0.1s-0.1,0-0.2,0.1c0,0-0.1,0.1-0.2,0.2c-0.1,0.1-0.1,0.1-0.2,0.2c0,0-0.2,0-0.4,0c-0.2,0-0.4,0-0.6,0.1
		c-0.2,0.2-0.3,0.2-0.4,0.2s-0.3,0-0.6,0.1c-0.3,0-0.5,0.1-0.7,0.3c0-0.1,0-0.1-0.1-0.2c0,0-0.1-0.1-0.2-0.1
		c-0.4,0.3-0.7,0.5-0.9,0.4c0-0.3-0.2-0.4-0.6-0.4c-0.4,0-0.6-0.1-0.7-0.2c0-0.5-0.4-0.7-1.2-0.7c0-0.1,0-0.2,0-0.4
		c-0.2-0.3-0.5-0.6-1-1c-0.2-0.2-0.4-0.4-0.5-0.5c-0.1,0-0.2-0.1-0.4-0.4c-0.2-0.3-0.4-0.5-0.6-0.6c-0.1-0.2-0.4-0.5-0.8-0.9
		c-0.5-0.3-0.7-0.7-0.7-1.1C9.5,37,9.1,36.6,8.5,36c-0.5-0.6-1-1-1.3-1.3c-0.2-0.3-0.3-0.5-0.4-0.6H6.5c0-0.2-0.1-0.5-0.4-0.7
		c0.1-0.2,0-0.5-0.2-0.7c-0.2-0.3-0.3-0.5-0.3-0.6c-0.1,0-0.2-0.1-0.4-0.3c-0.2-0.2-0.3-0.2-0.4-0.2c-0.1-0.7-0.5-1.3-1.1-2
		c-0.1-0.2-0.5-0.9-1.1-1.8c0-0.2-0.2-0.6-0.5-1.1c0.1-0.2,0-0.5-0.4-0.9c0.1-0.2,0-0.5-0.2-0.7s-0.3-0.4-0.3-0.6
		c0-0.1,0-0.1-0.1-0.2c-0.1,0-0.2-0.1-0.2-0.1c0-0.2-0.1-0.4-0.2-0.7c-0.2-0.3-0.3-0.5-0.4-0.7c0-0.1,0-0.2,0-0.3c0-0.1,0-0.2,0-0.3
		c0,0-0.1-0.1-0.2-0.2c0,0.1-0.1,0-0.1,0v-0.2c0-0.1,0-0.3,0-0.7c0-0.4,0-0.7,0-0.9c0.2-0.2,0.3-0.3,0.4-0.4C0,19.2,0,18.9,0.1,18.6
		c0.1-0.1,0.2-0.1,0.4,0c0.1,0,0.1-0.2,0.1-0.5C0.9,18,1,17.9,1.1,17.9c0.1-0.1,0.2-0.2,0.5-0.2C1.8,17.6,2,17.4,2,17.3
		c0.2,0,0.5-0.1,0.9-0.4c1.2-0.1,1.9,0,2.1,0.4h0.4c0.1,0,0.1,0,0.1,0.1s0,0.1,0.1,0.1s0.1,0,0.2-0.1c0,0,0.1-0.1,0.2-0.1
		c0.3,0.2,0.7,0.5,1.2,1s0.8,0.9,1.2,1c0,0.2,0,0.2,0.1,0.2c0.2,0.1,0.3,0.4,0.4,0.8C9,20.8,9.2,21,9.3,21.1c-0.1,0.2,0,0.5,0.2,0.9
		c0.1,0.1,0.1,0.1,0.1,0.2s0,0.1,0,0.2s0,0.2,0,0.2s0.1,0.2,0.4,0.5c0.2,0.3,0.3,0.6,0.2,0.9c0.4,0.3,0.8,1,1.2,2
		c0.2,0.2,0.4,0.5,0.7,0.9c0.3,0.5,0.6,0.7,0.8,0.8c0.1-0.1,0.2-0.3,0.2-0.6c0.1-0.3,0.2-0.5,0.2-0.7l0.4-0.5c0-0.1,0-0.2,0-0.4
		s0-0.4,0.1-0.4c0.2-0.5,0.2-0.8,0-1c0.1-0.1,0.2-0.3,0.4-0.7c0.2-0.4,0.3-0.6,0.2-0.8c0.1-0.1,0.2-0.2,0.4-0.2
		c0-0.3,0.1-0.6,0.4-0.9c0.3-0.3,0.4-0.6,0.4-0.8c0.2-0.2,0.6-0.7,1.1-1.2c0.5-0.6,0.9-1,1.1-1.2c0-0.1,0-0.1-0.1-0.2
		c0,0-0.1-0.1-0.1-0.2c0.1,0,0.2,0,0.4,0c0.2,0,0.3,0,0.4,0l0.6-0.4c0.7-0.6,1.1-0.9,1.1-1c0.4,0.1,0.8-0.1,1-0.4
		c0.3-0.4,0.5-0.6,0.7-0.6s0.3,0,0.4,0c0.2,0,0.4-0.1,0.7-0.4c0.3-0.2,0.5-0.4,0.6-0.5c0.2,0,0.4-0.1,0.7-0.2
		c0.3-0.1,0.5-0.2,0.7-0.2c0.1,0,0.2-0.1,0.5-0.4c0.2,0.1,0.5,0,0.7-0.3c0.1-0.1,0.2-0.2,0.2-0.2c0.3-0.1,0.6-0.1,0.9-0.1
		c0.1,0,0.2,0,0.2,0.1c0.1,0,0.2,0.1,0.2,0.1c0.1,0,0.2,0,0.2-0.1c0.1,0,0.1-0.1,0.1-0.2c0.2,0,0.4,0,0.7-0.1s0.5-0.1,0.6-0.1
		c0.2-0.3,0.4-0.5,0.7-0.5c0.1,0,0.2,0.1,0.4,0.2c0.2,0,0.8,0,1.8-0.1c1-0.1,1.5,0,1.5,0.1c0.2,0.3,0.6,0.4,1.2,0.4s1,0.1,1.3,0.2
		c0.5-0.1,0.9,0,1.2,0.4c0.3,0,0.7,0.2,1.1,0.5c0.2,0.1,0.4,0.1,0.4,0.2c0,0,0.1,0.2,0.2,0.4c0.1,0.1,0.2,0.2,0.5,0.3
		C40,15.6,40.1,15.8,40.1,15.9z"/>
	<path fill="#F8CBAD" d="M59.3,15.9c0.3,0.2,0.6,0.4,0.7,0.4l0.4-0.2c0.6,0,1.4,0,2.3,0c1,0,1.8,0,2.3,0c0.4,0.2,0.7,0.3,0.7,0.2
		c0.1,0.1,0.1,0.3,0.1,0.6c0.1,0.2,0.2,0.3,0.4,0.4c0.2,0.1,0.3,0.3,0.4,0.4c0.1,0.2,0.2,0.4,0.2,0.4c0.2-0.2,0.3-0.2,0.4-0.1
		l0.1,0.9c0.1,0.1,0.2,0.2,0.5,0.4c0.1,0.7,0.2,1.1,0.5,1c0.1,0,0.1,0,0.2-0.1c0-0.1,0.1-0.2,0.2-0.2s0.2,0.1,0.5,0.4
		c0.1,0,0.2,0,0.5,0c0.5,0.1,0.8,0,1-0.1c0,0.3,0.1,0.5,0.4,0.5c0.1,0.1,0.2,0.1,0.2,0c0.1-0.1,0.2-0.1,0.2-0.1v0.4
		c0.7,0.3,1.2,0.7,1.5,1c0-0.1,0.1-0.1,0.4,0c1.1,1.1,1.7,1.7,1.8,2c0.1,0.1,0.3,0.2,0.6,0.4c0,0.1,0.1,0.3,0.3,0.6
		c0.2,0.3,0.4,0.5,0.7,0.6c0.4,0.6,0.6,1,0.6,1.2c0.1,0.1,0.2,0.2,0.2,0.4c0,0.2,0,0.3,0.1,0.4c0,0.1,0.1,0.2,0.2,0.2
		c0.1,0.1,0.2,0.2,0.2,0.2c0,0.1,0,0.3-0.1,0.6c0,0.2,0,0.5,0.1,0.9s0.1,0.7,0.1,0.9c0,0.1,0,0.3-0.1,0.7c-0.1,0.4-0.1,0.6,0,0.8
		c-0.2,0.2-0.3,0.5-0.5,1s-0.4,0.8-0.6,1c-0.1,0.2-0.3,0.6-0.6,0.9c-0.3,0.4-0.5,0.6-0.6,0.8h-0.3c-0.4,0.3-1,0.8-1.8,1.5
		s-1.4,1.2-1.8,1.5c0.1,0.2,0.1,0.4,0,0.4s-0.2-0.1-0.5-0.3c-0.6,0.3-1,0.4-1.2,0.1c-0.7,0.5-1,0.9-1.1,1.1
		c-0.4-0.2-0.9-0.1-1.5,0.2c-0.2,0.2-0.4,0.3-0.5,0.4c-0.1,0-0.2,0-0.2,0c-0.1,0-0.1,0-0.1,0.1c-0.1,0-0.2,0.1-0.3,0.2
		c-0.1,0.1-0.2,0.2-0.3,0.2s-0.2,0-0.4-0.1c-0.2,0-0.4,0-0.4,0.1c-0.2,0.2-0.3,0.3-0.4,0.3c-0.1,0.1-0.3,0.2-0.7,0.2
		c-0.4,0.1-0.6,0.2-0.8,0.4c-0.6-0.1-1-0.1-1.2,0c-0.2,0.3-0.4,0.4-0.5,0.4c-0.1-0.2-0.2-0.2-0.5-0.2c-0.2,0-0.4,0.1-0.5,0.2
		c-1.2-0.2-1.9-0.2-2.1,0c-0.5-0.2-0.8-0.2-0.9,0c-0.2-0.1-0.5-0.1-0.9-0.1s-0.6-0.1-0.6-0.3c-0.1,0-0.3,0-0.6,0s-0.5,0-0.6-0.1
		c-0.3,0.2-0.7,0.1-1-0.1c-0.2-0.1-0.3-0.1-0.4-0.2C54.1,41,54,41,53.9,41s-0.2,0-0.3,0c-0.4-0.3-0.7-0.5-0.9-0.4
		c-0.2-0.1-0.3-0.2-0.4-0.4h-0.2c-0.4-0.4-0.8-0.7-1.2-0.7c-0.3-0.3-0.7-0.5-1-0.6c-0.2-0.4-0.5-0.9-1-1.4s-0.8-0.8-0.9-1
		c0-0.2-0.1-0.4-0.4-0.7c0-0.1,0-0.1,0.1-0.2c0,0,0.1-0.1,0.1-0.2c-0.1-0.1-0.2-0.1-0.4-0.2c-0.2,0-0.3-0.1-0.3-0.2
		c0-0.1,0-0.2,0.2-0.4c0-0.2-0.1-0.4-0.2-0.6c-0.2-0.2-0.2-0.4-0.2-0.5c-0.2-0.5-0.3-0.8-0.4-0.9c0-0.3,0-0.6-0.1-0.7
		c0-0.1,0-0.1,0.1-0.2c0.1,0,0.1-0.1,0-0.2c0-0.1-0.1-0.2-0.2-0.2c-0.1,0-0.1,0-0.1-0.1c-0.1-0.3,0-0.5,0.2-0.9
		c0.1-0.2,0.1-0.5,0.1-0.9s-0.1-0.7-0.1-0.9c0-0.1,0.1-0.2,0.2-0.4c0.1-0.2,0.2-0.3,0.2-0.3s0-0.1,0-0.2s0-0.2,0.1-0.3
		c0-0.2,0.2-0.5,0.5-0.9l0.6-0.9c0.4-0.5,0.7-0.8,0.7-0.9s0-0.2,0-0.3c0-0.1,0-0.2,0.1-0.3c0-0.1,0.2-0.2,0.4-0.2
		c0.4-0.4,0.7-0.7,0.9-1c0.1,0,0.1,0,0.2-0.1c0-0.1,0.1-0.2,0.1-0.2c0.1-0.1,0.3-0.3,0.6-0.6c0.3-0.3,0.5-0.5,0.6-0.7
		c0.1,0,0.1,0,0.2-0.1c0,0,0.1-0.1,0.2-0.1c0.1-0.1,0.2-0.2,0.3-0.4c0.1-0.2,0.2-0.3,0.2-0.4s0.2-0.1,0.4-0.2c0.2,0,0.4-0.1,0.4-0.2
		c0.1-0.1,0.2-0.2,0.4-0.4c0.2-0.2,0.3-0.3,0.4-0.4c0.2,0,0.3,0,0.4,0l1.5-1.5c0.1,0,0.3-0.2,0.7-0.5h0.2c0.7-0.5,1.3-0.8,1.8-0.9
		C58.8,16.3,59,16,59.3,15.9z M58.6,16.7c0.2-0.4,0.4-0.7,0.6-0.7c0.3,0.2,0.6,0.4,0.7,0.4l0.4-0.2c0.6,0,1.4,0,2.3,0
		c1,0,1.8,0,2.3,0c0.4,0.2,0.7,0.3,0.7,0.2c0.1,0.1,0.1,0.3,0.1,0.6c0.1,0.2,0.2,0.3,0.4,0.4c0.2,0.1,0.3,0.3,0.4,0.4
		c0.1,0.2,0.2,0.4,0.2,0.4c0.2-0.2,0.3-0.2,0.4-0.1l0.1,0.9c0.1,0.1,0.2,0.2,0.5,0.4c0.1,0.7,0.2,1.1,0.5,1c0.1,0,0.1,0,0.2-0.1
		c0-0.1,0.1-0.2,0.2-0.2s0.2,0.1,0.2,0.2c0.1,0.1,0.2,0.2,0.2,0.2c0.1,0,0.2,0,0.5,0c0.5,0.1,0.8,0,1-0.1c0,0.3,0.1,0.5,0.4,0.5
		c0.1,0.1,0.2,0.1,0.2,0c0.1-0.1,0.2-0.1,0.2-0.1v0.4c0.7,0.3,1.2,0.7,1.5,1c0-0.1,0.1-0.1,0.4,0c1.1,1.1,1.7,1.7,1.8,2
		c0.1,0.1,0.3,0.2,0.6,0.4c0,0.1,0.1,0.3,0.3,0.6c0.2,0.3,0.4,0.5,0.7,0.6c0.4,0.6,0.6,1,0.6,1.2c0.1,0.1,0.2,0.2,0.2,0.4
		c0,0.2,0,0.3,0.1,0.4c0,0.1,0.1,0.2,0.2,0.2c0.1,0.1,0.2,0.2,0.2,0.2c0,0.1,0,0.3-0.1,0.6c0,0.2,0,0.5,0.1,0.9s0.1,0.7,0.1,0.9
		c0,0.1,0,0.3-0.1,0.7c-0.1,0.4-0.1,0.6,0,0.8c-0.2,0.2-0.3,0.5-0.5,1s-0.4,0.8-0.6,1c-0.1,0.2-0.3,0.6-0.6,0.9
		c-0.3,0.4-0.5,0.6-0.6,0.8h-0.3c-0.4,0.3-1,0.8-1.8,1.5s-1.4,1.2-1.8,1.5c0.1,0.2,0.1,0.4,0,0.4s-0.2-0.1-0.5-0.3
		c-0.6,0.3-1,0.4-1.2,0.1c-0.7,0.5-1,0.9-1.1,1.1c-0.4-0.2-0.9-0.1-1.5,0.2c-0.2,0.2-0.4,0.3-0.5,0.4c-0.1,0-0.2,0-0.2,0
		c-0.1,0-0.1,0-0.1,0.1c-0.1,0-0.2,0.1-0.3,0.2c-0.1,0.1-0.2,0.2-0.3,0.2s-0.2,0-0.4-0.1c-0.2,0-0.4,0-0.4,0.1
		c-0.2,0.2-0.3,0.3-0.4,0.3c-0.1,0.1-0.3,0.2-0.7,0.2c-0.4,0.1-0.6,0.2-0.8,0.4c-0.6-0.1-1-0.1-1.2,0c-0.2,0.3-0.4,0.4-0.5,0.4
		c-0.1-0.2-0.2-0.2-0.5-0.2c-0.2,0-0.4,0.1-0.5,0.2c-1.2-0.2-1.9-0.2-2.1,0c-0.5-0.2-0.8-0.2-0.9,0c-0.2-0.1-0.5-0.1-0.9-0.1
		s-0.6-0.1-0.6-0.3c-0.1,0-0.3,0-0.6,0s-0.5,0-0.6-0.1c-0.3,0.2-0.7,0.1-1-0.1c-0.2-0.1-0.3-0.1-0.4-0.2C54.1,41,54,41,53.9,41
		s-0.2,0-0.3,0c-0.4-0.3-0.7-0.5-0.9-0.4c-0.2-0.1-0.3-0.2-0.4-0.4h-0.2c-0.4-0.4-0.8-0.7-1.2-0.7c-0.3-0.3-0.7-0.5-1-0.6
		c-0.2-0.4-0.5-0.9-1-1.4s-0.8-0.8-0.9-1c0-0.2-0.1-0.4-0.4-0.7c0-0.1,0-0.1,0.1-0.2c0,0,0.1-0.1,0.1-0.2c-0.1-0.1-0.2-0.1-0.4-0.2
		c-0.2,0-0.3-0.1-0.3-0.2c0-0.1,0-0.2,0.2-0.4c0-0.2-0.1-0.4-0.2-0.6c-0.2-0.2-0.2-0.4-0.2-0.5c-0.2-0.5-0.3-0.8-0.4-0.9
		c0-0.3,0-0.6-0.1-0.7c0-0.1,0-0.1,0.1-0.2c0.1,0,0.1-0.1,0-0.2c0-0.1-0.1-0.2-0.2-0.2c-0.1,0-0.1,0-0.1-0.1c-0.1-0.3,0-0.5,0.2-0.9
		c0.1-0.2,0.1-0.5,0.1-0.9s-0.1-0.7-0.1-0.9c0-0.1,0.1-0.2,0.2-0.4c0.1-0.2,0.2-0.3,0.2-0.3s0-0.1,0-0.2s0-0.2,0.1-0.3
		c0-0.2,0.2-0.5,0.5-0.9l0.6-0.9c0.4-0.5,0.7-0.8,0.7-0.9s0-0.2,0-0.3c0-0.1,0-0.2,0.1-0.3c0-0.1,0.2-0.2,0.4-0.2
		c0.4-0.4,0.7-0.7,0.9-1c0.1,0,0.1,0,0.2-0.1c0-0.1,0.1-0.2,0.1-0.2c0.1-0.1,0.3-0.3,0.6-0.6c0.3-0.3,0.5-0.5,0.6-0.7
		c0.1,0,0.1,0,0.2-0.1c0,0,0.1-0.1,0.2-0.1c0.1-0.1,0.2-0.2,0.3-0.4c0.1-0.2,0.2-0.3,0.2-0.4s0.2-0.1,0.4-0.2c0.2,0,0.4-0.1,0.4-0.2
		c0.1-0.1,0.2-0.2,0.4-0.4c0.2-0.2,0.3-0.3,0.4-0.4c0.2,0,0.3,0,0.4,0c0.2-0.2,0.4-0.4,0.7-0.7c0.3-0.3,0.6-0.6,0.7-0.7
		c0.1,0,0.3-0.2,0.7-0.5h0.2C57.4,17,58.1,16.8,58.6,16.7z M62.9,24.9c-0.1,0-0.3,0-0.6,0.1c-0.2-0.2-0.5-0.1-0.7,0.1
		s-0.5,0.3-0.7,0.2c-0.4,0.3-0.7,0.5-0.7,0.5c-0.3,0.2-0.6,0.4-0.7,0.5l-0.1,0.1c-0.1,0-0.2,0.1-0.4,0.2s-0.4,0.2-0.4,0.3
		c-0.1,0.1-0.1,0.2-0.1,0.2c0,0.1,0,0.1-0.1,0.2c0,0-0.1,0.1-0.2,0.1c-0.1,0-0.2,0.1-0.2,0.1s-0.1,0.2-0.3,0.4
		c-0.1,0.1-0.2,0.2-0.3,0.3c-0.1,0.1-0.2,0.2-0.3,0.3c-0.7,0.7-1.2,1.2-1.5,1.5v0.4c-0.1,0.2-0.2,0.3-0.4,0.4c0,0.2-0.1,0.5-0.3,0.8
		s-0.2,0.6-0.2,0.8c0.3,0.4,0.5,0.7,0.5,0.9c0.1,0,0.2,0.1,0.4,0.4c0.2,0.2,0.4,0.4,0.6,0.5c0.2-0.1,0.8-0.1,1.8,0s1.5,0,1.5-0.4
		c0.1,0,0.2,0,0.2,0.1c0.1,0.1,0.2,0.1,0.2,0.1c0-0.1,0-0.1,0.1-0.2c0.1,0,0.2-0.1,0.2-0.1c0.1,0.1,0.2,0.1,0.2,0.1
		c0.2-0.1,0.7-0.1,1.6-0.1c0.1-0.2,0.3-0.4,0.7-0.4c0.2,0,0.4,0,0.5-0.1c0.1,0,0.2,0,0.2-0.1c0.3-0.2,0.6-0.3,0.9-0.2
		c0-0.1,0.3-0.2,1-0.4l0.4-0.2c0.8-0.5,1.3-0.8,1.4-0.9c0.2,0,0.3,0,0.4,0c0.8-0.7,1.4-1.1,1.6-1.2c0-0.1,0.1-0.2,0.2-0.3
		c0.1-0.1,0.2-0.3,0.2-0.4c0-0.2-0.2-0.3-0.6-0.4C68.3,29,68.1,29,68,29c0,0.1-0.4,0.1-1.1,0c-0.1,0-0.2,0-0.3,0c-0.1,0-0.2,0-0.3,0
		c-0.1,0-0.2,0-0.4-0.1c-0.2-0.1-0.4-0.1-0.6,0c-0.1-0.2-0.3-0.3-0.6-0.5c-0.3-0.2-0.5-0.3-0.6-0.5C64,27.8,64,27.7,64,27.5
		c0-0.2,0-0.3-0.1-0.4c-0.3,0.1-0.5,0.1-0.5,0c-0.1,0-0.1-0.2-0.1-0.6c0-0.1-0.1-0.1-0.2-0.1c-0.2,0-0.3,0-0.4-0.1
		C62.9,25.9,63,25.5,62.9,24.9z M62.3,25c-0.2-0.2-0.5-0.1-0.7,0.1s-0.5,0.3-0.7,0.2c-0.4,0.3-0.7,0.5-0.7,0.5
		c-0.3,0.2-0.6,0.4-0.7,0.5l-0.1,0.1c-0.1,0-0.2,0.1-0.4,0.2s-0.4,0.2-0.4,0.3c-0.1,0.1-0.1,0.2-0.1,0.2c0,0.1,0,0.1-0.1,0.2
		c0,0-0.1,0.1-0.2,0.1c-0.1,0-0.2,0.1-0.2,0.1s-0.1,0.2-0.3,0.4c-0.1,0.1-0.2,0.2-0.3,0.3c-0.1,0.1-0.2,0.2-0.3,0.3
		c-0.7,0.7-1.2,1.2-1.5,1.5v0.4c-0.1,0.2-0.2,0.3-0.4,0.4c0,0.2-0.1,0.5-0.3,0.8s-0.2,0.6-0.2,0.8c0.3,0.4,0.5,0.7,0.5,0.9
		c0.1,0.1,0.2,0.2,0.4,0.4s0.4,0.4,0.6,0.4c0.2-0.1,0.8-0.1,1.8,0s1.5,0,1.5-0.4c0.1,0,0.2,0,0.2,0.1c0.1,0.1,0.2,0.1,0.2,0.1
		c0-0.1,0-0.1,0.1-0.2c0.1,0,0.2-0.1,0.2-0.1c0.1,0.1,0.2,0.1,0.2,0.1c0.2-0.1,0.7-0.1,1.6-0.1c0.1-0.2,0.3-0.4,0.7-0.4
		c0.2,0,0.4,0,0.5-0.1c0.1,0,0.2,0,0.2-0.1c0.3-0.2,0.6-0.3,0.9-0.2c0-0.1,0.3-0.2,1-0.4l0.4-0.2c0.8-0.5,1.3-0.8,1.4-0.9
		c0.2,0,0.3,0,0.4,0c0.8-0.7,1.4-1.1,1.6-1.2c0-0.1,0.1-0.2,0.2-0.3c0.1-0.1,0.2-0.3,0.2-0.4c0-0.2-0.2-0.3-0.6-0.4
		c-0.6,0-0.8,0-0.9,0c0,0.1-0.4,0.1-1.1,0c-0.1,0-0.2,0-0.3,0c-0.1,0-0.2,0-0.3,0c-0.1,0-0.2,0-0.4-0.1c-0.2-0.1-0.4-0.1-0.6,0
		c-0.1-0.2-0.3-0.3-0.6-0.5c-0.3-0.2-0.5-0.3-0.6-0.5C64,27.8,64,27.7,64,27.5c0-0.2,0-0.3-0.1-0.4c-0.3,0.1-0.5,0.1-0.5,0
		c-0.1,0-0.1-0.2-0.1-0.6c0-0.1-0.1-0.1-0.2-0.1c-0.2,0-0.3,0-0.4-0.1c0.2-0.3,0.3-0.8,0.2-1.4C62.9,24.9,62.6,24.9,62.3,25z"/>
	<path fill="#F8CBAD" d="M96.5,15.9c0.3,0.2,0.6,0.4,0.7,0.4l0.4-0.2c0.6,0,1.4,0,2.3,0c1,0,1.8,0,2.3,0c0.4,0.2,0.7,0.3,0.7,0.2
		c0.1,0.1,0.1,0.3,0.1,0.6c0.1,0.2,0.2,0.3,0.4,0.4c0.2,0.1,0.3,0.3,0.4,0.4c0.1,0.2,0.2,0.4,0.2,0.4c0.2-0.2,0.3-0.2,0.4-0.1
		l0.1,0.9c0.1,0.1,0.2,0.2,0.5,0.4c0.1,0.7,0.2,1.1,0.5,1c0.1,0,0.1,0,0.2-0.1c0-0.1,0.1-0.2,0.2-0.2s0.2,0.1,0.5,0.4
		c0.1,0,0.2,0,0.5,0c0.5,0.1,0.8,0,1-0.1c0,0.3,0.1,0.5,0.4,0.5c0.1,0.1,0.2,0.1,0.2,0c0.1-0.1,0.2-0.1,0.2-0.1v0.4
		c0.7,0.3,1.2,0.7,1.5,1c0-0.1,0.1-0.1,0.4,0c1.1,1.1,1.7,1.7,1.8,2c0.1,0.1,0.3,0.2,0.6,0.4c0,0.1,0.1,0.3,0.3,0.6
		c0.2,0.3,0.4,0.5,0.7,0.6c0.4,0.6,0.6,1,0.6,1.2c0.1,0.1,0.2,0.2,0.2,0.4c0,0.2,0,0.3,0.1,0.4c0,0.1,0.1,0.2,0.2,0.2
		c0.1,0.1,0.2,0.2,0.2,0.2c0,0.1,0,0.3-0.1,0.6c0,0.2,0,0.5,0.1,0.9s0.1,0.7,0.1,0.9c0,0.1,0,0.3-0.1,0.7c-0.1,0.4-0.1,0.6,0,0.8
		c-0.2,0.2-0.3,0.5-0.5,1s-0.4,0.8-0.6,1c-0.1,0.2-0.3,0.6-0.6,0.9c-0.3,0.4-0.5,0.6-0.6,0.8h-0.3c-0.4,0.3-1,0.8-1.8,1.5
		s-1.4,1.2-1.8,1.5c0.1,0.2,0.1,0.4,0,0.4s-0.2-0.1-0.5-0.3c-0.6,0.3-1,0.4-1.2,0.1c-0.7,0.5-1,0.9-1.1,1.1
		c-0.4-0.2-0.9-0.1-1.5,0.2c-0.2,0.2-0.4,0.3-0.5,0.4c-0.1,0-0.2,0-0.2,0c-0.1,0-0.1,0-0.1,0.1c-0.1,0-0.2,0.1-0.3,0.2
		c-0.1,0.1-0.2,0.2-0.3,0.2s-0.2,0-0.4-0.1c-0.2,0-0.4,0-0.4,0.1c-0.2,0.2-0.3,0.3-0.4,0.3c-0.1,0.1-0.3,0.2-0.7,0.2
		c-0.4,0.1-0.6,0.2-0.8,0.4c-0.6-0.1-1-0.1-1.2,0c-0.2,0.3-0.4,0.4-0.5,0.4c-0.1-0.2-0.2-0.2-0.5-0.2s-0.4,0.1-0.5,0.2
		c-1.2-0.2-1.9-0.2-2.1,0c-0.5-0.2-0.8-0.2-0.9,0c-0.2-0.1-0.5-0.1-0.9-0.1s-0.6-0.1-0.6-0.3c-0.1,0-0.3,0-0.6,0
		c-0.3,0-0.5,0-0.6-0.1c-0.3,0.2-0.7,0.1-1-0.1c-0.2-0.1-0.3-0.1-0.4-0.2c-0.1,0-0.2-0.1-0.3-0.1c-0.1,0-0.2,0-0.3,0
		c-0.4-0.3-0.7-0.5-0.9-0.4c-0.2-0.1-0.3-0.2-0.4-0.4h-0.2C88.4,40.3,88,40,87.6,40c-0.3-0.3-0.7-0.5-1-0.6c-0.2-0.4-0.5-0.9-1-1.4
		s-0.8-0.8-0.9-1c0-0.2-0.1-0.4-0.4-0.7c0-0.1,0-0.1,0.1-0.2c0,0,0.1-0.1,0.1-0.2c-0.1-0.1-0.2-0.1-0.4-0.2c-0.2,0-0.3-0.1-0.3-0.2
		c0-0.1,0-0.2,0.2-0.4c0-0.2-0.1-0.4-0.2-0.6c-0.2-0.2-0.2-0.4-0.2-0.5c-0.2-0.5-0.3-0.8-0.4-0.9c0-0.3,0-0.6-0.1-0.7
		c0-0.1,0-0.1,0.1-0.2c0.1,0,0.1-0.1,0-0.2c0-0.1-0.1-0.2-0.2-0.2s-0.1,0-0.1-0.1c-0.1-0.3,0-0.5,0.2-0.9c0.1-0.2,0.1-0.5,0.1-0.9
		s-0.1-0.7-0.1-0.9c0-0.1,0.1-0.2,0.2-0.4c0.1-0.2,0.2-0.3,0.2-0.3s0-0.1,0-0.2s0-0.2,0.1-0.3c0-0.2,0.2-0.5,0.5-0.9l0.6-0.9
		c0.4-0.5,0.7-0.8,0.7-0.9s0-0.2,0-0.3c0-0.1,0-0.2,0.1-0.3c0-0.1,0.2-0.2,0.4-0.2c0.4-0.4,0.7-0.7,0.9-1c0.1,0,0.1,0,0.2-0.1
		c0-0.1,0.1-0.2,0.1-0.2c0.1-0.1,0.3-0.3,0.6-0.6c0.3-0.3,0.5-0.5,0.6-0.7c0.1,0,0.1,0,0.2-0.1c0,0,0.1-0.1,0.2-0.1
		c0.1-0.1,0.2-0.2,0.3-0.4c0.1-0.2,0.2-0.3,0.2-0.4s0.2-0.1,0.4-0.2c0.2,0,0.4-0.1,0.4-0.2c0.1-0.1,0.2-0.2,0.4-0.4
		c0.2-0.2,0.3-0.3,0.4-0.4c0.2,0,0.3,0,0.4,0l1.5-1.5c0.1,0,0.3-0.2,0.7-0.5H94c0.7-0.5,1.3-0.8,1.8-0.9C96,16.3,96.3,16,96.5,15.9z
		 M95.9,16.7c0.2-0.4,0.4-0.7,0.6-0.7c0.3,0.2,0.6,0.4,0.7,0.4l0.4-0.2c0.6,0,1.4,0,2.3,0c1,0,1.8,0,2.3,0c0.4,0.2,0.7,0.3,0.7,0.2
		c0.1,0.1,0.1,0.3,0.1,0.6c0.1,0.2,0.2,0.3,0.4,0.4c0.2,0.1,0.3,0.3,0.4,0.4c0.1,0.2,0.2,0.4,0.2,0.4c0.2-0.2,0.3-0.2,0.4-0.1
		l0.1,0.9c0.1,0.1,0.2,0.2,0.5,0.4c0.1,0.7,0.2,1.1,0.5,1c0.1,0,0.1,0,0.2-0.1c0-0.1,0.1-0.2,0.2-0.2s0.2,0.1,0.2,0.2
		c0.1,0.1,0.2,0.2,0.2,0.2c0.1,0,0.2,0,0.5,0c0.5,0.1,0.8,0,1-0.1c0,0.3,0.1,0.5,0.4,0.5c0.1,0.1,0.2,0.1,0.2,0
		c0.1-0.1,0.2-0.1,0.2-0.1v0.4c0.7,0.3,1.2,0.7,1.5,1c0-0.1,0.1-0.1,0.4,0c1.1,1.1,1.7,1.7,1.8,2c0.1,0.1,0.3,0.2,0.6,0.4
		c0,0.1,0.1,0.3,0.3,0.6c0.2,0.3,0.4,0.5,0.7,0.6c0.4,0.6,0.6,1,0.6,1.2c0.1,0.1,0.2,0.2,0.2,0.4c0,0.2,0,0.3,0.1,0.4
		c0,0.1,0.1,0.2,0.2,0.2c0.1,0.1,0.2,0.2,0.2,0.2c0,0.1,0,0.3-0.1,0.6c0,0.2,0,0.5,0.1,0.9s0.1,0.7,0.1,0.9c0,0.1,0,0.3-0.1,0.7
		c-0.1,0.4-0.1,0.6,0,0.8c-0.2,0.2-0.3,0.5-0.5,1s-0.4,0.8-0.6,1c-0.1,0.2-0.3,0.6-0.6,0.9c-0.3,0.4-0.5,0.6-0.6,0.8h-0.3
		c-0.4,0.3-1,0.8-1.8,1.5s-1.4,1.2-1.8,1.5c0.1,0.2,0.1,0.4,0,0.4s-0.2-0.1-0.5-0.3c-0.6,0.3-1,0.4-1.2,0.1c-0.7,0.5-1,0.9-1.1,1.1
		c-0.4-0.2-0.9-0.1-1.5,0.2c-0.2,0.2-0.4,0.3-0.5,0.4c-0.1,0-0.2,0-0.2,0c-0.1,0-0.1,0-0.1,0.1c-0.1,0-0.2,0.1-0.3,0.2
		c-0.1,0.1-0.2,0.2-0.3,0.2s-0.2,0-0.4-0.1c-0.2,0-0.4,0-0.4,0.1c-0.2,0.2-0.3,0.3-0.4,0.3c-0.1,0.1-0.3,0.2-0.7,0.2
		c-0.4,0.1-0.6,0.2-0.8,0.4c-0.6-0.1-1-0.1-1.2,0c-0.2,0.3-0.4,0.4-0.5,0.4c-0.1-0.2-0.2-0.2-0.5-0.2s-0.4,0.1-0.5,0.2
		c-1.2-0.2-1.9-0.2-2.1,0c-0.5-0.2-0.8-0.2-0.9,0c-0.2-0.1-0.5-0.1-0.9-0.1s-0.6-0.1-0.6-0.3c-0.1,0-0.3,0-0.6,0
		c-0.3,0-0.5,0-0.6-0.1c-0.3,0.2-0.7,0.1-1-0.1c-0.2-0.1-0.3-0.1-0.4-0.2c-0.1,0-0.2-0.1-0.3-0.1c-0.1,0-0.2,0-0.3,0
		c-0.4-0.3-0.7-0.5-0.9-0.4c-0.2-0.1-0.3-0.2-0.4-0.4h-0.2c-0.4-0.4-0.8-0.7-1.2-0.7c-0.3-0.3-0.7-0.5-1-0.6c-0.2-0.4-0.5-0.9-1-1.4
		s-0.8-0.8-0.9-1c0-0.2-0.1-0.4-0.4-0.7c0-0.1,0-0.1,0.1-0.2c0,0,0.1-0.1,0.1-0.2c-0.1-0.1-0.2-0.1-0.4-0.2c-0.2,0-0.3-0.1-0.3-0.2
		c0-0.1,0-0.2,0.2-0.4c0-0.2-0.1-0.4-0.2-0.6c-0.2-0.2-0.2-0.4-0.2-0.5c-0.2-0.5-0.3-0.8-0.4-0.9c0-0.3,0-0.6-0.1-0.7
		c0-0.1,0-0.1,0.1-0.2c0.1,0,0.1-0.1,0-0.2c0-0.1-0.1-0.2-0.2-0.2s-0.1,0-0.1-0.1c-0.1-0.3,0-0.5,0.2-0.9c0.1-0.2,0.1-0.5,0.1-0.9
		S83,29.3,83,29.1c0-0.1,0.1-0.2,0.2-0.4c0.1-0.2,0.2-0.3,0.2-0.3s0-0.1,0-0.2s0-0.2,0.1-0.3c0-0.2,0.2-0.5,0.5-0.9l0.6-0.9
		c0.4-0.5,0.7-0.8,0.7-0.9s0-0.2,0-0.3c0-0.1,0-0.2,0.1-0.3c0-0.1,0.2-0.2,0.4-0.2c0.4-0.4,0.7-0.7,0.9-1c0.1,0,0.1,0,0.2-0.1
		c0-0.1,0.1-0.2,0.1-0.2c0.1-0.1,0.3-0.3,0.6-0.6c0.3-0.3,0.5-0.5,0.6-0.7c0.1,0,0.1,0,0.2-0.1c0,0,0.1-0.1,0.2-0.1
		c0.1-0.1,0.2-0.2,0.3-0.4c0.1-0.2,0.2-0.3,0.2-0.4s0.2-0.1,0.4-0.2c0.2,0,0.4-0.1,0.4-0.2c0.1-0.1,0.2-0.2,0.4-0.4
		c0.2-0.2,0.3-0.3,0.4-0.4c0.2,0,0.3,0,0.4,0c0.2-0.2,0.4-0.4,0.7-0.7c0.3-0.3,0.6-0.6,0.7-0.7c0.1,0,0.3-0.2,0.7-0.5H94
		C94.7,17,95.3,16.8,95.9,16.7z M99.6,25c-0.2-0.2-0.5-0.1-0.7,0.1s-0.5,0.3-0.7,0.2c-0.4,0.3-0.7,0.5-0.7,0.5
		c-0.3,0.2-0.6,0.4-0.7,0.5l-0.1,0.1c-0.1,0-0.2,0.1-0.4,0.2c-0.2,0.1-0.4,0.2-0.4,0.3c-0.1,0.1-0.1,0.2-0.1,0.2
		c0,0.1,0,0.1-0.1,0.2c0,0-0.1,0.1-0.2,0.1s-0.2,0.1-0.2,0.1s-0.1,0.2-0.3,0.4c-0.1,0.1-0.2,0.2-0.3,0.3c-0.1,0.1-0.2,0.2-0.3,0.3
		c-0.7,0.7-1.2,1.2-1.5,1.5v0.4c-0.1,0.2-0.2,0.3-0.4,0.4c0,0.2-0.1,0.5-0.3,0.8C92,31.9,92,32.2,92,32.4c0.3,0.4,0.5,0.7,0.5,0.9
		c0.1,0.1,0.2,0.2,0.4,0.4c0.2,0.2,0.4,0.4,0.6,0.4c0.2-0.1,0.8-0.1,1.8,0s1.5,0,1.5-0.4c0.1,0,0.2,0,0.2,0.1C96.8,34,96.9,34,97,34
		c0-0.1,0-0.1,0.1-0.2c0.1,0,0.2-0.1,0.2-0.1c0.1,0.1,0.2,0.1,0.2,0.1c0.2-0.1,0.7-0.1,1.6-0.1c0.1-0.2,0.3-0.4,0.7-0.4
		c0.2,0,0.4,0,0.5-0.1c0.1,0,0.2,0,0.2-0.1c0.3-0.2,0.6-0.3,0.9-0.2c0-0.1,0.3-0.2,1-0.4l0.4-0.2c0.8-0.5,1.3-0.8,1.4-0.9
		c0.2,0,0.3,0,0.4,0c0.8-0.7,1.4-1.1,1.6-1.2c0-0.1,0.1-0.2,0.2-0.3c0.1-0.1,0.2-0.3,0.2-0.4c0-0.2-0.2-0.3-0.6-0.4
		s-0.7-0.1-0.7-0.1c0,0.1-0.4,0.1-1.1,0c-0.1,0-0.2,0-0.3,0c-0.1,0-0.2,0-0.3,0c-0.1,0-0.2,0-0.4-0.1c-0.2-0.1-0.4-0.1-0.6,0
		c-0.1-0.2-0.3-0.3-0.6-0.5c-0.3-0.2-0.5-0.3-0.6-0.5c-0.1-0.1-0.1-0.2-0.1-0.4c0-0.2,0-0.3-0.1-0.4c-0.3,0.1-0.5,0.1-0.5,0
		c-0.1,0-0.1-0.2-0.1-0.6c0-0.1-0.1-0.1-0.2-0.1c-0.2,0-0.3,0-0.4-0.1c0.2-0.3,0.3-0.8,0.2-1.4C100.1,24.9,99.9,24.9,99.6,25z
		 M100.2,24.9c-0.1,0-0.3,0-0.6,0.1c-0.2-0.2-0.5-0.1-0.7,0.1s-0.5,0.3-0.7,0.2c-0.4,0.3-0.7,0.5-0.7,0.5c-0.3,0.2-0.6,0.4-0.7,0.5
		l-0.1,0.1c-0.1,0-0.2,0.1-0.4,0.2c-0.2,0.1-0.4,0.2-0.4,0.3c-0.1,0.1-0.1,0.2-0.1,0.2c0,0.1,0,0.1-0.1,0.2c0,0-0.1,0.1-0.2,0.1
		s-0.2,0.1-0.2,0.1s-0.1,0.2-0.3,0.4c-0.1,0.1-0.2,0.2-0.3,0.3c-0.1,0.1-0.2,0.2-0.3,0.3c-0.7,0.7-1.2,1.2-1.5,1.5v0.4
		c-0.1,0.2-0.2,0.3-0.4,0.4c0,0.2-0.1,0.5-0.3,0.8C92,31.9,92,32.2,92,32.4c0.3,0.4,0.5,0.7,0.5,0.9c0.1,0,0.2,0.1,0.4,0.4
		c0.2,0.2,0.4,0.4,0.6,0.5c0.2-0.1,0.8-0.1,1.8,0s1.5,0,1.5-0.4c0.1,0,0.2,0,0.2,0.1C96.8,34,96.9,34,97,34c0-0.1,0-0.1,0.1-0.2
		c0.1,0,0.2-0.1,0.2-0.1c0.1,0.1,0.2,0.1,0.2,0.1c0.2-0.1,0.7-0.1,1.6-0.1c0.1-0.2,0.3-0.4,0.7-0.4c0.2,0,0.4,0,0.5-0.1
		c0.1,0,0.2,0,0.2-0.1c0.3-0.2,0.6-0.3,0.9-0.2c0-0.1,0.3-0.2,1-0.4l0.4-0.2c0.8-0.5,1.3-0.8,1.4-0.9c0.2,0,0.3,0,0.4,0
		c0.8-0.7,1.4-1.1,1.6-1.2c0-0.1,0.1-0.2,0.2-0.3c0.1-0.1,0.2-0.3,0.2-0.4c0-0.2-0.2-0.3-0.6-0.4s-0.7-0.1-0.7-0.1
		c0,0.1-0.4,0.1-1.1,0c-0.1,0-0.2,0-0.3,0c-0.1,0-0.2,0-0.3,0c-0.1,0-0.2,0-0.4-0.1c-0.2-0.1-0.4-0.1-0.6,0
		c-0.1-0.2-0.3-0.3-0.6-0.5c-0.3-0.2-0.5-0.3-0.6-0.5c-0.1-0.1-0.1-0.2-0.1-0.4c0-0.2,0-0.3-0.1-0.4c-0.3,0.1-0.5,0.1-0.5,0
		c-0.1,0-0.1-0.2-0.1-0.6c0-0.1-0.1-0.1-0.2-0.1c-0.2,0-0.3,0-0.4-0.1C100.2,25.9,100.3,25.5,100.2,24.9z"/>
	<path fill="#F8CBAD" d="M152.4,11.1c-0.1-0.2-0.1-0.4,0-0.4c0.2-0.1,0.4,0,0.6,0.3c0.3-0.1,0.8,0.1,1.5,0.6c0.2,0,0.3,0,0.4,0
		c0.1,0.1,0.3,0.3,0.6,0.6s0.6,0.6,0.8,0.7c0.1,0.2,0.4,0.5,0.9,0.8s0.9,0.6,1,0.8v0.2c0.5,0.5,0.9,0.7,1.1,0.7l0.1,0.5
		c0.2,0.3,0.6,0.8,1.2,1.3c0.5,0.5,0.9,0.9,1.2,1c0,0.1,0,0.2,0,0.4c0.1,0.1,0.2,0.2,0.3,0.2c0.1,0.1,0.2,0.2,0.3,0.2
		c0,0.1,0,0.2,0,0.2c0.1,0.2,0.2,0.4,0.4,0.6c0.3,0.5,0.6,0.8,0.9,1c0,0.4,0.3,0.8,0.9,1.1c0,0.1,0,0.2,0.1,0.4
		c0.3,0.4,0.5,0.7,0.5,0.9c0.2,0.2,0.4,0.4,0.7,0.7c0.3,0.3,0.6,0.6,0.7,0.7c0.1,0.3,0.4,0.8,1.1,1.4c0.2,0.2,0.5,0.3,0.6,0.5
		c0,0.1,0.1,0.2,0.2,0.3c0.1,0.1,0.2,0.2,0.3,0.3c0.2,0.2,0.4,0.4,0.5,0.4s0.2,0,0.4,0.1c0.1,0,0.2,0.1,0.2,0.3
		c0.2,0.2,0.5,0.2,0.9,0c-0.1,0.1-0.1,0.2,0,0.2c0.7,0.5,1.1,0.9,1.4,1.2c0,0.2,0.1,0.5,0.4,0.8c0.2,0.3,0.4,0.5,0.5,0.6
		c0.2,0.1,0.3,0.1,0.4,0.1c-0.1,1.2,0,1.9,0.1,2.1h0.1c0.1,0,0.1,0,0.2,0.1c0,0.1-0.1,0.2-0.3,0.2c-0.2,0.2-0.5,0.3-0.6,0.5
		l-0.4,0.2c0,0.2-0.1,0.4-0.3,0.6c-0.2,0.2-0.3,0.4-0.3,0.4c-0.1,0.1-0.2,0.1-0.3,0.2c-0.1,0-0.2,0.1-0.2,0.2
		c-0.1,0-0.1,0.1-0.1,0.4c0,0.3,0,0.4-0.1,0.4c-0.2,0.1-0.5,0-0.9-0.1c-0.5-0.2-0.8-0.2-1,0c-0.3-0.2-0.6-0.2-0.7-0.1
		c-0.1-0.1-0.4,0-1,0.1c0.2-0.3,0-0.6-0.5-0.7c-0.3-0.1-0.5-0.2-0.5-0.2c-0.1,0-0.2,0-0.3,0.1c-0.1,0-0.2,0-0.3,0
		c0,0-0.1-0.1-0.1-0.2c0-0.1,0-0.1-0.1-0.2c0,0-0.1-0.1-0.2-0.1c-0.2-0.1-0.2-0.2-0.2-0.4c-0.1,0-0.2,0-0.2-0.1
		c-0.1,0-0.2-0.1-0.3-0.1c-0.5-0.7-0.9-1.1-1.2-1.2c-0.5-0.5-0.8-0.7-0.9-0.7c-0.2-0.2-0.4-0.5-0.6-0.6c-0.1,0-0.1,0-0.1,0.1
		s0,0.1-0.1,0l-0.1-0.2c-0.6-0.5-1-1.1-1.2-1.7c-0.2-0.1-0.4-0.1-0.5-0.1c-0.2-0.1-0.3-0.3-0.4-0.7c-0.3-0.1-0.6-0.3-0.9-0.7
		c-0.2-0.4-0.4-0.6-0.5-0.6c-0.3,0.2-0.5-0.2-0.5-1c-0.1,0-0.3,0-0.5-0.1c0-0.1-0.1-0.2-0.2-0.5c-0.2-0.2-0.3-0.4-0.5-0.4
		c0-0.2-0.3-0.7-0.9-1.6c-0.2,0-0.3,0-0.4,0c-0.1-0.2-0.2-0.4-0.4-0.5c-0.1-0.6-0.4-0.9-0.9-1.1c-0.1,0-0.1,0.2-0.1,0.5
		c-0.1,0-0.2,0.3-0.4,0.9c-0.1,0-0.1,0-0.2,0.1c0,0.1-0.1,0.1-0.1,0.2c0,0-0.1,0.1-0.1,0.3c0,0.1,0,0.2,0,0.2s-0.1,0.2-0.2,0.4
		c-0.1,0.2-0.1,0.4-0.1,0.7c0,0.3,0,0.5,0,0.6c-0.1,0.1-0.2,0.2-0.3,0.2c-0.1,0.1-0.1,0.2-0.1,0.2c-0.1,0.2-0.1,0.4-0.1,0.7
		c0,0.3,0,0.5-0.1,0.6c-0.2,0.2-0.3,0.3-0.3,0.4s-0.1,0.2-0.1,0.3c0,0.1,0,0.2,0,0.3c0,0.1-0.1,0.2-0.4,0.4c0.1,0.2,0,0.6-0.1,0.9
		c-0.2,0.4-0.2,0.6-0.2,0.7c-0.1,0.1-0.1,0.2,0,0.4c-0.1,0.1-0.2,0.2-0.2,0.3c-0.1,0.1-0.1,0.2-0.1,0.3c0,0.2,0,0.2-0.1,0.2
		c0,0-0.1,0.1-0.2,0.2c-0.1,0.1-0.2,0.3-0.2,0.6c-0.1,0.3-0.2,0.5-0.2,0.6s0,0.1,0.1,0.2c0.1,0,0.1,0.1,0.1,0.2
		c-0.1,0.1-0.2,0.2-0.4,0.5c-0.3,0.5-0.7,0.8-1.1,1c-0.2,0.4-0.3,0.7-0.4,0.7c-0.1,0-0.2,0-0.5-0.1c-0.2,0-0.4,0-0.5,0.1
		c-0.2,0.2-0.3,0.2-0.3,0.2s-0.2,0-0.6-0.1c-0.1,0.1-0.2,0.1-0.2,0.1c-0.2-0.2-0.3-0.4-0.4-0.5c-0.1,0-0.2,0.1-0.4,0.2
		s-0.4,0.2-0.4,0.3c-0.3-0.2-0.5-0.4-0.5-0.6c-0.5-0.1-0.8-0.4-1-0.9c-0.3,0-0.7-0.2-1-0.6c-0.4-0.4-0.6-0.7-0.7-0.7v-0.4
		c0-0.1-0.1-0.2-0.2-0.2c-0.1-0.1-0.2-0.2-0.3-0.2c0.1-0.2,0.1-0.2,0-0.2c0-0.1-0.3-0.3-1-0.7c0-0.1,0-0.2,0.1-0.2
		c0-0.1,0.1-0.2,0.1-0.2c-0.3-0.2-0.5-0.3-0.6-0.4c0.1-0.4,0-0.8-0.3-1.1c-0.3-0.3-0.5-0.6-0.6-0.9c0-0.1-0.1-0.1-0.2-0.2
		c-0.1,0-0.2-0.1-0.3-0.2c0-0.2-0.2-0.4-0.5-0.6c0-0.3-0.1-0.5-0.4-0.7c0-0.4-0.2-0.7-0.5-1c-0.2-0.1-0.3-0.2-0.4-0.3
		c0-0.4-0.2-0.7-0.6-0.9c-0.4,1.1-0.6,2.6-0.5,4.7c-0.1,0.1-0.2,0.2-0.2,0.2c-0.1,0.1-0.1,0.2-0.1,0.3c-0.1,0.2-0.1,0.4,0,0.7
		s0.1,0.5,0,0.7c-0.2,0.2-0.4,0.3-0.4,0.4s0.1,0.2,0.2,0.4c0.1,0.2,0.1,0.4,0.1,0.7c-0.2,0.2-0.3,0.4-0.4,0.5c0,0.1,0,0.3,0.1,0.7
		c0,0.4,0,0.6-0.2,0.6c0,0.1,0,0.1,0.1,0.2s0.1,0.1,0.1,0.2c0,0.1-0.1,0.2-0.4,0.2c0,0.2,0,0.6-0.1,1.2c0,0.5-0.1,0.9-0.1,1.2
		c-0.2,0.1-0.2,0.2-0.2,0.4s0.1,0.3,0.4,0.4c0,0.1-0.1,0.1-0.2,0.2s-0.2,0.1-0.2,0.1s0,0.3-0.1,0.8c-0.1,0.3-0.2,0.4-0.4,0.5
		c0.1,0.2,0.1,0.5-0.1,0.9c-0.1,0.3-0.3,0.5-0.4,0.5c-0.2,0-0.3,0-0.4-0.1c-0.3,0.2-0.7,0.4-1.1,0.7c-0.2,0.2-0.4,0.5-0.4,0.9
		c-0.1,0-0.2,0-0.2,0c-0.1-0.1-0.1-0.2-0.1-0.5s-0.1-0.4-0.2-0.5c-0.1,0-0.2,0.2-0.4,0.6h-0.4c0.1-0.6-0.2-0.9-0.9-0.9
		c0,0.2,0,0.4-0.1,0.4c-0.3-0.1-0.5-0.2-0.6-0.4c0-0.1,0-0.2,0-0.2c0-0.1,0-0.1-0.1-0.1c-0.1-0.5-0.6-0.7-1.6-0.6
		c-0.2-0.1-0.2-0.3-0.2-0.5v-0.2c-0.1-0.2-0.2-0.4-0.4-0.6c-0.2-0.2-0.4-0.4-0.4-0.5s0-0.1-0.1-0.1s-0.1,0-0.1-0.1
		c-0.1-0.3-0.2-0.6-0.2-0.7l-0.3-0.1c0.1-0.7,0.1-1.2,0.1-1.3s-0.1-0.3-0.3-0.6c-0.2-0.2-0.3-0.4-0.4-0.5c0-0.2,0.1-0.4,0.2-0.6
		c0-0.2-0.1-0.5-0.2-0.8c-0.2-0.3-0.2-0.6-0.1-0.8c-0.1-0.2-0.3-0.2-0.6-0.2c-0.1-0.2,0-0.3,0.2-0.4c0-0.2,0-0.3,0-0.4
		c0-0.1,0-0.2,0-0.3s-0.1-0.2-0.2-0.3s-0.2-0.2-0.2-0.3c-0.1-0.2-0.1-0.4-0.1-0.7c0-0.3,0-0.5-0.1-0.6c0-0.1-0.1-0.2-0.2-0.2
		c-0.1-0.1-0.2-0.1-0.2-0.2c0,0,0-0.2,0.1-0.6c-0.1-0.6-0.2-0.9-0.4-1.1c0-0.9-0.1-1.4-0.2-1.5c-0.2,0-0.4,0-0.4-0.1s0-0.1,0.1-0.2
		c0.1,0,0.1-0.1,0.1-0.2s0-0.2,0-0.5c-0.1-0.7-0.3-1-0.6-1c-0.2-0.2-0.1-0.5,0.1-1c0-0.2-0.1-0.3-0.2-0.4s-0.2-0.2-0.2-0.2
		c0.1-0.4,0-0.7-0.4-0.9c0.2-0.2,0.2-0.3,0.2-0.4c-0.2-0.1-0.2-0.3-0.2-0.7s-0.1-0.7-0.3-0.7c0-0.1,0-0.1,0.1-0.2
		c0,0,0.1-0.1,0.1-0.2c-0.2-0.2-0.2-0.3-0.2-0.4s0-0.2-0.1-0.4c0-0.2-0.1-0.4-0.1-0.4c-0.1,0-0.2-0.1-0.4-0.2
		c-0.1-0.1-0.1-0.2,0-0.2c0.1-0.1,0.1-0.2,0.1-0.3c-0.1-1.4,0.1-2.1,0.6-2.2v-0.7c0.5-0.5,1-0.7,1.6-0.7l0.3-0.4
		c0.2,0.2,0.7,0.1,1.5-0.2c0.2,0.2,0.4,0.2,0.6,0.2c0.3,0,0.5,0,0.6,0s0.2,0.1,0.3,0.2c0.1,0.1,0.2,0.2,0.3,0.2
		c0.4,0.2,0.6,0.3,0.6,0.4c0.2,0.1,0.3,0.1,0.4,0c1.1,1.2,1.7,1.9,1.7,2c0.3,0,0.5,0,0.6-0.1c0,0,0.1-0.1,0.1-0.2s0-0.2,0.1-0.3
		c0,0,0.1-0.1,0.2-0.2c0.1-0.1,0.2-0.2,0.2-0.3c0-0.1,0-0.2-0.1-0.4c0-0.1,0.1-0.2,0.3-0.4s0.2-0.3,0.2-0.5c0.1,0,0.2-0.1,0.4-0.2
		c0.3-0.3,0.5-0.5,0.9-0.4c0.2-0.1,0.3-0.2,0.4-0.5c0.1-0.3,0.3-0.4,0.4-0.5h0.4c0.1,0,0.2-0.1,0.3-0.2c0.1-0.1,0.2-0.2,0.3-0.2
		c0.3,0,0.6,0,0.9-0.1c0.1,0,0.2,0,0.5,0.1c0.2,0.3,0.5,0.5,1,0.6c0.5,0.2,0.7,0.3,0.7,0.4c0,0.2,0.2,0.4,0.6,0.5
		c0.2,0.1,0.3,0.2,0.4,0.3c0,0.3,0.2,0.5,0.5,0.6c0.2,0.3,0.5,0.6,1.1,1.2c0.6,0.5,1,1,1.2,1.4v0.2c0.3,0.2,0.5,0.4,0.8,0.8
		s0.5,0.6,0.7,0.8c0.1,0.2,0.2,0.4,0.4,0.6s0.3,0.5,0.3,0.7c0.1,0,0.2,0,0.2,0.1c0.1,0,0.2,0.1,0.2,0.1c0.1,0.3,0.3,0.7,0.7,1.2
		c0.2,0.3,0.3,0.6,0.4,0.7c0,0.2,0,0.2,0.1,0.2c0.2,0.2,0.3,0,0.4-0.5c0.1-0.1,0.2-0.2,0.3-0.5s0.2-0.4,0.3-0.5
		c0-0.3,0.1-0.7,0.3-1.1s0.3-0.8,0.3-1.1c0.1-0.1,0.2-0.3,0.3-0.7c0.1-0.4,0.2-0.7,0.3-0.7c0-0.3,0.3-0.7,0.9-1.2c0-0.1,0-0.2,0-0.4
		c0-0.1,0-0.2,0.1-0.2c0.1-0.1,0.2-0.2,0.2-0.3c0-0.2,0-0.3,0-0.3s0-0.1,0.1-0.2c0.1-0.1,0.1-0.1,0.1-0.2c0,0,0-0.2,0.1-0.4
		c0.4-0.3,0.6-0.6,0.5-0.7c0.2-0.1,0.3-0.3,0.5-0.7c0.2,0,0.3,0,0.4,0c0.2-0.8,0.7-1.2,1.5-1.1c0.2-0.1,0.4-0.2,0.7-0.4
		C152,11.5,152.3,11.3,152.4,11.1z M152.4,10.8c0.2-0.1,0.4,0,0.6,0.3c0.3-0.1,0.8,0.1,1.5,0.6c0.2,0,0.3,0,0.4,0
		c0.1,0.1,0.3,0.3,0.6,0.6s0.6,0.6,0.8,0.7c0.1,0.2,0.4,0.5,0.9,0.8s0.9,0.6,1,0.8v0.2c0.5,0.5,0.9,0.7,1.1,0.7l0.1,0.5
		c0.2,0.3,0.6,0.8,1.2,1.3c0.5,0.5,0.9,0.9,1.2,1c0,0.1,0,0.2,0,0.4c0.1,0.1,0.2,0.2,0.3,0.2c0.1,0.1,0.2,0.2,0.3,0.2
		c0,0.1,0,0.2,0,0.2c0.1,0.2,0.2,0.4,0.4,0.6c0.3,0.5,0.6,0.8,0.9,1c0,0.4,0.3,0.8,0.9,1.1c0,0.1,0,0.2,0.1,0.4
		c0.3,0.4,0.5,0.7,0.5,0.9c0.2,0.2,0.4,0.4,0.7,0.7c0.3,0.3,0.6,0.6,0.7,0.7c0.1,0.3,0.4,0.8,1.1,1.4c0.2,0.2,0.5,0.3,0.6,0.5
		c0,0.1,0.1,0.2,0.2,0.3c0.1,0.1,0.2,0.2,0.3,0.3c0.2,0.2,0.4,0.4,0.5,0.4s0.2,0,0.4,0.1c0.1,0,0.2,0.1,0.2,0.3
		c0.2,0.2,0.5,0.2,0.9,0c-0.1,0.1-0.1,0.2,0,0.2c0.7,0.5,1.1,0.9,1.4,1.2c0,0.2,0.1,0.5,0.4,0.8c0.2,0.3,0.4,0.5,0.5,0.6
		c0.2,0.1,0.3,0.1,0.4,0.1c-0.1,1.2,0,1.9,0.1,2.1h0.1c0.1,0,0.1,0,0.2,0.1c0,0.1-0.1,0.2-0.3,0.2c-0.2,0.2-0.5,0.3-0.6,0.5
		l-0.4,0.2c0,0.2-0.1,0.4-0.3,0.6c-0.2,0.2-0.3,0.4-0.3,0.4c-0.1,0.1-0.2,0.1-0.3,0.2c-0.1,0-0.2,0.1-0.2,0.2
		c-0.1,0-0.1,0.1-0.1,0.4c0,0.3,0,0.4-0.1,0.4c-0.2,0.1-0.5,0-0.9-0.1c-0.5-0.2-0.8-0.2-1,0c-0.3-0.2-0.6-0.2-0.7-0.1
		c-0.1-0.1-0.4,0-1,0.1c0.2-0.3,0-0.6-0.5-0.7c-0.3-0.1-0.5-0.2-0.5-0.2c-0.1,0-0.2,0-0.3,0.1c-0.1,0-0.2,0-0.3,0
		c0,0-0.1-0.1-0.1-0.2c0-0.1,0-0.1-0.1-0.2c0,0-0.1-0.1-0.2-0.1c-0.2-0.1-0.2-0.2-0.2-0.4c-0.1,0-0.2,0-0.2-0.1
		c-0.1,0-0.2-0.1-0.3-0.1c-0.5-0.7-0.9-1.1-1.2-1.2c-0.1-0.1-0.2-0.2-0.2-0.2c-0.2-0.3-0.4-0.5-0.6-0.5c-0.2-0.2-0.4-0.5-0.6-0.6
		c-0.1,0-0.1,0-0.1,0.1s0,0.1-0.1,0l-0.1-0.2c-0.6-0.5-1-1.1-1.2-1.7c-0.2-0.1-0.4-0.1-0.5-0.1c-0.2-0.1-0.3-0.3-0.4-0.7
		c-0.3-0.1-0.6-0.3-0.9-0.7c-0.2-0.4-0.4-0.6-0.5-0.6c-0.3,0.2-0.5-0.2-0.5-1c-0.1,0-0.3,0-0.5-0.1c0-0.1-0.1-0.2-0.2-0.5
		c-0.2-0.2-0.3-0.4-0.5-0.4c0-0.2-0.3-0.7-0.9-1.6c-0.2,0-0.3,0-0.4,0c-0.1-0.2-0.2-0.4-0.4-0.5c-0.1-0.6-0.4-0.9-0.9-1.1
		c-0.1,0-0.1,0.2-0.1,0.5c-0.1,0-0.2,0.3-0.4,0.9c-0.1,0-0.1,0-0.2,0.1c0,0.1-0.1,0.1-0.1,0.2c0,0-0.1,0.1-0.1,0.3
		c0,0.1,0,0.2,0,0.2s-0.1,0.2-0.2,0.4c-0.1,0.2-0.1,0.4-0.1,0.7c0,0.3,0,0.5,0,0.6c-0.1,0.1-0.2,0.2-0.3,0.2
		c-0.1,0.1-0.1,0.2-0.1,0.2c-0.1,0.2-0.1,0.4-0.1,0.7c0,0.3,0,0.5-0.1,0.6c-0.2,0.2-0.3,0.3-0.3,0.4s-0.1,0.2-0.1,0.3
		c0,0.1,0,0.2,0,0.3c0,0.1-0.1,0.2-0.4,0.4c0.1,0.2,0,0.6-0.1,0.9c-0.2,0.4-0.2,0.6-0.2,0.7c-0.1,0.1-0.1,0.2,0,0.4
		c-0.1,0.1-0.2,0.2-0.2,0.3c-0.1,0.1-0.1,0.2-0.1,0.3c0,0.2,0,0.2-0.1,0.2c0,0-0.1,0.1-0.2,0.2c-0.1,0.1-0.2,0.3-0.2,0.6
		c-0.1,0.3-0.2,0.5-0.2,0.6s0,0.1,0.1,0.2c0.1,0,0.1,0.1,0.1,0.2c-0.1,0.1-0.2,0.2-0.4,0.5c-0.3,0.5-0.7,0.8-1.1,1
		c-0.2,0.4-0.3,0.7-0.4,0.7c-0.1,0-0.2,0-0.5-0.1c-0.2,0-0.4,0-0.5,0.1c-0.2,0.2-0.3,0.2-0.3,0.2s-0.2,0-0.6-0.1
		c-0.1,0.1-0.2,0.1-0.2,0.1c-0.2-0.2-0.3-0.4-0.4-0.5c-0.1,0.1-0.2,0.2-0.4,0.2c-0.2,0.1-0.4,0.2-0.4,0.2c-0.3-0.2-0.5-0.4-0.5-0.6
		c-0.5-0.1-0.8-0.4-1-0.9c-0.3,0-0.7-0.2-1-0.6c-0.4-0.4-0.6-0.7-0.7-0.7v-0.4c0-0.1-0.1-0.2-0.2-0.2c-0.1-0.1-0.2-0.2-0.3-0.2
		c0.1-0.2,0.1-0.2,0-0.2c0-0.1-0.3-0.3-1-0.7c0-0.1,0-0.2,0.1-0.2c0-0.1,0.1-0.2,0.1-0.2c-0.3-0.2-0.5-0.3-0.6-0.4
		c0.1-0.4,0-0.8-0.3-1.1c-0.3-0.3-0.5-0.6-0.6-0.9c0-0.1-0.1-0.1-0.2-0.2c-0.1,0-0.2-0.1-0.3-0.2c0-0.2-0.2-0.4-0.5-0.6
		c0-0.3-0.1-0.5-0.4-0.7c0-0.4-0.2-0.7-0.5-1c-0.2-0.1-0.3-0.2-0.4-0.3c0-0.4-0.2-0.7-0.6-0.9c-0.4,1.1-0.6,2.6-0.5,4.7
		c-0.1,0.1-0.2,0.2-0.2,0.2c-0.1,0.1-0.1,0.2-0.1,0.3c-0.1,0.2-0.1,0.4,0,0.7s0.1,0.5,0,0.7c-0.2,0.2-0.4,0.3-0.4,0.4
		s0.1,0.2,0.2,0.4c0.1,0.2,0.1,0.4,0.1,0.7c-0.2,0.2-0.3,0.4-0.4,0.5c0,0.1,0,0.3,0.1,0.7c0,0.4,0,0.6-0.2,0.6c0,0.1,0,0.1,0.1,0.2
		s0.1,0.1,0.1,0.2c0,0.1-0.1,0.2-0.4,0.2c0,0.2,0,0.6-0.1,1.2c0,0.5-0.1,0.9-0.1,1.2c-0.2,0.1-0.2,0.2-0.2,0.4s0.1,0.3,0.4,0.4
		c0,0.1-0.1,0.1-0.2,0.2s-0.2,0.1-0.2,0.1s0,0.3-0.1,0.8c-0.1,0.3-0.2,0.4-0.4,0.5c0.1,0.2,0.1,0.5-0.1,0.9
		c-0.1,0.3-0.3,0.5-0.4,0.5c-0.2,0-0.3,0-0.4-0.1c-0.3,0.2-0.7,0.4-1.1,0.7c-0.2,0.2-0.4,0.5-0.4,0.9c-0.1,0-0.2,0-0.2,0
		c-0.1-0.1-0.1-0.2-0.1-0.4s-0.1-0.4-0.2-0.6c-0.1,0-0.2,0.2-0.4,0.6h-0.4c0-0.2-0.1-0.5-0.3-0.6c-0.2-0.2-0.4-0.2-0.6-0.2
		c0,0.2,0,0.4-0.1,0.4c-0.3-0.1-0.5-0.2-0.6-0.4c0-0.1,0-0.2,0-0.2c0-0.1,0-0.1-0.1-0.1c-0.1-0.5-0.6-0.7-1.6-0.6
		c-0.2-0.1-0.2-0.3-0.2-0.5v-0.2c-0.1-0.2-0.2-0.4-0.4-0.6c-0.2-0.2-0.4-0.4-0.4-0.5s0-0.1-0.1-0.1s-0.1,0-0.1-0.1
		c-0.1-0.3-0.2-0.6-0.2-0.7l-0.3-0.1c0.1-0.7,0.1-1.2,0.1-1.3s-0.1-0.3-0.3-0.6c-0.2-0.2-0.3-0.4-0.4-0.5c0-0.2,0.1-0.4,0.2-0.6
		c0-0.2-0.1-0.5-0.2-0.8c-0.2-0.3-0.2-0.6-0.1-0.8c-0.1-0.2-0.3-0.2-0.6-0.2c-0.1-0.2,0-0.3,0.2-0.4c0-0.2,0-0.3,0-0.4
		c0-0.1,0-0.2,0-0.3s-0.1-0.2-0.2-0.3s-0.2-0.2-0.2-0.3c-0.1-0.2-0.1-0.4-0.1-0.7c0-0.3,0-0.5-0.1-0.6c0-0.1-0.1-0.2-0.2-0.2
		c-0.1-0.1-0.2-0.1-0.2-0.2c0,0,0-0.2,0.1-0.6c-0.1-0.6-0.2-0.9-0.4-1.1c0-0.9-0.1-1.4-0.2-1.5c-0.2,0-0.4,0-0.4-0.1s0-0.1,0.1-0.2
		c0.1,0,0.1-0.1,0.1-0.2s0-0.2,0-0.5c-0.1-0.7-0.3-1-0.6-1c-0.2-0.2-0.1-0.5,0.1-1c0-0.2-0.1-0.3-0.2-0.4s-0.2-0.2-0.2-0.2
		c0.1-0.4,0-0.7-0.4-0.9c0.2-0.2,0.2-0.3,0.2-0.4c-0.2-0.1-0.2-0.3-0.2-0.7s-0.1-0.7-0.3-0.7c0-0.1,0-0.1,0.1-0.2
		c0,0,0.1-0.1,0.1-0.2c-0.2-0.2-0.2-0.3-0.2-0.4s0-0.2-0.1-0.4c0-0.2-0.1-0.4-0.1-0.4c-0.1,0-0.2-0.1-0.4-0.2
		c-0.1-0.1-0.1-0.2,0-0.2c0.1-0.1,0.1-0.2,0.1-0.3c-0.1-1.4,0.1-2.1,0.6-2.2v-0.7c0.5-0.5,1-0.7,1.6-0.7l0.3-0.4
		c0.2,0.2,0.7,0.1,1.5-0.2c0.2,0.2,0.4,0.2,0.6,0.2c0.3,0,0.5,0,0.6,0s0.2,0.1,0.3,0.2c0.1,0.1,0.2,0.2,0.3,0.2
		c0.4,0.2,0.6,0.3,0.6,0.4c0.2,0.1,0.3,0.1,0.4,0c1.1,1.2,1.7,1.9,1.7,2c0.3,0,0.5,0,0.6-0.1c0,0,0.1-0.1,0.1-0.2s0-0.2,0.1-0.3
		c0,0,0.1-0.1,0.2-0.2c0.1-0.1,0.2-0.2,0.2-0.3c0-0.1,0-0.2-0.1-0.4c0-0.1,0.1-0.2,0.3-0.4s0.2-0.3,0.2-0.5c0.1,0,0.2-0.1,0.4-0.2
		c0.3-0.3,0.5-0.5,0.9-0.4c0.2-0.1,0.3-0.2,0.4-0.5c0.1-0.3,0.3-0.4,0.4-0.5h0.4c0.1,0,0.2-0.1,0.3-0.2c0.1-0.1,0.2-0.2,0.3-0.2
		c0.3,0,0.6,0,0.9-0.1c0.1,0,0.2,0,0.5,0.1c0.2,0.3,0.5,0.5,1,0.6c0.5,0.2,0.7,0.3,0.7,0.4c0,0.2,0.2,0.4,0.6,0.5
		c0.2,0.1,0.3,0.2,0.4,0.3c0,0.3,0.2,0.5,0.5,0.6c0.2,0.3,0.5,0.6,1.1,1.2c0.6,0.5,1,1,1.2,1.4v0.2c0.3,0.2,0.5,0.4,0.8,0.8
		s0.5,0.6,0.7,0.8c0.1,0.2,0.2,0.4,0.4,0.6s0.3,0.5,0.3,0.7c0.1,0,0.2,0,0.2,0.1c0.1,0,0.2,0.1,0.2,0.1c0.1,0.3,0.3,0.7,0.7,1.2
		c0.2,0.3,0.3,0.6,0.4,0.7c0,0.2,0,0.2,0.1,0.2c0.2,0.2,0.3,0,0.4-0.5c0.1-0.1,0.2-0.2,0.3-0.5s0.2-0.4,0.3-0.5
		c0-0.3,0.1-0.7,0.3-1.1s0.3-0.8,0.3-1.1c0.1-0.1,0.2-0.3,0.3-0.7c0.1-0.4,0.2-0.7,0.3-0.7c0-0.3,0.3-0.7,0.9-1.2c0-0.1,0-0.2,0-0.4
		c0-0.1,0-0.2,0.1-0.2c0.1-0.1,0.2-0.2,0.2-0.3c0-0.2,0-0.3,0-0.3s0-0.1,0.1-0.2c0.1-0.1,0.1-0.1,0.1-0.2c0,0,0-0.2,0.1-0.4
		c0.4-0.3,0.6-0.6,0.5-0.7c0.2-0.1,0.3-0.3,0.5-0.7c0.2,0,0.3,0,0.4,0c0.2-0.8,0.7-1.2,1.5-1.1c0.2-0.1,0.4-0.2,0.7-0.4
		s0.5-0.3,0.7-0.5C152.4,10.9,152.4,10.8,152.4,10.8z"/>
	<path fill="#F8CBAD" d="M227.5,15.4c0.1,0,0.3,0,0.6,0.1s0.5,0.1,0.7,0.1c0.1,0,0.1,0,0.1,0.1s-0.1,0.2-0.1,0.2
		c0.7,0.7,1.2,0.9,1.7,0.9c0,0.2,0.1,0.5,0.4,0.7c0.2,0.2,0.3,0.3,0.4,0.4c0.2-0.1,0.3-0.1,0.4,0c0,0.1,0,0.1,0,0.2c0,0,0,0.1,0,0.2
		c0.2,0.3,0.7,0.7,1.2,1.2c0.6,0.5,0.9,0.9,1.1,1.2c0.1,0,0.1,0.1,0.1,0.2l1.5,1.6c0,0.2,0,0.4,0.1,0.4s0.2,0,0.2-0.1
		c0.1,0,0.2,0,0.3,0.1c0,0.2,0.1,0.5,0.3,0.9c0.2,0.3,0.3,0.6,0.4,0.7l0.5,0.2c0.1,0,0.1,0.1,0.1,0.2s-0.1,0.2-0.1,0.3
		c0.1,0.1,0.2,0.2,0.4,0.4c0.2,0.2,0.4,0.2,0.4,0.2c0,0.1,0,0.2,0.1,0.2c0.1,0.1,0.1,0.2,0.1,0.2c0.1,0.1,0.2,0.2,0.3,0.4
		c0.1,0.2,0.2,0.3,0.3,0.4c0.1,0,0.1,0,0.2,0.1c0,0.1,0.1,0.2,0.1,0.2c0.4,0.5,0.7,0.9,0.9,1.2c0.1,0.1,0.2,0.2,0.4,0.4
		c0.2,0.2,0.3,0.3,0.4,0.4c0.2,0.3,0.5,0.7,1,1.1s0.9,0.7,1,1l1.2,0.7h0.5c0.3,0.4,0.7,0.6,1.2,0.5c0.1-0.1,0.2-0.2,0.3-0.2
		c0.1-0.1,0.2-0.1,0.3-0.1c0.2-0.2,0.4-0.2,0.6-0.2c0.5,0,0.8,0,0.9,0c0.4,0.3,0.9,0.3,1.4-0.1c0,0.1,0,0.2-0.1,0.2
		c-0.1,0.1-0.1,0.2-0.1,0.2c0.1,0.1,0.2,0.2,0.2,0.2c0.3-0.1,0.6,0.1,0.9,0.4c0.2,0.4,0.5,0.5,0.7,0.4c0.1,0,0.1,0.1,0.1,0.2
		c0.5,0.4,0.7,0.9,0.5,1.4c0.1,0.2,0.2,0.2,0.2,0.2c-0.2,0.2-0.3,0.5-0.4,1.1c-0.1,0.6-0.1,0.9-0.1,1c-0.2,0.1-0.5,0.3-0.7,0.6
		s-0.5,0.5-0.6,0.6c0,0.4,0,0.7,0,0.7c-0.2,0-0.3,0-0.5-0.1c-0.1,0.1-0.2,0.2-0.5,0.2c-0.2,0.1-0.4,0.2-0.4,0.2
		c-0.1,0.1-0.1,0.2-0.1,0.4s0,0.3-0.1,0.4c-0.2,0-0.3,0-0.4-0.1c-0.1-0.1-0.2-0.1-0.3-0.1c-0.2,0.1-0.4,0.1-0.4,0.1s-0.1,0-0.2,0
		c-0.1,0-0.2,0-0.2,0c-0.1,0-0.2,0.1-0.3,0.2c-0.1,0.1-0.2,0.2-0.2,0.2c-0.3-0.1-0.7-0.1-1.2,0.1c-0.5,0.1-0.8,0.1-1,0.1
		c-0.1,0-0.1-0.1-0.1-0.2c0-0.1,0-0.2-0.1-0.2s-0.3,0-0.6,0s-0.6,0-0.7,0c0-0.2-0.1-0.4-0.4-0.5c-0.2-0.1-0.5-0.1-0.6,0
		c-0.1-0.1-0.2-0.1-0.2-0.1c0-0.1,0-0.3-0.1-0.5c-0.1,0-0.2,0-0.4,0.1c-0.2,0-0.4,0-0.4-0.1c0-0.2-0.2-0.3-0.5-0.5
		c0-0.1,0-0.2-0.1-0.2s-0.2-0.1-0.2-0.1c-0.2,0.1-0.4,0.1-0.5,0.1c0-0.1,0-0.2,0-0.4l-1.5-1.4h-0.2c-0.2-0.1-0.3-0.2-0.5-0.5
		c-0.2-0.2-0.3-0.4-0.4-0.5c-0.2-0.1-0.3-0.1-0.4-0.1c-0.1-0.1-0.2-0.2-0.3-0.4s-0.2-0.3-0.3-0.3c-0.5-0.3-0.7-0.6-0.7-0.9
		c-0.3,0-0.5-0.1-0.7-0.4c-0.2-0.2-0.3-0.4-0.4-0.4c-0.1-0.6-0.5-1.2-1.2-1.8c-0.1-0.2-0.5-0.7-1.1-1.5c-0.1-0.2-0.3-0.4-0.7-0.7
		c-0.1-0.3-0.3-0.7-0.7-1.1c-0.3-0.2-0.4-0.4-0.5-0.5c0-0.3-0.2-0.7-0.6-1c-0.4-0.4-0.7-0.4-0.9-0.1c0,0.1,0,0.1-0.1,0.2l-0.1,0.1
		c0,0-0.1,0.1-0.1,0.2c-0.1,0.1-0.1,0.2-0.1,0.3c0,0.1,0,0.2-0.1,0.3l-0.1,0.1c-0.2,0.4-0.4,0.6-0.5,0.6c0,0.1,0,0.2,0.1,0.2
		c0,0.1,0.1,0.2,0.1,0.2c-0.3,0.4-0.5,0.8-0.5,1.2c-0.2,0.2-0.4,0.5-0.6,1c-0.3,0.5-0.4,0.8-0.5,0.9c0,0.1,0,0.2,0,0.4s0,0.3,0,0.4
		s-0.1,0.2-0.2,0.4c-0.1,0.2-0.2,0.3-0.2,0.4c0,0.1,0,0.2-0.1,0.4c0,0.2-0.1,0.3-0.2,0.4c0,0.1,0,0.1-0.1,0.2
		c-0.1,0-0.1,0.1-0.1,0.2c0,1-0.1,1.5-0.2,1.6c0,0.1,0.1,0.2,0.2,0.4c-0.4,0.8-0.7,1.5-0.7,2.1c-0.2,0.2-0.4,0.4-0.7,0.6
		c-0.3,0.2-0.6,0.5-0.7,0.6c-0.6-0.1-0.9,0.2-1.1,0.7c-0.1,0-0.1,0-0.2-0.1c0-0.1-0.1-0.1-0.1-0.1s-0.1,0-0.1,0.1s-0.1,0.1-0.2,0.1
		c-0.2,0-0.4-0.2-0.6-0.6c-0.2-0.4-0.5-0.6-0.6-0.6c-0.2,0-0.4,0.1-0.6,0.3c-0.2,0.2-0.4,0.2-0.6,0.2l-0.6-0.7
		c-0.1-0.3-0.3-0.6-0.6-0.7c-0.1,0-0.1,0-0.2,0.1c0,0-0.1,0.1-0.2,0.1c-0.1-0.2-0.2-0.4-0.5-0.7c-0.2-0.3-0.4-0.6-0.4-0.9
		c0-0.1-0.2-0.2-0.5-0.4v-0.4c0-0.1-0.1-0.2-0.2-0.4l-0.1-0.1c0-0.2-0.1-0.3-0.2-0.6c-0.1-0.2-0.2-0.3-0.2-0.4s0-0.1,0-0.3
		s0-0.3-0.1-0.4c0-0.1-0.1-0.1-0.2-0.2c-0.1,0-0.2-0.1-0.2-0.2c0.2-0.4,0-0.8-0.4-1.2v-1c-0.2-0.2-0.3-0.4-0.3-0.9
		c-0.1,0-0.1,0-0.1-0.1c0,0,0-0.1,0-0.2s0-0.2,0-0.3c0-0.1,0-0.2,0-0.3c0-0.1,0-0.2-0.1-0.2c-0.1-0.1-0.1-0.2-0.1-0.2
		c0-0.1,0-0.2,0-0.3c0-0.1,0-0.2-0.1-0.2c0-0.1,0-0.1-0.1-0.2c0,0-0.1-0.1-0.1-0.2c-0.1-0.4-0.2-0.7-0.4-0.7l0.1-0.4
		c0-0.1-0.1-0.2-0.2-0.3c-0.1-0.1-0.2-0.2-0.2-0.3c0-0.1,0-0.2,0-0.5c0-0.2-0.1-0.3-0.4-0.5v-0.2c-0.1-0.1-0.2-0.4-0.5-0.9
		c0-0.1,0-0.2-0.1-0.2c-0.1-0.1-0.1-0.2-0.2-0.2c0-0.1,0-0.2,0-0.3c0-0.1,0.1-0.2,0.1-0.3c-0.1-0.1-0.2-0.2-0.4-0.4
		c-0.2-0.2-0.3-0.3-0.4-0.4c0-0.1,0-0.2,0-0.2s-0.1-0.2-0.2-0.2c-0.1-0.1-0.2-0.2-0.2-0.2c0-0.1,0.1-0.3,0.2-0.5c0-0.2,0-0.3,0-0.4
		s0.1-0.2,0.2-0.4c0.2-0.2,0.3-0.3,0.3-0.4c0,0,0.1-0.1,0.1-0.3c0-0.2,0-0.3,0-0.4c0.1-0.2,0.3-0.3,0.6-0.5s0.5-0.3,0.6-0.5
		c0.7-0.1,1.1-0.2,1.2-0.2c0-0.2,0-0.3,0-0.4c0.1-0.1,0.3-0.1,0.6-0.2c0.3,0,0.5-0.1,0.6-0.2c0.1,0,0.1,0,0.2,0.1
		c0,0.1,0.1,0.1,0.1,0.1s0.1,0,0.3-0.1c0.2,0,0.2,0,0.2,0.1c0.1,0,0.1,0,0.1,0.1s0,0.2,0.1,0.2c0.2-0.1,0.4-0.1,0.5,0
		c0.6,0.1,0.9,0.4,1.1,0.9c0.2,0.2,0.5,0.5,0.9,0.9c0.2-0.1,0.4-0.1,0.4,0c0,0.2,0.2,0.5,0.6,0.9c0.2,0.1,0.3,0.2,0.4,0.4
		c0,0.1,0.1,0.3,0.3,0.6c0,0.3,0.1,0.5,0.2,0.6c0.2,0,0.3-0.1,0.4-0.3c0.1,0,0.1-0.1,0.1-0.2c0.2-0.3,0.4-0.5,0.4-0.6
		c0.3-0.4,0.5-0.7,0.5-0.9c0.7-0.7,1-1.4,1.1-1.8l0.2-0.1c0-0.2,0.2-0.4,0.5-0.7c0.1-0.3,0.4-0.7,0.9-1.1c0-0.1,0-0.2,0-0.4
		c0.1,0,0.2,0,0.2,0.1c0.1,0,0.2,0.1,0.2,0.1s0.2-0.1,0.4-0.2c0.1,0,0.1,0,0.1-0.1c0.5,0,0.9-0.4,1.1-1.1c0.1,0,0.1,0,0.2,0.1
		c0,0,0.1,0.1,0.2,0.1c0.1-0.2,0.3-0.2,0.7-0.1C227.1,15.4,227.4,15.4,227.5,15.4z M228.8,15.7c0.1,0,0.1,0,0.1,0.1
		s-0.1,0.2-0.1,0.2c0.7,0.7,1.2,0.9,1.7,0.9c0,0.2,0.1,0.5,0.4,0.7c0.2,0.2,0.3,0.3,0.4,0.4c0.2-0.1,0.3-0.1,0.4,0
		c0,0.1,0,0.1,0,0.2c0,0,0,0.1,0,0.2c0.2,0.3,0.7,0.7,1.2,1.2c0.6,0.5,0.9,0.9,1.1,1.2c0.1,0,0.1,0.1,0.1,0.2l1.5,1.6
		c0,0.2,0,0.4,0.1,0.4s0.2,0,0.2-0.1c0.1,0,0.2,0,0.3,0.1c0,0.2,0.1,0.5,0.3,0.9c0.2,0.3,0.3,0.6,0.4,0.7l0.5,0.2
		c0.1,0,0.1,0.1,0.1,0.2s-0.1,0.2-0.1,0.3c0.1,0.1,0.2,0.2,0.4,0.4c0.2,0.2,0.4,0.2,0.4,0.2c0,0.1,0,0.2,0.1,0.2
		c0.1,0.1,0.1,0.2,0.1,0.2c0.1,0.1,0.2,0.2,0.3,0.4c0.1,0.2,0.2,0.3,0.3,0.4c0.1,0,0.1,0,0.2,0.1c0,0.1,0.1,0.2,0.1,0.2
		c0.4,0.5,0.7,0.9,0.9,1.2c0.1,0.1,0.2,0.2,0.4,0.4c0.2,0.2,0.3,0.3,0.4,0.4c0.2,0.3,0.5,0.7,1,1.1s0.9,0.7,1,1l1.2,0.7h0.5
		c0.3,0.4,0.7,0.6,1.2,0.5c0.1-0.1,0.2-0.2,0.3-0.2c0.1-0.1,0.2-0.1,0.3-0.1c0.2-0.2,0.4-0.2,0.6-0.2c0.5,0,0.8,0,0.9,0
		c0.4,0.3,0.9,0.3,1.4-0.1c0,0.1,0,0.2-0.1,0.2c-0.1,0.1-0.1,0.2-0.1,0.2c0.1,0.1,0.2,0.2,0.2,0.2c0.3-0.1,0.6,0.1,0.9,0.4
		c0.2,0.4,0.5,0.5,0.7,0.4c0.1,0,0.1,0.1,0.1,0.2c0.5,0.3,0.7,0.8,0.5,1.4c0.1,0.2,0.2,0.2,0.2,0.2c-0.2,0.2-0.3,0.5-0.4,1.1
		c-0.1,0.6-0.1,0.9-0.1,1c-0.2,0.1-0.5,0.3-0.7,0.6s-0.5,0.5-0.6,0.6c0,0.4,0,0.7,0,0.7c-0.2,0-0.3,0-0.5-0.1
		c-0.1,0.1-0.2,0.2-0.5,0.2c-0.2,0.1-0.4,0.2-0.4,0.2c-0.1,0.1-0.1,0.2-0.1,0.4s0,0.3-0.1,0.4c-0.2,0-0.3,0-0.4-0.1
		c-0.1-0.1-0.2-0.1-0.3-0.1c-0.2,0.1-0.4,0.1-0.4,0.1s-0.1,0-0.2,0c-0.1,0-0.2,0-0.2,0c-0.1,0-0.2,0.1-0.3,0.2
		c-0.1,0.1-0.2,0.2-0.2,0.2c-0.3-0.1-0.7-0.1-1.2,0.1c-0.5,0.1-0.8,0.1-1,0.1c-0.1,0-0.1-0.1-0.1-0.2c0-0.1,0-0.2-0.1-0.2
		s-0.3,0-0.6,0s-0.6,0-0.7,0c0-0.2-0.1-0.4-0.4-0.5c-0.2-0.1-0.5-0.1-0.6,0c-0.1-0.1-0.2-0.1-0.2-0.1c0-0.1,0-0.3-0.1-0.5
		c-0.1,0-0.2,0-0.4,0.1c-0.2,0-0.4,0-0.4-0.1c0-0.2-0.2-0.3-0.5-0.5c0-0.1,0-0.2-0.1-0.2s-0.2-0.1-0.2-0.1c-0.2,0.1-0.4,0.1-0.5,0.1
		c0-0.1,0-0.2,0-0.4l-1.5-1.4h-0.2c-0.2-0.1-0.3-0.2-0.5-0.5c-0.2-0.2-0.3-0.4-0.4-0.5c-0.2-0.1-0.3-0.1-0.4-0.1
		c-0.1-0.1-0.2-0.2-0.3-0.4s-0.2-0.3-0.3-0.3c-0.5-0.3-0.7-0.6-0.7-0.9c-0.3,0-0.5-0.1-0.7-0.4c-0.2-0.2-0.3-0.4-0.4-0.4
		c-0.1-0.6-0.5-1.2-1.2-1.8c-0.1-0.2-0.5-0.7-1.1-1.5c-0.1-0.2-0.3-0.4-0.7-0.7c-0.1-0.3-0.3-0.7-0.7-1.1c-0.3-0.2-0.4-0.4-0.5-0.5
		c0-0.3-0.2-0.7-0.6-1c-0.4-0.4-0.7-0.4-0.9-0.1c0,0.1,0,0.1-0.1,0.2L228,27c0,0-0.1,0.1-0.1,0.2c-0.1,0.1-0.1,0.2-0.1,0.3
		c0,0.1,0,0.2-0.1,0.3l-0.1,0.1c-0.2,0.4-0.4,0.6-0.5,0.6c0,0.1,0,0.2,0.1,0.2c0,0.1,0.1,0.2,0.1,0.2c-0.3,0.4-0.5,0.8-0.5,1.2
		c-0.2,0.2-0.4,0.5-0.6,1c-0.3,0.5-0.4,0.8-0.5,0.9c0,0.1,0,0.2,0,0.4s0,0.3,0,0.4s-0.1,0.2-0.2,0.4c-0.1,0.2-0.2,0.3-0.2,0.4
		c0,0.1,0,0.2-0.1,0.4c0,0.2-0.1,0.3-0.2,0.4c0,0.1,0,0.1-0.1,0.2c-0.1,0-0.1,0.1-0.1,0.2c0,1-0.1,1.5-0.2,1.6
		c0,0.1,0.1,0.2,0.2,0.4c-0.4,0.8-0.7,1.5-0.7,2.1c-0.2,0.2-0.4,0.4-0.7,0.6c-0.3,0.2-0.6,0.5-0.7,0.6c-0.6-0.1-0.9,0.2-1.1,0.7
		c-0.1,0-0.1,0-0.2-0.1c0-0.1-0.1-0.1-0.1-0.1s-0.1,0-0.1,0.1s-0.1,0.1-0.2,0.1c-0.2,0-0.4-0.2-0.6-0.6c-0.2-0.4-0.5-0.6-0.6-0.6
		s-0.2,0.1-0.5,0.3s-0.5,0.2-0.6,0.1l-0.6-0.6c-0.1-0.3-0.3-0.6-0.6-0.7c-0.1,0-0.1,0-0.2,0.1c0,0-0.1,0.1-0.2,0.1
		c-0.1-0.2-0.2-0.4-0.5-0.7c-0.2-0.3-0.4-0.6-0.4-0.9c0-0.1-0.2-0.2-0.5-0.4v-0.4c0-0.1-0.1-0.2-0.2-0.4l-0.1-0.1
		c0-0.2-0.1-0.3-0.2-0.6c-0.1-0.2-0.2-0.3-0.2-0.4s0-0.1,0-0.3s0-0.3-0.1-0.4c0-0.1-0.1-0.1-0.2-0.2c-0.1,0-0.2-0.1-0.2-0.2
		c0.2-0.4,0-0.8-0.4-1.2v-1c-0.2-0.2-0.3-0.4-0.3-0.9c-0.1-0.1-0.1-0.2-0.1-0.2c0-0.1,0-0.2,0-0.3c0-0.1,0-0.2,0-0.3
		c0-0.1,0-0.2-0.1-0.2c-0.1-0.1-0.1-0.2-0.1-0.2c0-0.1,0-0.2,0-0.3c0-0.1,0-0.2-0.1-0.2c0-0.1,0-0.1-0.1-0.2c0,0-0.1-0.1-0.1-0.2
		c-0.1-0.4-0.2-0.7-0.4-0.7l0.1-0.4c0-0.1-0.1-0.2-0.2-0.3c-0.1-0.1-0.2-0.2-0.2-0.3c0-0.1,0-0.2,0-0.5c0-0.2-0.1-0.3-0.4-0.5v-0.2
		c-0.1-0.1-0.2-0.4-0.5-0.9c0-0.1,0-0.2-0.1-0.2c-0.1-0.1-0.1-0.2-0.2-0.2c0-0.1,0-0.2,0-0.3c0-0.1,0.1-0.2,0.1-0.3
		c-0.1-0.1-0.2-0.2-0.4-0.4c-0.2-0.2-0.3-0.3-0.4-0.4c0-0.1,0-0.2,0-0.2s-0.1-0.2-0.2-0.2c-0.1-0.1-0.2-0.2-0.2-0.2
		c0-0.1,0.1-0.3,0.2-0.5c0-0.2,0-0.3,0-0.4s0.1-0.2,0.2-0.4c0.2-0.2,0.3-0.3,0.3-0.4c0,0,0.1-0.1,0.1-0.3c0-0.2,0-0.3,0-0.4
		c0.1-0.2,0.3-0.3,0.6-0.5s0.5-0.3,0.6-0.5c0.7-0.1,1.1-0.2,1.2-0.2c0-0.2,0-0.3,0-0.4c0.1-0.1,0.3-0.1,0.6-0.2
		c0.3,0,0.5-0.1,0.6-0.2c0.1,0,0.1,0,0.2,0.1c0,0.1,0.1,0.1,0.1,0.1s0.1,0,0.3-0.1c0.2,0,0.2,0,0.2,0.1c0.1,0,0.1,0,0.1,0.1
		s0,0.2,0.1,0.2c0.2-0.1,0.4-0.1,0.5,0c0.6,0.1,0.9,0.4,1.1,0.9c0.2,0.2,0.5,0.5,0.9,0.9c0.2-0.1,0.4-0.1,0.4,0
		c0,0.2,0.2,0.5,0.6,0.9c0.2,0.1,0.3,0.2,0.4,0.4l0.3,0.6c0,0.3,0.1,0.5,0.2,0.6c0.2,0,0.3-0.1,0.4-0.3c0.1,0,0.1-0.1,0.1-0.2
		c0.2-0.3,0.4-0.5,0.4-0.6c0.3-0.4,0.5-0.7,0.5-0.9c0.7-0.7,1-1.4,1.1-1.8l0.2-0.1c0-0.2,0.2-0.4,0.5-0.7c0.1-0.3,0.4-0.7,0.9-1.1
		c0-0.1,0-0.2,0-0.4c0.1,0,0.2,0,0.2,0.1c0.1,0,0.2,0.1,0.2,0.1s0.2-0.1,0.4-0.2c0.1,0,0.1,0,0.1-0.1c0.5,0,0.9-0.4,1.1-1.1
		c0.1,0,0.1,0,0.2,0.1c0,0,0.1,0.1,0.2,0.1c0.1-0.2,0.3-0.2,0.7-0.1c0.4,0.1,0.6,0.2,0.8,0.2c0.1,0,0.3,0,0.6,0.1
		C228.4,15.6,228.6,15.7,228.8,15.7z"/>
	<path fill="#F8CBAD" d="M277.9,13.5c0,0.2,0,0.2,0,0.2s0,0,0,0.1c0,0,0.1,0.1,0.2,0.3c0.2,0.2,0.2,0.4,0.2,0.6c0.1,0,0.2,0,0.3,0
		c0.1,0,0.2,0,0.3,0c0.1,0.2,0.3,0.5,0.6,0.7c0.3,0.2,0.4,0.5,0.4,0.6c0,0.1,0,0.2,0,0.5s0,0.4,0,0.5s0.1,0.1,0.2,0.1
		s0.2,0.1,0.1,0.3h-0.3c-0.1,0.2,0,0.4,0.1,0.7c-0.1,0.2-0.2,0.4-0.4,0.6l-0.2,0.5c-0.1,0.2-0.1,0.3,0.1,0.4
		c0.1,0.1,0.2,0.2,0.2,0.3c-0.2,0.2-0.4,0.4-0.4,0.5s0,0.2,0.1,0.3c0.1,0.1,0.1,0.2,0.1,0.3c-0.6,0.7-1.2,1-1.7,1
		c-0.1,0-0.2,0-0.3,0c-0.1,0-0.3,0-0.4,0l-0.2,0.1c-0.2,0-0.4-0.1-0.7-0.3c-0.3-0.2-0.6-0.3-0.8-0.2c-0.3-0.2-0.6-0.4-0.9-0.4
		c-0.2,0.2-0.3,0.3-0.4,0.3s-0.2,0.1-0.2,0.1c-0.1,0-0.1,0-0.2,0.1c0,0-0.1,0.1-0.2,0.1s-0.1,0.1-0.1,0.2c-0.1,0-0.3,0.1-0.6,0.3
		c-0.3,0.2-0.6,0.4-0.7,0.6c-0.2,0.2-0.3,0.3-0.4,0.4c-0.2,0.2-0.8,0.7-1.6,1.7c-0.1,0.2-0.2,0.4-0.4,0.6c-0.2,0.2-0.4,0.4-0.4,0.5
		s0,0.2-0.1,0.3c-0.1,0.1-0.2,0.1-0.2,0.1c0,0.2-0.1,0.5-0.3,0.7c-0.2,0.2-0.4,0.4-0.4,0.4V28c-0.2,0.2-0.5,0.5-0.8,1
		s-0.5,0.9-0.7,1c0,0.2-0.1,0.5-0.2,0.8s-0.2,0.5-0.3,0.7c-0.2,0.1-0.2,0.2-0.2,0.2c0,0.1,0,0.2,0.1,0.2c0.1,0.1,0.1,0.2,0.1,0.2
		c0,0.1-0.1,0.1-0.2,0.2c-0.2,0-0.3,0.1-0.4,0.1c0.1,0.3,0.3,0.4,0.6,0.3c0.1,0,0.2-0.1,0.4-0.3c0.2-0.2,0.4-0.3,0.6-0.3
		c0.1-0.1,0.2-0.2,0.3-0.3c0.1-0.1,0.2-0.2,0.2-0.2h0.2c0.2-0.1,0.4-0.2,0.6-0.5c0.2-0.2,0.4-0.4,0.5-0.5s0.2-0.1,0.4-0.2
		c0.2,0,0.3-0.1,0.4-0.2c0.2-0.1,0.3-0.3,0.5-0.6c0.2-0.2,0.3-0.2,0.4-0.2c0.2-0.2,0.4-0.5,0.9-0.9c0.2-0.2,0.4-0.4,0.7-0.7
		c0.3-0.3,0.5-0.5,0.7-0.6c0.7-0.7,1.1-1.1,1.2-1.4c0.2-0.1,0.5-0.4,1-0.9c0.1-0.4,0.1-0.6,0.1-0.7c0,0,0.1,0,0.2,0s0.2,0.1,0.3,0.1
		c0.1,0,0.1-0.1,0.2-0.2c0-0.2,0.1-0.2,0.2-0.2c0-0.1,0.1-0.2,0.2-0.2c0.2-0.1,0.3-0.1,0.4-0.2c0.1,0,0.2-0.1,0.2-0.3
		c0.1-0.2,0.2-0.3,0.2-0.4c0.2,0.1,0.5,0,0.9-0.4c0.2,0.1,0.4,0.1,0.7,0h0.2c0.1,0,0.2,0,0.2,0c0.1,0,0.2,0,0.2,0
		c0.1,0,0.2,0,0.2-0.1c0.1-0.1,0.1-0.1,0.2-0.1c0,0,0.1,0,0.1,0.1s0.1,0.1,0.2,0.1h0.1c0.1,0.1,0.2,0.2,0.5,0.4
		c0.1,0.1,0.2,0.1,0.3,0.1c0.1,0,0.2,0,0.3,0.1l0.4,0.6c0.3,0,0.8,0.4,1.4,1.1c-0.1,0.2,0,0.5,0.4,0.7c0.2,0.1,0.2,0.2,0.2,0.2
		c0.1,0,0.2,0.2,0.2,0.5c0.1,0.1,0.1,0.1,0.2,0.2c0,0,0.1,0.1,0.1,0.2c0.1,0.1,0.1,0.2,0.2,0.4c0,0.2,0.1,0.3,0.1,0.4
		c0.1,0.1,0.2,0.2,0.3,0.4c0.1,0.2,0.2,0.4,0.3,0.4c0.1,0.3,0.2,0.6,0.4,0.7c0,0.1,0,0.2,0.1,0.4c0,0.2,0.1,0.3,0.1,0.4l0.4,0.1
		c-0.2,0.3-0.1,0.6,0.2,0.9c0.3,0.3,0.4,0.6,0.4,0.8l0.6,0.9c0.3,0.2,0.6,0.4,0.9,0.8c0.4,0.4,0.6,0.6,0.7,0.7c0,0.1,0,0.1,0.1,0.2
		c0,0,0.1,0.1,0.1,0.2c0.2,0.2,0.5,0.5,1,1s0.9,0.9,1.2,1.2h0.2c0.4,0.2,0.7,0.4,1,0.4c0.2,0.2,0.4,0.4,0.6,0.7
		c0.3,0,0.8-0.2,1.5-0.5c0.1,0.1,0.3,0.1,0.7,0c0.7,0,1.1,0.1,1.2,0.2c0.1,0.1,0.1,0.1,0.2,0.1c0,0,0.1-0.1,0.2-0.1
		c0.2,0.3,0.7,0.4,1.5,0.1c0.1,0.2,0.1,0.4,0,0.6c-0.1,0.1-0.1,0.2-0.1,0.2c-0.1,0.4,0.2,0.7,0.7,0.7c0.2,0,0.4,0,0.5,0.1
		s0.1,0.2-0.1,0.4c-0.1,0.2-0.1,0.4-0.1,0.4c0,0.2,0,0.3,0.1,0.4c0.1,0.1,0.2,0.2,0.3,0.2c0,0.3-0.2,0.6-0.5,0.9
		c-0.3,0.2-0.5,0.4-0.6,0.5c0,0.2,0,0.4,0.1,0.6c0,0.2,0.1,0.4,0.1,0.4c-0.1,0.2-0.2,0.4-0.4,0.7c-0.2,0.3-0.2,0.5-0.2,0.7
		c-1.2,0-2,0.5-2.2,1.6c-0.2,0-0.3,0-0.4-0.1s-0.2-0.1-0.2-0.1c-0.1,0-0.2,0.1-0.2,0.3c0,0.1,0,0.1-0.1,0.1c-0.3-0.1-0.6-0.1-0.7,0
		c-0.3-0.5-0.5-0.5-0.7,0c-0.1,0-0.2,0-0.3-0.1c-0.1-0.1-0.3-0.1-0.4-0.1s-0.1,0-0.1,0.1s0,0.1-0.1,0.1c-0.1-0.1-0.4-0.1-0.9-0.1
		c-0.1-0.1-0.1-0.2-0.1-0.4c-0.1,0-0.2,0-0.4-0.1c-0.2-0.1-0.3-0.1-0.4-0.1s-0.2,0-0.2,0.1c-0.1,0.1-0.2,0.1-0.4,0
		c0-0.3,0-0.5-0.1-0.5c-0.3,0.1-0.5,0.1-0.6,0.1c0-0.3-0.1-0.5-0.2-0.6c-0.1,0-0.2,0-0.2,0.1c-0.1,0.1-0.2,0.1-0.2,0
		c0-0.2,0-0.2-0.1-0.2c0-0.1-0.1-0.1-0.2,0l-0.5-0.6c-0.2,0-0.3,0-0.4,0.1s-0.2,0.1-0.2,0.1v-0.4l-0.1-0.1c-0.2-0.1-0.5-0.3-0.9-0.7
		s-0.7-0.6-1-0.7c-0.2-0.2-0.4-0.5-0.8-0.9c-0.4-0.3-0.6-0.5-0.7-0.6c-0.1,0-0.2,0-0.4-0.1c-0.2-0.1-0.3-0.2-0.4-0.2
		c0-0.1-0.1-0.3-0.2-0.6c-0.3-0.1-0.6-0.3-0.9-0.7c0.1-0.2,0.1-0.3,0.1-0.3s0-0.1-0.1-0.2c-0.6-0.1-0.9-0.3-0.9-0.6
		c0-0.1-0.3-0.4-0.9-0.9l-0.4-0.7c0-0.1,0-0.2,0-0.2c0-0.1,0-0.1-0.1-0.2c0,0-0.3-0.2-0.7-0.4c-0.2-0.8-0.5-1.2-0.7-1.2
		c-0.2-0.1-0.5,0.1-0.9,0.6c-0.3,0.5-0.5,0.7-0.6,0.7c-0.2,0.2-0.5,0.4-0.7,0.6c-0.1,0.1-0.2,0.1-0.2,0.1c-0.1,0.1-0.2,0.2-0.5,0.4
		c-0.2,0.2-0.4,0.3-0.4,0.4c-0.1,0.1-0.2,0.2-0.3,0.3c-0.1,0.1-0.2,0.2-0.3,0.3c-0.1,0.1-0.2,0.2-0.4,0.2c-0.4,0.2-0.6,0.4-0.6,0.7
		c-0.3-0.1-0.7,0-1,0.3s-0.5,0.4-0.6,0.4c0,0.1,0,0.2-0.1,0.4c-0.7,0-1.1,0.3-1.4,0.9l-0.2-0.1c-0.1,0.2-0.3,0.3-0.7,0.4
		c-0.4,0.1-0.6,0.2-0.7,0.4c-0.3,0-0.6,0-0.7,0.1c-0.2,0.1-0.2,0.2-0.2,0.5c0,0.1-0.2,0.1-0.5,0.1c-0.1-0.2-0.2-0.4-0.2-0.4
		c-0.1,0-0.2,0.1-0.2,0.2c-0.1,0.1-0.2,0.2-0.2,0.2c-0.1,0-0.1,0-0.2-0.1c0-0.1-0.1-0.1-0.2-0.1c-0.2,0-0.3,0.1-0.4,0.4
		c-0.5,0.1-0.9,0-1.2-0.1c-0.4,0.3-0.7,0.2-1-0.4h-0.5c-0.1,0-0.3-0.2-0.6-0.6c-0.3-0.4-0.7-0.6-1-0.6c-0.2-0.4-0.7-0.8-1.3-1.3
		c-0.6-0.5-1-0.9-1.2-1.3c-0.2-0.1-0.5-0.1-0.6-0.1c-0.1-0.1-0.1-0.2-0.1-0.4s0-0.3,0-0.4c0-0.1-0.1-0.2-0.2-0.3s-0.2-0.2-0.2-0.3
		s0-0.2,0.1-0.4s0.1-0.3,0.1-0.4c0-0.1-0.1-0.2-0.2-0.3s-0.2-0.2-0.2-0.3c0.1-0.1,0.1-0.1,0.2-0.2c0,0,0.1-0.1,0.1-0.2
		c0-0.1-0.1-0.2-0.3-0.5s-0.2-0.5-0.1-0.6c0-0.1-0.1-0.2-0.2-0.2c-0.1-0.1-0.2-0.2-0.3-0.2c0.1-0.2,0.2-0.3,0.2-0.5
		c0.1-0.6,0-1-0.1-1.2c-0.2-0.2-0.3-0.3-0.2-0.4h0.2c0.1-0.1,0.2-0.2,0.3-0.3c0.1-0.1,0.2-0.2,0.3-0.3c0.1-0.2,0.1-0.6,0.1-1.2
		c0-0.7,0.1-1,0.4-1.1c0-0.1,0-0.1,0-0.2c0,0,0-0.1,0-0.2c0.1-0.1,0.3-0.4,0.6-1c0.3-0.6,0.6-1,0.9-1.2c0-0.3,0.1-0.7,0.4-1V24
		c0-0.1,0.1-0.3,0.4-0.7c0.3-0.4,0.5-0.7,0.7-0.9c0-0.2,0.1-0.4,0.4-0.7c0-0.3,0.1-0.6,0.4-0.9c0.1,0,0.2,0,0.2,0
		c0.2-0.2,0.5-0.5,0.9-1.1c0.3-0.6,0.6-0.9,0.9-1.1V18c0.2-0.1,0.6-0.6,1.4-1.6c0.5-0.2,0.8-0.4,1-0.7c0.1-0.2,0.1-0.4,0.2-0.4
		c0,0,0.2-0.1,0.4-0.2c0.2-0.1,0.4-0.3,0.4-0.4c0.2,0,0.4-0.1,0.6-0.2c0.2-0.2,0.4-0.2,0.6-0.2c0-0.1,0.1-0.2,0.4-0.4
		s0.4-0.4,0.4-0.7c0.1,0,0.1,0,0.2,0.1c0,0,0.1,0.1,0.2,0.1l0.4-0.4c0.1,0,0.2,0,0.4,0s0.4,0,0.4-0.1c0.2,0,0.5-0.1,0.7-0.3
		s0.4-0.2,0.4-0.2c0.1,0,0.2,0,0.3,0c0.3,0.2,0.6,0.2,0.7,0.1c0.1,0,0.1-0.1,0.2-0.2c0-0.2,0.2-0.2,0.4-0.1c0.3,0.2,0.6,0.3,0.7,0.3
		s0.3,0,0.5,0s0.4-0.1,0.6-0.1c0,0.1,0,0.1,0.1,0.1s0.2,0,0.3,0c0.1,0.1,0.3,0.1,0.6,0.1c0.3,0,0.5-0.1,0.6-0.1
		c0.7,0.1,1,0.3,1.1,0.7C277.9,13.2,277.9,13.3,277.9,13.5z M278.4,14.7c0.1,0,0.2,0,0.3,0c0.1,0,0.2,0,0.3,0
		c0.1,0.2,0.3,0.5,0.6,0.7c0.3,0.2,0.4,0.5,0.4,0.6s0,0.2,0,0.5s0,0.4,0,0.5s0.1,0.1,0.2,0.1s0.2,0.1,0.1,0.3H280
		c-0.1,0.2,0,0.4,0.1,0.7c-0.1,0.2-0.2,0.4-0.4,0.6l-0.2,0.5c-0.1,0.2-0.1,0.3,0.1,0.4c0.1,0.1,0.2,0.2,0.2,0.3
		c-0.2,0.2-0.4,0.4-0.4,0.5s0,0.2,0.1,0.3c0.1,0.1,0.1,0.2,0.1,0.3c-0.6,0.7-1.2,1-1.7,1c-0.1,0-0.2,0-0.3,0c-0.1,0-0.3,0-0.4,0
		l-0.2,0.1c-0.2,0-0.4-0.1-0.7-0.3c-0.3-0.2-0.6-0.3-0.8-0.2c-0.3-0.2-0.6-0.4-0.9-0.4c-0.2,0.2-0.3,0.3-0.4,0.3s-0.2,0.1-0.2,0.1
		c-0.1,0-0.1,0-0.2,0.1c0,0-0.1,0.1-0.2,0.1s-0.1,0.1-0.1,0.2c-0.1,0-0.3,0.1-0.6,0.3c-0.3,0.2-0.6,0.4-0.7,0.6
		c-0.2,0.2-0.3,0.3-0.4,0.4c-0.2,0.2-0.8,0.7-1.6,1.7c-0.1,0.2-0.2,0.4-0.4,0.6c-0.2,0.2-0.4,0.4-0.4,0.5s0,0.2-0.1,0.3
		c-0.1,0.1-0.2,0.1-0.2,0.1c0,0.2-0.1,0.5-0.3,0.7c-0.2,0.2-0.4,0.4-0.4,0.4V28c-0.2,0.2-0.5,0.5-0.8,1s-0.5,0.9-0.7,1
		c0,0.2-0.1,0.5-0.2,0.8s-0.2,0.5-0.3,0.7c-0.2,0.1-0.2,0.2-0.2,0.2c0,0.1,0,0.2,0.1,0.2c0.1,0.1,0.1,0.2,0.1,0.2
		c0,0.1-0.1,0.1-0.2,0.2c-0.2,0-0.3,0.1-0.4,0.1c0.1,0.3,0.3,0.4,0.6,0.3c0.1,0,0.2-0.1,0.4-0.3c0.2-0.2,0.4-0.3,0.6-0.3
		c0.1-0.1,0.2-0.2,0.3-0.3c0.1-0.1,0.2-0.2,0.2-0.2h0.2c0.2-0.1,0.4-0.2,0.6-0.5c0.2-0.2,0.4-0.4,0.5-0.5s0.2-0.1,0.4-0.2
		c0.2,0,0.3-0.1,0.4-0.2c0.2-0.1,0.3-0.3,0.5-0.6c0.2-0.2,0.3-0.2,0.4-0.2c0.2-0.2,0.4-0.5,0.9-0.9c0.2-0.2,0.4-0.4,0.7-0.7
		c0.3-0.3,0.5-0.5,0.7-0.6c0.7-0.7,1.1-1.1,1.2-1.4c0.2-0.1,0.5-0.4,1-0.9c0.1-0.4,0.1-0.6,0.1-0.7c0,0,0.1,0,0.2,0s0.2,0.1,0.3,0.1
		c0.1,0,0.1-0.1,0.2-0.2c0-0.2,0.1-0.2,0.2-0.2c0-0.1,0.1-0.2,0.2-0.2c0.2-0.1,0.3-0.1,0.4-0.2c0.1,0,0.2-0.1,0.2-0.3
		c0.1-0.2,0.2-0.3,0.2-0.4c0.2,0.1,0.5,0,0.9-0.4c0.2,0.1,0.4,0.1,0.7,0h0.2c0.1,0,0.2,0,0.2,0c0.1,0,0.2,0,0.2,0
		c0.1,0,0.2,0,0.2-0.1c0.1-0.1,0.1-0.1,0.2-0.1c0,0,0.1,0,0.1,0.1s0.1,0.1,0.2,0.1h0.1c0.1,0.1,0.2,0.2,0.5,0.4
		c0.1,0.1,0.2,0.1,0.3,0.1c0.1,0,0.2,0,0.3,0.1l0.4,0.6c0.3,0,0.8,0.4,1.4,1.1c-0.1,0.2,0,0.5,0.4,0.7c0.2,0.1,0.2,0.2,0.2,0.2
		c0.1,0,0.2,0.2,0.2,0.5c0.1,0.1,0.1,0.1,0.2,0.2c0,0,0.1,0.1,0.1,0.2c0.1,0.1,0.1,0.2,0.2,0.4c0,0.2,0.1,0.3,0.1,0.4
		c0.1,0.1,0.2,0.2,0.3,0.4c0.1,0.2,0.2,0.4,0.3,0.4c0.1,0.3,0.2,0.6,0.4,0.7c0,0.1,0,0.2,0.1,0.4c0,0.2,0.1,0.3,0.1,0.4l0.4,0.1
		c-0.2,0.3-0.1,0.6,0.2,0.9c0.3,0.3,0.4,0.6,0.4,0.8l0.6,0.9c0.3,0.2,0.6,0.4,0.9,0.8c0.4,0.4,0.6,0.6,0.7,0.7c0,0.1,0,0.1,0.1,0.2
		c0,0,0.1,0.1,0.1,0.2c0.2,0.2,0.5,0.5,1,1s0.9,0.9,1.2,1.2h0.2c0.4,0.2,0.7,0.4,1,0.4c0.2,0.2,0.4,0.4,0.6,0.7
		c0.3,0,0.8-0.2,1.5-0.5c0.1,0.1,0.3,0.1,0.7,0c0.7,0,1.1,0.1,1.2,0.2c0.1,0.1,0.1,0.1,0.2,0.1c0,0,0.1-0.1,0.2-0.1
		c0.2,0.3,0.7,0.4,1.5,0.1c0.1,0.2,0.1,0.4,0,0.6c-0.1,0.1-0.1,0.2-0.1,0.2c-0.1,0.4,0.2,0.7,0.7,0.7c0.2,0,0.4,0,0.5,0.1
		s0.1,0.2-0.1,0.4c-0.1,0.2-0.1,0.4-0.1,0.4c0,0.2,0,0.3,0.1,0.4c0.1,0.1,0.2,0.2,0.3,0.2c0,0.3-0.2,0.6-0.5,0.9
		c-0.3,0.2-0.5,0.4-0.6,0.5c0,0.2,0,0.4,0.1,0.6c0,0.2,0.1,0.4,0.1,0.4c-0.1,0.2-0.2,0.4-0.4,0.7c-0.2,0.3-0.2,0.5-0.2,0.7
		c-1.2,0-2,0.5-2.2,1.6c-0.2,0-0.3,0-0.4-0.1s-0.2-0.1-0.2-0.1c-0.1,0-0.2,0.1-0.2,0.3c0,0.1,0,0.1-0.1,0.1c-0.3-0.1-0.6-0.1-0.7,0
		c-0.3-0.5-0.5-0.5-0.7,0c-0.1,0-0.2,0-0.3-0.1c-0.1-0.1-0.3-0.1-0.4-0.1s-0.1,0-0.1,0.1s0,0.1-0.1,0.1c-0.1-0.1-0.4-0.1-0.9-0.1
		c-0.1-0.1-0.1-0.2-0.1-0.4c-0.1,0-0.2,0-0.4-0.1c-0.2-0.1-0.3-0.1-0.4-0.1s-0.2,0-0.2,0.1c-0.1,0.1-0.2,0.1-0.4,0
		c0-0.3,0-0.5-0.1-0.5c-0.3,0.1-0.5,0.1-0.6,0.1c0-0.3-0.1-0.5-0.2-0.6c-0.1,0-0.2,0-0.2,0.1c-0.1,0.1-0.2,0.1-0.2,0
		c0-0.2,0-0.2-0.1-0.2c0-0.1-0.1-0.1-0.2,0l-0.5-0.6c-0.2,0-0.3,0-0.4,0.1s-0.2,0.1-0.2,0.1v-0.4l-0.1-0.1c-0.2-0.1-0.5-0.3-0.9-0.7
		s-0.7-0.6-1-0.7c-0.2-0.2-0.4-0.5-0.8-0.9c-0.4-0.3-0.6-0.5-0.7-0.6c-0.1,0-0.2,0-0.4-0.1c-0.2-0.1-0.3-0.2-0.4-0.2
		c0-0.1-0.1-0.3-0.2-0.6c-0.3-0.1-0.6-0.3-0.9-0.7c0.1-0.2,0.1-0.3,0.1-0.3s0-0.1-0.1-0.2c-0.6-0.1-0.9-0.3-0.9-0.6
		c0-0.1-0.3-0.4-0.9-0.9l-0.4-0.7c0-0.1,0-0.2,0-0.2c0-0.1,0-0.1-0.1-0.2c0,0-0.3-0.2-0.7-0.4c-0.2-0.8-0.5-1.2-0.7-1.2
		c-0.2-0.1-0.5,0.1-0.9,0.6c-0.3,0.5-0.5,0.7-0.6,0.7c-0.2,0.2-0.5,0.4-0.7,0.6c-0.1,0.1-0.2,0.1-0.2,0.1c-0.1,0.1-0.2,0.2-0.5,0.4
		c-0.2,0.2-0.4,0.3-0.4,0.4c-0.1,0.1-0.2,0.2-0.3,0.3c-0.1,0.1-0.2,0.2-0.3,0.3c-0.1,0.1-0.2,0.2-0.4,0.2c-0.4,0.2-0.6,0.4-0.6,0.7
		c-0.3-0.1-0.7,0-1,0.3s-0.5,0.4-0.6,0.4c0,0.1,0,0.2-0.1,0.4c-0.7,0-1.1,0.3-1.4,0.9l-0.2-0.1c-0.1,0.2-0.3,0.3-0.7,0.4
		c-0.4,0.1-0.6,0.2-0.7,0.4c-0.3,0-0.6,0-0.7,0.1c-0.2,0.1-0.2,0.2-0.2,0.5c0,0.1-0.2,0.1-0.5,0.1c-0.1-0.2-0.2-0.4-0.2-0.4
		c-0.1,0-0.2,0.1-0.2,0.2c-0.1,0.1-0.2,0.2-0.2,0.2c-0.1,0-0.1,0-0.2-0.1c0-0.1-0.1-0.1-0.2-0.1c-0.2,0-0.3,0.1-0.4,0.4
		c-0.5,0.1-0.9,0-1.2-0.1c-0.4,0.3-0.7,0.2-1-0.4h-0.5c-0.1,0-0.3-0.2-0.6-0.6c-0.3-0.4-0.7-0.6-1-0.6c-0.2-0.4-0.7-0.8-1.3-1.3
		c-0.6-0.5-1-0.9-1.2-1.3c-0.2-0.1-0.5-0.1-0.6-0.1c-0.1-0.1-0.1-0.2-0.1-0.4s0-0.3,0-0.4c0-0.1-0.1-0.2-0.2-0.3s-0.2-0.2-0.2-0.3
		s0-0.2,0.1-0.4s0.1-0.3,0.1-0.4c0-0.1-0.1-0.2-0.2-0.3s-0.2-0.2-0.2-0.3c0.1-0.1,0.1-0.1,0.2-0.2c0,0,0.1-0.1,0.1-0.2
		c0-0.1-0.1-0.2-0.3-0.5s-0.2-0.5-0.1-0.6c0-0.1-0.1-0.2-0.2-0.2c-0.1-0.1-0.2-0.2-0.3-0.2c0.1-0.2,0.2-0.3,0.2-0.5
		c0.1-0.6,0-1-0.1-1.2c-0.2-0.2-0.3-0.3-0.2-0.4h0.2c0.1-0.1,0.2-0.2,0.3-0.3c0.1-0.1,0.2-0.2,0.3-0.3c0.1-0.2,0.1-0.6,0.1-1.2
		c0-0.7,0.1-1,0.4-1.1c0-0.1,0-0.1,0-0.2c0,0,0-0.1,0-0.2c0.1-0.1,0.3-0.4,0.6-1c0.3-0.6,0.6-1,0.9-1.2c0-0.3,0.1-0.7,0.4-1V24
		c0-0.1,0.1-0.3,0.4-0.7c0.3-0.4,0.5-0.7,0.7-0.9c0-0.2,0.1-0.4,0.4-0.7c0-0.3,0.1-0.6,0.4-0.9c0.1,0,0.2,0,0.2,0
		c0.2-0.2,0.5-0.5,0.9-1.1c0.3-0.6,0.6-0.9,0.9-1.1V18c0.2-0.1,0.6-0.6,1.4-1.6c0.5-0.2,0.8-0.4,1-0.7c0.1-0.2,0.1-0.4,0.2-0.4
		c0,0,0.2-0.1,0.4-0.2c0.2-0.1,0.4-0.3,0.4-0.4c0.2,0,0.4-0.1,0.6-0.2c0.2-0.2,0.4-0.2,0.6-0.2c0-0.1,0.1-0.2,0.4-0.4
		s0.4-0.4,0.4-0.7c0.1,0,0.1,0,0.2,0.1c0,0,0.1,0.1,0.2,0.1l0.4-0.4c0.1,0,0.2,0,0.4,0s0.4,0,0.4-0.1c0.2,0,0.5-0.1,0.7-0.3
		s0.4-0.2,0.4-0.2c0.1,0,0.2,0,0.3,0c0.3,0.2,0.6,0.2,0.7,0.1c0.1,0,0.1-0.1,0.2-0.2c0-0.2,0.2-0.2,0.4-0.1c0.3,0.2,0.6,0.3,0.7,0.3
		s0.3,0,0.5,0s0.4-0.1,0.6-0.1c0,0.1,0,0.1,0.1,0.1s0.2,0,0.3,0c0.1,0.1,0.3,0.1,0.6,0.1c0.3,0,0.5-0.1,0.6-0.1
		c0.7,0.1,1,0.3,1.1,0.7c0,0.1,0,0.2,0,0.4s0,0.3,0,0.3s0.1,0.1,0.2,0.3C278.3,14.3,278.4,14.5,278.4,14.7z M261.5,39.7
		c0.1,0,0.2,0,0.2,0c0-0.2-0.1-0.2-0.2-0.2c-0.1,0.1-0.1,0.1-0.1,0.2C261.3,39.6,261.4,39.7,261.5,39.7z M261.5,39.4
		c-0.1,0.1-0.1,0.1-0.1,0.2c0,0,0,0.1,0.1,0.1s0.2,0,0.2,0C261.7,39.5,261.6,39.4,261.5,39.4z M280.3,18v-0.1h0.1
		C280.5,18,280.4,18,280.3,18z M280.3,17.9h0.1c0.1,0.1,0,0.1-0.1,0.1V17.9z"/>
	<path fill="#F8CBAD" d="M336.7,10.8c0.2-0.1,0.4,0,0.6,0.3c0.3-0.1,0.8,0.1,1.5,0.6c0.2,0,0.3,0,0.4,0c0.1,0.1,0.3,0.3,0.6,0.6
		c0.3,0.3,0.6,0.6,0.8,0.7c0.1,0.2,0.4,0.5,0.9,0.8s0.9,0.6,1,0.8v0.2c0.5,0.5,0.9,0.7,1.1,0.7l0.1,0.5c0.2,0.3,0.6,0.8,1.2,1.3
		c0.5,0.5,0.9,0.9,1.2,1c0,0.1,0,0.2,0,0.4c0.1,0.1,0.2,0.2,0.3,0.2c0.1,0.1,0.2,0.2,0.3,0.2c0,0.1,0,0.2,0,0.2
		c0.1,0.2,0.2,0.4,0.4,0.6c0.3,0.5,0.6,0.8,0.9,1c0,0.4,0.3,0.8,0.9,1.1c0,0.1,0,0.2,0.1,0.4c0.3,0.4,0.5,0.7,0.5,0.9
		c0.2,0.2,0.4,0.4,0.7,0.7c0.3,0.3,0.6,0.6,0.7,0.7c0.1,0.3,0.4,0.8,1.1,1.4c0.2,0.2,0.5,0.3,0.6,0.5c0,0.1,0.1,0.2,0.2,0.3
		c0.1,0.1,0.2,0.2,0.3,0.3c0.2,0.2,0.4,0.4,0.5,0.4s0.2,0,0.4,0.1c0.1,0,0.2,0.1,0.2,0.3c0.2,0.2,0.5,0.2,0.9,0
		c-0.1,0.1-0.1,0.2,0,0.2c0.7,0.5,1.1,0.9,1.4,1.2c0,0.2,0.1,0.5,0.4,0.8c0.2,0.3,0.4,0.5,0.5,0.6c0.2,0.1,0.3,0.1,0.4,0.1
		c-0.1,1.2,0,1.9,0.1,2.1h0.1c0.1,0,0.1,0,0.2,0.1c0,0.1-0.1,0.2-0.3,0.2c-0.2,0.2-0.5,0.3-0.6,0.5l-0.4,0.2c0,0.2-0.1,0.4-0.3,0.6
		c-0.2,0.2-0.3,0.4-0.3,0.4c-0.1,0.1-0.2,0.1-0.3,0.2c-0.1,0-0.2,0.1-0.2,0.2c-0.1,0-0.1,0.1-0.1,0.4c0,0.3,0,0.4-0.1,0.4
		c-0.2,0.1-0.5,0-0.9-0.1c-0.5-0.2-0.8-0.2-1,0c-0.3-0.2-0.6-0.2-0.7-0.1c-0.1-0.1-0.4,0-1,0.1c0.2-0.3,0-0.6-0.5-0.7
		c-0.3-0.1-0.5-0.2-0.5-0.2c-0.1,0-0.2,0-0.3,0.1c-0.1,0-0.2,0-0.3,0c0,0-0.1-0.1-0.1-0.2c0-0.1,0-0.1-0.1-0.2c0,0-0.1-0.1-0.2-0.1
		c-0.2-0.1-0.2-0.2-0.2-0.4c-0.1,0-0.2,0-0.2-0.1c-0.1,0-0.2-0.1-0.3-0.1c-0.5-0.7-0.9-1.1-1.2-1.2c-0.1-0.1-0.2-0.2-0.2-0.2
		c-0.2-0.3-0.4-0.5-0.6-0.5c-0.2-0.2-0.4-0.5-0.6-0.6c-0.1,0-0.1,0-0.1,0.1s0,0.1-0.1,0l-0.1-0.2c-0.6-0.5-1-1.1-1.2-1.7
		c-0.2-0.1-0.4-0.1-0.5-0.1c-0.2-0.1-0.3-0.3-0.4-0.7c-0.3-0.1-0.6-0.3-0.9-0.7c-0.2-0.4-0.4-0.6-0.5-0.6c-0.3,0.2-0.5-0.2-0.5-1
		c-0.1,0-0.3,0-0.5-0.1c0-0.1-0.1-0.2-0.2-0.5c-0.2-0.2-0.3-0.4-0.5-0.4c0-0.2-0.3-0.7-0.9-1.6c-0.2,0-0.3,0-0.4,0
		c-0.1-0.2-0.2-0.4-0.4-0.5c-0.1-0.6-0.4-0.9-0.9-1.1c-0.1,0-0.1,0.2-0.1,0.5c-0.1,0-0.2,0.3-0.4,0.9c-0.1,0-0.1,0-0.2,0.1
		c0,0.1-0.1,0.1-0.1,0.2c0,0-0.1,0.1-0.1,0.3c0,0.1,0,0.2,0,0.2s-0.1,0.2-0.2,0.4c-0.1,0.2-0.1,0.4-0.1,0.7c0,0.3,0,0.5,0,0.6
		c-0.1,0.1-0.2,0.2-0.3,0.2c-0.1,0.1-0.1,0.2-0.1,0.2c-0.1,0.2-0.1,0.4-0.1,0.7c0,0.3,0,0.5-0.1,0.6c-0.2,0.2-0.3,0.3-0.3,0.4
		s-0.1,0.2-0.1,0.3c0,0.1,0,0.2,0,0.3c0,0.1-0.1,0.2-0.4,0.4c0.1,0.2,0,0.6-0.1,0.9c-0.2,0.4-0.2,0.6-0.2,0.7
		c-0.1,0.1-0.1,0.2,0,0.4c-0.1,0.1-0.2,0.2-0.2,0.3c-0.1,0.1-0.1,0.2-0.1,0.3c0,0.2,0,0.2-0.1,0.2c0,0-0.1,0.1-0.2,0.2
		c-0.1,0.1-0.2,0.3-0.2,0.6c-0.1,0.3-0.2,0.5-0.2,0.6s0,0.1,0.1,0.2c0.1,0,0.1,0.1,0.1,0.2c-0.1,0.1-0.2,0.2-0.4,0.5
		c-0.3,0.5-0.7,0.8-1.1,1c-0.2,0.4-0.3,0.7-0.4,0.7s-0.2,0-0.5-0.1s-0.4,0-0.5,0.1c-0.2,0.2-0.3,0.2-0.3,0.2s-0.2,0-0.6-0.1
		c-0.1,0.1-0.2,0.1-0.2,0.1c-0.2-0.2-0.3-0.4-0.4-0.5c-0.1,0.1-0.2,0.2-0.4,0.2c-0.2,0.1-0.4,0.2-0.4,0.2c-0.3-0.2-0.5-0.4-0.5-0.6
		c-0.5-0.1-0.8-0.4-1-0.9c-0.3,0-0.7-0.2-1-0.6c-0.4-0.4-0.6-0.7-0.7-0.7v-0.4c0-0.1-0.1-0.2-0.2-0.2c-0.1-0.1-0.2-0.2-0.3-0.2
		c0.1-0.2,0.1-0.2,0-0.2c0-0.1-0.3-0.3-1-0.7c0-0.1,0-0.2,0.1-0.2c0-0.1,0.1-0.2,0.1-0.2c-0.3-0.2-0.5-0.3-0.6-0.4
		c0.1-0.4,0-0.8-0.3-1.1c-0.3-0.3-0.5-0.6-0.6-0.9c0-0.1-0.1-0.1-0.2-0.2c-0.1,0-0.2-0.1-0.3-0.2c0-0.2-0.2-0.4-0.5-0.6
		c0-0.3-0.1-0.5-0.4-0.7c0-0.4-0.2-0.7-0.5-1c-0.2-0.1-0.3-0.2-0.4-0.3c0-0.4-0.2-0.7-0.6-0.9c-0.4,1.1-0.6,2.6-0.5,4.7
		c-0.1,0.1-0.2,0.2-0.2,0.2c-0.1,0.1-0.1,0.2-0.1,0.3c-0.1,0.2-0.1,0.4,0,0.7c0.1,0.3,0.1,0.5,0,0.7c-0.2,0.2-0.4,0.3-0.4,0.4
		s0.1,0.2,0.2,0.4s0.1,0.4,0.1,0.7c-0.2,0.2-0.3,0.4-0.4,0.5c0,0.1,0,0.3,0.1,0.7c0,0.4,0,0.6-0.2,0.6c0,0.1,0,0.1,0.1,0.2
		c0.1,0,0.1,0.1,0.1,0.2c0,0.1-0.1,0.2-0.4,0.2c0,0.2,0,0.6-0.1,1.2c0,0.5-0.1,0.9-0.1,1.2c-0.2,0.1-0.2,0.2-0.2,0.4
		s0.1,0.3,0.4,0.4c0,0.1-0.1,0.1-0.2,0.2s-0.2,0.1-0.2,0.1s0,0.3-0.1,0.8c-0.1,0.3-0.2,0.4-0.4,0.5c0.1,0.2,0.1,0.5-0.1,0.9
		c-0.1,0.3-0.3,0.5-0.4,0.5c-0.2,0-0.3,0-0.4-0.1c-0.3,0.2-0.7,0.4-1.1,0.7c-0.2,0.2-0.4,0.5-0.4,0.9c-0.1,0-0.2,0-0.2,0
		c-0.1-0.1-0.1-0.2-0.1-0.4s-0.1-0.4-0.2-0.6c-0.1,0-0.2,0.2-0.4,0.6h-0.4c0-0.2-0.1-0.5-0.3-0.6c-0.2-0.2-0.4-0.2-0.6-0.2
		c0,0.2,0,0.4-0.1,0.4c-0.3-0.1-0.5-0.2-0.6-0.4c0-0.1,0-0.2,0-0.2c0-0.1,0-0.1-0.1-0.1c-0.1-0.5-0.6-0.7-1.6-0.6
		c-0.2-0.1-0.2-0.3-0.2-0.5v-0.2c-0.1-0.2-0.2-0.4-0.4-0.6c-0.2-0.2-0.4-0.4-0.4-0.5s0-0.1-0.1-0.1s-0.1,0-0.1-0.1
		c-0.1-0.3-0.2-0.6-0.2-0.7l-0.3-0.1c0.1-0.7,0.1-1.2,0.1-1.3s-0.1-0.3-0.3-0.6c-0.2-0.2-0.3-0.4-0.4-0.5c0-0.2,0.1-0.4,0.2-0.6
		c0-0.2-0.1-0.5-0.2-0.8c-0.2-0.3-0.2-0.6-0.1-0.8c-0.1-0.2-0.3-0.2-0.6-0.2c-0.1-0.2,0-0.3,0.2-0.4c0-0.2,0-0.3,0-0.4
		c0-0.1,0-0.2,0-0.3s-0.1-0.2-0.2-0.3s-0.2-0.2-0.2-0.3c-0.1-0.2-0.1-0.4-0.1-0.7c0-0.3,0-0.5-0.1-0.6c0-0.1-0.1-0.2-0.2-0.2
		c-0.1-0.1-0.2-0.1-0.2-0.2c0,0,0-0.2,0.1-0.6c-0.1-0.6-0.2-0.9-0.4-1.1c0-0.9-0.1-1.4-0.2-1.5c-0.2,0-0.4,0-0.4-0.1s0-0.1,0.1-0.2
		c0.1,0,0.1-0.1,0.1-0.2s0-0.2,0-0.5c-0.1-0.7-0.3-1-0.6-1c-0.2-0.2-0.1-0.5,0.1-1c0-0.2-0.1-0.3-0.2-0.4s-0.2-0.2-0.2-0.2
		c0.1-0.4,0-0.7-0.4-0.9c0.2-0.2,0.2-0.3,0.2-0.4c-0.2-0.1-0.2-0.3-0.2-0.7s-0.1-0.7-0.3-0.7c0-0.1,0-0.1,0.1-0.2
		c0,0,0.1-0.1,0.1-0.2c-0.2-0.2-0.2-0.3-0.2-0.4s0-0.2-0.1-0.4c0-0.2-0.1-0.4-0.1-0.4c-0.1,0-0.2-0.1-0.4-0.2
		c-0.1-0.1-0.1-0.2,0-0.2c0.1-0.1,0.1-0.2,0.1-0.3c-0.1-1.4,0.1-2.1,0.6-2.2v-0.7c0.5-0.5,1-0.7,1.6-0.7l0.3-0.4
		c0.2,0.2,0.7,0.1,1.5-0.2c0.2,0.2,0.4,0.2,0.6,0.2c0.3,0,0.5,0,0.6,0s0.2,0.1,0.3,0.2c0.1,0.1,0.2,0.2,0.3,0.2
		c0.4,0.2,0.6,0.3,0.6,0.4c0.2,0.1,0.3,0.1,0.4,0c1.1,1.2,1.7,1.9,1.7,2c0.3,0,0.5,0,0.6-0.1s0.1-0.1,0.1-0.2s0-0.2,0.1-0.3
		c0,0,0.1-0.1,0.2-0.2s0.2-0.2,0.2-0.3c0-0.1,0-0.2-0.1-0.4c0-0.1,0.1-0.2,0.3-0.4c0.2-0.2,0.2-0.3,0.2-0.5c0.1,0,0.2-0.1,0.4-0.2
		c0.3-0.3,0.5-0.5,0.9-0.4c0.2-0.1,0.3-0.2,0.4-0.5s0.3-0.4,0.4-0.5h0.4c0.1,0,0.2-0.1,0.3-0.2c0.1-0.1,0.2-0.2,0.3-0.2
		c0.3,0,0.6,0,0.9-0.1c0.1,0,0.2,0,0.5,0.1c0.2,0.3,0.5,0.5,1,0.6c0.5,0.2,0.7,0.3,0.7,0.4c0,0.2,0.2,0.4,0.6,0.5
		c0.2,0.1,0.3,0.2,0.4,0.3c0,0.3,0.2,0.5,0.5,0.6c0.2,0.3,0.5,0.6,1.1,1.2c0.6,0.5,1,1,1.2,1.4v0.2c0.3,0.2,0.5,0.4,0.8,0.8
		s0.5,0.6,0.7,0.8c0.1,0.2,0.2,0.4,0.4,0.6c0.2,0.2,0.3,0.5,0.3,0.7c0.1,0,0.2,0,0.2,0.1c0.1,0,0.2,0.1,0.2,0.1
		c0.1,0.3,0.3,0.7,0.7,1.2c0.2,0.3,0.3,0.6,0.4,0.7c0,0.2,0,0.2,0.1,0.2c0.2,0.2,0.3,0,0.4-0.5c0.1-0.1,0.2-0.2,0.3-0.5
		c0.1-0.2,0.2-0.4,0.3-0.5c0-0.3,0.1-0.7,0.3-1.1c0.2-0.4,0.3-0.8,0.3-1.1c0.1-0.1,0.2-0.3,0.3-0.7c0.1-0.4,0.2-0.7,0.3-0.7
		c0-0.3,0.3-0.7,0.9-1.2c0-0.1,0-0.2,0-0.4c0-0.1,0-0.2,0.1-0.2c0.1-0.1,0.2-0.2,0.2-0.3c0-0.2,0-0.3,0-0.3s0-0.1,0.1-0.2
		c0.1-0.1,0.1-0.1,0.1-0.2c0,0,0-0.2,0.1-0.4c0.4-0.3,0.6-0.6,0.5-0.7c0.2-0.1,0.3-0.3,0.5-0.7c0.2,0,0.3,0,0.4,0
		c0.2-0.8,0.7-1.2,1.5-1.1c0.2-0.1,0.4-0.2,0.7-0.4c0.3-0.2,0.5-0.3,0.7-0.5C336.6,10.9,336.6,10.8,336.7,10.8z M336.7,11.1
		c-0.1-0.2-0.1-0.4,0-0.4c0.2-0.1,0.4,0,0.6,0.3c0.3-0.1,0.8,0.1,1.5,0.6c0.2,0,0.3,0,0.4,0c0.1,0.1,0.3,0.3,0.6,0.6
		c0.3,0.3,0.6,0.6,0.8,0.7c0.1,0.2,0.4,0.5,0.9,0.8s0.9,0.6,1,0.8v0.2c0.5,0.5,0.9,0.7,1.1,0.7l0.1,0.5c0.2,0.3,0.6,0.8,1.2,1.3
		c0.5,0.5,0.9,0.9,1.2,1c0,0.1,0,0.2,0,0.4c0.1,0.1,0.2,0.2,0.3,0.2c0.1,0.1,0.2,0.2,0.3,0.2c0,0.1,0,0.2,0,0.2
		c0.1,0.2,0.2,0.4,0.4,0.6c0.3,0.5,0.6,0.8,0.9,1c0,0.4,0.3,0.8,0.9,1.1c0,0.1,0,0.2,0.1,0.4c0.3,0.4,0.5,0.7,0.5,0.9
		c0.2,0.2,0.4,0.4,0.7,0.7c0.3,0.3,0.6,0.6,0.7,0.7c0.1,0.3,0.4,0.8,1.1,1.4c0.2,0.2,0.5,0.3,0.6,0.5c0,0.1,0.1,0.2,0.2,0.3
		c0.1,0.1,0.2,0.2,0.3,0.3c0.2,0.2,0.4,0.4,0.5,0.4s0.2,0,0.4,0.1c0.1,0,0.2,0.1,0.2,0.3c0.2,0.2,0.5,0.2,0.9,0
		c-0.1,0.1-0.1,0.2,0,0.2c0.7,0.5,1.1,0.9,1.4,1.2c0,0.2,0.1,0.5,0.4,0.8c0.2,0.3,0.4,0.5,0.5,0.6c0.2,0.1,0.3,0.1,0.4,0.1
		c-0.1,1.2,0,1.9,0.1,2.1h0.1c0.1,0,0.1,0,0.2,0.1c0,0.1-0.1,0.2-0.3,0.2c-0.2,0.2-0.5,0.3-0.6,0.5l-0.4,0.2c0,0.2-0.1,0.4-0.3,0.6
		c-0.2,0.2-0.3,0.4-0.3,0.4c-0.1,0.1-0.2,0.1-0.3,0.2c-0.1,0-0.2,0.1-0.2,0.2c-0.1,0-0.1,0.1-0.1,0.4c0,0.3,0,0.4-0.1,0.4
		c-0.2,0.1-0.5,0-0.9-0.1c-0.5-0.2-0.8-0.2-1,0c-0.3-0.2-0.6-0.2-0.7-0.1c-0.1-0.1-0.4,0-1,0.1c0.2-0.3,0-0.6-0.5-0.7
		c-0.3-0.1-0.5-0.2-0.5-0.2c-0.1,0-0.2,0-0.3,0.1c-0.1,0-0.2,0-0.3,0c0,0-0.1-0.1-0.1-0.2c0-0.1,0-0.1-0.1-0.2c0,0-0.1-0.1-0.2-0.1
		c-0.2-0.1-0.2-0.2-0.2-0.4c-0.1,0-0.2,0-0.2-0.1c-0.1,0-0.2-0.1-0.3-0.1c-0.5-0.7-0.9-1.1-1.2-1.2c-0.5-0.5-0.8-0.7-0.9-0.7
		c-0.2-0.2-0.4-0.5-0.6-0.6c-0.1,0-0.1,0-0.1,0.1s0,0.1-0.1,0l-0.1-0.2c-0.6-0.5-1-1.1-1.2-1.7c-0.2-0.1-0.4-0.1-0.5-0.1
		c-0.2-0.1-0.3-0.3-0.4-0.7c-0.3-0.1-0.6-0.3-0.9-0.7c-0.2-0.4-0.4-0.6-0.5-0.6c-0.3,0.2-0.5-0.2-0.5-1c-0.1,0-0.3,0-0.5-0.1
		c0-0.1-0.1-0.2-0.2-0.5c-0.2-0.2-0.3-0.4-0.5-0.4c0-0.2-0.3-0.7-0.9-1.6c-0.2,0-0.3,0-0.4,0c-0.1-0.2-0.2-0.4-0.4-0.5
		c-0.1-0.6-0.4-0.9-0.9-1.1c-0.1,0-0.1,0.2-0.1,0.5c-0.1,0-0.2,0.3-0.4,0.9c-0.1,0-0.1,0-0.2,0.1c0,0.1-0.1,0.1-0.1,0.2
		c0,0-0.1,0.1-0.1,0.3c0,0.1,0,0.2,0,0.2s-0.1,0.2-0.2,0.4c-0.1,0.2-0.1,0.4-0.1,0.7c0,0.3,0,0.5,0,0.6c-0.1,0.1-0.2,0.2-0.3,0.2
		c-0.1,0.1-0.1,0.2-0.1,0.2c-0.1,0.2-0.1,0.4-0.1,0.7c0,0.3,0,0.5-0.1,0.6c-0.2,0.2-0.3,0.3-0.3,0.4s-0.1,0.2-0.1,0.3
		c0,0.1,0,0.2,0,0.3c0,0.1-0.1,0.2-0.4,0.4c0.1,0.2,0,0.6-0.1,0.9c-0.2,0.4-0.2,0.6-0.2,0.7c-0.1,0.1-0.1,0.2,0,0.4
		c-0.1,0.1-0.2,0.2-0.2,0.3c-0.1,0.1-0.1,0.2-0.1,0.3c0,0.2,0,0.2-0.1,0.2c0,0-0.1,0.1-0.2,0.2c-0.1,0.1-0.2,0.3-0.2,0.6
		c-0.1,0.3-0.2,0.5-0.2,0.6s0,0.1,0.1,0.2c0.1,0,0.1,0.1,0.1,0.2c-0.1,0.1-0.2,0.2-0.4,0.5c-0.3,0.5-0.7,0.8-1.1,1
		c-0.2,0.4-0.3,0.7-0.4,0.7s-0.2,0-0.5-0.1s-0.4,0-0.5,0.1c-0.2,0.2-0.3,0.2-0.3,0.2s-0.2,0-0.6-0.1c-0.1,0.1-0.2,0.1-0.2,0.1
		c-0.2-0.2-0.3-0.4-0.4-0.5c-0.1,0-0.2,0.1-0.4,0.2c-0.2,0.1-0.4,0.2-0.4,0.3c-0.3-0.2-0.5-0.4-0.5-0.6c-0.5-0.1-0.8-0.4-1-0.9
		c-0.3,0-0.7-0.2-1-0.6c-0.4-0.4-0.6-0.7-0.7-0.7v-0.4c0-0.1-0.1-0.2-0.2-0.2c-0.1-0.1-0.2-0.2-0.3-0.2c0.1-0.2,0.1-0.2,0-0.2
		c0-0.1-0.3-0.3-1-0.7c0-0.1,0-0.2,0.1-0.2c0-0.1,0.1-0.2,0.1-0.2c-0.3-0.2-0.5-0.3-0.6-0.4c0.1-0.4,0-0.8-0.3-1.1
		c-0.3-0.3-0.5-0.6-0.6-0.9c0-0.1-0.1-0.1-0.2-0.2c-0.1,0-0.2-0.1-0.3-0.2c0-0.2-0.2-0.4-0.5-0.6c0-0.3-0.1-0.5-0.4-0.7
		c0-0.4-0.2-0.7-0.5-1c-0.2-0.1-0.3-0.2-0.4-0.3c0-0.4-0.2-0.7-0.6-0.9c-0.4,1.1-0.6,2.6-0.5,4.7c-0.1,0.1-0.2,0.2-0.2,0.2
		c-0.1,0.1-0.1,0.2-0.1,0.3c-0.1,0.2-0.1,0.4,0,0.7c0.1,0.3,0.1,0.5,0,0.7c-0.2,0.2-0.4,0.3-0.4,0.4s0.1,0.2,0.2,0.4
		s0.1,0.4,0.1,0.7c-0.2,0.2-0.3,0.4-0.4,0.5c0,0.1,0,0.3,0.1,0.7c0,0.4,0,0.6-0.2,0.6c0,0.1,0,0.1,0.1,0.2c0.1,0,0.1,0.1,0.1,0.2
		c0,0.1-0.1,0.2-0.4,0.2c0,0.2,0,0.6-0.1,1.2c0,0.5-0.1,0.9-0.1,1.2c-0.2,0.1-0.2,0.2-0.2,0.4s0.1,0.3,0.4,0.4
		c0,0.1-0.1,0.1-0.2,0.2s-0.2,0.1-0.2,0.1s0,0.3-0.1,0.8c-0.1,0.3-0.2,0.4-0.4,0.5c0.1,0.2,0.1,0.5-0.1,0.9
		c-0.1,0.3-0.3,0.5-0.4,0.5c-0.2,0-0.3,0-0.4-0.1c-0.3,0.2-0.7,0.4-1.1,0.7c-0.2,0.2-0.4,0.5-0.4,0.9c-0.1,0-0.2,0-0.2,0
		c-0.1-0.1-0.1-0.2-0.1-0.5s-0.1-0.4-0.2-0.5c-0.1,0-0.2,0.2-0.4,0.6h-0.4c0.1-0.6-0.2-0.9-0.9-0.9c0,0.2,0,0.4-0.1,0.4
		c-0.3-0.1-0.5-0.2-0.6-0.4c0-0.1,0-0.2,0-0.2c0-0.1,0-0.1-0.1-0.1c-0.1-0.5-0.6-0.7-1.6-0.6c-0.2-0.1-0.2-0.3-0.2-0.5v-0.2
		c-0.1-0.2-0.2-0.4-0.4-0.6c-0.2-0.2-0.4-0.4-0.4-0.5s0-0.1-0.1-0.1s-0.1,0-0.1-0.1c-0.1-0.3-0.2-0.6-0.2-0.7l-0.3-0.1
		c0.1-0.7,0.1-1.2,0.1-1.3s-0.1-0.3-0.3-0.6c-0.2-0.2-0.3-0.4-0.4-0.5c0-0.2,0.1-0.4,0.2-0.6c0-0.2-0.1-0.5-0.2-0.8
		c-0.2-0.3-0.2-0.6-0.1-0.8c-0.1-0.2-0.3-0.2-0.6-0.2c-0.1-0.2,0-0.3,0.2-0.4c0-0.2,0-0.3,0-0.4c0-0.1,0-0.2,0-0.3s-0.1-0.2-0.2-0.3
		S308,32.1,308,32c-0.1-0.2-0.1-0.4-0.1-0.7c0-0.3,0-0.5-0.1-0.6c0-0.1-0.1-0.2-0.2-0.2c-0.1-0.1-0.2-0.1-0.2-0.2c0,0,0-0.2,0.1-0.6
		c-0.1-0.6-0.2-0.9-0.4-1.1c0-0.9-0.1-1.4-0.2-1.5c-0.2,0-0.4,0-0.4-0.1s0-0.1,0.1-0.2c0.1,0,0.1-0.1,0.1-0.2s0-0.2,0-0.5
		c-0.1-0.7-0.3-1-0.6-1c-0.2-0.2-0.1-0.5,0.1-1c0-0.2-0.1-0.3-0.2-0.4s-0.2-0.2-0.2-0.2c0.1-0.4,0-0.7-0.4-0.9
		c0.2-0.2,0.2-0.3,0.2-0.4c-0.2-0.1-0.2-0.3-0.2-0.7s-0.1-0.7-0.3-0.7c0-0.1,0-0.1,0.1-0.2c0,0,0.1-0.1,0.1-0.2
		c-0.2-0.2-0.2-0.3-0.2-0.4s0-0.2-0.1-0.4c0-0.2-0.1-0.4-0.1-0.4c-0.1,0-0.2-0.1-0.4-0.2c-0.1-0.1-0.1-0.2,0-0.2
		c0.1-0.1,0.1-0.2,0.1-0.3c-0.1-1.4,0.1-2.1,0.6-2.2v-0.7c0.5-0.5,1-0.7,1.6-0.7l0.3-0.4c0.2,0.2,0.7,0.1,1.5-0.2
		c0.2,0.2,0.4,0.2,0.6,0.2c0.3,0,0.5,0,0.6,0s0.2,0.1,0.3,0.2c0.1,0.1,0.2,0.2,0.3,0.2c0.4,0.2,0.6,0.3,0.6,0.4
		c0.2,0.1,0.3,0.1,0.4,0c1.1,1.2,1.7,1.9,1.7,2c0.3,0,0.5,0,0.6-0.1s0.1-0.1,0.1-0.2s0-0.2,0.1-0.3c0,0,0.1-0.1,0.2-0.2
		s0.2-0.2,0.2-0.3c0-0.1,0-0.2-0.1-0.4c0-0.1,0.1-0.2,0.3-0.4c0.2-0.2,0.2-0.3,0.2-0.5c0.1,0,0.2-0.1,0.4-0.2
		c0.3-0.3,0.5-0.5,0.9-0.4c0.2-0.1,0.3-0.2,0.4-0.5s0.3-0.4,0.4-0.5h0.4c0.1,0,0.2-0.1,0.3-0.2c0.1-0.1,0.2-0.2,0.3-0.2
		c0.3,0,0.6,0,0.9-0.1c0.1,0,0.2,0,0.5,0.1c0.2,0.3,0.5,0.5,1,0.6c0.5,0.2,0.7,0.3,0.7,0.4c0,0.2,0.2,0.4,0.6,0.5
		c0.2,0.1,0.3,0.2,0.4,0.3c0,0.3,0.2,0.5,0.5,0.6c0.2,0.3,0.5,0.6,1.1,1.2c0.6,0.5,1,1,1.2,1.4v0.2c0.3,0.2,0.5,0.4,0.8,0.8
		s0.5,0.6,0.7,0.8c0.1,0.2,0.2,0.4,0.4,0.6c0.2,0.2,0.3,0.5,0.3,0.7c0.1,0,0.2,0,0.2,0.1c0.1,0,0.2,0.1,0.2,0.1
		c0.1,0.3,0.3,0.7,0.7,1.2c0.2,0.3,0.3,0.6,0.4,0.7c0,0.2,0,0.2,0.1,0.2c0.2,0.2,0.3,0,0.4-0.5c0.1-0.1,0.2-0.2,0.3-0.5
		c0.1-0.2,0.2-0.4,0.3-0.5c0-0.3,0.1-0.7,0.3-1.1c0.2-0.4,0.3-0.8,0.3-1.1c0.1-0.1,0.2-0.3,0.3-0.7c0.1-0.4,0.2-0.7,0.3-0.7
		c0-0.3,0.3-0.7,0.9-1.2c0-0.1,0-0.2,0-0.4c0-0.1,0-0.2,0.1-0.2c0.1-0.1,0.2-0.2,0.2-0.3c0-0.2,0-0.3,0-0.3s0-0.1,0.1-0.2
		c0.1-0.1,0.1-0.1,0.1-0.2c0,0,0-0.2,0.1-0.4c0.4-0.3,0.6-0.6,0.5-0.7c0.2-0.1,0.3-0.3,0.5-0.7c0.2,0,0.3,0,0.4,0
		c0.2-0.8,0.7-1.2,1.5-1.1c0.2-0.1,0.4-0.2,0.7-0.4C336.3,11.5,336.5,11.3,336.7,11.1z"/>
	<path fill="#F8CBAD" d="M382.1,11.1l1,0.2c0.2,0.5,0.4,0.7,0.6,0.7c0,0.2,0.2,0.6,0.6,1c0.8,0.7,1.4,1,1.6,1.1c0,0.1,0,0.1-0.1,0.2
		c0,0-0.1,0.1-0.1,0.2c0.2,0.2,0.4,0.4,0.7,0.6c0.3,0.2,0.5,0.5,0.6,0.6c0,0.2,0.1,0.6,0.4,1s0.2,0.8,0,0.9l0.7,1.5
		c0,0.1-0.1,0.2-0.2,0.4c-0.1,0.2-0.2,0.3-0.2,0.5c-0.1,0.2-0.1,0.5,0,1.1s0.1,1,0,1.4c-0.2,0.3-0.4,0.5-0.5,0.6
		c0,0.2,0,0.4-0.1,0.7c-0.1,0.3-0.1,0.5-0.1,0.6c-0.1,0.2-0.2,0.4-0.4,0.7c-0.2,0.3-0.3,0.5-0.3,0.7c-0.5,0.4-0.7,0.8-0.7,1.1
		c-0.1,0-0.1,0-0.2,0c0,0-0.1,0-0.2,0v0.5c-0.1,0-0.2,0-0.2-0.1c-0.1,0-0.2-0.1-0.3-0.1c-0.2,0-0.3,0.1-0.4,0.3
		c-0.1,0.2-0.2,0.4-0.2,0.4c-0.1,0-0.3,0-0.6-0.1c-0.3,0-0.5,0-0.6,0.1c-0.2,0.2-0.3,0.4-0.4,0.4s-0.2,0-0.3,0.1
		c-0.1,0.1-0.2,0.1-0.3,0.2c-0.1,0-0.2,0.1-0.4,0.3c-0.1,0-0.2,0-0.3,0.1c-0.1,0-0.2,0.1-0.2,0.2s0,0.1,0.1,0.2c0.1,0,0.1,0.1,0,0.2
		c-0.5,0.5-1.1,0.7-1.7,0.6c-0.1,0.1-0.3,0.2-0.6,0.3c-0.1,0.1-0.2,0.2-0.4,0.3s-0.3,0.2-0.3,0.2s-0.1,0-0.2,0s-0.2,0-0.3,0
		c-0.2,0-0.4,0.1-0.6,0.2s-0.4,0.2-0.5,0.2s-0.2,0-0.4-0.1c-0.2-0.1-0.3-0.1-0.4-0.1c-0.3,0.2-0.5,0.3-0.6,0.3s-0.1,0-0.2-0.1
		c0-0.1-0.1-0.1-0.2-0.1l-0.7-0.1c-0.2-0.2-0.3-0.2-0.3-0.2s-0.3,0-0.8-0.1c-0.5,0-0.9-0.1-1.1-0.1c-0.1,0.1-0.1,0.2-0.1,0.4
		c0,0.2,0.1,0.2,0.2,0.2c0.2,1,0.5,1.6,0.9,2v0.4c0.2,0.3,0.7,0.6,1.2,0.9c0.6,0.3,0.9,0.5,1.1,0.7c0.5,0.1,0.8,0,1-0.2
		c0.3,0,0.5,0,0.6,0.1c0,0,0,0.1-0.1,0.3c0.1,0.1,0.3,0.2,0.5,0.2h0.5c0.4-0.2,0.7-0.2,0.7-0.1v0.2c0.2,0.2,0.8,0.4,1.7,0.4
		c0.9,0,1.5,0,1.8,0.1c0.5-0.2,0.9-0.4,1.1-0.5c0.1,0,0.2,0,0.4,0.1c0.6,0.1,1.5-0.1,2.7-0.6c0.1,0,0.2-0.1,0.4-0.2
		c0.2-0.1,0.3-0.2,0.5-0.2c0.1-0.1,0.2-0.1,0.5-0.1c0.2,0,0.4,0.1,0.5,0.1s0.1,0,0.2-0.1c0-0.1,0.1-0.1,0.1-0.1s0.2,0,0.4-0.1
		c0.2-0.1,0.4-0.2,0.5-0.2c0.7,0,1.3-0.4,2-1.1c0.1,0,0.2,0.1,0.4,0.2c0.2,0,0.3-0.1,0.4-0.2c0.1-0.2,0.3-0.2,0.4-0.2s0.2,0,0.2-0.1
		c0.1-0.1,0.1-0.2,0.1-0.2c0.3,0.1,0.6,0,0.9-0.2c0.3,0.1,0.5,0,0.7-0.3c0.1-0.1,0.2-0.1,0.2-0.2c0.1,0,0.2-0.1,0.3-0.1
		c0.1,0,0.2,0,0.3,0c0.1-0.1,0.2-0.2,0.4-0.3c0.2-0.1,0.4-0.2,0.6-0.3l1.2,0.1c0.1,0,0.1,0.1,0.2,0.2c0,0.1,0.1,0.2,0.2,0.2
		c0.3-0.1,0.5-0.1,0.6,0c0,0.1-0.1,0.1-0.4,0.1c0,0.2,0.2,0.2,0.5,0.2c0.6,0.3,0.9,0.7,0.9,1.1c0.4,0.1,0.7,0.2,0.7,0.2
		c0.2,0.6,0.1,1.2-0.4,2v0.1c-0.4,0-0.7,0.2-0.9,0.6c-0.2,0.4-0.4,0.7-0.4,0.7c-0.1,0.1-0.2,0.2-0.3,0.2c-0.1,0.1-0.2,0.2-0.3,0.2
		c0-0.1-0.1-0.1-0.2,0c-0.1,0-0.2,0.1-0.3,0.3c-0.1,0.2-0.2,0.3-0.3,0.4c-0.1,0-0.2,0.1-0.5,0.2c-0.3,0.1-0.4,0.2-0.5,0.2
		s-0.2,0.1-0.2,0.3c-0.1,0.2-0.2,0.3-0.2,0.4c-0.2,0.1-0.5,0.1-0.9,0.2c-0.5,0-0.8,0.1-1,0.3c-0.7,0.1-1.2,0.2-1.2,0.2
		c0,0.2,0,0.3,0,0.4c-0.6,0.1-0.9,0.3-1.1,0.6c-0.3-0.1-0.7,0-1.1,0.3c-0.2,0.2-0.3,0.3-0.5,0.4h-0.2c-0.1,0.1-0.2,0.2-0.4,0.2
		c-0.3,0.2-0.6,0.2-0.7,0c-0.3,0.3-0.6,0.4-0.9,0.5c-0.2,0.2-0.4,0.3-0.4,0.4c-0.2,0.1-0.7,0.1-1.2,0.1c-0.1,0-0.2,0-0.3,0
		s-0.2,0-0.3,0c-0.1,0-0.2,0-0.3,0.1c-0.1,0.1-0.2,0.2-0.2,0.2c-0.1,0-0.2,0-0.3,0c-0.1,0-0.2,0-0.3,0c-0.1,0-0.2,0-0.5,0.1
		c-0.1,0-0.2,0-0.4-0.1c-0.2,0-0.3-0.1-0.4-0.1c-0.2,0-0.4,0-0.6,0.1c-0.2,0-0.5,0.1-0.6,0.1s-0.4,0-0.8-0.1c-0.4,0-0.7-0.1-0.9-0.1
		s-0.5,0-0.8,0.1c-0.6,0.1-0.9,0-1-0.1c-0.2,0-0.4,0-0.7,0.1c-0.3,0-0.5,0.1-0.7,0.1c-0.1,0-0.2,0-0.3-0.1c-0.1,0-0.2-0.1-0.2-0.1
		s-0.1,0-0.2,0s-0.2,0-0.2,0s-0.1,0-0.2-0.1c-0.1,0-0.2-0.1-0.2-0.2c-0.1,0-0.2,0-0.3,0.1c-0.1,0-0.2,0.1-0.2,0.1s-0.2-0.1-0.4-0.2
		c-0.6-0.2-0.9-0.3-0.9-0.4c-0.3-0.1-0.5-0.2-0.6-0.2c0-0.1-0.2-0.1-0.5-0.2c-0.3,0-0.5-0.1-0.6-0.3c-0.3,0-0.6-0.1-0.9-0.4
		c-0.2,0-0.5-0.1-0.9-0.2c-0.2,0-0.4,0-0.5,0c0-0.2,0-0.3,0-0.4c-0.7-0.6-1.1-1-1.4-1.4c-0.1,0-0.2,0-0.2,0.1c-0.1,0-0.2,0-0.2-0.1
		s-0.1-0.2-0.2-0.4c-0.2-0.2-0.2-0.4-0.2-0.6c-0.2-0.1-0.3-0.1-0.5-0.1v-0.2c-0.2-0.2-0.5-0.3-0.7-0.4c-0.4-0.6-0.7-0.9-0.7-0.9
		v-0.2c-0.1-0.2-0.2-0.5-0.4-0.9c-0.2-0.4-0.4-0.7-0.4-0.7c-0.3-0.4-0.5-0.7-0.5-0.7c-0.1-0.1-0.1-0.2-0.1-0.4s0-0.3,0-0.4
		c0-0.1-0.1-0.2-0.2-0.4s-0.2-0.3-0.2-0.4c0-0.2,0-0.4,0-0.6c0-0.2,0-0.5,0-0.6s0-0.2-0.1-0.2c0-0.1-0.1-0.2-0.1-0.2
		c0-0.2,0.2-0.4,0.5-0.7c-0.1-0.2-0.2-0.4-0.5-0.4l-0.2-0.9c0.6-0.3,0.7-0.7,0.4-1c0.2-0.5,0.2-0.8,0.2-0.8s0.1-0.1,0.2-0.3
		c0.2-0.2,0.2-0.3,0.1-0.5c0-0.1,0.1-0.1,0.2-0.2c0.1,0,0.2-0.1,0.2-0.2s-0.1-0.1-0.2-0.2c-0.1,0-0.2-0.1-0.2-0.2s0.1-0.2,0.2-0.5
		c0-0.1,0-0.2,0-0.5c0-0.2,0-0.4,0-0.5c0.2-0.4,0.2-0.7,0.2-0.9c0.2,0,0.4-0.2,0.4-0.6c0-0.2,0-0.5,0-0.6c0.1-0.1,0.3-0.2,0.6-0.5
		c0.5-0.5,0.8-0.8,0.8-0.9s0.1-0.3,0.1-0.6s0-0.5,0.1-0.6s0.2-0.2,0.4-0.2c0.2-0.1,0.3-0.1,0.3-0.2c0,0,0-0.1-0.1-0.2
		s-0.1-0.2-0.1-0.2c0.1-0.1,0.2-0.2,0.3-0.4c0.1-0.2,0.2-0.3,0.2-0.4c0.2-0.1,0.5-0.3,0.9-0.6c-0.1-0.2,0-0.5,0.2-1.1
		c0.6-0.1,0.9-0.4,1-1c0.1-0.1,0.2-0.1,0.3-0.1c0.1,0,0.2-0.1,0.2-0.4c0.1,0,0.2,0,0.2,0.1c0.1,0,0.2,0.1,0.2,0.2
		c0.2,0,0.5-0.2,0.9-0.6c0-0.3,0-0.5,0.1-0.6c0.1,0,0.3,0.1,0.6,0.4c0.6-0.1,0.8-0.5,0.6-1.1c0.3,0,0.5-0.1,0.9-0.2
		c0.3-0.2,0.6-0.3,0.7-0.4c0.2,0,0.4,0,0.4,0s0.1,0,0.1-0.1l0.1-0.1c0,0,0.1-0.1,0.2-0.1s0.2,0,0.2-0.1c0.1,0,0.2-0.1,0.4-0.3
		c0.2-0.2,0.4-0.3,0.4-0.3c0.1-0.1,0.3-0.1,0.6-0.1c0.3,0,0.5,0,0.6-0.1c0.1,0,0.2,0,0.3-0.1c0.1-0.1,0.2-0.1,0.3-0.2
		c0,0,0.1-0.1,0.2-0.1s0.2,0,0.3,0c0.1,0,0.2-0.1,0.2-0.2c0.1-0.1,0.2-0.2,0.4-0.2c0.1,0,0.2,0.1,0.2,0.2c0.1,0.1,0.2,0.2,0.2,0.2
		c0.1,0,0.2,0,0.4,0s0.3,0,0.5,0c0.2,0.2,0.5,0.4,1.1,0.5c0.1,0,0.2,0,0.3,0.1C381.9,11.1,382,11.1,382.1,11.1z M383.7,12.1
		c0,0.2,0.2,0.6,0.6,1c0.8,0.7,1.4,1,1.6,1.1c0,0.1,0,0.1-0.1,0.2c0,0-0.1,0.1-0.1,0.2c0.2,0.2,0.4,0.4,0.7,0.6
		c0.3,0.2,0.5,0.5,0.6,0.6c0,0.2,0.1,0.6,0.4,1s0.2,0.8,0,0.9l0.7,1.5c0,0.1-0.1,0.2-0.2,0.4c-0.1,0.2-0.2,0.3-0.2,0.5
		c-0.1,0.2-0.1,0.5,0,1.1s0.1,1,0,1.4c-0.2,0.3-0.4,0.5-0.5,0.6c0,0.2,0,0.4-0.1,0.7c-0.1,0.3-0.1,0.5-0.1,0.7
		c-0.1,0.1-0.2,0.3-0.4,0.6c-0.2,0.3-0.3,0.5-0.3,0.7c-0.5,0.4-0.7,0.8-0.7,1.1c-0.1,0-0.1,0-0.2,0c0,0-0.1,0-0.2,0v0.5
		c-0.1,0-0.2,0-0.2-0.1c-0.1,0-0.2-0.1-0.3-0.1c-0.2,0-0.3,0.1-0.4,0.3c-0.1,0.2-0.2,0.4-0.2,0.4c-0.1,0-0.3,0-0.6-0.1
		c-0.3,0-0.5,0-0.6,0.1c-0.2,0.2-0.3,0.4-0.4,0.4s-0.2,0-0.3,0.1c-0.1,0.1-0.2,0.1-0.3,0.2c-0.1,0-0.2,0.1-0.4,0.3
		c-0.1,0-0.2,0-0.3,0.1c-0.1,0-0.2,0.1-0.2,0.2s0,0.1,0.1,0.2c0.1,0,0.1,0.1,0,0.2c-0.5,0.5-1.1,0.7-1.7,0.6
		c-0.1,0.1-0.3,0.2-0.6,0.3c-0.1,0.1-0.2,0.2-0.4,0.3s-0.3,0.2-0.3,0.2s-0.1,0-0.2,0s-0.2,0-0.3,0c-0.2,0-0.4,0.1-0.6,0.2
		s-0.4,0.2-0.5,0.2s-0.2,0-0.4-0.1c-0.2-0.1-0.3-0.1-0.4-0.1c-0.3,0.2-0.5,0.3-0.6,0.3s-0.1,0-0.2-0.1c0-0.1-0.1-0.1-0.2-0.1
		l-0.7-0.1c-0.2-0.2-0.3-0.2-0.3-0.2s-0.3,0-0.8-0.1c-0.5,0-0.8-0.1-1-0.1c-0.2,0.1-0.2,0.2-0.2,0.4c0,0.2,0.1,0.2,0.2,0.2
		c0.2,1,0.5,1.6,0.9,2v0.4c0.2,0.3,0.7,0.6,1.2,0.9c0.6,0.3,0.9,0.5,1.1,0.7c0.5,0.1,0.8,0,1-0.2c0.3,0,0.5,0,0.6,0.1
		c0,0,0,0.1-0.1,0.3c0.1,0.1,0.3,0.2,0.5,0.2c0.2,0.1,0.4,0.1,0.5,0.1c0-0.1,0.1-0.2,0.3-0.2c0.2-0.1,0.3-0.1,0.4,0V36
		c0.2,0.2,0.8,0.4,1.7,0.4c0.9,0,1.5,0,1.8,0.1c0.5-0.2,0.9-0.4,1.1-0.5c0.1,0,0.2,0,0.4,0.1c0.6,0.1,1.5-0.1,2.7-0.6
		c0.1,0,0.2-0.1,0.4-0.2c0.2-0.1,0.3-0.2,0.5-0.2c0.1-0.1,0.2-0.1,0.5-0.1c0.2,0,0.4,0.1,0.5,0.1s0.1,0,0.2-0.1
		c0-0.1,0.1-0.1,0.1-0.1s0.2,0,0.4-0.1c0.2-0.1,0.4-0.2,0.5-0.2c0.7,0,1.3-0.4,2-1.1c0.1,0,0.2,0.1,0.4,0.2c0.2,0,0.3-0.1,0.4-0.2
		c0.1-0.2,0.3-0.2,0.4-0.2s0.2,0,0.2-0.1c0.1-0.1,0.1-0.2,0.1-0.2c0.3,0.1,0.6,0,0.9-0.2c0.3,0.1,0.5,0,0.7-0.3
		c0.1-0.1,0.2-0.1,0.2-0.2c0.1,0,0.2-0.1,0.3-0.1c0.1,0,0.2,0,0.3,0c0.1-0.1,0.2-0.2,0.4-0.3c0.2-0.1,0.4-0.2,0.6-0.3l1.2,0.1
		c0.1,0,0.1,0.1,0.2,0.2c0,0.1,0.1,0.2,0.2,0.2c0.3-0.1,0.5-0.1,0.6,0c0,0.1-0.1,0.1-0.4,0.1c0,0.2,0.2,0.2,0.5,0.2
		c0.6,0.3,0.9,0.7,0.9,1.1c0.4,0.1,0.7,0.2,0.7,0.2c0.2,0.6,0.1,1.2-0.4,2v0.1c-0.4,0-0.7,0.2-0.9,0.6c-0.2,0.4-0.4,0.7-0.4,0.7
		c-0.1,0.1-0.2,0.2-0.3,0.2c-0.1,0.1-0.2,0.2-0.3,0.2c0-0.1-0.1-0.1-0.2,0c-0.1,0-0.2,0.1-0.3,0.3c-0.1,0.2-0.2,0.3-0.3,0.4
		c-0.1,0-0.2,0.1-0.5,0.2c-0.3,0.1-0.4,0.2-0.5,0.2s-0.2,0.1-0.2,0.3c-0.1,0.2-0.2,0.3-0.2,0.4c-0.2,0.1-0.5,0.1-0.9,0.2
		c-0.5,0-0.8,0.1-1,0.3c-0.7,0.1-1.2,0.2-1.2,0.2c0,0.2,0,0.3,0,0.4c-0.6,0.1-0.9,0.3-1.1,0.6c-0.3-0.1-0.7,0-1.1,0.3
		c-0.2,0.2-0.3,0.3-0.5,0.4h-0.2c-0.1,0.1-0.2,0.2-0.4,0.2c-0.3,0.2-0.6,0.2-0.7,0c-0.3,0.3-0.6,0.4-0.9,0.5
		c-0.2,0.2-0.4,0.3-0.4,0.4c-0.2,0.1-0.7,0.1-1.2,0.1c-0.1,0-0.2,0-0.3,0s-0.2,0-0.3,0c-0.1,0-0.2,0-0.3,0.1
		c-0.1,0.1-0.2,0.2-0.2,0.2c-0.1,0-0.2,0-0.3,0c-0.1,0-0.2,0-0.3,0c-0.1,0-0.2,0-0.5,0.1c-0.1,0-0.2,0-0.4-0.1
		c-0.2,0-0.3-0.1-0.4-0.1c-0.2,0-0.4,0-0.6,0.1c-0.2,0-0.5,0.1-0.6,0.1s-0.4,0-0.8-0.1c-0.4,0-0.7-0.1-0.9-0.1s-0.5,0-0.8,0.1
		c-0.6,0.1-0.9,0-1-0.1c-0.2,0-0.4,0-0.7,0.1c-0.3,0-0.5,0.1-0.7,0.1c-0.1,0-0.2,0-0.3-0.1c-0.1,0-0.2-0.1-0.2-0.1s-0.1,0-0.2,0
		s-0.2,0-0.2,0s-0.1,0-0.2-0.1c-0.1,0-0.2-0.1-0.2-0.2c-0.1,0-0.2,0-0.3,0.1c-0.1,0-0.2,0.1-0.2,0.1s-0.2-0.1-0.4-0.2
		c-0.6-0.2-0.9-0.3-0.9-0.4c-0.3-0.1-0.5-0.2-0.6-0.2c0-0.1-0.2-0.1-0.5-0.2c-0.3,0-0.5-0.1-0.6-0.3c-0.3,0-0.6-0.1-0.9-0.4
		c-0.2,0-0.5-0.1-0.9-0.2c-0.2,0-0.4,0-0.5,0c0-0.2,0-0.3,0-0.4c-0.7-0.6-1.1-1-1.4-1.4c-0.1,0-0.2,0-0.2,0.1c-0.1,0-0.2,0-0.2-0.1
		s-0.1-0.2-0.2-0.4c-0.2-0.2-0.2-0.4-0.2-0.6c-0.2-0.1-0.3-0.1-0.5-0.1V38c-0.2-0.2-0.5-0.3-0.7-0.4c-0.4-0.6-0.7-0.9-0.7-0.9v-0.2
		c-0.1-0.2-0.2-0.5-0.4-0.9c-0.2-0.4-0.4-0.7-0.4-0.7c-0.3-0.4-0.5-0.7-0.5-0.7c-0.1-0.1-0.1-0.2-0.1-0.4s0-0.3,0-0.4
		c0-0.1-0.1-0.2-0.2-0.4s-0.2-0.3-0.2-0.4c0-0.2,0-0.4,0-0.6c0-0.2,0-0.5,0-0.6s0-0.2-0.1-0.2c0-0.1-0.1-0.2-0.1-0.2
		c0-0.2,0.2-0.4,0.5-0.7c-0.1-0.2-0.2-0.4-0.5-0.4l-0.2-0.9c0.6-0.3,0.7-0.7,0.4-1c0.2-0.5,0.2-0.8,0.2-0.8s0.1-0.1,0.2-0.3
		c0.2-0.2,0.2-0.3,0.1-0.5c0-0.1,0.1-0.1,0.2-0.2c0.1,0,0.2-0.1,0.2-0.2s-0.1-0.1-0.2-0.2c-0.1,0-0.2-0.1-0.2-0.2s0.1-0.2,0.2-0.5
		c0-0.1,0-0.2,0-0.5c0-0.2,0-0.4,0-0.5c0.2-0.4,0.2-0.7,0.2-0.9c0.2,0,0.4-0.2,0.4-0.6c0-0.2,0-0.5,0-0.6c0.1-0.1,0.3-0.2,0.6-0.5
		c0.5-0.5,0.8-0.8,0.8-0.9s0.1-0.3,0.1-0.6s0-0.5,0.1-0.6s0.2-0.2,0.4-0.2c0.2-0.1,0.3-0.1,0.3-0.2c0,0,0-0.1-0.1-0.2
		s-0.1-0.2-0.1-0.2c0.1-0.1,0.2-0.2,0.3-0.4c0.1-0.2,0.2-0.3,0.2-0.4c0.2-0.1,0.5-0.3,0.9-0.6c-0.1-0.2,0-0.5,0.2-1.1
		c0.6-0.1,0.9-0.4,1-1c0.1-0.1,0.2-0.1,0.3-0.1c0.1,0,0.2-0.1,0.2-0.4c0.1,0,0.2,0,0.2,0.1c0.1,0,0.2,0.1,0.2,0.2
		c0.2,0,0.5-0.2,0.9-0.6c0-0.3,0-0.5,0.1-0.6c0.1,0,0.3,0.1,0.6,0.4c0.6-0.1,0.8-0.5,0.6-1.1c0.3,0,0.5-0.1,0.9-0.2
		c0.3-0.2,0.6-0.3,0.7-0.4c0.2,0,0.4,0,0.4,0s0.1,0,0.1-0.1l0.1-0.1c0,0,0.1-0.1,0.2-0.1s0.2,0,0.2-0.1c0.1,0,0.2-0.1,0.4-0.3
		c0.2-0.2,0.4-0.3,0.4-0.3c0.1-0.1,0.3-0.1,0.6-0.1c0.3,0,0.5,0,0.6-0.1c0.1,0,0.2,0,0.3-0.1c0.1-0.1,0.2-0.1,0.3-0.2
		c0,0,0.1-0.1,0.2-0.1s0.2,0,0.3,0c0.1,0,0.2-0.1,0.2-0.2c0.1-0.1,0.2-0.2,0.4-0.2c0.1,0,0.2,0.1,0.2,0.2c0.1,0.1,0.2,0.2,0.2,0.2
		c0.1,0,0.2,0,0.4,0s0.3,0,0.5,0c0.2,0.2,0.5,0.4,1.1,0.5c0.1,0,0.2,0,0.3,0.1c0.1,0,0.2,0.1,0.3,0.1l1,0.2
		C383.2,11.9,383.4,12.1,383.7,12.1z M369.8,14.8c0,0.1,0,0.2,0,0.3c0.1,0.1,0.2,0.1,0.2,0.1c0-0.1,0-0.2-0.1-0.2
		C369.9,14.9,369.8,14.8,369.8,14.8z M369.8,15.1c0.1,0.1,0.2,0.1,0.2,0.1c0-0.1,0-0.2-0.1-0.2c0-0.1-0.1-0.1-0.2-0.1
		C369.8,14.9,369.8,15,369.8,15.1z M375.8,22.8c0.3,0,0.7-0.1,1-0.3c0.4-0.2,0.6-0.3,0.8-0.4c0.3-0.4,0.7-0.7,1.2-0.9
		c0-0.1,0.1-0.2,0.3-0.4c0.3-0.6,0.5-1,0.5-1.2c0-0.4-0.2-0.6-0.5-0.5c-0.6,0.2-1,0.4-1.2,0.7c-0.2-0.2-0.6-0.1-1,0.2
		c-1.1,0.7-1.6,1.2-1.7,1.5c-0.2,0.1-0.3,0.2-0.5,0.4c0,0.2,0,0.3-0.1,0.4s-0.1,0.2-0.1,0.3c0.1,0.1,0.3,0.1,0.7,0.1
		S375.7,22.7,375.8,22.8z M374.4,22.7c0.1,0.1,0.3,0.1,0.7,0.1s0.6,0,0.7,0.1c0.3,0,0.7-0.1,1-0.3c0.4-0.2,0.6-0.3,0.8-0.4
		c0.3-0.4,0.7-0.7,1.2-0.9c0-0.1,0.1-0.2,0.3-0.4c0.3-0.6,0.5-1,0.5-1.2c0-0.4-0.2-0.6-0.5-0.5c-0.6,0.2-1,0.4-1.2,0.7
		c-0.2-0.2-0.6-0.1-1,0.2c-1.1,0.7-1.6,1.2-1.7,1.5c-0.2,0.1-0.3,0.2-0.5,0.4c0,0.2,0,0.3-0.1,0.4C374.5,22.5,374.4,22.6,374.4,22.7
		z"/>
</g>
</svg>
