<?xml version="1.0" encoding="utf-8"?>
<!-- Generator: Adobe Illustrator 19.0.1, SVG Export Plug-In . SVG Version: 6.00 Build 0)  -->
<svg version="1.1" id="Layer_1" xmlns="http://www.w3.org/2000/svg" xmlns:xlink="http://www.w3.org/1999/xlink" x="0px" y="0px"
	 viewBox="0 -65 400 200" enable-background="new 0 -65 400 200" xml:space="preserve">
<g>
	<path fill="#2B5799" d="M114.4-59.8c0-0.5,0.3-0.5,1,0c0.2,0.3,0.5,0.3,0.8,0.2c0.3-0.1,0.6,0,0.8,0.2v1.5c0.4,0.2,0.8,0.4,1.3,0.4
		c0.2,0.2,0.7,0.6,1.6,1.1c0.8,0.5,1.5,0.9,1.9,1.1c0-0.2,0.3-0.2,0.9,0c0.2,0.5,0.5,1,1,1.5h1.3c0.2,0.3,0.3,0.7,0.2,1.3
		c-0.1,0.6-0.1,1,0,1.1c0.1,0.1,0.4,0.6,0.8,1.3c0.4,0.7,0.5,1.5,0.3,2.2c0,0.3,0.2,0.4,0.5,0.4s0.6,0.1,0.8,0.4
		c0,0.5-0.2,1.1-0.6,1.9c0.2,3,0.6,4.4,1.3,4.4c0.2,0.3,0.3,1.5,0.3,3.7l-1,0.4c-0.2,0.2-0.3,0.6-0.3,1.1c-0.2,1.3-0.8,1.6-1.9,1.1
		c0,0.3-0.2,0.7-0.5,1.3s-0.6,1.2-0.8,1.7c-2.1-0.2-3.3-0.4-3.5-0.4s-0.5,0.3-1,0.9s-0.6,1.1-0.6,1.3c-0.4-0.2-0.9-0.2-1.4,0
		s-0.9,0.4-1.1,0.4c-0.4-0.2-0.6-0.5-0.6-0.7c-1.3,0-1.9,0.7-1.9,2.2c-0.6,0.2-1.2,0.2-1.6,0c-0.2-1.2-0.4-1.9-0.6-1.9
		c-0.9,0.5-1.4,0.6-1.6,0.4c-0.4-1-0.8-1.6-1.3-1.9c-0.2,0-0.4,0.1-0.5,0.4s-0.3,0.4-0.5,0.4c-1.7-0.8-3.2-0.8-4.5,0
		c0,0.5,0,0.9,0,1.1c-0.4,0.3-2.2,0.3-5.3,0.2c-3.1-0.1-4.9-0.2-5.6-0.2c-0.2,0-0.4-0.1-0.6-0.4c-2.3-0.2-3.2,0.2-2.5,1.5
		c-3,0.7-4.8,0.6-5.4-0.4c-0.4,0.3-0.6,1-0.6,2.2s0.2,2,0.6,2.2c0.4,0,0.7,0,1,0c0.2,0.5,0,1-0.6,1.5c0,1.7,0.4,3,1.3,3.7v1.5
		c0.4,0.2,0.6,0.5,0.6,0.7s-0.2,0.6-0.6,1.1c-0.2,0.7-0.1,1.4,0.3,2s0.6,1.2,0.6,1.7c-0.2,1-0.3,1.6-0.3,1.9
		c0.2,0.3,0.5,0.6,0.8,1.1s0.4,1,0.2,1.5c0.4,0.3,0.8,0.9,1.1,1.9c0.3,1,0.9,1.5,1.8,1.5c0,0.3-0.1,0.6-0.2,1.1s-0.1,0.9,0.2,1.1
		c0.2,0,0.4-0.1,0.5-0.4c0.1-0.2,0.3-0.2,0.5,0c0,0.3-0.2,0.6-0.6,1.1V1c0.4,0.2,0.8,0.8,1.1,1.7c0.3,0.9,0.7,1.4,1.1,1.7
		c-0.2,1,0,2,0.6,3s0.9,1.9,0.9,2.6c0.2,0.3,0.5,0.6,0.8,1.1s0.5,1,0.5,1.5c0.2,0,0.5,0.4,0.9,1.1s0.8,1.2,1,1.5
		c-0.2,1.5,0.4,2.9,1.9,4.1c0.2,1,0.8,2.2,1.9,3.7v1.1c0.2,0.3,0.6,0.5,1.3,0.7c1.1,2.5,1.8,4,2.2,4.5c0.2,0,0.5,0.1,1,0.4
		c0.4,0.2,0.8,0.4,1.3,0.4c0,0.8-0.2,1.5-0.6,2.2c0.2,0.2,0.4,0.6,0.6,1.1s0.3,1,0.3,1.5c0.2,0,0.5,0.1,1,0.4
		c0.4,0.2,0.8,0.4,1.3,0.4c0,0.5,0.2,1.2,0.5,2c0.3,0.9,0.6,1.4,0.8,1.7c0.2,0.2,0.5,0.4,0.8,0.6c0.3,0.1,0.6,0.2,0.8,0.2
		c0.2,1.7,0.5,2.6,1,2.6c0,0.3,0,0.4,0,0.6s0,0.3,0,0.6c0.2,0,0.4,0,0.6,0s0.4,0.1,0.5,0.2s0.1,0.3,0,0.4s-0.1,0.2,0,0.4
		c0.1,0.1,0.4,0.3,0.8,0.6c0.6,1.7,1.5,3.3,2.6,4.8h1c0,0.2,0.1,0.4,0.3,0.5c0.2,0.1,0.3,0.3,0.3,0.6c0,0.3,0,0.4,0,0.6
		c0,0.1,0.1,0.3,0.3,0.4c0.2,0.1,0.4,0.2,0.5,0.4c0.1,0.1,0.2,0.4,0.2,0.7c0,0.4,0,0.7,0.2,0.9c0.1,0.2,0.4,0.6,0.8,1.1
		c0.2,1.5,1,2.6,2.2,3.3c0,0.2,0.4,0.9,1.3,1.9c0,1,0.3,2,0.8,3c0.5,1,0.8,1.7,0.8,2.2c1.5,1.5,2.2,2.6,2.2,3.3l0.9,0.7
		c0.2,2,0.8,3.5,1.6,4.5c0,0.5,0.4,2.2,1.3,5.2c0,0.3,0.3,0.5,0.9,0.7c0.2,0.5,0.1,1.2-0.3,2.2c0,1,0.3,1.7,0.9,2.2
		c0,1.7,0,2.9,0,3.3l0.6,0.7c0,2.2-0.2,3.5-0.6,3.7c0.2,1-0.1,1.9-0.9,2.6c0.4,2.2,0.2,3.7-0.6,4.5v0.7l-2.9,4.8
		c-0.4,0-0.7,0.1-0.9,0.4c-0.2,0.5-0.3,1-0.3,1.5c-0.4,0-0.8,0.5-1,1.5c-0.2,0-0.4-0.2-0.6-0.7c-1.1,0.7-1.5,1.9-1.3,3.3
		c-0.2,0-0.8-0.1-1.6-0.4c-0.4,0-0.9,0.4-1.3,1.1c-0.4,0.7-0.9,1.1-1.3,1.1c0,0.2-0.1,0.5-0.2,0.7c-0.1,0.3-0.3,0.5-0.5,0.7
		c-0.2-0.2-0.5-0.2-0.8,0.2s-0.6,0.6-0.8,0.6c-0.4-0.7-1.1-1-2.1-0.9s-1.7,0.7-2.1,1.7c0,0.2,0.1,0.5,0.3,0.7
		c0.2,0.2,0.3,0.5,0.3,0.7c-0.2,0-0.5-0.2-1-0.7c-0.2-0.2-0.4-0.4-0.6-0.4c-0.6,0-1.7,0.4-3.2,1.1c-0.2,0-0.4-0.1-0.5-0.2
		c-0.1-0.1-0.3-0.2-0.5-0.2c-0.4,0-1,0.3-1.8,0.7c-0.7,0.5-1.3,0.8-1.8,0.8c-0.2,0.2-0.5,0.3-0.8,0.2s-0.5-0.1-0.6,0
		s-0.3,0.3-0.5,0.6c-0.2,0.2-0.4,0.4-0.6,0.4c-0.2,0.3-0.7,0.3-1.4,0.2c-0.8-0.1-1.2-0.1-1.4,0.2c-0.2,0-0.4,0.2-0.5,0.6
		c-0.1,0.4-0.3,0.6-0.5,0.6c-1.5,0-2.3,0.1-2.4,0.2c-0.1,0.1-0.3,0.4-0.5,0.9s-0.4,0.7-0.6,0.7c-0.4,0-0.7-0.2-0.9-0.7
		c-0.2-0.5-0.4-0.7-0.6-0.7c-0.4,0.3-1.3,0.4-2.7,0.6c-1.4,0.1-2.1,0.7-2.1,1.7c-0.2,0-0.4-0.2-0.6-0.6c-0.2-0.4-0.4-0.6-0.6-0.6
		c-0.2-0.2-0.9-0.1-2.1,0.6c-1.2,0.6-1.9,1.1-2.1,1.3c-0.4-0.2-1.1-0.4-1.9-0.4c-0.9,0-1.4-0.1-1.6-0.4c-0.2,0-0.4,0.1-0.6,0.4
		c-0.2,0.3-0.4,0.4-0.6,0.4s-0.4-0.1-0.5-0.4c-0.1-0.2-0.3-0.4-0.5-0.4c-1.3-0.5-3,0-5.1,1.5c-0.2,0-0.4-0.2-0.5-0.6
		c-0.1-0.4-0.3-0.7-0.5-0.9c-1.3,0-2.3,0.1-3.2,0.4c-0.2,0.3-0.4,0.6-0.6,1.1c-0.9,1.2-1.6,1.2-2.2,0c-0.6,1.5-1.3,1.6-1.9,0.4
		c-0.2,0-0.4,0.3-0.6,0.8c-0.2,0-0.4-0.1-0.5-0.4c-0.1-0.2-0.3-0.4-0.5-0.4c0-0.5-0.5-0.5-1.6-0.2c-1.1,0.4-1.7,0.6-1.9,0.6
		s-0.5-0.1-0.8-0.2c-0.3-0.1-0.6-0.2-0.8-0.2c-0.4,0-1.2,0.1-2.2,0.2c-1.1,0.1-1.9,0.1-2.5-0.2c-0.6,1.5-1.4,1.5-2.2,0
		c-1.3,1.3-2.2,1.3-2.9,0c-0.2,0-0.4,0.1-0.6,0.4c-0.2,0.3-0.4,0.4-0.6,0.4s-0.4-0.1-0.5-0.4c-0.1-0.2-0.3-0.4-0.5-0.4s-1.3,0-3.2,0
		l-0.6,0.8c-1.5,0-3.9,0-7.3,0s-5.6,0-6.7,0c-0.2-1.2-0.6-1.9-1.1-1.9s-1.1,0.2-1.8,0.7c-0.2,0-0.3-0.2-0.3-0.6s0-0.7,0-0.9
		c-1.1-0.3-1.9-0.3-2.5,0V123c0-0.2-0.1-0.4-0.3-0.5c-0.2-0.1-0.4-0.2-0.6-0.2c0-0.5-0.2-1.1-0.6-1.9c0-1-0.3-1.6-1-1.8
		c-0.2,0-1,0.2-2.2,0.7l0.3-0.7c-0.4-0.5-0.8-0.8-1-0.8c0-0.2-0.2-1-0.6-2.2c-0.2,0-0.4,0.1-0.5,0.4c-0.1,0.2-0.3,0.4-0.5,0.4
		c-0.2-0.2-0.5-0.9-0.8-1.9s-0.7-1.6-1.1-1.9c-0.2-0.7,0-1.4,0.6-1.9c0.2-0.2,0.3-0.5,0.3-0.7c0.4-1.5,0.8-2.2,1-2.2
		c0-0.2-0.1-0.5-0.3-0.7s-0.3-0.4-0.3-0.6c0-0.1,0.4-0.7,1.3-1.7c0.2-0.2,0.4-0.6,0.5-0.9c0.1-0.4,0.2-0.6,0.3-0.7
		c0.1-0.1,0.3-0.3,0.6-0.6c0.3-0.2,0.5-0.5,0.5-0.7c0.8-1.2,1.5-1.9,1.9-1.9c0.2-0.5,0.3-0.9,0.3-1.1c0.6,0.3,1.1,0.1,1.4-0.4
		s0.7-0.7,1.1-0.7c2.6-2.5,4.6-4.1,6.1-4.8l0.3-1.1c0.8,0.5,1.8,0.3,2.9-0.7c0.2-0.5,0.5-0.7,1-0.7c0-0.7,0.1-1.1,0.3-1.1
		c0,1,0.6,1.2,1.9,0.7c0.6-0.2,1.2-0.4,1.6-0.4c0.8-1,1.6-1.4,2.2-1.1c0.2-0.2,0.9-1,2.2-2.2c0.4,0,1-0.1,1.8-0.4
		c0.7-0.2,1.4-0.4,2.1-0.4c0.2,0,0.3-0.1,0.2-0.4c-0.1-0.2-0.1-0.4,0.2-0.4c0.4,0,1,0,1.6,0s1-0.4,1-1.1c0.2,0.3,0.4,0.5,0.5,0.8
		c0.1,0.2,0.3,0.4,0.5,0.4s0.4-0.1,0.6-0.4c0.2-0.3,0.4-0.4,0.6-0.4c0.4,1.2,1.3,1.9,2.6,1.9c0.2,0,0.4,0.2,0.5,0.6
		c0.1,0.4,0.3,0.6,0.5,0.6c0.2,0.2,0.7,0.4,1.6,0.4c0.8,0,1.4,0.3,1.6,0.7c0,0.3-0.1,0.6-0.2,0.9c-0.1,0.4-0.2,0.7-0.2,0.9
		c0.9,0,1.4,0.1,1.6,0.4c-0.4,0.5-0.6,1.7-0.5,3.5c0.1,1.9-0.2,2.8-0.8,2.8c0.2,0.7-0.1,1.5-0.8,2.4c-0.8,0.9-1.2,1.4-1.4,1.7
		c0.2,0.5,0.7,0.7,1.4,0.6c0.7-0.1,1.2-0.4,1.4-0.9c0.2,0.7,0.8,1.1,1.9,1.1c1.1,0,1.8,0.3,2.2,0.7c1.9-0.7,3-0.9,3.2-0.4
		c0.2,0,0.5-0.1,1-0.4c0.4-0.2,1-0.1,1.8,0.4s1.2,0.6,1.4,0.4c0.2,0,0.4-0.1,0.6-0.4c0.2-0.3,0.4-0.4,0.6-0.4s0.8,0.3,1.8,0.7
		c1,0.5,1.5,0.4,1.8-0.4c0.6,0.2,1.3,0.1,1.9-0.4c0.2-0.2,0.4-0.4,0.6-0.4c0.4-0.2,1.2-0.2,2.4,0c1.2,0.3,2,0.3,2.4,0
		c0-0.2,0.1-0.4,0.3-0.5c0.2-0.1,0.4-0.3,0.6-0.6c3.2-0.2,4.8-0.2,4.8,0c0.2,0,0.5-0.4,1-1.1c0.4,0,1.3-0.1,2.7-0.2
		c1.4-0.1,2.2-0.1,2.4,0.2c0.8,0.3,1.7-0.2,2.6-1.5c0.2,0,0.6,0,1.1,0s0.9-0.1,1.1-0.4c0.2,0.3,0.4,0.4,0.5,0.6
		c0.1,0.1,0.3,0.2,0.5,0.2c0.4,0,0.6-0.1,0.6-0.4V96c0.2,0,0.7,0,1.6,0v-1.1c0.2,0,0.6,0,1.3,0c0.6,0,1-0.2,1-0.7
		c1.1,0.2,1.7,0,1.9-0.8c0.2,0.5,0.4,0.8,0.6,0.8l0.6-0.4c0.9-0.5,1.3-1.1,1.3-1.9c0.2-0.2,0.5-0.1,0.9,0.4c0.6-0.2,1.1-0.9,1.3-1.9
		c1.3-0.2,1.8-1,1.6-2.2c0-0.2,0.2-0.5,0.5-0.7s0.5-0.5,0.5-0.7c0.2-3-0.3-4.3-1.6-4.1c0-0.5,0.1-0.9,0.3-1.3
		c0.2-0.4,0.3-0.8,0.3-1.3c-0.2-0.2-0.4-0.4-0.6-0.6c-0.2-0.1-0.4-0.3-0.6-0.6c0-0.5,0-0.9,0-1.1c0-0.2-0.2-0.5-0.5-0.7
		s-0.5-0.5-0.5-0.7c0-0.7-0.3-1.5-0.9-2.2s-1.1-1.2-1.3-1.5h-0.3c-0.6-0.2-1-0.5-1-0.7s0.3-0.4,0.8-0.6c0.5-0.1,0.8-0.3,0.8-0.6
		c-0.2-0.2-0.6-0.6-1.1-1.1s-0.8-1-0.8-1.5c-0.2-0.2-0.5-0.5-1-0.7h-0.3c-0.4,0-0.7,0-0.9,0c0.2-1.7-0.1-2.6-1-2.6
		c0-1.7-0.6-3.3-1.9-4.6c-1.3-1.4-2-2.5-2.2-3.5c0-0.2-0.2-0.6-0.6-1.1l-0.3-1.5c-0.2,0-1,0-2.2,0c0-0.2,0.1-0.5,0.3-0.7
		c0-0.2-0.1-0.6-0.3-1.1c-0.2-0.5-0.4-1-0.6-1.5c-1.9-1.7-3-3.2-3.2-4.5c-0.6-0.7-1.1-1.5-1.3-2.2c-0.4-0.2-0.7-1-0.9-2.2
		c-0.2-0.5-0.3-0.9-0.3-1.1c-0.2-0.3-0.4-0.4-0.6-0.6c-0.2-0.1-0.3-0.2-0.3-0.4c0-0.1-0.1-0.4-0.3-0.9c-0.6-0.7-1.1-1.4-1.3-1.9H85
		L84.7,36c-0.4,0-0.8-0.1-1-0.4c-0.4-3-1.3-4.5-2.6-4.5c0-0.8-0.2-1.6-0.6-2.4c-0.4-0.9-0.6-1.5-0.6-2c-0.9-1.2-1.4-1.9-1.6-1.9
		c0-1.7-0.5-2.5-1.6-2.2c-0.2-0.5-0.4-0.9-0.6-1.1c0.2-1.5-0.5-2.5-2.2-3c0.4-2.2-0.1-4.2-1.6-5.9c0-2-0.4-3-1.3-3
		c-0.2-1-0.8-2.3-1.6-3.9c-0.9-1.6-1.4-2.9-1.6-3.9c-0.4-0.2-0.7-0.5-1-0.7c0.2-0.7,0.2-1.4,0-1.9c-0.2,0-0.5,0.1-0.9,0.4
		c0.4-1.7,0.4-3.1,0-4.1C65.3-5.2,65-6,65.3-6.7c-0.2-0.5-0.8-0.9-1.6-1.1V-10c0.6-0.7,0.2-2.6-1.3-5.6c0.2,0,0.1-1.1-0.3-3.4
		c0-0.5,0-0.8,0-0.9c0-0.1-0.1-0.3-0.3-0.6c-0.2-0.2-0.3-0.5-0.3-0.7c-0.2-0.5-0.3-1.2-0.3-2.2c-0.2-1.7-0.8-2.7-1.6-3
		c-0.4,0-1.4,0.1-2.9,0.2c-1.5,0.1-2.5,0.6-2.9,1.3c-0.2,0-0.4-0.1-0.5-0.2c-0.1-0.1-0.3-0.2-0.5-0.2c-0.2,0.2-0.7,0.4-1.4,0.4
		c-0.8,0-1.2,0.1-1.4,0.4c-0.6-0.5-1.1-0.7-1.4-0.7c-0.3,0-0.7,0.1-1.3,0.2c-0.5,0.1-0.9,0.2-1.1,0.2c-0.2,0-0.6,0-1.3,0
		c-1.1-0.2-1.8-0.1-2.2,0.4c-0.2,0.2-0.3,0.5-0.3,0.7c-0.4,0.2-0.8,0.4-1,0.4C41.1-23.6,41-24,41-24.5c-0.4-0.5-1.2-0.5-2.2,0
		c-0.2,0-0.3,0.1-0.3,0.4c0,0.3,0,0.5,0,0.8c-0.4-0.3-1.8-0.3-4.1,0c-1.1-1.5-2-1.9-2.9-1.1l0.3,0.7c-0.6,0.5-1.3,0.4-1.9-0.4
		c-0.6,0-1.6,0-2.9,0c-0.2,0-0.4-0.1-0.5-0.4c-0.1-0.2-0.3-0.4-0.6-0.4c-0.3,0-0.5,0.2-0.6,0.6s-0.3,0.6-0.5,0.6
		c-0.2,0.2-0.4-0.1-0.6-1.1c-0.4-0.2-1.3-0.3-2.7-0.2c-1.4,0.1-2.4,0.2-3,0.2c0-0.7-0.1-1.1-0.3-1.1c-0.2,0.3-0.4,0.4-0.6,0.4
		c-0.2-0.5-0.7-0.6-1.6-0.4c-0.4,0-0.7,0-0.9,0s-0.4-0.1-0.5-0.4c-0.1-0.2-0.2-0.4-0.3-0.4s-0.4,0-0.8,0c-0.2,0-0.4-0.1-0.6-0.4
		c-0.2-0.2-0.4-0.4-0.6-0.4c-0.4,0.3-0.7,0.3-0.9,0c-0.2,0-0.5-0.4-1-1.1C9.8-28.8,9-29.3,8-30.1c-1-0.7-1.8-1.2-2.4-1.5v-1.1
		c0-0.2-0.2-0.5-0.5-0.7s-0.5-0.5-0.5-0.7c0-0.5-0.1-1-0.3-1.5C4.1-36.1,4-36.5,4-36.7c-0.2-0.7-0.7-1.4-1.4-2
		C1.5-39.4,1-40,0.8-40.5c-0.2,0-0.5,0.1-1,0.4L0.4-42c0-0.5-0.1-1.8-0.2-3.9C0.1-48,0.5-49,1.1-49c0.2-0.2,0.6-0.6,1.3-1.1
		C2.6-51.4,3.3-52,4.3-52c0.4,0,0.9-0.4,1.6-1.3c0.6-0.9,1.2-1.3,1.6-1.3c0.4-0.2,1.3-0.2,2.6,0c1.3,0.3,2.2,0.3,2.9,0
		c0.2,0.3,0.3,0.5,0.3,0.7c0,0.3,0.1,0.4,0.3,0.4c0.9,0.2,1.8,0.3,2.7,0.2c1-0.1,1.9-0.1,2.7,0.2c0.8,0.3,1.4,0.6,1.6,1.1
		c0.6,0,1.6,0.1,2.9,0.2c1.3,0.1,2.1,0.1,2.6-0.2c0.2,0,0.4-0.1,0.5-0.4s0.3-0.4,0.5-0.4c0,0.3,0.1,0.6,0.2,0.9
		c0.1,0.4,0.3,0.6,0.5,0.6c0.4,0,0.7-0.5,0.9-1.5c0.6,0,1,0,1.1,0s0.1,0.4-0.2,1.1c0.6,0.7,1.3,1,1.9,0.7c0.2,0,0.4-0.1,0.6-0.2
		c0.2-0.1,0.4-0.2,0.5-0.2s0.5,0.1,1.1,0.4c0.4-0.2,0.9-0.5,1.4-0.7s0.9-0.4,1.1-0.4c1.1-0.2,2.6-0.4,4.5-0.4c0.4,0,1.6,0.1,3.7,0.4
		c2,0.3,3.2,0.3,3.7,0c0.2,0,0.4-0.1,0.5-0.2c0.1-0.1,0.3-0.2,0.5-0.2s0.5,0.1,0.8,0.2c0.3,0.1,0.6,0.2,0.8,0.2l1-0.4
		c0.2,0,1.1,0.1,2.5,0.4c1.5,0.3,2.5,0.3,2.9,0l0.9-0.7l2.9-0.4c0.2,0,0.9,0,2.1,0c1.2,0,2,0,2.4,0c0.2,0,0.6-0.1,1.1-0.4
		c0.5-0.2,0.9-0.4,1.1-0.4s0.8,0.1,1.8,0.4c0.9,0.2,1.6,0.4,2.1,0.4c0.2,0,0.4-0.2,0.6-0.5c0.2-0.4,0.4-0.6,0.6-0.6s0.4,0,0.5,0
		s0.3,0,0.5,0c1.3-0.2,2.1-0.2,2.5,0c0.8-0.2,4-0.4,9.6-0.4L86-55c0.2,0,0.4,0.1,0.5,0.2c0.1,0.1,0.3,0.2,0.5,0.2s0.5-0.1,0.8-0.2
		c0.3-0.1,0.6-0.1,0.8,0.2c1.9-1.5,4.6-1.7,8-0.7c0.6-0.7,1.4-0.7,2.2,0c0.2-0.2,0.7-0.3,1.4-0.2c0.7,0.1,1.2,0.1,1.3,0
		c0.1-0.1,0.5-0.4,1.3-0.9c0.7-0.5,1.5-0.7,2.4-0.7c0.2,0,0.6-0.1,1.3-0.4c0.8-0.5,1.3-1.1,1.3-1.9c0.4-0.2,1-0.2,1.6,0.2
		c0.6,0.4,1.1,0.3,1.3-0.2C112.5-58.9,113.7-59.1,114.4-59.8z M115.3-59.8c0.2,0.3,0.5,0.3,0.8,0.2c0.3-0.1,0.6,0,0.8,0.2v1.5
		c0.4,0.2,0.8,0.4,1.3,0.4c0.2,0.2,0.7,0.6,1.6,1.1c0.8,0.5,1.5,0.9,1.9,1.1c0-0.2,0.3-0.2,0.9,0c0.2,0.5,0.5,1,1,1.5h1.3
		c0.2,0.3,0.3,0.7,0.2,1.3c-0.1,0.6-0.1,1,0,1.1c0.1,0.1,0.4,0.6,0.8,1.3c0.4,0.7,0.5,1.5,0.3,2.2c0,0.3,0.2,0.4,0.5,0.4
		s0.6,0.1,0.8,0.4c0,0.5-0.2,1.1-0.6,1.9c0.2,3,0.6,4.4,1.3,4.4c0.2,0.3,0.3,1.5,0.3,3.7l-1,0.4c-0.2,0.2-0.3,0.6-0.3,1.1
		c-0.2,1.3-0.8,1.6-1.9,1.1c0,0.3-0.2,0.7-0.5,1.3s-0.6,1.2-0.8,1.7c-2.1-0.2-3.3-0.4-3.5-0.4s-0.5,0.3-1,0.9s-0.6,1.1-0.6,1.3
		c-0.4-0.2-0.9-0.2-1.4,0s-0.9,0.4-1.1,0.4c-0.4-0.2-0.6-0.5-0.6-0.7c-1.3,0-1.9,0.7-1.9,2.2c-0.6,0.2-1.2,0.2-1.6,0
		c-0.2-1.2-0.4-1.9-0.6-1.9c-0.9,0.5-1.4,0.6-1.6,0.4c-0.4-1-0.8-1.6-1.3-1.9c-0.2,0-0.4,0.1-0.5,0.4s-0.3,0.4-0.5,0.4
		c-1.7-0.8-3.2-0.8-4.5,0c0,0.5,0,0.9,0,1.1c-0.4,0.3-2.2,0.3-5.3,0.2c-3.1-0.1-4.9-0.2-5.6-0.2c-0.2,0-0.4-0.1-0.6-0.4
		c-2.3-0.2-3.2,0.2-2.5,1.5c-3,0.7-4.8,0.6-5.4-0.4c-0.4,0.3-0.6,1-0.6,2.2s0.2,2,0.6,2.2c0.4,0,0.7,0,1,0c0.2,0.5,0,1-0.6,1.5
		c0,1.7,0.4,3,1.3,3.7v1.5c0.4,0.2,0.6,0.5,0.6,0.7s-0.2,0.6-0.6,1.1c-0.2,0.7-0.1,1.4,0.3,2s0.6,1.2,0.6,1.7
		c-0.2,1-0.3,1.6-0.3,1.9C86.4-9.8,86.7-9.5,87-9s0.4,1,0.2,1.5c0.4,0.3,0.8,0.9,1.1,1.9c0.3,1,0.9,1.5,1.8,1.5
		c0,0.3-0.1,0.6-0.2,1.1s-0.1,0.9,0.2,1.1c0.2,0,0.4-0.1,0.5-0.4c0.1-0.2,0.3-0.2,0.5,0c0,0.3-0.2,0.6-0.6,1.1V1
		c0.4,0.2,0.8,0.8,1.1,1.7c0.3,0.9,0.7,1.4,1.1,1.7c-0.2,1,0,2,0.6,3s0.9,1.9,0.9,2.6c0.2,0.3,0.5,0.6,0.8,1.1s0.5,1,0.5,1.5
		c0.2,0,0.5,0.4,0.9,1.1s0.8,1.2,1,1.5c-0.2,1.5,0.4,2.9,1.9,4.1c0.2,1,0.8,2.2,1.9,3.7v1.1c0.2,0.3,0.6,0.5,1.3,0.7
		c1.1,2.5,1.8,4,2.2,4.5c0.2,0,0.5,0.1,1,0.4c0.4,0.2,0.8,0.4,1.3,0.4c0,0.8-0.2,1.5-0.6,2.2c0.2,0.2,0.4,0.6,0.6,1.1s0.3,1,0.3,1.5
		c0.2,0,0.5,0.1,1,0.4c0.4,0.2,0.8,0.4,1.3,0.4c0,0.5,0.2,1.2,0.5,2c0.3,0.9,0.6,1.4,0.8,1.7c0.2,0.2,0.5,0.4,0.8,0.6
		c0.3,0.1,0.6,0.2,0.8,0.2c0.2,1.7,0.5,2.6,1,2.6c0,0.3,0,0.4,0,0.6s0,0.3,0,0.6c0.2,0,0.4,0,0.6,0s0.4,0.1,0.5,0.2s0.1,0.3,0,0.4
		s-0.1,0.2,0,0.4c0.1,0.1,0.4,0.3,0.8,0.6c0.6,1.7,1.5,3.3,2.6,4.8h1c0,0.2,0.1,0.4,0.3,0.5c0.2,0.1,0.3,0.3,0.3,0.6
		c0,0.3,0,0.4,0,0.6c0,0.1,0.1,0.3,0.3,0.4c0.2,0.1,0.4,0.2,0.5,0.4c0.1,0.1,0.2,0.4,0.2,0.7c0,0.4,0,0.7,0.2,0.9
		c0.1,0.2,0.4,0.6,0.8,1.1c0.2,1.5,1,2.6,2.2,3.3c0,0.2,0.4,0.9,1.3,1.9c0,1,0.3,2,0.8,3c0.5,1,0.8,1.7,0.8,2.2
		c1.5,1.5,2.2,2.6,2.2,3.3l0.9,0.7c0.2,2,0.8,3.5,1.6,4.5c0,0.5,0.4,2.2,1.3,5.2c0,0.3,0.3,0.5,0.9,0.7c0.2,0.5,0.1,1.2-0.3,2.2
		c0,1,0.3,1.7,0.9,2.2c0,1.7,0,2.9,0,3.3l0.6,0.7c0,2.2-0.2,3.5-0.6,3.7c0.2,1-0.1,1.9-0.9,2.6c0.4,2.2,0.2,3.7-0.6,4.5v0.7
		c-1.9,3-2.9,4.6-2.9,4.8c-0.4,0-0.7,0.1-0.9,0.4c-0.2,0.5-0.3,1-0.3,1.5c-0.4,0-0.8,0.5-1,1.5c-0.2,0-0.4-0.2-0.6-0.7
		c-1.1,0.7-1.5,1.9-1.3,3.3c-0.2,0-0.8-0.1-1.6-0.4c-0.4,0-0.9,0.4-1.3,1.1c-0.4,0.7-0.9,1.1-1.3,1.1c0,0.2-0.1,0.5-0.2,0.7
		c-0.1,0.3-0.3,0.5-0.5,0.7c-0.2-0.2-0.5-0.2-0.8,0.2s-0.6,0.6-0.8,0.6c-0.4-0.7-1.1-1-2.1-0.9s-1.7,0.7-2.1,1.7
		c0,0.2,0.1,0.5,0.3,0.7c0.2,0.2,0.3,0.5,0.3,0.7c-0.2,0-0.5-0.2-1-0.7c-0.2-0.2-0.4-0.4-0.6-0.4c-0.6,0-1.7,0.4-3.2,1.1
		c-0.2,0-0.4-0.1-0.5-0.2c-0.1-0.1-0.3-0.2-0.5-0.2c-0.4,0-1,0.3-1.8,0.7c-0.7,0.5-1.3,0.8-1.8,0.8c-0.2,0.2-0.5,0.3-0.8,0.2
		s-0.5-0.1-0.6,0s-0.3,0.3-0.5,0.6c-0.2,0.2-0.4,0.4-0.6,0.4c-0.2,0.3-0.7,0.3-1.4,0.2c-0.8-0.1-1.2-0.1-1.4,0.2
		c-0.2,0-0.4,0.2-0.5,0.6c-0.1,0.4-0.3,0.6-0.5,0.6c-1.5,0-2.3,0.1-2.4,0.2c-0.1,0.1-0.3,0.4-0.5,0.9s-0.4,0.7-0.6,0.7
		c-0.4,0-0.7-0.2-0.9-0.7c-0.2-0.5-0.4-0.7-0.6-0.7c-0.4,0.3-1.3,0.4-2.7,0.6c-1.4,0.1-2.1,0.7-2.1,1.7c-0.2,0-0.4-0.2-0.6-0.6
		c-0.2-0.4-0.4-0.6-0.6-0.6c-0.2-0.2-0.9-0.1-2.1,0.6c-1.2,0.6-1.9,1.1-2.1,1.3c-0.4-0.2-1.1-0.4-1.9-0.4c-0.9,0-1.4-0.1-1.6-0.4
		c-0.2,0-0.4,0.1-0.6,0.4c-0.2,0.3-0.4,0.4-0.6,0.4s-0.4-0.1-0.5-0.4c-0.1-0.2-0.3-0.4-0.5-0.4c-1.3-0.5-3,0-5.1,1.5
		c-0.2,0-0.4-0.2-0.5-0.6c-0.1-0.4-0.3-0.7-0.5-0.9c-1.3,0-2.3,0.1-3.2,0.4c-0.2,0.3-0.4,0.6-0.6,1.1c-0.9,1.2-1.6,1.2-2.2,0
		c-0.6,1.5-1.3,1.6-1.9,0.4c-0.2,0-0.4,0.3-0.6,0.8c-0.2,0-0.4-0.1-0.5-0.4c-0.1-0.2-0.3-0.4-0.5-0.4c0-0.5-0.5-0.5-1.6-0.2
		c-1.1,0.4-1.7,0.6-1.9,0.6s-0.5-0.1-0.8-0.2c-0.3-0.1-0.6-0.2-0.8-0.2c-0.4,0-1.2,0.1-2.2,0.2c-1.1,0.1-1.9,0.1-2.5-0.2
		c-0.6,1.5-1.4,1.5-2.2,0c-1.3,1.3-2.2,1.3-2.9,0c-0.2,0-0.4,0.1-0.6,0.4c-0.2,0.3-0.4,0.4-0.6,0.4s-0.4-0.1-0.5-0.4
		c-0.1-0.2-0.3-0.4-0.5-0.4s-1.3,0-3.2,0l-0.6,0.8c-1.5,0-3.9,0-7.3,0s-5.6,0-6.7,0c-0.2-1.2-0.6-1.9-1.1-1.9s-1.1,0.2-1.8,0.7
		c-0.2,0-0.3-0.2-0.3-0.6s0-0.7,0-0.9c-1.1-0.3-1.9-0.3-2.5,0V123c0-0.2-0.1-0.4-0.3-0.5c-0.2-0.1-0.4-0.2-0.6-0.2
		c0-0.5-0.2-1.1-0.6-1.9c0-1-0.3-1.6-1-1.8c-0.2,0-1,0.2-2.2,0.7l0.3-0.7c-0.4-0.5-0.8-0.8-1-0.8c0-0.2-0.2-1-0.6-2.2
		c-0.2,0-0.4,0.1-0.5,0.4c-0.1,0.2-0.3,0.4-0.5,0.4c-0.2-0.2-0.5-0.9-0.8-1.9s-0.7-1.6-1.1-1.9c-0.2-0.7,0-1.4,0.6-1.9
		c0.2-0.2,0.3-0.5,0.3-0.7c0.4-1.5,0.8-2.2,1-2.2c0-0.2-0.1-0.5-0.3-0.7s-0.3-0.4-0.3-0.6c0-0.1,0.4-0.7,1.3-1.7
		c0.2-0.2,0.4-0.6,0.5-0.9c0.1-0.4,0.2-0.6,0.3-0.7c0.1-0.1,0.3-0.3,0.6-0.6c0.3-0.2,0.5-0.5,0.5-0.7c0.8-1.2,1.5-1.9,1.9-1.9
		c0.2-0.5,0.3-0.9,0.3-1.1c0.6,0.3,1.1,0.1,1.4-0.4s0.7-0.7,1.1-0.7c2.6-2.5,4.6-4.1,6.1-4.8l0.3-1.1c0.8,0.5,1.8,0.3,2.9-0.7
		c0.2-0.5,0.5-0.7,1-0.7c0-0.7,0.1-1.1,0.3-1.1c0,1,0.6,1.2,1.9,0.7c0.6-0.2,1.2-0.4,1.6-0.4c0.8-1,1.6-1.4,2.2-1.1
		c0.2-0.2,0.9-1,2.2-2.2c0.4,0,1-0.1,1.8-0.4c0.7-0.2,1.4-0.4,2.1-0.4c0.2,0,0.3-0.1,0.2-0.4c-0.1-0.2-0.1-0.4,0.2-0.4
		c0.4,0,1,0,1.6,0s1-0.4,1-1.1c0.2,0.3,0.4,0.5,0.5,0.8c0.1,0.2,0.3,0.4,0.5,0.4s0.4-0.1,0.6-0.4c0.2-0.3,0.4-0.4,0.6-0.4
		c0.4,1.2,1.3,1.9,2.6,1.9c0.2,0,0.4,0.2,0.5,0.6c0.1,0.4,0.3,0.6,0.5,0.6c0.2,0.2,0.7,0.4,1.6,0.4c0.8,0,1.4,0.3,1.6,0.7
		c0,0.3-0.1,0.6-0.2,0.9c-0.1,0.4-0.2,0.7-0.2,0.9c0.9,0,1.4,0.1,1.6,0.4c-0.4,0.5-0.6,1.7-0.5,3.5c0.1,1.9-0.2,2.8-0.8,2.8
		c0.2,0.7-0.1,1.5-0.8,2.4c-0.8,0.9-1.2,1.4-1.4,1.7c0.2,0.5,0.7,0.7,1.4,0.6c0.7-0.1,1.2-0.4,1.4-0.9c0.2,0.7,0.8,1.1,1.9,1.1
		c1.1,0,1.8,0.3,2.2,0.7c1.9-0.7,3-0.9,3.2-0.4c0.2,0,0.5-0.1,1-0.4c0.4-0.2,1-0.1,1.8,0.4s1.2,0.7,1.4,0.7c0.2-0.2,0.4-0.5,0.6-0.7
		c0.2-0.3,0.4-0.4,0.6-0.4s0.8,0.3,1.8,0.7c1,0.5,1.5,0.4,1.8-0.4c0.6,0.2,1.3,0.1,1.9-0.4c0.2-0.2,0.4-0.4,0.6-0.4
		c0.4-0.2,1.2-0.2,2.4,0c1.2,0.3,2,0.3,2.4,0c0-0.2,0.1-0.4,0.3-0.5c0.2-0.1,0.4-0.3,0.6-0.6c3.2-0.2,4.8-0.2,4.8,0
		c0.2,0,0.5-0.4,1-1.1c0.4,0,1.3-0.1,2.7-0.2c1.4-0.1,2.2-0.1,2.4,0.2c0.8,0.3,1.7-0.2,2.6-1.5c0.2,0,0.6,0,1.1,0s0.9-0.1,1.1-0.4
		c0.2,0.3,0.4,0.4,0.5,0.6c0.1,0.1,0.3,0.2,0.5,0.2c0.4,0,0.6-0.1,0.6-0.4V96c0.2,0,0.7,0,1.6,0v-1.1c0.2,0,0.6,0,1.3,0
		c0.6,0,1-0.2,1-0.7c1.1,0.2,1.7,0,1.9-0.8c0.2,0.5,0.4,0.8,0.6,0.8l0.6-0.4c0.9-0.5,1.3-1.1,1.3-1.9c0.2-0.2,0.5-0.1,0.9,0.4
		c0.6-0.2,1.1-0.9,1.3-1.9c1.3-0.2,1.8-1,1.6-2.2c0-0.2,0.2-0.5,0.5-0.7s0.5-0.5,0.5-0.7c0.2-3-0.3-4.3-1.6-4.1
		c0-0.5,0.1-0.9,0.3-1.3c0.2-0.4,0.3-0.8,0.3-1.3c-0.2-0.2-0.4-0.4-0.6-0.6c-0.2-0.1-0.4-0.3-0.6-0.6c0-0.5,0-0.9,0-1.1
		c0-0.2-0.2-0.5-0.5-0.7s-0.5-0.5-0.5-0.7c0-0.7-0.3-1.5-0.9-2.2s-1.1-1.2-1.3-1.5l-1.3-0.7c0-0.2,0.3-0.4,0.8-0.6
		c0.5-0.1,0.8-0.3,0.8-0.6c-0.2-0.2-0.6-0.6-1.1-1.1s-0.8-1-0.8-1.5c-0.2-0.2-0.5-0.5-1-0.7h-0.3c-0.4,0-0.7,0-0.9,0
		c0.2-1.7-0.1-2.6-1-2.6c0-1.7-0.6-3.3-1.9-4.6c-1.3-1.4-2-2.5-2.2-3.5c0-0.2-0.2-0.6-0.6-1.1l-0.3-1.5c-0.2,0-1,0-2.2,0
		c0-0.2,0.1-0.5,0.3-0.7c0-0.2-0.1-0.6-0.3-1.1c-0.2-0.5-0.4-1-0.6-1.5c-1.9-1.7-3-3.2-3.2-4.5c-0.6-0.7-1.1-1.5-1.3-2.2
		c-0.4-0.2-0.7-1-0.9-2.2c-0.2-0.5-0.3-0.9-0.3-1.1c-0.2-0.3-0.4-0.4-0.6-0.6c-0.2-0.1-0.3-0.2-0.3-0.4c0-0.1-0.1-0.4-0.3-0.9
		c-0.6-0.7-1.1-1.4-1.3-1.9H85L84.7,36c-0.4,0-0.8,0-1,0c-0.4-3.2-1.3-4.8-2.6-4.8c0-0.8-0.2-1.6-0.6-2.4c-0.4-0.9-0.6-1.5-0.6-2
		c-0.9-1.2-1.4-1.9-1.6-1.9c0-1.7-0.5-2.5-1.6-2.2c-0.2-0.5-0.4-0.9-0.6-1.1c0.2-1.5-0.5-2.5-2.2-3c0.4-2.2-0.1-4.2-1.6-5.9
		c0-2-0.4-3-1.3-3c-0.2-1-0.8-2.3-1.6-3.9c-0.9-1.6-1.4-2.9-1.6-3.9c-0.4-0.2-0.7-0.5-1-0.7c0.2-0.7,0.2-1.4,0-1.9
		c-0.2,0-0.5,0.1-0.9,0.4c0.4-1.7,0.4-3.1,0-4.1c-0.6-0.7-0.9-1.5-0.6-2.2c-0.2-0.5-0.8-0.9-1.6-1.1V-10c0.6-0.7,0.2-2.6-1.3-5.6
		c0.2,0,0.1-1.1-0.3-3.4c0-0.5,0-0.8,0-0.9c0-0.1-0.1-0.3-0.3-0.6c-0.2-0.2-0.3-0.5-0.3-0.7c-0.2-0.5-0.3-1.2-0.3-2.2
		c-0.2-1.7-0.8-2.7-1.6-3c-0.4,0-1.4,0.1-2.9,0.2c-1.5,0.1-2.5,0.6-2.9,1.3c-0.2,0-0.4-0.1-0.5-0.2c-0.1-0.1-0.3-0.2-0.5-0.2
		c-0.2,0.2-0.7,0.4-1.4,0.4c-0.8,0-1.2,0.1-1.4,0.4c-0.6-0.5-1.1-0.7-1.4-0.7c-0.3,0-0.7,0.1-1.3,0.2c-0.5,0.1-0.9,0.2-1.1,0.2
		c-0.2,0-0.6,0-1.3,0c-1.1-0.2-1.8-0.1-2.2,0.4c-0.2,0.2-0.3,0.5-0.3,0.7c-0.4,0.2-0.8,0.4-1,0.4C41.1-23.6,41-24,41-24.5
		c-0.4-0.5-1.2-0.5-2.2,0c-0.2,0-0.3,0.1-0.3,0.4c0,0.3,0,0.5,0,0.8c-0.4-0.3-1.8-0.3-4.1,0c-1.1-1.5-2-1.9-2.9-1.1l0.3,0.7
		c-0.6,0.5-1.3,0.4-1.9-0.4c-0.6,0-1.6,0-2.9,0c-0.2,0-0.4-0.1-0.5-0.4c-0.1-0.2-0.3-0.4-0.6-0.4c-0.3,0-0.5,0.2-0.6,0.6
		s-0.3,0.6-0.5,0.6c-0.2,0.2-0.4-0.1-0.6-1.1c-0.4-0.2-1.3-0.3-2.7-0.2c-1.4,0.1-2.4,0.2-3,0.2c0-0.7-0.1-1.1-0.3-1.1
		c-0.2,0.3-0.4,0.4-0.6,0.4c-0.2-0.5-0.7-0.6-1.6-0.4c-0.4,0-0.7,0-0.9,0s-0.4-0.1-0.5-0.4c-0.1-0.2-0.2-0.4-0.3-0.4s-0.4,0-0.8,0
		c-0.2,0-0.4-0.1-0.6-0.4c-0.2-0.2-0.4-0.4-0.6-0.4c-0.4,0.3-0.7,0.3-0.9,0c-0.2,0-0.5-0.4-1-1.1C9.8-28.8,9-29.3,8-30.1
		c-1-0.7-1.8-1.2-2.4-1.5v-1.1c0-0.2-0.2-0.5-0.5-0.7s-0.5-0.5-0.5-0.7c0-0.5-0.1-1-0.3-1.5C4.1-36.1,4-36.5,4-36.7
		c-0.2-0.7-0.7-1.4-1.4-2C1.5-39.4,1-40,0.8-40.5c-0.2,0-0.5,0.1-1,0.4L0.4-42c0-0.5-0.1-1.8-0.2-3.9C0.1-48,0.5-49,1.1-49
		c0.2-0.2,0.6-0.6,1.3-1.1C2.6-51.4,3.3-52,4.3-52c0.4,0,0.9-0.4,1.6-1.3c0.6-0.9,1.2-1.3,1.6-1.3c0.4-0.2,1.3-0.2,2.6,0
		c1.3,0.3,2.2,0.3,2.9,0c0.2,0.3,0.3,0.5,0.3,0.7c0,0.3,0.1,0.4,0.3,0.4c0.9,0.2,1.8,0.3,2.7,0.2c1-0.1,1.9-0.1,2.7,0.2
		c0.8,0.3,1.4,0.6,1.6,1.1c0.6,0,1.6,0.1,2.9,0.2c1.3,0.1,2.1,0.1,2.6-0.2c0.2,0,0.4-0.1,0.5-0.4s0.3-0.4,0.5-0.4
		c0,0.3,0.1,0.6,0.2,0.9c0.1,0.4,0.3,0.6,0.5,0.6c0.4,0,0.7-0.5,0.9-1.5c0.6,0,1,0,1.1,0s0.1,0.4-0.2,1.1c0.6,0.7,1.3,1,1.9,0.7
		c0.2,0,0.4-0.1,0.6-0.2c0.2-0.1,0.4-0.2,0.5-0.2s0.5,0.1,1.1,0.4c0.4-0.2,0.9-0.5,1.4-0.7s0.9-0.4,1.1-0.4c1.1-0.2,2.6-0.4,4.5-0.4
		c0.4,0,1.6,0.1,3.7,0.4c2,0.3,3.2,0.3,3.7,0c0.2,0,0.4-0.1,0.5-0.2c0.1-0.1,0.3-0.2,0.5-0.2s0.5,0.1,0.8,0.2
		c0.3,0.1,0.6,0.2,0.8,0.2l1-0.4c0.2,0,1.1,0.1,2.5,0.4c1.5,0.3,2.5,0.3,2.9,0l0.9-0.7l2.9-0.4c0.2,0,0.9,0,2.1,0c1.2,0,2,0,2.4,0
		c0.2,0,0.6-0.1,1.1-0.4c0.5-0.2,0.9-0.4,1.1-0.4s0.8,0.1,1.8,0.4c0.9,0.2,1.6,0.4,2.1,0.4c0.2,0,0.4-0.2,0.6-0.5
		c0.2-0.4,0.4-0.6,0.6-0.6s0.4,0,0.5,0s0.3,0,0.5,0c1.3-0.2,2.1-0.2,2.5,0c0.8-0.2,4-0.4,9.6-0.4L86-55c0.2,0,0.4,0.1,0.5,0.2
		c0.1,0.1,0.3,0.2,0.5,0.2s0.5-0.1,0.8-0.2c0.3-0.1,0.6-0.1,0.8,0.2c1.9-1.5,4.6-1.7,8-0.7c0.6-0.7,1.4-0.7,2.2,0
		c0.2-0.2,0.7-0.3,1.4-0.2c0.7,0.1,1.2,0.1,1.3,0c0.1-0.1,0.5-0.4,1.3-0.9c0.7-0.5,1.5-0.7,2.4-0.7c0.2,0,0.6-0.1,1.3-0.4
		c0.8-0.5,1.3-1.1,1.3-1.9c0.4-0.2,1-0.2,1.6,0.2c0.6,0.4,1.1,0.3,1.3-0.2c1.9,0.5,3.2,0.4,3.8-0.4
		C114.4-60.3,114.7-60.3,115.3-59.8z M50.6-23.3c0,0-0.1,0-0.3,0S50-23.4,50-23.7c0-0.2,0.1-0.5,0.3-0.7
		C50.5-23.7,50.6-23.3,50.6-23.3z M50.3-24.5c0.2,0.7,0.2,1.1,0,1.1S50-23.5,50-23.8C49.9-24,50-24.2,50.3-24.5z M102.6,122.1
		c0,0.5-0.3,0.7-0.8,0.6c-0.5-0.1-0.8-0.4-0.8-0.9c0.2-0.2,0.5-0.4,1-0.4C102.3,121.3,102.6,121.6,102.6,122.1z M101,121.7
		c0.2-0.2,0.5-0.4,1-0.4c0.4,0,0.6,0.2,0.6,0.7s-0.3,0.7-0.8,0.6C101.2,122.5,101,122.2,101,121.7z"/>
	<path fill="#2B5799" d="M182,43.2c0.8,0.7,1.5,1.1,1.9,1.1l1-0.7c1.5,0,3.5,0,6.1,0c2.5,0,4.6,0,6.1,0c1.1,0.7,1.7,1,1.9,0.7
		c0.2,0.3,0.3,0.9,0.3,1.9c0.2,0.5,0.6,0.9,1.1,1.3s0.9,0.8,1.1,1.3c0.2,0.7,0.4,1.1,0.6,1.1c0.4-0.5,0.7-0.6,1-0.4l0.3,2.6
		c0.2,0.3,0.6,0.6,1.3,1.1c0.2,2.2,0.6,3.2,1.3,3c0.2,0,0.4-0.1,0.5-0.4c0.1-0.2,0.3-0.5,0.5-0.7c0.2,0,0.6,0.4,1.3,1.1
		c0.2,0,0.6,0,1.3,0c1.3,0.2,2.1,0.1,2.6-0.4c0,1,0.3,1.5,1,1.5c0.2,0.3,0.4,0.3,0.6,0c0.2-0.2,0.4-0.4,0.6-0.4V58
		c1.9,1,3.2,2,3.8,3c0-0.2,0.3-0.2,1,0c2.8,3.2,4.3,5.2,4.8,5.9c0.2,0.3,0.7,0.6,1.6,1.1c0,0.3,0.3,0.8,0.8,1.7s1.1,1.4,1.8,1.7
		c1.1,1.7,1.6,3,1.6,3.7c0.2,0.3,0.4,0.6,0.6,1.1c0,0.5,0.1,0.9,0.2,1.1c0.1,0.2,0.3,0.5,0.5,0.7s0.4,0.5,0.6,0.7
		c0,0.2-0.1,0.9-0.3,1.9c0,0.5,0.1,1.4,0.3,2.6c0.2,1.2,0.3,2.1,0.3,2.6c0,0.2-0.1,0.9-0.3,2s-0.2,1.9,0,2.4c-0.4,0.5-0.9,1.5-1.3,3
		c-0.4,1.5-1,2.5-1.6,3c-0.2,0.7-0.7,1.7-1.4,2.8s-1.2,1.9-1.4,2.4h-1c-1.1,1-2.7,2.5-4.8,4.5s-3.7,3.5-4.8,4.5
		c0.2,0.7,0.2,1.1,0,1.1s-0.6-0.3-1.3-0.8c-1.5,1-2.6,1.1-3.2,0.4c-1.7,1.5-2.7,2.6-2.9,3.3c-1.1-0.5-2.3-0.2-3.8,0.7
		c-0.6,0.5-1.1,0.9-1.3,1.1c-0.2,0-0.4,0-0.6,0c-0.2,0-0.3,0.1-0.3,0.4c-0.2,0-0.5,0.2-0.8,0.6c-0.3,0.4-0.5,0.5-0.6,0.5
		s-0.4,0-0.9-0.2c-0.5-0.1-0.9-0.1-1.1,0.2c-0.4,0.5-0.8,0.8-1,0.8c-0.2,0.2-0.8,0.5-1.8,0.7s-1.6,0.6-2.1,1.1
		c-1.5-0.2-2.6-0.2-3.2,0c-0.6,0.8-1.1,1.1-1.3,1.1c-0.2-0.5-0.6-0.7-1.3-0.7s-1.1,0.3-1.3,0.7c-3.2-0.7-5-0.7-5.4,0
		c-1.3-0.5-2-0.5-2.2,0c-0.4-0.2-1.2-0.3-2.2-0.2c-1.1,0.1-1.6-0.2-1.6-0.9c-0.2,0-0.7,0-1.4,0c-0.8,0-1.2-0.1-1.4-0.4
		c-0.8,0.5-1.7,0.4-2.5-0.4c-0.4-0.2-0.8-0.4-1-0.6c-0.2-0.1-0.5-0.2-0.8-0.2s-0.6,0-0.8,0c-1.1-1-1.8-1.4-2.2-1.1
		c-0.4-0.2-0.7-0.6-1-1.1h-0.6c-1.1-1.2-2.1-2-3.2-2.2c-0.9-1-1.7-1.6-2.6-1.9c-0.4-1.2-1.3-2.6-2.6-4.1s-2-2.5-2.2-3
		c0-0.5-0.3-1.2-0.9-2.2c0-0.2,0-0.4,0.2-0.6c0.1-0.1,0.2-0.3,0.2-0.6c-0.2-0.2-0.5-0.4-1-0.6c-0.4-0.1-0.7-0.3-0.8-0.6
		c-0.1-0.2,0.1-0.6,0.5-1.1c0-0.5-0.2-1.1-0.6-1.9c-0.4-0.7-0.6-1.2-0.6-1.5c-0.4-1.5-0.8-2.4-1-2.6c0-1-0.1-1.7-0.3-2.2
		c0-0.2,0.1-0.4,0.3-0.6c0.2-0.1,0.2-0.3,0-0.6c0-0.2-0.2-0.5-0.6-0.7c-0.2,0-0.3-0.1-0.3-0.4c-0.2-0.8,0-1.6,0.6-2.6
		c0.2-0.5,0.3-1.4,0.2-2.6c-0.1-1.2-0.2-2.1-0.2-2.6c0-0.3,0.2-0.6,0.5-1.1s0.5-0.8,0.6-0.9c0.1-0.1,0.1-0.4,0-0.7
		c-0.1-0.4-0.1-0.7,0.2-0.9c0-0.5,0.4-1.4,1.3-2.6l1.6-2.6c1.1-1.5,1.7-2.4,1.9-2.6c0-0.2,0-0.6,0-0.9c0-0.4,0.1-0.7,0.2-0.9
		c0.1-0.2,0.5-0.5,1.1-0.7c1.1-1.2,1.8-2.2,2.2-3c0.2,0,0.4-0.1,0.5-0.4c0.1-0.2,0.2-0.5,0.2-0.7c0.2-0.2,0.7-0.8,1.6-1.7
		c0.8-0.9,1.4-1.5,1.6-2c0.2,0,0.4-0.1,0.5-0.2s0.3-0.2,0.5-0.2c0.2-0.2,0.5-0.6,0.8-1.1s0.5-0.9,0.6-1.1s0.4-0.4,0.9-0.5
		s0.9-0.3,1.1-0.6c0.2-0.2,0.5-0.6,0.9-1.1s0.7-0.9,1-1.1c0.4,0,0.7,0,1,0l3.8-4.5c0.2,0,0.8-0.5,1.9-1.5h0.6
		c1.7-1.5,3.3-2.3,4.8-2.6C180.8,44.2,181.4,43.5,182,43.2z M180.4,45.5c0.4-1.2,1-2,1.6-2.2c0.8,0.7,1.5,1.1,1.9,1.1l1-0.7
		c1.5,0,3.5,0,6.1,0c2.5,0,4.6,0,6.1,0c1.1,0.7,1.7,1,1.9,0.7c0.2,0.3,0.3,0.9,0.3,1.9c0.2,0.5,0.6,0.9,1.1,1.3s0.9,0.8,1.1,1.3
		c0.2,0.7,0.4,1.1,0.6,1.1c0.4-0.5,0.7-0.6,1-0.4l0.3,2.6c0.2,0.3,0.6,0.6,1.3,1.1c0.2,2.2,0.6,3.2,1.3,3c0.2,0,0.4-0.1,0.5-0.4
		c0.1-0.2,0.3-0.5,0.5-0.7c0.2,0,0.4,0.2,0.6,0.6c0.2,0.4,0.4,0.6,0.6,0.6c0.2,0,0.6,0,1.3,0c1.3,0.2,2.1,0.1,2.6-0.4
		c0,1,0.3,1.5,1,1.5c0.2,0.3,0.4,0.3,0.6,0c0.2-0.2,0.4-0.4,0.6-0.4v1.1c1.9,1,3.2,2,3.8,3c0-0.2,0.3-0.2,1,0
		c2.8,3.2,4.3,5.2,4.8,5.9c0.2,0.3,0.7,0.6,1.6,1.1c0,0.3,0.3,0.8,0.8,1.7s1.1,1.4,1.8,1.7c1.1,1.7,1.6,3,1.6,3.7
		c0.2,0.3,0.4,0.6,0.6,1.1c0,0.5,0.1,0.9,0.2,1.1c0.1,0.2,0.3,0.5,0.5,0.7s0.4,0.5,0.6,0.7c0,0.2-0.1,0.9-0.3,1.9
		c0,0.5,0.1,1.4,0.3,2.6c0.2,1.2,0.3,2.1,0.3,2.6c0,0.2-0.1,0.9-0.3,2s-0.2,1.9,0,2.4c-0.4,0.5-0.9,1.5-1.3,3c-0.4,1.5-1,2.5-1.6,3
		c-0.2,0.7-0.7,1.7-1.4,2.8s-1.2,1.9-1.4,2.4H225c-1.1,1-2.7,2.5-4.8,4.5s-3.7,3.5-4.8,4.5c0.2,0.7,0.2,1.1,0,1.1s-0.6-0.3-1.3-0.8
		c-1.5,1-2.6,1.1-3.2,0.4c-1.7,1.5-2.7,2.6-2.9,3.3c-1.1-0.5-2.3-0.2-3.8,0.7c-0.6,0.5-1.1,0.9-1.3,1.1c-0.2,0-0.4,0-0.6,0
		c-0.2,0-0.3,0.1-0.3,0.4c-0.2,0-0.5,0.2-0.8,0.6c-0.3,0.4-0.5,0.5-0.6,0.5s-0.4,0-0.9-0.2c-0.5-0.1-0.9-0.1-1.1,0.2
		c-0.4,0.5-0.8,0.8-1,0.8c-0.2,0.2-0.8,0.5-1.8,0.7s-1.6,0.6-2.1,1.1c-1.5-0.2-2.6-0.2-3.2,0c-0.6,0.8-1.1,1.1-1.3,1.1
		c-0.2-0.5-0.6-0.7-1.3-0.7s-1.1,0.3-1.3,0.7c-3.2-0.7-5-0.7-5.4,0c-1.3-0.5-2-0.5-2.2,0c-0.4-0.2-1.2-0.3-2.2-0.2
		c-1.1,0.1-1.6-0.2-1.6-0.9c-0.2,0-0.7,0-1.4,0c-0.8,0-1.2-0.1-1.4-0.4c-0.8,0.5-1.7,0.4-2.5-0.4c-0.4-0.2-0.8-0.4-1-0.6
		c-0.2-0.1-0.5-0.2-0.8-0.2s-0.6,0-0.8,0c-1.1-1-1.8-1.4-2.2-1.1c-0.4-0.2-0.7-0.6-1-1.1h-0.6c-1.1-1.2-2.1-2-3.2-2.2
		c-0.9-1-1.7-1.6-2.6-1.9c-0.4-1.2-1.3-2.6-2.6-4.1s-2-2.5-2.2-3c0-0.5-0.3-1.2-0.9-2.2c0-0.2,0-0.4,0.2-0.6
		c0.1-0.1,0.2-0.3,0.2-0.6c-0.2-0.2-0.5-0.4-1-0.6c-0.4-0.1-0.7-0.3-0.8-0.6c-0.1-0.2,0.1-0.6,0.5-1.1c0-0.5-0.2-1.1-0.6-1.9
		c-0.4-0.7-0.6-1.2-0.6-1.5c-0.4-1.5-0.8-2.4-1-2.6c0-1-0.1-1.7-0.3-2.2c0-0.2,0.1-0.4,0.3-0.6c0.2-0.1,0.2-0.3,0-0.6
		c0-0.2-0.2-0.5-0.6-0.7c-0.2,0-0.3-0.1-0.3-0.4c-0.2-0.8,0-1.6,0.6-2.6c0.2-0.5,0.3-1.4,0.2-2.6c-0.1-1.2-0.2-2.1-0.2-2.6
		c0-0.3,0.2-0.6,0.5-1.1s0.5-0.8,0.6-0.9c0.1-0.1,0.1-0.4,0-0.7c-0.1-0.4-0.1-0.7,0.2-0.9c0-0.5,0.4-1.4,1.3-2.6l1.6-2.6
		c1.1-1.5,1.7-2.4,1.9-2.6c0-0.2,0-0.6,0-0.9c0-0.4,0.1-0.7,0.2-0.9c0.1-0.2,0.5-0.5,1.1-0.7c1.1-1.2,1.8-2.2,2.2-3
		c0.2,0,0.4-0.1,0.5-0.4c0.1-0.2,0.2-0.5,0.2-0.7c0.2-0.2,0.7-0.8,1.6-1.7c0.8-0.9,1.4-1.5,1.6-2c0.2,0,0.4-0.1,0.5-0.2
		s0.3-0.2,0.5-0.2c0.2-0.2,0.5-0.6,0.8-1.1s0.5-0.9,0.6-1.1s0.4-0.4,0.9-0.5s0.9-0.3,1.1-0.6c0.2-0.2,0.5-0.6,0.9-1.1s0.7-0.9,1-1.1
		c0.4,0,0.7,0,1,0c0.4-0.5,1.1-1.2,1.9-2.2c0.8-1,1.5-1.7,1.9-2.2c0.2,0,0.8-0.5,1.9-1.5h0.6C177.3,46.6,178.9,45.7,180.4,45.5z
		 M190,70.7c-0.6-0.5-1.3-0.4-1.9,0.2c-0.6,0.6-1.3,0.8-1.9,0.5c-1.1,1-1.7,1.5-1.9,1.5c-0.9,0.7-1.5,1.2-1.9,1.5l-0.3,0.4
		c-0.2,0-0.6,0.2-1.1,0.5c-0.5,0.4-0.9,0.7-1.1,0.9c-0.2,0.2-0.3,0.5-0.3,0.7c0,0.3-0.1,0.4-0.2,0.6c-0.1,0.1-0.3,0.2-0.6,0.4
		c-0.3,0.1-0.5,0.3-0.6,0.4c-0.1,0.1-0.4,0.6-0.8,1.3c-0.2,0.3-0.5,0.6-0.8,0.9c-0.3,0.4-0.6,0.7-0.8,0.9c-1.9,2-3.2,3.5-3.8,4.5V87
		c-0.2,0.5-0.5,0.9-0.9,1.1c0,0.7-0.2,1.6-0.6,2.4c-0.4,0.9-0.6,1.7-0.6,2.4c0.9,1.2,1.3,2.1,1.3,2.6c0.2,0.2,0.6,0.7,1.1,1.3
		s1,1.1,1.4,1.3c0.4-0.2,2-0.2,4.6,0s4-0.1,4-1.1c0.2,0,0.4,0.1,0.6,0.4c0.2,0.2,0.4,0.4,0.6,0.4c0-0.2,0.1-0.4,0.3-0.6
		c0.2-0.1,0.4-0.2,0.6-0.2c0.2,0.3,0.4,0.4,0.6,0.4c0.4-0.2,1.8-0.4,4.1-0.4c0.2-0.7,0.9-1.1,1.9-1.1c0.6,0,1.1-0.1,1.3-0.4
		c0.2,0,0.4-0.1,0.6-0.4c0.9-0.7,1.6-1,2.2-0.7c0-0.2,0.9-0.6,2.6-1.1l1-0.7c2.1-1.5,3.3-2.3,3.5-2.6c0.4,0,0.7,0,1,0
		c2.1-2.2,3.5-3.5,4.1-3.7c0-0.2,0.2-0.5,0.5-0.9s0.5-0.8,0.5-1.3s-0.5-0.9-1.6-1.1c-1.1-0.2-1.7-0.4-1.9-0.4c0,0.2-1,0.2-2.9,0
		c-0.2,0-0.5,0-0.8,0s-0.6,0-0.8,0s-0.6-0.1-1.1-0.4c-0.5-0.2-1-0.2-1.4,0c-0.2-0.5-0.7-1-1.4-1.5s-1.2-1-1.4-1.5
		c-0.2-0.2-0.3-0.6-0.3-1.1s-0.1-0.9-0.3-1.1c-0.9,0.3-1.3,0.3-1.3,0c-0.2,0-0.3-0.6-0.3-1.9c0-0.2-0.2-0.4-0.6-0.4
		c-0.4,0-0.8-0.1-1-0.4c0.6-1,0.8-2.4,0.6-4.1C191.3,70.4,190.8,70.5,190,70.7z M191.6,70.4c-0.2,0-0.8,0.1-1.6,0.4
		c-0.6-0.5-1.3-0.4-1.9,0.2c-0.6,0.6-1.3,0.8-1.9,0.5c-1.1,1-1.7,1.5-1.9,1.5c-0.9,0.7-1.5,1.2-1.9,1.5l-0.3,0.4
		c-0.2,0-0.6,0.2-1.1,0.5c-0.5,0.4-0.9,0.7-1.1,0.9c-0.2,0.2-0.3,0.5-0.3,0.7c0,0.3-0.1,0.4-0.2,0.6c-0.1,0.1-0.3,0.2-0.6,0.4
		c-0.3,0.1-0.5,0.3-0.6,0.4c-0.1,0.1-0.4,0.6-0.8,1.3c-0.2,0.3-0.5,0.6-0.8,0.9c-0.3,0.4-0.6,0.7-0.8,0.9c-1.9,2-3.2,3.5-3.8,4.5
		v1.1c-0.2,0.5-0.5,0.9-0.9,1.1c0,0.7-0.2,1.6-0.6,2.4c-0.4,0.9-0.6,1.7-0.6,2.4c0.9,1.2,1.3,2.1,1.3,2.6c0.2,0,0.6,0.4,1.1,1.1
		c0.5,0.7,1,1.2,1.4,1.5c0.4-0.2,2-0.2,4.6,0s4-0.1,4-1.1c0.2,0,0.4,0.1,0.6,0.4c0.2,0.2,0.4,0.4,0.6,0.4c0-0.2,0.1-0.4,0.3-0.6
		c0.2-0.1,0.4-0.2,0.6-0.2c0.2,0.3,0.4,0.4,0.6,0.4c0.4-0.2,1.8-0.4,4.1-0.4c0.2-0.7,0.9-1.1,1.9-1.1c0.6,0,1.1-0.1,1.3-0.4
		c0.2,0,0.4-0.1,0.6-0.4c0.9-0.7,1.6-1,2.2-0.7c0-0.2,0.9-0.6,2.6-1.1l1-0.7c2.1-1.5,3.3-2.3,3.5-2.6c0.4,0,0.7,0,1,0
		c2.1-2.2,3.5-3.5,4.1-3.7c0-0.2,0.2-0.5,0.5-0.9s0.5-0.8,0.5-1.3s-0.5-0.9-1.6-1.1c-1.1-0.2-1.7-0.4-1.9-0.4c0,0.2-1,0.2-2.9,0
		c-0.2,0-0.5,0-0.8,0s-0.6,0-0.8,0s-0.6-0.1-1.1-0.4c-0.5-0.2-1-0.2-1.4,0c-0.2-0.5-0.7-1-1.4-1.5s-1.2-1-1.4-1.5
		c-0.2-0.2-0.3-0.6-0.3-1.1s-0.1-0.9-0.3-1.1c-0.9,0.3-1.3,0.3-1.3,0c-0.2,0-0.3-0.6-0.3-1.9c0-0.2-0.2-0.4-0.6-0.4
		c-0.4,0-0.8-0.1-1-0.4C191.6,73.5,191.8,72.1,191.6,70.4z"/>
	<path fill="#2B5799" d="M255.5-6.4c1.4-0.1,2.2-0.1,2.4,0.2c0,1,0.3,1.5,1,1.5c1.1-0.2,1.7-0.4,1.9-0.4c0,1.7,0.6,2.7,1.9,3
		c0.2,0,0.3-0.1,0.3-0.2c0-0.1,0.1-0.2,0.3-0.2c0.4,0.5,0.7,0.7,1,0.7c-0.2,0.5-0.2,1.1,0,1.9c0.2,0.7,0.3,1.2,0.3,1.5
		c0.2,0.3,0.4,0.4,0.6,0.4s0.3,0.1,0.3,0.4c0.2,0,0.5,0.5,0.8,1.5s0.7,1.6,1.1,1.8c0,0.3,0,0.5,0,0.8c0.2,0,0.4,0,0.6,0
		c0.4,0,0.7,0,0.9,0c0.2,1,0,1.7-0.6,2.2c-0.2,0.7,0.1,1.7,1,3c0,0.7,0,2.2,0,4.5c0,2.2,0.1,3.6,0.3,4.1h-1c-0.2,0-0.3,0.2-0.3,0.7
		s-0.1,0.7-0.3,0.7c-0.2,0-0.4-0.1-0.6-0.2s-0.4-0.2-0.6-0.2c-0.6,0-0.7,0.6-0.3,1.9c0.4,1.2,0.5,2.1,0.3,2.6
		c-0.2,0-0.7,0.1-1.6,0.2s-1.4,0.2-1.6,0.2s-0.5-0.2-1-0.7c-0.6-0.7-1.2-0.7-1.6,0c0,0.2,0.1,0.5,0.3,0.7c0.2,0.3,0.3,0.5,0.3,0.7
		c-0.6-0.2-1-0.5-1-0.7c-1.5,0-2.3-0.4-2.5-1.1c-0.2,0-0.4,0.1-0.5,0.2s-0.3,0.2-0.5,0.2c-0.2-0.2-1.2-1.2-2.9-3l-1-0.4
		c0-0.2-0.5-0.7-1.6-1.5c0,0.8-0.2,1.1-0.6,1.1c-0.2,0-0.3-0.2-0.3-0.6s0-0.7,0-0.9c-0.2,0-0.5,0.1-0.8,0.2s-0.5,0.1-0.6,0
		s-0.2-0.4-0.2-0.9s0-0.9,0-1.1c-0.2-0.2-0.8-1.1-1.6-2.6c-0.2,0-0.4,0-0.5,0s-0.3,0-0.5,0c0.4-0.5,0.4-1.2,0-2.2s-0.6-1.9-0.6-2.6
		l-1-0.4c0-0.2-0.1-0.7-0.2-1.3c-0.1-0.6-0.1-0.9,0.2-0.9c0-0.2-0.4-1.8-1.3-4.8l1-0.4l0.3-0.7c0.2-1,0.5-1.5,1-1.5
		c0-1.7,0-2.8,0-3.3c0.2,0,0.5,0,1,0c0.4,0,0.7,0,0.9,0c0.2-0.2,0.5-0.6,0.8-1.1s0.6-1,0.8-1.5c0.2,0,0.8,0.1,1.6,0.2
		c0.8,0.1,1.4,0.1,1.6-0.2c0-0.2,0-0.6,0-1.1C253.2-6.2,254.1-6.3,255.5-6.4z M257.9-6.2c0,1,0.3,1.5,1,1.5c1.1-0.2,1.7-0.4,1.9-0.4
		c0,1.7,0.6,2.7,1.9,3c0.2,0,0.3-0.1,0.3-0.2c0-0.1,0.1-0.2,0.3-0.2c0.4,0.5,0.7,0.7,1,0.7c-0.2,0.5-0.2,1.1,0,1.9
		c0.2,0.7,0.3,1.2,0.3,1.5c0.2,0.3,0.4,0.4,0.6,0.4s0.3,0.1,0.3,0.4c0.2,0,0.5,0.5,0.8,1.5s0.7,1.6,1.1,1.8c0,0.3,0,0.5,0,0.8
		c0.2,0,0.4,0,0.6,0c0.4,0,0.7,0,0.9,0c0.2,1,0,1.7-0.6,2.2c-0.2,0.7,0.1,1.7,1,3c0,0.7,0,2.2,0,4.5c0,2.2,0.1,3.6,0.3,4.1h-1
		c-0.2,0-0.3,0.2-0.3,0.7s-0.1,0.7-0.3,0.7c-0.2,0-0.4-0.1-0.6-0.2s-0.4-0.2-0.6-0.2c-0.6,0-0.7,0.6-0.3,1.9
		c0.4,1.2,0.5,2.1,0.3,2.6c-0.2,0-0.7,0.1-1.6,0.2s-1.4,0.2-1.6,0.2s-0.5-0.2-1-0.7c-0.6-0.7-1.2-0.7-1.6,0c0,0.2,0.1,0.5,0.3,0.7
		c0.2,0.3,0.3,0.5,0.3,0.7c-0.6-0.2-1-0.5-1-0.7c-1.5,0-2.3-0.4-2.5-1.1c-0.2,0-0.4,0.1-0.5,0.2s-0.3,0.2-0.5,0.2
		c-0.2-0.2-1.2-1.2-2.9-3l-1-0.4c0-0.2-0.5-0.7-1.6-1.5c0,0.8-0.2,1.1-0.6,1.1c-0.2,0-0.3-0.2-0.3-0.6s0-0.7,0-0.9
		c-0.2,0-0.5,0.1-0.8,0.2s-0.5,0.1-0.6,0s-0.2-0.4-0.2-0.9s0-0.9,0-1.1c-0.2-0.2-0.8-1.1-1.6-2.6c-0.2,0-0.4,0-0.5,0s-0.3,0-0.5,0
		c0.4-0.5,0.4-1.2,0-2.2s-0.6-1.9-0.6-2.6l-1-0.4c0-0.2-0.1-0.7-0.2-1.3c-0.1-0.6-0.1-0.9,0.2-0.9c0-0.2-0.4-1.8-1.3-4.8l1-0.4
		l0.3-0.7c0.2-1,0.5-1.5,1-1.5c0-1.7,0-2.8,0-3.3c0.2,0,0.5,0,1,0c0.4,0,0.7,0,0.9,0c0.2-0.2,0.5-0.6,0.8-1.1s0.6-1,0.8-1.5
		c0.2,0,0.8,0.1,1.6,0.2c0.8,0.1,1.4,0.1,1.6-0.2c0-0.2,0-0.6,0-1.1c0.4,0,1.3-0.1,2.7-0.2C256.9-6.5,257.7-6.5,257.9-6.2z M256,44
		c0.4-0.2,1.3-0.2,2.5,0c0.2,0,0.3,0.1,0.2,0.4c-0.1,0.3-0.1,0.5,0.2,0.7c1.1,0.3,1.6,0.5,1.6,0.8c0.4-0.5,0.9-0.8,1.4-0.8
		s0.9,0.3,1.1,0.8c0,0.2-0.1,0.5-0.3,0.7c1.1,2,1.7,3,1.9,3c-0.2,0.8,0.1,1.3,1,1.5c0.2,0,0.4,0,0.6,0c0.2,1.5,0.6,2.5,1.3,3v1.1
		c0,0.3,0.2,0.4,0.5,0.6c0.3,0.1,0.5,0.3,0.5,0.6c0.2,0.2,0.2,0.9,0,1.9c0,1,0.3,1.6,1,1.9c0.4,0.2,0.5,1.1,0.3,2.6
		c-0.2,1.5-0.2,2.6,0,3.3c0.4,0.5,0.7,0.9,0.9,1.1c-0.2,0.5-0.2,1,0,1.5l1,0.4c0.2,0.8,0.3,1.6,0.2,2.6c-0.1,1-0.2,1.6-0.2,1.9
		c0,0.3,0.2,0.6,0.5,1.1s0.4,1,0.2,1.5c0.2,0.7,0.7,1,1.6,0.7v3.4l-0.6,0.7c0,0.7,0.3,1.5,1,2.2c0.4-0.2,0.7-0.4,0.9-0.4
		c0,0.5-0.1,0.9-0.3,1.1c-0.2,0-0.3,0.1-0.3,0.4c-0.2,2,0.1,3.1,1,3.3c0,0.5,0,1.4,0,2.6s0.1,2,0.3,2.2c0,0.2,0.2,0.4,0.6,0.4
		c0.4,1.2,0.3,2.5-0.3,3.7c0.2,0.7,0.7,1.2,1.6,1.5c0,0.7,0,1.2,0,1.5c-0.2,0-0.4,0-0.5,0s-0.3,0-0.5,0c0,0.5,0.3,0.9,1,1.1
		c0.2,1,0,1.9-0.6,2.6c0,0.5,0.2,1.3,0.5,2.2c0.3,1,0.4,1.7,0.2,2.2c-1.1,0.3-1.5,1.5-1.3,3.7c0.2,0.5,0.3,0.9,0.3,1.1
		c-0.4,0-0.8,0.1-1.1,0.4c-0.3,0.3-0.6,0.3-0.8,0c-0.6,1.7-1,2.7-1,3c-0.2,0-0.4-0.1-0.5-0.2s-0.3-0.2-0.5-0.2
		c-0.2,0.3-0.3,0.8-0.2,1.7c0.1,0.9,0.1,1.4-0.2,1.7c-1.5,0-2.3-0.3-2.6-0.8c0-0.2,0.1-0.5,0.2-0.7s0.2-0.5,0.2-0.7
		c-0.2-0.2-0.4-0.5-0.6-0.7c0,0.2-0.1,0.6-0.3,1.1s-0.4,0.7-0.6,0.7c-0.2-0.2-0.6-0.2-1.3,0c-0.2,0-0.4,0-0.5,0s-0.3,0-0.6,0
		c-0.3,0-0.5,0-0.6,0s-0.4,0.3-0.9,0.9c-0.5,0.6-1,0.7-1.4,0.2c-0.2,0-0.3-0.1-0.3-0.4s0-0.5,0-0.7c-0.2,0-0.5,0.1-1,0.4
		c-0.4,0.3-0.8,0.3-1,0c0.2-0.7,0.3-1.2,0.3-1.5c-0.2,0-0.4,0.1-0.5,0.4c-0.1,0.2-0.3,0.2-0.5,0c-0.2,0-0.3-0.2-0.2-0.6
		c0.1-0.4,0.1-0.6,0-0.6s-0.5,0-1.1,0c0-0.7-0.3-1.4-1-1.9c0.2-1.7-0.5-3-2.2-3.7c0-0.2,0.1-0.6,0.2-1.1s0.2-0.9,0.2-1.1
		c0-0.2-0.2-0.5-0.5-0.7c-0.3-0.2-0.5-0.5-0.5-0.7c-0.2-0.8-0.4-1.5-0.6-2.2c0-0.2,0.1-0.6,0.3-0.9c0.2-0.4,0.3-0.7,0.3-0.9
		c0-0.7-0.3-2-1-3.7c-0.2,0-0.5,0-0.8,0s-0.6-0.1-0.8-0.4c0-0.7,0-1.7,0-3s0-2.3,0-3.3c0.4-0.2,0.6-0.9,0.5-2s-0.5-1.8-1.1-2
		c0-0.5,0-1.1,0-1.9c0-0.7,0-1.2,0-1.5c-0.6-0.5-1-0.9-1-1.1c-0.2-0.5-0.3-1.1-0.2-1.7c0.1-0.6,0.2-1.2,0.2-1.7
		c-0.2-0.2-0.5-0.4-1-0.4c0-0.2,0-0.7,0-1.5s-0.1-1.1-0.3-1.1s-0.4,0-0.6,0c-0.2,0-0.3-0.1-0.3-0.4c0-0.2,0-0.7,0-1.5
		s-0.1-1.2-0.3-1.5c-0.4,0-0.8,0-1,0c0.2-0.2,0.3-0.7,0.2-1.3s-0.2-1.2-0.2-1.7c0.4-0.5,0.6-0.9,0.6-1.1c0-0.3-0.2-0.5-0.5-0.8
		c-0.3-0.2-0.5-0.5-0.5-0.7c0-0.7,0-1.2,0-1.5s-0.2-0.7-0.5-1.5s-0.6-1.4-0.8-1.9c0-0.2,0.1-0.9,0.2-1.9s0.1-1.7-0.2-2.2
		c0-0.2-0.1-0.4-0.3-0.5s-0.3-0.3-0.3-0.6s0.1-0.4,0.2-0.6c0.1-0.1,0.2-0.3,0.2-0.6c-0.4-0.2-0.6-0.7-0.6-1.5s0.3-1.1,1-1.1
		c0-0.2,0.2-0.7,0.6-1.5c0.4-0.8,0.6-1.6,0.6-2.6l0.6-0.8c1.1-0.7,1.5-1.6,1.3-2.6c0.4,0,0.9,0.3,1.6,0.8c0.4-0.3,0.6-0.9,0.6-1.9
		c0.4-0.2,0.9-0.1,1.6,0.4c0.2-0.7,0.4-1.1,0.6-1.1h1.3c0.2,0,0.4-0.2,0.5-0.5C255.6,44.2,255.8,44,256,44z M258.5,44
		c0.2,0,0.3,0.1,0.2,0.4c-0.1,0.3-0.1,0.5,0.2,0.7c1.1,0.3,1.6,0.5,1.6,0.8c0.4-0.5,0.9-0.8,1.4-0.8s0.9,0.3,1.1,0.8
		c0,0.2-0.1,0.5-0.3,0.7c1.1,2,1.7,3,1.9,3c-0.2,0.8,0.1,1.3,1,1.5c0.2,0,0.4,0,0.6,0c0.2,1.5,0.6,2.5,1.3,3v1.1
		c0,0.3,0.2,0.4,0.5,0.6c0.3,0.1,0.5,0.3,0.5,0.6c0.2,0.2,0.2,0.9,0,1.9c0,1,0.3,1.6,1,1.9c0.4,0.2,0.5,1.1,0.3,2.6
		c-0.2,1.5-0.2,2.6,0,3.3c0.4,0.5,0.7,0.9,0.9,1.1c-0.2,0.5-0.2,1,0,1.5l1,0.4c0.2,0.8,0.3,1.6,0.2,2.6c-0.1,1-0.2,1.6-0.2,1.9
		c0,0.3,0.2,0.6,0.5,1.1s0.4,1,0.2,1.5c0.2,0.7,0.7,1,1.6,0.7v3.4l-0.6,0.7c0,0.7,0.3,1.5,1,2.2c0.4-0.2,0.7-0.4,0.9-0.4
		c0,0.5-0.1,0.9-0.3,1.1c-0.2,0-0.3,0.1-0.3,0.4c-0.2,2,0.1,3.1,1,3.3c0,0.5,0,1.4,0,2.6s0.1,2,0.3,2.2c0,0.2,0.2,0.4,0.6,0.4
		c0.4,1.2,0.3,2.5-0.3,3.7c0.2,0.7,0.7,1.2,1.6,1.5c0,0.7,0,1.2,0,1.5c-0.2,0-0.4,0-0.5,0s-0.3,0-0.5,0c0,0.5,0.3,0.9,1,1.1
		c0.2,1,0,1.9-0.6,2.6c0,0.5,0.2,1.3,0.5,2.2c0.3,1,0.4,1.7,0.2,2.2c-1.1,0.3-1.5,1.5-1.3,3.7c0.2,0.5,0.3,0.9,0.3,1.1
		c-0.4,0-0.8,0.1-1.1,0.4c-0.3,0.3-0.6,0.3-0.8,0c-0.6,1.7-1,2.7-1,3c-0.2,0-0.4-0.1-0.5-0.2s-0.3-0.2-0.5-0.2
		c-0.2,0.3-0.3,0.8-0.2,1.7c0.1,0.9,0.1,1.4-0.2,1.7c-1.5,0-2.3-0.3-2.6-0.8c0-0.2,0.1-0.5,0.2-0.7s0.2-0.5,0.2-0.7
		c-0.2-0.2-0.4-0.5-0.6-0.7c0,0.2-0.1,0.6-0.3,1.1s-0.4,0.7-0.6,0.7c-0.2-0.2-0.6-0.2-1.3,0c-0.2,0-0.4,0-0.5,0s-0.3,0-0.6,0
		c-0.3,0-0.5,0-0.6,0s-0.4,0.3-0.9,0.9c-0.5,0.6-1,0.7-1.4,0.2c-0.2,0-0.3-0.1-0.3-0.4s0-0.5,0-0.7c-0.2,0-0.5,0.1-1,0.4
		c-0.4,0.3-0.8,0.3-1,0c0.2-0.7,0.3-1.2,0.3-1.5c-0.2,0-0.4,0.1-0.5,0.4c-0.1,0.2-0.3,0.2-0.5,0c-0.2,0-0.3-0.2-0.2-0.6
		c0.1-0.4,0.1-0.6,0-0.6s-0.3,0-0.6,0c-0.3,0-0.6,0-0.8,0c0.2-0.7,0-1.4-0.6-1.9c0.2-1.7-0.5-3-2.2-3.7c0-0.2,0.1-0.6,0.2-1.1
		s0.2-0.9,0.2-1.1c0-0.2-0.2-0.5-0.5-0.7c-0.3-0.2-0.5-0.5-0.5-0.7c-0.2-0.8-0.4-1.5-0.6-2.2c0-0.2,0.1-0.6,0.3-0.9
		c0.2-0.4,0.3-0.7,0.3-0.9c0-0.7-0.3-2-1-3.7c-0.2,0-0.5,0-0.8,0s-0.6-0.1-0.8-0.4c0-0.7,0-1.7,0-3s0-2.3,0-3.3
		c0.4-0.2,0.6-0.9,0.5-2s-0.5-1.8-1.1-2c0-0.5,0-1.1,0-1.9c0-0.7,0-1.2,0-1.5c-0.6-0.5-1-0.9-1-1.1c-0.2-0.5-0.3-1.1-0.2-1.7
		c0.1-0.6,0.2-1.2,0.2-1.7c-0.2-0.2-0.5-0.4-1-0.4c0-0.2,0-0.7,0-1.5s-0.1-1.1-0.3-1.1s-0.4,0-0.6,0c-0.2,0-0.3-0.1-0.3-0.4
		c0-0.2,0-0.7,0-1.5s-0.1-1.2-0.3-1.5c-0.4,0-0.8,0-1,0c0.2-0.2,0.3-0.7,0.2-1.3s-0.2-1.2-0.2-1.7c0.4-0.5,0.6-0.9,0.6-1.1
		c0-0.3-0.2-0.5-0.5-0.8c-0.3-0.2-0.5-0.5-0.5-0.7c0-0.7,0-1.2,0-1.5s-0.2-0.7-0.5-1.5s-0.6-1.4-0.8-1.9c0-0.2,0.1-0.9,0.2-1.9
		s0.1-1.7-0.2-2.2c0-0.2-0.1-0.4-0.3-0.5s-0.3-0.3-0.3-0.6s0.1-0.4,0.2-0.6c0.1-0.1,0.2-0.3,0.2-0.6c-0.4-0.2-0.6-0.7-0.6-1.5
		s0.3-1.1,1-1.1c0-0.2,0.2-0.7,0.6-1.5c0.4-0.8,0.6-1.6,0.6-2.6l0.6-0.8c1.1-0.7,1.5-1.6,1.3-2.6c0.4,0,0.9,0.3,1.6,0.8
		c0.4-0.3,0.6-0.9,0.6-1.9c0.4-0.2,0.9-0.1,1.6,0.4c0.2-0.7,0.4-1.1,0.6-1.1h1.3c0.2,0,0.4-0.2,0.5-0.5c0.1-0.4,0.3-0.6,0.5-0.6
		C256.4,43.7,257.3,43.7,258.5,44z M253.1,94.9c-0.2,0.7-0.1,1.1,0.3,1.1s0.5-0.4,0.3-1.1H253.1z M253.4,96c0.4,0,0.5-0.4,0.3-1.1
		h-0.6C252.9,95.7,253,96,253.4,96z"/>
	<path fill="#2B5799" d="M337,41.7c0.2,0,0.7,0.1,1.4,0.4c0.7,0.2,1.3,0.4,1.8,0.4c0.2,0,0.3,0.1,0.2,0.4c-0.1,0.3-0.2,0.5-0.2,0.7
		c1.7,2,3.2,2.9,4.5,2.6c0,0.7,0.3,1.5,1,2.2c0.4,0.5,0.7,0.9,0.9,1.1c0.4-0.2,0.8-0.2,1,0c0,0.3,0,0.4,0,0.6c0,0.1,0,0.3,0,0.6
		c0.6,1,1.7,2.2,3.2,3.7s2.4,2.7,2.9,3.7c0.2,0,0.3,0.2,0.3,0.7l3.8,4.8c0,0.7,0.1,1.1,0.3,1.1s0.4-0.1,0.6-0.2
		c0.2-0.1,0.4-0.1,0.6,0.2c0,0.7,0.3,1.6,0.8,2.6s0.9,1.7,1.1,2.2l1.3,0.7c0.2,0,0.3,0.2,0.2,0.6c-0.1,0.4-0.2,0.7-0.2,0.9
		c0.2,0.2,0.6,0.6,1.1,1.1s0.9,0.7,1.1,0.7c0,0.2,0.1,0.5,0.3,0.7c0.2,0.3,0.3,0.5,0.3,0.7c0.2,0.3,0.5,0.6,0.8,1.1s0.6,0.9,0.8,1.1
		c0.2,0,0.4,0.1,0.5,0.4c0.1,0.3,0.2,0.5,0.2,0.7c1.1,1.5,1.8,2.7,2.2,3.7c0.2,0.3,0.5,0.6,0.9,1.1s0.7,0.9,1,1.1
		c0.4,1,1.3,2.1,2.7,3.3c1.4,1.2,2.3,2.2,2.7,3l3.2,2.2h1.3c0.8,1.2,1.9,1.7,3.2,1.5c0.2-0.2,0.5-0.5,0.8-0.7s0.6-0.4,0.8-0.4
		c0.4-0.5,1-0.7,1.6-0.7c1.3,0,2,0,2.2,0c1.1,1,2.2,0.9,3.5-0.4c0,0.2-0.1,0.5-0.3,0.7c-0.2,0.2-0.3,0.5-0.3,0.7
		c0.2,0.2,0.4,0.5,0.6,0.7c0.8-0.2,1.6,0.2,2.2,1.3s1.3,1.6,1.9,1.3c0.2,0,0.3,0.3,0.3,0.7c1.3,1.2,1.7,2.6,1.3,4.1
		c0.2,0.5,0.4,0.7,0.6,0.7c-0.4,0.5-0.7,1.6-0.9,3.3c-0.2,1.7-0.3,2.7-0.3,3c-0.6,0.2-1.3,0.8-1.9,1.7s-1.2,1.4-1.6,1.7
		c0,1.2,0,2,0,2.2c-0.4,0-0.9-0.1-1.3-0.4c-0.2,0.2-0.6,0.5-1.3,0.7c-0.6,0.2-1,0.5-1,0.7c-0.2,0.2-0.3,0.6-0.3,1.1
		s-0.1,0.9-0.3,1.1c-0.4,0-0.8-0.1-1.1-0.4c-0.3-0.2-0.6-0.4-0.8-0.4c-0.6,0.3-1,0.4-1.1,0.4s-0.3,0-0.5,0s-0.4,0-0.6,0
		s-0.4,0.2-0.6,0.6c-0.2,0.4-0.4,0.6-0.6,0.6c-0.8-0.3-1.9-0.2-3,0.2c-1.2,0.4-2.1,0.4-2.7,0.2c-0.2,0-0.3-0.2-0.3-0.6
		c0-0.4-0.1-0.6-0.3-0.6c-0.2,0-0.8,0-1.6,0c-0.9,0-1.5,0-1.9,0c0-0.7-0.3-1.2-0.9-1.5c-0.6-0.2-1.2-0.2-1.6,0
		c-0.2-0.2-0.4-0.4-0.6-0.4c0-0.3-0.1-0.8-0.3-1.5c-0.2,0-0.6,0.1-1.1,0.2c-0.5,0.1-0.9,0.1-1.1-0.2c0-0.5-0.4-1-1.3-1.5
		c0-0.2-0.1-0.5-0.3-0.7c-0.2-0.2-0.4-0.4-0.6-0.4c-0.6,0.3-1.1,0.4-1.3,0.4c0-0.2,0-0.6,0-1.1l-3.8-4.1h-0.6
		c-0.4-0.2-0.9-0.7-1.3-1.5c-0.4-0.7-0.7-1.2-0.9-1.5c-0.4-0.2-0.8-0.4-1-0.4c-0.2-0.2-0.5-0.7-0.8-1.3s-0.6-0.9-0.8-0.9
		c-1.3-1-1.9-1.9-1.9-2.6c-0.6,0-1.2-0.4-1.8-1.1c-0.5-0.7-0.9-1.1-1.1-1.1c-0.2-1.7-1.3-3.6-3.2-5.6c-0.2-0.7-1.2-2.2-2.9-4.5
		c-0.2-0.5-0.8-1.2-1.9-2.2c-0.2-1-0.9-2.1-1.9-3.4c-0.6-0.7-1.1-1.2-1.3-1.5c0-1-0.5-2-1.6-3.2c-1.1-1.1-1.8-1.2-2.2-0.2
		c0,0.2-0.1,0.4-0.2,0.6s-0.2,0.2-0.3,0.4c-0.1,0.1-0.2,0.3-0.2,0.6c-0.2,0.3-0.3,0.6-0.3,0.9c0,0.4-0.1,0.7-0.3,0.9l-0.3,0.4
		c-0.6,1.2-1.1,1.9-1.3,1.9c0,0.2,0.1,0.5,0.2,0.7s0.2,0.5,0.2,0.7c-0.9,1.2-1.3,2.5-1.3,3.7c-0.4,0.5-0.9,1.5-1.6,3
		c-0.6,1.5-1.1,2.4-1.3,2.6c0,0.3,0,0.6,0,1.1s0,0.9,0,1.1c0,0.2-0.2,0.6-0.5,1.1s-0.5,0.9-0.5,1.1c0,0.3-0.1,0.6-0.2,1.1
		s-0.3,0.9-0.5,1.1c0,0.2-0.1,0.4-0.3,0.5c-0.2,0.1-0.3,0.3-0.3,0.6c0,3-0.2,4.6-0.6,4.8c0,0.2,0.2,0.6,0.6,1.1
		c-1.1,2.5-1.7,4.6-1.9,6.3c-0.4,0.5-1.1,1.1-1.9,1.9c-0.8,0.7-1.5,1.4-1.9,1.9c-1.5-0.2-2.5,0.5-2.9,2.2c-0.2,0-0.4-0.1-0.5-0.4
		c-0.1-0.2-0.2-0.4-0.3-0.4s-0.2,0.1-0.3,0.4c-0.1,0.2-0.3,0.4-0.5,0.4c-0.4,0-1-0.6-1.6-1.7c-0.6-1.1-1.2-1.7-1.6-1.7
		s-0.9,0.3-1.4,0.8s-1,0.7-1.4,0.7l-1.6-2.2c-0.2-1-0.8-1.7-1.6-2.2c-0.2,0-0.4,0.1-0.5,0.2c-0.1,0.1-0.3,0.2-0.5,0.2
		c-0.2-0.5-0.6-1.2-1.3-2c-0.6-0.9-1-1.8-1-2.8c0-0.2-0.4-0.6-1.3-1.1v-1.1c0-0.2-0.2-0.6-0.6-1.1l-0.3-0.4c0-0.5-0.2-1-0.5-1.7
		c-0.3-0.6-0.5-1-0.5-1.1s0-0.4,0-0.9s-0.1-0.9-0.2-1.1c-0.1-0.3-0.3-0.4-0.5-0.6c-0.2-0.1-0.4-0.3-0.6-0.6c0.4-1.2,0.1-2.5-0.9-3.7
		v-3c-0.4-0.5-0.6-1.3-0.6-2.6c-0.2,0-0.3,0-0.3-0.2c0-0.1,0-0.3,0-0.6c0-0.2,0-0.6,0-0.9c0-0.4,0-0.7,0-0.9s-0.1-0.5-0.3-0.7
		c-0.2-0.2-0.3-0.5-0.3-0.7s0-0.6,0-0.9c0-0.4-0.1-0.6-0.3-0.6c0-0.2-0.1-0.4-0.2-0.6c-0.1-0.1-0.2-0.3-0.2-0.6
		c-0.2-1.2-0.5-2-0.9-2.2L298,78c0-0.2-0.2-0.6-0.5-0.9c-0.3-0.4-0.5-0.7-0.5-0.9s0-0.7,0-1.5c0-0.5-0.3-1-1-1.5v-0.7
		c-0.2-0.2-0.6-1.1-1.3-2.6c0-0.2-0.1-0.5-0.3-0.7c-0.2-0.2-0.4-0.5-0.5-0.7s-0.1-0.6,0-0.9c0.1-0.4,0.2-0.7,0.2-0.9
		c-0.2-0.2-0.6-0.7-1.1-1.3s-0.9-1-1.1-1.3c0-0.2,0-0.5,0-0.7s-0.2-0.5-0.5-0.7s-0.5-0.5-0.5-0.7c0-0.3,0.2-0.8,0.6-1.5
		c0-0.5,0-0.9,0-1.1c0-0.3,0.2-0.7,0.6-1.3c0.4-0.6,0.7-1,0.8-1.1c0.1-0.1,0.2-0.4,0.2-0.9s0-0.9,0-1.1c0.2-0.5,0.7-1,1.4-1.5
		c0.8-0.5,1.2-1,1.4-1.5c1.9-0.2,3-0.5,3.2-0.7c0-0.5,0-0.9,0-1.1c0.2-0.2,0.7-0.4,1.6-0.6c0.8-0.1,1.4-0.3,1.6-0.6
		c0.2,0,0.4,0.1,0.5,0.4s0.2,0.4,0.3,0.4c0.1,0,0.4-0.1,0.8-0.2s0.6-0.1,0.6,0.2c0.2,0,0.3,0.1,0.3,0.4s0.1,0.5,0.3,0.7
		c0.6-0.2,1.1-0.2,1.3,0c1.5,0.3,2.4,1.1,2.9,2.6c0.6,0.5,1.4,1.4,2.2,2.6c0.6-0.2,1-0.2,1,0c0,0.7,0.5,1.6,1.6,2.6
		c0.4,0.3,0.7,0.6,0.9,1.1c0,0.3,0.2,0.9,0.6,1.9c0,1,0.2,1.6,0.6,1.7s0.7-0.2,0.9-0.9c0.2,0,0.3-0.2,0.3-0.7c0.6-1,1-1.6,1-1.9
		c0.8-1.2,1.3-2.1,1.3-2.6c1.7-2.2,2.7-4.1,2.9-5.6l0.6-0.4c0-0.5,0.4-1.2,1.3-2.2c0.2-1,0.9-2.1,2.2-3.3c0-0.2,0-0.6,0-1.1
		c0.2,0,0.4,0.1,0.6,0.2s0.4,0.2,0.6,0.2s0.5-0.2,1-0.7c0.2,0,0.3-0.1,0.3-0.4c1.3,0,2.2-1.1,2.9-3.3c0.2,0,0.4,0.1,0.5,0.2
		s0.3,0.2,0.5,0.2c0.2-0.5,0.8-0.6,1.8-0.2C335.9,41.6,336.6,41.7,337,41.7z M340.2,42.5c0.2,0,0.3,0.1,0.2,0.4
		c-0.1,0.3-0.2,0.5-0.2,0.7c1.7,2,3.2,2.9,4.5,2.6c0,0.7,0.3,1.5,1,2.2c0.4,0.5,0.7,0.9,0.9,1.1c0.4-0.2,0.8-0.2,1,0
		c0,0.3,0,0.4,0,0.6c0,0.1,0,0.3,0,0.6c0.6,1,1.7,2.2,3.2,3.7s2.4,2.7,2.9,3.7c0.2,0,0.3,0.2,0.3,0.7l3.8,4.8c0,0.7,0.1,1.1,0.3,1.1
		s0.4-0.1,0.6-0.2c0.2-0.1,0.4-0.1,0.6,0.2c0,0.7,0.3,1.6,0.8,2.6s0.9,1.7,1.1,2.2l1.3,0.7c0.2,0,0.3,0.2,0.2,0.6
		c-0.1,0.4-0.2,0.7-0.2,0.9c0.2,0.2,0.6,0.6,1.1,1.1s0.9,0.7,1.1,0.7c0,0.2,0.1,0.5,0.3,0.7c0.2,0.3,0.3,0.5,0.3,0.7
		c0.2,0.3,0.5,0.6,0.8,1.1s0.6,0.9,0.8,1.1c0.2,0,0.4,0.1,0.5,0.4c0.1,0.3,0.2,0.5,0.2,0.7c1.1,1.5,1.8,2.7,2.2,3.7
		c0.2,0.3,0.5,0.6,0.9,1.1s0.7,0.9,1,1.1c0.4,1,1.3,2.1,2.7,3.3c1.4,1.2,2.3,2.2,2.7,3l3.2,2.2h1.3c0.8,1.2,1.9,1.7,3.2,1.5
		c0.2-0.2,0.5-0.5,0.8-0.7s0.6-0.4,0.8-0.4c0.4-0.5,1-0.7,1.6-0.7c1.3,0,2,0,2.2,0c1.1,1,2.2,0.9,3.5-0.4c0,0.2-0.1,0.5-0.3,0.7
		c-0.2,0.2-0.3,0.5-0.3,0.7c0.2,0.2,0.4,0.5,0.6,0.7c0.8-0.2,1.6,0.2,2.2,1.3s1.3,1.6,1.9,1.3c0.2,0,0.3,0.3,0.3,0.7
		c1.3,1,1.7,2.4,1.3,4.1c0.2,0.5,0.4,0.7,0.6,0.7c-0.4,0.5-0.7,1.6-0.9,3.3c-0.2,1.7-0.3,2.7-0.3,3c-0.6,0.2-1.3,0.8-1.9,1.7
		s-1.2,1.4-1.6,1.7c0,1.2,0,2,0,2.2c-0.4,0-0.9-0.1-1.3-0.4c-0.2,0.2-0.6,0.5-1.3,0.7c-0.6,0.2-1,0.5-1,0.7
		c-0.2,0.2-0.3,0.6-0.3,1.1s-0.1,0.9-0.3,1.1c-0.4,0-0.8-0.1-1.1-0.4c-0.3-0.2-0.6-0.4-0.8-0.4c-0.6,0.3-1,0.4-1.1,0.4s-0.3,0-0.5,0
		s-0.4,0-0.6,0s-0.4,0.2-0.6,0.6c-0.2,0.4-0.4,0.6-0.6,0.6c-0.8-0.3-1.9-0.2-3,0.2c-1.2,0.4-2.1,0.4-2.7,0.2c-0.2,0-0.3-0.2-0.3-0.6
		c0-0.4-0.1-0.6-0.3-0.6c-0.2,0-0.8,0-1.6,0c-0.9,0-1.5,0-1.9,0c0-0.7-0.3-1.2-0.9-1.5c-0.6-0.2-1.2-0.2-1.6,0
		c-0.2-0.2-0.4-0.4-0.6-0.4c0-0.3-0.1-0.8-0.3-1.5c-0.2,0-0.6,0.1-1.1,0.2c-0.5,0.1-0.9,0.1-1.1-0.2c0-0.5-0.4-1-1.3-1.5
		c0-0.2-0.1-0.5-0.3-0.7c-0.2-0.2-0.4-0.4-0.6-0.4c-0.6,0.3-1.1,0.4-1.3,0.4c0-0.2,0-0.6,0-1.1l-3.8-4.1h-0.6
		c-0.4-0.2-0.9-0.7-1.3-1.5c-0.4-0.7-0.7-1.2-0.9-1.5c-0.4-0.2-0.8-0.4-1-0.4c-0.2-0.2-0.5-0.7-0.8-1.3s-0.6-0.9-0.8-0.9
		c-1.3-1-1.9-1.9-1.9-2.6c-0.6,0-1.2-0.4-1.8-1.1c-0.5-0.7-0.9-1.1-1.1-1.1c-0.2-1.7-1.3-3.6-3.2-5.6c-0.2-0.7-1.2-2.2-2.9-4.5
		c-0.2-0.5-0.8-1.2-1.9-2.2c-0.2-1-0.9-2.1-1.9-3.4c-0.6-0.7-1.1-1.2-1.3-1.5c0-1-0.5-2-1.6-3.2c-1.1-1.1-1.8-1.2-2.2-0.2
		c0,0.2-0.1,0.4-0.2,0.6s-0.2,0.2-0.3,0.4c-0.1,0.1-0.2,0.3-0.2,0.6c-0.2,0.3-0.3,0.6-0.3,0.9c0,0.4-0.1,0.7-0.3,0.9l-0.3,0.4
		c-0.6,1.2-1.1,1.9-1.3,1.9c0,0.2,0.1,0.5,0.2,0.7s0.2,0.5,0.2,0.7c-0.9,1.2-1.3,2.5-1.3,3.7c-0.4,0.5-0.9,1.5-1.6,3
		c-0.6,1.5-1.1,2.4-1.3,2.6c0,0.3,0,0.6,0,1.1s0,0.9,0,1.1c0,0.2-0.2,0.6-0.5,1.1s-0.5,0.9-0.5,1.1c0,0.3-0.1,0.6-0.2,1.1
		s-0.3,0.9-0.5,1.1c0,0.2-0.1,0.4-0.3,0.5c-0.2,0.1-0.3,0.3-0.3,0.6c0,3-0.2,4.6-0.6,4.8c0,0.2,0.2,0.6,0.6,1.1
		c-1.1,2.5-1.7,4.6-1.9,6.3c-0.4,0.5-1.1,1.1-1.9,1.9c-0.8,0.7-1.5,1.4-1.9,1.9c-1.5-0.2-2.5,0.5-2.9,2.2c-0.2,0-0.4-0.1-0.5-0.4
		c-0.1-0.2-0.2-0.4-0.3-0.4s-0.2,0.1-0.3,0.4c-0.1,0.2-0.3,0.4-0.5,0.4c-0.4,0-1-0.6-1.6-1.7c-0.6-1.1-1.2-1.7-1.6-1.7
		c-0.2,0-0.6,0.3-1.3,0.8c-0.6,0.5-1.2,0.6-1.6,0.4l-1.6-1.9c-0.2-1-0.8-1.7-1.6-2.2c-0.2,0-0.4,0.1-0.5,0.2
		c-0.1,0.1-0.3,0.2-0.5,0.2c-0.2-0.5-0.6-1.2-1.3-2c-0.6-0.9-1-1.8-1-2.8c0-0.2-0.4-0.6-1.3-1.1v-1.1c0-0.2-0.2-0.6-0.6-1.1
		l-0.3-0.4c0-0.5-0.2-1-0.5-1.7c-0.3-0.6-0.5-1-0.5-1.1s0-0.4,0-0.9s-0.1-0.9-0.2-1.1c-0.1-0.3-0.3-0.4-0.5-0.6
		c-0.2-0.1-0.4-0.3-0.6-0.6c0.4-1.2,0.1-2.5-0.9-3.7v-3c-0.4-0.5-0.6-1.3-0.6-2.6c-0.2-0.2-0.3-0.5-0.3-0.7s0-0.6,0-0.9
		c0-0.4,0-0.7,0-0.9s-0.1-0.5-0.3-0.7c-0.2-0.2-0.3-0.5-0.3-0.7s0-0.6,0-0.9c0-0.4-0.1-0.6-0.3-0.6c0-0.2-0.1-0.4-0.2-0.6
		c-0.1-0.1-0.2-0.3-0.2-0.6c-0.2-1.2-0.5-2-0.9-2.2l0.3-1.1c0-0.2-0.2-0.6-0.5-0.9c-0.3-0.4-0.5-0.7-0.5-0.9s0-0.7,0-1.5
		c0-0.5-0.3-1-1-1.5v-0.7c-0.2-0.2-0.6-1.1-1.3-2.6c0-0.2-0.1-0.5-0.3-0.7c-0.2-0.2-0.4-0.5-0.5-0.7s-0.1-0.6,0-0.9
		c0.1-0.4,0.2-0.7,0.2-0.9c-0.2-0.2-0.6-0.7-1.1-1.3s-0.9-1-1.1-1.3c0-0.2,0-0.5,0-0.7s-0.2-0.5-0.5-0.7s-0.5-0.5-0.5-0.7
		c0-0.3,0.2-0.8,0.6-1.5c0-0.5,0-0.9,0-1.1c0-0.3,0.2-0.7,0.6-1.3c0.4-0.6,0.7-1,0.8-1.1c0.1-0.1,0.2-0.4,0.2-0.9s0-0.9,0-1.1
		c0.2-0.5,0.7-1,1.4-1.5c0.8-0.5,1.2-1,1.4-1.5c1.9-0.2,3-0.5,3.2-0.7c0-0.5,0-0.9,0-1.1c0.2-0.2,0.7-0.4,1.6-0.6
		c0.8-0.1,1.4-0.3,1.6-0.6c0.2,0,0.4,0.1,0.5,0.4s0.2,0.4,0.3,0.4c0.1,0,0.4-0.1,0.8-0.2s0.6-0.1,0.6,0.2c0.2,0,0.3,0.1,0.3,0.4
		s0.1,0.5,0.3,0.7c0.6-0.2,1.1-0.2,1.3,0c1.5,0.3,2.4,1.1,2.9,2.6c0.6,0.5,1.4,1.4,2.2,2.6c0.6-0.2,1-0.2,1,0c0,0.7,0.5,1.6,1.6,2.6
		c0.4,0.3,0.7,0.6,0.9,1.1l0.6,1.9c0,1,0.2,1.6,0.6,1.7s0.7-0.2,0.9-0.9c0.2,0,0.3-0.2,0.3-0.7c0.6-1,1-1.6,1-1.9
		c0.8-1.2,1.3-2.1,1.3-2.6c1.7-2.2,2.7-4.1,2.9-5.6l0.6-0.4c0-0.5,0.4-1.2,1.3-2.2c0.2-1,0.9-2.1,2.2-3.3c0-0.2,0-0.6,0-1.1
		c0.2,0,0.4,0.1,0.6,0.2s0.4,0.2,0.6,0.2s0.5-0.2,1-0.7c0.2,0,0.3-0.1,0.3-0.4c1.3,0,2.2-1.1,2.9-3.3c0.2,0,0.4,0.1,0.5,0.2
		s0.3,0.2,0.5,0.2c0.2-0.5,0.8-0.6,1.8-0.2s1.6,0.6,2.1,0.6c0.2,0,0.7,0.1,1.4,0.4C339.2,42.4,339.8,42.5,340.2,42.5z"/>
</g>
</svg>
