<?xml version="1.0" encoding="utf-8"?>
<!-- Generator: Adobe Illustrator 19.0.1, SVG Export Plug-In . SVG Version: 6.00 Build 0)  -->
<svg version="1.1" id="Layer_1" xmlns="http://www.w3.org/2000/svg" xmlns:xlink="http://www.w3.org/1999/xlink" x="0px" y="0px"
	 viewBox="0 -15 400 100" enable-background="new 0 -15 400 100" xml:space="preserve">
<g>
	<path fill="#C5E0B4" d="M23.5,17c0.1,0,0.1,0.1,0.1,0.1c0,0.1-0.1,0.2-0.1,0.3c0.8,0.8,1.5,1.1,2,1c0,0.3,0.1,0.6,0.4,0.9
		c0.2,0.2,0.3,0.3,0.4,0.4c0.2-0.1,0.3-0.1,0.4,0c0,0.1,0,0.2,0,0.2c0,0.1,0,0.1,0,0.2c0.3,0.4,0.8,0.9,1.5,1.5s1.1,1.1,1.3,1.5
		c0.1,0,0.1,0.1,0.1,0.3l1.8,1.9c0,0.3,0,0.4,0.1,0.4s0.2,0,0.3-0.1c0.1,0,0.2,0,0.3,0.1c0,0.3,0.1,0.6,0.4,1
		c0.2,0.4,0.4,0.7,0.5,0.9l0.6,0.3c0.1,0,0.1,0.1,0.1,0.2c-0.1,0.1-0.1,0.3-0.1,0.4c0.1,0.1,0.3,0.2,0.5,0.4s0.4,0.3,0.5,0.3
		c0,0.1,0,0.2,0.1,0.3s0.1,0.2,0.1,0.3c0.1,0.1,0.2,0.2,0.4,0.4c0.1,0.2,0.3,0.3,0.4,0.4c0.1,0,0.2,0,0.2,0.1s0.1,0.2,0.1,0.3
		c0.5,0.6,0.8,1.1,1,1.5c0.1,0.1,0.2,0.2,0.4,0.4s0.3,0.3,0.4,0.4c0.2,0.4,0.6,0.8,1.2,1.3c0.6,0.5,1,0.9,1.2,1.2l1.5,0.9h0.6
		c0.4,0.5,0.9,0.7,1.5,0.6c0.1-0.1,0.2-0.2,0.4-0.3c0.1-0.1,0.3-0.1,0.4-0.1c0.2-0.2,0.4-0.3,0.7-0.3c0.6,0,0.9,0,1,0
		c0.5,0.4,1,0.3,1.6-0.1c0,0.1-0.1,0.2-0.1,0.3s-0.1,0.2-0.1,0.3c0.1,0.1,0.2,0.2,0.3,0.3c0.4-0.1,0.7,0.1,1,0.5s0.6,0.6,0.9,0.5
		c0.1,0,0.1,0.1,0.1,0.3c0.6,0.4,0.8,0.9,0.6,1.6c0.1,0.2,0.2,0.3,0.3,0.3c-0.2,0.2-0.3,0.6-0.4,1.3c-0.1,0.7-0.1,1.1-0.1,1.2
		c-0.3,0.1-0.6,0.3-0.9,0.7c-0.3,0.3-0.5,0.6-0.7,0.7c0,0.5,0,0.8,0,0.9c-0.2,0-0.4,0-0.6-0.1c-0.1,0.1-0.3,0.2-0.6,0.3
		s-0.4,0.2-0.4,0.3C47,46,47,46.1,47,46.3s-0.1,0.3-0.1,0.4c-0.2,0-0.4,0-0.5-0.1s-0.3-0.1-0.4-0.1c-0.3,0.1-0.5,0.1-0.5,0.1
		c-0.1,0-0.1,0-0.2,0c-0.1,0-0.2,0-0.3,0s-0.2,0.1-0.3,0.2c-0.1,0.1-0.2,0.2-0.3,0.2c-0.4-0.1-0.8-0.1-1.4,0c-0.5,0.1-1,0.2-1.2,0.1
		c-0.1,0-0.1-0.1-0.1-0.2c0-0.1,0-0.2-0.1-0.2s-0.3,0-0.7,0s-0.7,0-0.9,0c0-0.3-0.1-0.5-0.4-0.6c-0.3-0.1-0.5-0.1-0.7,0
		C38.8,46,38.7,46,38.6,46c0-0.1-0.1-0.3-0.1-0.6c-0.1,0-0.3,0-0.5,0.1s-0.4,0-0.5-0.1c0-0.2-0.2-0.4-0.6-0.6c0-0.1-0.1-0.2-0.1-0.3
		c-0.1-0.1-0.2-0.1-0.3-0.1c-0.3,0.1-0.5,0.1-0.6,0.1c0-0.1,0-0.2,0-0.4l-1.8-1.6h-0.3c-0.2-0.1-0.4-0.3-0.6-0.6
		c-0.2-0.3-0.3-0.5-0.4-0.6c-0.2-0.1-0.3-0.1-0.4-0.1c-0.1-0.1-0.2-0.3-0.4-0.5c-0.1-0.2-0.3-0.4-0.4-0.4c-0.6-0.4-0.9-0.7-0.9-1
		c-0.3,0-0.6-0.1-0.8-0.4c-0.2-0.3-0.4-0.4-0.5-0.4c-0.1-0.7-0.6-1.4-1.5-2.2c-0.1-0.3-0.5-0.9-1.3-1.8c-0.1-0.2-0.4-0.5-0.9-0.9
		c-0.1-0.4-0.4-0.8-0.9-1.3c-0.3-0.3-0.5-0.5-0.6-0.6c0-0.4-0.2-0.8-0.7-1.2s-0.8-0.5-1-0.1c0,0.1,0,0.2-0.1,0.2l-0.1,0.1
		c0,0.1-0.1,0.1-0.1,0.2c-0.1,0.1-0.1,0.2-0.1,0.4c0,0.1-0.1,0.3-0.1,0.4l-0.1,0.1c-0.3,0.5-0.5,0.7-0.6,0.7c0,0.1,0,0.2,0.1,0.3
		s0.1,0.2,0.1,0.3c-0.4,0.5-0.6,1-0.6,1.5c-0.2,0.2-0.4,0.6-0.7,1.2c-0.3,0.6-0.5,0.9-0.6,1c0,0.1,0,0.2,0,0.4s0,0.3,0,0.4
		c0,0.1-0.1,0.2-0.2,0.4s-0.2,0.3-0.2,0.4c0,0.1,0,0.2-0.1,0.4c0,0.2-0.1,0.3-0.2,0.4c0,0.1,0,0.2-0.1,0.2c-0.1,0.1-0.1,0.1-0.1,0.2
		c0,1.2-0.1,1.8-0.3,1.9c0,0.1,0.1,0.2,0.3,0.4c-0.5,1-0.8,1.8-0.9,2.5c-0.2,0.2-0.5,0.4-0.9,0.7s-0.7,0.5-0.9,0.7
		c-0.7-0.1-1.1,0.2-1.3,0.9c-0.1,0-0.2-0.1-0.2-0.1c-0.1-0.1-0.1-0.1-0.1-0.1l-0.1,0.1c-0.1,0.1-0.1,0.1-0.2,0.1
		c-0.2,0-0.4-0.2-0.7-0.7c-0.3-0.4-0.5-0.7-0.7-0.7c-0.1,0-0.3,0.1-0.6,0.3s-0.5,0.2-0.7,0.1L10,45.4c-0.1-0.4-0.3-0.7-0.7-0.9
		c-0.1,0-0.2,0-0.2,0.1c0,0-0.1,0.1-0.2,0.1c-0.1-0.2-0.3-0.5-0.6-0.8s-0.4-0.7-0.4-1.1c0-0.1-0.2-0.2-0.6-0.4V42
		c0-0.1-0.1-0.2-0.3-0.4l-0.1-0.1c0-0.2-0.1-0.4-0.2-0.7c-0.1-0.2-0.2-0.4-0.2-0.4s0-0.2,0-0.4s0-0.3-0.1-0.4c0-0.1-0.1-0.2-0.2-0.2
		S6,39.3,5.9,39.2c0.2-0.5,0-1-0.4-1.5v-1.2c-0.2-0.2-0.3-0.5-0.3-1C5,35.2,4.9,35.1,4.9,35s0-0.2,0-0.4c0-0.1,0-0.3,0-0.4
		c0-0.1-0.1-0.2-0.1-0.3c-0.1-0.1-0.1-0.2-0.1-0.3s0-0.2,0-0.4c0-0.1-0.1-0.2-0.1-0.2c0-0.1,0-0.2-0.1-0.2s-0.1-0.1-0.1-0.2
		c-0.1-0.5-0.2-0.8-0.4-0.9l0-0.4c0-0.1-0.1-0.2-0.2-0.4c-0.1-0.1-0.2-0.3-0.2-0.4c0-0.1,0-0.3,0-0.6c0-0.2-0.1-0.4-0.4-0.6V29
		c-0.1-0.1-0.3-0.4-0.6-1c0-0.1-0.1-0.2-0.1-0.3c-0.1-0.1-0.2-0.2-0.2-0.3s0-0.2,0-0.4c0-0.1,0.1-0.3,0.1-0.4
		c-0.1-0.1-0.3-0.3-0.5-0.5s-0.4-0.4-0.5-0.5c0-0.1,0-0.2,0-0.3S1.3,25.1,1.2,25S1,24.8,1,24.7s0.1-0.3,0.3-0.6c0-0.2,0-0.3,0-0.4
		c0-0.1,0.1-0.3,0.3-0.5s0.3-0.4,0.4-0.4c0,0,0.1-0.2,0.1-0.4s0-0.3,0-0.4c0.1-0.2,0.3-0.4,0.7-0.6c0.3-0.2,0.6-0.4,0.7-0.6
		c0.9-0.1,1.4-0.2,1.5-0.3c0-0.2,0-0.3,0-0.4c-0.3,0,0-0.1,0.4-0.1s0.6-0.1,0.7-0.2c0.1,0,0.2,0.1,0.2,0.1C6.4,20,6.4,20,6.5,20
		c0,0,0.2,0,0.4-0.1c0.2,0,0.3,0,0.3,0.1c0.1,0,0.1,0,0.1,0.1s0,0.2,0.1,0.3c0.3-0.1,0.5-0.1,0.6,0c0.7,0.1,1.1,0.4,1.3,1
		c0.3,0.2,0.6,0.5,1,1c0.3-0.1,0.4-0.1,0.4,0c0,0.3,0.2,0.6,0.7,1c0.2,0.1,0.3,0.2,0.4,0.4l0.3,0.7c0,0.4,0.1,0.6,0.3,0.7
		c0.2,0,0.3-0.1,0.4-0.4c0.1,0,0.1-0.1,0.1-0.3c0.3-0.4,0.4-0.6,0.4-0.7c0.4-0.5,0.6-0.8,0.6-1c0.8-0.9,1.2-1.6,1.3-2.2l0.3-0.1
		c0-0.2,0.2-0.5,0.6-0.9c0.1-0.4,0.4-0.8,1-1.3c0-0.1,0-0.2,0-0.4c0.1,0,0.2,0,0.3,0.1c0.1,0,0.2,0.1,0.3,0.1c0.1,0,0.2-0.1,0.4-0.3
		c0.1,0,0.1,0,0.1-0.1c0.6,0,1-0.4,1.3-1.3c0.1,0,0.2,0,0.2,0.1s0.1,0.1,0.2,0.1c0.1-0.2,0.4-0.2,0.8-0.1s0.8,0.2,1,0.2
		c0.1,0,0.3,0.1,0.7,0.1C23,16.9,23.3,17,23.5,17z M22,16.7c0.1,0,0.3,0.1,0.7,0.1c0.3,0.1,0.6,0.1,0.8,0.1c0.1,0,0.1,0.1,0.1,0.1
		c0,0.1-0.1,0.2-0.1,0.3c0.8,0.8,1.5,1.1,2,1c0,0.3,0.1,0.6,0.4,0.9c0.2,0.2,0.3,0.3,0.4,0.4c0.2-0.1,0.3-0.1,0.4,0
		c0,0.1,0,0.2,0,0.2c0,0.1,0,0.1,0,0.2c0.3,0.4,0.8,0.9,1.5,1.5s1.1,1.1,1.3,1.5c0.1,0,0.1,0.1,0.1,0.3l1.8,1.9c0,0.3,0,0.4,0.1,0.4
		s0.2,0,0.3-0.1c0.1,0,0.2,0,0.3,0.1c0,0.3,0.1,0.6,0.4,1c0.2,0.4,0.4,0.7,0.5,0.9l0.6,0.3c0.1,0,0.1,0.1,0.1,0.2
		c-0.1,0.1-0.1,0.3-0.1,0.4c0.1,0.1,0.3,0.2,0.5,0.4s0.4,0.3,0.5,0.3c0,0.1,0,0.2,0.1,0.3s0.1,0.2,0.1,0.3c0.1,0.1,0.2,0.2,0.4,0.4
		c0.1,0.2,0.3,0.3,0.4,0.4c0.1,0,0.2,0,0.2,0.1s0.1,0.2,0.1,0.3c0.5,0.6,0.8,1.1,1,1.5c0.1,0.1,0.2,0.2,0.4,0.4s0.3,0.3,0.4,0.4
		c0.2,0.4,0.6,0.8,1.2,1.3c0.6,0.5,1,0.9,1.2,1.2l1.5,0.9h0.6c0.4,0.5,0.9,0.7,1.5,0.6c0.1-0.1,0.2-0.2,0.4-0.3
		c0.1-0.1,0.3-0.1,0.4-0.1c0.2-0.2,0.4-0.3,0.7-0.3c0.6,0,0.9,0,1,0c0.5,0.4,1,0.3,1.6-0.1c0,0.1-0.1,0.2-0.1,0.3s-0.1,0.2-0.1,0.3
		c0.1,0.1,0.2,0.2,0.3,0.3c0.4-0.1,0.7,0.1,1,0.5s0.6,0.6,0.9,0.5c0.1,0,0.1,0.1,0.1,0.3c0.6,0.5,0.8,1,0.6,1.6
		c0.1,0.2,0.2,0.3,0.3,0.3c-0.2,0.2-0.3,0.6-0.4,1.3c-0.1,0.7-0.1,1.1-0.1,1.2c-0.3,0.1-0.6,0.3-0.9,0.7c-0.3,0.3-0.5,0.6-0.7,0.7
		c0,0.5,0,0.8,0,0.9c-0.2,0-0.4,0-0.6-0.1c-0.1,0.1-0.3,0.2-0.6,0.3s-0.4,0.2-0.4,0.3C47,45.9,47,46,47,46.2s-0.1,0.3-0.1,0.4
		c-0.2,0-0.4,0-0.5-0.1s-0.3-0.1-0.4-0.1c-0.3,0.1-0.5,0.1-0.5,0.1c-0.1,0-0.1,0-0.2,0c-0.1,0-0.2,0-0.3,0s-0.2,0.1-0.3,0.2
		c-0.1,0.1-0.2,0.2-0.3,0.2c-0.4,0-0.8,0-1.4,0.1c-0.5,0.1-1,0.2-1.2,0.1c-0.1,0-0.1-0.1-0.1-0.2c0-0.1,0-0.2-0.1-0.2s-0.3,0-0.7,0
		s-0.7,0-0.9,0c0-0.3-0.1-0.5-0.4-0.6c-0.3-0.1-0.5-0.1-0.7,0C38.8,46,38.7,46,38.6,46c0-0.1-0.1-0.3-0.1-0.6c-0.1,0-0.3,0-0.5,0.1
		s-0.4,0-0.5-0.1c0-0.2-0.2-0.4-0.6-0.6c0-0.1-0.1-0.2-0.1-0.3c-0.1-0.1-0.2-0.1-0.3-0.1c-0.3,0.1-0.5,0.1-0.6,0.1
		c0-0.1,0-0.2,0-0.4l-1.8-1.6h-0.3c-0.2-0.1-0.4-0.3-0.6-0.6c-0.2-0.3-0.3-0.5-0.4-0.6c-0.2-0.1-0.3-0.1-0.4-0.1
		c-0.1-0.1-0.2-0.3-0.4-0.5c-0.1-0.2-0.3-0.4-0.4-0.4c-0.6-0.4-0.9-0.7-0.9-1c-0.3,0-0.6-0.1-0.8-0.4c-0.2-0.3-0.4-0.4-0.5-0.4
		c-0.1-0.7-0.6-1.4-1.5-2.2c-0.1-0.3-0.5-0.9-1.3-1.8c-0.1-0.2-0.4-0.5-0.9-0.9c-0.1-0.4-0.4-0.8-0.9-1.3c-0.3-0.3-0.5-0.5-0.6-0.6
		c0-0.4-0.2-0.8-0.7-1.2s-0.8-0.5-1-0.1c0,0.1,0,0.2-0.1,0.2l-0.1,0.1c0,0.1-0.1,0.1-0.1,0.2c-0.1,0.1-0.1,0.2-0.1,0.4
		c0,0.1-0.1,0.3-0.1,0.4l-0.1,0.1c-0.3,0.5-0.5,0.7-0.6,0.7c0,0.1,0,0.2,0.1,0.3s0.1,0.2,0.1,0.3c-0.4,0.5-0.6,1-0.6,1.5
		c-0.2,0.2-0.4,0.6-0.7,1.2c-0.3,0.6-0.5,0.9-0.6,1c0,0.1,0,0.2,0,0.4s0,0.3,0,0.4c0,0.1-0.1,0.2-0.2,0.4s-0.2,0.3-0.2,0.4
		c0,0.1,0,0.2-0.1,0.4c0,0.2-0.1,0.3-0.2,0.4c0,0.1,0,0.2-0.1,0.2c-0.1,0.1-0.1,0.1-0.1,0.2c0,1.2-0.1,1.8-0.3,1.9
		c0,0.1,0.1,0.2,0.3,0.4c-0.5,1-0.8,1.8-0.9,2.5c-0.2,0.2-0.5,0.4-0.9,0.7s-0.7,0.5-0.9,0.7c-0.7-0.1-1.1,0.2-1.3,0.9
		c-0.1,0-0.2-0.1-0.2-0.1c-0.1-0.1-0.1-0.1-0.1-0.1l-0.1,0.1c-0.1,0.1-0.1,0.1-0.2,0.1c-0.2,0-0.4-0.2-0.7-0.7
		c-0.3-0.4-0.5-0.7-0.7-0.7s-0.4,0.1-0.7,0.3s-0.5,0.3-0.7,0.3L10,45.4c-0.1-0.4-0.3-0.7-0.7-0.9c-0.1,0-0.2,0-0.2,0.1
		c0,0-0.1,0.1-0.2,0.1c-0.1-0.2-0.3-0.5-0.6-0.8s-0.4-0.7-0.4-1.1c0-0.1-0.2-0.2-0.6-0.4V42c0-0.1-0.1-0.2-0.3-0.4l-0.1-0.1
		c0-0.2-0.1-0.4-0.2-0.7c-0.1-0.2-0.2-0.4-0.2-0.4s0-0.2,0-0.4s0-0.3-0.1-0.4c0-0.1-0.1-0.2-0.2-0.2S6,39.3,5.9,39.2
		c0.2-0.5,0-1-0.4-1.5v-1.2c-0.2-0.2-0.3-0.5-0.3-1c-0.1,0-0.1,0-0.1-0.1c0,0,0-0.1,0-0.2c0-0.1,0-0.2,0-0.4c0-0.1,0-0.3,0-0.4
		c0-0.1-0.1-0.2-0.1-0.3c-0.1-0.1-0.1-0.2-0.1-0.3s0-0.2,0-0.4c0-0.1-0.1-0.2-0.1-0.2c0-0.1,0-0.2-0.1-0.2s-0.1-0.1-0.1-0.2
		c-0.1-0.5-0.2-0.8-0.4-0.9L4,31.3c0-0.1-0.1-0.2-0.2-0.4c-0.1-0.1-0.2-0.3-0.2-0.4c0-0.1,0-0.3,0-0.6c0-0.2-0.1-0.4-0.4-0.6V29
		c-0.1-0.1-0.3-0.4-0.6-1c0-0.1-0.1-0.2-0.1-0.3c-0.1-0.1-0.2-0.2-0.2-0.3s0-0.2,0-0.4c0-0.1,0.1-0.3,0.1-0.4
		c-0.1-0.1-0.3-0.3-0.5-0.5s-0.4-0.4-0.5-0.5c0-0.1,0-0.2,0-0.3S1.3,25.1,1.2,25S1,24.8,1,24.7s0.1-0.3,0.3-0.6c0-0.2,0-0.3,0-0.4
		c0-0.1,0.1-0.3,0.3-0.5s0.3-0.4,0.4-0.4c0,0,0.1-0.2,0.1-0.4s0-0.3,0-0.4c0.1-0.2,0.3-0.4,0.7-0.6c0.3-0.2,0.6-0.4,0.7-0.6
		c0.9-0.1,1.4-0.2,1.5-0.3c0-0.2,0-0.3,0-0.4c-0.3,0,0-0.1,0.4-0.1s0.6-0.1,0.7-0.2c0.1,0,0.2,0.1,0.2,0.1C6.4,20,6.4,20,6.5,20
		c0,0,0.2,0,0.4-0.1c0.2,0,0.3,0,0.3,0.1c0.1,0,0.1,0,0.1,0.1s0,0.2,0.1,0.3c0.3-0.1,0.5-0.1,0.6,0c0.7,0.1,1.1,0.4,1.3,1
		c0.3,0.2,0.6,0.5,1,1c0.3-0.1,0.4-0.1,0.4,0c0,0.3,0.2,0.6,0.7,1c0.2,0.1,0.3,0.2,0.4,0.4c0,0.1,0.1,0.3,0.3,0.7
		c0,0.4,0.1,0.6,0.3,0.7c0.2,0,0.3-0.1,0.4-0.4c0.1,0,0.1-0.1,0.1-0.3c0.3-0.4,0.4-0.6,0.4-0.7c0.4-0.5,0.6-0.8,0.6-1
		c0.8-0.9,1.2-1.6,1.3-2.2l0.3-0.1c0-0.2,0.2-0.5,0.6-0.9c0.1-0.4,0.4-0.8,1-1.3c0-0.1,0-0.2,0-0.4c0.1,0,0.2,0,0.3,0.1
		c0.1,0,0.2,0.1,0.3,0.1c0.1,0,0.2-0.1,0.4-0.3c0.1,0,0.1,0,0.1-0.1c0.6,0,1-0.4,1.3-1.3c0.1,0,0.2,0,0.2,0.1s0.1,0.1,0.2,0.1
		c0.1-0.2,0.4-0.2,0.8-0.1C21.5,16.6,21.8,16.7,22,16.7z"/>
	<path fill="#C5E0B4" d="M63.3-2.2c0,0.4,0.1,0.6,0.4,0.6c0.5-0.1,0.8-0.1,0.9-0.1c0,0.7,0.3,1.1,0.9,1.2c0.1,0,0.1,0,0.1-0.1
		s0-0.1,0.1-0.1c0.2,0.2,0.3,0.3,0.4,0.3C66-0.2,66,0,66.1,0.3s0.1,0.5,0.1,0.6C66.3,1,66.4,1,66.5,1c0.1,0,0.1,0,0.1,0.1
		c0.1,0,0.2,0.2,0.4,0.6c0.1,0.4,0.3,0.6,0.5,0.7c0,0.1,0,0.2,0,0.3c0.1,0,0.2,0,0.3,0c0.2,0,0.3,0,0.4,0c0.1,0.4,0,0.7-0.3,0.9
		c-0.1,0.3,0,0.7,0.4,1.2c0,0.3,0,0.9,0,1.8s0,1.4,0.1,1.6H68c-0.1,0-0.1,0.1-0.1,0.3s0,0.3-0.1,0.3s-0.2,0-0.3-0.1
		c-0.1,0-0.2-0.1-0.3-0.1c-0.3,0-0.3,0.2-0.1,0.7c0.2,0.5,0.2,0.8,0.1,1c-0.1,0-0.3,0-0.7,0.1c-0.4,0-0.6,0.1-0.7,0.1
		s-0.2-0.1-0.4-0.3c-0.3-0.3-0.5-0.3-0.7,0c0,0.1,0,0.2,0.1,0.3c0.1,0.1,0.1,0.2,0.1,0.3c-0.3-0.1-0.4-0.2-0.4-0.3
		c-0.7,0-1.1-0.1-1.2-0.4c-0.1,0-0.2,0-0.2,0.1c0,0-0.1,0.1-0.2,0.1c-0.1-0.1-0.5-0.5-1.3-1.2L61.2,9c0-0.1-0.2-0.3-0.7-0.6
		c0,0.3-0.1,0.4-0.3,0.4c-0.1,0-0.1-0.1-0.1-0.2s0-0.3,0-0.4c-0.1,0-0.2,0-0.4,0.1c-0.1,0.1-0.2,0.1-0.3,0c0,0-0.1-0.2-0.1-0.4
		s0-0.3,0-0.4c-0.1-0.1-0.3-0.4-0.7-1c-0.1,0-0.2,0-0.2,0s-0.1,0-0.2,0c0.2-0.2,0.2-0.5,0-0.9s-0.3-0.7-0.3-1l-0.4-0.1
		c0-0.1,0-0.3-0.1-0.5c0-0.2,0-0.4,0.1-0.4c0-0.1-0.2-0.7-0.6-1.9l0.4-0.1l0.1-0.3c0.1-0.4,0.2-0.6,0.4-0.6c0-0.7,0-1.1,0-1.3
		c0.1,0,0.2,0,0.4,0s0.3,0,0.4,0C58.7-0.7,58.8-0.8,59-1c0.1-0.2,0.3-0.4,0.4-0.6c0.1,0,0.3,0,0.7,0.1c0.4,0,0.6,0,0.7-0.1
		c0-0.1,0-0.2,0-0.4C61-2,61.4-2,62-2.1C62.8-2.3,63.2-2.3,63.3-2.2z M62.2-2.3c0.6,0,1,0,1.1,0.1c0,0.4,0.1,0.6,0.4,0.6
		c0.5-0.1,0.8-0.1,0.9-0.1c0,0.7,0.3,1.1,0.9,1.2c0.1,0,0.1,0,0.1-0.1s0-0.1,0.1-0.1c0.2,0.2,0.3,0.3,0.4,0.3C66-0.2,66,0,66.1,0.3
		s0.1,0.5,0.1,0.6C66.3,1,66.4,1,66.5,1c0.1,0,0.1,0,0.1,0.1c0.1,0,0.2,0.2,0.4,0.6c0.1,0.4,0.3,0.6,0.5,0.7c0,0.1,0,0.2,0,0.3
		c0.1,0,0.2,0,0.3,0c0.2,0,0.3,0,0.4,0c0.1,0.4,0,0.7-0.3,0.9c-0.1,0.3,0,0.7,0.4,1.2c0,0.3,0,0.9,0,1.8s0,1.4,0.1,1.6H68
		c-0.1,0-0.1,0.1-0.1,0.3s0,0.3-0.1,0.3s-0.2,0-0.3-0.1c-0.1,0-0.2-0.1-0.3-0.1c-0.3,0-0.3,0.2-0.1,0.7c0.2,0.5,0.2,0.8,0.1,1
		c-0.1,0-0.3,0-0.7,0.1c-0.4,0-0.6,0.1-0.7,0.1s-0.2-0.1-0.4-0.3c-0.3-0.3-0.5-0.3-0.7,0c0,0.1,0,0.2,0.1,0.3
		c0.1,0.1,0.1,0.2,0.1,0.3c-0.3-0.1-0.4-0.2-0.4-0.3c-0.7,0-1.1-0.1-1.2-0.4c-0.1,0-0.2,0-0.2,0.1c0,0-0.1,0.1-0.2,0.1
		c-0.1-0.1-0.5-0.5-1.3-1.2L61.2,9c0-0.1-0.2-0.3-0.7-0.6c0,0.3-0.1,0.4-0.3,0.4c-0.1,0-0.1-0.1-0.1-0.2s0-0.3,0-0.4
		c-0.1,0-0.2,0-0.4,0.1c-0.1,0.1-0.2,0.1-0.3,0c0,0-0.1-0.2-0.1-0.4s0-0.3,0-0.4c-0.1-0.1-0.3-0.4-0.7-1c-0.1,0-0.2,0-0.2,0
		s-0.1,0-0.2,0c0.2-0.2,0.2-0.5,0-0.9s-0.3-0.7-0.3-1l-0.4-0.1c0-0.1,0-0.3-0.1-0.5c0-0.2,0-0.4,0.1-0.4c0-0.1-0.2-0.7-0.6-1.9
		l0.4-0.1l0.1-0.3c0.1-0.4,0.2-0.6,0.4-0.6c0-0.7,0-1.1,0-1.3c0.1,0,0.2,0,0.4,0s0.3,0,0.4,0C58.7-0.7,58.8-0.8,59-1
		c0.1-0.2,0.3-0.4,0.4-0.6c0.1,0,0.3,0,0.7,0.1c0.4,0,0.6,0,0.7-0.1c0-0.1,0-0.2,0-0.4C61.2-2.2,61.6-2.2,62.2-2.3z M62.4,17.6
		c0.2-0.1,0.6-0.1,1.2,0c0.1,0,0.1,0,0.1,0.1c-0.1,0.1,0,0.2,0.1,0.3c0.5,0.1,0.7,0.2,0.7,0.3c0.2-0.2,0.4-0.3,0.7-0.3
		c0.2,0,0.4,0.1,0.5,0.3c0,0.1-0.1,0.2-0.1,0.3c0.5,0.8,0.8,1.2,0.9,1.2c-0.1,0.3,0,0.5,0.4,0.6c0.1,0,0.2,0,0.3,0
		c0.1,0.6,0.3,1,0.6,1.2V22c0,0.1,0.1,0.2,0.2,0.2s0.2,0.1,0.2,0.2c0.1,0.1,0.1,0.3,0,0.7c0,0.4,0.1,0.6,0.4,0.7
		c0.2,0.1,0.2,0.4,0.1,1s-0.1,1,0,1.3c0.2,0.2,0.3,0.3,0.4,0.4c-0.1,0.2-0.1,0.4,0,0.6l0.4,0.1c0.1,0.3,0.1,0.6,0.1,1
		s-0.1,0.6-0.1,0.7c0,0.1,0.1,0.2,0.2,0.4s0.2,0.4,0.1,0.6c0.1,0.3,0.3,0.4,0.7,0.3v1.3L70.3,32c0,0.3,0.1,0.6,0.4,0.9
		c0.2-0.1,0.3-0.1,0.4-0.1c0,0.2,0,0.3-0.1,0.4c-0.1,0-0.1,0.1-0.1,0.1c-0.1,0.8,0,1.2,0.4,1.3c0,0.2,0,0.5,0,1s0,0.8,0.1,0.9
		c0,0.1,0.1,0.1,0.3,0.1c0.2,0.5,0.1,1-0.1,1.5c0.1,0.3,0.3,0.5,0.7,0.6c0,0.3,0,0.5,0,0.6c-0.1,0-0.2,0-0.2,0s-0.1,0-0.2,0
		c0,0.2,0.1,0.3,0.4,0.4c0.1,0.4,0,0.7-0.3,1c0,0.2,0.1,0.5,0.2,0.9s0.2,0.7,0.1,0.9c-0.5,0.1-0.7,0.6-0.6,1.5
		c0.1,0.2,0.1,0.3,0.1,0.4c-0.2,0-0.4,0-0.5,0.1s-0.3,0.1-0.4,0c-0.3,0.7-0.4,1.1-0.4,1.2c-0.1,0-0.2,0-0.2-0.1c0,0-0.1-0.1-0.2-0.1
		C70,45.6,70,45.8,70,46.2c0,0.3,0,0.6-0.1,0.7c-0.7,0-1.1-0.1-1.2-0.3c0-0.1,0-0.2,0.1-0.3s0.1-0.2,0.1-0.3
		c-0.1-0.1-0.2-0.2-0.3-0.3c0,0.1-0.1,0.2-0.1,0.4c-0.1,0.2-0.2,0.3-0.3,0.3c-0.1-0.1-0.3-0.1-0.6,0c-0.1,0-0.2,0-0.2,0
		c-0.1,0-0.1,0-0.3,0c-0.1,0-0.3,0-0.3,0s-0.2,0.1-0.4,0.4c-0.2,0.2-0.5,0.3-0.7,0.1c-0.1,0-0.1-0.1-0.1-0.1s0-0.2,0-0.3
		c-0.1,0-0.3,0-0.4,0.1c-0.2,0.1-0.3,0.1-0.4,0c0.1-0.3,0.1-0.5,0.1-0.6c-0.1,0-0.2,0.1-0.2,0.1c-0.1,0.1-0.1,0.1-0.2,0
		c-0.1,0-0.1-0.1-0.1-0.2c0-0.1,0-0.2,0-0.2c-0.1,0-0.2,0-0.5,0c0-0.3-0.1-0.5-0.4-0.7c0.1-0.7-0.2-1.2-1-1.5c0-0.1,0-0.2,0.1-0.4
		c0-0.2,0.1-0.3,0.1-0.4c0-0.1-0.1-0.2-0.2-0.3c-0.1-0.1-0.2-0.2-0.2-0.3c-0.1-0.3-0.2-0.6-0.3-0.9c0-0.1,0-0.2,0.1-0.4
		c0.1-0.1,0.1-0.3,0.1-0.4c0-0.3-0.1-0.8-0.4-1.5c-0.1,0-0.2,0-0.4,0c-0.1,0-0.3,0-0.4-0.1c0-0.3,0-0.7,0-1.2s0-0.9,0-1.3
		c0.2-0.1,0.3-0.4,0.2-0.8c-0.1-0.4-0.2-0.7-0.5-0.8c0-0.2,0-0.4,0-0.7s0-0.5,0-0.6c-0.3-0.2-0.4-0.3-0.4-0.4
		c-0.1-0.2-0.1-0.4-0.1-0.7c0-0.2,0.1-0.5,0.1-0.7c-0.1-0.1-0.2-0.1-0.4-0.1c0-0.1,0-0.3,0-0.6s0-0.4-0.1-0.4s-0.2,0-0.3,0
		s-0.1,0-0.1-0.1s0-0.3,0-0.6s0-0.5-0.1-0.6c-0.2,0-0.3,0-0.4,0c0.1-0.1,0.1-0.3,0.1-0.5s-0.1-0.5-0.1-0.7c0.2-0.2,0.3-0.3,0.3-0.4
		c0-0.1-0.1-0.2-0.2-0.3c-0.1-0.1-0.2-0.2-0.2-0.3c0-0.3,0-0.5,0-0.6s-0.1-0.3-0.2-0.6c-0.1-0.3-0.3-0.5-0.4-0.7
		c0-0.1,0-0.3,0.1-0.7c0-0.4,0-0.7-0.1-0.9c0-0.1,0-0.2-0.1-0.2C58,23.2,58,23.2,58,23.1s0-0.2,0.1-0.2c0,0,0.1-0.1,0.1-0.2
		c-0.2-0.1-0.3-0.3-0.3-0.6s0.1-0.4,0.4-0.4c0-0.1,0.1-0.3,0.3-0.6s0.3-0.6,0.3-1l0.3-0.3c0.5-0.3,0.7-0.6,0.6-1
		c0.2,0,0.4,0.1,0.7,0.3c0.2-0.1,0.3-0.3,0.3-0.7c0.2-0.1,0.4,0,0.7,0.1c0.1-0.3,0.2-0.4,0.3-0.4H62c0.1,0,0.2-0.1,0.2-0.2
		C62.3,17.6,62.3,17.6,62.4,17.6z M63.6,17.6C63.7,17.6,63.7,17.6,63.6,17.6c0,0.2,0.1,0.3,0.2,0.4c0.5,0.1,0.7,0.2,0.7,0.3
		c0.2-0.2,0.4-0.3,0.7-0.3c0.2,0,0.4,0.1,0.5,0.3c0,0.1-0.1,0.2-0.1,0.3c0.5,0.8,0.8,1.2,0.9,1.2c-0.1,0.3,0,0.5,0.4,0.6
		c0.1,0,0.2,0,0.3,0c0.1,0.6,0.3,1,0.6,1.2V22c0,0.1,0.1,0.2,0.2,0.2s0.2,0.1,0.2,0.2c0.1,0.1,0.1,0.3,0,0.7c0,0.4,0.1,0.6,0.4,0.7
		c0.2,0.1,0.2,0.4,0.1,1s-0.1,1,0,1.3c0.2,0.2,0.3,0.3,0.4,0.4c-0.1,0.2-0.1,0.4,0,0.6l0.4,0.1c0.1,0.3,0.1,0.6,0.1,1
		s-0.1,0.6-0.1,0.7c0,0.1,0.1,0.2,0.2,0.4s0.2,0.4,0.1,0.6c0.1,0.3,0.3,0.4,0.7,0.3v1.3L70.3,32c0,0.3,0.1,0.6,0.4,0.9
		c0.2-0.1,0.3-0.1,0.4-0.1c0,0.2,0,0.3-0.1,0.4c-0.1,0-0.1,0.1-0.1,0.1c-0.1,0.8,0,1.2,0.4,1.3c0,0.2,0,0.5,0,1s0,0.8,0.1,0.9
		c0,0.1,0.1,0.1,0.3,0.1c0.2,0.5,0.1,1-0.1,1.5c0.1,0.3,0.3,0.5,0.7,0.6c0,0.3,0,0.5,0,0.6c-0.1,0-0.2,0-0.2,0s-0.1,0-0.2,0
		c0,0.2,0.1,0.3,0.4,0.4c0.1,0.4,0,0.7-0.3,1c0,0.2,0.1,0.5,0.2,0.9s0.2,0.7,0.1,0.9c-0.5,0.1-0.7,0.6-0.6,1.5
		c0.1,0.2,0.1,0.3,0.1,0.4c-0.2,0-0.4,0-0.5,0.1s-0.3,0.1-0.4,0c-0.3,0.7-0.4,1.1-0.4,1.2c-0.1,0-0.2,0-0.2-0.1c0,0-0.1-0.1-0.2-0.1
		C70,45.6,70,45.8,70,46.2c0,0.3,0,0.6-0.1,0.7c-0.7,0-1.1-0.1-1.2-0.3c0-0.1,0-0.2,0.1-0.3s0.1-0.2,0.1-0.3
		c-0.1-0.1-0.2-0.2-0.3-0.3c0,0.1-0.1,0.2-0.1,0.4c-0.1,0.2-0.2,0.3-0.3,0.3c-0.1-0.1-0.3-0.1-0.6,0c-0.1,0-0.2,0-0.2,0
		c-0.1,0-0.1,0-0.3,0c-0.1,0-0.3,0-0.3,0s-0.2,0.1-0.4,0.4c-0.2,0.2-0.5,0.3-0.7,0.1c-0.1,0-0.1-0.1-0.1-0.1s0-0.2,0-0.3
		c-0.1,0-0.3,0-0.4,0.1c-0.2,0.1-0.3,0.1-0.4,0c0.1-0.3,0.1-0.5,0.1-0.6c-0.1,0-0.2,0.1-0.2,0.1c-0.1,0.1-0.1,0.1-0.2,0
		c-0.1,0-0.1-0.1-0.1-0.2c0-0.1,0-0.2,0-0.2c-0.1,0-0.1,0-0.3,0c-0.1,0-0.3,0-0.4,0c0.1-0.3,0-0.5-0.3-0.7c0.1-0.7-0.2-1.2-1-1.5
		c0-0.1,0-0.2,0.1-0.4c0-0.2,0.1-0.3,0.1-0.4c0-0.1-0.1-0.2-0.2-0.3c-0.1-0.1-0.2-0.2-0.2-0.3c-0.1-0.3-0.2-0.6-0.3-0.9
		c0-0.1,0-0.2,0.1-0.4c0.1-0.1,0.1-0.3,0.1-0.4c0-0.3-0.1-0.8-0.4-1.5c-0.1,0-0.2,0-0.4,0c-0.1,0-0.3,0-0.4-0.1c0-0.3,0-0.7,0-1.2
		s0-0.9,0-1.3c0.2-0.1,0.3-0.4,0.2-0.8c-0.1-0.4-0.2-0.7-0.5-0.8c0-0.2,0-0.4,0-0.7s0-0.5,0-0.6c-0.3-0.2-0.4-0.3-0.4-0.4
		c-0.1-0.2-0.1-0.4-0.1-0.7c0-0.2,0.1-0.5,0.1-0.7c-0.1-0.1-0.2-0.1-0.4-0.1c0-0.1,0-0.3,0-0.6s0-0.4-0.1-0.4s-0.2,0-0.3,0
		s-0.1,0-0.1-0.1s0-0.3,0-0.6s0-0.5-0.1-0.6c-0.2,0-0.3,0-0.4,0c0.1-0.1,0.1-0.3,0.1-0.5s-0.1-0.5-0.1-0.7c0.2-0.2,0.3-0.3,0.3-0.4
		c0-0.1-0.1-0.2-0.2-0.3c-0.1-0.1-0.2-0.2-0.2-0.3c0-0.3,0-0.5,0-0.6s-0.1-0.3-0.2-0.6c-0.1-0.3-0.3-0.5-0.4-0.7
		c0-0.1,0-0.3,0.1-0.7c0-0.4,0-0.7-0.1-0.9c0-0.1,0-0.2-0.1-0.2c-0.1-0.1-0.1-0.1-0.1-0.2s0-0.2,0.1-0.2c0,0,0.1-0.1,0.1-0.2
		c-0.2-0.1-0.3-0.3-0.3-0.6s0.1-0.4,0.4-0.4c0-0.1,0.1-0.3,0.3-0.6s0.3-0.6,0.3-1l0.3-0.3c0.5-0.3,0.7-0.6,0.6-1
		c0.2,0,0.4,0.1,0.7,0.3c0.2-0.1,0.3-0.3,0.3-0.7c0.2-0.1,0.4,0,0.7,0.1c0.1-0.3,0.2-0.4,0.3-0.4H62c0.1,0,0.2-0.1,0.2-0.2
		c0-0.1,0.1-0.2,0.2-0.2C62.6,17.5,63,17.5,63.6,17.6z M61.1,37.6c-0.1,0.3,0,0.4,0.2,0.4s0.2-0.1,0.1-0.4H61.1z M61.3,38
		c0.2,0,0.2-0.1,0.1-0.4h-0.3C61,37.9,61.1,38,61.3,38z"/>
	<path fill="#C5E0B4" d="M103.7,22.8l-0.6,0.3c-0.1,0-0.3,0-0.5,0s-0.4,0-0.5,0c-0.1,0.1-0.2,0.2-0.2,0.3s-0.1,0.1-0.2,0.1
		c-0.4,0.1-0.7,0.3-0.9,0.6h-0.6c-0.1,0.2-0.3,0.3-0.7,0.4c-0.4,0.1-0.6,0.1-0.7,0.2c0,0.2,0,0.3,0,0.4c-0.7,0-1.1,0.3-1.3,1
		c-0.6-0.1-1.2,0-1.9,0.4c-0.2,0.2-0.4,0.3-0.6,0.3c0,0.1,0,0.2,0,0.4h-0.6c-0.1,0.2-0.3,0.4-0.5,0.7c-0.2,0.2-0.4,0.4-0.5,0.5
		c-0.2,0.1-0.3,0.1-0.4,0.1c-0.1,0.3-0.4,0.7-0.8,1.1c-0.4,0.4-0.7,0.9-0.8,1.2c-0.1,0.1-0.2,0.2-0.4,0.4c-0.1,0.1-0.3,0.3-0.5,0.4
		c-0.4,0.9-0.8,1.7-1.3,2.3c0,0.1,0,0.3,0.1,0.7c0,0.3,0.1,0.6,0.1,0.7l0.4,0.1c0.1,0.1,0.2,0.3,0.2,0.5s0.1,0.4,0.1,0.4
		c0,0.1,0.1,0.2,0.4,0.4c0.4,0.5,0.6,0.7,0.7,0.7c0.3-0.2,0.5-0.2,0.7-0.1c-0.1,0.4,0,0.6,0.4,0.7c0.4,0.1,0.6,0.2,0.6,0.3
		c0.3-0.1,0.8,0.1,1.5,0.4c0.1,0,0.1,0,0.1-0.1s0-0.1,0.1-0.1c0.4,0.5,1.1,0.6,2.2,0.4c1.1-0.2,2-0.1,2.6,0.1
		c0.9-0.3,1.4-0.3,1.6-0.1c0.1,0,0.2,0,0.2-0.1c0,0,0.1-0.1,0.2-0.1c0.2,0.1,0.9,0,2-0.1c1-0.2,1.5-0.4,1.6-0.6h1.5
		c0.2,0,0.4-0.1,0.5-0.2c0.1-0.1,0.3-0.2,0.4-0.2c0.1-0.1,0.3-0.1,0.7-0.1c0.3,0,0.6,0,0.7,0c0.8-0.2,1.2-0.3,1.3-0.3
		c0,0.1,0,0.2,0,0.4s0,0.3,0.1,0.3c0,0.1,0.2,0.1,0.5,0.1s0.6,0,0.7,0.1c-0.1,0.4-0.1,0.6-0.1,0.7c0,0.1,0.2,0.1,0.6,0.1
		c0,0.2,0,0.4,0,0.7c0.1,0.7,0.1,1.1,0,1.3c0,0.1,0,0.3,0.1,0.4c-0.4,0.2-0.7,0.5-0.9,1c-0.2,0.5,0,0.7,0.6,0.7
		c0,0.2-0.2,0.3-0.6,0.3c-0.1,0-0.2,0-0.3,0c-0.1,0.1-0.3,0.3-0.5,0.5c-0.3,0.2-0.4,0.4-0.5,0.5c-0.3,0.2-0.7,0.4-1.2,0.6
		c-0.2,0.2-0.4,0.5-0.7,0.9c-0.3,0.4-0.5,0.8-0.7,1s-0.3,0.3-0.4,0.3c-0.2,0-0.3,0-0.4,0s-0.2,0.1-0.4,0.4c-0.3,0.1-0.7,0.1-1.2,0.1
		s-1,0-1.2,0.1c-0.1,0-0.1,0.1-0.1,0.4c-0.2,0-0.5,0-1-0.1c-0.4,0-0.7,0-0.8,0.1c0,0.1,0,0.2,0,0.4c-0.9,0.1-1.4,0-1.6-0.1
		c-0.5,0-1.2,0-2.1-0.1c-0.9,0-1.6,0-2,0.1c-0.6,0.1-0.9,0.1-1,0c-0.3,0-0.8-0.1-1.5-0.3s-1.1-0.2-1.3,0c-0.4-0.2-0.6-0.4-0.7-0.6
		c-0.1,0-0.2,0-0.4,0.1C90.8,48,90.6,48,90.5,48c-0.2-0.1-0.5-0.3-0.9-0.6c-0.1,0-0.2,0-0.3,0c-0.1,0-0.2,0-0.2-0.1
		c0,0-0.2-0.1-0.4-0.3c-0.2-0.1-0.4-0.2-0.6-0.1c-0.1-0.2-0.3-0.4-0.7-0.5c-0.3-0.1-0.5-0.3-0.5-0.4c-0.1,0-0.2,0-0.3,0.1
		c-0.1,0.1-0.2,0.1-0.3,0.1c0-0.1,0-0.2-0.1-0.4c0-0.1-0.1-0.2-0.2-0.3c-0.1,0-0.2,0-0.4,0.1c-1.1-1.3-2-2.2-2.8-2.8
		c-0.1-0.2-0.3-0.5-0.4-0.9c-0.1,0-0.2,0-0.3,0.1c-0.1,0.1-0.2,0.1-0.3,0c0-0.4-0.2-0.7-0.6-0.9v-0.4c0-0.1-0.1-0.2-0.4-0.4
		c0-0.3-0.1-0.6-0.4-0.9c-0.3-0.3-0.4-0.6-0.4-0.9c-0.1-0.1-0.2-0.2-0.3-0.4c-0.1-0.1-0.2-0.3-0.3-0.4c0-0.4-0.1-0.7-0.4-1
		c0.1-0.3,0.1-0.7,0-1.2s-0.1-0.8-0.1-0.9c0-0.8,0-1.2-0.1-1.2c0,0-0.1-0.1-0.2-0.1s-0.2,0-0.3,0c0-0.2,0.1-0.3,0.4-0.4
		c0.2-0.3,0.3-0.7,0.3-1.2s0-0.9,0-1.3c0.1,0,0.2-0.1,0.4-0.4c0.1-0.3,0.2-0.5,0.2-0.7c0.3-0.4,0.6-0.9,0.8-1.7
		c0.2-0.7,0.4-1.2,0.5-1.4c0.2-0.1,0.3-0.3,0.4-0.6c0.4-0.3,0.6-0.5,0.7-0.6c0.1-1,0.8-1.9,2-2.8c0-0.1,0-0.2,0-0.2s0-0.1,0-0.2
		c0.3-0.2,0.7-0.6,1.3-1.1c0.6-0.5,1.1-1,1.5-1.2c0-0.2,0-0.3,0.1-0.4c0,0,0.1,0,0.2,0.1s0.2,0.1,0.3,0.1c0.3,0,0.5-0.2,0.6-0.6
		c0.1-0.4,0.2-0.6,0.3-0.7c0.3-0.1,0.5-0.1,0.6-0.1c0.1-0.2,0.2-0.3,0.2-0.4c0,0,0.1-0.1,0.3-0.1c0.1,0,0.2,0,0.2-0.1
		c0,0,0-0.1,0.1-0.1s0.1-0.1,0.1-0.1s0.1-0.1,0.3-0.1c0.1-0.1,0.2-0.2,0.4-0.4c0.1-0.1,0.3-0.3,0.4-0.4c0-0.1,0-0.2,0-0.4
		c0.1,0,0.2,0.1,0.3,0.1c0.1,0.1,0.2,0.1,0.3,0.1l1.5-1c0.1,0,0.4,0,0.9,0c0.1,0,0.1-0.1,0.1-0.2s0-0.3,0-0.4c0.5,0.1,0.9,0,1.3-0.4
		c0.4-0.3,0.6-0.5,0.7-0.5s0.2,0,0.2,0.1s0.1,0.1,0.2,0.1c0.2,0.1,0.4,0.1,0.7,0c0.1-0.1,0.2-0.1,0.3-0.1s0.2,0,0.4,0
		c0.1,0,0.2,0,0.4-0.1c0.1-0.1,0.3-0.1,0.4-0.1c0.2-0.1,0.6-0.1,1.3-0.1c0.7,0.1,1.1,0.1,1.2,0.1c0.1,0.1,0.2,0.2,0.4,0.4
		s0.3,0.2,0.5,0.2c0.1,0.2,0.3,0.3,0.6,0.4c0.1,0.5,0.3,0.9,0.7,1.3c0.4,0.4,0.6,0.7,0.7,0.9c0,0.3,0.1,0.7,0.3,1.1
		c0.2,0.4,0.3,0.7,0.3,0.8s-0.1,0.3-0.4,0.7c0,0.6-0.1,1-0.3,1.3c-0.2,0.2-0.3,0.3-0.3,0.4c0,0.1,0.1,0.2,0.2,0.4s0.2,0.3,0.2,0.4
		C103.8,22.3,103.6,22.6,103.7,22.8z M104.1,21.9c-0.4,0.4-0.5,0.7-0.4,0.9l-0.6,0.3c-0.1,0-0.3,0-0.5,0s-0.4,0-0.5,0
		c-0.1,0.1-0.2,0.2-0.2,0.3s-0.1,0.1-0.2,0.1c-0.4,0.1-0.7,0.3-0.9,0.6h-0.6c-0.1,0.2-0.3,0.3-0.7,0.4c-0.4,0.1-0.6,0.1-0.7,0.2
		c0,0.2,0,0.3,0,0.4c-0.7,0-1.1,0.3-1.3,1c-0.6-0.1-1.2,0-1.9,0.4c-0.2,0.2-0.4,0.3-0.6,0.3c0,0.1,0,0.2,0,0.4h-0.6
		c-0.1,0.2-0.3,0.4-0.5,0.7c-0.2,0.2-0.4,0.4-0.5,0.5c-0.2,0.1-0.3,0.1-0.4,0.1c-0.1,0.3-0.4,0.7-0.8,1.1c-0.4,0.4-0.7,0.9-0.8,1.2
		c-0.1,0.1-0.2,0.2-0.4,0.4c-0.1,0.1-0.3,0.3-0.5,0.4c-0.4,0.9-0.8,1.7-1.3,2.3c0,0.1,0,0.3,0.1,0.7c0,0.3,0.1,0.6,0.1,0.7l0.4,0.1
		c0.1,0.1,0.2,0.3,0.2,0.5s0.1,0.4,0.1,0.4c0,0.1,0.1,0.2,0.4,0.4c0.4,0.5,0.6,0.7,0.7,0.7c0.3-0.2,0.5-0.2,0.7-0.1
		c-0.1,0.4,0,0.6,0.4,0.7c0.4,0.1,0.6,0.2,0.6,0.3c0.3-0.1,0.8,0.1,1.5,0.4c0.1,0,0.1,0,0.1-0.1s0-0.1,0.1-0.1
		c0.4,0.5,1.1,0.6,2.2,0.4c1.1-0.2,2-0.1,2.6,0.1c0.9-0.3,1.4-0.3,1.6-0.1c0.1,0,0.2,0,0.2-0.1c0,0,0.1-0.1,0.2-0.1
		c0.2,0.1,0.9,0,2-0.1c1-0.2,1.5-0.4,1.6-0.6h1.5c0.2,0,0.4-0.1,0.5-0.2c0.1-0.1,0.3-0.2,0.4-0.2c0.1-0.1,0.3-0.1,0.7-0.1
		c0.3,0,0.6,0,0.7,0c0.8-0.2,1.2-0.3,1.3-0.3c0,0.1,0,0.2,0,0.4s0,0.3,0.1,0.3c0,0.1,0.2,0.1,0.5,0.1s0.6,0,0.7,0.1
		c-0.1,0.4-0.1,0.6-0.1,0.7c0,0.1,0.2,0.1,0.6,0.1c0,0.2,0,0.4,0,0.7c0.1,0.7,0.1,1.1,0,1.3c0,0.1,0,0.3,0.1,0.4
		c-0.4,0.2-0.7,0.5-0.9,1c-0.2,0.5,0,0.7,0.6,0.7c0,0.2-0.2,0.3-0.6,0.3c-0.1,0-0.2,0-0.3,0c-0.1,0.1-0.3,0.3-0.5,0.5
		c-0.3,0.2-0.4,0.4-0.5,0.5c-0.3,0.2-0.7,0.4-1.2,0.6c-0.2,0.2-0.4,0.5-0.7,0.9c-0.3,0.4-0.5,0.8-0.7,1s-0.3,0.3-0.4,0.3
		c-0.2,0-0.3,0-0.4,0s-0.2,0.1-0.4,0.4c-0.3,0.1-0.7,0.1-1.2,0.1s-1,0-1.2,0.1c-0.1,0-0.1,0.1-0.1,0.4c-0.2,0-0.5,0-1-0.1
		c-0.4,0-0.7,0-0.8,0.1c0,0.1,0,0.2,0,0.4c-0.9,0.1-1.4,0-1.6-0.1c-0.5,0-1.2,0-2.1-0.1c-0.9,0-1.6,0-2,0.1c-0.6,0.1-0.9,0.1-1,0
		c-0.3,0-0.8-0.1-1.5-0.3s-1.1-0.2-1.3,0c-0.4-0.2-0.6-0.4-0.7-0.6c-0.1,0-0.2,0-0.4,0.1C90.8,48,90.6,48,90.5,48
		c-0.2-0.1-0.5-0.3-0.9-0.6c-0.1,0-0.2,0-0.3,0c-0.1,0-0.2,0-0.2-0.1c0,0-0.2-0.1-0.4-0.3c-0.2-0.1-0.4-0.2-0.6-0.1
		c-0.1-0.2-0.3-0.4-0.7-0.5c-0.3-0.1-0.5-0.3-0.5-0.4c-0.1,0-0.2,0-0.3,0.1c-0.1,0.1-0.2,0.1-0.3,0.1c0-0.1,0-0.2-0.1-0.4
		c0-0.1-0.1-0.2-0.2-0.3c-0.1,0-0.2,0-0.4,0.1c-1.1-1.3-2-2.2-2.8-2.8c-0.1-0.2-0.3-0.5-0.4-0.9c-0.1,0-0.2,0-0.3,0.1
		c-0.1,0.1-0.2,0.1-0.3,0c0-0.4-0.2-0.7-0.6-0.9v-0.4c0-0.1-0.1-0.2-0.4-0.4c0-0.3-0.1-0.6-0.4-0.9c-0.3-0.3-0.4-0.6-0.4-0.9
		c-0.1-0.1-0.2-0.2-0.3-0.4c-0.1-0.1-0.2-0.3-0.3-0.4c0-0.4-0.1-0.7-0.4-1c0.1-0.3,0.1-0.7,0-1.2s-0.1-0.8-0.1-0.9
		c0-0.8,0-1.2-0.1-1.2c0,0-0.1-0.1-0.2-0.1s-0.2,0-0.3,0c0-0.2,0.1-0.3,0.4-0.4c0.2-0.3,0.3-0.7,0.3-1.2s0-0.9,0-1.3
		c0.1,0,0.2-0.1,0.4-0.4c0.1-0.3,0.2-0.5,0.2-0.7c0.3-0.4,0.6-0.9,0.8-1.7c0.2-0.7,0.4-1.2,0.5-1.4c0.2-0.1,0.3-0.3,0.4-0.6
		c0.4-0.3,0.6-0.5,0.7-0.6c0.1-1,0.8-1.9,2-2.8c0-0.1,0-0.2,0-0.2s0-0.1,0-0.2c0.3-0.2,0.7-0.6,1.3-1.1c0.6-0.5,1.1-1,1.5-1.2
		c0-0.2,0-0.3,0.1-0.4c0,0,0.1,0,0.2,0.1s0.2,0.1,0.3,0.1c0.3,0,0.5-0.2,0.6-0.6c0.1-0.4,0.2-0.6,0.3-0.7c0.3-0.1,0.5-0.1,0.6-0.1
		c0.1-0.2,0.2-0.3,0.2-0.4c0,0,0.1-0.1,0.3-0.1c0.1,0,0.2,0,0.2-0.1c0,0,0-0.1,0.1-0.1s0.1-0.1,0.1-0.1s0.1-0.1,0.3-0.1
		c0.1-0.1,0.2-0.2,0.4-0.4c0.1-0.1,0.3-0.3,0.4-0.4c0-0.1,0-0.2,0-0.4c0.1,0,0.2,0.1,0.3,0.1c0.1,0.1,0.2,0.1,0.3,0.1l1.5-1
		c0.1,0,0.4,0,0.9,0c0.1,0,0.1-0.1,0.1-0.2s0-0.3,0-0.4c0.5,0.1,0.9,0,1.3-0.4c0.4-0.3,0.6-0.5,0.7-0.5s0.2,0,0.2,0.1
		s0.1,0.1,0.2,0.1c0.1,0.1,0.4,0.1,1-0.1c0.1,0,0.2,0,0.4,0c0.1,0,0.2,0,0.4-0.1c0.1-0.1,0.3-0.1,0.4-0.1c0.2-0.1,0.6-0.1,1.3-0.1
		c0.7,0.1,1.1,0.1,1.2,0.1c0.1,0.1,0.2,0.2,0.4,0.4s0.3,0.2,0.5,0.2c0.1,0.2,0.3,0.3,0.6,0.4c0.1,0.5,0.3,0.9,0.7,1.3
		c0.4,0.4,0.6,0.7,0.7,0.9c0,0.3,0.1,0.7,0.3,1.1c0.2,0.4,0.3,0.7,0.3,0.8s-0.1,0.3-0.4,0.7c0,0.6-0.1,1-0.3,1.3
		c-0.2,0.2-0.3,0.3-0.3,0.4c0,0.1,0.1,0.2,0.2,0.4C104.1,21.7,104.1,21.8,104.1,21.9z"/>
	<path fill="#C5E0B4" d="M122-4.3c-0.1-0.5,0.3-0.6,1.2-0.4c0.1,0.3,0.4,0.6,0.9,0.9c0.1,0,0.2,0,0.3-0.1c0.1,0,0.2,0.1,0.3,0.1
		c0.1,0,0.4,0,0.8,0s0.7,0,0.7,0.1c0,0,0,0.2,0.1,0.4c0,0.2,0.1,0.4,0.2,0.4s0.1-0.1,0.1-0.2c0-0.1,0-0.3,0.1-0.4
		c0.1,0,0.1,0.1,0.1,0.3s0,0.3,0.1,0.3c-0.1,0.3,0,0.5,0.2,0.7s0.3,0.4,0.2,0.6c0.1,0.1,0.2,0.2,0.3,0.2c0.1,0.1,0.2,0.1,0.3,0.2
		v0.6c0.1,0.1,0.2,0.2,0.3,0.2c0.1,0.1,0.2,0.1,0.3,0.2c0,0.2-0.1,0.5-0.1,1c-0.1,1,0.1,1.5,0.6,1.6c0,0.1,0,0.3-0.1,0.6
		c0.2,0.2,0.2,0.5,0.1,1c-0.1,0.5-0.1,0.8,0.1,0.9l0.4,0.1c0,1.4,0.1,2.1,0.3,2.3c0,0.8,0.1,1.3,0.3,1.5c0.3,0,0.4,0,0.4,0.1
		s-0.1,0.3-0.3,0.7c0.1,1.4,0.3,2.1,0.6,2.3c-0.1,0.4,0,0.7,0.4,0.9c-0.1,0.9-0.1,1.5,0.1,1.9c-0.3,0.5-0.2,1,0.3,1.5
		c-0.1,1,0,1.6,0.4,1.9c-0.1,0.3,0,0.7,0.4,1.2c-0.1,0.5,0,0.8,0.1,0.9c0.9-0.5,1.6-1.2,2-2c0.1,0,0.2,0,0.3,0
		c0.2-0.1,0.4-0.4,0.7-0.9c0.2-0.5,0.5-0.8,0.8-0.9c0.1-0.2,0.3-0.4,0.6-0.7c0.3-0.3,0.5-0.6,0.6-0.9c0-0.1,0-0.2,0.1-0.3
		c0.1-0.1,0.2-0.2,0.3-0.3v-0.4c0.1-0.1,0.2-0.3,0.4-0.6c0-0.1,0-0.3,0-0.6s0-0.5,0-0.6c0.2-0.2,0.3-0.5,0.4-0.9
		c0.2,0,0.3-0.6,0.4-1.9c-0.2-0.1-0.3-0.2-0.3-0.3V8.3c0.2-0.2,0.3-0.4,0.2-0.7c-0.1-0.3-0.2-0.5-0.4-0.6c0-0.1,0.1-0.2,0.1-0.3
		c0.1-0.1,0.1-0.2,0.1-0.3c-0.4-0.4-0.5-0.6-0.4-0.7c0-0.1,0.1-0.1,0.3,0c0.3-0.6,0.5-0.9,0.7-0.9c0.1-0.3,0.1-0.6-0.1-0.8
		c-0.1-0.2-0.2-0.5-0.2-0.7c0.2,0,0.4,0,0.5,0.1c0.1,0,0.3,0.1,0.4,0.1c0.1-0.1,0.2-0.2,0.3-0.4c0.1-0.2,0.2-0.3,0.3-0.4
		c0.2,0,0.4,0,0.6-0.1c0.1-0.1,0.2-0.1,0.3-0.1c0.2,0.3,0.5,0.4,1,0.3c0.4-0.1,0.7-0.3,0.7-0.7c0.1,0,0.2,0,0.4,0l0.1,0.7l0.7-0.3
		c0.1,0.4,0.2,0.6,0.3,0.6c0.2-0.1,0.5,0,0.9,0.1c0.4-0.2,0.7-0.2,0.9-0.1c0.1,0.5,0.5,0.8,1.3,1c0.1,0,0.1,0.1,0.1,0.2s0,0.2,0,0.3
		s0,0.1,0.1,0.2s0.1,0.3,0.1,0.6c0,0.5,0.2,0.7,0.6,0.6c0.1,0.1,0.1,0.2,0.1,0.4c0,0.1,0,0.2,0,0.3c-0.4,0.2-0.5,0.6-0.4,1.3
		c0.1,0.1,0.2,0.2,0.4,0.4c0.1,0.2,0.2,0.4,0.2,0.6c0.1,0,0.2,0,0.3,0.1c0.1,0,0.2,0.1,0.3,0.2c0,0.1-0.1,0.2-0.4,0.4
		c0,0.1,0,0.2,0.1,0.4c-0.3,0.2-0.4,0.4-0.3,0.6c0.1,0.2,0.2,0.3,0.4,0.4c0.1,0.1,0,0.2-0.1,0.4c-0.2,0.1-0.3,0.3-0.3,0.4
		c-0.1,0.2-0.1,0.5-0.1,0.8s0.1,0.6,0.1,0.8c0,0.1,0.1,0.2,0.3,0.3c0,0.6,0,0.9-0.1,1c-0.3-0.1-0.4,0-0.4,0.1s0,0.2,0.1,0.4
		c0,0.2,0,0.3-0.1,0.4h-0.3c-0.3,0-0.4,0.2-0.4,0.6s0,0.7-0.1,1c0,0.1-0.1,0.2-0.2,0.3s0.2,0.4,0.2,0.5v0.4
		c-0.3,0.2-0.5,0.6-0.7,1.2c-0.1,0.6-0.4,1-0.7,1.2c0,0.1,0,0.2,0,0.3c-0.2,0.2-0.3,0.4-0.4,0.6c0,0.1,0,0.3-0.1,0.4
		c0,0.2-0.1,0.3-0.1,0.4c-0.1,0-0.2,0-0.3-0.1c-0.1,0-0.2-0.1-0.3-0.1c-0.1-0.1-0.3,0.1-0.7,0.7c0.1,0.2,0.1,0.4-0.1,0.7
		c-0.1,0.2-0.2,0.5-0.2,0.7H144c0.1,0.2,0.1,0.3,0,0.4c-0.7-0.1-1.1,0.3-1.2,1.2c-0.3,0-0.6,0.2-0.9,0.6c-0.2,0.2-0.3,0.3-0.4,0.3
		c-0.1,0.1-0.2,0.2-0.3,0.2c-0.1,0.1-0.2,0.1-0.2,0.1s-0.1,0.1-0.1,0.2c-0.1,0.1-0.1,0.2-0.1,0.2c0,0.1-0.1,0.1-0.2,0.1
		c-0.1,0-0.1,0-0.1,0.1c0.1,0.2,0.3,0.3,0.5,0.2c0.2,0,0.4-0.1,0.5-0.1c0.3,0.3,0.5,0.4,0.6,0.4c0,0.1,0,0.1,0.1,0
		c0-0.1,0.1-0.1,0.2-0.1c0.1,0,0.2,0,0.3,0c0.3,0,0.5,0,0.7,0c0,0.1,0,0.2-0.1,0.3c0.1,0.3,0.5,0.4,1.2,0.4c0.3-0.3,0.6-0.3,0.9-0.1
		c0.1,0.4,0.2,0.6,0.4,0.6c0.1-0.1,0.7-0.1,1.8-0.1c0,0.1,0,0.2,0,0.3s0.2,0.1,0.6,0.1c0.1,0.1,0.2,0.3,0.3,0.6
		c0.3,0.1,0.5,0,0.6-0.4c0.7,0,1,0.1,1,0.3c0.2,0.1,0.7,0.1,1.6,0.1c0.9,0,1.4,0,1.5,0.1c0.1,0,0.2,0,0.2,0h0.1c0,0,0.2,0.1,0.4,0.3
		c0.4-0.3,0.8-0.4,1.3-0.3c0,0.4,0.1,0.6,0.3,0.7c0.2-0.2,0.3-0.3,0.4-0.3c0.3,0.4,0.7,0.5,1.2,0.4c0.6-0.3,0.9-0.4,1-0.3
		c0.1,0,0.1,0.1,0,0.3c0.3,0.3,0.7,0.2,1.3-0.3h1c0,0.1,0,0.2-0.1,0.3c0.3,0.4,0.6,0.4,1,0.1c0.1,0.1,0.2,0.2,0.2,0.2
		c0,0.1,0.1,0.1,0.2,0.1c0.1,0,0.3-0.1,0.5-0.2c0.2-0.1,0.4-0.1,0.4,0.1c0.1,0,0.1,0,0.1,0.1c-0.1,0.1-0.1,0.1-0.1,0.2
		c0.1,0.1,0.3,0.2,0.7,0.4c0.3,0.1,0.6,0.3,0.7,0.4c0,0.1,0,0.1,0.1,0c0-0.1,0.1-0.1,0.2-0.1c0.1,0.1,0.2,0.3,0.4,0.7
		c0.2,0.3,0.4,0.6,0.6,0.7c0,0.2,0,0.3-0.1,0.4c0.7,0.4,0.9,0.9,0.6,1.5c0,0.1,0.1,0.2,0.3,0.4c0.2,0.1,0.3,0.3,0.3,0.4
		c0,0.1,0,0.3-0.1,0.5s0,0.4,0.1,0.5c-0.5,0-0.9,0.2-1.2,0.6c0.2,0.2,0.2,0.3,0.1,0.4c-0.2,0.1-0.4,0.1-0.6-0.1
		c-0.3,0.4-0.4,0.8-0.3,1.3c-0.1,0.1-0.3,0.1-0.5-0.1c-0.3-0.1-0.5-0.1-0.7,0s-0.5,0.6-0.9,1.2c-0.1,0-0.2,0-0.4-0.1
		c-0.3,0.2-0.9,0.3-1.8,0.2c-0.9,0-1.6,0-2,0.1c-0.1,0.1-0.2,0.2-0.3,0.4c-0.1-0.1-0.2-0.2-0.3-0.4c-0.1-0.1-0.2-0.2-0.3-0.2
		c-0.3,0-0.7,0-1.2-0.1s-0.8-0.1-1,0c-0.2-0.1-0.5-0.2-0.9-0.2s-0.7,0-0.9,0.2c-0.1,0-0.6,0-1.6,0c-0.1,0-0.1-0.1,0-0.3
		c0-0.2-0.1-0.3-0.3-0.3s-0.3,0-0.4,0.1c0,0.1,0,0.2,0.1,0.2c0,0.1,0.1,0.1,0.1,0.2c-0.1,0.1-0.3,0.1-0.7,0c0-0.1,0-0.2,0.1-0.3
		c-0.1-0.1-0.3-0.2-0.7-0.4c-0.4-0.1-0.6-0.3-0.7-0.4c-0.3,0.2-0.7,0.1-1.3-0.1c-0.4,0.4-0.7,0.4-1,0c-0.3,0-0.7,0-1.3,0
		s-0.9,0.1-1,0.1h-0.7l-0.1-0.1c-0.2,0.1-0.3,0.1-0.4,0.1c-0.1-0.4-0.5-0.5-1.2-0.4c-0.6,0-1,0-1.2-0.1l-0.1-0.3H139
		c-0.1-0.1-0.1-0.2-0.1-0.3s-0.1-0.2-0.1-0.3c-0.2-0.1-0.4-0.1-0.6,0.1c-0.2,0.1-0.4,0.2-0.6,0.2c0.1-0.5,0-0.7-0.3-0.7
		c-0.3,0.2-0.5,0.2-0.7,0.1l0.1-0.3c-0.1-0.3-0.3-0.3-0.6,0c0.2,0.1,0.3,0.2,0.3,0.3c-0.1,0.1-0.2,0.1-0.4,0c-0.1,0-0.1-0.1,0-0.3
		c0-0.1-0.1-0.2-0.4-0.3c-0.3,0-0.4,0.3-0.4,0.9s0,1,0,1.3c-0.5,0-0.7,0.5-0.6,1.5c0.1,0.5,0.1,0.8,0,1l-0.3,0.1
		c-0.1,0.2-0.2,0.5-0.2,0.9c-0.1,0.4-0.1,0.8-0.1,1c-0.3,0.1-0.3,0.3-0.1,0.7c0,0.1,0,0.2,0,0.3h-0.1h-0.1c-0.1,0.1-0.2,0.3-0.4,0.5
		c-0.1,0.2-0.3,0.4-0.4,0.5c0,0.3-0.1,0.6-0.4,0.8c-0.2,0.2-0.4,0.4-0.4,0.5c-0.1,0.1-0.2,0.1-0.3,0s-0.2-0.1-0.3-0.1
		c-0.5,0.6-0.9,0.8-1.2,0.6c-0.4,0-0.4,0.2-0.1,0.6c-0.1,0.2-0.5,0.3-1.3,0.3c-0.1,0-0.2,0-0.2,0.1c0,0.1-0.1,0.1-0.2,0.1
		c-0.2,0-0.4-0.1-0.7-0.3s-0.5-0.3-0.7-0.3c0-0.3-0.1-0.4-0.1-0.4h-0.6c-0.1-0.1-0.1-0.2-0.1-0.2c0.1,0,0.1-0.1,0.1-0.2l-0.3-0.1
		c0-0.3-0.2-0.7-0.7-1.3c0.1-0.2,0.1-0.3,0-0.4c-0.1-0.1-0.2-0.1-0.4-0.1c-0.1-0.4-0.1-0.6,0-0.6c0-0.2-0.1-0.4-0.3-0.6
		c-0.1-0.2-0.1-0.5-0.1-0.9s0.1-0.7,0.1-0.8s-0.1-0.2-0.2-0.4c-0.1-0.1-0.2-0.3-0.1-0.5c0.2,0.1,0.3,0.1,0.4,0
		c0.3-0.2,0.4-0.5,0.3-0.9c0-0.1-0.1-0.2-0.1-0.3c-0.1-0.1-0.1-0.2-0.1-0.3s0.1-0.6,0.1-1.6h0.3c0.5-2,0.5-3.5,0-4.5
		c-0.2,0.1-0.3,0.1-0.3,0s0-0.2-0.1-0.4c0-0.4,0.1-0.6,0.1-0.7c0.2,0.1,0.3,0.1,0.3,0c0-0.2,0-0.2-0.1-0.1h-0.1
		c-0.1-0.4-0.1-0.9-0.1-1.6c0-0.1,0.1-0.2,0.1-0.4c0.1-0.6-0.1-0.9-0.6-0.9v-0.3c0-0.1,0-0.1,0.1-0.1s0.2,0.1,0.3,0.1
		c0.1-0.1,0.1-0.2,0.1-0.4c0-0.1,0-0.2-0.1-0.2s-0.2,0-0.2,0c-0.1,0-0.1,0-0.2,0c-0.1-0.2-0.1-0.4-0.1-0.7c0-0.2,0.2-0.4,0.4-0.5
		c0-1.1-0.1-1.8-0.4-2c-0.1-0.1-0.1-0.3,0-0.7c-0.3-0.1-0.4-0.2-0.4-0.3c0.1-0.1,0.2-0.2,0.3-0.4c0.1-0.1,0.1-0.3,0.1-0.5
		c-0.1-0.1-0.2-0.2-0.4-0.3c-0.1-0.1-0.2-0.2-0.2-0.3c0.2-0.8,0-1.2-0.4-1.2c-0.1-0.2-0.1-0.4-0.1-0.6c0-0.2,0-0.3-0.1-0.4
		c-0.1-0.2-0.1-0.3-0.1-0.4c-0.1-0.1-0.1-0.3-0.1-0.6c0-0.6-0.2-0.9-0.6-1c0-0.1,0-0.2-0.1-0.4c-0.1-0.1,0-0.3,0.1-0.4
		c0.1-0.2,0.1-0.3,0.1-0.4c0.1-0.2,0.1-0.5,0-0.9c0-0.4-0.2-0.6-0.7-0.7c0-0.1,0-0.2,0-0.4c0.3-0.1,0.4-0.3,0.3-0.7
		c0-0.1-0.2-0.2-0.7-0.4c0-0.1,0-0.2,0.1-0.2c0-0.1,0.1-0.1,0.2-0.1c0-1.3-0.2-1.9-0.6-2c-0.1-0.2-0.1-0.4,0-0.7
		c0.1-0.3,0.1-0.5,0-0.6c0-0.1-0.1-0.2-0.1-0.4c-0.1-0.2-0.2-0.3-0.3-0.4c0-0.1,0-0.3,0-0.5s0-0.4,0-0.5l-0.4-0.3
		c-0.2-0.1-0.2-0.3-0.1-0.6c0.1-0.3,0.2-0.5,0.3-0.6c0-0.1-0.2-0.4-0.6-1s-0.4-1,0-1.2c0-0.3-0.2-0.5-0.7-0.7v-2
		c0.3-0.2,0.4-0.5,0.3-0.8s-0.3-0.5-0.7-0.4c0-0.1,0-0.2,0.1-0.3c0.1-0.1,0.1-0.2,0.1-0.3v-1c-0.2-0.2-0.3-0.3-0.3-0.4l0.3-1.3
		c0.3-0.2,0.4-0.3,0.4-0.4c0-0.8,0.2-1.2,0.7-1.2c0.3-0.2,0.5-0.5,0.6-1C120.3-4.3,120.9-4.3,122-4.3z M123.2-4.7
		c0.1,0.3,0.4,0.6,0.9,0.9c0.1,0,0.2,0,0.3-0.1c0.1,0,0.2,0.1,0.3,0.1c0.1,0,0.4,0,0.8,0s0.7,0,0.7,0.1c0,0,0,0.2,0.1,0.4
		c0,0.2,0.1,0.4,0.2,0.4s0.1-0.1,0.1-0.2c0-0.1,0-0.3,0.1-0.4c0.1,0,0.1,0.1,0.1,0.3s0,0.3,0.1,0.3c-0.1,0.3,0,0.5,0.2,0.7
		s0.3,0.4,0.2,0.6c0.1,0.1,0.2,0.2,0.3,0.2c0.1,0.1,0.2,0.1,0.3,0.2v0.6c0,0.1,0.1,0.2,0.2,0.2c0.1,0.1,0.3,0.1,0.4,0.2
		c0,0.2-0.1,0.5-0.1,1c-0.1,1,0.1,1.5,0.6,1.6c0,0.1,0,0.3-0.1,0.6c0.2,0.2,0.2,0.5,0.1,1c-0.1,0.5-0.1,0.8,0.1,0.9l0.4,0.1
		c0,1.4,0.1,2.1,0.3,2.3c0,0.8,0.1,1.3,0.3,1.5c0.3,0,0.4,0,0.4,0.1s-0.1,0.3-0.3,0.7c0.1,1.4,0.3,2.1,0.6,2.2c-0.1,0.5,0,0.8,0.4,1
		c-0.1,0.9-0.1,1.5,0.1,1.8c-0.3,0.6-0.2,1.1,0.3,1.6c-0.1,1,0,1.6,0.4,1.9c-0.1,0.3,0,0.7,0.4,1.2c-0.1,0.5,0,0.8,0.1,0.9
		c0.9-0.5,1.6-1.2,2-2c0.1,0,0.2,0,0.3,0c0.2-0.1,0.4-0.4,0.7-0.9c0.2-0.5,0.5-0.8,0.8-0.9c0.1-0.2,0.3-0.4,0.6-0.7
		c0.3-0.3,0.5-0.6,0.6-0.9c0-0.1,0-0.2,0.1-0.3c0.1-0.1,0.2-0.2,0.3-0.3v-0.4c0.1-0.1,0.2-0.3,0.4-0.6c0-0.1,0-0.3,0-0.6
		s0-0.5,0-0.7c0.2-0.1,0.3-0.3,0.4-0.7c0.2,0,0.3-0.6,0.4-1.9c-0.2-0.1-0.3-0.2-0.3-0.3V8.4c0.2-0.2,0.3-0.4,0.2-0.7
		c-0.1-0.3-0.2-0.5-0.4-0.6c0-0.1,0.1-0.2,0.1-0.3c0.1-0.1,0.1-0.2,0.1-0.3c-0.4-0.4-0.5-0.6-0.4-0.7c0-0.1,0.1-0.1,0.3,0
		c0.3-0.6,0.5-0.9,0.7-0.9c0.1-0.3,0.1-0.6-0.1-0.8c-0.1-0.2-0.2-0.5-0.2-0.7c0.2,0,0.4,0,0.5,0.1c0.1,0,0.3,0.1,0.4,0.1
		c0.1-0.1,0.2-0.2,0.3-0.4c0.1-0.2,0.2-0.3,0.3-0.4c0.2,0,0.4,0,0.6-0.1c0.1-0.1,0.2-0.1,0.3-0.1c0.2,0.3,0.5,0.4,1,0.3
		c0.4-0.1,0.7-0.3,0.7-0.7c0.1,0,0.2,0,0.4,0l0.1,0.7l0.7-0.3c0.1,0.4,0.2,0.6,0.3,0.6c0.2-0.1,0.5,0,0.9,0.1
		c0.4-0.2,0.7-0.2,0.9-0.1c0.1,0.5,0.5,0.8,1.3,1c0.1,0,0.1,0.1,0.1,0.2s0,0.2,0,0.3s0,0.1,0.1,0.2s0.1,0.3,0.1,0.6
		c0,0.5,0.2,0.7,0.6,0.6c0.1,0.1,0.1,0.2,0.1,0.4c0,0.1,0,0.2,0,0.3c-0.4,0.2-0.5,0.6-0.4,1.3c0.1,0.1,0.2,0.2,0.4,0.4
		c0.1,0.2,0.2,0.4,0.2,0.6c0.1,0,0.2,0,0.3,0.1c0.1,0,0.2,0.1,0.3,0.2c0,0.1-0.1,0.2-0.4,0.4c0,0.1,0,0.2,0.1,0.4
		c-0.3,0.2-0.4,0.4-0.3,0.6c0.1,0.2,0.2,0.3,0.4,0.4c0.1,0.1,0,0.2-0.1,0.4c-0.2,0.1-0.3,0.3-0.3,0.4c-0.1,0.2-0.1,0.5-0.1,0.8
		s0.1,0.6,0.1,0.8c0,0.1,0.1,0.2,0.3,0.3c0,0.6,0,0.9-0.1,0.9c-0.3,0-0.4,0.1-0.4,0.3c0,0.1,0,0.2,0.1,0.4c0,0.2,0,0.3-0.1,0.4h-0.3
		c-0.3,0-0.4,0.2-0.4,0.6s0,0.7-0.1,1c0,0.1-0.1,0.2-0.2,0.3s0.2,0.2,0.2,0.3v0.4c-0.3,0.2-0.5,0.6-0.7,1.2c-0.1,0.6-0.4,1-0.7,1.2
		c0,0.1,0,0.2,0,0.3c-0.2,0.2-0.3,0.4-0.4,0.6c0,0.1,0,0.3-0.1,0.4c0,0.2-0.1,0.3-0.1,0.4c-0.1,0-0.2,0-0.3-0.1
		c-0.1,0-0.2-0.1-0.3-0.2c-0.1,0-0.3,0.3-0.7,0.9c0.1,0.2,0.1,0.4-0.1,0.7c-0.1,0.2-0.2,0.5-0.2,0.7H144c0.1,0.2,0.1,0.3,0,0.4
		c-0.7-0.1-1.1,0.3-1.2,1.2c-0.3,0-0.6,0.2-0.9,0.6c-0.2,0.2-0.3,0.3-0.4,0.3c-0.1,0.1-0.2,0.2-0.3,0.2c-0.1,0.1-0.2,0.1-0.2,0.1
		s-0.1,0.1-0.1,0.2c-0.1,0.1-0.1,0.2-0.1,0.2c0,0.1-0.1,0.1-0.2,0.1c-0.1,0-0.1,0-0.1,0.1c0.1,0.2,0.3,0.3,0.5,0.2
		c0.2,0,0.4-0.1,0.5-0.1c0.3,0.3,0.5,0.4,0.6,0.4c0,0.1,0,0.1,0.1,0c0-0.1,0.1-0.1,0.2-0.1h0.3c0.3,0,0.5,0,0.7,0
		c0,0.1,0,0.2-0.1,0.3c0.1,0.3,0.5,0.4,1.2,0.4c0.3-0.3,0.6-0.3,0.9-0.1c0.1,0.4,0.2,0.6,0.4,0.6c0.1-0.1,0.7-0.1,1.8-0.1
		c0,0.1,0,0.2,0,0.3s0.2,0.1,0.6,0.1c0.1,0.1,0.2,0.3,0.3,0.6c0.3,0.1,0.5,0,0.6-0.4c0.7,0,1,0.1,1,0.3c0.2,0.1,0.7,0.1,1.6,0.1
		c0.9,0,1.4,0,1.5,0.1c0.1,0,0.2,0,0.2,0h0.1c0,0,0.2,0.1,0.4,0.3c0.4-0.3,0.8-0.4,1.3-0.3c0,0.4,0.1,0.6,0.3,0.7
		c0.2-0.2,0.3-0.3,0.4-0.3c0.3,0.4,0.7,0.5,1.2,0.4c0.6-0.3,0.9-0.4,1-0.3c0.1,0,0.1,0.1,0,0.3c0.3,0.3,0.7,0.2,1.3-0.3h1
		c0,0.1,0,0.2-0.1,0.3c0.3,0.4,0.6,0.4,1,0.1c0.1,0.1,0.2,0.2,0.2,0.2c0,0.1,0.1,0.1,0.2,0.1c0.1,0,0.3-0.1,0.5-0.2
		c0.2-0.1,0.4-0.1,0.4,0.1c0.1,0,0.1,0,0.1,0.1c-0.1,0.1-0.1,0.1-0.1,0.2c0.1,0.1,0.3,0.2,0.7,0.4c0.3,0.1,0.6,0.3,0.7,0.4
		c0,0.1,0,0.1,0.1,0c0-0.1,0.1-0.1,0.2-0.1c0.1,0.1,0.2,0.3,0.4,0.7c0.2,0.3,0.4,0.6,0.6,0.7c0,0.2,0,0.3-0.1,0.4
		c0.7,0.4,0.9,0.9,0.6,1.5c0,0.1,0.1,0.2,0.3,0.4c0.2,0.1,0.3,0.3,0.3,0.4c0,0.1,0,0.3-0.1,0.5s0,0.4,0.1,0.5
		c-0.5,0-0.9,0.2-1.2,0.6c0.2,0.2,0.2,0.3,0.1,0.4c-0.2,0.1-0.4,0.1-0.6-0.1c-0.3,0.4-0.4,0.8-0.3,1.3c-0.1,0.1-0.3,0.1-0.5-0.1
		c-0.3-0.1-0.5-0.1-0.7,0s-0.5,0.6-0.9,1.2c-0.1,0-0.2,0-0.4-0.1c-0.3,0.2-0.9,0.3-1.8,0.2c-0.9,0-1.6,0-2,0.1
		c-0.1,0.1-0.2,0.2-0.3,0.4c-0.1-0.1-0.2-0.2-0.3-0.4c-0.1-0.1-0.2-0.2-0.3-0.2c-0.3,0-0.7,0-1.2-0.1s-0.8-0.1-1,0
		c-0.2-0.1-0.5-0.2-0.9-0.2s-0.7,0-0.9,0.2c-0.1,0-0.6,0-1.6,0c-0.1,0-0.1-0.1,0-0.3c0-0.2-0.1-0.3-0.3-0.3s-0.3,0-0.4,0.1
		c0,0.1,0,0.2,0.1,0.2c0,0.1,0.1,0.1,0.1,0.2c-0.1,0.1-0.3,0.1-0.7,0c0-0.1,0-0.2,0.1-0.3c-0.1-0.1-0.3-0.2-0.7-0.4
		c-0.4-0.1-0.6-0.3-0.7-0.4c-0.3,0.2-0.7,0.1-1.3-0.1c-0.4,0.4-0.7,0.4-1,0c-0.3,0-0.7,0-1.3,0s-0.9,0.1-1,0.1h-0.7l-0.1-0.1
		c-0.2,0.1-0.3,0.1-0.4,0.1c-0.1-0.4-0.5-0.6-1.2-0.6c-0.6,0.1-1,0.1-1.2,0l-0.1-0.3H139c-0.1-0.1-0.1-0.2-0.1-0.3s-0.1-0.2-0.1-0.3
		c-0.2-0.1-0.4-0.1-0.6,0.1c-0.2,0.1-0.4,0.2-0.6,0.2c0.1-0.5,0-0.7-0.3-0.7c-0.3,0.2-0.5,0.2-0.7,0.1l0.1-0.3
		c-0.1-0.3-0.3-0.3-0.6,0c0.2,0.1,0.3,0.2,0.3,0.3c-0.1,0.1-0.2,0.1-0.4,0c-0.1,0-0.1-0.1,0-0.3c0-0.1-0.1-0.2-0.4-0.3
		c-0.3,0-0.4,0.3-0.4,0.9s0,1,0,1.3c-0.5,0-0.7,0.5-0.6,1.5c0.1,0.5,0.1,0.8,0,1l-0.3,0.1c-0.1,0.2-0.2,0.5-0.2,0.9
		c-0.1,0.4-0.1,0.8-0.1,1c-0.3,0.1-0.3,0.3-0.1,0.7c0,0.1,0,0.2,0,0.3h-0.1h-0.1c-0.1,0.1-0.2,0.3-0.4,0.5c-0.1,0.2-0.3,0.4-0.4,0.5
		c0,0.3-0.1,0.6-0.4,0.8c-0.2,0.2-0.4,0.4-0.4,0.5c-0.1,0.1-0.2,0.1-0.3,0s-0.2-0.1-0.3-0.1c-0.5,0.6-0.9,0.7-1.2,0.4
		c-0.4,0.1-0.4,0.3-0.1,0.7c-0.1,0.2-0.5,0.3-1.3,0.3c-0.1,0-0.2,0-0.2,0.1s-0.1,0.1-0.2,0.1c-0.2,0-0.4-0.1-0.7-0.3
		s-0.5-0.3-0.7-0.3c0-0.3-0.1-0.4-0.1-0.4h-0.6c-0.1-0.1-0.1-0.2-0.1-0.2c0.1,0,0.1-0.1,0.1-0.2l-0.3-0.1c0-0.3-0.2-0.7-0.7-1.3
		c0.1-0.2,0.1-0.3,0-0.4c-0.1-0.1-0.2-0.1-0.4-0.1c-0.1-0.4-0.1-0.6,0-0.6c0-0.2-0.1-0.4-0.3-0.6c-0.1-0.2-0.1-0.5-0.1-0.9
		s0.1-0.7,0.1-0.8s-0.1-0.2-0.2-0.4c-0.1-0.1-0.2-0.3-0.1-0.5c0.2,0.1,0.3,0.1,0.4,0c0.3-0.2,0.4-0.5,0.3-0.9c0-0.1-0.1-0.2-0.1-0.3
		c-0.1-0.1-0.1-0.2-0.1-0.3s0.1-0.6,0.1-1.6h0.3c0.5-2,0.5-3.5,0-4.5c-0.2,0.1-0.3,0.1-0.3,0s0-0.2-0.1-0.4c0-0.4,0.1-0.6,0.1-0.7
		c0.2,0.1,0.3,0.1,0.3,0c0-0.2,0-0.2-0.1-0.1h-0.1c-0.1-0.4-0.1-0.9-0.1-1.6c0-0.1,0.1-0.2,0.1-0.4c0.1-0.6-0.1-0.9-0.6-0.9v-0.3
		c0-0.1,0-0.1,0.1-0.1s0.2,0.1,0.3,0.1c0.1-0.1,0.1-0.2,0.1-0.4c0-0.1,0-0.2-0.1-0.2s-0.2,0-0.2,0c-0.1,0-0.1,0-0.2,0
		c-0.1-0.2-0.1-0.4-0.1-0.7c0-0.2,0.2-0.4,0.4-0.5c0-1.1-0.1-1.8-0.4-2c-0.1-0.1-0.1-0.3,0-0.7c0-0.1-0.1-0.1-0.2-0.1
		s-0.2,0-0.2-0.1c0.1-0.1,0.2-0.2,0.3-0.4c0.1-0.1,0.1-0.3,0.1-0.5c-0.1-0.1-0.2-0.2-0.4-0.3c-0.1-0.1-0.2-0.2-0.2-0.3
		c0.2-0.8,0-1.2-0.4-1.2c-0.1-0.2-0.1-0.4-0.1-0.6c0-0.2,0-0.3-0.1-0.4c-0.1-0.2-0.1-0.3-0.1-0.4c-0.1-0.1-0.1-0.3-0.1-0.6
		c0-0.6-0.2-0.9-0.6-1c0-0.1,0-0.2-0.1-0.4c-0.1-0.1,0-0.3,0.1-0.4c0.1-0.2,0.1-0.3,0.1-0.4c0.1-0.2,0.1-0.5,0-0.9
		c0-0.4-0.2-0.6-0.7-0.7c0-0.1,0-0.2,0-0.4c0.3-0.1,0.4-0.3,0.3-0.7c0-0.1-0.2-0.2-0.7-0.4c0-0.1,0-0.2,0.1-0.2
		c0-0.1,0.1-0.1,0.2-0.1c0-1.3-0.2-1.9-0.6-2c-0.1-0.2-0.1-0.4,0-0.7c0.1-0.3,0.1-0.5,0-0.6c0-0.1-0.1-0.2-0.1-0.4
		c-0.1-0.2-0.2-0.3-0.3-0.4c0-0.1,0-0.3,0-0.5s0-0.4,0-0.5l-0.4-0.3c-0.2-0.1-0.2-0.3-0.1-0.6c0.1-0.3,0.1-0.5,0.1-0.6
		c0.1-0.1,0-0.4-0.4-1s-0.4-1,0-1.2c0-0.3-0.2-0.5-0.7-0.7v-2c0.3-0.2,0.4-0.5,0.3-0.8s-0.3-0.5-0.7-0.4c0-0.1,0-0.2,0.1-0.3
		c0.1-0.1,0.1-0.2,0.1-0.3v-1c-0.2-0.2-0.3-0.3-0.3-0.4l0.3-1.3c0.3-0.2,0.4-0.3,0.4-0.4c0-0.8,0.2-1.2,0.7-1.2
		c0.3-0.2,0.5-0.5,0.6-1c0.2,0,0.8,0,1.9,0C121.9-4.7,122.3-4.9,123.2-4.7z M143.7,24.9c0.1,0,0.1-0.1,0.1-0.3h-0.1V24.9z
		 M143.7,24.6v0.3c0.1,0,0.1-0.1,0.1-0.3H143.7z M155.7,31c-0.1,0-0.2,0-0.2-0.1c0,0,0-0.1,0.1-0.2c0.1,0,0.1,0,0.1,0.1
		s0,0.1,0.1,0.1C155.8,30.9,155.8,30.9,155.7,31z M155.5,30.7c0.1,0,0.1,0,0.1,0.1s0,0.1,0.1,0.1c0,0,0,0.1-0.1,0.1s-0.2,0-0.2-0.1
		C155.4,30.9,155.4,30.8,155.5,30.7z M161.5,41.4c0-0.1,0.1-0.2,0.3-0.2s0.3,0,0.3,0.2C161.8,41.6,161.6,41.6,161.5,41.4z
		 M162.1,41.4c-0.3,0.2-0.5,0.2-0.6,0c0-0.1,0.1-0.2,0.3-0.2S162.1,41.2,162.1,41.4z"/>
	<path fill="#C5E0B4" d="M194.7,17c0.1,0,0.1,0.1,0.1,0.1c0,0.1-0.1,0.2-0.1,0.3c0.8,0.8,1.5,1.1,2,1c0,0.3,0.1,0.6,0.4,0.9
		c0.2,0.2,0.3,0.3,0.4,0.4c0.2-0.1,0.3-0.1,0.4,0c0,0.1,0,0.2,0,0.2c0,0.1,0,0.1,0,0.2c0.3,0.4,0.8,0.9,1.5,1.5s1.1,1.1,1.3,1.5
		c0.1,0,0.1,0.1,0.1,0.3l1.8,1.9c0,0.3,0,0.4,0.1,0.4s0.2,0,0.3-0.1c0.1,0,0.2,0,0.3,0.1c0,0.3,0.1,0.6,0.4,1
		c0.2,0.4,0.4,0.7,0.5,0.9l0.6,0.3c0.1,0,0.1,0.1,0.1,0.2c-0.1,0.1-0.1,0.3-0.1,0.4c0.1,0.1,0.3,0.2,0.5,0.4s0.4,0.3,0.5,0.3
		c0,0.1,0,0.2,0.1,0.3s0.1,0.2,0.1,0.3c0.1,0.1,0.2,0.2,0.4,0.4c0.1,0.2,0.3,0.3,0.4,0.4c0.1,0,0.2,0,0.2,0.1s0.1,0.2,0.1,0.3
		c0.5,0.6,0.8,1.1,1,1.5c0.1,0.1,0.2,0.2,0.4,0.4s0.3,0.3,0.4,0.4c0.2,0.4,0.6,0.8,1.2,1.3c0.6,0.5,1,0.9,1.2,1.2l1.5,0.9h0.6
		c0.4,0.5,0.9,0.7,1.5,0.6c0.1-0.1,0.2-0.2,0.4-0.3s0.3-0.1,0.4-0.1c0.2-0.2,0.4-0.3,0.7-0.3c0.6,0,0.9,0,1,0c0.5,0.4,1,0.3,1.6-0.1
		c0,0.1-0.1,0.2-0.1,0.3c-0.1,0.1-0.1,0.2-0.1,0.3c0.1,0.1,0.2,0.2,0.3,0.3c0.4-0.1,0.7,0.1,1,0.5s0.6,0.6,0.9,0.5
		c0.1,0,0.1,0.1,0.1,0.3c0.6,0.4,0.8,0.9,0.6,1.6c0.1,0.2,0.2,0.3,0.3,0.3c-0.2,0.2-0.3,0.6-0.4,1.3c-0.1,0.7-0.1,1.1-0.1,1.2
		c-0.3,0.1-0.6,0.3-0.9,0.7c-0.3,0.3-0.5,0.6-0.7,0.7c0,0.5,0,0.8,0,0.9c-0.2,0-0.4,0-0.6-0.1c-0.1,0.1-0.3,0.2-0.6,0.3
		s-0.4,0.2-0.4,0.3c-0.1,0.1-0.1,0.2-0.1,0.4s-0.1,0.3-0.1,0.4c-0.2,0-0.4,0-0.5-0.1s-0.3-0.1-0.4-0.1c-0.3,0.1-0.5,0.1-0.5,0.1
		c-0.1,0-0.1,0-0.2,0c-0.1,0-0.2,0-0.3,0s-0.2,0.1-0.3,0.2c-0.1,0.1-0.2,0.2-0.3,0.2c-0.4-0.1-0.9-0.1-1.4,0.1
		c-0.5,0.1-1,0.2-1.2,0.1c-0.1,0-0.1-0.1-0.1-0.2c0-0.1,0-0.2-0.1-0.2s-0.3,0-0.7,0s-0.7,0-0.9,0c0-0.3-0.1-0.5-0.4-0.6
		c-0.3-0.1-0.5-0.1-0.7,0c-0.1-0.1-0.2-0.1-0.3-0.1c0-0.1-0.1-0.3-0.1-0.6c-0.1,0-0.3,0-0.5,0.1s-0.4,0-0.5-0.1
		c0-0.2-0.2-0.4-0.6-0.6c0-0.1-0.1-0.2-0.1-0.3c-0.1-0.1-0.2-0.1-0.3-0.1c-0.3,0.1-0.5,0.1-0.6,0.1c0-0.1,0-0.2,0-0.4l-1.8-1.6H205
		c-0.2-0.1-0.4-0.3-0.6-0.6c-0.2-0.3-0.3-0.5-0.4-0.6c-0.2-0.1-0.3-0.1-0.4-0.1c-0.1-0.1-0.2-0.3-0.4-0.5c-0.1-0.2-0.3-0.4-0.4-0.4
		c-0.6-0.4-0.9-0.7-0.9-1c-0.3,0-0.6-0.1-0.8-0.4c-0.2-0.3-0.4-0.4-0.5-0.4c-0.1-0.7-0.6-1.4-1.5-2.2c-0.1-0.3-0.5-0.9-1.3-1.8
		c-0.1-0.2-0.4-0.5-0.9-0.9c-0.1-0.4-0.4-0.8-0.9-1.3c-0.3-0.3-0.5-0.5-0.6-0.6c0-0.4-0.2-0.8-0.7-1.2s-0.8-0.5-1-0.1
		c0,0.1,0,0.2-0.1,0.2s-0.1,0.1-0.1,0.1c0,0.1-0.1,0.1-0.1,0.2c-0.1,0.1-0.1,0.2-0.1,0.4c0,0.1-0.1,0.3-0.1,0.4l-0.1,0.1
		c-0.3,0.5-0.5,0.7-0.6,0.7c0,0.1,0,0.2,0.1,0.3s0.1,0.2,0.1,0.3c-0.4,0.5-0.6,1-0.6,1.5c-0.2,0.2-0.4,0.6-0.7,1.2
		c-0.3,0.6-0.5,0.9-0.6,1c0,0.1,0,0.2,0,0.4s0,0.3,0,0.4c0,0.1-0.1,0.2-0.2,0.4c-0.1,0.2-0.2,0.3-0.2,0.4c0,0.1,0,0.2-0.1,0.4
		c0,0.2-0.1,0.3-0.2,0.4c0,0.1,0,0.2-0.1,0.2c-0.1,0.1-0.1,0.1-0.1,0.2c0,1.2-0.1,1.8-0.3,1.9c0,0.1,0.1,0.2,0.3,0.4
		c-0.5,1-0.8,1.8-0.9,2.5c-0.2,0.2-0.5,0.4-0.9,0.7s-0.7,0.5-0.9,0.7c-0.7-0.1-1.1,0.2-1.3,0.9c-0.1,0-0.2-0.1-0.2-0.1
		c-0.1-0.1-0.1-0.1-0.1-0.1l-0.1,0.1c-0.1,0.1-0.1,0.1-0.2,0.1c-0.2,0-0.4-0.2-0.7-0.7c-0.3-0.4-0.5-0.7-0.7-0.7
		c-0.1,0-0.3,0.1-0.6,0.3s-0.5,0.2-0.7,0.1l-0.7-0.7c-0.1-0.4-0.3-0.7-0.7-0.9c-0.1,0-0.2,0-0.2,0.1s-0.1,0.1-0.2,0.1
		c-0.1-0.2-0.3-0.5-0.6-0.8s-0.4-0.7-0.4-1.1c0-0.1-0.2-0.2-0.6-0.4v-0.4c0-0.1-0.1-0.2-0.3-0.4l-0.1-0.1c0-0.2-0.1-0.4-0.2-0.7
		c-0.1-0.2-0.2-0.4-0.2-0.4s0-0.2,0-0.4s0-0.3-0.1-0.4c0-0.1-0.1-0.2-0.2-0.2c-0.1,0-0.2-0.1-0.3-0.2c0.2-0.5,0-1-0.4-1.5v-1.2
		c-0.2-0.2-0.3-0.5-0.3-1c-0.1-0.1-0.1-0.2-0.1-0.3s0-0.2,0-0.4c0-0.1,0-0.3,0-0.4c0-0.1-0.1-0.2-0.1-0.3c-0.1-0.1-0.1-0.2-0.1-0.3
		s0-0.2,0-0.4c0-0.1-0.1-0.2-0.1-0.2c0-0.1,0-0.2-0.1-0.2s-0.1-0.1-0.1-0.2c-0.1-0.5-0.2-0.8-0.4-0.9l0.1-0.4c0-0.1-0.1-0.2-0.2-0.4
		c-0.1-0.1-0.2-0.3-0.2-0.4c0-0.1,0-0.3,0-0.6c0-0.2-0.1-0.4-0.4-0.6v-0.3c-0.1-0.1-0.3-0.4-0.6-1c0-0.1-0.1-0.2-0.1-0.3
		c-0.1-0.1-0.2-0.2-0.2-0.3s0-0.2,0-0.4c0-0.1,0.1-0.3,0.1-0.4c-0.1-0.1-0.3-0.3-0.5-0.5s-0.4-0.4-0.5-0.5c0-0.1,0-0.2,0-0.3
		s-0.1-0.2-0.2-0.3c-0.1-0.1-0.2-0.2-0.2-0.3s0.1-0.3,0.3-0.6c0-0.2,0-0.3,0-0.4c0-0.1,0.1-0.3,0.3-0.5s0.3-0.4,0.4-0.4
		s0.1-0.2,0.1-0.4s0-0.3,0-0.4c0.1-0.2,0.3-0.4,0.7-0.6c0.3-0.2,0.6-0.4,0.7-0.6c0.9-0.1,1.4-0.2,1.5-0.3c0-0.2,0-0.3,0-0.4
		c0.1-0.1,0.3-0.2,0.7-0.2s0.6-0.1,0.7-0.2c0.1,0,0.2,0.1,0.2,0.1c0,0.1,0.1,0.1,0.1,0.1s0.2,0,0.4-0.1c0.2,0,0.3,0,0.3,0.1
		c0.1,0,0.1,0,0.1,0.1s0,0.2,0.1,0.3c0.3-0.1,0.5-0.1,0.6,0c0.7,0.1,1.1,0.4,1.3,1c0.3,0.2,0.6,0.5,1,1c0.3-0.1,0.4-0.1,0.4,0
		c0,0.3,0.2,0.6,0.7,1c0.2,0.1,0.3,0.2,0.4,0.4l0.3,0.7c0,0.4,0.1,0.6,0.3,0.7c0.2,0,0.3-0.1,0.4-0.4c0.1,0,0.1-0.1,0.1-0.3
		c0.3-0.4,0.4-0.6,0.4-0.7c0.4-0.5,0.6-0.8,0.6-1c0.8-0.9,1.2-1.6,1.3-2.2l0.3-0.1c0-0.2,0.2-0.5,0.6-0.9c0.1-0.4,0.4-0.8,1-1.3
		c0-0.1,0-0.2,0-0.4c0.1,0,0.2,0,0.3,0.1c0.1,0,0.2,0.1,0.3,0.1s0.2-0.1,0.4-0.3c0.1,0,0.1,0,0.1-0.1c0.6,0,1-0.4,1.3-1.3
		c0.1,0,0.2,0,0.2,0.1s0.1,0.1,0.2,0.1c0.1-0.2,0.4-0.2,0.8-0.1c0.4,0.1,0.8,0.2,1,0.2c0.1,0,0.3,0.1,0.7,0.1
		C194.3,16.9,194.5,17,194.7,17z M193.3,16.7c0.1,0,0.3,0.1,0.7,0.1c0.3,0.1,0.6,0.1,0.8,0.1c0.1,0,0.1,0.1,0.1,0.1
		c0,0.1-0.1,0.2-0.1,0.3c0.8,0.8,1.5,1.1,2,1c0,0.3,0.1,0.6,0.4,0.9c0.2,0.2,0.3,0.3,0.4,0.4c0.2-0.1,0.3-0.1,0.4,0
		c0,0.1,0,0.2,0,0.2c0,0.1,0,0.1,0,0.2c0.3,0.4,0.8,0.9,1.5,1.5s1.1,1.1,1.3,1.5c0.1,0,0.1,0.1,0.1,0.3l1.8,1.9c0,0.3,0,0.4,0.1,0.4
		s0.2,0,0.3-0.1c0.1,0,0.2,0,0.3,0.1c0,0.3,0.1,0.6,0.4,1c0.2,0.4,0.4,0.7,0.5,0.9l0.6,0.3c0.1,0,0.1,0.1,0.1,0.2
		c-0.1,0.1-0.1,0.3-0.1,0.4c0.1,0.1,0.3,0.2,0.5,0.4s0.4,0.3,0.5,0.3c0,0.1,0,0.2,0.1,0.3s0.1,0.2,0.1,0.3c0.1,0.1,0.2,0.2,0.4,0.4
		c0.1,0.2,0.3,0.3,0.4,0.4c0.1,0,0.2,0,0.2,0.1s0.1,0.2,0.1,0.3c0.5,0.6,0.8,1.1,1,1.5c0.1,0.1,0.2,0.2,0.4,0.4s0.3,0.3,0.4,0.4
		c0.2,0.4,0.6,0.8,1.2,1.3c0.6,0.5,1,0.9,1.2,1.2l1.5,0.9h0.6c0.4,0.5,0.9,0.7,1.5,0.6c0.1-0.1,0.2-0.2,0.4-0.3s0.3-0.1,0.4-0.1
		c0.2-0.2,0.4-0.3,0.7-0.3c0.6,0,0.9,0,1,0c0.5,0.4,1,0.3,1.6-0.1c0,0.1-0.1,0.2-0.1,0.3c-0.1,0.1-0.1,0.2-0.1,0.3
		c0.1,0.1,0.2,0.2,0.3,0.3c0.4-0.1,0.7,0.1,1,0.5s0.6,0.6,0.9,0.5c0.1,0,0.1,0.1,0.1,0.3c0.6,0.5,0.8,1,0.6,1.6
		c0.1,0.2,0.2,0.3,0.3,0.3c-0.2,0.2-0.3,0.6-0.4,1.3c-0.1,0.7-0.1,1.1-0.1,1.2c-0.3,0.1-0.6,0.3-0.9,0.7c-0.3,0.3-0.5,0.6-0.7,0.7
		c0,0.5,0,0.8,0,0.9c-0.2,0-0.4,0-0.6-0.1c-0.1,0.1-0.3,0.2-0.6,0.3s-0.4,0.2-0.4,0.3c-0.1,0.1-0.1,0.2-0.1,0.4s-0.1,0.3-0.1,0.4
		c-0.2,0-0.4,0-0.5-0.1s-0.3-0.1-0.4-0.1c-0.3,0.1-0.5,0.1-0.5,0.1c-0.1,0-0.1,0-0.2,0c-0.1,0-0.2,0-0.3,0s-0.2,0.1-0.3,0.2
		c-0.1,0.1-0.2,0.2-0.3,0.2c-0.4-0.1-0.9-0.1-1.4,0.1c-0.5,0.1-1,0.2-1.2,0.1c-0.1,0-0.1-0.1-0.1-0.2c0-0.1,0-0.2-0.1-0.2
		s-0.3,0-0.7,0s-0.7,0-0.9,0c0-0.3-0.1-0.5-0.4-0.6c-0.3-0.1-0.5-0.1-0.7,0c-0.1-0.1-0.2-0.1-0.3-0.1c0-0.1-0.1-0.3-0.1-0.6
		c-0.1,0-0.3,0-0.5,0.1s-0.4,0-0.5-0.1c0-0.2-0.2-0.4-0.6-0.6c0-0.1-0.1-0.2-0.1-0.3c-0.1-0.1-0.2-0.1-0.3-0.1
		c-0.3,0.1-0.5,0.1-0.6,0.1c0-0.1,0-0.2,0-0.4l-1.8-1.6h-0.3c-0.2-0.1-0.4-0.3-0.6-0.6c-0.2-0.3-0.3-0.5-0.4-0.6
		c-0.2-0.1-0.3-0.1-0.4-0.1c-0.1-0.1-0.2-0.3-0.4-0.5c-0.1-0.2-0.3-0.4-0.4-0.4c-0.6-0.4-0.9-0.7-0.9-1c-0.3,0-0.6-0.1-0.8-0.4
		c-0.2-0.3-0.4-0.4-0.5-0.4c-0.1-0.7-0.6-1.4-1.5-2.2c-0.1-0.3-0.5-0.9-1.3-1.8c-0.1-0.2-0.4-0.5-0.9-0.9c-0.1-0.4-0.4-0.8-0.9-1.3
		c-0.3-0.3-0.5-0.5-0.6-0.6c0-0.4-0.2-0.8-0.7-1.2s-0.8-0.5-1-0.1c0,0.1,0,0.2-0.1,0.2s-0.1,0.1-0.1,0.1c0,0.1-0.1,0.1-0.1,0.2
		c-0.1,0.1-0.1,0.2-0.1,0.4c0,0.1-0.1,0.3-0.1,0.4l-0.1,0.1c-0.3,0.5-0.5,0.7-0.6,0.7c0,0.1,0,0.2,0.1,0.3s0.1,0.2,0.1,0.3
		c-0.4,0.5-0.6,1-0.6,1.5c-0.2,0.2-0.4,0.6-0.7,1.2c-0.3,0.6-0.5,0.9-0.6,1c0,0.1,0,0.2,0,0.4s0,0.3,0,0.4c0,0.1-0.1,0.2-0.2,0.4
		c-0.1,0.2-0.2,0.3-0.2,0.4c0,0.1,0,0.2-0.1,0.4c0,0.2-0.1,0.3-0.2,0.4c0,0.1,0,0.2-0.1,0.2c-0.1,0.1-0.1,0.1-0.1,0.2
		c0,1.2-0.1,1.8-0.3,1.9c0,0.1,0.1,0.2,0.3,0.4c-0.5,1-0.8,1.8-0.9,2.5c-0.2,0.2-0.5,0.4-0.9,0.7s-0.7,0.5-0.9,0.7
		c-0.7-0.1-1.1,0.2-1.3,0.9c-0.1,0-0.2-0.1-0.2-0.1c-0.1-0.1-0.1-0.1-0.1-0.1l-0.1,0.1c-0.1,0.1-0.1,0.1-0.2,0.1
		c-0.2,0-0.4-0.2-0.7-0.7c-0.3-0.4-0.5-0.7-0.7-0.7s-0.4,0.1-0.7,0.3c-0.2,0.2-0.5,0.3-0.7,0.3l-0.7-0.9c-0.1-0.4-0.3-0.7-0.7-0.9
		c-0.1,0-0.2,0-0.2,0.1s-0.1,0.1-0.2,0.1c-0.1-0.2-0.3-0.5-0.6-0.8s-0.4-0.7-0.4-1.1c0-0.1-0.2-0.2-0.6-0.4v-0.4
		c0-0.1-0.1-0.2-0.3-0.4l-0.1-0.1c0-0.2-0.1-0.4-0.2-0.7c-0.1-0.2-0.2-0.4-0.2-0.4s0-0.2,0-0.4s0-0.3-0.1-0.4c0-0.1-0.1-0.2-0.2-0.2
		c-0.1,0-0.2-0.1-0.3-0.2c0.2-0.5,0-1-0.4-1.5v-1.2c-0.2-0.2-0.3-0.5-0.3-1c-0.1,0-0.1,0-0.1-0.1c0,0,0-0.1,0-0.2c0-0.1,0-0.2,0-0.4
		c0-0.1,0-0.3,0-0.4c0-0.1-0.1-0.2-0.1-0.3c-0.1-0.1-0.1-0.2-0.1-0.3s0-0.2,0-0.4c0-0.1-0.1-0.2-0.1-0.2c0-0.1,0-0.2-0.1-0.2
		s-0.1-0.1-0.1-0.2c-0.1-0.5-0.2-0.8-0.4-0.9l0.1-0.4c0-0.1-0.1-0.2-0.2-0.4c-0.1-0.1-0.2-0.3-0.2-0.4c0-0.1,0-0.3,0-0.6
		c0-0.2-0.1-0.4-0.4-0.6v-0.3c-0.1-0.1-0.3-0.4-0.6-1c0-0.1-0.1-0.2-0.1-0.3c-0.1-0.1-0.2-0.2-0.2-0.3s0-0.2,0-0.4
		c0-0.1,0.1-0.3,0.1-0.4c-0.1-0.1-0.3-0.3-0.5-0.5s-0.4-0.4-0.5-0.5c0-0.1,0-0.2,0-0.3s-0.1-0.2-0.2-0.3c-0.1-0.1-0.2-0.2-0.2-0.3
		s0.1-0.3,0.3-0.6c0-0.2,0-0.3,0-0.4c0-0.1,0.1-0.3,0.3-0.5s0.3-0.4,0.4-0.4s0.1-0.2,0.1-0.4s0-0.3,0-0.4c0.1-0.2,0.3-0.4,0.7-0.6
		c0.3-0.2,0.6-0.4,0.7-0.6c0.9-0.1,1.4-0.2,1.5-0.3c0-0.2,0-0.3,0-0.4c0.1-0.1,0.3-0.2,0.7-0.2s0.6-0.1,0.7-0.2
		c0.1,0,0.2,0.1,0.2,0.1c0,0.1,0.1,0.1,0.1,0.1s0.2,0,0.4-0.1c0.2,0,0.3,0,0.3,0.1c0.1,0,0.1,0,0.1,0.1s0,0.2,0.1,0.3
		c0.3-0.1,0.5-0.1,0.6,0c0.7,0.1,1.1,0.4,1.3,1c0.3,0.2,0.6,0.5,1,1c0.3-0.1,0.4-0.1,0.4,0c0,0.3,0.2,0.6,0.7,1
		c0.2,0.1,0.3,0.2,0.4,0.4c0,0.1,0.1,0.3,0.3,0.7c0,0.4,0.1,0.6,0.3,0.7c0.2,0,0.3-0.1,0.4-0.4c0.1,0,0.1-0.1,0.1-0.3
		c0.3-0.4,0.4-0.6,0.4-0.7c0.4-0.5,0.6-0.8,0.6-1c0.8-0.9,1.2-1.6,1.3-2.2l0.3-0.1c0-0.2,0.2-0.5,0.6-0.9c0.1-0.4,0.4-0.8,1-1.3
		c0-0.1,0-0.2,0-0.4c0.1,0,0.2,0,0.3,0.1c0.1,0,0.2,0.1,0.3,0.1s0.2-0.1,0.4-0.3c0.1,0,0.1,0,0.1-0.1c0.6,0,1-0.4,1.3-1.3
		c0.1,0,0.2,0,0.2,0.1s0.1,0.1,0.2,0.1c0.1-0.2,0.4-0.2,0.8-0.1C192.8,16.6,193.1,16.7,193.3,16.7z"/>
	<path fill="#C5E0B4" d="M253.9,15.8c0.1,0,0.2,0,0.4,0c0.1,0,0.3,0,0.4,0c0.1,0.3,0.3,0.6,0.7,0.9c0.3,0.3,0.5,0.5,0.5,0.7
		c0,0.1,0,0.3,0,0.6s0,0.5,0,0.6s0.1,0.1,0.3,0.1c0.2,0,0.2,0.1,0.1,0.3H256c-0.1,0.2,0,0.5,0.1,0.9c-0.1,0.2-0.2,0.4-0.4,0.7
		l-0.3,0.6c-0.1,0.2-0.1,0.4,0.1,0.5c0.1,0.1,0.2,0.3,0.2,0.4c-0.3,0.3-0.4,0.5-0.4,0.6s0,0.2,0.1,0.4c0.1,0.1,0.1,0.3,0.1,0.4
		c-0.7,0.8-1.4,1.2-2,1.2c-0.1,0-0.2,0-0.4,0c-0.1,0-0.3,0-0.5,0l-0.3,0.1c-0.2,0-0.5-0.1-0.8-0.4c-0.3-0.2-0.7-0.3-1-0.2
		c-0.4-0.3-0.7-0.4-1-0.4c-0.2,0.2-0.3,0.3-0.4,0.4c-0.1,0.1-0.2,0.1-0.3,0.1s-0.2,0-0.2,0.1s-0.1,0.1-0.2,0.1
		c-0.1,0-0.1,0.1-0.1,0.2c-0.1,0-0.3,0.1-0.7,0.4c-0.4,0.2-0.7,0.5-0.9,0.7s-0.3,0.3-0.4,0.4c-0.3,0.2-0.9,0.9-1.9,2
		c-0.1,0.2-0.3,0.4-0.5,0.7s-0.4,0.5-0.5,0.6c0,0.1,0,0.2-0.1,0.3s-0.2,0.1-0.3,0.1c0,0.3-0.1,0.6-0.4,0.8c-0.2,0.2-0.4,0.4-0.5,0.5
		v0.4c-0.3,0.2-0.6,0.6-1,1.2c-0.3,0.6-0.6,1-0.8,1.2c0,0.3-0.1,0.6-0.2,1c-0.1,0.3-0.3,0.6-0.4,0.8c-0.2,0.1-0.3,0.2-0.3,0.3
		s0,0.2,0.1,0.3s0.1,0.2,0.1,0.3s-0.1,0.2-0.3,0.2c-0.2,0.1-0.3,0.1-0.4,0.1c0.1,0.4,0.3,0.5,0.7,0.3c0.1,0,0.2-0.1,0.4-0.4
		c0.2-0.2,0.4-0.4,0.7-0.4c0.1-0.1,0.2-0.2,0.3-0.3s0.2-0.2,0.3-0.3h0.3c0.2-0.1,0.4-0.3,0.7-0.6s0.5-0.5,0.6-0.6s0.2-0.2,0.4-0.2
		s0.3-0.1,0.4-0.2c0.2-0.1,0.4-0.3,0.6-0.7c0.2-0.2,0.3-0.3,0.4-0.3c0.2-0.2,0.5-0.5,1-1c0.2-0.2,0.5-0.5,0.8-0.9s0.6-0.6,0.8-0.7
		c0.8-0.8,1.3-1.3,1.5-1.6c0.2-0.1,0.6-0.4,1.2-1c0.1-0.5,0.1-0.8,0.1-0.8s0.1,0,0.2,0c0.1,0.1,0.3,0.1,0.4,0.1s0.2-0.1,0.2-0.3
		s0.1-0.3,0.2-0.3c0-0.1,0.1-0.2,0.3-0.3s0.3-0.2,0.4-0.2c0.1,0,0.2-0.2,0.3-0.4s0.2-0.3,0.3-0.4c0.3,0.1,0.6,0,1-0.4
		c0.2,0.1,0.5,0.1,0.9,0h0.3c0.1,0,0.2,0,0.3,0s0.2,0,0.3,0s0.2,0,0.3-0.1s0.2-0.1,0.2-0.1s0.1,0,0.1,0.1s0.1,0.1,0.2,0.1h0.1
		c0.1,0.1,0.3,0.2,0.6,0.4c0.1,0.1,0.2,0.1,0.4,0.1c0.1,0,0.3,0,0.4,0.1l0.4,0.7c0.4,0,0.9,0.4,1.6,1.3c-0.1,0.3,0,0.6,0.4,0.9
		c0.2,0.1,0.3,0.2,0.3,0.3c0.1,0,0.2,0.2,0.3,0.6c0.1,0.1,0.2,0.2,0.2,0.2c0,0.1,0.1,0.1,0.1,0.2c0.1,0.1,0.2,0.2,0.2,0.4
		s0.1,0.3,0.1,0.4c0.1,0.1,0.2,0.3,0.4,0.5c0.1,0.2,0.3,0.4,0.4,0.5c0.1,0.4,0.2,0.7,0.4,0.9c0,0.1,0,0.2,0.1,0.4
		c0,0.2,0.1,0.3,0.1,0.4l0.4,0.1c-0.2,0.4-0.1,0.8,0.2,1.1c0.3,0.3,0.5,0.7,0.5,1l0.7,1c0.3,0.2,0.7,0.5,1.1,1
		c0.4,0.4,0.7,0.7,0.8,0.8c0,0.1,0,0.2,0.1,0.2c0,0,0.1,0.1,0.1,0.2c0.2,0.2,0.6,0.6,1.2,1.2c0.6,0.6,1.1,1.1,1.5,1.4h0.3
		c0.5,0.3,0.9,0.4,1.2,0.4c0.2,0.2,0.4,0.5,0.7,0.9c0.4,0,1-0.2,1.8-0.6c0.1,0.1,0.4,0.1,0.9,0c0.8,0,1.3,0.1,1.5,0.3
		c0.1,0.1,0.2,0.1,0.2,0.1c0-0.1,0.1-0.1,0.2-0.1c0.3,0.4,0.9,0.4,1.8,0.1c0.1,0.2,0.1,0.4,0,0.7c-0.1,0.1-0.1,0.2-0.1,0.3
		c-0.1,0.5,0.2,0.8,0.9,0.9c0.3,0,0.5,0.1,0.6,0.1c0.1,0.1,0.1,0.3-0.1,0.5c-0.1,0.2-0.2,0.4-0.1,0.5c0,0.2,0,0.3,0.1,0.4
		c0.1,0.1,0.2,0.2,0.3,0.3c0,0.4-0.2,0.7-0.6,1s-0.6,0.5-0.7,0.6c0,0.2,0,0.4,0.1,0.7c0,0.2,0.1,0.4,0.1,0.5
		c-0.1,0.2-0.2,0.5-0.4,0.8c-0.2,0.3-0.3,0.6-0.3,0.8c-1.5,0-2.3,0.6-2.6,1.9c-0.2,0-0.3-0.1-0.4-0.1c-0.1-0.1-0.2-0.1-0.3-0.1
		c-0.1,0-0.2,0.1-0.3,0.3c0,0.1-0.1,0.1-0.1,0.1c-0.4-0.1-0.7-0.1-0.9,0c-0.3-0.6-0.6-0.6-0.9,0c-0.1,0-0.2,0-0.4-0.1
		c-0.1-0.1-0.3-0.1-0.5-0.1c-0.1,0-0.1,0-0.1,0.1s0,0.1-0.1,0.1c-0.1-0.1-0.4-0.1-1-0.1c-0.1-0.1-0.1-0.2-0.1-0.4
		c-0.1,0-0.2,0-0.4-0.1c-0.2-0.1-0.3-0.1-0.4-0.1s-0.2,0-0.3,0.1c-0.1,0.1-0.2,0.1-0.4,0c0-0.4-0.1-0.6-0.1-0.6
		c-0.4,0.1-0.6,0.1-0.7,0.1c0-0.4-0.1-0.6-0.3-0.7c-0.1,0-0.2,0-0.3,0.1c-0.1,0.1-0.2,0.1-0.3,0c0-0.2-0.1-0.3-0.1-0.3
		c0-0.1-0.1-0.1-0.3,0l-0.6-0.7c-0.2,0-0.3,0.1-0.4,0.1c-0.1,0.1-0.2,0.1-0.3,0.1V50l-0.1-0.1c-0.2-0.1-0.5-0.4-1-0.8
		s-0.9-0.7-1.2-0.8c-0.2-0.3-0.5-0.6-1-1c-0.4-0.4-0.7-0.6-0.8-0.7c-0.1,0-0.2,0-0.4-0.1c-0.2-0.1-0.3-0.2-0.4-0.3
		c0-0.1-0.1-0.3-0.3-0.7c-0.4-0.1-0.7-0.4-1-0.9c0.1-0.2,0.1-0.3,0.1-0.4c0,0-0.1-0.1-0.1-0.2c-0.7-0.1-1-0.3-1-0.7
		c0-0.1-0.3-0.4-1-1l-0.4-0.9c0-0.1,0-0.2,0-0.3s0-0.2-0.1-0.2s-0.3-0.2-0.8-0.5c-0.3-1-0.6-1.5-0.9-1.5c-0.3-0.1-0.6,0.1-1,0.7
		c-0.4,0.5-0.6,0.8-0.7,0.8c-0.3,0.2-0.6,0.4-0.9,0.7c-0.1,0.1-0.2,0.1-0.3,0.1c-0.1,0.1-0.3,0.3-0.6,0.4c-0.3,0.2-0.4,0.3-0.4,0.4
		c-0.1,0.1-0.2,0.2-0.4,0.4c-0.1,0.1-0.3,0.3-0.4,0.4c-0.1,0.1-0.2,0.2-0.4,0.3c-0.5,0.2-0.7,0.5-0.7,0.9c-0.4-0.1-0.8,0-1.2,0.4
		c-0.4,0.3-0.6,0.5-0.7,0.5c0,0.1-0.1,0.2-0.1,0.4c-0.8,0-1.3,0.3-1.6,1l-0.3-0.1c-0.1,0.2-0.4,0.3-0.8,0.4
		c-0.4,0.1-0.7,0.2-0.8,0.4c-0.4,0-0.7,0-0.9,0.1s-0.3,0.3-0.3,0.6c0,0.1-0.2,0.1-0.6,0.1c-0.1-0.3-0.2-0.4-0.3-0.4
		s-0.2,0.1-0.3,0.2c-0.1,0.1-0.2,0.2-0.3,0.2s-0.2,0-0.2-0.1s-0.1-0.1-0.2-0.1c-0.2,0-0.3,0.1-0.4,0.4c-0.6,0.1-1.1,0-1.5-0.1
		c-0.5,0.4-0.9,0.2-1.2-0.4h-0.6c-0.1,0-0.3-0.2-0.7-0.7c-0.4-0.4-0.8-0.7-1.2-0.7c-0.3-0.5-0.8-1-1.5-1.5s-1.2-1-1.4-1.5
		c-0.3-0.1-0.5-0.1-0.7-0.1c-0.1-0.1-0.1-0.3-0.1-0.5s0-0.4,0-0.5s-0.1-0.2-0.2-0.4c-0.1-0.1-0.2-0.3-0.2-0.4c0-0.1,0-0.2,0.1-0.4
		s0.1-0.3,0.1-0.4c-0.1-0.1-0.1-0.2-0.2-0.4c-0.1-0.1-0.2-0.3-0.3-0.4c0.1-0.1,0.2-0.2,0.2-0.2s0.1-0.1,0.1-0.2
		c0-0.1-0.1-0.3-0.4-0.6c-0.2-0.3-0.3-0.5-0.1-0.7c0-0.1-0.1-0.2-0.2-0.3c-0.1-0.1-0.3-0.2-0.4-0.3c0.1-0.2,0.2-0.4,0.3-0.6
		c0.1-0.7,0-1.2-0.1-1.5c-0.3-0.2-0.4-0.3-0.3-0.4h0.3c0.1-0.1,0.2-0.2,0.4-0.4c0.1-0.1,0.3-0.3,0.4-0.4c0.1-0.2,0.1-0.7,0.1-1.5
		s0.1-1.2,0.4-1.3c0-0.1,0-0.2,0-0.2s0-0.1,0-0.2c0.1-0.1,0.3-0.5,0.7-1.2s0.7-1.2,1-1.4c0-0.4,0.1-0.8,0.4-1.2v-0.3
		c0-0.1,0.2-0.4,0.5-0.9s0.6-0.8,0.8-1c0-0.2,0.1-0.5,0.4-0.9c0-0.4,0.1-0.7,0.4-1c0.1,0,0.2,0,0.3,0c0.3-0.2,0.6-0.6,1-1.3
		s0.7-1.1,1-1.3v-0.4c0.2-0.1,0.7-0.7,1.6-1.9c0.6-0.2,1-0.5,1.2-0.9c0.1-0.3,0.2-0.4,0.2-0.4s0.2-0.1,0.5-0.2s0.4-0.3,0.4-0.5
		c0.2,0,0.4-0.1,0.7-0.3s0.5-0.3,0.7-0.3c0-0.1,0.2-0.3,0.5-0.5s0.5-0.5,0.5-0.8c0.1,0,0.2,0,0.2,0.1c0,0,0.1,0.1,0.2,0.1l0.4-0.4
		c0.1,0,0.3,0,0.5,0s0.4,0,0.5-0.1c0.3,0,0.6-0.1,0.8-0.3c0.2-0.2,0.4-0.3,0.5-0.3s0.2,0,0.3,0c0.4,0.2,0.7,0.2,0.9,0.1
		c0.1,0,0.2-0.1,0.2-0.3c0-0.2,0.2-0.2,0.5-0.1c0.4,0.2,0.7,0.3,0.8,0.4c0.1,0,0.3,0,0.6,0c0.2,0,0.5-0.1,0.7-0.1
		c0,0.1,0,0.1,0.1,0.1s0.2,0,0.3,0c0.1,0.1,0.3,0.1,0.7,0.1c0.3,0,0.6-0.1,0.7-0.1c0.8,0.1,1.2,0.4,1.3,0.9c0,0.1,0,0.2,0,0.4
		c0,0.2,0,0.3,0,0.4c0,0,0.1,0.2,0.3,0.4S253.9,15.5,253.9,15.8z M253.3,14.3c0,0.2,0,0.3,0,0.3s0,0,0,0.1c0,0,0.1,0.2,0.3,0.4
		s0.3,0.4,0.3,0.7c0.1,0,0.2,0,0.4,0c0.1,0,0.3,0,0.4,0c0.1,0.3,0.3,0.6,0.7,0.9c0.3,0.3,0.5,0.5,0.5,0.7c0,0.1,0,0.3,0,0.6
		s0,0.5,0,0.6s0.1,0.1,0.3,0.1c0.2,0,0.2,0.1,0.1,0.3H256c-0.1,0.2,0,0.5,0.1,0.9c-0.1,0.2-0.2,0.4-0.4,0.7l-0.3,0.6
		c-0.1,0.2-0.1,0.4,0.1,0.5c0.1,0.1,0.2,0.3,0.2,0.4c-0.3,0.3-0.4,0.5-0.4,0.6s0,0.2,0.1,0.4c0.1,0.1,0.1,0.3,0.1,0.4
		c-0.7,0.8-1.4,1.2-2,1.2c-0.1,0-0.2,0-0.4,0c-0.1,0-0.3,0-0.5,0l-0.3,0.1c-0.2,0-0.5-0.1-0.8-0.4c-0.3-0.2-0.7-0.3-1-0.2
		c-0.4-0.3-0.7-0.4-1-0.4c-0.2,0.2-0.3,0.3-0.4,0.4c-0.1,0.1-0.2,0.1-0.3,0.1s-0.2,0-0.2,0.1s-0.1,0.1-0.2,0.1
		c-0.1,0-0.1,0.1-0.1,0.2c-0.1,0-0.3,0.1-0.7,0.4c-0.4,0.2-0.7,0.5-0.9,0.7s-0.3,0.3-0.4,0.4c-0.3,0.2-0.9,0.9-1.9,2
		c-0.1,0.2-0.3,0.4-0.5,0.7s-0.4,0.5-0.5,0.6c0,0.1,0,0.2-0.1,0.3s-0.2,0.1-0.3,0.1c0,0.3-0.1,0.6-0.4,0.8c-0.2,0.2-0.4,0.4-0.5,0.5
		v0.4c-0.3,0.2-0.6,0.6-1,1.2c-0.3,0.6-0.6,1-0.8,1.2c0,0.3-0.1,0.6-0.2,1c-0.1,0.3-0.3,0.6-0.4,0.8c-0.2,0.1-0.3,0.2-0.3,0.3
		s0,0.2,0.1,0.3s0.1,0.2,0.1,0.3s-0.1,0.2-0.3,0.2c-0.2,0.1-0.3,0.1-0.4,0.1c0.1,0.4,0.3,0.5,0.7,0.3c0.1,0,0.2-0.1,0.4-0.4
		c0.2-0.2,0.4-0.4,0.7-0.4c0.1-0.1,0.2-0.2,0.3-0.3s0.2-0.2,0.3-0.3h0.3c0.2-0.1,0.4-0.3,0.7-0.6s0.5-0.5,0.6-0.6s0.2-0.2,0.4-0.2
		s0.3-0.1,0.4-0.2c0.2-0.1,0.4-0.3,0.6-0.7c0.2-0.2,0.3-0.3,0.4-0.3c0.2-0.2,0.5-0.5,1-1c0.2-0.2,0.5-0.5,0.8-0.9s0.6-0.6,0.8-0.7
		c0.8-0.8,1.3-1.3,1.5-1.6c0.2-0.1,0.6-0.4,1.2-1c0.1-0.5,0.1-0.8,0.1-0.8s0.1,0,0.2,0c0.1,0.1,0.3,0.1,0.4,0.1s0.2-0.1,0.2-0.3
		s0.1-0.3,0.2-0.3c0-0.1,0.1-0.2,0.3-0.3s0.3-0.2,0.4-0.2c0.1,0,0.2-0.2,0.3-0.4s0.2-0.3,0.3-0.4c0.3,0.1,0.6,0,1-0.4
		c0.2,0.1,0.5,0.1,0.9,0h0.3c0.1,0,0.2,0,0.3,0s0.2,0,0.3,0s0.2,0,0.3-0.1s0.2-0.1,0.2-0.1s0.1,0,0.1,0.1s0.1,0.1,0.2,0.1h0.1
		c0.1,0.1,0.3,0.2,0.6,0.4c0.1,0.1,0.2,0.1,0.4,0.1c0.1,0,0.3,0,0.4,0.1l0.4,0.7c0.4,0,0.9,0.4,1.6,1.3c-0.1,0.3,0,0.6,0.4,0.9
		c0.2,0.1,0.3,0.2,0.3,0.3c0.1,0,0.2,0.2,0.3,0.6c0.1,0.1,0.2,0.2,0.2,0.2c0,0.1,0.1,0.1,0.1,0.2c0.1,0.1,0.2,0.2,0.2,0.4
		s0.1,0.3,0.1,0.4c0.1,0.1,0.2,0.3,0.4,0.5c0.1,0.2,0.3,0.4,0.4,0.5c0.1,0.4,0.2,0.7,0.4,0.9c0,0.1,0,0.2,0.1,0.4
		c0,0.2,0.1,0.3,0.1,0.4l0.4,0.1c-0.2,0.4-0.1,0.8,0.2,1.1c0.3,0.3,0.5,0.7,0.5,1l0.7,1c0.3,0.2,0.7,0.5,1.1,1
		c0.4,0.4,0.7,0.7,0.8,0.8c0,0.1,0,0.2,0.1,0.2c0,0,0.1,0.1,0.1,0.2c0.2,0.2,0.6,0.6,1.2,1.2c0.6,0.6,1.1,1.1,1.5,1.4h0.3
		c0.5,0.3,0.9,0.4,1.2,0.4c0.2,0.2,0.4,0.5,0.7,0.9c0.4,0,1-0.2,1.8-0.6c0.1,0.1,0.4,0.1,0.9,0c0.8,0,1.3,0.1,1.5,0.3
		c0.1,0.1,0.2,0.1,0.2,0.1c0-0.1,0.1-0.1,0.2-0.1c0.3,0.4,0.9,0.4,1.8,0.1c0.1,0.2,0.1,0.4,0,0.7c-0.1,0.1-0.1,0.2-0.1,0.3
		c-0.1,0.5,0.2,0.8,0.9,0.9c0.3,0,0.5,0.1,0.6,0.1c0.1,0.1,0.1,0.3-0.1,0.5c-0.1,0.2-0.2,0.4-0.1,0.5c0,0.2,0,0.3,0.1,0.4
		c0.1,0.1,0.2,0.2,0.3,0.3c0,0.4-0.2,0.7-0.6,1s-0.6,0.5-0.7,0.6c0,0.2,0,0.4,0.1,0.7c0,0.2,0.1,0.4,0.1,0.5
		c-0.1,0.2-0.2,0.5-0.4,0.8c-0.2,0.3-0.3,0.6-0.3,0.8c-1.5,0-2.3,0.6-2.6,1.9c-0.2,0-0.3-0.1-0.4-0.1c-0.1-0.1-0.2-0.1-0.3-0.1
		c-0.1,0-0.2,0.1-0.3,0.3c0,0.1-0.1,0.1-0.1,0.1c-0.4-0.1-0.7-0.1-0.9,0c-0.3-0.6-0.6-0.6-0.9,0c-0.1,0-0.2,0-0.4-0.1
		c-0.1-0.1-0.3-0.1-0.5-0.1c-0.1,0-0.1,0-0.1,0.1s0,0.1-0.1,0.1c-0.1-0.1-0.4-0.1-1-0.1c-0.1-0.1-0.1-0.2-0.1-0.4
		c-0.1,0-0.2,0-0.4-0.1c-0.2-0.1-0.3-0.1-0.4-0.1s-0.2,0-0.3,0.1c-0.1,0.1-0.2,0.1-0.4,0c0-0.4-0.1-0.6-0.1-0.6
		c-0.4,0.1-0.6,0.1-0.7,0.1c0-0.4-0.1-0.6-0.3-0.7c-0.1,0-0.2,0-0.3,0.1c-0.1,0.1-0.2,0.1-0.3,0c0-0.2-0.1-0.3-0.1-0.3
		c0-0.1-0.1-0.1-0.3,0l-0.6-0.7c-0.2,0-0.3,0.1-0.4,0.1c-0.1,0.1-0.2,0.1-0.3,0.1V50l-0.1-0.1c-0.2-0.1-0.5-0.4-1-0.8
		s-0.9-0.7-1.2-0.8c-0.2-0.3-0.5-0.6-1-1c-0.4-0.4-0.7-0.6-0.8-0.7c-0.1,0-0.2,0-0.4-0.1c-0.2-0.1-0.3-0.2-0.4-0.3
		c0-0.1-0.1-0.3-0.3-0.7c-0.4-0.1-0.7-0.4-1-0.9c0.1-0.2,0.1-0.3,0.1-0.4c0,0-0.1-0.1-0.1-0.2c-0.7-0.1-1-0.3-1-0.7
		c0-0.1-0.3-0.4-1-1l-0.4-0.9c0-0.1,0-0.2,0-0.3s0-0.2-0.1-0.2s-0.3-0.2-0.8-0.5c-0.3-1-0.6-1.5-0.9-1.5c-0.3-0.1-0.6,0.1-1,0.7
		c-0.4,0.5-0.6,0.8-0.7,0.8c-0.3,0.2-0.6,0.4-0.9,0.7c-0.1,0.1-0.2,0.1-0.3,0.1c-0.1,0.1-0.3,0.3-0.6,0.4c-0.3,0.2-0.4,0.3-0.4,0.4
		c-0.1,0.1-0.2,0.2-0.4,0.4c-0.1,0.1-0.3,0.3-0.4,0.4c-0.1,0.1-0.2,0.2-0.4,0.3c-0.5,0.2-0.7,0.5-0.7,0.9c-0.4-0.1-0.8,0-1.2,0.4
		c-0.4,0.3-0.6,0.5-0.7,0.5c0,0.1-0.1,0.2-0.1,0.4c-0.8,0-1.3,0.3-1.6,1l-0.3-0.1c-0.1,0.2-0.4,0.3-0.8,0.4
		c-0.4,0.1-0.7,0.2-0.8,0.4c-0.4,0-0.7,0-0.9,0.1s-0.3,0.3-0.3,0.6c0,0.1-0.2,0.1-0.6,0.1c-0.1-0.3-0.2-0.4-0.3-0.4
		s-0.2,0.1-0.3,0.2c-0.1,0.1-0.2,0.2-0.3,0.2s-0.2,0-0.2-0.1s-0.1-0.1-0.2-0.1c-0.2,0-0.3,0.1-0.4,0.4c-0.6,0.1-1.1,0-1.5-0.1
		c-0.5,0.4-0.9,0.2-1.2-0.4h-0.6c-0.1,0-0.3-0.2-0.7-0.7c-0.4-0.4-0.8-0.7-1.2-0.7c-0.3-0.5-0.8-1-1.5-1.5s-1.2-1-1.4-1.5
		c-0.3-0.1-0.5-0.1-0.7-0.1c-0.1-0.1-0.1-0.3-0.1-0.5s0-0.4,0-0.5s-0.1-0.2-0.2-0.4c-0.1-0.1-0.2-0.3-0.2-0.4c0-0.1,0-0.2,0.1-0.4
		s0.1-0.3,0.1-0.4c-0.1-0.1-0.1-0.2-0.2-0.4c-0.1-0.1-0.2-0.3-0.3-0.4c0.1-0.1,0.2-0.2,0.2-0.2s0.1-0.1,0.1-0.2
		c0-0.1-0.1-0.3-0.4-0.6c-0.2-0.3-0.3-0.5-0.1-0.7c0-0.1-0.1-0.2-0.2-0.3c-0.1-0.1-0.3-0.2-0.4-0.3c0.1-0.2,0.2-0.4,0.3-0.6
		c0.1-0.7,0-1.2-0.1-1.5c-0.3-0.2-0.4-0.3-0.3-0.4h0.3c0.1-0.1,0.2-0.2,0.4-0.4c0.1-0.1,0.3-0.3,0.4-0.4c0.1-0.2,0.1-0.7,0.1-1.5
		s0.1-1.2,0.4-1.3c0-0.1,0-0.2,0-0.2s0-0.1,0-0.2c0.1-0.1,0.3-0.5,0.7-1.2s0.7-1.2,1-1.4c0-0.4,0.1-0.8,0.4-1.2v-0.3
		c0-0.1,0.2-0.4,0.5-0.9s0.6-0.8,0.8-1c0-0.2,0.1-0.5,0.4-0.9c0-0.4,0.1-0.7,0.4-1c0.1,0,0.2,0,0.3,0c0.3-0.2,0.6-0.6,1-1.3
		s0.7-1.1,1-1.3v-0.4c0.2-0.1,0.7-0.7,1.6-1.9c0.6-0.2,1-0.5,1.2-0.9c0.1-0.3,0.2-0.4,0.2-0.4s0.2-0.1,0.5-0.2s0.4-0.3,0.4-0.5
		c0.2,0,0.4-0.1,0.7-0.3s0.5-0.3,0.7-0.3c0-0.1,0.2-0.3,0.5-0.5s0.5-0.5,0.5-0.8c0.1,0,0.2,0,0.2,0.1c0,0,0.1,0.1,0.2,0.1l0.4-0.4
		c0.1,0,0.3,0,0.5,0s0.4,0,0.5-0.1c0.3,0,0.6-0.1,0.8-0.3c0.2-0.2,0.4-0.3,0.5-0.3s0.2,0,0.3,0c0.4,0.2,0.7,0.2,0.9,0.1
		c0.1,0,0.2-0.1,0.2-0.3c0-0.2,0.2-0.2,0.5-0.1c0.4,0.2,0.7,0.3,0.8,0.4c0.1,0,0.3,0,0.6,0c0.2,0,0.5-0.1,0.7-0.1
		c0,0.1,0,0.1,0.1,0.1s0.2,0,0.3,0c0.1,0.1,0.3,0.1,0.7,0.1c0.3,0,0.6-0.1,0.7-0.1c0.8,0.1,1.2,0.4,1.3,0.9
		C253.3,14,253.3,14.1,253.3,14.3z M233.7,45.5c0.1,0,0.2,0,0.3,0c0-0.2-0.1-0.3-0.3-0.3c-0.1,0.1-0.1,0.2-0.1,0.2
		C233.5,45.5,233.6,45.5,233.7,45.5z M233.7,45.2c-0.1,0.1-0.1,0.2-0.1,0.2c0,0.1,0,0.1,0.1,0.1s0.2,0,0.3,0
		C234,45.3,233.9,45.2,233.7,45.2z M256.1,19.7L256.1,19.7l0.1-0.1C256.3,19.7,256.3,19.7,256.1,19.7z M256.1,19.6h0.1
		C256.3,19.7,256.2,19.7,256.1,19.6L256.1,19.6z"/>
	<path fill="#C5E0B4" d="M323.2,11.5c-0.1-0.3-0.1-0.4,0-0.4c0.2-0.1,0.4,0,0.7,0.3c0.4-0.1,1,0.1,1.8,0.7c0.2,0,0.3,0,0.4,0
		c0.1,0.1,0.3,0.3,0.7,0.7c0.3,0.4,0.7,0.7,1,0.9c0.1,0.3,0.5,0.6,1.1,1c0.6,0.3,1,0.7,1.2,0.9v0.3c0.6,0.6,1,0.9,1.3,0.9l0.1,0.6
		c0.3,0.4,0.8,0.9,1.4,1.5s1.1,1,1.4,1.2c0,0.1,0,0.2,0,0.4c0.1,0.1,0.2,0.2,0.4,0.3c0.1,0.1,0.3,0.2,0.4,0.3c0,0.1,0,0.2,0,0.3
		c0.1,0.2,0.2,0.4,0.4,0.7c0.4,0.6,0.7,1,1,1.2c0,0.5,0.3,0.9,1,1.3c0,0.1,0,0.2,0.1,0.4c0.4,0.5,0.6,0.8,0.6,1
		c0.2,0.2,0.5,0.5,0.9,0.9s0.7,0.7,0.9,0.9c0.1,0.4,0.5,0.9,1.3,1.6c0.3,0.2,0.5,0.4,0.7,0.6c0,0.1,0.1,0.2,0.2,0.4
		c0.1,0.1,0.3,0.3,0.4,0.4c0.3,0.3,0.5,0.4,0.6,0.4s0.2,0,0.4,0.1c0.1,0,0.2,0.1,0.3,0.3c0.2,0.2,0.5,0.2,1,0
		c-0.1,0.1-0.1,0.2,0,0.3c0.8,0.6,1.3,1.1,1.6,1.5c0,0.3,0.1,0.6,0.4,0.9c0.3,0.3,0.5,0.6,0.6,0.7c0.2,0.1,0.3,0.1,0.4,0.1
		c-0.1,1.5,0,2.3,0.1,2.5h0.1c0.1,0,0.2,0.1,0.2,0.1c0,0.1-0.1,0.2-0.4,0.3c-0.3,0.2-0.5,0.4-0.7,0.6l-0.4,0.3
		c0,0.2-0.1,0.4-0.4,0.7c-0.2,0.2-0.4,0.4-0.4,0.5c-0.1,0.1-0.2,0.2-0.4,0.2c-0.1,0-0.2,0.1-0.2,0.2c-0.1,0-0.1,0.1-0.1,0.4
		c0,0.3,0,0.4-0.1,0.4c-0.2,0.1-0.6,0.1-1.1-0.1c-0.5-0.2-1-0.2-1.2,0c-0.4-0.2-0.7-0.2-0.9-0.1c-0.1-0.1-0.5,0-1.2,0.1
		c0.2-0.4,0-0.7-0.6-0.9c-0.4-0.1-0.6-0.2-0.6-0.3c-0.1,0-0.2,0-0.4,0.1c-0.1,0.1-0.3,0.1-0.3,0c0,0-0.1-0.1-0.1-0.2
		c0-0.1,0-0.2-0.1-0.2s-0.1-0.1-0.2-0.1c-0.2-0.1-0.3-0.2-0.3-0.4c-0.1,0-0.2,0-0.3-0.1c-0.1,0-0.2-0.1-0.3-0.1
		c-0.6-0.8-1.1-1.3-1.5-1.5c-0.6-0.6-0.9-0.9-1-0.9c-0.2-0.3-0.4-0.5-0.7-0.7c-0.1,0-0.1,0-0.1,0.1s0,0.1-0.1,0l-0.1-0.3
		c-0.7-0.6-1.2-1.3-1.5-2c-0.3-0.1-0.5-0.1-0.6-0.1c-0.2-0.1-0.3-0.4-0.4-0.9c-0.4-0.1-0.7-0.4-1-0.9s-0.5-0.7-0.6-0.7
		c-0.4,0.2-0.6-0.2-0.6-1.2c-0.1,0-0.3,0-0.6-0.1c0-0.1-0.1-0.3-0.3-0.6c-0.2-0.3-0.4-0.4-0.6-0.4c0-0.2-0.3-0.8-1-1.9
		c-0.2,0-0.3,0-0.4,0c-0.1-0.3-0.2-0.5-0.4-0.6c-0.1-0.7-0.4-1.1-1-1.3c-0.1,0-0.1,0.2-0.1,0.6c-0.1,0-0.2,0.3-0.4,1
		c-0.1,0-0.2,0-0.2,0.1s-0.1,0.2-0.1,0.2c-0.1,0.1-0.1,0.1-0.1,0.3c0,0.1,0,0.2,0,0.3s-0.1,0.2-0.3,0.5c-0.1,0.2-0.1,0.5-0.1,0.8
		s0,0.6,0,0.7c-0.1,0.1-0.2,0.2-0.3,0.3c-0.1,0.1-0.1,0.2-0.1,0.3c-0.1,0.2-0.1,0.5-0.1,0.9s0,0.6-0.1,0.7c-0.2,0.2-0.3,0.3-0.4,0.4
		c-0.1,0.1-0.1,0.2-0.1,0.4c0,0.1,0,0.3,0,0.4c0,0.1-0.1,0.2-0.4,0.4c0.1,0.3,0,0.7-0.1,1.1c-0.2,0.4-0.3,0.7-0.3,0.8
		c-0.1,0.1-0.1,0.2,0,0.4c-0.1,0.1-0.2,0.2-0.3,0.4c-0.1,0.1-0.1,0.3-0.1,0.4c0,0.2,0,0.3-0.1,0.3s-0.1,0.1-0.2,0.3
		c-0.1,0.1-0.2,0.3-0.3,0.7c-0.1,0.3-0.2,0.6-0.3,0.7c0,0.1,0,0.2,0.1,0.2s0.1,0.1,0.1,0.2c-0.1,0.1-0.2,0.3-0.4,0.6
		c-0.4,0.6-0.8,1-1.3,1.2c-0.2,0.5-0.3,0.8-0.4,0.9c-0.1,0-0.3,0-0.6-0.1c-0.3,0-0.5,0-0.6,0.1c-0.2,0.2-0.3,0.3-0.4,0.3
		c0,0-0.3,0-0.7-0.1c-0.1,0.1-0.2,0.1-0.3,0.1c-0.2-0.3-0.3-0.5-0.4-0.6c-0.1,0-0.3,0.1-0.5,0.2c-0.2,0.1-0.4,0.3-0.5,0.4
		c-0.4-0.2-0.6-0.4-0.6-0.7c-0.6-0.1-1-0.4-1.2-1c-0.4,0-0.8-0.2-1.2-0.7c-0.4-0.5-0.7-0.8-0.8-0.9V38c0-0.1-0.1-0.2-0.2-0.3
		s-0.3-0.2-0.4-0.3c0.1-0.2,0.1-0.3,0-0.3c0-0.1-0.4-0.4-1.2-0.9c0-0.1,0-0.2,0.1-0.3c0-0.1,0.1-0.2,0.1-0.3
		c-0.4-0.2-0.6-0.3-0.7-0.4c0.1-0.5,0-0.9-0.4-1.3c-0.3-0.4-0.6-0.7-0.7-1c0-0.1-0.1-0.2-0.2-0.2s-0.3-0.1-0.4-0.2
		c0-0.2-0.2-0.4-0.6-0.7c0-0.3-0.1-0.6-0.4-0.9c0-0.5-0.2-0.9-0.6-1.2c-0.2-0.1-0.3-0.2-0.4-0.3c0-0.5-0.2-0.8-0.7-1
		c-0.5,1.3-0.7,3.1-0.6,5.6c-0.1,0.1-0.2,0.2-0.3,0.3c-0.1,0.1-0.1,0.2-0.1,0.3c-0.1,0.2-0.1,0.5,0,0.8s0.1,0.6,0,0.8
		c-0.3,0.2-0.4,0.3-0.4,0.4s0.1,0.3,0.2,0.5s0.2,0.5,0.1,0.8c-0.2,0.3-0.3,0.5-0.4,0.6c0,0.1,0,0.4,0.1,0.8c0,0.4,0,0.7-0.2,0.7
		c0,0.1,0.1,0.2,0.1,0.2c0.1,0,0.1,0.1,0.1,0.2c0,0.1-0.1,0.2-0.4,0.3c0,0.3,0,0.8-0.1,1.4c-0.1,0.6-0.1,1.1-0.1,1.4
		c-0.2,0.1-0.3,0.2-0.3,0.4s0.1,0.3,0.4,0.4c0,0.1-0.1,0.2-0.2,0.2s-0.2,0.1-0.2,0.1s0,0.4-0.1,0.9c-0.1,0.3-0.2,0.5-0.4,0.6
		c0.1,0.3,0.1,0.6-0.1,1c-0.1,0.4-0.3,0.6-0.5,0.6s-0.3,0-0.4-0.1c-0.4,0.2-0.8,0.5-1.3,0.9c-0.3,0.3-0.4,0.6-0.4,1
		c-0.1,0-0.2,0-0.3,0c-0.1-0.1-0.1-0.3-0.1-0.6c0-0.3-0.1-0.5-0.3-0.6c-0.1,0-0.2,0.2-0.4,0.7h-0.4c0.1-0.7-0.2-1-1-1
		c0,0.3-0.1,0.4-0.1,0.4c-0.4-0.1-0.6-0.2-0.7-0.4c0-0.1,0-0.2,0-0.3s0-0.1-0.1-0.1c-0.1-0.6-0.7-0.8-1.9-0.7
		c-0.2-0.1-0.3-0.3-0.3-0.6V46c-0.1-0.2-0.3-0.4-0.5-0.7s-0.4-0.5-0.5-0.6c0-0.1-0.1-0.1-0.1-0.1s-0.1,0-0.1-0.1
		c-0.1-0.4-0.2-0.7-0.3-0.9l-0.3-0.1c0.1-0.9,0.1-1.4,0.1-1.5c-0.1-0.1-0.2-0.4-0.4-0.7c-0.2-0.3-0.3-0.5-0.4-0.6
		c0-0.2,0.1-0.4,0.3-0.7c0-0.3-0.1-0.6-0.3-1c-0.2-0.3-0.3-0.7-0.1-1c-0.1-0.2-0.3-0.3-0.7-0.3c-0.1-0.2,0-0.3,0.3-0.4
		c0-0.2,0-0.4,0-0.5s0-0.3,0-0.4c0-0.1-0.1-0.2-0.2-0.4c-0.1-0.1-0.2-0.3-0.2-0.4c-0.1-0.2-0.1-0.5-0.1-0.8s0-0.6-0.1-0.7
		c0-0.1-0.1-0.2-0.2-0.3s-0.2-0.2-0.2-0.2s0-0.3,0.1-0.7c-0.1-0.7-0.2-1.1-0.4-1.3c0-1.1-0.1-1.7-0.3-1.8c-0.3,0-0.4,0-0.4-0.1
		s0-0.2,0.1-0.2s0.1-0.1,0.1-0.2c0-0.1,0-0.3,0-0.6c-0.1-0.8-0.3-1.2-0.7-1.2c-0.2-0.2-0.1-0.6,0.1-1.2c0-0.2-0.1-0.3-0.2-0.4
		c-0.1-0.1-0.2-0.2-0.2-0.3c0.1-0.5,0-0.8-0.4-1c0.2-0.2,0.3-0.3,0.3-0.4c-0.2-0.1-0.3-0.4-0.3-0.9s-0.1-0.8-0.3-0.9
		c0-0.1,0-0.2,0.1-0.2c0,0,0.1-0.1,0.1-0.2c-0.2-0.2-0.3-0.3-0.3-0.4c0-0.1,0-0.3-0.1-0.5s-0.1-0.4-0.1-0.5c-0.1,0-0.2-0.1-0.4-0.3
		c-0.1-0.1-0.1-0.2,0-0.3s0.1-0.2,0.1-0.3c-0.1-1.7,0.1-2.5,0.7-2.6v-0.9c0.6-0.6,1.2-0.9,1.9-0.9l0.3-0.4c0.3,0.2,0.9,0.1,1.8-0.3
		c0.2,0.2,0.4,0.3,0.7,0.3c0.3,0,0.5,0,0.7,0c0.1,0,0.2,0.1,0.4,0.2c0.1,0.1,0.3,0.2,0.4,0.2c0.5,0.2,0.7,0.3,0.7,0.4
		c0.2,0.1,0.3,0.1,0.4,0c1.4,1.5,2,2.2,2,2.3c0.4,0,0.6,0,0.7-0.1s0.1-0.1,0.1-0.3c0-0.1,0-0.2,0.1-0.3c0,0,0.1-0.1,0.2-0.2
		c0.1-0.1,0.2-0.2,0.3-0.3c0-0.1,0-0.2-0.1-0.4c0-0.1,0.1-0.2,0.3-0.4c0.2-0.2,0.3-0.4,0.3-0.6c0.1,0,0.2-0.1,0.4-0.3
		c0.3-0.4,0.6-0.5,1-0.4c0.2-0.1,0.4-0.3,0.5-0.6c0.1-0.3,0.3-0.5,0.5-0.6h0.4c0.1,0,0.2-0.1,0.4-0.2c0.1-0.1,0.3-0.2,0.4-0.2
		c0.4,0,0.7,0,1-0.1c0.1,0,0.3,0,0.6,0.1c0.2,0.3,0.6,0.5,1.2,0.7s0.9,0.3,0.9,0.4c0,0.3,0.2,0.5,0.7,0.6c0.2,0.1,0.3,0.2,0.4,0.3
		c0,0.4,0.2,0.6,0.6,0.7c0.2,0.3,0.6,0.8,1.3,1.4c0.7,0.6,1.2,1.2,1.5,1.7v0.3c0.3,0.2,0.6,0.5,1,0.9c0.3,0.4,0.6,0.8,0.8,1
		c0.1,0.2,0.3,0.4,0.5,0.7s0.4,0.6,0.4,0.9c0.1,0,0.2,0,0.3,0.1c0.1,0,0.2,0.1,0.3,0.1c0.1,0.4,0.4,0.9,0.9,1.5
		c0.2,0.4,0.3,0.7,0.4,0.9c0,0.2,0,0.3,0.1,0.3c0.2,0.2,0.3,0,0.4-0.6c0.1-0.1,0.2-0.3,0.4-0.6c0.1-0.3,0.3-0.5,0.4-0.6
		c0-0.4,0.1-0.8,0.4-1.3c0.2-0.5,0.4-0.9,0.4-1.3c0.1-0.1,0.2-0.4,0.4-0.9c0.1-0.5,0.3-0.8,0.4-0.9c0-0.4,0.3-0.9,1-1.5
		c0-0.1,0-0.2,0-0.4c0-0.1,0-0.2,0.1-0.3s0.2-0.2,0.3-0.3c0-0.2,0-0.3,0-0.4s0-0.1,0.1-0.2s0.1-0.2,0.1-0.2s0-0.2,0.1-0.5
		c0.5-0.4,0.7-0.7,0.6-0.9c0.2-0.1,0.4-0.4,0.6-0.9c0.2,0,0.3,0,0.4,0c0.2-1,0.8-1.4,1.8-1.3c0.2-0.1,0.5-0.2,0.8-0.4
		C322.8,11.9,323,11.7,323.2,11.5z M323.2,11.1c0.2-0.1,0.4,0,0.7,0.3c0.4-0.1,1,0.1,1.8,0.7c0.2,0,0.3,0,0.4,0
		c0.1,0.1,0.3,0.3,0.7,0.7c0.3,0.4,0.7,0.7,1,0.9c0.1,0.3,0.5,0.6,1.1,1c0.6,0.3,1,0.7,1.2,0.9v0.3c0.6,0.6,1,0.9,1.3,0.9l0.1,0.6
		c0.3,0.4,0.8,0.9,1.4,1.5s1.1,1,1.4,1.2c0,0.1,0,0.2,0,0.4c0.1,0.1,0.2,0.2,0.4,0.3c0.1,0.1,0.3,0.2,0.4,0.3c0,0.1,0,0.2,0,0.3
		c0.1,0.2,0.2,0.4,0.4,0.7c0.4,0.6,0.7,1,1,1.2c0,0.5,0.3,0.9,1,1.3c0,0.1,0,0.2,0.1,0.4c0.4,0.5,0.6,0.8,0.6,1
		c0.2,0.2,0.5,0.5,0.9,0.9s0.7,0.7,0.9,0.9c0.1,0.4,0.5,0.9,1.3,1.6c0.3,0.2,0.5,0.4,0.7,0.6c0,0.1,0.1,0.2,0.2,0.4
		c0.1,0.1,0.3,0.3,0.4,0.4c0.3,0.3,0.5,0.4,0.6,0.4s0.2,0,0.4,0.1c0.1,0,0.2,0.1,0.3,0.3c0.2,0.2,0.5,0.2,1,0
		c-0.1,0.1-0.1,0.2,0,0.3c0.8,0.6,1.3,1.1,1.6,1.5c0,0.3,0.1,0.6,0.4,0.9c0.3,0.3,0.5,0.6,0.6,0.7c0.2,0.1,0.3,0.1,0.4,0.1
		c-0.1,1.5,0,2.3,0.1,2.5h0.1c0.1,0,0.2,0.1,0.2,0.1c0,0.1-0.1,0.2-0.4,0.3c-0.3,0.2-0.5,0.4-0.7,0.6l-0.4,0.3
		c0,0.2-0.1,0.4-0.4,0.7c-0.2,0.2-0.4,0.4-0.4,0.5c-0.1,0.1-0.2,0.2-0.4,0.2c-0.1,0-0.2,0.1-0.2,0.2c-0.1,0-0.1,0.1-0.1,0.4
		c0,0.3,0,0.4-0.1,0.4c-0.2,0.1-0.6,0.1-1.1-0.1c-0.5-0.2-1-0.2-1.2,0c-0.4-0.2-0.7-0.2-0.9-0.1c-0.1-0.1-0.5,0-1.2,0.1
		c0.2-0.4,0-0.7-0.6-0.9c-0.4-0.1-0.6-0.2-0.6-0.3c-0.1,0-0.2,0-0.4,0.1c-0.1,0.1-0.3,0.1-0.3,0c0,0-0.1-0.1-0.1-0.2
		c0-0.1,0-0.2-0.1-0.2s-0.1-0.1-0.2-0.1c-0.2-0.1-0.3-0.2-0.3-0.4c-0.1,0-0.2,0-0.3-0.1c-0.1,0-0.2-0.1-0.3-0.1
		c-0.6-0.8-1.1-1.3-1.5-1.5c-0.1-0.1-0.2-0.2-0.3-0.3c-0.2-0.4-0.4-0.6-0.7-0.6c-0.2-0.3-0.4-0.5-0.7-0.7c-0.1,0-0.1,0-0.1,0.1
		s0,0.1-0.1,0l-0.1-0.3c-0.7-0.6-1.2-1.3-1.5-2c-0.3-0.1-0.5-0.1-0.6-0.1c-0.2-0.1-0.3-0.4-0.4-0.9c-0.4-0.1-0.7-0.4-1-0.9
		s-0.5-0.7-0.6-0.7c-0.4,0.2-0.6-0.2-0.6-1.2c-0.1,0-0.3,0-0.6-0.1c0-0.1-0.1-0.3-0.3-0.6c-0.2-0.3-0.4-0.4-0.6-0.4
		c0-0.2-0.3-0.8-1-1.9c-0.2,0-0.3,0-0.4,0c-0.1-0.3-0.2-0.5-0.4-0.6c-0.1-0.7-0.4-1.1-1-1.3c-0.1,0-0.1,0.2-0.1,0.6
		c-0.1,0-0.2,0.3-0.4,1c-0.1,0-0.2,0-0.2,0.1s-0.1,0.2-0.1,0.2c-0.1,0.1-0.1,0.1-0.1,0.3c0,0.1,0,0.2,0,0.3s-0.1,0.2-0.3,0.5
		c-0.1,0.2-0.1,0.5-0.1,0.8s0,0.6,0,0.7c-0.1,0.1-0.2,0.2-0.3,0.3c-0.1,0.1-0.1,0.2-0.1,0.3c-0.1,0.2-0.1,0.5-0.1,0.9s0,0.6-0.1,0.7
		c-0.2,0.2-0.3,0.3-0.4,0.4c-0.1,0.1-0.1,0.2-0.1,0.4c0,0.1,0,0.3,0,0.4c0,0.1-0.1,0.2-0.4,0.4c0.1,0.3,0,0.7-0.1,1.1
		c-0.2,0.4-0.3,0.7-0.3,0.8c-0.1,0.1-0.1,0.2,0,0.4c-0.1,0.1-0.2,0.2-0.3,0.4c-0.1,0.1-0.1,0.3-0.1,0.4c0,0.2,0,0.3-0.1,0.3
		s-0.1,0.1-0.2,0.3c-0.1,0.1-0.2,0.3-0.3,0.7c-0.1,0.3-0.2,0.6-0.3,0.7c0,0.1,0,0.2,0.1,0.2s0.1,0.1,0.1,0.2
		c-0.1,0.1-0.2,0.3-0.4,0.6c-0.4,0.6-0.8,1-1.3,1.2c-0.2,0.5-0.3,0.8-0.4,0.9c-0.1,0-0.3,0-0.6-0.1c-0.3,0-0.5,0-0.6,0.1
		c-0.2,0.2-0.3,0.3-0.4,0.3c0,0-0.3,0-0.7-0.1c-0.1,0.1-0.2,0.1-0.3,0.1c-0.2-0.3-0.3-0.5-0.4-0.6c-0.1,0.1-0.3,0.2-0.5,0.3
		s-0.4,0.2-0.5,0.3c-0.4-0.2-0.6-0.4-0.6-0.7c-0.6-0.1-1-0.4-1.2-1c-0.4,0-0.8-0.2-1.2-0.7c-0.4-0.5-0.7-0.8-0.8-0.9V38
		c0-0.1-0.1-0.2-0.2-0.3s-0.3-0.2-0.4-0.3c0.1-0.2,0.1-0.3,0-0.3c0-0.1-0.4-0.4-1.2-0.9c0-0.1,0-0.2,0.1-0.3c0-0.1,0.1-0.2,0.1-0.3
		c-0.4-0.2-0.6-0.3-0.7-0.4c0.1-0.5,0-0.9-0.4-1.3c-0.3-0.4-0.6-0.7-0.7-1c0-0.1-0.1-0.2-0.2-0.2s-0.3-0.1-0.4-0.2
		c0-0.2-0.2-0.4-0.6-0.7c0-0.3-0.1-0.6-0.4-0.9c0-0.5-0.2-0.9-0.6-1.2c-0.2-0.1-0.3-0.2-0.4-0.3c0-0.5-0.2-0.8-0.7-1
		c-0.5,1.3-0.7,3.1-0.6,5.6c-0.1,0.1-0.2,0.2-0.3,0.3c-0.1,0.1-0.1,0.2-0.1,0.3c-0.1,0.2-0.1,0.5,0,0.8s0.1,0.6,0,0.8
		c-0.3,0.2-0.4,0.3-0.4,0.4s0.1,0.3,0.2,0.5s0.2,0.5,0.1,0.8c-0.2,0.3-0.3,0.5-0.4,0.6c0,0.1,0,0.4,0.1,0.8c0,0.4,0,0.7-0.2,0.7
		c0,0.1,0.1,0.2,0.1,0.2c0.1,0,0.1,0.1,0.1,0.2c0,0.1-0.1,0.2-0.4,0.3c0,0.3,0,0.8-0.1,1.4c-0.1,0.6-0.1,1.1-0.1,1.4
		c-0.2,0.1-0.3,0.2-0.3,0.4s0.1,0.3,0.4,0.4c0,0.1-0.1,0.2-0.2,0.2s-0.2,0.1-0.2,0.1s0,0.4-0.1,0.9c-0.1,0.3-0.2,0.5-0.4,0.6
		c0.1,0.3,0.1,0.6-0.1,1c-0.1,0.4-0.3,0.6-0.5,0.6s-0.3,0-0.4-0.1c-0.4,0.2-0.8,0.5-1.3,0.9c-0.3,0.3-0.4,0.6-0.4,1
		c-0.1,0-0.2,0-0.3,0c-0.1-0.1-0.1-0.3-0.1-0.5c0-0.2-0.1-0.5-0.3-0.7c-0.1,0-0.2,0.2-0.4,0.7h-0.4c0-0.3-0.1-0.5-0.3-0.7
		c-0.2-0.2-0.4-0.3-0.7-0.3c0,0.3-0.1,0.4-0.1,0.4c-0.4-0.1-0.6-0.2-0.7-0.4c0-0.1,0-0.2,0-0.3s0-0.1-0.1-0.1
		c-0.1-0.6-0.7-0.8-1.9-0.7c-0.2-0.1-0.3-0.3-0.3-0.6V46c-0.1-0.2-0.3-0.4-0.5-0.7s-0.4-0.5-0.5-0.6c0-0.1-0.1-0.1-0.1-0.1
		s-0.1,0-0.1-0.1c-0.1-0.4-0.2-0.7-0.3-0.9l-0.3-0.1c0.1-0.9,0.1-1.4,0.1-1.5c-0.1-0.1-0.2-0.4-0.4-0.7c-0.2-0.3-0.3-0.5-0.4-0.6
		c0-0.2,0.1-0.4,0.3-0.7c0-0.3-0.1-0.6-0.3-1c-0.2-0.3-0.3-0.7-0.1-1c-0.1-0.2-0.3-0.3-0.7-0.3c-0.1-0.2,0-0.3,0.3-0.4
		c0-0.2,0-0.4,0-0.5s0-0.3,0-0.4c0-0.1-0.1-0.2-0.2-0.4c-0.1-0.1-0.2-0.3-0.2-0.4c-0.1-0.2-0.1-0.5-0.1-0.8s0-0.6-0.1-0.7
		c0-0.1-0.1-0.2-0.2-0.3s-0.2-0.2-0.2-0.2s0-0.3,0.1-0.7c-0.1-0.7-0.2-1.1-0.4-1.3c0-1.1-0.1-1.7-0.3-1.8c-0.3,0-0.4,0-0.4-0.1
		s0-0.2,0.1-0.2s0.1-0.1,0.1-0.2c0-0.1,0-0.3,0-0.6c-0.1-0.8-0.3-1.2-0.7-1.2c-0.2-0.2-0.1-0.6,0.1-1.2c0-0.2-0.1-0.3-0.2-0.4
		c-0.1-0.1-0.2-0.2-0.2-0.3c0.1-0.5,0-0.8-0.4-1c0.2-0.2,0.3-0.3,0.3-0.4c-0.2-0.1-0.3-0.4-0.3-0.9s-0.1-0.8-0.3-0.9
		c0-0.1,0-0.2,0.1-0.2c0,0,0.1-0.1,0.1-0.2c-0.2-0.2-0.3-0.3-0.3-0.4c0-0.1,0-0.3-0.1-0.5s-0.1-0.4-0.1-0.5c-0.1,0-0.2-0.1-0.4-0.3
		c-0.1-0.1-0.1-0.2,0-0.3s0.1-0.2,0.1-0.3c-0.1-1.7,0.1-2.5,0.7-2.6v-0.9c0.6-0.6,1.2-0.9,1.9-0.9l0.3-0.4c0.3,0.2,0.9,0.1,1.8-0.3
		c0.2,0.2,0.4,0.3,0.7,0.3c0.3,0,0.5,0,0.7,0c0.1,0,0.2,0.1,0.4,0.2c0.1,0.1,0.3,0.2,0.4,0.2c0.5,0.2,0.7,0.3,0.7,0.4
		c0.2,0.1,0.3,0.1,0.4,0c1.4,1.5,2,2.2,2,2.3c0.4,0,0.6,0,0.7-0.1s0.1-0.1,0.1-0.3c0-0.1,0-0.2,0.1-0.3c0,0,0.1-0.1,0.2-0.2
		c0.1-0.1,0.2-0.2,0.3-0.3c0-0.1,0-0.2-0.1-0.4c0-0.1,0.1-0.2,0.3-0.4c0.2-0.2,0.3-0.4,0.3-0.6c0.1,0,0.2-0.1,0.4-0.3
		c0.3-0.4,0.6-0.5,1-0.4c0.2-0.1,0.4-0.3,0.5-0.6c0.1-0.3,0.3-0.5,0.5-0.6h0.4c0.1,0,0.2-0.1,0.4-0.2c0.1-0.1,0.3-0.2,0.4-0.2
		c0.4,0,0.7,0,1-0.1c0.1,0,0.3,0,0.6,0.1c0.2,0.3,0.6,0.5,1.2,0.7s0.9,0.3,0.9,0.4c0,0.3,0.2,0.5,0.7,0.6c0.2,0.1,0.3,0.2,0.4,0.3
		c0,0.4,0.2,0.6,0.6,0.7c0.2,0.3,0.6,0.8,1.3,1.4c0.7,0.6,1.2,1.2,1.5,1.7v0.3c0.3,0.2,0.6,0.5,1,0.9c0.3,0.4,0.6,0.8,0.8,1
		c0.1,0.2,0.3,0.4,0.5,0.7s0.4,0.6,0.4,0.9c0.1,0,0.2,0,0.3,0.1c0.1,0,0.2,0.1,0.3,0.1c0.1,0.4,0.4,0.9,0.9,1.5
		c0.2,0.4,0.3,0.7,0.4,0.9c0,0.2,0,0.3,0.1,0.3c0.2,0.2,0.3,0,0.4-0.6c0.1-0.1,0.2-0.3,0.4-0.6c0.1-0.3,0.3-0.5,0.4-0.6
		c0-0.4,0.1-0.8,0.4-1.3c0.2-0.5,0.4-0.9,0.4-1.3c0.1-0.1,0.2-0.4,0.4-0.9c0.1-0.5,0.3-0.8,0.4-0.9c0-0.4,0.3-0.9,1-1.5
		c0-0.1,0-0.2,0-0.4c0-0.1,0-0.2,0.1-0.3s0.2-0.2,0.3-0.3c0-0.2,0-0.3,0-0.4s0-0.1,0.1-0.2s0.1-0.2,0.1-0.2s0-0.2,0.1-0.5
		c0.5-0.4,0.7-0.7,0.6-0.9c0.2-0.1,0.4-0.4,0.6-0.9c0.2,0,0.3,0,0.4,0c0.2-1,0.8-1.4,1.8-1.3c0.2-0.1,0.5-0.2,0.8-0.4
		c0.3-0.2,0.6-0.4,0.8-0.6C323.1,11.3,323.1,11.1,323.2,11.1z"/>
	<path fill="#C5E0B4" d="M379.1,12.7c0,0.3,0.2,0.7,0.7,1.2c1,0.8,1.6,1.2,1.9,1.3c0,0.1,0,0.2-0.1,0.2c-0.1,0.1-0.1,0.1-0.1,0.2
		c0.2,0.2,0.5,0.4,0.8,0.7c0.3,0.3,0.6,0.5,0.7,0.7c0,0.3,0.1,0.7,0.4,1.2s0.3,0.9,0,1.1l0.9,1.8c0,0.1-0.1,0.2-0.2,0.4
		s-0.2,0.4-0.2,0.6c-0.1,0.2-0.1,0.6,0,1.3s0.1,1.2,0,1.6c-0.3,0.4-0.5,0.6-0.6,0.7c0,0.2-0.1,0.5-0.1,0.8c-0.1,0.3-0.1,0.6-0.1,0.8
		c-0.1,0.1-0.3,0.3-0.5,0.7c-0.2,0.3-0.4,0.6-0.4,0.8c-0.6,0.5-0.9,0.9-0.9,1.3c-0.1,0-0.2,0-0.2,0c-0.1,0-0.1,0-0.2,0v0.6
		c-0.1,0-0.2,0-0.3-0.1c-0.1,0-0.2-0.1-0.3-0.1c-0.2,0-0.3,0.1-0.4,0.4c-0.1,0.2-0.2,0.4-0.3,0.5c-0.1,0-0.3,0-0.7-0.1
		c-0.4,0-0.6,0-0.7,0.1c-0.2,0.3-0.3,0.4-0.4,0.4s-0.2,0-0.4,0.1c-0.1,0.1-0.3,0.2-0.4,0.2c-0.1,0.1-0.2,0.2-0.4,0.4
		c-0.1,0-0.2,0-0.4,0.1c-0.1,0-0.2,0.1-0.2,0.2c0,0.1,0,0.2,0.1,0.2s0.1,0.1,0,0.2c-0.6,0.6-1.3,0.8-2,0.7c-0.1,0.1-0.3,0.2-0.7,0.3
		c-0.1,0.1-0.2,0.2-0.4,0.4c-0.2,0.1-0.3,0.2-0.4,0.2s-0.1,0-0.3,0c-0.1,0-0.3,0-0.4,0c-0.2,0-0.4,0.1-0.7,0.2
		c-0.3,0.1-0.5,0.2-0.6,0.2s-0.2,0-0.4-0.1c-0.2-0.1-0.3-0.1-0.4-0.1c-0.4,0.2-0.6,0.3-0.7,0.3s-0.2,0-0.2-0.1
		c-0.1-0.1-0.1-0.1-0.2-0.1l-0.9-0.1c-0.2-0.2-0.3-0.3-0.4-0.3s-0.4,0-1-0.1c-0.6,0-1-0.1-1.2-0.1c-0.2,0.1-0.3,0.2-0.2,0.4
		c0,0.2,0.1,0.3,0.2,0.3c0.3,1.2,0.6,2,1,2.3v0.4c0.3,0.4,0.8,0.8,1.5,1.1s1.1,0.6,1.3,0.8c0.6,0.1,1,0,1.2-0.3c0.4,0,0.6,0,0.7,0.1
		c0,0,0,0.2-0.1,0.4c0.1,0.1,0.3,0.2,0.6,0.3c0.3,0.1,0.5,0.1,0.6,0.1c0-0.1,0.1-0.2,0.4-0.3c0.2-0.1,0.4-0.1,0.5,0v0.3
		c0.3,0.3,0.9,0.4,2,0.4s1.7,0.1,2.1,0.1c0.6-0.3,1-0.5,1.3-0.6c0.1,0,0.2,0,0.4,0.1c0.7,0.1,1.8-0.1,3.2-0.7c0.1,0,0.2-0.1,0.4-0.2
		c0.2-0.1,0.4-0.2,0.6-0.2c0.1-0.1,0.3-0.1,0.6-0.1c0.3,0.1,0.5,0.1,0.6,0.1s0.2,0,0.2-0.1s0.1-0.1,0.1-0.1s0.2,0,0.5-0.1
		s0.5-0.2,0.6-0.3c0.8,0,1.6-0.4,2.3-1.3c0.1,0,0.2,0.1,0.4,0.3c0.2,0,0.4-0.1,0.5-0.3s0.3-0.3,0.5-0.3c0.1,0,0.2-0.1,0.3-0.1
		c0.1-0.1,0.1-0.2,0.1-0.3c0.4,0.1,0.7,0,1-0.3c0.3,0.1,0.6,0,0.9-0.3c0.1-0.1,0.2-0.2,0.3-0.2c0.1,0,0.2-0.1,0.4-0.1
		c0.1,0,0.3,0,0.4,0c0.1-0.1,0.3-0.2,0.5-0.4c0.2-0.1,0.5-0.3,0.7-0.4l1.5,0.1c0.1,0,0.2,0.1,0.2,0.2c0,0.1,0.1,0.2,0.2,0.2
		c0.4-0.1,0.6-0.1,0.7,0c0,0.1-0.1,0.1-0.4,0.1c0,0.2,0.2,0.3,0.6,0.3c0.7,0.4,1,0.8,1,1.3c0.5,0.1,0.8,0.2,0.9,0.3
		c0.3,0.7,0.1,1.5-0.4,2.3v0.1c-0.5,0-0.9,0.2-1.1,0.7s-0.4,0.8-0.5,0.9c-0.1,0.1-0.2,0.2-0.4,0.3c-0.1,0.1-0.3,0.2-0.4,0.3
		c0-0.1-0.1-0.1-0.3,0c-0.1,0-0.2,0.1-0.4,0.4c-0.1,0.2-0.3,0.4-0.4,0.4c-0.1,0.1-0.3,0.1-0.6,0.2c-0.3,0.1-0.5,0.2-0.6,0.3
		c-0.1,0-0.2,0.1-0.3,0.3c-0.1,0.2-0.2,0.3-0.3,0.4c-0.2,0.1-0.6,0.2-1.1,0.2c-0.5,0.1-1,0.2-1.2,0.4c-0.9,0.1-1.4,0.2-1.5,0.3
		c0,0.2,0,0.3,0,0.4c-0.7,0.1-1.1,0.3-1.3,0.7c-0.4-0.1-0.8,0-1.3,0.3c-0.2,0.2-0.4,0.3-0.6,0.4h-0.3c-0.1,0.1-0.2,0.2-0.4,0.3
		c-0.4,0.2-0.7,0.2-0.9,0c-0.4,0.3-0.7,0.5-1,0.6c-0.3,0.2-0.4,0.3-0.4,0.4c-0.3,0.1-0.8,0.1-1.5,0.1c-0.1,0-0.2,0-0.4,0
		c-0.1,0-0.3,0-0.4,0s-0.2,0-0.3,0.1c-0.1,0.1-0.2,0.2-0.3,0.3c-0.1,0-0.2,0-0.4,0c-0.1,0-0.3,0-0.4,0s-0.3,0-0.6,0.1
		c-0.1,0-0.2,0-0.4-0.1c-0.2,0-0.3-0.1-0.4-0.1c-0.2,0-0.4,0-0.7,0.1c-0.3,0-0.5,0.1-0.7,0.1s-0.5,0-1-0.1c-0.4,0-0.8-0.1-1-0.1
		s-0.6,0-1,0.1c-0.7,0.1-1.1,0.1-1.2-0.1c-0.2,0-0.5,0-0.8,0.1c-0.3,0-0.6,0.1-0.8,0.1c-0.1,0-0.2,0-0.4-0.1c-0.1,0-0.2-0.1-0.3-0.1
		c-0.1,0-0.1,0-0.3,0c-0.1,0-0.2,0-0.3,0c-0.1,0-0.1,0-0.2-0.1c-0.1,0-0.2-0.1-0.3-0.2c-0.1,0-0.2,0-0.4,0.1c-0.1,0-0.2,0.1-0.3,0.1
		s-0.2-0.1-0.5-0.3c-0.7-0.2-1-0.3-1-0.4c-0.4-0.1-0.6-0.2-0.7-0.3c0-0.1-0.2-0.2-0.6-0.2s-0.6-0.2-0.7-0.4c-0.4,0-0.7-0.1-1-0.4
		c-0.3,0-0.6-0.1-1-0.3c-0.3,0-0.5,0-0.6,0c0-0.2,0-0.3,0-0.4c-0.8-0.7-1.3-1.2-1.6-1.6c-0.1,0-0.2,0-0.3,0.1
		c-0.1,0.1-0.2,0-0.3-0.1c0-0.1-0.1-0.3-0.3-0.5c-0.2-0.2-0.3-0.5-0.3-0.7c-0.2-0.1-0.4-0.1-0.6-0.1v-0.3c-0.3-0.2-0.6-0.3-0.9-0.4
		c-0.5-0.7-0.8-1-0.9-1v-0.3c-0.1-0.2-0.3-0.5-0.5-1s-0.4-0.8-0.5-0.9c-0.4-0.5-0.6-0.8-0.6-0.9c-0.1-0.1-0.1-0.2-0.1-0.4
		s0-0.3,0-0.4c-0.1-0.1-0.1-0.2-0.2-0.4s-0.2-0.3-0.3-0.4c0-0.2,0-0.4,0-0.7s0-0.5,0-0.7c0-0.1,0-0.2-0.1-0.3c0-0.1-0.1-0.2-0.1-0.3
		c0-0.2,0.2-0.5,0.6-0.9c-0.1-0.3-0.3-0.4-0.6-0.4l-0.3-1c0.7-0.4,0.8-0.8,0.4-1.2c0.2-0.6,0.3-0.9,0.3-1c0,0,0.1-0.2,0.3-0.4
		c0.2-0.2,0.2-0.4,0.1-0.6c0-0.1,0.1-0.2,0.2-0.2c0.1-0.1,0.2-0.1,0.2-0.2c0-0.1-0.1-0.2-0.2-0.2s-0.2-0.1-0.2-0.2
		c0-0.1,0.1-0.3,0.3-0.6c0-0.1,0-0.3,0-0.6s0-0.5,0-0.6c0.2-0.5,0.3-0.8,0.3-1c0.3,0,0.4-0.2,0.4-0.7c0-0.3,0-0.5,0-0.7
		c0.1-0.1,0.3-0.3,0.7-0.6c0.6-0.6,0.9-1,1-1.1c0-0.1,0.1-0.4,0.1-0.7s0.1-0.6,0.1-0.7c0.1-0.1,0.2-0.2,0.4-0.3
		c0.2-0.1,0.3-0.2,0.4-0.2c0,0,0-0.1-0.1-0.2c-0.1-0.1-0.1-0.2-0.1-0.3c0.1-0.1,0.2-0.3,0.3-0.5c0.1-0.2,0.2-0.4,0.3-0.5
		c0.3-0.1,0.6-0.3,1-0.7c-0.1-0.2,0-0.6,0.3-1.3c0.7-0.1,1.1-0.5,1.2-1.2c0.1-0.1,0.2-0.1,0.3-0.1c0.1,0,0.2-0.1,0.3-0.4
		c0.1,0,0.2,0,0.3,0.1c0.1,0.1,0.2,0.1,0.3,0.2c0.3,0,0.6-0.2,1-0.7c0-0.4,0-0.6,0.1-0.7c0.1,0,0.3,0.1,0.7,0.4
		c0.7-0.1,0.9-0.5,0.7-1.3c0.3,0,0.6-0.1,1-0.3c0.4-0.2,0.7-0.3,0.9-0.4c0.3,0,0.5,0,0.5,0s0.1,0,0.1-0.1l0.1-0.1
		c0,0,0.1-0.1,0.3-0.1c0.1,0,0.2,0,0.2-0.1c0.1,0,0.3-0.1,0.5-0.4c0.2-0.2,0.4-0.4,0.5-0.4c0.1-0.1,0.3-0.1,0.7-0.1
		c0.4,0.1,0.6,0,0.7-0.1c0.1,0,0.2,0,0.4-0.1c0.1-0.1,0.2-0.2,0.3-0.2c0-0.1,0.1-0.1,0.3-0.1c0.1,0,0.3,0,0.4,0s0.2-0.1,0.3-0.2
		c0.1-0.1,0.2-0.2,0.4-0.2c0.1,0,0.2,0.1,0.3,0.2c0.1,0.1,0.2,0.2,0.3,0.2c0.1,0,0.2,0,0.4,0c0.2,0,0.4,0,0.6,0
		c0.2,0.3,0.6,0.5,1.3,0.6c0.1,0,0.2,0,0.4,0.1c0.1,0,0.3,0.1,0.4,0.1l1.2,0.3C378.6,12.4,378.8,12.7,379.1,12.7z M377.2,11.5
		l1.2,0.3c0.2,0.6,0.4,0.9,0.7,0.9c0,0.3,0.2,0.7,0.7,1.2c1,0.8,1.6,1.2,1.9,1.3c0,0.1,0,0.2-0.1,0.2c-0.1,0.1-0.1,0.1-0.1,0.2
		c0.2,0.2,0.5,0.4,0.8,0.7c0.3,0.3,0.6,0.5,0.7,0.7c0,0.3,0.1,0.7,0.4,1.2s0.3,0.9,0,1.1l0.9,1.8c0,0.1-0.1,0.2-0.2,0.4
		s-0.2,0.4-0.2,0.6c-0.1,0.2-0.1,0.6,0,1.3s0.1,1.2,0,1.6c-0.3,0.4-0.5,0.6-0.6,0.7c0,0.2-0.1,0.5-0.1,0.8c-0.1,0.3-0.1,0.6-0.1,0.7
		c-0.1,0.2-0.3,0.5-0.5,0.8s-0.4,0.6-0.4,0.8c-0.6,0.5-0.9,0.9-0.9,1.3c-0.1,0-0.2,0-0.2,0c-0.1,0-0.1,0-0.2,0v0.6
		c-0.1,0-0.2,0-0.3-0.1c-0.1,0-0.2-0.1-0.3-0.1c-0.2,0-0.3,0.1-0.4,0.4c-0.1,0.2-0.2,0.4-0.3,0.5c-0.1,0-0.3,0-0.7-0.1
		c-0.4,0-0.6,0-0.7,0.1c-0.2,0.3-0.3,0.4-0.4,0.4s-0.2,0-0.4,0.1c-0.1,0.1-0.3,0.2-0.4,0.2c-0.1,0.1-0.2,0.2-0.4,0.4
		c-0.1,0-0.2,0-0.4,0.1c-0.1,0-0.2,0.1-0.2,0.2c0,0.1,0,0.2,0.1,0.2s0.1,0.1,0,0.2c-0.6,0.6-1.3,0.8-2,0.7c-0.1,0.1-0.3,0.2-0.7,0.3
		c-0.1,0.1-0.2,0.2-0.4,0.4c-0.2,0.1-0.3,0.2-0.4,0.2s-0.1,0-0.3,0c-0.1,0-0.3,0-0.4,0c-0.2,0-0.4,0.1-0.7,0.2
		c-0.3,0.1-0.5,0.2-0.6,0.2s-0.2,0-0.4-0.1c-0.2-0.1-0.3-0.1-0.4-0.1c-0.4,0.2-0.6,0.3-0.7,0.3s-0.2,0-0.2-0.1
		c-0.1-0.1-0.1-0.1-0.2-0.1l-0.9-0.1c-0.2-0.2-0.3-0.3-0.4-0.3s-0.4,0-1-0.1c-0.6,0-1-0.1-1.3-0.1c-0.1,0.1-0.1,0.2-0.1,0.4
		s0.1,0.3,0.2,0.3c0.3,1.2,0.6,2,1,2.3v0.4c0.3,0.4,0.8,0.8,1.5,1.1s1.1,0.6,1.3,0.8c0.6,0.1,1,0,1.2-0.3c0.4,0,0.6,0,0.7,0.1
		c0,0,0,0.2-0.1,0.4c0.1,0.1,0.3,0.2,0.6,0.3h0.6c0.5-0.2,0.8-0.2,0.9-0.1v0.3c0.3,0.3,0.9,0.4,2,0.4s1.7,0.1,2.1,0.1
		c0.6-0.3,1-0.5,1.3-0.6c0.1,0,0.2,0,0.4,0.1c0.7,0.1,1.8-0.1,3.2-0.7c0.1,0,0.2-0.1,0.4-0.2c0.2-0.1,0.4-0.2,0.6-0.2
		c0.1-0.1,0.3-0.1,0.6-0.1c0.3,0.1,0.5,0.1,0.6,0.1s0.2,0,0.2-0.1s0.1-0.1,0.1-0.1s0.2,0,0.5-0.1s0.5-0.2,0.6-0.3
		c0.8,0,1.6-0.4,2.3-1.3c0.1,0,0.2,0.1,0.4,0.3c0.2,0,0.4-0.1,0.5-0.3s0.3-0.3,0.5-0.3c0.1,0,0.2-0.1,0.3-0.1
		c0.1-0.1,0.1-0.2,0.1-0.3c0.4,0.1,0.7,0,1-0.3c0.3,0.1,0.6,0,0.9-0.3c0.1-0.1,0.2-0.2,0.3-0.2c0.1,0,0.2-0.1,0.4-0.1
		c0.1,0,0.3,0,0.4,0c0.1-0.1,0.3-0.2,0.5-0.4c0.2-0.1,0.5-0.3,0.7-0.4l1.5,0.1c0.1,0,0.2,0.1,0.2,0.2c0,0.1,0.1,0.2,0.2,0.2
		c0.4-0.1,0.6-0.1,0.7,0c0,0.1-0.1,0.1-0.4,0.1c0,0.2,0.2,0.3,0.6,0.3c0.7,0.4,1,0.8,1,1.3c0.5,0.1,0.8,0.2,0.9,0.3
		c0.3,0.7,0.1,1.5-0.4,2.3V40c-0.5,0-0.9,0.2-1.1,0.7s-0.4,0.8-0.5,0.9c-0.1,0.1-0.2,0.2-0.4,0.3c-0.1,0.1-0.3,0.2-0.4,0.3
		c0-0.1-0.1-0.1-0.3,0c-0.1,0-0.2,0.1-0.4,0.4c-0.1,0.2-0.3,0.4-0.4,0.4c-0.1,0.1-0.3,0.1-0.6,0.2c-0.3,0.1-0.5,0.2-0.6,0.3
		c-0.1,0-0.2,0.1-0.3,0.3c-0.1,0.2-0.2,0.3-0.3,0.4c-0.2,0.1-0.6,0.2-1.1,0.2c-0.5,0.1-1,0.2-1.2,0.4c-0.9,0.1-1.4,0.2-1.5,0.3
		c0,0.2,0,0.3,0,0.4c-0.7,0.1-1.1,0.3-1.3,0.7c-0.4-0.1-0.8,0-1.3,0.3c-0.2,0.2-0.4,0.3-0.6,0.4h-0.3c-0.1,0.1-0.2,0.2-0.4,0.3
		c-0.4,0.2-0.7,0.2-0.9,0c-0.4,0.3-0.7,0.5-1,0.6c-0.3,0.2-0.4,0.3-0.4,0.4c-0.3,0.1-0.8,0.1-1.5,0.1c-0.1,0-0.2,0-0.4,0
		c-0.1,0-0.3,0-0.4,0s-0.2,0-0.3,0.1c-0.1,0.1-0.2,0.2-0.3,0.3c-0.1,0-0.2,0-0.4,0c-0.1,0-0.3,0-0.4,0s-0.3,0-0.6,0.1
		c-0.1,0-0.2,0-0.4-0.1c-0.2,0-0.3-0.1-0.4-0.1c-0.2,0-0.4,0-0.7,0.1c-0.3,0-0.5,0.1-0.7,0.1s-0.5,0-1-0.1c-0.4,0-0.8-0.1-1-0.1
		s-0.6,0-1,0.1c-0.7,0.1-1.1,0.1-1.2-0.1c-0.2,0-0.5,0-0.8,0.1c-0.3,0-0.6,0.1-0.8,0.1c-0.1,0-0.2,0-0.4-0.1c-0.1,0-0.2-0.1-0.3-0.1
		c-0.1,0-0.1,0-0.3,0c-0.1,0-0.2,0-0.3,0c-0.1,0-0.1,0-0.2-0.1c-0.1,0-0.2-0.1-0.3-0.2c-0.1,0-0.2,0-0.4,0.1c-0.1,0-0.2,0.1-0.3,0.1
		s-0.2-0.1-0.5-0.3c-0.7-0.2-1-0.3-1-0.4c-0.4-0.1-0.6-0.2-0.7-0.3c0-0.1-0.2-0.2-0.6-0.2s-0.6-0.2-0.7-0.4c-0.4,0-0.7-0.1-1-0.4
		c-0.3,0-0.6-0.1-1-0.3c-0.3,0-0.5,0-0.6,0c0-0.2,0-0.3,0-0.4c-0.8-0.7-1.3-1.2-1.6-1.6c-0.1,0-0.2,0-0.3,0.1
		c-0.1,0.1-0.2,0-0.3-0.1c0-0.1-0.1-0.3-0.3-0.5c-0.2-0.2-0.3-0.5-0.3-0.7c-0.2-0.1-0.4-0.1-0.6-0.1v-0.3c-0.3-0.2-0.6-0.3-0.9-0.4
		c-0.5-0.7-0.8-1-0.9-1v-0.3c-0.1-0.2-0.3-0.5-0.5-1s-0.4-0.8-0.5-0.9c-0.4-0.5-0.6-0.8-0.6-0.9c-0.1-0.1-0.1-0.2-0.1-0.4
		s0-0.3,0-0.4c-0.1-0.1-0.1-0.2-0.2-0.4s-0.2-0.3-0.3-0.4c0-0.2,0-0.4,0-0.7s0-0.5,0-0.7c0-0.1,0-0.2-0.1-0.3c0-0.1-0.1-0.2-0.1-0.3
		c0-0.2,0.2-0.5,0.6-0.9c-0.1-0.3-0.3-0.4-0.6-0.4l-0.3-1c0.7-0.4,0.8-0.8,0.4-1.2c0.2-0.6,0.3-0.9,0.3-1c0,0,0.1-0.2,0.3-0.4
		c0.2-0.2,0.2-0.4,0.1-0.6c0-0.1,0.1-0.2,0.2-0.2c0.1-0.1,0.2-0.1,0.2-0.2c0-0.1-0.1-0.2-0.2-0.2s-0.2-0.1-0.2-0.2
		c0-0.1,0.1-0.3,0.3-0.6c0-0.1,0-0.3,0-0.6s0-0.5,0-0.6c0.2-0.5,0.3-0.8,0.3-1c0.3,0,0.4-0.2,0.4-0.7c0-0.3,0-0.5,0-0.7
		c0.1-0.1,0.3-0.3,0.7-0.6c0.6-0.6,0.9-1,1-1.1c0-0.1,0.1-0.4,0.1-0.7s0.1-0.6,0.1-0.7c0.1-0.1,0.2-0.2,0.4-0.3
		c0.2-0.1,0.3-0.2,0.4-0.2c0,0,0-0.1-0.1-0.2c-0.1-0.1-0.1-0.2-0.1-0.3c0.1-0.1,0.2-0.3,0.3-0.5c0.1-0.2,0.2-0.4,0.3-0.5
		c0.3-0.1,0.6-0.3,1-0.7c-0.1-0.2,0-0.6,0.3-1.3c0.7-0.1,1.1-0.5,1.2-1.2c0.1-0.1,0.2-0.1,0.3-0.1c0.1,0,0.2-0.1,0.3-0.4
		c0.1,0,0.2,0,0.3,0.1c0.1,0.1,0.2,0.1,0.3,0.2c0.3,0,0.6-0.2,1-0.7c0-0.4,0-0.6,0.1-0.7c0.1,0,0.3,0.1,0.7,0.4
		c0.7-0.1,0.9-0.5,0.7-1.3c0.3,0,0.6-0.1,1-0.3c0.4-0.2,0.7-0.3,0.9-0.4c0.3,0,0.5,0,0.5,0s0.1,0,0.1-0.1l0.1-0.1
		c0,0,0.1-0.1,0.3-0.1c0.1,0,0.2,0,0.2-0.1c0.1,0,0.3-0.1,0.5-0.4c0.2-0.2,0.4-0.4,0.5-0.4c0.1-0.1,0.3-0.1,0.7-0.1
		c0.4,0.1,0.6,0,0.7-0.1c0.1,0,0.2,0,0.4-0.1c0.1-0.1,0.2-0.2,0.3-0.2c0-0.1,0.1-0.1,0.3-0.1c0.1,0,0.3,0,0.4,0s0.2-0.1,0.3-0.2
		c0.1-0.1,0.2-0.2,0.4-0.2c0.1,0,0.2,0.1,0.3,0.2c0.1,0.1,0.2,0.2,0.3,0.2c0.1,0,0.2,0,0.4,0c0.2,0,0.4,0,0.6,0
		c0.2,0.3,0.6,0.5,1.3,0.6c0.1,0,0.2,0,0.4,0.1C377,11.5,377.1,11.5,377.2,11.5z M362.6,15.9c0,0.1,0,0.2,0,0.3
		c0.1,0.1,0.2,0.1,0.3,0.1c0-0.1,0-0.2-0.1-0.3C362.8,16,362.7,15.9,362.6,15.9z M362.6,16.2c0.1,0.1,0.2,0.1,0.3,0.1
		c0-0.1,0-0.2-0.1-0.3c-0.1-0.1-0.1-0.1-0.2-0.1C362.6,16,362.6,16.1,362.6,16.2z M369.8,25.5c0.4,0,0.8-0.1,1.2-0.4
		c0.4-0.2,0.8-0.4,1-0.5c0.4-0.5,0.9-0.8,1.5-1c0-0.1,0.1-0.2,0.3-0.4c0.4-0.7,0.6-1.2,0.6-1.5c0-0.5-0.2-0.7-0.6-0.6
		c-0.7,0.2-1.2,0.5-1.5,0.9c-0.3-0.2-0.7-0.1-1.2,0.3c-1.3,0.9-2,1.5-2,1.8c-0.2,0.1-0.4,0.2-0.6,0.4c0,0.2-0.1,0.4-0.1,0.5
		c-0.1,0.1-0.1,0.3-0.1,0.4c0.1,0.1,0.4,0.1,0.8,0.1C369.4,25.3,369.7,25.4,369.8,25.5z M368.2,25.3c0.1,0.1,0.4,0.1,0.8,0.1
		s0.7,0,0.8,0.1c0.4,0,0.8-0.1,1.2-0.4c0.4-0.2,0.8-0.4,1-0.5c0.4-0.5,0.9-0.8,1.5-1c0-0.1,0.1-0.2,0.3-0.4c0.4-0.7,0.6-1.2,0.6-1.5
		c0-0.5-0.2-0.7-0.6-0.6c-0.7,0.2-1.2,0.5-1.5,0.9c-0.3-0.2-0.7-0.1-1.2,0.3c-1.3,0.9-2,1.5-2,1.8c-0.2,0.1-0.4,0.2-0.6,0.4
		c0,0.2-0.1,0.4-0.1,0.5C368.2,25.1,368.2,25.2,368.2,25.3z"/>
</g>
</svg>
