<?xml version="1.0" encoding="utf-8"?>
<!-- Generator: Adobe Illustrator 19.0.1, SVG Export Plug-In . SVG Version: 6.00 Build 0)  -->
<svg version="1.1" id="Layer_1" xmlns="http://www.w3.org/2000/svg" xmlns:xlink="http://www.w3.org/1999/xlink" x="0px" y="0px"
	 viewBox="0 -65 400 200" enable-background="new 0 -65 400 200" xml:space="preserve">
<g>
	<path fill="#D93427" d="M114.4-58.1c0-0.5,0.3-0.5,1,0c0.2,0.3,0.5,0.3,0.8,0.2s0.6,0,0.8,0.2v1.5c0.4,0.2,0.8,0.4,1.3,0.4
		c0.2,0.2,0.7,0.6,1.6,1.1c0.8,0.5,1.5,0.9,1.9,1.1c0-0.2,0.3-0.2,0.9,0c0.2,0.5,0.5,1,1,1.5h1.3c0.2,0.3,0.3,0.7,0.2,1.3
		c-0.1,0.6-0.1,1,0,1.1s0.4,0.6,0.8,1.3s0.5,1.5,0.3,2.2c0,0.3,0.2,0.4,0.5,0.4s0.6,0.1,0.8,0.4c0,0.5-0.2,1.1-0.6,1.9
		c0.2,3,0.6,4.4,1.3,4.4c0.2,0.3,0.3,1.5,0.3,3.7l-1,0.4c-0.2,0.2-0.3,0.6-0.3,1.1c-0.2,1.3-0.8,1.6-1.9,1.1c0,0.3-0.2,0.7-0.5,1.3
		s-0.6,1.2-0.8,1.7c-2.1-0.2-3.3-0.4-3.5-0.4s-0.5,0.3-1,0.9S119-28.2,119-28c-0.4-0.2-0.9-0.2-1.4,0s-0.9,0.4-1.1,0.4
		c-0.4-0.2-0.6-0.5-0.6-0.7c-1.3,0-1.9,0.7-1.9,2.2c-0.6,0.2-1.2,0.2-1.6,0c-0.2-1.2-0.4-1.9-0.6-1.9c-0.9,0.5-1.4,0.6-1.6,0.4
		c-0.4-1-0.8-1.6-1.3-1.9c-0.2,0-0.4,0.1-0.5,0.4s-0.3,0.4-0.5,0.4c-1.7-0.8-3.2-0.8-4.5,0c0,0.5,0,0.9,0,1.1
		c-0.4,0.3-2.2,0.3-5.3,0.2c-3.1-0.1-4.9-0.2-5.6-0.2c-0.2,0-0.4-0.1-0.6-0.4c-2.3-0.2-3.2,0.2-2.5,1.5c-3,0.7-4.8,0.6-5.4-0.4
		c-0.4,0.3-0.6,1-0.6,2.2s0.2,2,0.6,2.2c0.4,0,0.7,0,1,0c0.2,0.5,0,1-0.6,1.5c0,1.7,0.4,3,1.3,3.7v1.5c0.4,0.2,0.6,0.5,0.6,0.7
		s-0.2,0.6-0.6,1.1c-0.2,0.7-0.1,1.4,0.3,2s0.6,1.2,0.6,1.7c-0.2,1-0.3,1.6-0.3,1.9c0.2,0.3,0.5,0.6,0.8,1.1s0.4,1,0.2,1.5
		c0.4,0.3,0.8,0.9,1.1,1.9c0.3,1,0.9,1.5,1.8,1.5c0,0.3-0.1,0.6-0.2,1.1s-0.1,0.9,0.2,1.1c0.2,0,0.4-0.1,0.5-0.4
		c0.1-0.2,0.3-0.2,0.5,0c0,0.3-0.2,0.6-0.6,1.1v2.2c0.4,0.2,0.8,0.8,1.1,1.7c0.3,0.9,0.7,1.4,1.1,1.7c-0.2,1,0,2,0.6,3
		s0.9,1.9,0.9,2.6c0.2,0.3,0.5,0.6,0.8,1.1s0.5,1,0.5,1.5c0.2,0,0.5,0.4,0.9,1.1s0.8,1.2,1,1.5c-0.2,1.5,0.4,2.9,1.9,4.1
		c0.2,1,0.8,2.2,1.9,3.7v1.1c0.2,0.3,0.6,0.5,1.3,0.7c1.1,2.5,1.8,4,2.2,4.5c0.2,0,0.5,0.1,1,0.4c0.4,0.2,0.8,0.4,1.3,0.4
		c0,0.8-0.2,1.5-0.6,2.2c0.2,0.2,0.4,0.6,0.6,1.1s0.3,1,0.3,1.5c0.2,0,0.5,0.1,1,0.4c0.4,0.2,0.8,0.4,1.3,0.4c0,0.5,0.2,1.2,0.5,2
		c0.3,0.9,0.6,1.4,0.8,1.7c0.2,0.2,0.5,0.4,0.8,0.6c0.3,0.1,0.6,0.2,0.8,0.2c0.2,1.7,0.5,2.6,1,2.6c0,0.3,0,0.4,0,0.6s0,0.3,0,0.6
		c0.2,0,0.4,0,0.6,0s0.4,0.1,0.5,0.2s0.1,0.3,0,0.4s-0.1,0.2,0,0.4c0.1,0.1,0.4,0.3,0.8,0.6c0.6,1.7,1.5,3.3,2.6,4.8h1
		c0,0.2,0.1,0.4,0.3,0.5c0.2,0.1,0.3,0.3,0.3,0.6s0,0.4,0,0.6c0,0.1,0.1,0.3,0.3,0.4c0.2,0.1,0.4,0.2,0.5,0.4
		c0.1,0.1,0.2,0.4,0.2,0.7c0,0.4,0,0.7,0.2,0.9c0.1,0.2,0.4,0.6,0.8,1.1c0.2,1.5,1,2.6,2.2,3.3c0,0.2,0.4,0.9,1.3,1.9
		c0,1,0.3,2,0.8,3s0.8,1.7,0.8,2.2c1.5,1.5,2.2,2.6,2.2,3.3l0.9,0.7c0.2,2,0.8,3.5,1.6,4.5c0,0.5,0.4,2.2,1.3,5.2
		c0,0.3,0.3,0.5,0.9,0.7c0.2,0.5,0.1,1.2-0.3,2.2c0,1,0.3,1.7,0.9,2.2c0,1.7,0,2.9,0,3.3l0.6,0.7c0,2.2-0.2,3.5-0.6,3.7
		c0.2,1-0.1,1.9-0.9,2.6c0.4,2.2,0.2,3.7-0.6,4.5v0.7l-2.9,4.8c-0.4,0-0.7,0.1-0.9,0.4c-0.2,0.5-0.3,1-0.3,1.5c-0.4,0-0.8,0.5-1,1.5
		c-0.2,0-0.4-0.2-0.6-0.7c-1.1,0.7-1.5,1.9-1.3,3.3c-0.2,0-0.8-0.1-1.6-0.4c-0.4,0-0.9,0.4-1.3,1.1s-0.9,1.1-1.3,1.1
		c0,0.2-0.1,0.5-0.2,0.7c-0.1,0.3-0.3,0.5-0.5,0.7c-0.2-0.2-0.5-0.2-0.8,0.2s-0.6,0.6-0.8,0.6c-0.4-0.7-1.1-1-2.1-0.9
		s-1.7,0.7-2.1,1.7c0,0.2,0.1,0.5,0.3,0.7c0.2,0.2,0.3,0.5,0.3,0.7c-0.2,0-0.5-0.2-1-0.7c-0.2-0.2-0.4-0.4-0.6-0.4
		c-0.6,0-1.7,0.4-3.2,1.1c-0.2,0-0.4-0.1-0.5-0.2s-0.3-0.2-0.5-0.2c-0.4,0-1,0.3-1.8,0.7c-0.7,0.5-1.3,0.8-1.8,0.8
		c-0.2,0.2-0.5,0.3-0.8,0.2s-0.5-0.1-0.6,0s-0.3,0.3-0.5,0.6c-0.2,0.2-0.4,0.4-0.6,0.4c-0.2,0.3-0.7,0.3-1.4,0.2
		c-0.8-0.1-1.2-0.1-1.4,0.2c-0.2,0-0.4,0.2-0.5,0.6s-0.3,0.6-0.5,0.6c-1.5,0-2.3,0.1-2.4,0.2s-0.3,0.4-0.5,0.9s-0.4,0.7-0.6,0.7
		c-0.4,0-0.7-0.2-0.9-0.7c-0.2-0.5-0.4-0.7-0.6-0.7c-0.4,0.3-1.3,0.4-2.7,0.6c-1.4,0.1-2.1,0.7-2.1,1.7c-0.2,0-0.4-0.2-0.6-0.6
		s-0.4-0.6-0.6-0.6c-0.2-0.2-0.9-0.1-2.1,0.6c-1.2,0.6-1.9,1.1-2.1,1.3c-0.4-0.2-1.1-0.4-1.9-0.4c-0.9,0-1.4-0.1-1.6-0.4
		c-0.2,0-0.4,0.1-0.6,0.4s-0.4,0.4-0.6,0.4s-0.4-0.1-0.5-0.4c-0.1-0.2-0.3-0.4-0.5-0.4c-1.3-0.5-3,0-5.1,1.5c-0.2,0-0.4-0.2-0.5-0.6
		s-0.3-0.7-0.5-0.9c-1.3,0-2.3,0.1-3.2,0.4c-0.2,0.3-0.4,0.6-0.6,1.1c-0.9,1.2-1.6,1.2-2.2,0c-0.6,1.5-1.3,1.6-1.9,0.4
		c-0.2,0-0.4,0.3-0.6,0.8c-0.2,0-0.4-0.1-0.5-0.4c-0.1-0.2-0.3-0.4-0.5-0.4c0-0.5-0.5-0.5-1.6-0.2c-1.1,0.4-1.7,0.6-1.9,0.6
		s-0.5-0.1-0.8-0.2s-0.6-0.2-0.8-0.2c-0.4,0-1.2,0.1-2.2,0.2c-1.1,0.1-1.9,0.1-2.5-0.2c-0.6,1.5-1.4,1.5-2.2,0
		c-1.3,1.3-2.2,1.3-2.9,0c-0.2,0-0.4,0.1-0.6,0.4c-0.2,0.3-0.4,0.4-0.6,0.4s-0.4-0.1-0.5-0.4c-0.1-0.2-0.3-0.4-0.5-0.4s-1.3,0-3.2,0
		l-0.6,0.8c-1.5,0-3.9,0-7.3,0s-5.6,0-6.7,0c-0.2-1.2-0.6-1.9-1.1-1.9s-1.1,0.2-1.8,0.7c-0.2,0-0.3-0.2-0.3-0.6s0-0.7,0-0.9
		c-1.1-0.3-1.9-0.3-2.5,0v-0.8c0-0.2-0.1-0.4-0.3-0.5c-0.2-0.1-0.4-0.2-0.6-0.2c0-0.5-0.2-1.1-0.6-1.9c0-1-0.3-1.6-1-1.8
		c-0.2,0-1,0.2-2.2,0.7l0.3-0.7c-0.4-0.5-0.8-0.8-1-0.8c0-0.2-0.2-1-0.6-2.2c-0.2,0-0.4,0.1-0.5,0.4c-0.1,0.2-0.3,0.4-0.5,0.4
		c-0.2-0.2-0.5-0.9-0.8-1.9s-0.7-1.6-1.1-1.9c-0.2-0.7,0-1.4,0.6-1.9c0.2-0.2,0.3-0.5,0.3-0.7c0.4-1.5,0.8-2.2,1-2.2
		c0-0.2-0.1-0.5-0.3-0.7s-0.3-0.4-0.3-0.6c0-0.1,0.4-0.7,1.3-1.7c0.2-0.2,0.4-0.6,0.5-0.9c0.1-0.4,0.2-0.6,0.3-0.7
		c0.1-0.1,0.3-0.3,0.6-0.6c0.3-0.2,0.5-0.5,0.5-0.7c0.8-1.2,1.5-1.9,1.9-1.9c0.2-0.5,0.3-0.9,0.3-1.1c0.6,0.3,1.1,0.1,1.4-0.4
		s0.7-0.7,1.1-0.7c2.6-2.5,4.6-4.1,6.1-4.8l0.3-1.1c0.8,0.5,1.8,0.3,2.9-0.7c0.2-0.5,0.5-0.7,1-0.7c0-0.7,0.1-1.1,0.3-1.1
		c0,1,0.6,1.2,1.9,0.7c0.6-0.2,1.2-0.4,1.6-0.4c0.8-1,1.6-1.4,2.2-1.1c0.2-0.2,0.9-1,2.2-2.2c0.4,0,1-0.1,1.8-0.4
		c0.7-0.2,1.4-0.4,2.1-0.4c0.2,0,0.3-0.1,0.2-0.4c-0.1-0.2-0.1-0.4,0.2-0.4c0.4,0,1,0,1.6,0s1-0.4,1-1.1c0.2,0.3,0.4,0.5,0.5,0.8
		c0.1,0.2,0.3,0.4,0.5,0.4s0.4-0.1,0.6-0.4c0.2-0.3,0.4-0.4,0.6-0.4c0.4,1.2,1.3,1.9,2.6,1.9c0.2,0,0.4,0.2,0.5,0.6s0.3,0.6,0.5,0.6
		c0.2,0.2,0.7,0.4,1.6,0.4c0.8,0,1.4,0.3,1.6,0.7c0,0.3-0.1,0.6-0.2,0.9c-0.1,0.4-0.2,0.7-0.2,0.9c0.9,0,1.4,0.1,1.6,0.4
		c-0.4,0.5-0.6,1.7-0.5,3.5c0.1,1.9-0.2,2.8-0.8,2.8c0.2,0.7-0.1,1.5-0.8,2.4c-0.8,0.9-1.2,1.4-1.4,1.7c0.2,0.5,0.7,0.7,1.4,0.6
		s1.2-0.4,1.4-0.9c0.2,0.7,0.8,1.1,1.9,1.1c1.1,0,1.8,0.3,2.2,0.7c1.9-0.7,3-0.9,3.2-0.4c0.2,0,0.5-0.1,1-0.4c0.4-0.2,1-0.1,1.8,0.4
		s1.2,0.6,1.4,0.4c0.2,0,0.4-0.1,0.6-0.4s0.4-0.4,0.6-0.4s0.8,0.3,1.8,0.7c1,0.5,1.5,0.4,1.8-0.4c0.6,0.2,1.3,0.1,1.9-0.4
		c0.2-0.2,0.4-0.4,0.6-0.4c0.4-0.2,1.2-0.2,2.4,0c1.2,0.3,2,0.3,2.4,0c0-0.2,0.1-0.4,0.3-0.5c0.2-0.1,0.4-0.3,0.6-0.6
		c3.2-0.2,4.8-0.2,4.8,0c0.2,0,0.5-0.4,1-1.1c0.4,0,1.3-0.1,2.7-0.2c1.4-0.1,2.2-0.1,2.4,0.2c0.8,0.3,1.7-0.2,2.6-1.5
		c0.2,0,0.6,0,1.1,0s0.9-0.1,1.1-0.4c0.2,0.3,0.4,0.4,0.5,0.6c0.1,0.1,0.3,0.2,0.5,0.2c0.4,0,0.6-0.1,0.6-0.4v-1.4
		c0.2,0,0.7,0,1.6,0v-1.1c0.2,0,0.6,0,1.3,0c0.6,0,1-0.2,1-0.7c1.1,0.2,1.7,0,1.9-0.8c0.2,0.5,0.4,0.8,0.6,0.8l0.6-0.4
		c0.9-0.5,1.3-1.1,1.3-1.9c0.2-0.2,0.5-0.1,0.9,0.4c0.6-0.2,1.1-0.9,1.3-1.9c1.3-0.2,1.8-1,1.6-2.2c0-0.2,0.2-0.5,0.5-0.7
		s0.5-0.5,0.5-0.7c0.2-3-0.3-4.3-1.6-4.1c0-0.5,0.1-0.9,0.3-1.3c0.2-0.4,0.3-0.8,0.3-1.3c-0.2-0.2-0.4-0.4-0.6-0.6
		c-0.2-0.1-0.4-0.3-0.6-0.6c0-0.5,0-0.9,0-1.1s-0.2-0.5-0.5-0.7s-0.5-0.5-0.5-0.7c0-0.7-0.3-1.5-0.9-2.2s-1.1-1.2-1.3-1.5h-0.3
		c-0.6-0.2-1-0.5-1-0.7s0.3-0.4,0.8-0.6c0.5-0.1,0.8-0.3,0.8-0.6c-0.2-0.2-0.6-0.6-1.1-1.1s-0.8-1-0.8-1.5c-0.2-0.2-0.5-0.5-1-0.7
		h-0.3c-0.4,0-0.7,0-0.9,0c0.2-1.7-0.1-2.6-1-2.6c0-1.7-0.6-3.3-1.9-4.6c-1.3-1.4-2-2.5-2.2-3.5c0-0.2-0.2-0.6-0.6-1.1l-0.3-1.5
		c-0.2,0-1,0-2.2,0c0-0.2,0.1-0.5,0.3-0.7c0-0.2-0.1-0.6-0.3-1.1c-0.2-0.5-0.4-1-0.6-1.5c-1.9-1.7-3-3.2-3.2-4.5
		c-0.6-0.7-1.1-1.5-1.3-2.2c-0.4-0.2-0.7-1-0.9-2.2c-0.2-0.5-0.3-0.9-0.3-1.1c-0.2-0.3-0.4-0.4-0.6-0.6c-0.2-0.1-0.3-0.2-0.3-0.4
		c0-0.1-0.1-0.4-0.3-0.9c-0.6-0.7-1.1-1.4-1.3-1.9H85l-0.3-1.1c-0.4,0-0.8-0.1-1-0.4c-0.4-3-1.3-4.5-2.6-4.5c0-0.8-0.2-1.6-0.6-2.4
		c-0.4-0.9-0.6-1.5-0.6-2c-0.9-1.2-1.4-1.9-1.6-1.9c0-1.7-0.5-2.5-1.6-2.2c-0.2-0.5-0.4-0.9-0.6-1.1c0.2-1.5-0.5-2.5-2.2-3
		c0.4-2.2-0.1-4.2-1.6-5.9c0-2-0.4-3-1.3-3c-0.2-1-0.8-2.3-1.6-3.9c-0.9-1.6-1.4-2.9-1.6-3.9c-0.4-0.2-0.7-0.5-1-0.7
		c0.2-0.7,0.2-1.4,0-1.9c-0.2,0-0.5,0.1-0.9,0.4c0.4-1.7,0.4-3.1,0-4.1C65.3-3.5,65-4.3,65.3-5c-0.2-0.5-0.8-0.9-1.6-1.1v-2.2
		c0.6-0.7,0.2-2.6-1.3-5.6c0.2,0,0.1-1.1-0.3-3.4c0-0.5,0-0.8,0-0.9s-0.1-0.3-0.3-0.6c-0.2-0.2-0.3-0.5-0.3-0.7
		c-0.2-0.5-0.3-1.2-0.3-2.2c-0.2-1.7-0.8-2.7-1.6-3c-0.4,0-1.4,0.1-2.9,0.2s-2.5,0.6-2.9,1.3c-0.2,0-0.4-0.1-0.5-0.2
		s-0.3-0.2-0.5-0.2c-0.2,0.2-0.7,0.4-1.4,0.4c-0.8,0-1.2,0.1-1.4,0.4c-0.6-0.5-1.1-0.7-1.4-0.7c-0.3,0-0.7,0.1-1.3,0.2
		c-0.5,0.1-0.9,0.2-1.1,0.2c-0.2,0-0.6,0-1.3,0c-1.1-0.2-1.8-0.1-2.2,0.4c-0.2,0.2-0.3,0.5-0.3,0.7c-0.4,0.2-0.8,0.4-1,0.4
		c-0.3-0.3-0.4-0.7-0.4-1.2c-0.4-0.5-1.2-0.5-2.2,0c-0.2,0-0.3,0.1-0.3,0.4s0,0.5,0,0.8c-0.4-0.3-1.8-0.3-4.1,0
		c-1.1-1.5-2-1.9-2.9-1.1l0.3,0.7c-0.6,0.5-1.3,0.4-1.9-0.4c-0.6,0-1.6,0-2.9,0c-0.2,0-0.4-0.1-0.5-0.4c-0.1-0.2-0.3-0.4-0.6-0.4
		c-0.3,0-0.5,0.2-0.6,0.6S25-22,24.8-22c-0.2,0.2-0.4-0.1-0.6-1.1c-0.4-0.2-1.3-0.3-2.7-0.2c-1.4,0.1-2.4,0.2-3,0.2
		c0-0.7-0.1-1.1-0.3-1.1c-0.2,0.3-0.4,0.4-0.6,0.4c-0.2-0.5-0.7-0.6-1.6-0.4c-0.4,0-0.7,0-0.9,0s-0.4-0.1-0.5-0.4
		c-0.1-0.2-0.2-0.4-0.3-0.4s-0.4,0-0.8,0c-0.2,0-0.4-0.1-0.6-0.4c-0.2-0.2-0.4-0.4-0.6-0.4c-0.4,0.3-0.7,0.3-0.9,0
		c-0.2,0-0.5-0.4-1-1.1C9.8-27.1,9-27.6,8-28.4c-1-0.7-1.8-1.2-2.4-1.5V-31c0-0.2-0.2-0.5-0.5-0.7s-0.5-0.5-0.5-0.7
		c0-0.5-0.1-1-0.3-1.5C4.1-34.4,4-34.8,4-35c-0.2-0.7-0.7-1.4-1.4-2c-1.1-0.7-1.6-1.3-1.8-1.8c-0.2,0-0.5,0.1-1,0.4l0.6-1.9
		c0-0.5-0.1-1.8-0.2-3.9c-0.1-2.1,0.3-3.1,0.9-3.1c0.2-0.2,0.6-0.6,1.3-1.1c0.2-1.3,0.9-1.9,1.9-1.9c0.4,0,0.9-0.4,1.6-1.3
		c0.6-0.9,1.2-1.3,1.6-1.3c0.4-0.2,1.3-0.2,2.6,0c1.3,0.3,2.2,0.3,2.9,0c0.2,0.3,0.3,0.5,0.3,0.7c0,0.3,0.1,0.4,0.3,0.4
		c0.9,0.2,1.8,0.3,2.7,0.2c1-0.1,1.9-0.1,2.7,0.2c0.8,0.3,1.4,0.6,1.6,1.1c0.6,0,1.6,0.1,2.9,0.2c1.3,0.1,2.1,0.1,2.6-0.2
		c0.2,0,0.4-0.1,0.5-0.4s0.3-0.4,0.5-0.4c0,0.3,0.1,0.6,0.2,0.9c0.1,0.4,0.3,0.6,0.5,0.6c0.4,0,0.7-0.5,0.9-1.5c0.6,0,1,0,1.1,0
		s0.1,0.4-0.2,1.1c0.6,0.7,1.3,1,1.9,0.7c0.2,0,0.4-0.1,0.6-0.2c0.2-0.1,0.4-0.2,0.5-0.2s0.5,0.1,1.1,0.4c0.4-0.2,0.9-0.5,1.4-0.7
		s0.9-0.4,1.1-0.4c1.1-0.2,2.6-0.4,4.5-0.4c0.4,0,1.6,0.1,3.7,0.4c2,0.3,3.2,0.3,3.7,0c0.2,0,0.4-0.1,0.5-0.2
		c0.1-0.1,0.3-0.2,0.5-0.2s0.5,0.1,0.8,0.2c0.3,0.1,0.6,0.2,0.8,0.2l1-0.4c0.2,0,1.1,0.1,2.5,0.4c1.5,0.3,2.5,0.3,2.9,0l0.9-0.7
		l2.9-0.4c0.2,0,0.9,0,2.1,0c1.2,0,2,0,2.4,0c0.2,0,0.6-0.1,1.1-0.4c0.5-0.2,0.9-0.4,1.1-0.4s0.8,0.1,1.8,0.4
		c0.9,0.2,1.6,0.4,2.1,0.4c0.2,0,0.4-0.2,0.6-0.5c0.2-0.4,0.4-0.6,0.6-0.6s0.4,0,0.5,0s0.3,0,0.5,0c1.3-0.2,2.1-0.2,2.5,0
		c0.8-0.2,4-0.4,9.6-0.4l0.2-0.3c0.2,0,0.4,0.1,0.5,0.2c0.1,0.1,0.3,0.2,0.5,0.2s0.5-0.1,0.8-0.2c0.3-0.1,0.6-0.1,0.8,0.2
		c1.9-1.5,4.6-1.7,8-0.7c0.6-0.7,1.4-0.7,2.2,0c0.2-0.2,0.7-0.3,1.4-0.2c0.7,0.1,1.2,0.1,1.3,0c0.1-0.1,0.5-0.4,1.3-0.9
		c0.7-0.5,1.5-0.7,2.4-0.7c0.2,0,0.6-0.1,1.3-0.4c0.8-0.5,1.3-1.1,1.3-1.9c0.4-0.2,1-0.2,1.6,0.2s1.1,0.3,1.3-0.2
		C112.5-57.2,113.7-57.4,114.4-58.1z M115.3-58.1c0.2,0.3,0.5,0.3,0.8,0.2s0.6,0,0.8,0.2v1.5c0.4,0.2,0.8,0.4,1.3,0.4
		c0.2,0.2,0.7,0.6,1.6,1.1c0.8,0.5,1.5,0.9,1.9,1.1c0-0.2,0.3-0.2,0.9,0c0.2,0.5,0.5,1,1,1.5h1.3c0.2,0.3,0.3,0.7,0.2,1.3
		c-0.1,0.6-0.1,1,0,1.1s0.4,0.6,0.8,1.3s0.5,1.5,0.3,2.2c0,0.3,0.2,0.4,0.5,0.4s0.6,0.1,0.8,0.4c0,0.5-0.2,1.1-0.6,1.9
		c0.2,3,0.6,4.4,1.3,4.4c0.2,0.3,0.3,1.5,0.3,3.7l-1,0.4c-0.2,0.2-0.3,0.6-0.3,1.1c-0.2,1.3-0.8,1.6-1.9,1.1c0,0.3-0.2,0.7-0.5,1.3
		s-0.6,1.2-0.8,1.7c-2.1-0.2-3.3-0.4-3.5-0.4s-0.5,0.3-1,0.9s-0.6,1.1-0.6,1.3c-0.4-0.2-0.9-0.2-1.4,0s-0.9,0.4-1.1,0.4
		c-0.4-0.2-0.6-0.5-0.6-0.7c-1.3,0-1.9,0.7-1.9,2.2c-0.6,0.2-1.2,0.2-1.6,0c-0.2-1.2-0.4-1.9-0.6-1.9c-0.9,0.5-1.4,0.6-1.6,0.4
		c-0.4-1-0.8-1.6-1.3-1.9c-0.2,0-0.4,0.1-0.5,0.4s-0.3,0.4-0.5,0.4c-1.7-0.8-3.2-0.8-4.5,0c0,0.5,0,0.9,0,1.1
		c-0.4,0.3-2.2,0.3-5.3,0.2c-3.1-0.1-4.9-0.2-5.6-0.2c-0.2,0-0.4-0.1-0.6-0.4c-2.3-0.2-3.2,0.2-2.5,1.5c-3,0.7-4.8,0.6-5.4-0.4
		c-0.4,0.3-0.6,1-0.6,2.2s0.2,2,0.6,2.2c0.4,0,0.7,0,1,0c0.2,0.5,0,1-0.6,1.5c0,1.7,0.4,3,1.3,3.7v1.5c0.4,0.2,0.6,0.5,0.6,0.7
		S86-14.5,85.6-14c-0.2,0.7-0.1,1.4,0.3,2s0.6,1.2,0.6,1.7c-0.2,1-0.3,1.6-0.3,1.9c0.2,0.3,0.5,0.6,0.8,1.1s0.4,1,0.2,1.5
		c0.4,0.3,0.8,0.9,1.1,1.9c0.3,1,0.9,1.5,1.8,1.5c0,0.3-0.1,0.6-0.2,1.1s-0.1,0.9,0.2,1.1c0.2,0,0.4-0.1,0.5-0.4
		c0.1-0.2,0.3-0.2,0.5,0c0,0.3-0.2,0.6-0.6,1.1v2.2c0.4,0.2,0.8,0.8,1.1,1.7c0.3,0.9,0.7,1.4,1.1,1.7c-0.2,1,0,2,0.6,3
		s0.9,1.9,0.9,2.6c0.2,0.3,0.5,0.6,0.8,1.1s0.5,1,0.5,1.5c0.2,0,0.5,0.4,0.9,1.1s0.8,1.2,1,1.5c-0.2,1.5,0.4,2.9,1.9,4.1
		c0.2,1,0.8,2.2,1.9,3.7v1.1c0.2,0.3,0.6,0.5,1.3,0.7c1.1,2.5,1.8,4,2.2,4.5c0.2,0,0.5,0.1,1,0.4c0.4,0.2,0.8,0.4,1.3,0.4
		c0,0.8-0.2,1.5-0.6,2.2c0.2,0.2,0.4,0.6,0.6,1.1s0.3,1,0.3,1.5c0.2,0,0.5,0.1,1,0.4c0.4,0.2,0.8,0.4,1.3,0.4c0,0.5,0.2,1.2,0.5,2
		c0.3,0.9,0.6,1.4,0.8,1.7c0.2,0.2,0.5,0.4,0.8,0.6c0.3,0.1,0.6,0.2,0.8,0.2c0.2,1.7,0.5,2.6,1,2.6c0,0.3,0,0.4,0,0.6s0,0.3,0,0.6
		c0.2,0,0.4,0,0.6,0s0.4,0.1,0.5,0.2s0.1,0.3,0,0.4s-0.1,0.2,0,0.4c0.1,0.1,0.4,0.3,0.8,0.6c0.6,1.7,1.5,3.3,2.6,4.8h1
		c0,0.2,0.1,0.4,0.3,0.5c0.2,0.1,0.3,0.3,0.3,0.6s0,0.4,0,0.6c0,0.1,0.1,0.3,0.3,0.4c0.2,0.1,0.4,0.2,0.5,0.4
		c0.1,0.1,0.2,0.4,0.2,0.7c0,0.4,0,0.7,0.2,0.9c0.1,0.2,0.4,0.6,0.8,1.1c0.2,1.5,1,2.6,2.2,3.3c0,0.2,0.4,0.9,1.3,1.9
		c0,1,0.3,2,0.8,3s0.8,1.7,0.8,2.2c1.5,1.5,2.2,2.6,2.2,3.3l0.9,0.7c0.2,2,0.8,3.5,1.6,4.5c0,0.5,0.4,2.2,1.3,5.2
		c0,0.3,0.3,0.5,0.9,0.7c0.2,0.5,0.1,1.2-0.3,2.2c0,1,0.3,1.7,0.9,2.2c0,1.7,0,2.9,0,3.3l0.6,0.7c0,2.2-0.2,3.5-0.6,3.7
		c0.2,1-0.1,1.9-0.9,2.6c0.4,2.2,0.2,3.7-0.6,4.5v0.7c-1.9,3-2.9,4.6-2.9,4.8c-0.4,0-0.7,0.1-0.9,0.4c-0.2,0.5-0.3,1-0.3,1.5
		c-0.4,0-0.8,0.5-1,1.5c-0.2,0-0.4-0.2-0.6-0.7c-1.1,0.7-1.5,1.9-1.3,3.3c-0.2,0-0.8-0.1-1.6-0.4c-0.4,0-0.9,0.4-1.3,1.1
		s-0.9,1.1-1.3,1.1c0,0.2-0.1,0.5-0.2,0.7c-0.1,0.3-0.3,0.5-0.5,0.7c-0.2-0.2-0.5-0.2-0.8,0.2s-0.6,0.6-0.8,0.6
		c-0.4-0.7-1.1-1-2.1-0.9s-1.7,0.7-2.1,1.7c0,0.2,0.1,0.5,0.3,0.7c0.2,0.2,0.3,0.5,0.3,0.7c-0.2,0-0.5-0.2-1-0.7
		c-0.2-0.2-0.4-0.4-0.6-0.4c-0.6,0-1.7,0.4-3.2,1.1c-0.2,0-0.4-0.1-0.5-0.2s-0.3-0.2-0.5-0.2c-0.4,0-1,0.3-1.8,0.7
		c-0.7,0.5-1.3,0.8-1.8,0.8c-0.2,0.2-0.5,0.3-0.8,0.2s-0.5-0.1-0.6,0s-0.3,0.3-0.5,0.6c-0.2,0.2-0.4,0.4-0.6,0.4
		c-0.2,0.3-0.7,0.3-1.4,0.2c-0.8-0.1-1.2-0.1-1.4,0.2c-0.2,0-0.4,0.2-0.5,0.6s-0.3,0.6-0.5,0.6c-1.5,0-2.3,0.1-2.4,0.2
		s-0.3,0.4-0.5,0.9s-0.4,0.7-0.6,0.7c-0.4,0-0.7-0.2-0.9-0.7c-0.2-0.5-0.4-0.7-0.6-0.7c-0.4,0.3-1.3,0.4-2.7,0.6
		c-1.4,0.1-2.1,0.7-2.1,1.7c-0.2,0-0.4-0.2-0.6-0.6s-0.4-0.6-0.6-0.6c-0.2-0.2-0.9-0.1-2.1,0.6c-1.2,0.6-1.9,1.1-2.1,1.3
		c-0.4-0.2-1.1-0.4-1.9-0.4c-0.9,0-1.4-0.1-1.6-0.4c-0.2,0-0.4,0.1-0.6,0.4s-0.4,0.4-0.6,0.4s-0.4-0.1-0.5-0.4
		c-0.1-0.2-0.3-0.4-0.5-0.4c-1.3-0.5-3,0-5.1,1.5c-0.2,0-0.4-0.2-0.5-0.6s-0.3-0.7-0.5-0.9c-1.3,0-2.3,0.1-3.2,0.4
		c-0.2,0.3-0.4,0.6-0.6,1.1c-0.9,1.2-1.6,1.2-2.2,0c-0.6,1.5-1.3,1.6-1.9,0.4c-0.2,0-0.4,0.3-0.6,0.8c-0.2,0-0.4-0.1-0.5-0.4
		c-0.1-0.2-0.3-0.4-0.5-0.4c0-0.5-0.5-0.5-1.6-0.2c-1.1,0.4-1.7,0.6-1.9,0.6s-0.5-0.1-0.8-0.2s-0.6-0.2-0.8-0.2
		c-0.4,0-1.2,0.1-2.2,0.2c-1.1,0.1-1.9,0.1-2.5-0.2c-0.6,1.5-1.4,1.5-2.2,0c-1.3,1.3-2.2,1.3-2.9,0c-0.2,0-0.4,0.1-0.6,0.4
		c-0.2,0.3-0.4,0.4-0.6,0.4s-0.4-0.1-0.5-0.4c-0.1-0.2-0.3-0.4-0.5-0.4s-1.3,0-3.2,0l-0.6,0.8c-1.5,0-3.9,0-7.3,0s-5.6,0-6.7,0
		c-0.2-1.2-0.6-1.9-1.1-1.9s-1.1,0.2-1.8,0.7c-0.2,0-0.3-0.2-0.3-0.6s0-0.7,0-0.9c-1.1-0.3-1.9-0.3-2.5,0v-0.8
		c0-0.2-0.1-0.4-0.3-0.5c-0.2-0.1-0.4-0.2-0.6-0.2c0-0.5-0.2-1.1-0.6-1.9c0-1-0.3-1.6-1-1.8c-0.2,0-1,0.2-2.2,0.7l0.3-0.7
		c-0.4-0.5-0.8-0.8-1-0.8c0-0.2-0.2-1-0.6-2.2c-0.2,0-0.4,0.1-0.5,0.4c-0.1,0.2-0.3,0.4-0.5,0.4c-0.2-0.2-0.5-0.9-0.8-1.9
		s-0.7-1.6-1.1-1.9c-0.2-0.7,0-1.4,0.6-1.9c0.2-0.2,0.3-0.5,0.3-0.7c0.4-1.5,0.8-2.2,1-2.2c0-0.2-0.1-0.5-0.3-0.7s-0.3-0.4-0.3-0.6
		c0-0.1,0.4-0.7,1.3-1.7c0.2-0.2,0.4-0.6,0.5-0.9c0.1-0.4,0.2-0.6,0.3-0.7c0.1-0.1,0.3-0.3,0.6-0.6c0.3-0.2,0.5-0.5,0.5-0.7
		c0.8-1.2,1.5-1.9,1.9-1.9c0.2-0.5,0.3-0.9,0.3-1.1c0.6,0.3,1.1,0.1,1.4-0.4s0.7-0.7,1.1-0.7c2.6-2.5,4.6-4.1,6.1-4.8l0.3-1.1
		c0.8,0.5,1.8,0.3,2.9-0.7c0.2-0.5,0.5-0.7,1-0.7c0-0.7,0.1-1.1,0.3-1.1c0,1,0.6,1.2,1.9,0.7c0.6-0.2,1.2-0.4,1.6-0.4
		c0.8-1,1.6-1.4,2.2-1.1c0.2-0.2,0.9-1,2.2-2.2c0.4,0,1-0.1,1.8-0.4c0.7-0.2,1.4-0.4,2.1-0.4c0.2,0,0.3-0.1,0.2-0.4
		c-0.1-0.2-0.1-0.4,0.2-0.4c0.4,0,1,0,1.6,0s1-0.4,1-1.1c0.2,0.3,0.4,0.5,0.5,0.8c0.1,0.2,0.3,0.4,0.5,0.4s0.4-0.1,0.6-0.4
		c0.2-0.3,0.4-0.4,0.6-0.4c0.4,1.2,1.3,1.9,2.6,1.9c0.2,0,0.4,0.2,0.5,0.6s0.3,0.6,0.5,0.6c0.2,0.2,0.7,0.4,1.6,0.4
		c0.8,0,1.4,0.3,1.6,0.7c0,0.3-0.1,0.6-0.2,0.9c-0.1,0.4-0.2,0.7-0.2,0.9c0.9,0,1.4,0.1,1.6,0.4c-0.4,0.5-0.6,1.7-0.5,3.5
		c0.1,1.9-0.2,2.8-0.8,2.8c0.2,0.7-0.1,1.5-0.8,2.4c-0.8,0.9-1.2,1.4-1.4,1.7c0.2,0.5,0.7,0.7,1.4,0.6s1.2-0.4,1.4-0.9
		c0.2,0.7,0.8,1.1,1.9,1.1c1.1,0,1.8,0.3,2.2,0.7c1.9-0.7,3-0.9,3.2-0.4c0.2,0,0.5-0.1,1-0.4c0.4-0.2,1-0.1,1.8,0.4s1.2,0.7,1.4,0.7
		c0.2-0.2,0.4-0.5,0.6-0.7c0.2-0.3,0.4-0.4,0.6-0.4s0.8,0.3,1.8,0.7c1,0.5,1.5,0.4,1.8-0.4c0.6,0.2,1.3,0.1,1.9-0.4
		c0.2-0.2,0.4-0.4,0.6-0.4c0.4-0.2,1.2-0.2,2.4,0c1.2,0.3,2,0.3,2.4,0c0-0.2,0.1-0.4,0.3-0.5c0.2-0.1,0.4-0.3,0.6-0.6
		c3.2-0.2,4.8-0.2,4.8,0c0.2,0,0.5-0.4,1-1.1c0.4,0,1.3-0.1,2.7-0.2c1.4-0.1,2.2-0.1,2.4,0.2c0.8,0.3,1.7-0.2,2.6-1.5
		c0.2,0,0.6,0,1.1,0s0.9-0.1,1.1-0.4c0.2,0.3,0.4,0.4,0.5,0.6c0.1,0.1,0.3,0.2,0.5,0.2c0.4,0,0.6-0.1,0.6-0.4v-1.4
		c0.2,0,0.7,0,1.6,0v-1.1c0.2,0,0.6,0,1.3,0c0.6,0,1-0.2,1-0.7c1.1,0.2,1.7,0,1.9-0.8c0.2,0.5,0.4,0.8,0.6,0.8l0.6-0.4
		c0.9-0.5,1.3-1.1,1.3-1.9c0.2-0.2,0.5-0.1,0.9,0.4c0.6-0.2,1.1-0.9,1.3-1.9c1.3-0.2,1.8-1,1.6-2.2c0-0.2,0.2-0.5,0.5-0.7
		s0.5-0.5,0.5-0.7c0.2-3-0.3-4.3-1.6-4.1c0-0.5,0.1-0.9,0.3-1.3c0.2-0.4,0.3-0.8,0.3-1.3c-0.2-0.2-0.4-0.4-0.6-0.6
		c-0.2-0.1-0.4-0.3-0.6-0.6c0-0.5,0-0.9,0-1.1s-0.2-0.5-0.5-0.7s-0.5-0.5-0.5-0.7c0-0.7-0.3-1.5-0.9-2.2s-1.1-1.2-1.3-1.5l-1.3-0.7
		c0-0.2,0.3-0.4,0.8-0.6c0.5-0.1,0.8-0.3,0.8-0.6c-0.2-0.2-0.6-0.6-1.1-1.1s-0.8-1-0.8-1.5c-0.2-0.2-0.5-0.5-1-0.7h-0.3
		c-0.4,0-0.7,0-0.9,0c0.2-1.7-0.1-2.6-1-2.6c0-1.7-0.6-3.3-1.9-4.6c-1.3-1.4-2-2.5-2.2-3.5c0-0.2-0.2-0.6-0.6-1.1l-0.3-1.5
		c-0.2,0-1,0-2.2,0c0-0.2,0.1-0.5,0.3-0.7c0-0.2-0.1-0.6-0.3-1.1c-0.2-0.5-0.4-1-0.6-1.5c-1.9-1.7-3-3.2-3.2-4.5
		c-0.6-0.7-1.1-1.5-1.3-2.2c-0.4-0.2-0.7-1-0.9-2.2c-0.2-0.5-0.3-0.9-0.3-1.1c-0.2-0.3-0.4-0.4-0.6-0.6c-0.2-0.1-0.3-0.2-0.3-0.4
		c0-0.1-0.1-0.4-0.3-0.9c-0.6-0.7-1.1-1.4-1.3-1.9H85l-0.3-1.1c-0.4,0-0.8,0-1,0c-0.4-3.2-1.3-4.8-2.6-4.8c0-0.8-0.2-1.6-0.6-2.4
		c-0.4-0.9-0.6-1.5-0.6-2c-0.9-1.2-1.4-1.9-1.6-1.9c0-1.7-0.5-2.5-1.6-2.2c-0.2-0.5-0.4-0.9-0.6-1.1c0.2-1.5-0.5-2.5-2.2-3
		c0.4-2.2-0.1-4.2-1.6-5.9c0-2-0.4-3-1.3-3c-0.2-1-0.8-2.3-1.6-3.9c-0.9-1.6-1.4-2.9-1.6-3.9c-0.4-0.2-0.7-0.5-1-0.7
		C67,2.2,67,1.5,66.8,1c-0.2,0-0.5,0.1-0.9,0.4c0.4-1.7,0.4-3.1,0-4.1c-0.6-0.7-0.9-1.5-0.6-2.2c-0.2-0.5-0.8-0.9-1.6-1.1v-2.3
		c0.6-0.7,0.2-2.6-1.3-5.6c0.2,0,0.1-1.1-0.3-3.4c0-0.5,0-0.8,0-0.9s-0.1-0.3-0.3-0.6c-0.2-0.2-0.3-0.5-0.3-0.7
		c-0.2-0.5-0.3-1.2-0.3-2.2c-0.2-1.7-0.8-2.7-1.6-3c-0.4,0-1.4,0.1-2.9,0.2s-2.5,0.6-2.9,1.3c-0.2,0-0.4-0.1-0.5-0.2
		s-0.3-0.2-0.5-0.2c-0.2,0.2-0.7,0.4-1.4,0.4c-0.8,0-1.2,0.1-1.4,0.4c-0.6-0.5-1.1-0.7-1.4-0.7c-0.3,0-0.7,0.1-1.3,0.2
		c-0.5,0.1-0.9,0.2-1.1,0.2c-0.2,0-0.6,0-1.3,0c-1.1-0.2-1.8-0.1-2.2,0.4c-0.2,0.2-0.3,0.5-0.3,0.7c-0.4,0.2-0.8,0.4-1,0.4
		c-0.3-0.3-0.4-0.7-0.4-1.2c-0.4-0.5-1.2-0.5-2.2,0c-0.2,0-0.3,0.1-0.3,0.4s0,0.5,0,0.8c-0.4-0.3-1.8-0.3-4.1,0
		c-1.1-1.5-2-1.9-2.9-1.1l0.3,0.7c-0.6,0.5-1.3,0.4-1.9-0.4c-0.6,0-1.6,0-2.9,0c-0.2,0-0.4-0.1-0.5-0.4c-0.1-0.2-0.3-0.4-0.6-0.4
		c-0.3,0-0.5,0.2-0.6,0.6S25-22,24.8-22c-0.2,0.2-0.4-0.1-0.6-1.1c-0.4-0.2-1.3-0.3-2.7-0.2c-1.4,0.1-2.4,0.2-3,0.2
		c0-0.7-0.1-1.1-0.3-1.1c-0.2,0.3-0.4,0.4-0.6,0.4c-0.2-0.5-0.7-0.6-1.6-0.4c-0.4,0-0.7,0-0.9,0s-0.4-0.1-0.5-0.4
		c-0.1-0.2-0.2-0.4-0.3-0.4s-0.4,0-0.8,0c-0.2,0-0.4-0.1-0.6-0.4c-0.2-0.2-0.4-0.4-0.6-0.4c-0.4,0.3-0.7,0.3-0.9,0
		c-0.2,0-0.5-0.4-1-1.1C9.8-27.1,9-27.6,8-28.4c-1-0.7-1.8-1.2-2.4-1.5V-31c0-0.2-0.2-0.5-0.5-0.7s-0.5-0.5-0.5-0.7
		c0-0.5-0.1-1-0.3-1.5C4.1-34.4,4-34.8,4-35c-0.2-0.7-0.7-1.4-1.4-2c-1.1-0.7-1.6-1.3-1.8-1.8c-0.2,0-0.5,0.1-1,0.4l0.6-1.9
		c0-0.5-0.1-1.8-0.2-3.9c-0.1-2.1,0.3-3.1,0.9-3.1c0.2-0.2,0.6-0.6,1.3-1.1c0.2-1.3,0.9-1.9,1.9-1.9c0.4,0,0.9-0.4,1.6-1.3
		c0.6-0.9,1.2-1.3,1.6-1.3c0.4-0.2,1.3-0.2,2.6,0c1.3,0.3,2.2,0.3,2.9,0c0.2,0.3,0.3,0.5,0.3,0.7c0,0.3,0.1,0.4,0.3,0.4
		c0.9,0.2,1.8,0.3,2.7,0.2c1-0.1,1.9-0.1,2.7,0.2c0.8,0.3,1.4,0.6,1.6,1.1c0.6,0,1.6,0.1,2.9,0.2c1.3,0.1,2.1,0.1,2.6-0.2
		c0.2,0,0.4-0.1,0.5-0.4s0.3-0.4,0.5-0.4c0,0.3,0.1,0.6,0.2,0.9c0.1,0.4,0.3,0.6,0.5,0.6c0.4,0,0.7-0.5,0.9-1.5c0.6,0,1,0,1.1,0
		s0.1,0.4-0.2,1.1c0.6,0.7,1.3,1,1.9,0.7c0.2,0,0.4-0.1,0.6-0.2c0.2-0.1,0.4-0.2,0.5-0.2s0.5,0.1,1.1,0.4c0.4-0.2,0.9-0.5,1.4-0.7
		s0.9-0.4,1.1-0.4c1.1-0.2,2.6-0.4,4.5-0.4c0.4,0,1.6,0.1,3.7,0.4c2,0.3,3.2,0.3,3.7,0c0.2,0,0.4-0.1,0.5-0.2
		c0.1-0.1,0.3-0.2,0.5-0.2s0.5,0.1,0.8,0.2c0.3,0.1,0.6,0.2,0.8,0.2l1-0.4c0.2,0,1.1,0.1,2.5,0.4c1.5,0.3,2.5,0.3,2.9,0l0.9-0.7
		l2.9-0.4c0.2,0,0.9,0,2.1,0c1.2,0,2,0,2.4,0c0.2,0,0.6-0.1,1.1-0.4c0.5-0.2,0.9-0.4,1.1-0.4s0.8,0.1,1.8,0.4
		c0.9,0.2,1.6,0.4,2.1,0.4c0.2,0,0.4-0.2,0.6-0.5c0.2-0.4,0.4-0.6,0.6-0.6s0.4,0,0.5,0s0.3,0,0.5,0c1.3-0.2,2.1-0.2,2.5,0
		c0.8-0.2,4-0.4,9.6-0.4l0.2-0.3c0.2,0,0.4,0.1,0.5,0.2c0.1,0.1,0.3,0.2,0.5,0.2s0.5-0.1,0.8-0.2c0.3-0.1,0.6-0.1,0.8,0.2
		c1.9-1.5,4.6-1.7,8-0.7c0.6-0.7,1.4-0.7,2.2,0c0.2-0.2,0.7-0.3,1.4-0.2c0.7,0.1,1.2,0.1,1.3,0c0.1-0.1,0.5-0.4,1.3-0.9
		c0.7-0.5,1.5-0.7,2.4-0.7c0.2,0,0.6-0.1,1.3-0.4c0.8-0.5,1.3-1.1,1.3-1.9c0.4-0.2,1-0.2,1.6,0.2s1.1,0.3,1.3-0.2
		c1.9,0.5,3.2,0.4,3.8-0.4C114.4-58.6,114.7-58.6,115.3-58.1z M50.6-21.6c0,0-0.1,0-0.3,0S50-21.7,50-22c0-0.2,0.1-0.5,0.3-0.7
		C50.5-22,50.6-21.6,50.6-21.6z M50.3-22.8c0.2,0.7,0.2,1.1,0,1.1S50-21.8,50-22.1C49.9-22.3,50-22.5,50.3-22.8z M102.6,123.8
		c0,0.5-0.3,0.7-0.8,0.6s-0.8-0.4-0.8-0.9c0.2-0.2,0.5-0.4,1-0.4C102.3,123,102.6,123.3,102.6,123.8z M101,123.4
		c0.2-0.2,0.5-0.4,1-0.4c0.4,0,0.6,0.2,0.6,0.7s-0.3,0.7-0.8,0.6C101.2,124.2,101,123.9,101,123.4z"/>
	<path fill="#D93427" d="M182,44.9c0.8,0.7,1.5,1.1,1.9,1.1l1-0.7c1.5,0,3.5,0,6.1,0c2.5,0,4.6,0,6.1,0c1.1,0.7,1.7,1,1.9,0.7
		c0.2,0.3,0.3,0.9,0.3,1.9c0.2,0.5,0.6,0.9,1.1,1.3s0.9,0.8,1.1,1.3c0.2,0.7,0.4,1.1,0.6,1.1c0.4-0.5,0.7-0.6,1-0.4l0.3,2.6
		c0.2,0.3,0.6,0.6,1.3,1.1c0.2,2.2,0.6,3.2,1.3,3c0.2,0,0.4-0.1,0.5-0.4c0.1-0.2,0.3-0.5,0.5-0.7c0.2,0,0.6,0.4,1.3,1.1
		c0.2,0,0.6,0,1.3,0c1.3,0.2,2.1,0.1,2.6-0.4c0,1,0.3,1.5,1,1.5c0.2,0.3,0.4,0.3,0.6,0c0.2-0.2,0.4-0.4,0.6-0.4v1.1
		c1.9,1,3.2,2,3.8,3c0-0.2,0.3-0.2,1,0c2.8,3.2,4.3,5.2,4.8,5.9c0.2,0.3,0.7,0.6,1.6,1.1c0,0.3,0.3,0.8,0.8,1.7s1.1,1.4,1.8,1.7
		c1.1,1.7,1.6,3,1.6,3.7c0.2,0.3,0.4,0.6,0.6,1.1c0,0.5,0.1,0.9,0.2,1.1c0.1,0.2,0.3,0.5,0.5,0.7s0.4,0.5,0.6,0.7
		c0,0.2-0.1,0.9-0.3,1.9c0,0.5,0.1,1.4,0.3,2.6s0.3,2.1,0.3,2.6c0,0.2-0.1,0.9-0.3,2s-0.2,1.9,0,2.4c-0.4,0.5-0.9,1.5-1.3,3
		c-0.4,1.5-1,2.5-1.6,3c-0.2,0.7-0.7,1.7-1.4,2.8s-1.2,1.9-1.4,2.4h-1c-1.1,1-2.7,2.5-4.8,4.5s-3.7,3.5-4.8,4.5
		c0.2,0.7,0.2,1.1,0,1.1s-0.6-0.3-1.3-0.8c-1.5,1-2.6,1.1-3.2,0.4c-1.7,1.5-2.7,2.6-2.9,3.3c-1.1-0.5-2.3-0.2-3.8,0.7
		c-0.6,0.5-1.1,0.9-1.3,1.1c-0.2,0-0.4,0-0.6,0c-0.2,0-0.3,0.1-0.3,0.4c-0.2,0-0.5,0.2-0.8,0.6s-0.5,0.5-0.6,0.5s-0.4,0-0.9-0.2
		c-0.5-0.1-0.9-0.1-1.1,0.2c-0.4,0.5-0.8,0.8-1,0.8c-0.2,0.2-0.8,0.5-1.8,0.7s-1.6,0.6-2.1,1.1c-1.5-0.2-2.6-0.2-3.2,0
		c-0.6,0.8-1.1,1.1-1.3,1.1c-0.2-0.5-0.6-0.7-1.3-0.7s-1.1,0.3-1.3,0.7c-3.2-0.7-5-0.7-5.4,0c-1.3-0.5-2-0.5-2.2,0
		c-0.4-0.2-1.2-0.3-2.2-0.2c-1.1,0.1-1.6-0.2-1.6-0.9c-0.2,0-0.7,0-1.4,0c-0.8,0-1.2-0.1-1.4-0.4c-0.8,0.5-1.7,0.4-2.5-0.4
		c-0.4-0.2-0.8-0.4-1-0.6c-0.2-0.1-0.5-0.2-0.8-0.2s-0.6,0-0.8,0c-1.1-1-1.8-1.4-2.2-1.1c-0.4-0.2-0.7-0.6-1-1.1h-0.6
		c-1.1-1.2-2.1-2-3.2-2.2c-0.9-1-1.7-1.6-2.6-1.9c-0.4-1.2-1.3-2.6-2.6-4.1s-2-2.5-2.2-3c0-0.5-0.3-1.2-0.9-2.2c0-0.2,0-0.4,0.2-0.6
		c0.1-0.1,0.2-0.3,0.2-0.6c-0.2-0.2-0.5-0.4-1-0.6c-0.4-0.1-0.7-0.3-0.8-0.6c-0.1-0.2,0.1-0.6,0.5-1.1c0-0.5-0.2-1.1-0.6-1.9
		c-0.4-0.7-0.6-1.2-0.6-1.5c-0.4-1.5-0.8-2.4-1-2.6c0-1-0.1-1.7-0.3-2.2c0-0.2,0.1-0.4,0.3-0.6c0.2-0.1,0.2-0.3,0-0.6
		c0-0.2-0.2-0.5-0.6-0.7c-0.2,0-0.3-0.1-0.3-0.4c-0.2-0.8,0-1.6,0.6-2.6c0.2-0.5,0.3-1.4,0.2-2.6s-0.2-2.1-0.2-2.6
		c0-0.3,0.2-0.6,0.5-1.1s0.5-0.8,0.6-0.9s0.1-0.4,0-0.7c-0.1-0.4-0.1-0.7,0.2-0.9c0-0.5,0.4-1.4,1.3-2.6l1.6-2.6
		c1.1-1.5,1.7-2.4,1.9-2.6c0-0.2,0-0.6,0-0.9c0-0.4,0.1-0.7,0.2-0.9c0.1-0.2,0.5-0.5,1.1-0.7c1.1-1.2,1.8-2.2,2.2-3
		c0.2,0,0.4-0.1,0.5-0.4c0.1-0.2,0.2-0.5,0.2-0.7c0.2-0.2,0.7-0.8,1.6-1.7c0.8-0.9,1.4-1.5,1.6-2c0.2,0,0.4-0.1,0.5-0.2
		s0.3-0.2,0.5-0.2c0.2-0.2,0.5-0.6,0.8-1.1s0.5-0.9,0.6-1.1s0.4-0.4,0.9-0.5s0.9-0.3,1.1-0.6c0.2-0.2,0.5-0.6,0.9-1.1s0.7-0.9,1-1.1
		c0.4,0,0.7,0,1,0l3.8-4.5c0.2,0,0.8-0.5,1.9-1.5h0.6c1.7-1.5,3.3-2.3,4.8-2.6C180.8,45.9,181.4,45.2,182,44.9z M180.4,47.2
		c0.4-1.2,1-2,1.6-2.2c0.8,0.7,1.5,1.1,1.9,1.1l1-0.7c1.5,0,3.5,0,6.1,0c2.5,0,4.6,0,6.1,0c1.1,0.7,1.7,1,1.9,0.7
		c0.2,0.3,0.3,0.9,0.3,1.9c0.2,0.5,0.6,0.9,1.1,1.3s0.9,0.8,1.1,1.3c0.2,0.7,0.4,1.1,0.6,1.1c0.4-0.5,0.7-0.6,1-0.4l0.3,2.6
		c0.2,0.3,0.6,0.6,1.3,1.1c0.2,2.2,0.6,3.2,1.3,3c0.2,0,0.4-0.1,0.5-0.4c0.1-0.2,0.3-0.5,0.5-0.7c0.2,0,0.4,0.2,0.6,0.6
		c0.2,0.4,0.4,0.6,0.6,0.6c0.2,0,0.6,0,1.3,0c1.3,0.2,2.1,0.1,2.6-0.4c0,1,0.3,1.5,1,1.5c0.2,0.3,0.4,0.3,0.6,0
		c0.2-0.2,0.4-0.4,0.6-0.4v1.1c1.9,1,3.2,2,3.8,3c0-0.2,0.3-0.2,1,0c2.8,3.2,4.3,5.2,4.8,5.9c0.2,0.3,0.7,0.6,1.6,1.1
		c0,0.3,0.3,0.8,0.8,1.7s1.1,1.4,1.8,1.7c1.1,1.7,1.6,3,1.6,3.7c0.2,0.3,0.4,0.6,0.6,1.1c0,0.5,0.1,0.9,0.2,1.1
		c0.1,0.2,0.3,0.5,0.5,0.7s0.4,0.5,0.6,0.7c0,0.2-0.1,0.9-0.3,1.9c0,0.5,0.1,1.4,0.3,2.6s0.3,2.1,0.3,2.6c0,0.2-0.1,0.9-0.3,2
		s-0.2,1.9,0,2.4c-0.4,0.5-0.9,1.5-1.3,3c-0.4,1.5-1,2.5-1.6,3c-0.2,0.7-0.7,1.7-1.4,2.8s-1.2,1.9-1.4,2.4H225
		c-1.1,1-2.7,2.5-4.8,4.5s-3.7,3.5-4.8,4.5c0.2,0.7,0.2,1.1,0,1.1s-0.6-0.3-1.3-0.8c-1.5,1-2.6,1.1-3.2,0.4
		c-1.7,1.5-2.7,2.6-2.9,3.3c-1.1-0.5-2.3-0.2-3.8,0.7c-0.6,0.5-1.1,0.9-1.3,1.1c-0.2,0-0.4,0-0.6,0c-0.2,0-0.3,0.1-0.3,0.4
		c-0.2,0-0.5,0.2-0.8,0.6s-0.5,0.5-0.6,0.5s-0.4,0-0.9-0.2c-0.5-0.1-0.9-0.1-1.1,0.2c-0.4,0.5-0.8,0.8-1,0.8
		c-0.2,0.2-0.8,0.5-1.8,0.7s-1.6,0.6-2.1,1.1c-1.5-0.2-2.6-0.2-3.2,0c-0.6,0.8-1.1,1.1-1.3,1.1c-0.2-0.5-0.6-0.7-1.3-0.7
		s-1.1,0.3-1.3,0.7c-3.2-0.7-5-0.7-5.4,0c-1.3-0.5-2-0.5-2.2,0c-0.4-0.2-1.2-0.3-2.2-0.2c-1.1,0.1-1.6-0.2-1.6-0.9
		c-0.2,0-0.7,0-1.4,0c-0.8,0-1.2-0.1-1.4-0.4c-0.8,0.5-1.7,0.4-2.5-0.4c-0.4-0.2-0.8-0.4-1-0.6c-0.2-0.1-0.5-0.2-0.8-0.2
		s-0.6,0-0.8,0c-1.1-1-1.8-1.4-2.2-1.1c-0.4-0.2-0.7-0.6-1-1.1h-0.6c-1.1-1.2-2.1-2-3.2-2.2c-0.9-1-1.7-1.6-2.6-1.9
		c-0.4-1.2-1.3-2.6-2.6-4.1s-2-2.5-2.2-3c0-0.5-0.3-1.2-0.9-2.2c0-0.2,0-0.4,0.2-0.6c0.1-0.1,0.2-0.3,0.2-0.6
		c-0.2-0.2-0.5-0.4-1-0.6c-0.4-0.1-0.7-0.3-0.8-0.6c-0.1-0.2,0.1-0.6,0.5-1.1c0-0.5-0.2-1.1-0.6-1.9c-0.4-0.7-0.6-1.2-0.6-1.5
		c-0.4-1.5-0.8-2.4-1-2.6c0-1-0.1-1.7-0.3-2.2c0-0.2,0.1-0.4,0.3-0.6c0.2-0.1,0.2-0.3,0-0.6c0-0.2-0.2-0.5-0.6-0.7
		c-0.2,0-0.3-0.1-0.3-0.4c-0.2-0.8,0-1.6,0.6-2.6c0.2-0.5,0.3-1.4,0.2-2.6s-0.2-2.1-0.2-2.6c0-0.3,0.2-0.6,0.5-1.1s0.5-0.8,0.6-0.9
		s0.1-0.4,0-0.7c-0.1-0.4-0.1-0.7,0.2-0.9c0-0.5,0.4-1.4,1.3-2.6l1.6-2.6c1.1-1.5,1.7-2.4,1.9-2.6c0-0.2,0-0.6,0-0.9
		c0-0.4,0.1-0.7,0.2-0.9c0.1-0.2,0.5-0.5,1.1-0.7c1.1-1.2,1.8-2.2,2.2-3c0.2,0,0.4-0.1,0.5-0.4c0.1-0.2,0.2-0.5,0.2-0.7
		c0.2-0.2,0.7-0.8,1.6-1.7c0.8-0.9,1.4-1.5,1.6-2c0.2,0,0.4-0.1,0.5-0.2s0.3-0.2,0.5-0.2c0.2-0.2,0.5-0.6,0.8-1.1s0.5-0.9,0.6-1.1
		s0.4-0.4,0.9-0.5s0.9-0.3,1.1-0.6c0.2-0.2,0.5-0.6,0.9-1.1s0.7-0.9,1-1.1c0.4,0,0.7,0,1,0c0.4-0.5,1.1-1.2,1.9-2.2
		c0.8-1,1.5-1.7,1.9-2.2c0.2,0,0.8-0.5,1.9-1.5h0.6C177.3,48.3,178.9,47.4,180.4,47.2z M190,72.4c-0.6-0.5-1.3-0.4-1.9,0.2
		c-0.6,0.6-1.3,0.8-1.9,0.5c-1.1,1-1.7,1.5-1.9,1.5c-0.9,0.7-1.5,1.2-1.9,1.5l-0.3,0.4c-0.2,0-0.6,0.2-1.1,0.5
		c-0.5,0.4-0.9,0.7-1.1,0.9c-0.2,0.2-0.3,0.5-0.3,0.7c0,0.3-0.1,0.4-0.2,0.6c-0.1,0.1-0.3,0.2-0.6,0.4c-0.3,0.1-0.5,0.3-0.6,0.4
		s-0.4,0.6-0.8,1.3c-0.2,0.3-0.5,0.6-0.8,0.9c-0.3,0.4-0.6,0.7-0.8,0.9c-1.9,2-3.2,3.5-3.8,4.5v1.1c-0.2,0.5-0.5,0.9-0.9,1.1
		c0,0.7-0.2,1.6-0.6,2.4c-0.4,0.9-0.6,1.7-0.6,2.4c0.9,1.2,1.3,2.1,1.3,2.6c0.2,0.2,0.6,0.7,1.1,1.3s1,1.1,1.4,1.3
		c0.4-0.2,2-0.2,4.6,0s4-0.1,4-1.1c0.2,0,0.4,0.1,0.6,0.4c0.2,0.2,0.4,0.4,0.6,0.4c0-0.2,0.1-0.4,0.3-0.6c0.2-0.1,0.4-0.2,0.6-0.2
		c0.2,0.3,0.4,0.4,0.6,0.4c0.4-0.2,1.8-0.4,4.1-0.4c0.2-0.7,0.9-1.1,1.9-1.1c0.6,0,1.1-0.1,1.3-0.4c0.2,0,0.4-0.1,0.6-0.4
		c0.9-0.7,1.6-1,2.2-0.7c0-0.2,0.9-0.6,2.6-1.1l1-0.7c2.1-1.5,3.3-2.3,3.5-2.6c0.4,0,0.7,0,1,0c2.1-2.2,3.5-3.5,4.1-3.7
		c0-0.2,0.2-0.5,0.5-0.9s0.5-0.8,0.5-1.3s-0.5-0.9-1.6-1.1s-1.7-0.4-1.9-0.4c0,0.2-1,0.2-2.9,0c-0.2,0-0.5,0-0.8,0s-0.6,0-0.8,0
		s-0.6-0.1-1.1-0.4c-0.5-0.2-1-0.2-1.4,0c-0.2-0.5-0.7-1-1.4-1.5s-1.2-1-1.4-1.5c-0.2-0.2-0.3-0.6-0.3-1.1s-0.1-0.9-0.3-1.1
		c-0.9,0.3-1.3,0.3-1.3,0c-0.2,0-0.3-0.6-0.3-1.9c0-0.2-0.2-0.4-0.6-0.4c-0.4,0-0.8-0.1-1-0.4c0.6-1,0.8-2.4,0.6-4.1
		C191.3,72.1,190.8,72.2,190,72.4z M191.6,72.1c-0.2,0-0.8,0.1-1.6,0.4c-0.6-0.5-1.3-0.4-1.9,0.2c-0.6,0.6-1.3,0.8-1.9,0.5
		c-1.1,1-1.7,1.5-1.9,1.5c-0.9,0.7-1.5,1.2-1.9,1.5l-0.3,0.4c-0.2,0-0.6,0.2-1.1,0.5c-0.5,0.4-0.9,0.7-1.1,0.9
		c-0.2,0.2-0.3,0.5-0.3,0.7c0,0.3-0.1,0.4-0.2,0.6c-0.1,0.1-0.3,0.2-0.6,0.4c-0.3,0.1-0.5,0.3-0.6,0.4s-0.4,0.6-0.8,1.3
		c-0.2,0.3-0.5,0.6-0.8,0.9c-0.3,0.4-0.6,0.7-0.8,0.9c-1.9,2-3.2,3.5-3.8,4.5v1.1c-0.2,0.5-0.5,0.9-0.9,1.1c0,0.7-0.2,1.6-0.6,2.4
		c-0.4,0.9-0.6,1.7-0.6,2.4c0.9,1.2,1.3,2.1,1.3,2.6c0.2,0,0.6,0.4,1.1,1.1s1,1.2,1.4,1.5c0.4-0.2,2-0.2,4.6,0s4-0.1,4-1.1
		c0.2,0,0.4,0.1,0.6,0.4c0.2,0.2,0.4,0.4,0.6,0.4c0-0.2,0.1-0.4,0.3-0.6c0.2-0.1,0.4-0.2,0.6-0.2c0.2,0.3,0.4,0.4,0.6,0.4
		c0.4-0.2,1.8-0.4,4.1-0.4c0.2-0.7,0.9-1.1,1.9-1.1c0.6,0,1.1-0.1,1.3-0.4c0.2,0,0.4-0.1,0.6-0.4c0.9-0.7,1.6-1,2.2-0.7
		c0-0.2,0.9-0.6,2.6-1.1l1-0.7c2.1-1.5,3.3-2.3,3.5-2.6c0.4,0,0.7,0,1,0c2.1-2.2,3.5-3.5,4.1-3.7c0-0.2,0.2-0.5,0.5-0.9
		s0.5-0.8,0.5-1.3s-0.5-0.9-1.6-1.1s-1.7-0.4-1.9-0.4c0,0.2-1,0.2-2.9,0c-0.2,0-0.5,0-0.8,0s-0.6,0-0.8,0s-0.6-0.1-1.1-0.4
		c-0.5-0.2-1-0.2-1.4,0c-0.2-0.5-0.7-1-1.4-1.5s-1.2-1-1.4-1.5c-0.2-0.2-0.3-0.6-0.3-1.1s-0.1-0.9-0.3-1.1c-0.9,0.3-1.3,0.3-1.3,0
		c-0.2,0-0.3-0.6-0.3-1.9c0-0.2-0.2-0.4-0.6-0.4c-0.4,0-0.8-0.1-1-0.4C191.6,75.2,191.8,73.8,191.6,72.1z"/>
	<path fill="#D93427" d="M255.5-4.7c1.4-0.1,2.2-0.1,2.4,0.2c0,1,0.3,1.5,1,1.5c1.1-0.2,1.7-0.4,1.9-0.4c0,1.7,0.6,2.7,1.9,3
		c0.2,0,0.3-0.1,0.3-0.2c0-0.1,0.1-0.2,0.3-0.2c0.4,0.5,0.7,0.7,1,0.7c-0.2,0.5-0.2,1.1,0,1.9c0.2,0.7,0.3,1.2,0.3,1.5
		c0.2,0.3,0.4,0.4,0.6,0.4s0.3,0.1,0.3,0.4c0.2,0,0.5,0.5,0.8,1.5s0.7,1.6,1.1,1.8c0,0.3,0,0.5,0,0.8c0.2,0,0.4,0,0.6,0
		c0.4,0,0.7,0,0.9,0c0.2,1,0,1.7-0.6,2.2c-0.2,0.7,0.1,1.7,1,3c0,0.7,0,2.2,0,4.5c0,2.2,0.1,3.6,0.3,4.1h-1c-0.2,0-0.3,0.2-0.3,0.7
		s-0.1,0.7-0.3,0.7c-0.2,0-0.4-0.1-0.6-0.2S267,23,266.8,23c-0.6,0-0.7,0.6-0.3,1.9c0.4,1.2,0.5,2.1,0.3,2.6c-0.2,0-0.7,0.1-1.6,0.2
		s-1.4,0.2-1.6,0.2s-0.5-0.2-1-0.7c-0.6-0.7-1.2-0.7-1.6,0c0,0.2,0.1,0.5,0.3,0.7c0.2,0.3,0.3,0.5,0.3,0.7c-0.6-0.2-1-0.5-1-0.7
		c-1.5,0-2.3-0.4-2.5-1.1c-0.2,0-0.4,0.1-0.5,0.2s-0.3,0.2-0.5,0.2c-0.2-0.2-1.2-1.2-2.9-3l-1-0.4c0-0.2-0.5-0.7-1.6-1.5
		c0,0.8-0.2,1.1-0.6,1.1c-0.2,0-0.3-0.2-0.3-0.6s0-0.7,0-0.9c-0.2,0-0.5,0.1-0.8,0.2s-0.5,0.1-0.6,0s-0.2-0.4-0.2-0.9s0-0.9,0-1.1
		c-0.2-0.2-0.8-1.1-1.6-2.6c-0.2,0-0.4,0-0.5,0s-0.3,0-0.5,0c0.4-0.5,0.4-1.2,0-2.2s-0.6-1.9-0.6-2.6l-1-0.4c0-0.2-0.1-0.7-0.2-1.3
		c-0.1-0.6-0.1-0.9,0.2-0.9c0-0.2-0.4-1.8-1.3-4.8l1-0.4l0.3-0.7c0.2-1,0.5-1.5,1-1.5c0-1.7,0-2.8,0-3.3c0.2,0,0.5,0,1,0
		c0.4,0,0.7,0,0.9,0c0.2-0.2,0.5-0.6,0.8-1.1s0.6-1,0.8-1.5c0.2,0,0.8,0.1,1.6,0.2s1.4,0.1,1.6-0.2c0-0.2,0-0.6,0-1.1
		C253.2-4.5,254.1-4.6,255.5-4.7z M257.9-4.5c0,1,0.3,1.5,1,1.5c1.1-0.2,1.7-0.4,1.9-0.4c0,1.7,0.6,2.7,1.9,3c0.2,0,0.3-0.1,0.3-0.2
		c0-0.1,0.1-0.2,0.3-0.2c0.4,0.5,0.7,0.7,1,0.7c-0.2,0.5-0.2,1.1,0,1.9c0.2,0.7,0.3,1.2,0.3,1.5c0.2,0.3,0.4,0.4,0.6,0.4
		s0.3,0.1,0.3,0.4c0.2,0,0.5,0.5,0.8,1.5s0.7,1.6,1.1,1.8c0,0.3,0,0.5,0,0.8c0.2,0,0.4,0,0.6,0c0.4,0,0.7,0,0.9,0
		c0.2,1,0,1.7-0.6,2.2c-0.2,0.7,0.1,1.7,1,3c0,0.7,0,2.2,0,4.5c0,2.2,0.1,3.6,0.3,4.1h-1c-0.2,0-0.3,0.2-0.3,0.7s-0.1,0.7-0.3,0.7
		c-0.2,0-0.4-0.1-0.6-0.2S267,23,266.8,23c-0.6,0-0.7,0.6-0.3,1.9c0.4,1.2,0.5,2.1,0.3,2.6c-0.2,0-0.7,0.1-1.6,0.2s-1.4,0.2-1.6,0.2
		s-0.5-0.2-1-0.7c-0.6-0.7-1.2-0.7-1.6,0c0,0.2,0.1,0.5,0.3,0.7c0.2,0.3,0.3,0.5,0.3,0.7c-0.6-0.2-1-0.5-1-0.7
		c-1.5,0-2.3-0.4-2.5-1.1c-0.2,0-0.4,0.1-0.5,0.2s-0.3,0.2-0.5,0.2c-0.2-0.2-1.2-1.2-2.9-3l-1-0.4c0-0.2-0.5-0.7-1.6-1.5
		c0,0.8-0.2,1.1-0.6,1.1c-0.2,0-0.3-0.2-0.3-0.6s0-0.7,0-0.9c-0.2,0-0.5,0.1-0.8,0.2s-0.5,0.1-0.6,0s-0.2-0.4-0.2-0.9s0-0.9,0-1.1
		c-0.2-0.2-0.8-1.1-1.6-2.6c-0.2,0-0.4,0-0.5,0s-0.3,0-0.5,0c0.4-0.5,0.4-1.2,0-2.2s-0.6-1.9-0.6-2.6l-1-0.4c0-0.2-0.1-0.7-0.2-1.3
		c-0.1-0.6-0.1-0.9,0.2-0.9c0-0.2-0.4-1.8-1.3-4.8l1-0.4l0.3-0.7c0.2-1,0.5-1.5,1-1.5c0-1.7,0-2.8,0-3.3c0.2,0,0.5,0,1,0
		c0.4,0,0.7,0,0.9,0c0.2-0.2,0.5-0.6,0.8-1.1s0.6-1,0.8-1.5c0.2,0,0.8,0.1,1.6,0.2s1.4,0.1,1.6-0.2c0-0.2,0-0.6,0-1.1
		c0.4,0,1.3-0.1,2.7-0.2C256.9-4.8,257.7-4.8,257.9-4.5z M256,45.7c0.4-0.2,1.3-0.2,2.5,0c0.2,0,0.3,0.1,0.2,0.4
		c-0.1,0.3-0.1,0.5,0.2,0.7c1.1,0.3,1.6,0.5,1.6,0.8c0.4-0.5,0.9-0.8,1.4-0.8s0.9,0.3,1.1,0.8c0,0.2-0.1,0.5-0.3,0.7
		c1.1,2,1.7,3,1.9,3c-0.2,0.8,0.1,1.3,1,1.5c0.2,0,0.4,0,0.6,0c0.2,1.5,0.6,2.5,1.3,3v1.1c0,0.3,0.2,0.4,0.5,0.6
		c0.3,0.1,0.5,0.3,0.5,0.6c0.2,0.2,0.2,0.9,0,1.9c0,1,0.3,1.6,1,1.9c0.4,0.2,0.5,1.1,0.3,2.6c-0.2,1.5-0.2,2.6,0,3.3
		c0.4,0.5,0.7,0.9,0.9,1.1c-0.2,0.5-0.2,1,0,1.5l1,0.4c0.2,0.8,0.3,1.6,0.2,2.6c-0.1,1-0.2,1.6-0.2,1.9s0.2,0.6,0.5,1.1
		s0.4,1,0.2,1.5c0.2,0.7,0.7,1,1.6,0.7V82l-0.6,0.7c0,0.7,0.3,1.5,1,2.2c0.4-0.2,0.7-0.4,0.9-0.4c0,0.5-0.1,0.9-0.3,1.1
		c-0.2,0-0.3,0.1-0.3,0.4c-0.2,2,0.1,3.1,1,3.3c0,0.5,0,1.4,0,2.6s0.1,2,0.3,2.2c0,0.2,0.2,0.4,0.6,0.4c0.4,1.2,0.3,2.5-0.3,3.7
		c0.2,0.7,0.7,1.2,1.6,1.5c0,0.7,0,1.2,0,1.5c-0.2,0-0.4,0-0.5,0s-0.3,0-0.5,0c0,0.5,0.3,0.9,1,1.1c0.2,1,0,1.9-0.6,2.6
		c0,0.5,0.2,1.3,0.5,2.2c0.3,1,0.4,1.7,0.2,2.2c-1.1,0.3-1.5,1.5-1.3,3.7c0.2,0.5,0.3,0.9,0.3,1.1c-0.4,0-0.8,0.1-1.1,0.4
		c-0.3,0.3-0.6,0.3-0.8,0c-0.6,1.7-1,2.7-1,3c-0.2,0-0.4-0.1-0.5-0.2s-0.3-0.2-0.5-0.2c-0.2,0.3-0.3,0.8-0.2,1.7
		c0.1,0.9,0.1,1.4-0.2,1.7c-1.5,0-2.3-0.3-2.6-0.8c0-0.2,0.1-0.5,0.2-0.7s0.2-0.5,0.2-0.7c-0.2-0.2-0.4-0.5-0.6-0.7
		c0,0.2-0.1,0.6-0.3,1.1s-0.4,0.7-0.6,0.7c-0.2-0.2-0.6-0.2-1.3,0c-0.2,0-0.4,0-0.5,0s-0.3,0-0.6,0c-0.3,0-0.5,0-0.6,0
		s-0.4,0.3-0.9,0.9s-1,0.7-1.4,0.2c-0.2,0-0.3-0.1-0.3-0.4s0-0.5,0-0.7c-0.2,0-0.5,0.1-1,0.4c-0.4,0.3-0.8,0.3-1,0
		c0.2-0.7,0.3-1.2,0.3-1.5c-0.2,0-0.4,0.1-0.5,0.4c-0.1,0.2-0.3,0.2-0.5,0c-0.2,0-0.3-0.2-0.2-0.6c0.1-0.4,0.1-0.6,0-0.6
		s-0.5,0-1.1,0c0-0.7-0.3-1.4-1-1.9c0.2-1.7-0.5-3-2.2-3.7c0-0.2,0.1-0.6,0.2-1.1s0.2-0.9,0.2-1.1s-0.2-0.5-0.5-0.7
		c-0.3-0.2-0.5-0.5-0.5-0.7c-0.2-0.8-0.4-1.5-0.6-2.2c0-0.2,0.1-0.6,0.3-0.9c0.2-0.4,0.3-0.7,0.3-0.9c0-0.7-0.3-2-1-3.7
		c-0.2,0-0.5,0-0.8,0s-0.6-0.1-0.8-0.4c0-0.7,0-1.7,0-3s0-2.3,0-3.3c0.4-0.2,0.6-0.9,0.5-2s-0.5-1.8-1.1-2c0-0.5,0-1.1,0-1.9
		c0-0.7,0-1.2,0-1.5c-0.6-0.5-1-0.9-1-1.1c-0.2-0.5-0.3-1.1-0.2-1.7s0.2-1.2,0.2-1.7c-0.2-0.2-0.5-0.4-1-0.4c0-0.2,0-0.7,0-1.5
		s-0.1-1.1-0.3-1.1s-0.4,0-0.6,0c-0.2,0-0.3-0.1-0.3-0.4c0-0.2,0-0.7,0-1.5s-0.1-1.2-0.3-1.5c-0.4,0-0.8,0-1,0
		c0.2-0.2,0.3-0.7,0.2-1.3s-0.2-1.2-0.2-1.7c0.4-0.5,0.6-0.9,0.6-1.1c0-0.3-0.2-0.5-0.5-0.8c-0.3-0.2-0.5-0.5-0.5-0.7
		c0-0.7,0-1.2,0-1.5s-0.2-0.7-0.5-1.5s-0.6-1.4-0.8-1.9c0-0.2,0.1-0.9,0.2-1.9s0.1-1.7-0.2-2.2c0-0.2-0.1-0.4-0.3-0.5
		s-0.3-0.3-0.3-0.6s0.1-0.4,0.2-0.6c0.1-0.1,0.2-0.3,0.2-0.6c-0.4-0.2-0.6-0.7-0.6-1.5s0.3-1.1,1-1.1c0-0.2,0.2-0.7,0.6-1.5
		c0.4-0.8,0.6-1.6,0.6-2.6l0.6-0.8c1.1-0.7,1.5-1.6,1.3-2.6c0.4,0,0.9,0.3,1.6,0.8c0.4-0.3,0.6-0.9,0.6-1.9c0.4-0.2,0.9-0.1,1.6,0.4
		c0.2-0.7,0.4-1.1,0.6-1.1h1.3c0.2,0,0.4-0.2,0.5-0.5C255.6,45.9,255.8,45.7,256,45.7z M258.5,45.7c0.2,0,0.3,0.1,0.2,0.4
		c-0.1,0.3-0.1,0.5,0.2,0.7c1.1,0.3,1.6,0.5,1.6,0.8c0.4-0.5,0.9-0.8,1.4-0.8s0.9,0.3,1.1,0.8c0,0.2-0.1,0.5-0.3,0.7
		c1.1,2,1.7,3,1.9,3c-0.2,0.8,0.1,1.3,1,1.5c0.2,0,0.4,0,0.6,0c0.2,1.5,0.6,2.5,1.3,3v1.1c0,0.3,0.2,0.4,0.5,0.6
		c0.3,0.1,0.5,0.3,0.5,0.6c0.2,0.2,0.2,0.9,0,1.9c0,1,0.3,1.6,1,1.9c0.4,0.2,0.5,1.1,0.3,2.6c-0.2,1.5-0.2,2.6,0,3.3
		c0.4,0.5,0.7,0.9,0.9,1.1c-0.2,0.5-0.2,1,0,1.5l1,0.4c0.2,0.8,0.3,1.6,0.2,2.6c-0.1,1-0.2,1.6-0.2,1.9s0.2,0.6,0.5,1.1
		s0.4,1,0.2,1.5c0.2,0.7,0.7,1,1.6,0.7V82l-0.6,0.7c0,0.7,0.3,1.5,1,2.2c0.4-0.2,0.7-0.4,0.9-0.4c0,0.5-0.1,0.9-0.3,1.1
		c-0.2,0-0.3,0.1-0.3,0.4c-0.2,2,0.1,3.1,1,3.3c0,0.5,0,1.4,0,2.6s0.1,2,0.3,2.2c0,0.2,0.2,0.4,0.6,0.4c0.4,1.2,0.3,2.5-0.3,3.7
		c0.2,0.7,0.7,1.2,1.6,1.5c0,0.7,0,1.2,0,1.5c-0.2,0-0.4,0-0.5,0s-0.3,0-0.5,0c0,0.5,0.3,0.9,1,1.1c0.2,1,0,1.9-0.6,2.6
		c0,0.5,0.2,1.3,0.5,2.2c0.3,1,0.4,1.7,0.2,2.2c-1.1,0.3-1.5,1.5-1.3,3.7c0.2,0.5,0.3,0.9,0.3,1.1c-0.4,0-0.8,0.1-1.1,0.4
		c-0.3,0.3-0.6,0.3-0.8,0c-0.6,1.7-1,2.7-1,3c-0.2,0-0.4-0.1-0.5-0.2s-0.3-0.2-0.5-0.2c-0.2,0.3-0.3,0.8-0.2,1.7
		c0.1,0.9,0.1,1.4-0.2,1.7c-1.5,0-2.3-0.3-2.6-0.8c0-0.2,0.1-0.5,0.2-0.7s0.2-0.5,0.2-0.7c-0.2-0.2-0.4-0.5-0.6-0.7
		c0,0.2-0.1,0.6-0.3,1.1s-0.4,0.7-0.6,0.7c-0.2-0.2-0.6-0.2-1.3,0c-0.2,0-0.4,0-0.5,0s-0.3,0-0.6,0c-0.3,0-0.5,0-0.6,0
		s-0.4,0.3-0.9,0.9s-1,0.7-1.4,0.2c-0.2,0-0.3-0.1-0.3-0.4s0-0.5,0-0.7c-0.2,0-0.5,0.1-1,0.4c-0.4,0.3-0.8,0.3-1,0
		c0.2-0.7,0.3-1.2,0.3-1.5c-0.2,0-0.4,0.1-0.5,0.4c-0.1,0.2-0.3,0.2-0.5,0c-0.2,0-0.3-0.2-0.2-0.6c0.1-0.4,0.1-0.6,0-0.6
		s-0.3,0-0.6,0c-0.3,0-0.6,0-0.8,0c0.2-0.7,0-1.4-0.6-1.9c0.2-1.7-0.5-3-2.2-3.7c0-0.2,0.1-0.6,0.2-1.1s0.2-0.9,0.2-1.1
		s-0.2-0.5-0.5-0.7c-0.3-0.2-0.5-0.5-0.5-0.7c-0.2-0.8-0.4-1.5-0.6-2.2c0-0.2,0.1-0.6,0.3-0.9c0.2-0.4,0.3-0.7,0.3-0.9
		c0-0.7-0.3-2-1-3.7c-0.2,0-0.5,0-0.8,0s-0.6-0.1-0.8-0.4c0-0.7,0-1.7,0-3s0-2.3,0-3.3c0.4-0.2,0.6-0.9,0.5-2s-0.5-1.8-1.1-2
		c0-0.5,0-1.1,0-1.9c0-0.7,0-1.2,0-1.5c-0.6-0.5-1-0.9-1-1.1c-0.2-0.5-0.3-1.1-0.2-1.7s0.2-1.2,0.2-1.7c-0.2-0.2-0.5-0.4-1-0.4
		c0-0.2,0-0.7,0-1.5s-0.1-1.1-0.3-1.1s-0.4,0-0.6,0c-0.2,0-0.3-0.1-0.3-0.4c0-0.2,0-0.7,0-1.5s-0.1-1.2-0.3-1.5c-0.4,0-0.8,0-1,0
		c0.2-0.2,0.3-0.7,0.2-1.3s-0.2-1.2-0.2-1.7c0.4-0.5,0.6-0.9,0.6-1.1c0-0.3-0.2-0.5-0.5-0.8c-0.3-0.2-0.5-0.5-0.5-0.7
		c0-0.7,0-1.2,0-1.5s-0.2-0.7-0.5-1.5s-0.6-1.4-0.8-1.9c0-0.2,0.1-0.9,0.2-1.9s0.1-1.7-0.2-2.2c0-0.2-0.1-0.4-0.3-0.5
		s-0.3-0.3-0.3-0.6s0.1-0.4,0.2-0.6c0.1-0.1,0.2-0.3,0.2-0.6c-0.4-0.2-0.6-0.7-0.6-1.5s0.3-1.1,1-1.1c0-0.2,0.2-0.7,0.6-1.5
		c0.4-0.8,0.6-1.6,0.6-2.6l0.6-0.8c1.1-0.7,1.5-1.6,1.3-2.6c0.4,0,0.9,0.3,1.6,0.8c0.4-0.3,0.6-0.9,0.6-1.9c0.4-0.2,0.9-0.1,1.6,0.4
		c0.2-0.7,0.4-1.1,0.6-1.1h1.3c0.2,0,0.4-0.2,0.5-0.5c0.1-0.4,0.3-0.6,0.5-0.6C256.4,45.4,257.3,45.4,258.5,45.7z M253.1,96.6
		c-0.2,0.7-0.1,1.1,0.3,1.1s0.5-0.4,0.3-1.1H253.1z M253.4,97.7c0.4,0,0.5-0.4,0.3-1.1h-0.6C252.9,97.4,253,97.7,253.4,97.7z"/>
	<path fill="#D93427" d="M337,43.4c0.2,0,0.7,0.1,1.4,0.4c0.7,0.2,1.3,0.4,1.8,0.4c0.2,0,0.3,0.1,0.2,0.4c-0.1,0.3-0.2,0.5-0.2,0.7
		c1.7,2,3.2,2.9,4.5,2.6c0,0.7,0.3,1.5,1,2.2c0.4,0.5,0.7,0.9,0.9,1.1c0.4-0.2,0.8-0.2,1,0c0,0.3,0,0.4,0,0.6c0,0.1,0,0.3,0,0.6
		c0.6,1,1.7,2.2,3.2,3.7s2.4,2.7,2.9,3.7c0.2,0,0.3,0.2,0.3,0.7l3.8,4.8c0,0.7,0.1,1.1,0.3,1.1s0.4-0.1,0.6-0.2s0.4-0.1,0.6,0.2
		c0,0.7,0.3,1.6,0.8,2.6s0.9,1.7,1.1,2.2l1.3,0.7c0.2,0,0.3,0.2,0.2,0.6c-0.1,0.4-0.2,0.7-0.2,0.9c0.2,0.2,0.6,0.6,1.1,1.1
		s0.9,0.7,1.1,0.7c0,0.2,0.1,0.5,0.3,0.7c0.2,0.3,0.3,0.5,0.3,0.7c0.2,0.3,0.5,0.6,0.8,1.1s0.6,0.9,0.8,1.1c0.2,0,0.4,0.1,0.5,0.4
		s0.2,0.5,0.2,0.7c1.1,1.5,1.8,2.7,2.2,3.7c0.2,0.3,0.5,0.6,0.9,1.1s0.7,0.9,1,1.1c0.4,1,1.3,2.1,2.7,3.3c1.4,1.2,2.3,2.2,2.7,3
		l3.2,2.2h1.3c0.8,1.2,1.9,1.7,3.2,1.5c0.2-0.2,0.5-0.5,0.8-0.7s0.6-0.4,0.8-0.4c0.4-0.5,1-0.7,1.6-0.7c1.3,0,2,0,2.2,0
		c1.1,1,2.2,0.9,3.5-0.4c0,0.2-0.1,0.5-0.3,0.7c-0.2,0.2-0.3,0.5-0.3,0.7c0.2,0.2,0.4,0.5,0.6,0.7c0.8-0.2,1.6,0.2,2.2,1.3
		s1.3,1.6,1.9,1.3c0.2,0,0.3,0.3,0.3,0.7c1.3,1.2,1.7,2.6,1.3,4.1c0.2,0.5,0.4,0.7,0.6,0.7c-0.4,0.5-0.7,1.6-0.9,3.3
		c-0.2,1.7-0.3,2.7-0.3,3c-0.6,0.2-1.3,0.8-1.9,1.7s-1.2,1.4-1.6,1.7c0,1.2,0,2,0,2.2c-0.4,0-0.9-0.1-1.3-0.4
		c-0.2,0.2-0.6,0.5-1.3,0.7c-0.6,0.2-1,0.5-1,0.7c-0.2,0.2-0.3,0.6-0.3,1.1s-0.1,0.9-0.3,1.1c-0.4,0-0.8-0.1-1.1-0.4
		c-0.3-0.2-0.6-0.4-0.8-0.4c-0.6,0.3-1,0.4-1.1,0.4s-0.3,0-0.5,0s-0.4,0-0.6,0s-0.4,0.2-0.6,0.6s-0.4,0.6-0.6,0.6
		c-0.8-0.3-1.9-0.2-3,0.2c-1.2,0.4-2.1,0.4-2.7,0.2c-0.2,0-0.3-0.2-0.3-0.6s-0.1-0.6-0.3-0.6c-0.2,0-0.8,0-1.6,0c-0.9,0-1.5,0-1.9,0
		c0-0.7-0.3-1.2-0.9-1.5c-0.6-0.2-1.2-0.2-1.6,0c-0.2-0.2-0.4-0.4-0.6-0.4c0-0.3-0.1-0.8-0.3-1.5c-0.2,0-0.6,0.1-1.1,0.2
		s-0.9,0.1-1.1-0.2c0-0.5-0.4-1-1.3-1.5c0-0.2-0.1-0.5-0.3-0.7c-0.2-0.2-0.4-0.4-0.6-0.4c-0.6,0.3-1.1,0.4-1.3,0.4
		c0-0.2,0-0.6,0-1.1l-3.8-4.1h-0.6c-0.4-0.2-0.9-0.7-1.3-1.5c-0.4-0.7-0.7-1.2-0.9-1.5c-0.4-0.2-0.8-0.4-1-0.4
		c-0.2-0.2-0.5-0.7-0.8-1.3s-0.6-0.9-0.8-0.9c-1.3-1-1.9-1.9-1.9-2.6c-0.6,0-1.2-0.4-1.8-1.1c-0.5-0.7-0.9-1.1-1.1-1.1
		c-0.2-1.7-1.3-3.6-3.2-5.6c-0.2-0.7-1.2-2.2-2.9-4.5c-0.2-0.5-0.8-1.2-1.9-2.2c-0.2-1-0.9-2.1-1.9-3.4c-0.6-0.7-1.1-1.2-1.3-1.5
		c0-1-0.5-2-1.6-3.2c-1.1-1.1-1.8-1.2-2.2-0.2c0,0.2-0.1,0.4-0.2,0.6s-0.2,0.2-0.3,0.4c-0.1,0.1-0.2,0.3-0.2,0.6
		c-0.2,0.3-0.3,0.6-0.3,0.9c0,0.4-0.1,0.7-0.3,0.9l-0.3,0.4c-0.6,1.2-1.1,1.9-1.3,1.9c0,0.2,0.1,0.5,0.2,0.7s0.2,0.5,0.2,0.7
		c-0.9,1.2-1.3,2.5-1.3,3.7c-0.4,0.5-0.9,1.5-1.6,3c-0.6,1.5-1.1,2.4-1.3,2.6c0,0.3,0,0.6,0,1.1s0,0.9,0,1.1s-0.2,0.6-0.5,1.1
		s-0.5,0.9-0.5,1.1c0,0.3-0.1,0.6-0.2,1.1s-0.3,0.9-0.5,1.1c0,0.2-0.1,0.4-0.3,0.5c-0.2,0.1-0.3,0.3-0.3,0.6c0,3-0.2,4.6-0.6,4.8
		c0,0.2,0.2,0.6,0.6,1.1c-1.1,2.5-1.7,4.6-1.9,6.3c-0.4,0.5-1.1,1.1-1.9,1.9c-0.8,0.7-1.5,1.4-1.9,1.9c-1.5-0.2-2.5,0.5-2.9,2.2
		c-0.2,0-0.4-0.1-0.5-0.4c-0.1-0.2-0.2-0.4-0.3-0.4s-0.2,0.1-0.3,0.4c-0.1,0.2-0.3,0.4-0.5,0.4c-0.4,0-1-0.6-1.6-1.7
		s-1.2-1.7-1.6-1.7s-0.9,0.3-1.4,0.8s-1,0.7-1.4,0.7l-1.6-2.2c-0.2-1-0.8-1.7-1.6-2.2c-0.2,0-0.4,0.1-0.5,0.2s-0.3,0.2-0.5,0.2
		c-0.2-0.5-0.6-1.2-1.3-2c-0.6-0.9-1-1.8-1-2.8c0-0.2-0.4-0.6-1.3-1.1v-1.1c0-0.2-0.2-0.6-0.6-1.1L304,105c0-0.5-0.2-1-0.5-1.7
		c-0.3-0.6-0.5-1-0.5-1.1s0-0.4,0-0.9s-0.1-0.9-0.2-1.1c-0.1-0.3-0.3-0.4-0.5-0.6c-0.2-0.1-0.4-0.3-0.6-0.6c0.4-1.2,0.1-2.5-0.9-3.7
		v-3c-0.4-0.5-0.6-1.3-0.6-2.6c-0.2,0-0.3,0-0.3-0.2c0-0.1,0-0.3,0-0.6c0-0.2,0-0.6,0-0.9c0-0.4,0-0.7,0-0.9s-0.1-0.5-0.3-0.7
		c-0.2-0.2-0.3-0.5-0.3-0.7s0-0.6,0-0.9c0-0.4-0.1-0.6-0.3-0.6c0-0.2-0.1-0.4-0.2-0.6c-0.1-0.1-0.2-0.3-0.2-0.6
		c-0.2-1.2-0.5-2-0.9-2.2l0.3-1.1c0-0.2-0.2-0.6-0.5-0.9c-0.3-0.4-0.5-0.7-0.5-0.9s0-0.7,0-1.5c0-0.5-0.3-1-1-1.5v-0.7
		c-0.2-0.2-0.6-1.1-1.3-2.6c0-0.2-0.1-0.5-0.3-0.7c-0.2-0.2-0.4-0.5-0.5-0.7s-0.1-0.6,0-0.9c0.1-0.4,0.2-0.7,0.2-0.9
		c-0.2-0.2-0.6-0.7-1.1-1.3s-0.9-1-1.1-1.3c0-0.2,0-0.5,0-0.7c0-0.2-0.2-0.5-0.5-0.7s-0.5-0.5-0.5-0.7c0-0.3,0.2-0.8,0.6-1.5
		c0-0.5,0-0.9,0-1.1c0-0.3,0.2-0.7,0.6-1.3s0.7-1,0.8-1.1c0.1-0.1,0.2-0.4,0.2-0.9s0-0.9,0-1.1c0.2-0.5,0.7-1,1.4-1.5
		c0.8-0.5,1.2-1,1.4-1.5c1.9-0.2,3-0.5,3.2-0.7c0-0.5,0-0.9,0-1.1c0.2-0.2,0.7-0.4,1.6-0.6c0.8-0.1,1.4-0.3,1.6-0.6
		c0.2,0,0.4,0.1,0.5,0.4s0.2,0.4,0.3,0.4c0.1,0,0.4-0.1,0.8-0.2s0.6-0.1,0.6,0.2c0.2,0,0.3,0.1,0.3,0.4s0.1,0.5,0.3,0.7
		c0.6-0.2,1.1-0.2,1.3,0c1.5,0.3,2.4,1.1,2.9,2.6c0.6,0.5,1.4,1.4,2.2,2.6c0.6-0.2,1-0.2,1,0c0,0.7,0.5,1.6,1.6,2.6
		c0.4,0.3,0.7,0.6,0.9,1.1c0,0.3,0.2,0.9,0.6,1.9c0,1,0.2,1.6,0.6,1.7c0.4,0.1,0.7-0.2,0.9-0.9c0.2,0,0.3-0.2,0.3-0.7
		c0.6-1,1-1.6,1-1.9c0.8-1.2,1.3-2.1,1.3-2.6c1.7-2.2,2.7-4.1,2.9-5.6l0.6-0.4c0-0.5,0.4-1.2,1.3-2.2c0.2-1,0.9-2.1,2.2-3.3
		c0-0.2,0-0.6,0-1.1c0.2,0,0.4,0.1,0.6,0.2s0.4,0.2,0.6,0.2s0.5-0.2,1-0.7c0.2,0,0.3-0.1,0.3-0.4c1.3,0,2.2-1.1,2.9-3.3
		c0.2,0,0.4,0.1,0.5,0.2s0.3,0.2,0.5,0.2c0.2-0.5,0.8-0.6,1.8-0.2C335.9,43.3,336.6,43.4,337,43.4z M340.2,44.2
		c0.2,0,0.3,0.1,0.2,0.4c-0.1,0.3-0.2,0.5-0.2,0.7c1.7,2,3.2,2.9,4.5,2.6c0,0.7,0.3,1.5,1,2.2c0.4,0.5,0.7,0.9,0.9,1.1
		c0.4-0.2,0.8-0.2,1,0c0,0.3,0,0.4,0,0.6c0,0.1,0,0.3,0,0.6c0.6,1,1.7,2.2,3.2,3.7s2.4,2.7,2.9,3.7c0.2,0,0.3,0.2,0.3,0.7l3.8,4.8
		c0,0.7,0.1,1.1,0.3,1.1s0.4-0.1,0.6-0.2s0.4-0.1,0.6,0.2c0,0.7,0.3,1.6,0.8,2.6s0.9,1.7,1.1,2.2l1.3,0.7c0.2,0,0.3,0.2,0.2,0.6
		c-0.1,0.4-0.2,0.7-0.2,0.9c0.2,0.2,0.6,0.6,1.1,1.1s0.9,0.7,1.1,0.7c0,0.2,0.1,0.5,0.3,0.7c0.2,0.3,0.3,0.5,0.3,0.7
		c0.2,0.3,0.5,0.6,0.8,1.1s0.6,0.9,0.8,1.1c0.2,0,0.4,0.1,0.5,0.4s0.2,0.5,0.2,0.7c1.1,1.5,1.8,2.7,2.2,3.7c0.2,0.3,0.5,0.6,0.9,1.1
		s0.7,0.9,1,1.1c0.4,1,1.3,2.1,2.7,3.3c1.4,1.2,2.3,2.2,2.7,3l3.2,2.2h1.3c0.8,1.2,1.9,1.7,3.2,1.5c0.2-0.2,0.5-0.5,0.8-0.7
		s0.6-0.4,0.8-0.4c0.4-0.5,1-0.7,1.6-0.7c1.3,0,2,0,2.2,0c1.1,1,2.2,0.9,3.5-0.4c0,0.2-0.1,0.5-0.3,0.7c-0.2,0.2-0.3,0.5-0.3,0.7
		c0.2,0.2,0.4,0.5,0.6,0.7c0.8-0.2,1.6,0.2,2.2,1.3s1.3,1.6,1.9,1.3c0.2,0,0.3,0.3,0.3,0.7c1.3,1,1.7,2.4,1.3,4.1
		c0.2,0.5,0.4,0.7,0.6,0.7c-0.4,0.5-0.7,1.6-0.9,3.3c-0.2,1.7-0.3,2.7-0.3,3c-0.6,0.2-1.3,0.8-1.9,1.7s-1.2,1.4-1.6,1.7
		c0,1.2,0,2,0,2.2c-0.4,0-0.9-0.1-1.3-0.4c-0.2,0.2-0.6,0.5-1.3,0.7c-0.6,0.2-1,0.5-1,0.7c-0.2,0.2-0.3,0.6-0.3,1.1
		s-0.1,0.9-0.3,1.1c-0.4,0-0.8-0.1-1.1-0.4c-0.3-0.2-0.6-0.4-0.8-0.4c-0.6,0.3-1,0.4-1.1,0.4s-0.3,0-0.5,0s-0.4,0-0.6,0
		s-0.4,0.2-0.6,0.6s-0.4,0.6-0.6,0.6c-0.8-0.3-1.9-0.2-3,0.2c-1.2,0.4-2.1,0.4-2.7,0.2c-0.2,0-0.3-0.2-0.3-0.6s-0.1-0.6-0.3-0.6
		c-0.2,0-0.8,0-1.6,0c-0.9,0-1.5,0-1.9,0c0-0.7-0.3-1.2-0.9-1.5c-0.6-0.2-1.2-0.2-1.6,0c-0.2-0.2-0.4-0.4-0.6-0.4
		c0-0.3-0.1-0.8-0.3-1.5c-0.2,0-0.6,0.1-1.1,0.2s-0.9,0.1-1.1-0.2c0-0.5-0.4-1-1.3-1.5c0-0.2-0.1-0.5-0.3-0.7
		c-0.2-0.2-0.4-0.4-0.6-0.4c-0.6,0.3-1.1,0.4-1.3,0.4c0-0.2,0-0.6,0-1.1l-3.8-4.1h-0.6c-0.4-0.2-0.9-0.7-1.3-1.5
		c-0.4-0.7-0.7-1.2-0.9-1.5c-0.4-0.2-0.8-0.4-1-0.4c-0.2-0.2-0.5-0.7-0.8-1.3s-0.6-0.9-0.8-0.9c-1.3-1-1.9-1.9-1.9-2.6
		c-0.6,0-1.2-0.4-1.8-1.1c-0.5-0.7-0.9-1.1-1.1-1.1c-0.2-1.7-1.3-3.6-3.2-5.6c-0.2-0.7-1.2-2.2-2.9-4.5c-0.2-0.5-0.8-1.2-1.9-2.2
		c-0.2-1-0.9-2.1-1.9-3.4c-0.6-0.7-1.1-1.2-1.3-1.5c0-1-0.5-2-1.6-3.2c-1.1-1.1-1.8-1.2-2.2-0.2c0,0.2-0.1,0.4-0.2,0.6
		s-0.2,0.2-0.3,0.4c-0.1,0.1-0.2,0.3-0.2,0.6c-0.2,0.3-0.3,0.6-0.3,0.9c0,0.4-0.1,0.7-0.3,0.9l-0.3,0.4c-0.6,1.2-1.1,1.9-1.3,1.9
		c0,0.2,0.1,0.5,0.2,0.7s0.2,0.5,0.2,0.7c-0.9,1.2-1.3,2.5-1.3,3.7c-0.4,0.5-0.9,1.5-1.6,3c-0.6,1.5-1.1,2.4-1.3,2.6
		c0,0.3,0,0.6,0,1.1s0,0.9,0,1.1s-0.2,0.6-0.5,1.1s-0.5,0.9-0.5,1.1c0,0.3-0.1,0.6-0.2,1.1s-0.3,0.9-0.5,1.1c0,0.2-0.1,0.4-0.3,0.5
		c-0.2,0.1-0.3,0.3-0.3,0.6c0,3-0.2,4.6-0.6,4.8c0,0.2,0.2,0.6,0.6,1.1c-1.1,2.5-1.7,4.6-1.9,6.3c-0.4,0.5-1.1,1.1-1.9,1.9
		c-0.8,0.7-1.5,1.4-1.9,1.9c-1.5-0.2-2.5,0.5-2.9,2.2c-0.2,0-0.4-0.1-0.5-0.4c-0.1-0.2-0.2-0.4-0.3-0.4s-0.2,0.1-0.3,0.4
		c-0.1,0.2-0.3,0.4-0.5,0.4c-0.4,0-1-0.6-1.6-1.7s-1.2-1.7-1.6-1.7c-0.2,0-0.6,0.3-1.3,0.8c-0.6,0.5-1.2,0.6-1.6,0.4l-1.6-1.9
		c-0.2-1-0.8-1.7-1.6-2.2c-0.2,0-0.4,0.1-0.5,0.2s-0.3,0.2-0.5,0.2c-0.2-0.5-0.6-1.2-1.3-2c-0.6-0.9-1-1.8-1-2.8
		c0-0.2-0.4-0.6-1.3-1.1v-1.1c0-0.2-0.2-0.6-0.6-1.1l-0.3-0.4c0-0.5-0.2-1-0.5-1.7c-0.3-0.6-0.5-1-0.5-1.1s0-0.4,0-0.9
		s-0.1-0.9-0.2-1.1c-0.1-0.3-0.3-0.4-0.5-0.6c-0.2-0.1-0.4-0.3-0.6-0.6c0.4-1.2,0.1-2.5-0.9-3.7v-3c-0.4-0.5-0.6-1.3-0.6-2.6
		c-0.2-0.2-0.3-0.5-0.3-0.7s0-0.6,0-0.9c0-0.4,0-0.7,0-0.9s-0.1-0.5-0.3-0.7c-0.2-0.2-0.3-0.5-0.3-0.7s0-0.6,0-0.9
		c0-0.4-0.1-0.6-0.3-0.6c0-0.2-0.1-0.4-0.2-0.6c-0.1-0.1-0.2-0.3-0.2-0.6c-0.2-1.2-0.5-2-0.9-2.2l0.3-1.1c0-0.2-0.2-0.6-0.5-0.9
		c-0.3-0.4-0.5-0.7-0.5-0.9s0-0.7,0-1.5c0-0.5-0.3-1-1-1.5v-0.7c-0.2-0.2-0.6-1.1-1.3-2.6c0-0.2-0.1-0.5-0.3-0.7
		c-0.2-0.2-0.4-0.5-0.5-0.7s-0.1-0.6,0-0.9c0.1-0.4,0.2-0.7,0.2-0.9c-0.2-0.2-0.6-0.7-1.1-1.3s-0.9-1-1.1-1.3c0-0.2,0-0.5,0-0.7
		c0-0.2-0.2-0.5-0.5-0.7s-0.5-0.5-0.5-0.7c0-0.3,0.2-0.8,0.6-1.5c0-0.5,0-0.9,0-1.1c0-0.3,0.2-0.7,0.6-1.3s0.7-1,0.8-1.1
		c0.1-0.1,0.2-0.4,0.2-0.9s0-0.9,0-1.1c0.2-0.5,0.7-1,1.4-1.5c0.8-0.5,1.2-1,1.4-1.5c1.9-0.2,3-0.5,3.2-0.7c0-0.5,0-0.9,0-1.1
		c0.2-0.2,0.7-0.4,1.6-0.6c0.8-0.1,1.4-0.3,1.6-0.6c0.2,0,0.4,0.1,0.5,0.4s0.2,0.4,0.3,0.4c0.1,0,0.4-0.1,0.8-0.2s0.6-0.1,0.6,0.2
		c0.2,0,0.3,0.1,0.3,0.4s0.1,0.5,0.3,0.7c0.6-0.2,1.1-0.2,1.3,0c1.5,0.3,2.4,1.1,2.9,2.6c0.6,0.5,1.4,1.4,2.2,2.6c0.6-0.2,1-0.2,1,0
		c0,0.7,0.5,1.6,1.6,2.6c0.4,0.3,0.7,0.6,0.9,1.1l0.6,1.9c0,1,0.2,1.6,0.6,1.7c0.4,0.1,0.7-0.2,0.9-0.9c0.2,0,0.3-0.2,0.3-0.7
		c0.6-1,1-1.6,1-1.9c0.8-1.2,1.3-2.1,1.3-2.6c1.7-2.2,2.7-4.1,2.9-5.6l0.6-0.4c0-0.5,0.4-1.2,1.3-2.2c0.2-1,0.9-2.1,2.2-3.3
		c0-0.2,0-0.6,0-1.1c0.2,0,0.4,0.1,0.6,0.2s0.4,0.2,0.6,0.2s0.5-0.2,1-0.7c0.2,0,0.3-0.1,0.3-0.4c1.3,0,2.2-1.1,2.9-3.3
		c0.2,0,0.4,0.1,0.5,0.2s0.3,0.2,0.5,0.2c0.2-0.5,0.8-0.6,1.8-0.2s1.6,0.6,2.1,0.6c0.2,0,0.7,0.1,1.4,0.4
		C339.2,44.1,339.8,44.2,340.2,44.2z"/>
</g>
</svg>
