<?xml version="1.0" encoding="utf-8"?>
<!-- Generator: Adobe Illustrator 19.0.1, SVG Export Plug-In . SVG Version: 6.00 Build 0)  -->
<svg version="1.1" id="Layer_1" xmlns="http://www.w3.org/2000/svg" xmlns:xlink="http://www.w3.org/1999/xlink" x="0px" y="0px"
	 viewBox="0 -15 400 100" enable-background="new 0 -15 400 100" xml:space="preserve">
<g>
	<path fill="#F9B7B5" d="M23.5,16c0.1,0,0.1,0.1,0.1,0.1c0,0.1-0.1,0.2-0.1,0.3c0.8,0.8,1.5,1.1,2,1c0,0.3,0.1,0.6,0.4,0.9
		c0.2,0.2,0.3,0.3,0.4,0.4c0.2-0.1,0.3-0.1,0.4,0c0,0.1,0,0.2,0,0.2c0,0.1,0,0.1,0,0.2c0.3,0.4,0.8,0.9,1.5,1.5
		c0.7,0.6,1.1,1.1,1.3,1.5c0.1,0,0.1,0.1,0.1,0.3l1.8,1.9c0,0.3,0,0.4,0.1,0.4s0.2,0,0.3-0.1c0.1,0,0.2,0,0.3,0.1
		c0,0.3,0.1,0.6,0.4,1c0.2,0.4,0.4,0.7,0.5,0.9l0.6,0.3c0.1,0,0.1,0.1,0.1,0.2c-0.1,0.1-0.1,0.3-0.1,0.4c0.1,0.1,0.3,0.2,0.5,0.4
		c0.2,0.2,0.4,0.3,0.5,0.3c0,0.1,0,0.2,0.1,0.3s0.1,0.2,0.1,0.3c0.1,0.1,0.2,0.2,0.4,0.4c0.1,0.2,0.3,0.3,0.4,0.4
		c0.1,0,0.2,0,0.2,0.1c0,0.1,0.1,0.2,0.1,0.3c0.5,0.6,0.8,1.1,1,1.5c0.1,0.1,0.2,0.2,0.4,0.4s0.3,0.3,0.4,0.4
		c0.2,0.4,0.6,0.8,1.2,1.3c0.6,0.5,1,0.9,1.2,1.2l1.5,0.9h0.6c0.4,0.5,0.9,0.7,1.5,0.6c0.1-0.1,0.2-0.2,0.4-0.3
		c0.1-0.1,0.3-0.1,0.4-0.1c0.2-0.2,0.4-0.3,0.7-0.3c0.6,0,0.9,0,1,0c0.5,0.4,1,0.3,1.6-0.1c0,0.1-0.1,0.2-0.1,0.3s-0.1,0.2-0.1,0.3
		c0.1,0.1,0.2,0.2,0.3,0.3c0.4-0.1,0.7,0.1,1,0.5s0.6,0.6,0.9,0.5c0.1,0,0.1,0.1,0.1,0.3c0.6,0.4,0.8,0.9,0.6,1.6
		c0.1,0.2,0.2,0.3,0.3,0.3c-0.2,0.2-0.3,0.6-0.4,1.3c-0.1,0.7-0.1,1.1-0.1,1.2c-0.3,0.1-0.6,0.3-0.9,0.7c-0.3,0.3-0.5,0.6-0.7,0.7
		c0,0.5,0,0.8,0,0.9c-0.2,0-0.4,0-0.6-0.1c-0.1,0.1-0.3,0.2-0.6,0.3s-0.4,0.2-0.4,0.3C47,45,47,45.1,47,45.3s-0.1,0.3-0.1,0.4
		c-0.2,0-0.4,0-0.5-0.1s-0.3-0.1-0.4-0.1c-0.3,0.1-0.5,0.1-0.5,0.1c-0.1,0-0.1,0-0.2,0c-0.1,0-0.2,0-0.3,0s-0.2,0.1-0.3,0.2
		c-0.1,0.1-0.2,0.2-0.3,0.2c-0.4-0.1-0.8-0.1-1.4,0c-0.5,0.1-1,0.2-1.2,0.1c-0.1,0-0.1-0.1-0.1-0.2c0-0.1,0-0.2-0.1-0.2
		s-0.3,0-0.7,0s-0.7,0-0.9,0c0-0.3-0.1-0.5-0.4-0.6c-0.3-0.1-0.5-0.1-0.7,0C38.8,45,38.7,45,38.6,45c0-0.1-0.1-0.3-0.1-0.6
		c-0.1,0-0.3,0-0.5,0.1s-0.4,0-0.5-0.1c0-0.2-0.2-0.4-0.6-0.6c0-0.1-0.1-0.2-0.1-0.3c-0.1-0.1-0.2-0.1-0.3-0.1
		c-0.3,0.1-0.5,0.1-0.6,0.1c0-0.1,0-0.2,0-0.4l-1.8-1.6h-0.3c-0.2-0.1-0.4-0.3-0.6-0.6c-0.2-0.3-0.3-0.5-0.4-0.6
		c-0.2-0.1-0.3-0.1-0.4-0.1c-0.1-0.1-0.2-0.3-0.4-0.5c-0.1-0.2-0.3-0.4-0.4-0.4c-0.6-0.4-0.9-0.7-0.9-1c-0.3,0-0.6-0.1-0.8-0.4
		c-0.2-0.3-0.4-0.4-0.5-0.4c-0.1-0.7-0.6-1.4-1.5-2.2c-0.1-0.3-0.5-0.9-1.3-1.8c-0.1-0.2-0.4-0.5-0.9-0.9c-0.1-0.4-0.4-0.8-0.9-1.3
		c-0.3-0.3-0.5-0.5-0.6-0.6c0-0.4-0.2-0.8-0.7-1.2s-0.8-0.5-1-0.1c0,0.1,0,0.2-0.1,0.2l-0.1,0.1c0,0.1-0.1,0.1-0.1,0.2
		c-0.1,0.1-0.1,0.2-0.1,0.4c0,0.1-0.1,0.3-0.1,0.4l-0.1,0.1c-0.3,0.5-0.5,0.7-0.6,0.7c0,0.1,0,0.2,0.1,0.3s0.1,0.2,0.1,0.3
		c-0.4,0.5-0.6,1-0.6,1.5c-0.2,0.2-0.4,0.6-0.7,1.2c-0.3,0.6-0.5,0.9-0.6,1c0,0.1,0,0.2,0,0.4s0,0.3,0,0.4c0,0.1-0.1,0.2-0.2,0.4
		s-0.2,0.3-0.2,0.4c0,0.1,0,0.2-0.1,0.4c0,0.2-0.1,0.3-0.2,0.4c0,0.1,0,0.2-0.1,0.2c-0.1,0.1-0.1,0.1-0.1,0.2c0,1.2-0.1,1.8-0.3,1.9
		c0,0.1,0.1,0.2,0.3,0.4c-0.5,1-0.8,1.8-0.9,2.5c-0.2,0.2-0.5,0.4-0.9,0.7s-0.7,0.5-0.9,0.7c-0.7-0.1-1.1,0.2-1.3,0.9
		c-0.1,0-0.2-0.1-0.2-0.1c-0.1-0.1-0.1-0.1-0.1-0.1l-0.1,0.1c-0.1,0.1-0.1,0.1-0.2,0.1c-0.2,0-0.4-0.2-0.7-0.7
		c-0.3-0.4-0.5-0.7-0.7-0.7c-0.1,0-0.3,0.1-0.6,0.3s-0.5,0.2-0.7,0.1L10,44.4c-0.1-0.4-0.3-0.7-0.7-0.9c-0.1,0-0.2,0-0.2,0.1
		c0,0-0.1,0.1-0.2,0.1c-0.1-0.2-0.3-0.5-0.6-0.8s-0.4-0.7-0.4-1.1c0-0.1-0.2-0.2-0.6-0.4V41c0-0.1-0.1-0.2-0.3-0.4l-0.1-0.1
		c0-0.2-0.1-0.4-0.2-0.7c-0.1-0.2-0.2-0.4-0.2-0.4s0-0.2,0-0.4s0-0.3-0.1-0.4c0-0.1-0.1-0.2-0.2-0.2S6,38.3,5.9,38.2
		c0.2-0.5,0-1-0.4-1.5v-1.2c-0.2-0.2-0.3-0.5-0.3-1C5,34.2,4.9,34.1,4.9,34s0-0.2,0-0.4c0-0.1,0-0.3,0-0.4c0-0.1-0.1-0.2-0.1-0.3
		c-0.1-0.1-0.1-0.2-0.1-0.3s0-0.2,0-0.4c0-0.1-0.1-0.2-0.1-0.2c0-0.1,0-0.2-0.1-0.2s-0.1-0.1-0.1-0.2c-0.1-0.5-0.2-0.8-0.4-0.9v-0.4
		c0-0.1-0.1-0.2-0.2-0.4c-0.1-0.1-0.2-0.3-0.2-0.4c0-0.1,0-0.3,0-0.6c0-0.2-0.1-0.4-0.4-0.6V28c-0.1-0.1-0.3-0.4-0.6-1
		c0-0.1-0.1-0.2-0.1-0.3c-0.1-0.1-0.2-0.2-0.2-0.3s0-0.2,0-0.4c0-0.1,0.1-0.3,0.1-0.4c-0.1-0.1-0.3-0.3-0.5-0.5s-0.4-0.4-0.5-0.5
		c0-0.1,0-0.2,0-0.3S1.3,24.1,1.2,24C1.1,23.9,1,23.8,1,23.7s0.1-0.3,0.3-0.6c0-0.2,0-0.3,0-0.4c0-0.1,0.1-0.3,0.3-0.5
		s0.3-0.4,0.4-0.4c0,0,0.1-0.2,0.1-0.4c0-0.2,0-0.3,0-0.4c0.1-0.2,0.3-0.4,0.7-0.6c0.3-0.2,0.6-0.4,0.7-0.6c0.9-0.1,1.4-0.2,1.5-0.3
		c0-0.2,0-0.3,0-0.4c-0.3,0,0-0.1,0.4-0.1s0.6-0.1,0.7-0.2c0.1,0,0.2,0.1,0.2,0.1C6.4,19,6.4,19,6.5,19c0,0,0.2,0,0.4-0.1
		c0.2,0,0.3,0,0.3,0.1c0.1,0,0.1,0,0.1,0.1c0,0.1,0,0.2,0.1,0.3c0.3-0.1,0.5-0.1,0.6,0c0.7,0.1,1.1,0.4,1.3,1c0.3,0.2,0.6,0.5,1,1
		c0.3-0.1,0.4-0.1,0.4,0c0,0.3,0.2,0.6,0.7,1c0.2,0.1,0.3,0.2,0.4,0.4l0.3,0.7c0,0.4,0.1,0.6,0.3,0.7c0.2,0,0.3-0.1,0.4-0.4
		c0.1,0,0.1-0.1,0.1-0.3c0.3-0.4,0.4-0.6,0.4-0.7c0.4-0.5,0.6-0.8,0.6-1c0.8-0.9,1.2-1.6,1.3-2.2l0.3-0.1c0-0.2,0.2-0.5,0.6-0.9
		c0.1-0.4,0.4-0.8,1-1.3c0-0.1,0-0.2,0-0.4c0.1,0,0.2,0,0.3,0.1c0.1,0,0.2,0.1,0.3,0.1c0.1,0,0.2-0.1,0.4-0.3c0.1,0,0.1,0,0.1-0.1
		c0.6,0,1-0.4,1.3-1.3c0.1,0,0.2,0,0.2,0.1s0.1,0.1,0.2,0.1c0.1-0.2,0.4-0.2,0.8-0.1s0.8,0.2,1,0.2c0.1,0,0.3,0.1,0.7,0.1
		C23,15.9,23.3,16,23.5,16z M22,15.7c0.1,0,0.3,0.1,0.7,0.1c0.3,0.1,0.6,0.1,0.8,0.1c0.1,0,0.1,0.1,0.1,0.1c0,0.1-0.1,0.2-0.1,0.3
		c0.8,0.8,1.5,1.1,2,1c0,0.3,0.1,0.6,0.4,0.9c0.2,0.2,0.3,0.3,0.4,0.4c0.2-0.1,0.3-0.1,0.4,0c0,0.1,0,0.2,0,0.2c0,0.1,0,0.1,0,0.2
		c0.3,0.4,0.8,0.9,1.5,1.5c0.7,0.6,1.1,1.1,1.3,1.5c0.1,0,0.1,0.1,0.1,0.3l1.8,1.9c0,0.3,0,0.4,0.1,0.4s0.2,0,0.3-0.1
		c0.1,0,0.2,0,0.3,0.1c0,0.3,0.1,0.6,0.4,1c0.2,0.4,0.4,0.7,0.5,0.9l0.6,0.3c0.1,0,0.1,0.1,0.1,0.2c-0.1,0.1-0.1,0.3-0.1,0.4
		c0.1,0.1,0.3,0.2,0.5,0.4c0.2,0.2,0.4,0.3,0.5,0.3c0,0.1,0,0.2,0.1,0.3s0.1,0.2,0.1,0.3c0.1,0.1,0.2,0.2,0.4,0.4
		c0.1,0.2,0.3,0.3,0.4,0.4c0.1,0,0.2,0,0.2,0.1c0,0.1,0.1,0.2,0.1,0.3c0.5,0.6,0.8,1.1,1,1.5c0.1,0.1,0.2,0.2,0.4,0.4
		s0.3,0.3,0.4,0.4c0.2,0.4,0.6,0.8,1.2,1.3c0.6,0.5,1,0.9,1.2,1.2l1.5,0.9h0.6c0.4,0.5,0.9,0.7,1.5,0.6c0.1-0.1,0.2-0.2,0.4-0.3
		c0.1-0.1,0.3-0.1,0.4-0.1c0.2-0.2,0.4-0.3,0.7-0.3c0.6,0,0.9,0,1,0c0.5,0.4,1,0.3,1.6-0.1c0,0.1-0.1,0.2-0.1,0.3s-0.1,0.2-0.1,0.3
		c0.1,0.1,0.2,0.2,0.3,0.3c0.4-0.1,0.7,0.1,1,0.5s0.6,0.6,0.9,0.5c0.1,0,0.1,0.1,0.1,0.3c0.6,0.5,0.8,1,0.6,1.6
		c0.1,0.2,0.2,0.3,0.3,0.3c-0.2,0.2-0.3,0.6-0.4,1.3c-0.1,0.7-0.1,1.1-0.1,1.2c-0.3,0.1-0.6,0.3-0.9,0.7c-0.3,0.3-0.5,0.6-0.7,0.7
		c0,0.5,0,0.8,0,0.9c-0.2,0-0.4,0-0.6-0.1c-0.1,0.1-0.3,0.2-0.6,0.3s-0.4,0.2-0.4,0.3C47,44.9,47,45,47,45.2s-0.1,0.3-0.1,0.4
		c-0.2,0-0.4,0-0.5-0.1s-0.3-0.1-0.4-0.1c-0.3,0.1-0.5,0.1-0.5,0.1c-0.1,0-0.1,0-0.2,0c-0.1,0-0.2,0-0.3,0s-0.2,0.1-0.3,0.2
		c-0.1,0.1-0.2,0.2-0.3,0.2c-0.4,0-0.8,0-1.4,0.1c-0.5,0.1-1,0.2-1.2,0.1c-0.1,0-0.1-0.1-0.1-0.2c0-0.1,0-0.2-0.1-0.2s-0.3,0-0.7,0
		s-0.7,0-0.9,0c0-0.3-0.1-0.5-0.4-0.6c-0.3-0.1-0.5-0.1-0.7,0C38.8,45,38.7,45,38.6,45c0-0.1-0.1-0.3-0.1-0.6c-0.1,0-0.3,0-0.5,0.1
		s-0.4,0-0.5-0.1c0-0.2-0.2-0.4-0.6-0.6c0-0.1-0.1-0.2-0.1-0.3c-0.1-0.1-0.2-0.1-0.3-0.1c-0.3,0.1-0.5,0.1-0.6,0.1
		c0-0.1,0-0.2,0-0.4l-1.8-1.6h-0.3c-0.2-0.1-0.4-0.3-0.6-0.6c-0.2-0.3-0.3-0.5-0.4-0.6c-0.2-0.1-0.3-0.1-0.4-0.1
		c-0.1-0.1-0.2-0.3-0.4-0.5c-0.1-0.2-0.3-0.4-0.4-0.4c-0.6-0.4-0.9-0.7-0.9-1c-0.3,0-0.6-0.1-0.8-0.4c-0.2-0.3-0.4-0.4-0.5-0.4
		c-0.1-0.7-0.6-1.4-1.5-2.2c-0.1-0.3-0.5-0.9-1.3-1.8c-0.1-0.2-0.4-0.5-0.9-0.9c-0.1-0.4-0.4-0.8-0.9-1.3c-0.3-0.3-0.5-0.5-0.6-0.6
		c0-0.4-0.2-0.8-0.7-1.2s-0.8-0.5-1-0.1c0,0.1,0,0.2-0.1,0.2l-0.1,0.1c0,0.1-0.1,0.1-0.1,0.2c-0.1,0.1-0.1,0.2-0.1,0.4
		c0,0.1-0.1,0.3-0.1,0.4l-0.1,0.1c-0.3,0.5-0.5,0.7-0.6,0.7c0,0.1,0,0.2,0.1,0.3s0.1,0.2,0.1,0.3c-0.4,0.5-0.6,1-0.6,1.5
		c-0.2,0.2-0.4,0.6-0.7,1.2c-0.3,0.6-0.5,0.9-0.6,1c0,0.1,0,0.2,0,0.4s0,0.3,0,0.4c0,0.1-0.1,0.2-0.2,0.4s-0.2,0.3-0.2,0.4
		c0,0.1,0,0.2-0.1,0.4c0,0.2-0.1,0.3-0.2,0.4c0,0.1,0,0.2-0.1,0.2c-0.1,0.1-0.1,0.1-0.1,0.2c0,1.2-0.1,1.8-0.3,1.9
		c0,0.1,0.1,0.2,0.3,0.4c-0.5,1-0.8,1.8-0.9,2.5c-0.2,0.2-0.5,0.4-0.9,0.7s-0.7,0.5-0.9,0.7c-0.7-0.1-1.1,0.2-1.3,0.9
		c-0.1,0-0.2-0.1-0.2-0.1c-0.1-0.1-0.1-0.1-0.1-0.1l-0.1,0.1c-0.1,0.1-0.1,0.1-0.2,0.1c-0.2,0-0.4-0.2-0.7-0.7
		c-0.3-0.4-0.5-0.7-0.7-0.7s-0.4,0.1-0.7,0.3s-0.5,0.3-0.7,0.3L10,44.4c-0.1-0.4-0.3-0.7-0.7-0.9c-0.1,0-0.2,0-0.2,0.1
		c0,0-0.1,0.1-0.2,0.1c-0.1-0.2-0.3-0.5-0.6-0.8s-0.4-0.7-0.4-1.1c0-0.1-0.2-0.2-0.6-0.4V41c0-0.1-0.1-0.2-0.3-0.4l-0.1-0.1
		c0-0.2-0.1-0.4-0.2-0.7c-0.1-0.2-0.2-0.4-0.2-0.4s0-0.2,0-0.4s0-0.3-0.1-0.4c0-0.1-0.1-0.2-0.2-0.2S6,38.3,5.9,38.2
		c0.2-0.5,0-1-0.4-1.5v-1.2c-0.2-0.2-0.3-0.5-0.3-1c-0.1,0-0.1,0-0.1-0.1c0,0,0-0.1,0-0.2c0-0.1,0-0.2,0-0.4c0-0.1,0-0.3,0-0.4
		c0-0.1-0.1-0.2-0.1-0.3c-0.1-0.1-0.1-0.2-0.1-0.3s0-0.2,0-0.4c0-0.1-0.1-0.2-0.1-0.2c0-0.1,0-0.2-0.1-0.2s-0.1-0.1-0.1-0.2
		c-0.1-0.5-0.2-0.8-0.4-0.9L4,30.3c0-0.1-0.1-0.2-0.2-0.4c-0.1-0.1-0.2-0.3-0.2-0.4c0-0.1,0-0.3,0-0.6c0-0.2-0.1-0.4-0.4-0.6V28
		c-0.1-0.1-0.3-0.4-0.6-1c0-0.1-0.1-0.2-0.1-0.3c-0.1-0.1-0.2-0.2-0.2-0.3s0-0.2,0-0.4c0-0.1,0.1-0.3,0.1-0.4
		c-0.1-0.1-0.3-0.3-0.5-0.5s-0.4-0.4-0.5-0.5c0-0.1,0-0.2,0-0.3S1.3,24.1,1.2,24C1.1,23.9,1,23.8,1,23.7s0.1-0.3,0.3-0.6
		c0-0.2,0-0.3,0-0.4c0-0.1,0.1-0.3,0.3-0.5s0.3-0.4,0.4-0.4c0,0,0.1-0.2,0.1-0.4c0-0.2,0-0.3,0-0.4c0.1-0.2,0.3-0.4,0.7-0.6
		c0.3-0.2,0.6-0.4,0.7-0.6c0.9-0.1,1.4-0.2,1.5-0.3c0-0.2,0-0.3,0-0.4c-0.3,0,0-0.1,0.4-0.1s0.6-0.1,0.7-0.2c0.1,0,0.2,0.1,0.2,0.1
		C6.4,19,6.4,19,6.5,19c0,0,0.2,0,0.4-0.1c0.2,0,0.3,0,0.3,0.1c0.1,0,0.1,0,0.1,0.1c0,0.1,0,0.2,0.1,0.3c0.3-0.1,0.5-0.1,0.6,0
		c0.7,0.1,1.1,0.4,1.3,1c0.3,0.2,0.6,0.5,1,1c0.3-0.1,0.4-0.1,0.4,0c0,0.3,0.2,0.6,0.7,1c0.2,0.1,0.3,0.2,0.4,0.4
		c0,0.1,0.1,0.3,0.3,0.7c0,0.4,0.1,0.6,0.3,0.7c0.2,0,0.3-0.1,0.4-0.4c0.1,0,0.1-0.1,0.1-0.3c0.3-0.4,0.4-0.6,0.4-0.7
		c0.4-0.5,0.6-0.8,0.6-1c0.8-0.9,1.2-1.6,1.3-2.2l0.3-0.1c0-0.2,0.2-0.5,0.6-0.9c0.1-0.4,0.4-0.8,1-1.3c0-0.1,0-0.2,0-0.4
		c0.1,0,0.2,0,0.3,0.1c0.1,0,0.2,0.1,0.3,0.1c0.1,0,0.2-0.1,0.4-0.3c0.1,0,0.1,0,0.1-0.1c0.6,0,1-0.4,1.3-1.3c0.1,0,0.2,0,0.2,0.1
		s0.1,0.1,0.2,0.1c0.1-0.2,0.4-0.2,0.8-0.1C21.5,15.6,21.8,15.7,22,15.7z"/>
	<path fill="#F9B7B5" d="M63.3-3.2c0,0.4,0.1,0.6,0.4,0.6c0.5-0.1,0.8-0.1,0.9-0.1c0,0.7,0.3,1.1,0.9,1.2c0.1,0,0.1,0,0.1-0.1
		s0-0.1,0.1-0.1c0.2,0.2,0.3,0.3,0.4,0.3C66-1.2,66-1,66.1-0.7s0.1,0.5,0.1,0.6C66.3,0,66.4,0,66.5,0s0.1,0,0.1,0.1
		c0.1,0,0.2,0.2,0.4,0.6c0.1,0.4,0.3,0.6,0.5,0.7c0,0.1,0,0.2,0,0.3c0.1,0,0.2,0,0.3,0c0.2,0,0.3,0,0.4,0c0.1,0.4,0,0.7-0.3,0.9
		c-0.1,0.3,0,0.7,0.4,1.2c0,0.3,0,0.9,0,1.8s0,1.4,0.1,1.6H68c-0.1,0-0.1,0.1-0.1,0.3s0,0.3-0.1,0.3s-0.2,0-0.3-0.1
		c-0.1,0-0.2-0.1-0.3-0.1c-0.3,0-0.3,0.2-0.1,0.7c0.2,0.5,0.2,0.8,0.1,1c-0.1,0-0.3,0-0.7,0.1c-0.4,0-0.6,0.1-0.7,0.1
		s-0.2-0.1-0.4-0.3c-0.3-0.3-0.5-0.3-0.7,0c0,0.1,0,0.2,0.1,0.3s0.1,0.2,0.1,0.3c-0.3-0.1-0.4-0.2-0.4-0.3c-0.7,0-1.1-0.1-1.2-0.4
		c-0.1,0-0.2,0-0.2,0.1c0,0-0.1,0.1-0.2,0.1c-0.1-0.1-0.5-0.5-1.3-1.2L61.2,8c0-0.1-0.2-0.3-0.7-0.6c0,0.3-0.1,0.4-0.3,0.4
		c-0.1,0-0.1-0.1-0.1-0.2s0-0.3,0-0.4c-0.1,0-0.2,0-0.4,0.1c-0.1,0.1-0.2,0.1-0.3,0c0,0-0.1-0.2-0.1-0.4s0-0.3,0-0.4
		c-0.1-0.1-0.3-0.4-0.7-1c-0.1,0-0.2,0-0.2,0s-0.1,0-0.2,0c0.2-0.2,0.2-0.5,0-0.9s-0.3-0.7-0.3-1l-0.4-0.1c0-0.1,0-0.3-0.1-0.5
		c0-0.2,0-0.4,0.1-0.4c0-0.1-0.2-0.7-0.6-1.9l0.4-0.1l0.1-0.3c0.1-0.4,0.2-0.6,0.4-0.6c0-0.7,0-1.1,0-1.3c0.1,0,0.2,0,0.4,0
		s0.3,0,0.4,0C58.7-1.7,58.8-1.8,59-2c0.1-0.2,0.3-0.4,0.4-0.6c0.1,0,0.3,0,0.7,0.1c0.4,0,0.6,0,0.7-0.1c0-0.1,0-0.2,0-0.4
		C61-3,61.4-3,62-3.1C62.8-3.3,63.2-3.3,63.3-3.2z M62.2-3.3c0.6,0,1,0,1.1,0.1c0,0.4,0.1,0.6,0.4,0.6c0.5-0.1,0.8-0.1,0.9-0.1
		c0,0.7,0.3,1.1,0.9,1.2c0.1,0,0.1,0,0.1-0.1s0-0.1,0.1-0.1c0.2,0.2,0.3,0.3,0.4,0.3C66-1.2,66-1,66.1-0.7s0.1,0.5,0.1,0.6
		C66.3,0,66.4,0,66.5,0s0.1,0,0.1,0.1c0.1,0,0.2,0.2,0.4,0.6c0.1,0.4,0.3,0.6,0.5,0.7c0,0.1,0,0.2,0,0.3c0.1,0,0.2,0,0.3,0
		c0.2,0,0.3,0,0.4,0c0.1,0.4,0,0.7-0.3,0.9c-0.1,0.3,0,0.7,0.4,1.2c0,0.3,0,0.9,0,1.8s0,1.4,0.1,1.6H68c-0.1,0-0.1,0.1-0.1,0.3
		s0,0.3-0.1,0.3s-0.2,0-0.3-0.1c-0.1,0-0.2-0.1-0.3-0.1c-0.3,0-0.3,0.2-0.1,0.7c0.2,0.5,0.2,0.8,0.1,1c-0.1,0-0.3,0-0.7,0.1
		c-0.4,0-0.6,0.1-0.7,0.1s-0.2-0.1-0.4-0.3c-0.3-0.3-0.5-0.3-0.7,0c0,0.1,0,0.2,0.1,0.3s0.1,0.2,0.1,0.3c-0.3-0.1-0.4-0.2-0.4-0.3
		c-0.7,0-1.1-0.1-1.2-0.4c-0.1,0-0.2,0-0.2,0.1c0,0-0.1,0.1-0.2,0.1c-0.1-0.1-0.5-0.5-1.3-1.2L61.2,8c0-0.1-0.2-0.3-0.7-0.6
		c0,0.3-0.1,0.4-0.3,0.4c-0.1,0-0.1-0.1-0.1-0.2s0-0.3,0-0.4c-0.1,0-0.2,0-0.4,0.1c-0.1,0.1-0.2,0.1-0.3,0c0,0-0.1-0.2-0.1-0.4
		s0-0.3,0-0.4c-0.1-0.1-0.3-0.4-0.7-1c-0.1,0-0.2,0-0.2,0s-0.1,0-0.2,0c0.2-0.2,0.2-0.5,0-0.9s-0.3-0.7-0.3-1l-0.4-0.1
		c0-0.1,0-0.3-0.1-0.5c0-0.2,0-0.4,0.1-0.4c0-0.1-0.2-0.7-0.6-1.9l0.4-0.1l0.1-0.3c0.1-0.4,0.2-0.6,0.4-0.6c0-0.7,0-1.1,0-1.3
		c0.1,0,0.2,0,0.4,0s0.3,0,0.4,0C58.7-1.7,58.8-1.8,59-2c0.1-0.2,0.3-0.4,0.4-0.6c0.1,0,0.3,0,0.7,0.1c0.4,0,0.6,0,0.7-0.1
		c0-0.1,0-0.2,0-0.4C61.2-3.2,61.6-3.2,62.2-3.3z M62.4,16.6c0.2-0.1,0.6-0.1,1.2,0c0.1,0,0.1,0,0.1,0.1c-0.1,0.1,0,0.2,0.1,0.3
		c0.5,0.1,0.7,0.2,0.7,0.3c0.2-0.2,0.4-0.3,0.7-0.3c0.2,0,0.4,0.1,0.5,0.3c0,0.1-0.1,0.2-0.1,0.3c0.5,0.8,0.8,1.2,0.9,1.2
		c-0.1,0.3,0,0.5,0.4,0.6c0.1,0,0.2,0,0.3,0c0.1,0.6,0.3,1,0.6,1.2V21c0,0.1,0.1,0.2,0.2,0.2s0.2,0.1,0.2,0.2c0.1,0.1,0.1,0.3,0,0.7
		c0,0.4,0.1,0.6,0.4,0.7c0.2,0.1,0.2,0.4,0.1,1c-0.1,0.6-0.1,1,0,1.3c0.2,0.2,0.3,0.3,0.4,0.4c-0.1,0.2-0.1,0.4,0,0.6l0.4,0.1
		c0.1,0.3,0.1,0.6,0.1,1c0,0.4-0.1,0.6-0.1,0.7c0,0.1,0.1,0.2,0.2,0.4c0.1,0.2,0.2,0.4,0.1,0.6c0.1,0.3,0.3,0.4,0.7,0.3v1.3L70.3,31
		c0,0.3,0.1,0.6,0.4,0.9c0.2-0.1,0.3-0.1,0.4-0.1c0,0.2,0,0.3-0.1,0.4c-0.1,0-0.1,0.1-0.1,0.1c-0.1,0.8,0,1.2,0.4,1.3
		c0,0.2,0,0.5,0,1s0,0.8,0.1,0.9c0,0.1,0.1,0.1,0.3,0.1c0.2,0.5,0.1,1-0.1,1.5c0.1,0.3,0.3,0.5,0.7,0.6c0,0.3,0,0.5,0,0.6
		c-0.1,0-0.2,0-0.2,0s-0.1,0-0.2,0c0,0.2,0.1,0.3,0.4,0.4c0.1,0.4,0,0.7-0.3,1c0,0.2,0.1,0.5,0.2,0.9s0.2,0.7,0.1,0.9
		c-0.5,0.1-0.7,0.6-0.6,1.5c0.1,0.2,0.1,0.3,0.1,0.4c-0.2,0-0.4,0-0.5,0.1s-0.3,0.1-0.4,0c-0.3,0.7-0.4,1.1-0.4,1.2
		c-0.1,0-0.2,0-0.2-0.1c0,0-0.1-0.1-0.2-0.1C70,44.6,70,44.8,70,45.2c0,0.3,0,0.6-0.1,0.7c-0.7,0-1.1-0.1-1.2-0.3
		c0-0.1,0-0.2,0.1-0.3s0.1-0.2,0.1-0.3c-0.1-0.1-0.2-0.2-0.3-0.3c0,0.1-0.1,0.2-0.1,0.4c-0.1,0.2-0.2,0.3-0.3,0.3
		c-0.1-0.1-0.3-0.1-0.6,0c-0.1,0-0.2,0-0.2,0c-0.1,0-0.1,0-0.3,0c-0.1,0-0.3,0-0.3,0s-0.2,0.1-0.4,0.4c-0.2,0.2-0.5,0.3-0.7,0.1
		c-0.1,0-0.1-0.1-0.1-0.1s0-0.2,0-0.3c-0.1,0-0.3,0-0.4,0.1c-0.2,0.1-0.3,0.1-0.4,0c0.1-0.3,0.1-0.5,0.1-0.6c-0.1,0-0.2,0.1-0.2,0.1
		c-0.1,0.1-0.1,0.1-0.2,0c-0.1,0-0.1-0.1-0.1-0.2c0-0.1,0-0.2,0-0.2c-0.1,0-0.2,0-0.5,0c0-0.3-0.1-0.5-0.4-0.7
		c0.1-0.7-0.2-1.2-1-1.5c0-0.1,0-0.2,0.1-0.4c0-0.2,0.1-0.3,0.1-0.4c0-0.1-0.1-0.2-0.2-0.3c-0.1-0.1-0.2-0.2-0.2-0.3
		c-0.1-0.3-0.2-0.6-0.3-0.9c0-0.1,0-0.2,0.1-0.4c0.1-0.1,0.1-0.3,0.1-0.4c0-0.3-0.1-0.8-0.4-1.5c-0.1,0-0.2,0-0.4,0
		c-0.1,0-0.3,0-0.4-0.1c0-0.3,0-0.7,0-1.2s0-0.9,0-1.3c0.2-0.1,0.3-0.4,0.2-0.8c-0.1-0.4-0.2-0.7-0.5-0.8c0-0.2,0-0.4,0-0.7
		s0-0.5,0-0.6c-0.3-0.2-0.4-0.3-0.4-0.4c-0.1-0.2-0.1-0.4-0.1-0.7c0-0.2,0.1-0.5,0.1-0.7c-0.1-0.1-0.2-0.1-0.4-0.1
		c0-0.1,0-0.3,0-0.6c0-0.3,0-0.4-0.1-0.4s-0.2,0-0.3,0s-0.1,0-0.1-0.1c0-0.1,0-0.3,0-0.6c0-0.3,0-0.5-0.1-0.6c-0.2,0-0.3,0-0.4,0
		c0.1-0.1,0.1-0.3,0.1-0.5s-0.1-0.5-0.1-0.7c0.2-0.2,0.3-0.3,0.3-0.4c0-0.1-0.1-0.2-0.2-0.3c-0.1-0.1-0.2-0.2-0.2-0.3
		c0-0.3,0-0.5,0-0.6c0-0.1-0.1-0.3-0.2-0.6c-0.1-0.3-0.3-0.5-0.4-0.7c0-0.1,0-0.3,0.1-0.7c0-0.4,0-0.7-0.1-0.9c0-0.1,0-0.2-0.1-0.2
		C58,22.2,58,22.2,58,22.1c0-0.1,0-0.2,0.1-0.2c0,0,0.1-0.1,0.1-0.2c-0.2-0.1-0.3-0.3-0.3-0.6c0-0.3,0.1-0.4,0.4-0.4
		c0-0.1,0.1-0.3,0.3-0.6c0.2-0.3,0.3-0.6,0.3-1l0.3-0.3c0.5-0.3,0.7-0.6,0.6-1c0.2,0,0.4,0.1,0.7,0.3c0.2-0.1,0.3-0.3,0.3-0.7
		c0.2-0.1,0.4,0,0.7,0.1c0.1-0.3,0.2-0.4,0.3-0.4H62c0.1,0,0.2-0.1,0.2-0.2C62.3,16.6,62.3,16.6,62.4,16.6z M63.6,16.6
		C63.7,16.6,63.7,16.6,63.6,16.6c0,0.2,0.1,0.3,0.2,0.4c0.5,0.1,0.7,0.2,0.7,0.3c0.2-0.2,0.4-0.3,0.7-0.3c0.2,0,0.4,0.1,0.5,0.3
		c0,0.1-0.1,0.2-0.1,0.3c0.5,0.8,0.8,1.2,0.9,1.2c-0.1,0.3,0,0.5,0.4,0.6c0.1,0,0.2,0,0.3,0c0.1,0.6,0.3,1,0.6,1.2V21
		c0,0.1,0.1,0.2,0.2,0.2s0.2,0.1,0.2,0.2c0.1,0.1,0.1,0.3,0,0.7c0,0.4,0.1,0.6,0.4,0.7c0.2,0.1,0.2,0.4,0.1,1c-0.1,0.6-0.1,1,0,1.3
		c0.2,0.2,0.3,0.3,0.4,0.4c-0.1,0.2-0.1,0.4,0,0.6l0.4,0.1c0.1,0.3,0.1,0.6,0.1,1c0,0.4-0.1,0.6-0.1,0.7c0,0.1,0.1,0.2,0.2,0.4
		c0.1,0.2,0.2,0.4,0.1,0.6c0.1,0.3,0.3,0.4,0.7,0.3v1.3L70.3,31c0,0.3,0.1,0.6,0.4,0.9c0.2-0.1,0.3-0.1,0.4-0.1c0,0.2,0,0.3-0.1,0.4
		c-0.1,0-0.1,0.1-0.1,0.1c-0.1,0.8,0,1.2,0.4,1.3c0,0.2,0,0.5,0,1s0,0.8,0.1,0.9c0,0.1,0.1,0.1,0.3,0.1c0.2,0.5,0.1,1-0.1,1.5
		c0.1,0.3,0.3,0.5,0.7,0.6c0,0.3,0,0.5,0,0.6c-0.1,0-0.2,0-0.2,0s-0.1,0-0.2,0c0,0.2,0.1,0.3,0.4,0.4c0.1,0.4,0,0.7-0.3,1
		c0,0.2,0.1,0.5,0.2,0.9s0.2,0.7,0.1,0.9c-0.5,0.1-0.7,0.6-0.6,1.5c0.1,0.2,0.1,0.3,0.1,0.4c-0.2,0-0.4,0-0.5,0.1s-0.3,0.1-0.4,0
		c-0.3,0.7-0.4,1.1-0.4,1.2c-0.1,0-0.2,0-0.2-0.1c0,0-0.1-0.1-0.2-0.1C70,44.6,70,44.8,70,45.2c0,0.3,0,0.6-0.1,0.7
		c-0.7,0-1.1-0.1-1.2-0.3c0-0.1,0-0.2,0.1-0.3s0.1-0.2,0.1-0.3c-0.1-0.1-0.2-0.2-0.3-0.3c0,0.1-0.1,0.2-0.1,0.4
		c-0.1,0.2-0.2,0.3-0.3,0.3c-0.1-0.1-0.3-0.1-0.6,0c-0.1,0-0.2,0-0.2,0c-0.1,0-0.1,0-0.3,0c-0.1,0-0.3,0-0.3,0s-0.2,0.1-0.4,0.4
		c-0.2,0.2-0.5,0.3-0.7,0.1c-0.1,0-0.1-0.1-0.1-0.1s0-0.2,0-0.3c-0.1,0-0.3,0-0.4,0.1c-0.2,0.1-0.3,0.1-0.4,0
		c0.1-0.3,0.1-0.5,0.1-0.6c-0.1,0-0.2,0.1-0.2,0.1c-0.1,0.1-0.1,0.1-0.2,0c-0.1,0-0.1-0.1-0.1-0.2c0-0.1,0-0.2,0-0.2
		c-0.1,0-0.1,0-0.3,0c-0.1,0-0.3,0-0.4,0c0.1-0.3,0-0.5-0.3-0.7c0.1-0.7-0.2-1.2-1-1.5c0-0.1,0-0.2,0.1-0.4c0-0.2,0.1-0.3,0.1-0.4
		c0-0.1-0.1-0.2-0.2-0.3c-0.1-0.1-0.2-0.2-0.2-0.3c-0.1-0.3-0.2-0.6-0.3-0.9c0-0.1,0-0.2,0.1-0.4c0.1-0.1,0.1-0.3,0.1-0.4
		c0-0.3-0.1-0.8-0.4-1.5c-0.1,0-0.2,0-0.4,0c-0.1,0-0.3,0-0.4-0.1c0-0.3,0-0.7,0-1.2s0-0.9,0-1.3c0.2-0.1,0.3-0.4,0.2-0.8
		c-0.1-0.4-0.2-0.7-0.5-0.8c0-0.2,0-0.4,0-0.7s0-0.5,0-0.6c-0.3-0.2-0.4-0.3-0.4-0.4c-0.1-0.2-0.1-0.4-0.1-0.7
		c0-0.2,0.1-0.5,0.1-0.7c-0.1-0.1-0.2-0.1-0.4-0.1c0-0.1,0-0.3,0-0.6c0-0.3,0-0.4-0.1-0.4s-0.2,0-0.3,0s-0.1,0-0.1-0.1
		c0-0.1,0-0.3,0-0.6c0-0.3,0-0.5-0.1-0.6c-0.2,0-0.3,0-0.4,0c0.1-0.1,0.1-0.3,0.1-0.5s-0.1-0.5-0.1-0.7c0.2-0.2,0.3-0.3,0.3-0.4
		c0-0.1-0.1-0.2-0.2-0.3c-0.1-0.1-0.2-0.2-0.2-0.3c0-0.3,0-0.5,0-0.6c0-0.1-0.1-0.3-0.2-0.6c-0.1-0.3-0.3-0.5-0.4-0.7
		c0-0.1,0-0.3,0.1-0.7c0-0.4,0-0.7-0.1-0.9c0-0.1,0-0.2-0.1-0.2c-0.1-0.1-0.1-0.1-0.1-0.2c0-0.1,0-0.2,0.1-0.2c0,0,0.1-0.1,0.1-0.2
		c-0.2-0.1-0.3-0.3-0.3-0.6c0-0.3,0.1-0.4,0.4-0.4c0-0.1,0.1-0.3,0.3-0.6c0.2-0.3,0.3-0.6,0.3-1l0.3-0.3c0.5-0.3,0.7-0.6,0.6-1
		c0.2,0,0.4,0.1,0.7,0.3c0.2-0.1,0.3-0.3,0.3-0.7c0.2-0.1,0.4,0,0.7,0.1c0.1-0.3,0.2-0.4,0.3-0.4H62c0.1,0,0.2-0.1,0.2-0.2
		c0-0.1,0.1-0.2,0.2-0.2C62.6,16.5,63,16.5,63.6,16.6z M61.1,36.6c-0.1,0.3,0,0.4,0.2,0.4s0.2-0.1,0.1-0.4H61.1z M61.3,37
		c0.2,0,0.2-0.1,0.1-0.4h-0.3C61,36.9,61.1,37,61.3,37z"/>
	<path fill="#F9B7B5" d="M103.7,21.8l-0.6,0.3c-0.1,0-0.3,0-0.5,0s-0.4,0-0.5,0c-0.1,0.1-0.2,0.2-0.2,0.3s-0.1,0.1-0.2,0.1
		c-0.4,0.1-0.7,0.3-0.9,0.6h-0.6c-0.1,0.2-0.3,0.3-0.7,0.4c-0.4,0.1-0.6,0.1-0.7,0.2c0,0.2,0,0.3,0,0.4c-0.7,0-1.1,0.3-1.3,1
		c-0.6-0.1-1.2,0-1.9,0.4c-0.2,0.2-0.4,0.3-0.6,0.3c0,0.1,0,0.2,0,0.4h-0.6c-0.1,0.2-0.3,0.4-0.5,0.7c-0.2,0.2-0.4,0.4-0.5,0.5
		c-0.2,0.1-0.3,0.1-0.4,0.1c-0.1,0.3-0.4,0.7-0.8,1.1c-0.4,0.4-0.7,0.9-0.8,1.2c-0.1,0.1-0.2,0.2-0.4,0.4c-0.1,0.1-0.3,0.3-0.5,0.4
		c-0.4,0.9-0.8,1.7-1.3,2.3c0,0.1,0,0.3,0.1,0.7c0,0.3,0.1,0.6,0.1,0.7l0.4,0.1c0.1,0.1,0.2,0.3,0.2,0.5s0.1,0.4,0.1,0.4
		c0,0.1,0.1,0.2,0.4,0.4c0.4,0.5,0.6,0.7,0.7,0.7c0.3-0.2,0.5-0.2,0.7-0.1c-0.1,0.4,0,0.6,0.4,0.7c0.4,0.1,0.6,0.2,0.6,0.3
		c0.3-0.1,0.8,0.1,1.5,0.4c0.1,0,0.1,0,0.1-0.1s0-0.1,0.1-0.1c0.4,0.5,1.1,0.6,2.2,0.4c1.1-0.2,2-0.1,2.6,0.1
		c0.9-0.3,1.4-0.3,1.6-0.1c0.1,0,0.2,0,0.2-0.1c0,0,0.1-0.1,0.2-0.1c0.2,0.1,0.9,0,2-0.1c1-0.2,1.5-0.4,1.6-0.6h1.5
		c0.2,0,0.4-0.1,0.5-0.2c0.1-0.1,0.3-0.2,0.4-0.2c0.1-0.1,0.3-0.1,0.7-0.1c0.3,0,0.6,0,0.7,0c0.8-0.2,1.2-0.3,1.3-0.3
		c0,0.1,0,0.2,0,0.4s0,0.3,0.1,0.3c0,0.1,0.2,0.1,0.5,0.1s0.6,0,0.7,0.1c-0.1,0.4-0.1,0.6-0.1,0.7c0,0.1,0.2,0.1,0.6,0.1
		c0,0.2,0,0.4,0,0.7c0.1,0.7,0.1,1.1,0,1.3c0,0.1,0,0.3,0.1,0.4c-0.4,0.2-0.7,0.5-0.9,1c-0.2,0.5,0,0.7,0.6,0.7
		c0,0.2-0.2,0.3-0.6,0.3c-0.1,0-0.2,0-0.3,0c-0.1,0.1-0.3,0.3-0.5,0.5c-0.3,0.2-0.4,0.4-0.5,0.5c-0.3,0.2-0.7,0.4-1.2,0.6
		c-0.2,0.2-0.4,0.5-0.7,0.9c-0.3,0.4-0.5,0.8-0.7,1s-0.3,0.3-0.4,0.3c-0.2,0-0.3,0-0.4,0s-0.2,0.1-0.4,0.4c-0.3,0.1-0.7,0.1-1.2,0.1
		s-1,0-1.2,0.1c-0.1,0-0.1,0.1-0.1,0.4c-0.2,0-0.5,0-1-0.1c-0.4,0-0.7,0-0.8,0.1c0,0.1,0,0.2,0,0.4c-0.9,0.1-1.4,0-1.6-0.1
		c-0.5,0-1.2,0-2.1-0.1c-0.9,0-1.6,0-2,0.1c-0.6,0.1-0.9,0.1-1,0c-0.3,0-0.8-0.1-1.5-0.3s-1.1-0.2-1.3,0c-0.4-0.2-0.6-0.4-0.7-0.6
		c-0.1,0-0.2,0-0.4,0.1C90.8,47,90.6,47,90.5,47c-0.2-0.1-0.5-0.3-0.9-0.6c-0.1,0-0.2,0-0.3,0c-0.1,0-0.2,0-0.2-0.1
		c0,0-0.2-0.1-0.4-0.3c-0.2-0.1-0.4-0.2-0.6-0.1c-0.1-0.2-0.3-0.4-0.7-0.5c-0.3-0.1-0.5-0.3-0.5-0.4c-0.1,0-0.2,0-0.3,0.1
		c-0.1,0.1-0.2,0.1-0.3,0.1c0-0.1,0-0.2-0.1-0.4c0-0.1-0.1-0.2-0.2-0.3c-0.1,0-0.2,0-0.4,0.1c-1.1-1.3-2-2.2-2.8-2.8
		c-0.1-0.2-0.3-0.5-0.4-0.9c-0.1,0-0.2,0-0.3,0.1c-0.1,0.1-0.2,0.1-0.3,0c0-0.4-0.2-0.7-0.6-0.9v-0.4c0-0.1-0.1-0.2-0.4-0.4
		c0-0.3-0.1-0.6-0.4-0.9c-0.3-0.3-0.4-0.6-0.4-0.9c-0.1-0.1-0.2-0.2-0.3-0.4c-0.1-0.1-0.2-0.3-0.3-0.4c0-0.4-0.1-0.7-0.4-1
		c0.1-0.3,0.1-0.7,0-1.2s-0.1-0.8-0.1-0.9c0-0.8,0-1.2-0.1-1.2c0,0-0.1-0.1-0.2-0.1s-0.2,0-0.3,0c0-0.2,0.1-0.3,0.4-0.4
		c0.2-0.3,0.3-0.7,0.3-1.2s0-0.9,0-1.3c0.1,0,0.2-0.1,0.4-0.4c0.1-0.3,0.2-0.5,0.2-0.7c0.3-0.4,0.6-0.9,0.8-1.7
		c0.2-0.7,0.4-1.2,0.5-1.4c0.2-0.1,0.3-0.3,0.4-0.6c0.4-0.3,0.6-0.5,0.7-0.6c0.1-1,0.8-1.9,2-2.8c0-0.1,0-0.2,0-0.2s0-0.1,0-0.2
		c0.3-0.2,0.7-0.6,1.3-1.1c0.6-0.5,1.1-1,1.5-1.2c0-0.2,0-0.3,0.1-0.4c0,0,0.1,0,0.2,0.1c0.1,0.1,0.2,0.1,0.3,0.1
		c0.3,0,0.5-0.2,0.6-0.6c0.1-0.4,0.2-0.6,0.3-0.7c0.3-0.1,0.5-0.1,0.6-0.1c0.1-0.2,0.2-0.3,0.2-0.4c0,0,0.1-0.1,0.3-0.1
		c0.1,0,0.2,0,0.2-0.1c0,0,0-0.1,0.1-0.1s0.1-0.1,0.1-0.1s0.1-0.1,0.3-0.1c0.1-0.1,0.2-0.2,0.4-0.4c0.1-0.1,0.3-0.3,0.4-0.4
		c0-0.1,0-0.2,0-0.4c0.1,0,0.2,0.1,0.3,0.1c0.1,0.1,0.2,0.1,0.3,0.1l1.5-1c0.1,0,0.4,0,0.9,0c0.1,0,0.1-0.1,0.1-0.2s0-0.3,0-0.4
		c0.5,0.1,0.9,0,1.3-0.4c0.4-0.3,0.6-0.5,0.7-0.5s0.2,0,0.2,0.1s0.1,0.1,0.2,0.1c0.2,0.1,0.4,0.1,0.7,0c0.1-0.1,0.2-0.1,0.3-0.1
		s0.2,0,0.4,0c0.1,0,0.2,0,0.4-0.1c0.1-0.1,0.3-0.1,0.4-0.1c0.2-0.1,0.6-0.1,1.3-0.1c0.7,0.1,1.1,0.1,1.2,0.1
		c0.1,0.1,0.2,0.2,0.4,0.4s0.3,0.2,0.5,0.2c0.1,0.2,0.3,0.3,0.6,0.4c0.1,0.5,0.3,0.9,0.7,1.3c0.4,0.4,0.6,0.7,0.7,0.9
		c0,0.3,0.1,0.7,0.3,1.1c0.2,0.4,0.3,0.7,0.3,0.8s-0.1,0.3-0.4,0.7c0,0.6-0.1,1-0.3,1.3c-0.2,0.2-0.3,0.3-0.3,0.4
		c0,0.1,0.1,0.2,0.2,0.4c0.1,0.2,0.2,0.3,0.2,0.4C103.8,21.3,103.6,21.6,103.7,21.8z M104.1,20.9c-0.4,0.4-0.5,0.7-0.4,0.9l-0.6,0.3
		c-0.1,0-0.3,0-0.5,0s-0.4,0-0.5,0c-0.1,0.1-0.2,0.2-0.2,0.3s-0.1,0.1-0.2,0.1c-0.4,0.1-0.7,0.3-0.9,0.6h-0.6
		c-0.1,0.2-0.3,0.3-0.7,0.4c-0.4,0.1-0.6,0.1-0.7,0.2c0,0.2,0,0.3,0,0.4c-0.7,0-1.1,0.3-1.3,1c-0.6-0.1-1.2,0-1.9,0.4
		c-0.2,0.2-0.4,0.3-0.6,0.3c0,0.1,0,0.2,0,0.4h-0.6c-0.1,0.2-0.3,0.4-0.5,0.7c-0.2,0.2-0.4,0.4-0.5,0.5c-0.2,0.1-0.3,0.1-0.4,0.1
		c-0.1,0.3-0.4,0.7-0.8,1.1c-0.4,0.4-0.7,0.9-0.8,1.2c-0.1,0.1-0.2,0.2-0.4,0.4c-0.1,0.1-0.3,0.3-0.5,0.4c-0.4,0.9-0.8,1.7-1.3,2.3
		c0,0.1,0,0.3,0.1,0.7c0,0.3,0.1,0.6,0.1,0.7l0.4,0.1c0.1,0.1,0.2,0.3,0.2,0.5s0.1,0.4,0.1,0.4c0,0.1,0.1,0.2,0.4,0.4
		c0.4,0.5,0.6,0.7,0.7,0.7c0.3-0.2,0.5-0.2,0.7-0.1c-0.1,0.4,0,0.6,0.4,0.7c0.4,0.1,0.6,0.2,0.6,0.3c0.3-0.1,0.8,0.1,1.5,0.4
		c0.1,0,0.1,0,0.1-0.1s0-0.1,0.1-0.1c0.4,0.5,1.1,0.6,2.2,0.4c1.1-0.2,2-0.1,2.6,0.1c0.9-0.3,1.4-0.3,1.6-0.1c0.1,0,0.2,0,0.2-0.1
		c0,0,0.1-0.1,0.2-0.1c0.2,0.1,0.9,0,2-0.1c1-0.2,1.5-0.4,1.6-0.6h1.5c0.2,0,0.4-0.1,0.5-0.2c0.1-0.1,0.3-0.2,0.4-0.2
		c0.1-0.1,0.3-0.1,0.7-0.1c0.3,0,0.6,0,0.7,0c0.8-0.2,1.2-0.3,1.3-0.3c0,0.1,0,0.2,0,0.4s0,0.3,0.1,0.3c0,0.1,0.2,0.1,0.5,0.1
		s0.6,0,0.7,0.1c-0.1,0.4-0.1,0.6-0.1,0.7c0,0.1,0.2,0.1,0.6,0.1c0,0.2,0,0.4,0,0.7c0.1,0.7,0.1,1.1,0,1.3c0,0.1,0,0.3,0.1,0.4
		c-0.4,0.2-0.7,0.5-0.9,1c-0.2,0.5,0,0.7,0.6,0.7c0,0.2-0.2,0.3-0.6,0.3c-0.1,0-0.2,0-0.3,0c-0.1,0.1-0.3,0.3-0.5,0.5
		c-0.3,0.2-0.4,0.4-0.5,0.5c-0.3,0.2-0.7,0.4-1.2,0.6c-0.2,0.2-0.4,0.5-0.7,0.9c-0.3,0.4-0.5,0.8-0.7,1s-0.3,0.3-0.4,0.3
		c-0.2,0-0.3,0-0.4,0s-0.2,0.1-0.4,0.4c-0.3,0.1-0.7,0.1-1.2,0.1s-1,0-1.2,0.1c-0.1,0-0.1,0.1-0.1,0.4c-0.2,0-0.5,0-1-0.1
		c-0.4,0-0.7,0-0.8,0.1c0,0.1,0,0.2,0,0.4c-0.9,0.1-1.4,0-1.6-0.1c-0.5,0-1.2,0-2.1-0.1c-0.9,0-1.6,0-2,0.1c-0.6,0.1-0.9,0.1-1,0
		c-0.3,0-0.8-0.1-1.5-0.3s-1.1-0.2-1.3,0c-0.4-0.2-0.6-0.4-0.7-0.6c-0.1,0-0.2,0-0.4,0.1C90.8,47,90.6,47,90.5,47
		c-0.2-0.1-0.5-0.3-0.9-0.6c-0.1,0-0.2,0-0.3,0c-0.1,0-0.2,0-0.2-0.1c0,0-0.2-0.1-0.4-0.3c-0.2-0.1-0.4-0.2-0.6-0.1
		c-0.1-0.2-0.3-0.4-0.7-0.5c-0.3-0.1-0.5-0.3-0.5-0.4c-0.1,0-0.2,0-0.3,0.1c-0.1,0.1-0.2,0.1-0.3,0.1c0-0.1,0-0.2-0.1-0.4
		c0-0.1-0.1-0.2-0.2-0.3c-0.1,0-0.2,0-0.4,0.1c-1.1-1.3-2-2.2-2.8-2.8c-0.1-0.2-0.3-0.5-0.4-0.9c-0.1,0-0.2,0-0.3,0.1
		c-0.1,0.1-0.2,0.1-0.3,0c0-0.4-0.2-0.7-0.6-0.9v-0.4c0-0.1-0.1-0.2-0.4-0.4c0-0.3-0.1-0.6-0.4-0.9c-0.3-0.3-0.4-0.6-0.4-0.9
		c-0.1-0.1-0.2-0.2-0.3-0.4c-0.1-0.1-0.2-0.3-0.3-0.4c0-0.4-0.1-0.7-0.4-1c0.1-0.3,0.1-0.7,0-1.2s-0.1-0.8-0.1-0.9
		c0-0.8,0-1.2-0.1-1.2c0,0-0.1-0.1-0.2-0.1s-0.2,0-0.3,0c0-0.2,0.1-0.3,0.4-0.4c0.2-0.3,0.3-0.7,0.3-1.2s0-0.9,0-1.3
		c0.1,0,0.2-0.1,0.4-0.4c0.1-0.3,0.2-0.5,0.2-0.7c0.3-0.4,0.6-0.9,0.8-1.7c0.2-0.7,0.4-1.2,0.5-1.4c0.2-0.1,0.3-0.3,0.4-0.6
		c0.4-0.3,0.6-0.5,0.7-0.6c0.1-1,0.8-1.9,2-2.8c0-0.1,0-0.2,0-0.2s0-0.1,0-0.2c0.3-0.2,0.7-0.6,1.3-1.1c0.6-0.5,1.1-1,1.5-1.2
		c0-0.2,0-0.3,0.1-0.4c0,0,0.1,0,0.2,0.1c0.1,0.1,0.2,0.1,0.3,0.1c0.3,0,0.5-0.2,0.6-0.6c0.1-0.4,0.2-0.6,0.3-0.7
		c0.3-0.1,0.5-0.1,0.6-0.1c0.1-0.2,0.2-0.3,0.2-0.4c0,0,0.1-0.1,0.3-0.1c0.1,0,0.2,0,0.2-0.1c0,0,0-0.1,0.1-0.1s0.1-0.1,0.1-0.1
		s0.1-0.1,0.3-0.1c0.1-0.1,0.2-0.2,0.4-0.4c0.1-0.1,0.3-0.3,0.4-0.4c0-0.1,0-0.2,0-0.4c0.1,0,0.2,0.1,0.3,0.1
		c0.1,0.1,0.2,0.1,0.3,0.1l1.5-1c0.1,0,0.4,0,0.9,0c0.1,0,0.1-0.1,0.1-0.2s0-0.3,0-0.4c0.5,0.1,0.9,0,1.3-0.4
		c0.4-0.3,0.6-0.5,0.7-0.5s0.2,0,0.2,0.1s0.1,0.1,0.2,0.1c0.1,0.1,0.4,0.1,1-0.1c0.1,0,0.2,0,0.4,0c0.1,0,0.2,0,0.4-0.1
		c0.1-0.1,0.3-0.1,0.4-0.1c0.2-0.1,0.6-0.1,1.3-0.1c0.7,0.1,1.1,0.1,1.2,0.1c0.1,0.1,0.2,0.2,0.4,0.4s0.3,0.2,0.5,0.2
		c0.1,0.2,0.3,0.3,0.6,0.4c0.1,0.5,0.3,0.9,0.7,1.3c0.4,0.4,0.6,0.7,0.7,0.9c0,0.3,0.1,0.7,0.3,1.1c0.2,0.4,0.3,0.7,0.3,0.8
		s-0.1,0.3-0.4,0.7c0,0.6-0.1,1-0.3,1.3c-0.2,0.2-0.3,0.3-0.3,0.4c0,0.1,0.1,0.2,0.2,0.4C104.1,20.7,104.1,20.8,104.1,20.9z"/>
	<path fill="#F9B7B5" d="M122-5.3c-0.1-0.5,0.3-0.6,1.2-0.4c0.1,0.3,0.4,0.6,0.9,0.9c0.1,0,0.2,0,0.3-0.1c0.1,0,0.2,0.1,0.3,0.1
		c0.1,0,0.4,0,0.8,0s0.7,0,0.7,0.1c0,0,0,0.2,0.1,0.4c0,0.2,0.1,0.4,0.2,0.4s0.1-0.1,0.1-0.2c0-0.1,0-0.3,0.1-0.4
		c0.1,0,0.1,0.1,0.1,0.3c0,0.2,0,0.3,0.1,0.3c-0.1,0.3,0,0.5,0.2,0.7s0.3,0.4,0.2,0.6c0.1,0.1,0.2,0.2,0.3,0.2
		c0.1,0.1,0.2,0.1,0.3,0.2v0.6c0.1,0.1,0.2,0.2,0.3,0.2c0.1,0.1,0.2,0.1,0.3,0.2c0,0.2-0.1,0.5-0.1,1c-0.1,1,0.1,1.5,0.6,1.6
		c0,0.1,0,0.3-0.1,0.6c0.2,0.2,0.2,0.5,0.1,1c-0.1,0.5-0.1,0.8,0.1,0.9l0.4,0.1c0,1.4,0.1,2.1,0.3,2.3c0,0.8,0.1,1.3,0.3,1.5
		c0.3,0,0.4,0,0.4,0.1s-0.1,0.3-0.3,0.7c0.1,1.4,0.3,2.1,0.6,2.3c-0.1,0.4,0,0.7,0.4,0.9c-0.1,0.9-0.1,1.5,0.1,1.9
		c-0.3,0.5-0.2,1,0.3,1.5c-0.1,1,0,1.6,0.4,1.9c-0.1,0.3,0,0.7,0.4,1.2c-0.1,0.5,0,0.8,0.1,0.9c0.9-0.5,1.6-1.2,2-2
		c0.1,0,0.2,0,0.3,0c0.2-0.1,0.4-0.4,0.7-0.9c0.2-0.5,0.5-0.8,0.8-0.9c0.1-0.2,0.3-0.4,0.6-0.7s0.5-0.6,0.6-0.9c0-0.1,0-0.2,0.1-0.3
		s0.2-0.2,0.3-0.3v-0.4c0.1-0.1,0.2-0.3,0.4-0.6c0-0.1,0-0.3,0-0.6s0-0.5,0-0.6c0.2-0.2,0.3-0.5,0.4-0.9c0.2,0,0.3-0.6,0.4-1.9
		c-0.2-0.1-0.3-0.2-0.3-0.3V7.3c0.2-0.2,0.3-0.4,0.2-0.7c-0.1-0.3-0.2-0.5-0.4-0.6c0-0.1,0.1-0.2,0.1-0.3c0.1-0.1,0.1-0.2,0.1-0.3
		c-0.4-0.4-0.5-0.6-0.4-0.7c0-0.1,0.1-0.1,0.3,0c0.3-0.6,0.5-0.9,0.7-0.9c0.1-0.3,0.1-0.6-0.1-0.8c-0.1-0.2-0.2-0.5-0.2-0.7
		c0.2,0,0.4,0,0.5,0.1c0.1,0,0.3,0.1,0.4,0.1c0.1-0.1,0.2-0.2,0.3-0.4s0.2-0.3,0.3-0.4c0.2,0,0.4,0,0.6-0.1c0.1-0.1,0.2-0.1,0.3-0.1
		c0.2,0.3,0.5,0.4,1,0.3c0.4-0.1,0.7-0.3,0.7-0.7c0.1,0,0.2,0,0.4,0l0.1,0.7l0.7-0.3c0.1,0.4,0.2,0.6,0.3,0.6c0.2-0.1,0.5,0,0.9,0.1
		c0.4-0.2,0.7-0.2,0.9-0.1c0.1,0.5,0.5,0.8,1.3,1c0.1,0,0.1,0.1,0.1,0.2s0,0.2,0,0.3s0,0.1,0.1,0.2s0.1,0.3,0.1,0.6
		c0,0.5,0.2,0.7,0.6,0.6c0.1,0.1,0.1,0.2,0.1,0.4c0,0.1,0,0.2,0,0.3c-0.4,0.2-0.5,0.6-0.4,1.3c0.1,0.1,0.2,0.2,0.4,0.4
		c0.1,0.2,0.2,0.4,0.2,0.6c0.1,0,0.2,0,0.3,0.1c0.1,0,0.2,0.1,0.3,0.2c0,0.1-0.1,0.2-0.4,0.4c0,0.1,0,0.2,0.1,0.4
		c-0.3,0.2-0.4,0.4-0.3,0.6c0.1,0.2,0.2,0.3,0.4,0.4c0.1,0.1,0,0.2-0.1,0.4c-0.2,0.1-0.3,0.3-0.3,0.4c-0.1,0.2-0.1,0.5-0.1,0.8
		s0.1,0.6,0.1,0.8c0,0.1,0.1,0.2,0.3,0.3c0,0.6,0,0.9-0.1,1c-0.3-0.1-0.4,0-0.4,0.1s0,0.2,0.1,0.4c0,0.2,0,0.3-0.1,0.4h-0.3
		c-0.3,0-0.4,0.2-0.4,0.6c0,0.4,0,0.7-0.1,1c0,0.1-0.1,0.2-0.2,0.3s0.2,0.4,0.2,0.5v0.4c-0.3,0.2-0.5,0.6-0.7,1.2
		c-0.1,0.6-0.4,1-0.7,1.2c0,0.1,0,0.2,0,0.3c-0.2,0.2-0.3,0.4-0.4,0.6c0,0.1,0,0.3-0.1,0.4c0,0.2-0.1,0.3-0.1,0.4
		c-0.1,0-0.2,0-0.3-0.1c-0.1,0-0.2-0.1-0.3-0.1c-0.1-0.1-0.3,0.1-0.7,0.7c0.1,0.2,0.1,0.4-0.1,0.7c-0.1,0.2-0.2,0.5-0.2,0.7H144
		c0.1,0.2,0.1,0.3,0,0.4c-0.7-0.1-1.1,0.3-1.2,1.2c-0.3,0-0.6,0.2-0.9,0.6c-0.2,0.2-0.3,0.3-0.4,0.3c-0.1,0.1-0.2,0.2-0.3,0.2
		c-0.1,0.1-0.2,0.1-0.2,0.1s-0.1,0.1-0.1,0.2c-0.1,0.1-0.1,0.2-0.1,0.2c0,0.1-0.1,0.1-0.2,0.1c-0.1,0-0.1,0-0.1,0.1
		c0.1,0.2,0.3,0.3,0.5,0.2c0.2,0,0.4-0.1,0.5-0.1c0.3,0.3,0.5,0.4,0.6,0.4c0,0.1,0,0.1,0.1,0c0-0.1,0.1-0.1,0.2-0.1
		c0.1,0,0.2,0,0.3,0c0.3,0,0.5,0,0.7,0c0,0.1,0,0.2-0.1,0.3c0.1,0.3,0.5,0.4,1.2,0.4c0.3-0.3,0.6-0.3,0.9-0.1
		c0.1,0.4,0.2,0.6,0.4,0.6c0.1-0.1,0.7-0.1,1.8-0.1c0,0.1,0,0.2,0,0.3s0.2,0.1,0.6,0.1c0.1,0.1,0.2,0.3,0.3,0.6
		c0.3,0.1,0.5,0,0.6-0.4c0.7,0,1,0.1,1,0.3c0.2,0.1,0.7,0.1,1.6,0.1c0.9,0,1.4,0,1.5,0.1c0.1,0,0.2,0,0.2,0h0.1c0,0,0.2,0.1,0.4,0.3
		c0.4-0.3,0.8-0.4,1.3-0.3c0,0.4,0.1,0.6,0.3,0.7c0.2-0.2,0.3-0.3,0.4-0.3c0.3,0.4,0.7,0.5,1.2,0.4c0.6-0.3,0.9-0.4,1-0.3
		c0.1,0,0.1,0.1,0,0.3c0.3,0.3,0.7,0.2,1.3-0.3h1c0,0.1,0,0.2-0.1,0.3c0.3,0.4,0.6,0.4,1,0.1c0.1,0.1,0.2,0.2,0.2,0.2
		c0,0.1,0.1,0.1,0.2,0.1c0.1,0,0.3-0.1,0.5-0.2c0.2-0.1,0.4-0.1,0.4,0.1c0.1,0,0.1,0,0.1,0.1c-0.1,0.1-0.1,0.1-0.1,0.2
		c0.1,0.1,0.3,0.2,0.7,0.4c0.3,0.1,0.6,0.3,0.7,0.4c0,0.1,0,0.1,0.1,0c0-0.1,0.1-0.1,0.2-0.1c0.1,0.1,0.2,0.3,0.4,0.7
		c0.2,0.3,0.4,0.6,0.6,0.7c0,0.2,0,0.3-0.1,0.4c0.7,0.4,0.9,0.9,0.6,1.5c0,0.1,0.1,0.2,0.3,0.4c0.2,0.1,0.3,0.3,0.3,0.4
		c0,0.1,0,0.3-0.1,0.5s0,0.4,0.1,0.5c-0.5,0-0.9,0.2-1.2,0.6c0.2,0.2,0.2,0.3,0.1,0.4c-0.2,0.1-0.4,0.1-0.6-0.1
		c-0.3,0.4-0.4,0.8-0.3,1.3c-0.1,0.1-0.3,0.1-0.5-0.1c-0.3-0.1-0.5-0.1-0.7,0s-0.5,0.6-0.9,1.2c-0.1,0-0.2,0-0.4-0.1
		c-0.3,0.2-0.9,0.3-1.8,0.2c-0.9,0-1.6,0-2,0.1c-0.1,0.1-0.2,0.2-0.3,0.4c-0.1-0.1-0.2-0.2-0.3-0.4c-0.1-0.1-0.2-0.2-0.3-0.2
		c-0.3,0-0.7,0-1.2-0.1s-0.8-0.1-1,0c-0.2-0.1-0.5-0.2-0.9-0.2s-0.7,0-0.9,0.2c-0.1,0-0.6,0-1.6,0c-0.1,0-0.1-0.1,0-0.3
		c0-0.2-0.1-0.3-0.3-0.3s-0.3,0-0.4,0.1c0,0.1,0,0.2,0.1,0.2c0,0.1,0.1,0.1,0.1,0.2c-0.1,0.1-0.3,0.1-0.7,0c0-0.1,0-0.2,0.1-0.3
		c-0.1-0.1-0.3-0.2-0.7-0.4c-0.4-0.1-0.6-0.3-0.7-0.4c-0.3,0.2-0.7,0.1-1.3-0.1c-0.4,0.4-0.7,0.4-1,0c-0.3,0-0.7,0-1.3,0
		s-0.9,0.1-1,0.1h-0.7l-0.1-0.1c-0.2,0.1-0.3,0.1-0.4,0.1c-0.1-0.4-0.5-0.5-1.2-0.4c-0.6,0-1,0-1.2-0.1l-0.1-0.3H139
		c-0.1-0.1-0.1-0.2-0.1-0.3s-0.1-0.2-0.1-0.3c-0.2-0.1-0.4-0.1-0.6,0.1c-0.2,0.1-0.4,0.2-0.6,0.2c0.1-0.5,0-0.7-0.3-0.7
		c-0.3,0.2-0.5,0.2-0.7,0.1l0.1-0.3c-0.1-0.3-0.3-0.3-0.6,0c0.2,0.1,0.3,0.2,0.3,0.3c-0.1,0.1-0.2,0.1-0.4,0c-0.1,0-0.1-0.1,0-0.3
		c0-0.1-0.1-0.2-0.4-0.3c-0.3,0-0.4,0.3-0.4,0.9s0,1,0,1.3c-0.5,0-0.7,0.5-0.6,1.5c0.1,0.5,0.1,0.8,0,1l-0.3,0.1
		c-0.1,0.2-0.2,0.5-0.2,0.9c-0.1,0.4-0.1,0.8-0.1,1c-0.3,0.1-0.3,0.3-0.1,0.7c0,0.1,0,0.2,0,0.3h-0.1h-0.1c-0.1,0.1-0.2,0.3-0.4,0.5
		c-0.1,0.2-0.3,0.4-0.4,0.5c0,0.3-0.1,0.6-0.4,0.8c-0.2,0.2-0.4,0.4-0.4,0.5c-0.1,0.1-0.2,0.1-0.3,0s-0.2-0.1-0.3-0.1
		c-0.5,0.6-0.9,0.8-1.2,0.6c-0.4,0-0.4,0.2-0.1,0.6c-0.1,0.2-0.5,0.3-1.3,0.3c-0.1,0-0.2,0-0.2,0.1s-0.1,0.1-0.2,0.1
		c-0.2,0-0.4-0.1-0.7-0.3s-0.5-0.3-0.7-0.3c0-0.3-0.1-0.4-0.1-0.4h-0.6c-0.1-0.1-0.1-0.2-0.1-0.2c0.1,0,0.1-0.1,0.1-0.2l-0.3-0.1
		c0-0.3-0.2-0.7-0.7-1.3c0.1-0.2,0.1-0.3,0-0.4c-0.1-0.1-0.2-0.1-0.4-0.1c-0.1-0.4-0.1-0.6,0-0.6c0-0.2-0.1-0.4-0.3-0.6
		c-0.1-0.2-0.1-0.5-0.1-0.9s0.1-0.7,0.1-0.8s-0.1-0.2-0.2-0.4c-0.1-0.1-0.2-0.3-0.1-0.5c0.2,0.1,0.3,0.1,0.4,0
		c0.3-0.2,0.4-0.5,0.3-0.9c0-0.1-0.1-0.2-0.1-0.3c-0.1-0.1-0.1-0.2-0.1-0.3s0.1-0.6,0.1-1.6h0.3c0.5-2,0.5-3.5,0-4.5
		c-0.2,0.1-0.3,0.1-0.3,0s0-0.2-0.1-0.4c0-0.4,0.1-0.6,0.1-0.7c0.2,0.1,0.3,0.1,0.3,0c0-0.2,0-0.2-0.1-0.1h-0.1
		c-0.1-0.4-0.1-0.9-0.1-1.6c0-0.1,0.1-0.2,0.1-0.4c0.1-0.6-0.1-0.9-0.6-0.9v-0.3c0-0.1,0-0.1,0.1-0.1s0.2,0.1,0.3,0.1
		c0.1-0.1,0.1-0.2,0.1-0.4c0-0.1,0-0.2-0.1-0.2s-0.2,0-0.2,0c-0.1,0-0.1,0-0.2,0c-0.1-0.2-0.1-0.4-0.1-0.7c0-0.2,0.2-0.4,0.4-0.5
		c0-1.1-0.1-1.8-0.4-2c-0.1-0.1-0.1-0.3,0-0.7c-0.3-0.1-0.4-0.2-0.4-0.3c0.1-0.1,0.2-0.2,0.3-0.4c0.1-0.1,0.1-0.3,0.1-0.5
		c-0.1-0.1-0.2-0.2-0.4-0.3c-0.1-0.1-0.2-0.2-0.2-0.3c0.2-0.8,0-1.2-0.4-1.2c-0.1-0.2-0.1-0.4-0.1-0.6s0-0.3-0.1-0.4
		c-0.1-0.2-0.1-0.3-0.1-0.4c-0.1-0.1-0.1-0.3-0.1-0.6c0-0.6-0.2-0.9-0.6-1c0-0.1,0-0.2-0.1-0.4c-0.1-0.1,0-0.3,0.1-0.4
		c0.1-0.2,0.1-0.3,0.1-0.4c0.1-0.2,0.1-0.5,0-0.9c0-0.4-0.2-0.6-0.7-0.7c0-0.1,0-0.2,0-0.4c0.3-0.1,0.4-0.3,0.3-0.7
		c0-0.1-0.2-0.2-0.7-0.4c0-0.1,0-0.2,0.1-0.2c0-0.1,0.1-0.1,0.2-0.1c0-1.3-0.2-1.9-0.6-2c-0.1-0.2-0.1-0.4,0-0.7s0.1-0.5,0-0.6
		c0-0.1-0.1-0.2-0.1-0.4c-0.1-0.2-0.2-0.3-0.3-0.4c0-0.1,0-0.3,0-0.5s0-0.4,0-0.5l-0.4-0.3c-0.2-0.1-0.2-0.3-0.1-0.6
		s0.2-0.5,0.3-0.6c0-0.1-0.2-0.4-0.6-1s-0.4-1,0-1.2c0-0.3-0.2-0.5-0.7-0.7v-2c0.3-0.2,0.4-0.5,0.3-0.8s-0.3-0.5-0.7-0.4
		c0-0.1,0-0.2,0.1-0.3c0.1-0.1,0.1-0.2,0.1-0.3v-1c-0.2-0.2-0.3-0.3-0.3-0.4l0.3-1.3c0.3-0.2,0.4-0.3,0.4-0.4c0-0.8,0.2-1.2,0.7-1.2
		c0.3-0.2,0.5-0.5,0.6-1C120.3-5.3,120.9-5.3,122-5.3z M123.2-5.7c0.1,0.3,0.4,0.6,0.9,0.9c0.1,0,0.2,0,0.3-0.1
		c0.1,0,0.2,0.1,0.3,0.1c0.1,0,0.4,0,0.8,0s0.7,0,0.7,0.1c0,0,0,0.2,0.1,0.4c0,0.2,0.1,0.4,0.2,0.4s0.1-0.1,0.1-0.2
		c0-0.1,0-0.3,0.1-0.4c0.1,0,0.1,0.1,0.1,0.3c0,0.2,0,0.3,0.1,0.3c-0.1,0.3,0,0.5,0.2,0.7s0.3,0.4,0.2,0.6c0.1,0.1,0.2,0.2,0.3,0.2
		c0.1,0.1,0.2,0.1,0.3,0.2v0.6c0,0.1,0.1,0.2,0.2,0.2c0.1,0.1,0.3,0.1,0.4,0.2c0,0.2-0.1,0.5-0.1,1c-0.1,1,0.1,1.5,0.6,1.6
		c0,0.1,0,0.3-0.1,0.6c0.2,0.2,0.2,0.5,0.1,1c-0.1,0.5-0.1,0.8,0.1,0.9l0.4,0.1c0,1.4,0.1,2.1,0.3,2.3c0,0.8,0.1,1.3,0.3,1.5
		c0.3,0,0.4,0,0.4,0.1s-0.1,0.3-0.3,0.7c0.1,1.4,0.3,2.1,0.6,2.2c-0.1,0.5,0,0.8,0.4,1c-0.1,0.9-0.1,1.5,0.1,1.8
		c-0.3,0.6-0.2,1.1,0.3,1.6c-0.1,1,0,1.6,0.4,1.9c-0.1,0.3,0,0.7,0.4,1.2c-0.1,0.5,0,0.8,0.1,0.9c0.9-0.5,1.6-1.2,2-2
		c0.1,0,0.2,0,0.3,0c0.2-0.1,0.4-0.4,0.7-0.9c0.2-0.5,0.5-0.8,0.8-0.9c0.1-0.2,0.3-0.4,0.6-0.7s0.5-0.6,0.6-0.9c0-0.1,0-0.2,0.1-0.3
		s0.2-0.2,0.3-0.3v-0.4c0.1-0.1,0.2-0.3,0.4-0.6c0-0.1,0-0.3,0-0.6s0-0.5,0-0.7c0.2-0.1,0.3-0.3,0.4-0.7c0.2,0,0.3-0.6,0.4-1.9
		c-0.2-0.1-0.3-0.2-0.3-0.3V7.4c0.2-0.2,0.3-0.4,0.2-0.7c-0.1-0.3-0.2-0.5-0.4-0.6c0-0.1,0.1-0.2,0.1-0.3c0.1-0.1,0.1-0.2,0.1-0.3
		c-0.4-0.4-0.5-0.6-0.4-0.7c0-0.1,0.1-0.1,0.3,0c0.3-0.6,0.5-0.9,0.7-0.9c0.1-0.3,0.1-0.6-0.1-0.8c-0.1-0.2-0.2-0.5-0.2-0.7
		c0.2,0,0.4,0,0.5,0.1c0.1,0,0.3,0.1,0.4,0.1c0.1-0.1,0.2-0.2,0.3-0.4s0.2-0.3,0.3-0.4c0.2,0,0.4,0,0.6-0.1c0.1-0.1,0.2-0.1,0.3-0.1
		c0.2,0.3,0.5,0.4,1,0.3c0.4-0.1,0.7-0.3,0.7-0.7c0.1,0,0.2,0,0.4,0l0.1,0.7l0.7-0.3c0.1,0.4,0.2,0.6,0.3,0.6c0.2-0.1,0.5,0,0.9,0.1
		c0.4-0.2,0.7-0.2,0.9-0.1c0.1,0.5,0.5,0.8,1.3,1c0.1,0,0.1,0.1,0.1,0.2s0,0.2,0,0.3s0,0.1,0.1,0.2s0.1,0.3,0.1,0.6
		c0,0.5,0.2,0.7,0.6,0.6c0.1,0.1,0.1,0.2,0.1,0.4c0,0.1,0,0.2,0,0.3c-0.4,0.2-0.5,0.6-0.4,1.3c0.1,0.1,0.2,0.2,0.4,0.4
		c0.1,0.2,0.2,0.4,0.2,0.6c0.1,0,0.2,0,0.3,0.1c0.1,0,0.2,0.1,0.3,0.2c0,0.1-0.1,0.2-0.4,0.4c0,0.1,0,0.2,0.1,0.4
		c-0.3,0.2-0.4,0.4-0.3,0.6c0.1,0.2,0.2,0.3,0.4,0.4c0.1,0.1,0,0.2-0.1,0.4c-0.2,0.1-0.3,0.3-0.3,0.4c-0.1,0.2-0.1,0.5-0.1,0.8
		s0.1,0.6,0.1,0.8c0,0.1,0.1,0.2,0.3,0.3c0,0.6,0,0.9-0.1,0.9c-0.3,0-0.4,0.1-0.4,0.3c0,0.1,0,0.2,0.1,0.4c0,0.2,0,0.3-0.1,0.4h-0.3
		c-0.3,0-0.4,0.2-0.4,0.6s0,0.7-0.1,1c0,0.1-0.1,0.2-0.2,0.3s0.2,0.2,0.2,0.3v0.4c-0.3,0.2-0.5,0.6-0.7,1.2c-0.1,0.6-0.4,1-0.7,1.2
		c0,0.1,0,0.2,0,0.3c-0.2,0.2-0.3,0.4-0.4,0.6c0,0.1,0,0.3-0.1,0.4c0,0.2-0.1,0.3-0.1,0.4c-0.1,0-0.2,0-0.3-0.1
		c-0.1,0-0.2-0.1-0.3-0.2c-0.1,0-0.3,0.3-0.7,0.9c0.1,0.2,0.1,0.4-0.1,0.7c-0.1,0.2-0.2,0.5-0.2,0.7H144c0.1,0.2,0.1,0.3,0,0.4
		c-0.7-0.1-1.1,0.3-1.2,1.2c-0.3,0-0.6,0.2-0.9,0.6c-0.2,0.2-0.3,0.3-0.4,0.3c-0.1,0.1-0.2,0.2-0.3,0.2c-0.1,0.1-0.2,0.1-0.2,0.1
		s-0.1,0.1-0.1,0.2c-0.1,0.1-0.1,0.2-0.1,0.2c0,0.1-0.1,0.1-0.2,0.1c-0.1,0-0.1,0-0.1,0.1c0.1,0.2,0.3,0.3,0.5,0.2
		c0.2,0,0.4-0.1,0.5-0.1c0.3,0.3,0.5,0.4,0.6,0.4c0,0.1,0,0.1,0.1,0c0-0.1,0.1-0.1,0.2-0.1h0.3c0.3,0,0.5,0,0.7,0
		c0,0.1,0,0.2-0.1,0.3c0.1,0.3,0.5,0.4,1.2,0.4c0.3-0.3,0.6-0.3,0.9-0.1c0.1,0.4,0.2,0.6,0.4,0.6c0.1-0.1,0.7-0.1,1.8-0.1
		c0,0.1,0,0.2,0,0.3s0.2,0.1,0.6,0.1c0.1,0.1,0.2,0.3,0.3,0.6c0.3,0.1,0.5,0,0.6-0.4c0.7,0,1,0.1,1,0.3c0.2,0.1,0.7,0.1,1.6,0.1
		c0.9,0,1.4,0,1.5,0.1c0.1,0,0.2,0,0.2,0h0.1c0,0,0.2,0.1,0.4,0.3c0.4-0.3,0.8-0.4,1.3-0.3c0,0.4,0.1,0.6,0.3,0.7
		c0.2-0.2,0.3-0.3,0.4-0.3c0.3,0.4,0.7,0.5,1.2,0.4c0.6-0.3,0.9-0.4,1-0.3c0.1,0,0.1,0.1,0,0.3c0.3,0.3,0.7,0.2,1.3-0.3h1
		c0,0.1,0,0.2-0.1,0.3c0.3,0.4,0.6,0.4,1,0.1c0.1,0.1,0.2,0.2,0.2,0.2c0,0.1,0.1,0.1,0.2,0.1c0.1,0,0.3-0.1,0.5-0.2
		c0.2-0.1,0.4-0.1,0.4,0.1c0.1,0,0.1,0,0.1,0.1c-0.1,0.1-0.1,0.1-0.1,0.2c0.1,0.1,0.3,0.2,0.7,0.4c0.3,0.1,0.6,0.3,0.7,0.4
		c0,0.1,0,0.1,0.1,0c0-0.1,0.1-0.1,0.2-0.1c0.1,0.1,0.2,0.3,0.4,0.7c0.2,0.3,0.4,0.6,0.6,0.7c0,0.2,0,0.3-0.1,0.4
		c0.7,0.4,0.9,0.9,0.6,1.5c0,0.1,0.1,0.2,0.3,0.4c0.2,0.1,0.3,0.3,0.3,0.4c0,0.1,0,0.3-0.1,0.5s0,0.4,0.1,0.5
		c-0.5,0-0.9,0.2-1.2,0.6c0.2,0.2,0.2,0.3,0.1,0.4c-0.2,0.1-0.4,0.1-0.6-0.1c-0.3,0.4-0.4,0.8-0.3,1.3c-0.1,0.1-0.3,0.1-0.5-0.1
		c-0.3-0.1-0.5-0.1-0.7,0s-0.5,0.6-0.9,1.2c-0.1,0-0.2,0-0.4-0.1c-0.3,0.2-0.9,0.3-1.8,0.2c-0.9,0-1.6,0-2,0.1
		c-0.1,0.1-0.2,0.2-0.3,0.4c-0.1-0.1-0.2-0.2-0.3-0.4c-0.1-0.1-0.2-0.2-0.3-0.2c-0.3,0-0.7,0-1.2-0.1s-0.8-0.1-1,0
		c-0.2-0.1-0.5-0.2-0.9-0.2s-0.7,0-0.9,0.2c-0.1,0-0.6,0-1.6,0c-0.1,0-0.1-0.1,0-0.3c0-0.2-0.1-0.3-0.3-0.3s-0.3,0-0.4,0.1
		c0,0.1,0,0.2,0.1,0.2c0,0.1,0.1,0.1,0.1,0.2c-0.1,0.1-0.3,0.1-0.7,0c0-0.1,0-0.2,0.1-0.3c-0.1-0.1-0.3-0.2-0.7-0.4
		c-0.4-0.1-0.6-0.3-0.7-0.4c-0.3,0.2-0.7,0.1-1.3-0.1c-0.4,0.4-0.7,0.4-1,0c-0.3,0-0.7,0-1.3,0s-0.9,0.1-1,0.1h-0.7l-0.1-0.1
		c-0.2,0.1-0.3,0.1-0.4,0.1c-0.1-0.4-0.5-0.6-1.2-0.6c-0.6,0.1-1,0.1-1.2,0l-0.1-0.3H139c-0.1-0.1-0.1-0.2-0.1-0.3s-0.1-0.2-0.1-0.3
		c-0.2-0.1-0.4-0.1-0.6,0.1c-0.2,0.1-0.4,0.2-0.6,0.2c0.1-0.5,0-0.7-0.3-0.7c-0.3,0.2-0.5,0.2-0.7,0.1l0.1-0.3
		c-0.1-0.3-0.3-0.3-0.6,0c0.2,0.1,0.3,0.2,0.3,0.3c-0.1,0.1-0.2,0.1-0.4,0c-0.1,0-0.1-0.1,0-0.3c0-0.1-0.1-0.2-0.4-0.3
		c-0.3,0-0.4,0.3-0.4,0.9s0,1,0,1.3c-0.5,0-0.7,0.5-0.6,1.5c0.1,0.5,0.1,0.8,0,1l-0.3,0.1c-0.1,0.2-0.2,0.5-0.2,0.9
		c-0.1,0.4-0.1,0.8-0.1,1c-0.3,0.1-0.3,0.3-0.1,0.7c0,0.1,0,0.2,0,0.3h-0.1h-0.1c-0.1,0.1-0.2,0.3-0.4,0.5c-0.1,0.2-0.3,0.4-0.4,0.5
		c0,0.3-0.1,0.6-0.4,0.8c-0.2,0.2-0.4,0.4-0.4,0.5c-0.1,0.1-0.2,0.1-0.3,0s-0.2-0.1-0.3-0.1c-0.5,0.6-0.9,0.7-1.2,0.4
		c-0.4,0.1-0.4,0.3-0.1,0.7c-0.1,0.2-0.5,0.3-1.3,0.3c-0.1,0-0.2,0-0.2,0.1s-0.1,0.1-0.2,0.1c-0.2,0-0.4-0.1-0.7-0.3
		s-0.5-0.3-0.7-0.3c0-0.3-0.1-0.4-0.1-0.4h-0.6c-0.1-0.1-0.1-0.2-0.1-0.2c0.1,0,0.1-0.1,0.1-0.2l-0.3-0.1c0-0.3-0.2-0.7-0.7-1.3
		c0.1-0.2,0.1-0.3,0-0.4c-0.1-0.1-0.2-0.1-0.4-0.1c-0.1-0.4-0.1-0.6,0-0.6c0-0.2-0.1-0.4-0.3-0.6c-0.1-0.2-0.1-0.5-0.1-0.9
		s0.1-0.7,0.1-0.8s-0.1-0.2-0.2-0.4c-0.1-0.1-0.2-0.3-0.1-0.5c0.2,0.1,0.3,0.1,0.4,0c0.3-0.2,0.4-0.5,0.3-0.9c0-0.1-0.1-0.2-0.1-0.3
		c-0.1-0.1-0.1-0.2-0.1-0.3s0.1-0.6,0.1-1.6h0.3c0.5-2,0.5-3.5,0-4.5c-0.2,0.1-0.3,0.1-0.3,0s0-0.2-0.1-0.4c0-0.4,0.1-0.6,0.1-0.7
		c0.2,0.1,0.3,0.1,0.3,0c0-0.2,0-0.2-0.1-0.1h-0.1c-0.1-0.4-0.1-0.9-0.1-1.6c0-0.1,0.1-0.2,0.1-0.4c0.1-0.6-0.1-0.9-0.6-0.9v-0.3
		c0-0.1,0-0.1,0.1-0.1s0.2,0.1,0.3,0.1c0.1-0.1,0.1-0.2,0.1-0.4c0-0.1,0-0.2-0.1-0.2s-0.2,0-0.2,0c-0.1,0-0.1,0-0.2,0
		c-0.1-0.2-0.1-0.4-0.1-0.7c0-0.2,0.2-0.4,0.4-0.5c0-1.1-0.1-1.8-0.4-2c-0.1-0.1-0.1-0.3,0-0.7c0-0.1-0.1-0.1-0.2-0.1
		s-0.2,0-0.2-0.1c0.1-0.1,0.2-0.2,0.3-0.4c0.1-0.1,0.1-0.3,0.1-0.5c-0.1-0.1-0.2-0.2-0.4-0.3c-0.1-0.1-0.2-0.2-0.2-0.3
		c0.2-0.8,0-1.2-0.4-1.2c-0.1-0.2-0.1-0.4-0.1-0.6s0-0.3-0.1-0.4c-0.1-0.2-0.1-0.3-0.1-0.4c-0.1-0.1-0.1-0.3-0.1-0.6
		c0-0.6-0.2-0.9-0.6-1c0-0.1,0-0.2-0.1-0.4c-0.1-0.1,0-0.3,0.1-0.4c0.1-0.2,0.1-0.3,0.1-0.4c0.1-0.2,0.1-0.5,0-0.9
		c0-0.4-0.2-0.6-0.7-0.7c0-0.1,0-0.2,0-0.4c0.3-0.1,0.4-0.3,0.3-0.7c0-0.1-0.2-0.2-0.7-0.4c0-0.1,0-0.2,0.1-0.2
		c0-0.1,0.1-0.1,0.2-0.1c0-1.3-0.2-1.9-0.6-2c-0.1-0.2-0.1-0.4,0-0.7s0.1-0.5,0-0.6c0-0.1-0.1-0.2-0.1-0.4c-0.1-0.2-0.2-0.3-0.3-0.4
		c0-0.1,0-0.3,0-0.5s0-0.4,0-0.5l-0.4-0.3c-0.2-0.1-0.2-0.3-0.1-0.6s0.1-0.5,0.1-0.6c0.1-0.1,0-0.4-0.4-1s-0.4-1,0-1.2
		c0-0.3-0.2-0.5-0.7-0.7v-2c0.3-0.2,0.4-0.5,0.3-0.8s-0.3-0.5-0.7-0.4c0-0.1,0-0.2,0.1-0.3c0.1-0.1,0.1-0.2,0.1-0.3v-1
		c-0.2-0.2-0.3-0.3-0.3-0.4l0.3-1.3c0.3-0.2,0.4-0.3,0.4-0.4c0-0.8,0.2-1.2,0.7-1.2c0.3-0.2,0.5-0.5,0.6-1c0.2,0,0.8,0,1.9,0
		C121.9-5.7,122.3-5.9,123.2-5.7z M143.7,23.9c0.1,0,0.1-0.1,0.1-0.3h-0.1V23.9z M143.7,23.6v0.3c0.1,0,0.1-0.1,0.1-0.3H143.7z
		 M155.7,30c-0.1,0-0.2,0-0.2-0.1c0,0,0-0.1,0.1-0.2c0.1,0,0.1,0,0.1,0.1c0,0.1,0,0.1,0.1,0.1C155.8,29.9,155.8,29.9,155.7,30z
		 M155.5,29.7c0.1,0,0.1,0,0.1,0.1c0,0.1,0,0.1,0.1,0.1c0,0,0,0.1-0.1,0.1s-0.2,0-0.2-0.1C155.4,29.9,155.4,29.8,155.5,29.7z
		 M161.5,40.4c0-0.1,0.1-0.2,0.3-0.2s0.3,0,0.3,0.2C161.8,40.6,161.6,40.6,161.5,40.4z M162.1,40.4c-0.3,0.2-0.5,0.2-0.6,0
		c0-0.1,0.1-0.2,0.3-0.2S162.1,40.2,162.1,40.4z"/>
	<path fill="#F9B7B5" d="M194.7,16c0.1,0,0.1,0.1,0.1,0.1c0,0.1-0.1,0.2-0.1,0.3c0.8,0.8,1.5,1.1,2,1c0,0.3,0.1,0.6,0.4,0.9
		c0.2,0.2,0.3,0.3,0.4,0.4c0.2-0.1,0.3-0.1,0.4,0c0,0.1,0,0.2,0,0.2c0,0.1,0,0.1,0,0.2c0.3,0.4,0.8,0.9,1.5,1.5
		c0.7,0.6,1.1,1.1,1.3,1.5c0.1,0,0.1,0.1,0.1,0.3l1.8,1.9c0,0.3,0,0.4,0.1,0.4s0.2,0,0.3-0.1c0.1,0,0.2,0,0.3,0.1
		c0,0.3,0.1,0.6,0.4,1c0.2,0.4,0.4,0.7,0.5,0.9l0.6,0.3c0.1,0,0.1,0.1,0.1,0.2c-0.1,0.1-0.1,0.3-0.1,0.4c0.1,0.1,0.3,0.2,0.5,0.4
		c0.2,0.2,0.4,0.3,0.5,0.3c0,0.1,0,0.2,0.1,0.3s0.1,0.2,0.1,0.3c0.1,0.1,0.2,0.2,0.4,0.4c0.1,0.2,0.3,0.3,0.4,0.4
		c0.1,0,0.2,0,0.2,0.1c0,0.1,0.1,0.2,0.1,0.3c0.5,0.6,0.8,1.1,1,1.5c0.1,0.1,0.2,0.2,0.4,0.4s0.3,0.3,0.4,0.4
		c0.2,0.4,0.6,0.8,1.2,1.3c0.6,0.5,1,0.9,1.2,1.2l1.5,0.9h0.6c0.4,0.5,0.9,0.7,1.5,0.6c0.1-0.1,0.2-0.2,0.4-0.3s0.3-0.1,0.4-0.1
		c0.2-0.2,0.4-0.3,0.7-0.3c0.6,0,0.9,0,1,0c0.5,0.4,1,0.3,1.6-0.1c0,0.1-0.1,0.2-0.1,0.3c-0.1,0.1-0.1,0.2-0.1,0.3
		c0.1,0.1,0.2,0.2,0.3,0.3c0.4-0.1,0.7,0.1,1,0.5s0.6,0.6,0.9,0.5c0.1,0,0.1,0.1,0.1,0.3c0.6,0.4,0.8,0.9,0.6,1.6
		c0.1,0.2,0.2,0.3,0.3,0.3c-0.2,0.2-0.3,0.6-0.4,1.3c-0.1,0.7-0.1,1.1-0.1,1.2c-0.3,0.1-0.6,0.3-0.9,0.7c-0.3,0.3-0.5,0.6-0.7,0.7
		c0,0.5,0,0.8,0,0.9c-0.2,0-0.4,0-0.6-0.1c-0.1,0.1-0.3,0.2-0.6,0.3s-0.4,0.2-0.4,0.3c-0.1,0.1-0.1,0.2-0.1,0.4s-0.1,0.3-0.1,0.4
		c-0.2,0-0.4,0-0.5-0.1s-0.3-0.1-0.4-0.1c-0.3,0.1-0.5,0.1-0.5,0.1c-0.1,0-0.1,0-0.2,0c-0.1,0-0.2,0-0.3,0s-0.2,0.1-0.3,0.2
		c-0.1,0.1-0.2,0.2-0.3,0.2c-0.4-0.1-0.9-0.1-1.4,0.1c-0.5,0.1-1,0.2-1.2,0.1c-0.1,0-0.1-0.1-0.1-0.2c0-0.1,0-0.2-0.1-0.2
		s-0.3,0-0.7,0s-0.7,0-0.9,0c0-0.3-0.1-0.5-0.4-0.6c-0.3-0.1-0.5-0.1-0.7,0c-0.1-0.1-0.2-0.1-0.3-0.1c0-0.1-0.1-0.3-0.1-0.6
		c-0.1,0-0.3,0-0.5,0.1s-0.4,0-0.5-0.1c0-0.2-0.2-0.4-0.6-0.6c0-0.1-0.1-0.2-0.1-0.3c-0.1-0.1-0.2-0.1-0.3-0.1
		c-0.3,0.1-0.5,0.1-0.6,0.1c0-0.1,0-0.2,0-0.4l-1.8-1.6H205c-0.2-0.1-0.4-0.3-0.6-0.6c-0.2-0.3-0.3-0.5-0.4-0.6
		c-0.2-0.1-0.3-0.1-0.4-0.1c-0.1-0.1-0.2-0.3-0.4-0.5c-0.1-0.2-0.3-0.4-0.4-0.4c-0.6-0.4-0.9-0.7-0.9-1c-0.3,0-0.6-0.1-0.8-0.4
		c-0.2-0.3-0.4-0.4-0.5-0.4c-0.1-0.7-0.6-1.4-1.5-2.2c-0.1-0.3-0.5-0.9-1.3-1.8c-0.1-0.2-0.4-0.5-0.9-0.9c-0.1-0.4-0.4-0.8-0.9-1.3
		c-0.3-0.3-0.5-0.5-0.6-0.6c0-0.4-0.2-0.8-0.7-1.2s-0.8-0.5-1-0.1c0,0.1,0,0.2-0.1,0.2s-0.1,0.1-0.1,0.1c0,0.1-0.1,0.1-0.1,0.2
		c-0.1,0.1-0.1,0.2-0.1,0.4c0,0.1-0.1,0.3-0.1,0.4l-0.1,0.1c-0.3,0.5-0.5,0.7-0.6,0.7c0,0.1,0,0.2,0.1,0.3s0.1,0.2,0.1,0.3
		c-0.4,0.5-0.6,1-0.6,1.5c-0.2,0.2-0.4,0.6-0.7,1.2c-0.3,0.6-0.5,0.9-0.6,1c0,0.1,0,0.2,0,0.4s0,0.3,0,0.4c0,0.1-0.1,0.2-0.2,0.4
		c-0.1,0.2-0.2,0.3-0.2,0.4c0,0.1,0,0.2-0.1,0.4c0,0.2-0.1,0.3-0.2,0.4c0,0.1,0,0.2-0.1,0.2c-0.1,0.1-0.1,0.1-0.1,0.2
		c0,1.2-0.1,1.8-0.3,1.9c0,0.1,0.1,0.2,0.3,0.4c-0.5,1-0.8,1.8-0.9,2.5c-0.2,0.2-0.5,0.4-0.9,0.7s-0.7,0.5-0.9,0.7
		c-0.7-0.1-1.1,0.2-1.3,0.9c-0.1,0-0.2-0.1-0.2-0.1c-0.1-0.1-0.1-0.1-0.1-0.1l-0.1,0.1c-0.1,0.1-0.1,0.1-0.2,0.1
		c-0.2,0-0.4-0.2-0.7-0.7c-0.3-0.4-0.5-0.7-0.7-0.7c-0.1,0-0.3,0.1-0.6,0.3s-0.5,0.2-0.7,0.1l-0.7-0.7c-0.1-0.4-0.3-0.7-0.7-0.9
		c-0.1,0-0.2,0-0.2,0.1s-0.1,0.1-0.2,0.1c-0.1-0.2-0.3-0.5-0.6-0.8s-0.4-0.7-0.4-1.1c0-0.1-0.2-0.2-0.6-0.4v-0.4
		c0-0.1-0.1-0.2-0.3-0.4l-0.1-0.1c0-0.2-0.1-0.4-0.2-0.7c-0.1-0.2-0.2-0.4-0.2-0.4s0-0.2,0-0.4s0-0.3-0.1-0.4c0-0.1-0.1-0.2-0.2-0.2
		c-0.1,0-0.2-0.1-0.3-0.2c0.2-0.5,0-1-0.4-1.5v-1.2c-0.2-0.2-0.3-0.5-0.3-1c-0.1-0.1-0.1-0.2-0.1-0.3s0-0.2,0-0.4c0-0.1,0-0.3,0-0.4
		c0-0.1-0.1-0.2-0.1-0.3c-0.1-0.1-0.1-0.2-0.1-0.3s0-0.2,0-0.4c0-0.1-0.1-0.2-0.1-0.2c0-0.1,0-0.2-0.1-0.2s-0.1-0.1-0.1-0.2
		c-0.1-0.5-0.2-0.8-0.4-0.9l0.1-0.4c0-0.1-0.1-0.2-0.2-0.4c-0.1-0.1-0.2-0.3-0.2-0.4c0-0.1,0-0.3,0-0.6c0-0.2-0.1-0.4-0.4-0.6v-0.3
		c-0.1-0.1-0.3-0.4-0.6-1c0-0.1-0.1-0.2-0.1-0.3c-0.1-0.1-0.2-0.2-0.2-0.3s0-0.2,0-0.4c0-0.1,0.1-0.3,0.1-0.4
		c-0.1-0.1-0.3-0.3-0.5-0.5s-0.4-0.4-0.5-0.5c0-0.1,0-0.2,0-0.3s-0.1-0.2-0.2-0.3c-0.1-0.1-0.2-0.2-0.2-0.3s0.1-0.3,0.3-0.6
		c0-0.2,0-0.3,0-0.4c0-0.1,0.1-0.3,0.3-0.5s0.3-0.4,0.4-0.4s0.1-0.2,0.1-0.4c0-0.2,0-0.3,0-0.4c0.1-0.2,0.3-0.4,0.7-0.6
		c0.3-0.2,0.6-0.4,0.7-0.6c0.9-0.1,1.4-0.2,1.5-0.3c0-0.2,0-0.3,0-0.4c0.1-0.1,0.3-0.2,0.7-0.2s0.6-0.1,0.7-0.2
		c0.1,0,0.2,0.1,0.2,0.1c0,0.1,0.1,0.1,0.1,0.1s0.2,0,0.4-0.1c0.2,0,0.3,0,0.3,0.1c0.1,0,0.1,0,0.1,0.1c0,0.1,0,0.2,0.1,0.3
		c0.3-0.1,0.5-0.1,0.6,0c0.7,0.1,1.1,0.4,1.3,1c0.3,0.2,0.6,0.5,1,1c0.3-0.1,0.4-0.1,0.4,0c0,0.3,0.2,0.6,0.7,1
		c0.2,0.1,0.3,0.2,0.4,0.4l0.3,0.7c0,0.4,0.1,0.6,0.3,0.7c0.2,0,0.3-0.1,0.4-0.4c0.1,0,0.1-0.1,0.1-0.3c0.3-0.4,0.4-0.6,0.4-0.7
		c0.4-0.5,0.6-0.8,0.6-1c0.8-0.9,1.2-1.6,1.3-2.2l0.3-0.1c0-0.2,0.2-0.5,0.6-0.9c0.1-0.4,0.4-0.8,1-1.3c0-0.1,0-0.2,0-0.4
		c0.1,0,0.2,0,0.3,0.1c0.1,0,0.2,0.1,0.3,0.1s0.2-0.1,0.4-0.3c0.1,0,0.1,0,0.1-0.1c0.6,0,1-0.4,1.3-1.3c0.1,0,0.2,0,0.2,0.1
		s0.1,0.1,0.2,0.1c0.1-0.2,0.4-0.2,0.8-0.1c0.4,0.1,0.8,0.2,1,0.2c0.1,0,0.3,0.1,0.7,0.1C194.3,15.9,194.5,16,194.7,16z M193.3,15.7
		c0.1,0,0.3,0.1,0.7,0.1c0.3,0.1,0.6,0.1,0.8,0.1c0.1,0,0.1,0.1,0.1,0.1c0,0.1-0.1,0.2-0.1,0.3c0.8,0.8,1.5,1.1,2,1
		c0,0.3,0.1,0.6,0.4,0.9c0.2,0.2,0.3,0.3,0.4,0.4c0.2-0.1,0.3-0.1,0.4,0c0,0.1,0,0.2,0,0.2c0,0.1,0,0.1,0,0.2
		c0.3,0.4,0.8,0.9,1.5,1.5c0.7,0.6,1.1,1.1,1.3,1.5c0.1,0,0.1,0.1,0.1,0.3l1.8,1.9c0,0.3,0,0.4,0.1,0.4s0.2,0,0.3-0.1
		c0.1,0,0.2,0,0.3,0.1c0,0.3,0.1,0.6,0.4,1c0.2,0.4,0.4,0.7,0.5,0.9l0.6,0.3c0.1,0,0.1,0.1,0.1,0.2c-0.1,0.1-0.1,0.3-0.1,0.4
		c0.1,0.1,0.3,0.2,0.5,0.4c0.2,0.2,0.4,0.3,0.5,0.3c0,0.1,0,0.2,0.1,0.3s0.1,0.2,0.1,0.3c0.1,0.1,0.2,0.2,0.4,0.4
		c0.1,0.2,0.3,0.3,0.4,0.4c0.1,0,0.2,0,0.2,0.1c0,0.1,0.1,0.2,0.1,0.3c0.5,0.6,0.8,1.1,1,1.5c0.1,0.1,0.2,0.2,0.4,0.4
		s0.3,0.3,0.4,0.4c0.2,0.4,0.6,0.8,1.2,1.3c0.6,0.5,1,0.9,1.2,1.2l1.5,0.9h0.6c0.4,0.5,0.9,0.7,1.5,0.6c0.1-0.1,0.2-0.2,0.4-0.3
		s0.3-0.1,0.4-0.1c0.2-0.2,0.4-0.3,0.7-0.3c0.6,0,0.9,0,1,0c0.5,0.4,1,0.3,1.6-0.1c0,0.1-0.1,0.2-0.1,0.3c-0.1,0.1-0.1,0.2-0.1,0.3
		c0.1,0.1,0.2,0.2,0.3,0.3c0.4-0.1,0.7,0.1,1,0.5s0.6,0.6,0.9,0.5c0.1,0,0.1,0.1,0.1,0.3c0.6,0.5,0.8,1,0.6,1.6
		c0.1,0.2,0.2,0.3,0.3,0.3c-0.2,0.2-0.3,0.6-0.4,1.3c-0.1,0.7-0.1,1.1-0.1,1.2c-0.3,0.1-0.6,0.3-0.9,0.7c-0.3,0.3-0.5,0.6-0.7,0.7
		c0,0.5,0,0.8,0,0.9c-0.2,0-0.4,0-0.6-0.1c-0.1,0.1-0.3,0.2-0.6,0.3s-0.4,0.2-0.4,0.3c-0.1,0.1-0.1,0.2-0.1,0.4s-0.1,0.3-0.1,0.4
		c-0.2,0-0.4,0-0.5-0.1s-0.3-0.1-0.4-0.1c-0.3,0.1-0.5,0.1-0.5,0.1c-0.1,0-0.1,0-0.2,0c-0.1,0-0.2,0-0.3,0s-0.2,0.1-0.3,0.2
		c-0.1,0.1-0.2,0.2-0.3,0.2c-0.4-0.1-0.9-0.1-1.4,0.1c-0.5,0.1-1,0.2-1.2,0.1c-0.1,0-0.1-0.1-0.1-0.2c0-0.1,0-0.2-0.1-0.2
		s-0.3,0-0.7,0s-0.7,0-0.9,0c0-0.3-0.1-0.5-0.4-0.6c-0.3-0.1-0.5-0.1-0.7,0c-0.1-0.1-0.2-0.1-0.3-0.1c0-0.1-0.1-0.3-0.1-0.6
		c-0.1,0-0.3,0-0.5,0.1s-0.4,0-0.5-0.1c0-0.2-0.2-0.4-0.6-0.6c0-0.1-0.1-0.2-0.1-0.3c-0.1-0.1-0.2-0.1-0.3-0.1
		c-0.3,0.1-0.5,0.1-0.6,0.1c0-0.1,0-0.2,0-0.4l-1.8-1.6h-0.3c-0.2-0.1-0.4-0.3-0.6-0.6c-0.2-0.3-0.3-0.5-0.4-0.6
		c-0.2-0.1-0.3-0.1-0.4-0.1c-0.1-0.1-0.2-0.3-0.4-0.5c-0.1-0.2-0.3-0.4-0.4-0.4c-0.6-0.4-0.9-0.7-0.9-1c-0.3,0-0.6-0.1-0.8-0.4
		c-0.2-0.3-0.4-0.4-0.5-0.4c-0.1-0.7-0.6-1.4-1.5-2.2c-0.1-0.3-0.5-0.9-1.3-1.8c-0.1-0.2-0.4-0.5-0.9-0.9c-0.1-0.4-0.4-0.8-0.9-1.3
		c-0.3-0.3-0.5-0.5-0.6-0.6c0-0.4-0.2-0.8-0.7-1.2s-0.8-0.5-1-0.1c0,0.1,0,0.2-0.1,0.2s-0.1,0.1-0.1,0.1c0,0.1-0.1,0.1-0.1,0.2
		c-0.1,0.1-0.1,0.2-0.1,0.4c0,0.1-0.1,0.3-0.1,0.4l-0.1,0.1c-0.3,0.5-0.5,0.7-0.6,0.7c0,0.1,0,0.2,0.1,0.3s0.1,0.2,0.1,0.3
		c-0.4,0.5-0.6,1-0.6,1.5c-0.2,0.2-0.4,0.6-0.7,1.2c-0.3,0.6-0.5,0.9-0.6,1c0,0.1,0,0.2,0,0.4s0,0.3,0,0.4c0,0.1-0.1,0.2-0.2,0.4
		c-0.1,0.2-0.2,0.3-0.2,0.4c0,0.1,0,0.2-0.1,0.4c0,0.2-0.1,0.3-0.2,0.4c0,0.1,0,0.2-0.1,0.2c-0.1,0.1-0.1,0.1-0.1,0.2
		c0,1.2-0.1,1.8-0.3,1.9c0,0.1,0.1,0.2,0.3,0.4c-0.5,1-0.8,1.8-0.9,2.5c-0.2,0.2-0.5,0.4-0.9,0.7s-0.7,0.5-0.9,0.7
		c-0.7-0.1-1.1,0.2-1.3,0.9c-0.1,0-0.2-0.1-0.2-0.1c-0.1-0.1-0.1-0.1-0.1-0.1l-0.1,0.1c-0.1,0.1-0.1,0.1-0.2,0.1
		c-0.2,0-0.4-0.2-0.7-0.7c-0.3-0.4-0.5-0.7-0.7-0.7s-0.4,0.1-0.7,0.3c-0.2,0.2-0.5,0.3-0.7,0.3l-0.7-0.9c-0.1-0.4-0.3-0.7-0.7-0.9
		c-0.1,0-0.2,0-0.2,0.1s-0.1,0.1-0.2,0.1c-0.1-0.2-0.3-0.5-0.6-0.8s-0.4-0.7-0.4-1.1c0-0.1-0.2-0.2-0.6-0.4v-0.4
		c0-0.1-0.1-0.2-0.3-0.4l-0.1-0.1c0-0.2-0.1-0.4-0.2-0.7c-0.1-0.2-0.2-0.4-0.2-0.4s0-0.2,0-0.4s0-0.3-0.1-0.4c0-0.1-0.1-0.2-0.2-0.2
		c-0.1,0-0.2-0.1-0.3-0.2c0.2-0.5,0-1-0.4-1.5v-1.2c-0.2-0.2-0.3-0.5-0.3-1c-0.1,0-0.1,0-0.1-0.1c0,0,0-0.1,0-0.2c0-0.1,0-0.2,0-0.4
		c0-0.1,0-0.3,0-0.4c0-0.1-0.1-0.2-0.1-0.3c-0.1-0.1-0.1-0.2-0.1-0.3s0-0.2,0-0.4c0-0.1-0.1-0.2-0.1-0.2c0-0.1,0-0.2-0.1-0.2
		s-0.1-0.1-0.1-0.2c-0.1-0.5-0.2-0.8-0.4-0.9l0.1-0.4c0-0.1-0.1-0.2-0.2-0.4c-0.1-0.1-0.2-0.3-0.2-0.4c0-0.1,0-0.3,0-0.6
		c0-0.2-0.1-0.4-0.4-0.6v-0.3c-0.1-0.1-0.3-0.4-0.6-1c0-0.1-0.1-0.2-0.1-0.3c-0.1-0.1-0.2-0.2-0.2-0.3s0-0.2,0-0.4
		c0-0.1,0.1-0.3,0.1-0.4c-0.1-0.1-0.3-0.3-0.5-0.5s-0.4-0.4-0.5-0.5c0-0.1,0-0.2,0-0.3s-0.1-0.2-0.2-0.3c-0.1-0.1-0.2-0.2-0.2-0.3
		s0.1-0.3,0.3-0.6c0-0.2,0-0.3,0-0.4c0-0.1,0.1-0.3,0.3-0.5s0.3-0.4,0.4-0.4s0.1-0.2,0.1-0.4c0-0.2,0-0.3,0-0.4
		c0.1-0.2,0.3-0.4,0.7-0.6c0.3-0.2,0.6-0.4,0.7-0.6c0.9-0.1,1.4-0.2,1.5-0.3c0-0.2,0-0.3,0-0.4c0.1-0.1,0.3-0.2,0.7-0.2
		s0.6-0.1,0.7-0.2c0.1,0,0.2,0.1,0.2,0.1c0,0.1,0.1,0.1,0.1,0.1s0.2,0,0.4-0.1c0.2,0,0.3,0,0.3,0.1c0.1,0,0.1,0,0.1,0.1
		c0,0.1,0,0.2,0.1,0.3c0.3-0.1,0.5-0.1,0.6,0c0.7,0.1,1.1,0.4,1.3,1c0.3,0.2,0.6,0.5,1,1c0.3-0.1,0.4-0.1,0.4,0c0,0.3,0.2,0.6,0.7,1
		c0.2,0.1,0.3,0.2,0.4,0.4c0,0.1,0.1,0.3,0.3,0.7c0,0.4,0.1,0.6,0.3,0.7c0.2,0,0.3-0.1,0.4-0.4c0.1,0,0.1-0.1,0.1-0.3
		c0.3-0.4,0.4-0.6,0.4-0.7c0.4-0.5,0.6-0.8,0.6-1c0.8-0.9,1.2-1.6,1.3-2.2l0.3-0.1c0-0.2,0.2-0.5,0.6-0.9c0.1-0.4,0.4-0.8,1-1.3
		c0-0.1,0-0.2,0-0.4c0.1,0,0.2,0,0.3,0.1c0.1,0,0.2,0.1,0.3,0.1s0.2-0.1,0.4-0.3c0.1,0,0.1,0,0.1-0.1c0.6,0,1-0.4,1.3-1.3
		c0.1,0,0.2,0,0.2,0.1s0.1,0.1,0.2,0.1c0.1-0.2,0.4-0.2,0.8-0.1C192.8,15.6,193.1,15.7,193.3,15.7z"/>
	<path fill="#F9B7B5" d="M253.9,14.8c0.1,0,0.2,0,0.4,0c0.1,0,0.3,0,0.4,0c0.1,0.3,0.3,0.6,0.7,0.9c0.3,0.3,0.5,0.5,0.5,0.7
		c0,0.1,0,0.3,0,0.6c0,0.3,0,0.5,0,0.6c0,0.1,0.1,0.1,0.3,0.1c0.2,0,0.2,0.1,0.1,0.3H256c-0.1,0.2,0,0.5,0.1,0.9
		c-0.1,0.2-0.2,0.4-0.4,0.7l-0.3,0.6c-0.1,0.2-0.1,0.4,0.1,0.5c0.1,0.1,0.2,0.3,0.2,0.4c-0.3,0.3-0.4,0.5-0.4,0.6
		c0,0.1,0,0.2,0.1,0.4c0.1,0.1,0.1,0.3,0.1,0.4c-0.7,0.8-1.4,1.2-2,1.2c-0.1,0-0.2,0-0.4,0c-0.1,0-0.3,0-0.5,0l-0.3,0.1
		c-0.2,0-0.5-0.1-0.8-0.4c-0.3-0.2-0.7-0.3-1-0.2c-0.4-0.3-0.7-0.4-1-0.4c-0.2,0.2-0.3,0.3-0.4,0.4c-0.1,0.1-0.2,0.1-0.3,0.1
		s-0.2,0-0.2,0.1c0,0.1-0.1,0.1-0.2,0.1c-0.1,0-0.1,0.1-0.1,0.2c-0.1,0-0.3,0.1-0.7,0.4c-0.4,0.2-0.7,0.5-0.9,0.7s-0.3,0.3-0.4,0.4
		c-0.3,0.2-0.9,0.9-1.9,2c-0.1,0.2-0.3,0.4-0.5,0.7c-0.2,0.3-0.4,0.5-0.5,0.6c0,0.1,0,0.2-0.1,0.3s-0.2,0.1-0.3,0.1
		c0,0.3-0.1,0.6-0.4,0.8c-0.2,0.2-0.4,0.4-0.5,0.5v0.4c-0.3,0.2-0.6,0.6-1,1.2c-0.3,0.6-0.6,1-0.8,1.2c0,0.3-0.1,0.6-0.2,1
		c-0.1,0.3-0.3,0.6-0.4,0.8c-0.2,0.1-0.3,0.2-0.3,0.3s0,0.2,0.1,0.3s0.1,0.2,0.1,0.3s-0.1,0.2-0.3,0.2c-0.2,0.1-0.3,0.1-0.4,0.1
		c0.1,0.4,0.3,0.5,0.7,0.3c0.1,0,0.2-0.1,0.4-0.4c0.2-0.2,0.4-0.4,0.7-0.4c0.1-0.1,0.2-0.2,0.3-0.3s0.2-0.2,0.3-0.3h0.3
		c0.2-0.1,0.4-0.3,0.7-0.6s0.5-0.5,0.6-0.6s0.2-0.2,0.4-0.2s0.3-0.1,0.4-0.2c0.2-0.1,0.4-0.3,0.6-0.7c0.2-0.2,0.3-0.3,0.4-0.3
		c0.2-0.2,0.5-0.5,1-1c0.2-0.2,0.5-0.5,0.8-0.9c0.3-0.4,0.6-0.6,0.8-0.7c0.8-0.8,1.3-1.3,1.5-1.6c0.2-0.1,0.6-0.4,1.2-1
		c0.1-0.5,0.1-0.8,0.1-0.8s0.1,0,0.2,0c0.1,0.1,0.3,0.1,0.4,0.1s0.2-0.1,0.2-0.3c0-0.2,0.1-0.3,0.2-0.3c0-0.1,0.1-0.2,0.3-0.3
		s0.3-0.2,0.4-0.2c0.1,0,0.2-0.2,0.3-0.4c0.1-0.2,0.2-0.3,0.3-0.4c0.3,0.1,0.6,0,1-0.4c0.2,0.1,0.5,0.1,0.9,0h0.3c0.1,0,0.2,0,0.3,0
		s0.2,0,0.3,0s0.2,0,0.3-0.1c0.1-0.1,0.2-0.1,0.2-0.1s0.1,0,0.1,0.1c0,0.1,0.1,0.1,0.2,0.1h0.1c0.1,0.1,0.3,0.2,0.6,0.4
		c0.1,0.1,0.2,0.1,0.4,0.1c0.1,0,0.3,0,0.4,0.1l0.4,0.7c0.4,0,0.9,0.4,1.6,1.3c-0.1,0.3,0,0.6,0.4,0.9c0.2,0.1,0.3,0.2,0.3,0.3
		c0.1,0,0.2,0.2,0.3,0.6c0.1,0.1,0.2,0.2,0.2,0.2c0,0.1,0.1,0.1,0.1,0.2c0.1,0.1,0.2,0.2,0.2,0.4c0,0.2,0.1,0.3,0.1,0.4
		c0.1,0.1,0.2,0.3,0.4,0.5c0.1,0.2,0.3,0.4,0.4,0.5c0.1,0.4,0.2,0.7,0.4,0.9c0,0.1,0,0.2,0.1,0.4c0,0.2,0.1,0.3,0.1,0.4l0.4,0.1
		c-0.2,0.4-0.1,0.8,0.2,1.1c0.3,0.3,0.5,0.7,0.5,1l0.7,1c0.3,0.2,0.7,0.5,1.1,1c0.4,0.4,0.7,0.7,0.8,0.8c0,0.1,0,0.2,0.1,0.2
		c0,0,0.1,0.1,0.1,0.2c0.2,0.2,0.6,0.6,1.2,1.2c0.6,0.6,1.1,1.1,1.5,1.4h0.3c0.5,0.3,0.9,0.4,1.2,0.4c0.2,0.2,0.4,0.5,0.7,0.9
		c0.4,0,1-0.2,1.8-0.6c0.1,0.1,0.4,0.1,0.9,0c0.8,0,1.3,0.1,1.5,0.3c0.1,0.1,0.2,0.1,0.2,0.1c0-0.1,0.1-0.1,0.2-0.1
		c0.3,0.4,0.9,0.4,1.8,0.1c0.1,0.2,0.1,0.4,0,0.7c-0.1,0.1-0.1,0.2-0.1,0.3c-0.1,0.5,0.2,0.8,0.9,0.9c0.3,0,0.5,0.1,0.6,0.1
		c0.1,0.1,0.1,0.3-0.1,0.5c-0.1,0.2-0.2,0.4-0.1,0.5c0,0.2,0,0.3,0.1,0.4c0.1,0.1,0.2,0.2,0.3,0.3c0,0.4-0.2,0.7-0.6,1
		s-0.6,0.5-0.7,0.6c0,0.2,0,0.4,0.1,0.7c0,0.2,0.1,0.4,0.1,0.5c-0.1,0.2-0.2,0.5-0.4,0.8c-0.2,0.3-0.3,0.6-0.3,0.8
		c-1.5,0-2.3,0.6-2.6,1.9c-0.2,0-0.3-0.1-0.4-0.1c-0.1-0.1-0.2-0.1-0.3-0.1c-0.1,0-0.2,0.1-0.3,0.3c0,0.1-0.1,0.1-0.1,0.1
		c-0.4-0.1-0.7-0.1-0.9,0c-0.3-0.6-0.6-0.6-0.9,0c-0.1,0-0.2,0-0.4-0.1c-0.1-0.1-0.3-0.1-0.5-0.1c-0.1,0-0.1,0-0.1,0.1
		s0,0.1-0.1,0.1c-0.1-0.1-0.4-0.1-1-0.1c-0.1-0.1-0.1-0.2-0.1-0.4c-0.1,0-0.2,0-0.4-0.1c-0.2-0.1-0.3-0.1-0.4-0.1s-0.2,0-0.3,0.1
		c-0.1,0.1-0.2,0.1-0.4,0c0-0.4-0.1-0.6-0.1-0.6c-0.4,0.1-0.6,0.1-0.7,0.1c0-0.4-0.1-0.6-0.3-0.7c-0.1,0-0.2,0-0.3,0.1
		c-0.1,0.1-0.2,0.1-0.3,0c0-0.2-0.1-0.3-0.1-0.3c0-0.1-0.1-0.1-0.3,0l-0.6-0.7c-0.2,0-0.3,0.1-0.4,0.1c-0.1,0.1-0.2,0.1-0.3,0.1V49
		l-0.1-0.1c-0.2-0.1-0.5-0.4-1-0.8s-0.9-0.7-1.2-0.8c-0.2-0.3-0.5-0.6-1-1c-0.4-0.4-0.7-0.6-0.8-0.7c-0.1,0-0.2,0-0.4-0.1
		c-0.2-0.1-0.3-0.2-0.4-0.3c0-0.1-0.1-0.3-0.3-0.7c-0.4-0.1-0.7-0.4-1-0.9c0.1-0.2,0.1-0.3,0.1-0.4c0,0-0.1-0.1-0.1-0.2
		c-0.7-0.1-1-0.3-1-0.7c0-0.1-0.3-0.4-1-1l-0.4-0.9c0-0.1,0-0.2,0-0.3s0-0.2-0.1-0.2s-0.3-0.2-0.8-0.5c-0.3-1-0.6-1.5-0.9-1.5
		c-0.3-0.1-0.6,0.1-1,0.7c-0.4,0.5-0.6,0.8-0.7,0.8c-0.3,0.2-0.6,0.4-0.9,0.7c-0.1,0.1-0.2,0.1-0.3,0.1c-0.1,0.1-0.3,0.3-0.6,0.4
		c-0.3,0.2-0.4,0.3-0.4,0.4c-0.1,0.1-0.2,0.2-0.4,0.4c-0.1,0.1-0.3,0.3-0.4,0.4c-0.1,0.1-0.2,0.2-0.4,0.3c-0.5,0.2-0.7,0.5-0.7,0.9
		c-0.4-0.1-0.8,0-1.2,0.4c-0.4,0.3-0.6,0.5-0.7,0.5c0,0.1-0.1,0.2-0.1,0.4c-0.8,0-1.3,0.3-1.6,1l-0.3-0.1c-0.1,0.2-0.4,0.3-0.8,0.4
		c-0.4,0.1-0.7,0.2-0.8,0.4c-0.4,0-0.7,0-0.9,0.1s-0.3,0.3-0.3,0.6c0,0.1-0.2,0.1-0.6,0.1c-0.1-0.3-0.2-0.4-0.3-0.4
		s-0.2,0.1-0.3,0.2c-0.1,0.1-0.2,0.2-0.3,0.2s-0.2,0-0.2-0.1s-0.1-0.1-0.2-0.1c-0.2,0-0.3,0.1-0.4,0.4c-0.6,0.1-1.1,0-1.5-0.1
		c-0.5,0.4-0.9,0.2-1.2-0.4h-0.6c-0.1,0-0.3-0.2-0.7-0.7c-0.4-0.4-0.8-0.7-1.2-0.7c-0.3-0.5-0.8-1-1.5-1.5s-1.2-1-1.4-1.5
		c-0.3-0.1-0.5-0.1-0.7-0.1c-0.1-0.1-0.1-0.3-0.1-0.5s0-0.4,0-0.5s-0.1-0.2-0.2-0.4c-0.1-0.1-0.2-0.3-0.2-0.4c0-0.1,0-0.2,0.1-0.4
		s0.1-0.3,0.1-0.4c-0.1-0.1-0.1-0.2-0.2-0.4c-0.1-0.1-0.2-0.3-0.3-0.4c0.1-0.1,0.2-0.2,0.2-0.2s0.1-0.1,0.1-0.2
		c0-0.1-0.1-0.3-0.4-0.6c-0.2-0.3-0.3-0.5-0.1-0.7c0-0.1-0.1-0.2-0.2-0.3c-0.1-0.1-0.3-0.2-0.4-0.3c0.1-0.2,0.2-0.4,0.3-0.6
		c0.1-0.7,0-1.2-0.1-1.5c-0.3-0.2-0.4-0.3-0.3-0.4h0.3c0.1-0.1,0.2-0.2,0.4-0.4c0.1-0.1,0.3-0.3,0.4-0.4c0.1-0.2,0.1-0.7,0.1-1.5
		s0.1-1.2,0.4-1.3c0-0.1,0-0.2,0-0.2s0-0.1,0-0.2c0.1-0.1,0.3-0.5,0.7-1.2s0.7-1.2,1-1.4c0-0.4,0.1-0.8,0.4-1.2v-0.3
		c0-0.1,0.2-0.4,0.5-0.9s0.6-0.8,0.8-1c0-0.2,0.1-0.5,0.4-0.9c0-0.4,0.1-0.7,0.4-1c0.1,0,0.2,0,0.3,0c0.3-0.2,0.6-0.6,1-1.3
		c0.4-0.7,0.7-1.1,1-1.3v-0.4c0.2-0.1,0.7-0.7,1.6-1.9c0.6-0.2,1-0.5,1.2-0.9c0.1-0.3,0.2-0.4,0.2-0.4s0.2-0.1,0.5-0.2
		s0.4-0.3,0.4-0.5c0.2,0,0.4-0.1,0.7-0.3s0.5-0.3,0.7-0.3c0-0.1,0.2-0.3,0.5-0.5s0.5-0.5,0.5-0.8c0.1,0,0.2,0,0.2,0.1
		c0,0,0.1,0.1,0.2,0.1l0.4-0.4c0.1,0,0.3,0,0.5,0s0.4,0,0.5-0.1c0.3,0,0.6-0.1,0.8-0.3s0.4-0.3,0.5-0.3s0.2,0,0.3,0
		c0.4,0.2,0.7,0.2,0.9,0.1c0.1,0,0.2-0.1,0.2-0.3s0.2-0.2,0.5-0.1c0.4,0.2,0.7,0.3,0.8,0.4c0.1,0,0.3,0,0.6,0c0.2,0,0.5-0.1,0.7-0.1
		c0,0.1,0,0.1,0.1,0.1s0.2,0,0.3,0c0.1,0.1,0.3,0.1,0.7,0.1c0.3,0,0.6-0.1,0.7-0.1c0.8,0.1,1.2,0.4,1.3,0.9c0,0.1,0,0.2,0,0.4
		s0,0.3,0,0.4c0,0,0.1,0.2,0.3,0.4S253.9,14.5,253.9,14.8z M253.3,13.3c0,0.2,0,0.3,0,0.3s0,0,0,0.1c0,0,0.1,0.2,0.3,0.4
		s0.3,0.4,0.3,0.7c0.1,0,0.2,0,0.4,0c0.1,0,0.3,0,0.4,0c0.1,0.3,0.3,0.6,0.7,0.9c0.3,0.3,0.5,0.5,0.5,0.7c0,0.1,0,0.3,0,0.6
		c0,0.3,0,0.5,0,0.6c0,0.1,0.1,0.1,0.3,0.1c0.2,0,0.2,0.1,0.1,0.3H256c-0.1,0.2,0,0.5,0.1,0.9c-0.1,0.2-0.2,0.4-0.4,0.7l-0.3,0.6
		c-0.1,0.2-0.1,0.4,0.1,0.5c0.1,0.1,0.2,0.3,0.2,0.4c-0.3,0.3-0.4,0.5-0.4,0.6c0,0.1,0,0.2,0.1,0.4c0.1,0.1,0.1,0.3,0.1,0.4
		c-0.7,0.8-1.4,1.2-2,1.2c-0.1,0-0.2,0-0.4,0c-0.1,0-0.3,0-0.5,0l-0.3,0.1c-0.2,0-0.5-0.1-0.8-0.4c-0.3-0.2-0.7-0.3-1-0.2
		c-0.4-0.3-0.7-0.4-1-0.4c-0.2,0.2-0.3,0.3-0.4,0.4c-0.1,0.1-0.2,0.1-0.3,0.1s-0.2,0-0.2,0.1c0,0.1-0.1,0.1-0.2,0.1
		c-0.1,0-0.1,0.1-0.1,0.2c-0.1,0-0.3,0.1-0.7,0.4c-0.4,0.2-0.7,0.5-0.9,0.7s-0.3,0.3-0.4,0.4c-0.3,0.2-0.9,0.9-1.9,2
		c-0.1,0.2-0.3,0.4-0.5,0.7c-0.2,0.3-0.4,0.5-0.5,0.6c0,0.1,0,0.2-0.1,0.3s-0.2,0.1-0.3,0.1c0,0.3-0.1,0.6-0.4,0.8
		c-0.2,0.2-0.4,0.4-0.5,0.5v0.4c-0.3,0.2-0.6,0.6-1,1.2c-0.3,0.6-0.6,1-0.8,1.2c0,0.3-0.1,0.6-0.2,1c-0.1,0.3-0.3,0.6-0.4,0.8
		c-0.2,0.1-0.3,0.2-0.3,0.3s0,0.2,0.1,0.3s0.1,0.2,0.1,0.3s-0.1,0.2-0.3,0.2c-0.2,0.1-0.3,0.1-0.4,0.1c0.1,0.4,0.3,0.5,0.7,0.3
		c0.1,0,0.2-0.1,0.4-0.4c0.2-0.2,0.4-0.4,0.7-0.4c0.1-0.1,0.2-0.2,0.3-0.3s0.2-0.2,0.3-0.3h0.3c0.2-0.1,0.4-0.3,0.7-0.6
		s0.5-0.5,0.6-0.6s0.2-0.2,0.4-0.2s0.3-0.1,0.4-0.2c0.2-0.1,0.4-0.3,0.6-0.7c0.2-0.2,0.3-0.3,0.4-0.3c0.2-0.2,0.5-0.5,1-1
		c0.2-0.2,0.5-0.5,0.8-0.9c0.3-0.4,0.6-0.6,0.8-0.7c0.8-0.8,1.3-1.3,1.5-1.6c0.2-0.1,0.6-0.4,1.2-1c0.1-0.5,0.1-0.8,0.1-0.8
		s0.1,0,0.2,0c0.1,0.1,0.3,0.1,0.4,0.1s0.2-0.1,0.2-0.3c0-0.2,0.1-0.3,0.2-0.3c0-0.1,0.1-0.2,0.3-0.3s0.3-0.2,0.4-0.2
		c0.1,0,0.2-0.2,0.3-0.4c0.1-0.2,0.2-0.3,0.3-0.4c0.3,0.1,0.6,0,1-0.4c0.2,0.1,0.5,0.1,0.9,0h0.3c0.1,0,0.2,0,0.3,0s0.2,0,0.3,0
		s0.2,0,0.3-0.1c0.1-0.1,0.2-0.1,0.2-0.1s0.1,0,0.1,0.1c0,0.1,0.1,0.1,0.2,0.1h0.1c0.1,0.1,0.3,0.2,0.6,0.4c0.1,0.1,0.2,0.1,0.4,0.1
		c0.1,0,0.3,0,0.4,0.1l0.4,0.7c0.4,0,0.9,0.4,1.6,1.3c-0.1,0.3,0,0.6,0.4,0.9c0.2,0.1,0.3,0.2,0.3,0.3c0.1,0,0.2,0.2,0.3,0.6
		c0.1,0.1,0.2,0.2,0.2,0.2c0,0.1,0.1,0.1,0.1,0.2c0.1,0.1,0.2,0.2,0.2,0.4c0,0.2,0.1,0.3,0.1,0.4c0.1,0.1,0.2,0.3,0.4,0.5
		c0.1,0.2,0.3,0.4,0.4,0.5c0.1,0.4,0.2,0.7,0.4,0.9c0,0.1,0,0.2,0.1,0.4c0,0.2,0.1,0.3,0.1,0.4l0.4,0.1c-0.2,0.4-0.1,0.8,0.2,1.1
		c0.3,0.3,0.5,0.7,0.5,1l0.7,1c0.3,0.2,0.7,0.5,1.1,1c0.4,0.4,0.7,0.7,0.8,0.8c0,0.1,0,0.2,0.1,0.2c0,0,0.1,0.1,0.1,0.2
		c0.2,0.2,0.6,0.6,1.2,1.2c0.6,0.6,1.1,1.1,1.5,1.4h0.3c0.5,0.3,0.9,0.4,1.2,0.4c0.2,0.2,0.4,0.5,0.7,0.9c0.4,0,1-0.2,1.8-0.6
		c0.1,0.1,0.4,0.1,0.9,0c0.8,0,1.3,0.1,1.5,0.3c0.1,0.1,0.2,0.1,0.2,0.1c0-0.1,0.1-0.1,0.2-0.1c0.3,0.4,0.9,0.4,1.8,0.1
		c0.1,0.2,0.1,0.4,0,0.7c-0.1,0.1-0.1,0.2-0.1,0.3c-0.1,0.5,0.2,0.8,0.9,0.9c0.3,0,0.5,0.1,0.6,0.1c0.1,0.1,0.1,0.3-0.1,0.5
		c-0.1,0.2-0.2,0.4-0.1,0.5c0,0.2,0,0.3,0.1,0.4c0.1,0.1,0.2,0.2,0.3,0.3c0,0.4-0.2,0.7-0.6,1s-0.6,0.5-0.7,0.6c0,0.2,0,0.4,0.1,0.7
		c0,0.2,0.1,0.4,0.1,0.5c-0.1,0.2-0.2,0.5-0.4,0.8c-0.2,0.3-0.3,0.6-0.3,0.8c-1.5,0-2.3,0.6-2.6,1.9c-0.2,0-0.3-0.1-0.4-0.1
		c-0.1-0.1-0.2-0.1-0.3-0.1c-0.1,0-0.2,0.1-0.3,0.3c0,0.1-0.1,0.1-0.1,0.1c-0.4-0.1-0.7-0.1-0.9,0c-0.3-0.6-0.6-0.6-0.9,0
		c-0.1,0-0.2,0-0.4-0.1c-0.1-0.1-0.3-0.1-0.5-0.1c-0.1,0-0.1,0-0.1,0.1s0,0.1-0.1,0.1c-0.1-0.1-0.4-0.1-1-0.1
		c-0.1-0.1-0.1-0.2-0.1-0.4c-0.1,0-0.2,0-0.4-0.1c-0.2-0.1-0.3-0.1-0.4-0.1s-0.2,0-0.3,0.1c-0.1,0.1-0.2,0.1-0.4,0
		c0-0.4-0.1-0.6-0.1-0.6c-0.4,0.1-0.6,0.1-0.7,0.1c0-0.4-0.1-0.6-0.3-0.7c-0.1,0-0.2,0-0.3,0.1c-0.1,0.1-0.2,0.1-0.3,0
		c0-0.2-0.1-0.3-0.1-0.3c0-0.1-0.1-0.1-0.3,0l-0.6-0.7c-0.2,0-0.3,0.1-0.4,0.1c-0.1,0.1-0.2,0.1-0.3,0.1V49l-0.1-0.1
		c-0.2-0.1-0.5-0.4-1-0.8s-0.9-0.7-1.2-0.8c-0.2-0.3-0.5-0.6-1-1c-0.4-0.4-0.7-0.6-0.8-0.7c-0.1,0-0.2,0-0.4-0.1
		c-0.2-0.1-0.3-0.2-0.4-0.3c0-0.1-0.1-0.3-0.3-0.7c-0.4-0.1-0.7-0.4-1-0.9c0.1-0.2,0.1-0.3,0.1-0.4c0,0-0.1-0.1-0.1-0.2
		c-0.7-0.1-1-0.3-1-0.7c0-0.1-0.3-0.4-1-1l-0.4-0.9c0-0.1,0-0.2,0-0.3s0-0.2-0.1-0.2s-0.3-0.2-0.8-0.5c-0.3-1-0.6-1.5-0.9-1.5
		c-0.3-0.1-0.6,0.1-1,0.7c-0.4,0.5-0.6,0.8-0.7,0.8c-0.3,0.2-0.6,0.4-0.9,0.7c-0.1,0.1-0.2,0.1-0.3,0.1c-0.1,0.1-0.3,0.3-0.6,0.4
		c-0.3,0.2-0.4,0.3-0.4,0.4c-0.1,0.1-0.2,0.2-0.4,0.4c-0.1,0.1-0.3,0.3-0.4,0.4c-0.1,0.1-0.2,0.2-0.4,0.3c-0.5,0.2-0.7,0.5-0.7,0.9
		c-0.4-0.1-0.8,0-1.2,0.4c-0.4,0.3-0.6,0.5-0.7,0.5c0,0.1-0.1,0.2-0.1,0.4c-0.8,0-1.3,0.3-1.6,1l-0.3-0.1c-0.1,0.2-0.4,0.3-0.8,0.4
		c-0.4,0.1-0.7,0.2-0.8,0.4c-0.4,0-0.7,0-0.9,0.1s-0.3,0.3-0.3,0.6c0,0.1-0.2,0.1-0.6,0.1c-0.1-0.3-0.2-0.4-0.3-0.4
		s-0.2,0.1-0.3,0.2c-0.1,0.1-0.2,0.2-0.3,0.2s-0.2,0-0.2-0.1s-0.1-0.1-0.2-0.1c-0.2,0-0.3,0.1-0.4,0.4c-0.6,0.1-1.1,0-1.5-0.1
		c-0.5,0.4-0.9,0.2-1.2-0.4h-0.6c-0.1,0-0.3-0.2-0.7-0.7c-0.4-0.4-0.8-0.7-1.2-0.7c-0.3-0.5-0.8-1-1.5-1.5s-1.2-1-1.4-1.5
		c-0.3-0.1-0.5-0.1-0.7-0.1c-0.1-0.1-0.1-0.3-0.1-0.5s0-0.4,0-0.5s-0.1-0.2-0.2-0.4c-0.1-0.1-0.2-0.3-0.2-0.4c0-0.1,0-0.2,0.1-0.4
		s0.1-0.3,0.1-0.4c-0.1-0.1-0.1-0.2-0.2-0.4c-0.1-0.1-0.2-0.3-0.3-0.4c0.1-0.1,0.2-0.2,0.2-0.2s0.1-0.1,0.1-0.2
		c0-0.1-0.1-0.3-0.4-0.6c-0.2-0.3-0.3-0.5-0.1-0.7c0-0.1-0.1-0.2-0.2-0.3c-0.1-0.1-0.3-0.2-0.4-0.3c0.1-0.2,0.2-0.4,0.3-0.6
		c0.1-0.7,0-1.2-0.1-1.5c-0.3-0.2-0.4-0.3-0.3-0.4h0.3c0.1-0.1,0.2-0.2,0.4-0.4c0.1-0.1,0.3-0.3,0.4-0.4c0.1-0.2,0.1-0.7,0.1-1.5
		s0.1-1.2,0.4-1.3c0-0.1,0-0.2,0-0.2s0-0.1,0-0.2c0.1-0.1,0.3-0.5,0.7-1.2s0.7-1.2,1-1.4c0-0.4,0.1-0.8,0.4-1.2v-0.3
		c0-0.1,0.2-0.4,0.5-0.9s0.6-0.8,0.8-1c0-0.2,0.1-0.5,0.4-0.9c0-0.4,0.1-0.7,0.4-1c0.1,0,0.2,0,0.3,0c0.3-0.2,0.6-0.6,1-1.3
		c0.4-0.7,0.7-1.1,1-1.3v-0.4c0.2-0.1,0.7-0.7,1.6-1.9c0.6-0.2,1-0.5,1.2-0.9c0.1-0.3,0.2-0.4,0.2-0.4s0.2-0.1,0.5-0.2
		s0.4-0.3,0.4-0.5c0.2,0,0.4-0.1,0.7-0.3s0.5-0.3,0.7-0.3c0-0.1,0.2-0.3,0.5-0.5s0.5-0.5,0.5-0.8c0.1,0,0.2,0,0.2,0.1
		c0,0,0.1,0.1,0.2,0.1l0.4-0.4c0.1,0,0.3,0,0.5,0s0.4,0,0.5-0.1c0.3,0,0.6-0.1,0.8-0.3s0.4-0.3,0.5-0.3s0.2,0,0.3,0
		c0.4,0.2,0.7,0.2,0.9,0.1c0.1,0,0.2-0.1,0.2-0.3s0.2-0.2,0.5-0.1c0.4,0.2,0.7,0.3,0.8,0.4c0.1,0,0.3,0,0.6,0c0.2,0,0.5-0.1,0.7-0.1
		c0,0.1,0,0.1,0.1,0.1s0.2,0,0.3,0c0.1,0.1,0.3,0.1,0.7,0.1c0.3,0,0.6-0.1,0.7-0.1c0.8,0.1,1.2,0.4,1.3,0.9
		C253.3,13,253.3,13.1,253.3,13.3z M233.7,44.5c0.1,0,0.2,0,0.3,0c0-0.2-0.1-0.3-0.3-0.3c-0.1,0.1-0.1,0.2-0.1,0.2
		C233.5,44.5,233.6,44.5,233.7,44.5z M233.7,44.2c-0.1,0.1-0.1,0.2-0.1,0.2c0,0.1,0,0.1,0.1,0.1s0.2,0,0.3,0
		C234,44.3,233.9,44.2,233.7,44.2z M256.1,18.7L256.1,18.7l0.1-0.1C256.3,18.7,256.3,18.7,256.1,18.7z M256.1,18.6h0.1
		C256.3,18.7,256.2,18.7,256.1,18.6L256.1,18.6z"/>
	<path fill="#F9B7B5" d="M323.2,10.5c-0.1-0.3-0.1-0.4,0-0.4c0.2-0.1,0.4,0,0.7,0.3c0.4-0.1,1,0.1,1.8,0.7c0.2,0,0.3,0,0.4,0
		c0.1,0.1,0.3,0.3,0.7,0.7c0.3,0.4,0.7,0.7,1,0.9c0.1,0.3,0.5,0.6,1.1,1c0.6,0.3,1,0.7,1.2,0.9v0.3c0.6,0.6,1,0.9,1.3,0.9l0.1,0.6
		c0.3,0.4,0.8,0.9,1.4,1.5c0.6,0.6,1.1,1,1.4,1.2c0,0.1,0,0.2,0,0.4c0.1,0.1,0.2,0.2,0.4,0.3c0.1,0.1,0.3,0.2,0.4,0.3
		c0,0.1,0,0.2,0,0.3c0.1,0.2,0.2,0.4,0.4,0.7c0.4,0.6,0.7,1,1,1.2c0,0.5,0.3,0.9,1,1.3c0,0.1,0,0.2,0.1,0.4c0.4,0.5,0.6,0.8,0.6,1
		c0.2,0.2,0.5,0.5,0.9,0.9c0.4,0.4,0.7,0.7,0.9,0.9c0.1,0.4,0.5,0.9,1.3,1.6c0.3,0.2,0.5,0.4,0.7,0.6c0,0.1,0.1,0.2,0.2,0.4
		c0.1,0.1,0.3,0.3,0.4,0.4c0.3,0.3,0.5,0.4,0.6,0.4s0.2,0,0.4,0.1c0.1,0,0.2,0.1,0.3,0.3c0.2,0.2,0.5,0.2,1,0
		c-0.1,0.1-0.1,0.2,0,0.3c0.8,0.6,1.3,1.1,1.6,1.5c0,0.3,0.1,0.6,0.4,0.9c0.3,0.3,0.5,0.6,0.6,0.7c0.2,0.1,0.3,0.1,0.4,0.1
		c-0.1,1.5,0,2.3,0.1,2.5h0.1c0.1,0,0.2,0.1,0.2,0.1c0,0.1-0.1,0.2-0.4,0.3c-0.3,0.2-0.5,0.4-0.7,0.6l-0.4,0.3
		c0,0.2-0.1,0.4-0.4,0.7c-0.2,0.2-0.4,0.4-0.4,0.5c-0.1,0.1-0.2,0.2-0.4,0.2c-0.1,0-0.2,0.1-0.2,0.2c-0.1,0-0.1,0.1-0.1,0.4
		c0,0.3,0,0.4-0.1,0.4c-0.2,0.1-0.6,0.1-1.1-0.1c-0.5-0.2-1-0.2-1.2,0c-0.4-0.2-0.7-0.2-0.9-0.1c-0.1-0.1-0.5,0-1.2,0.1
		c0.2-0.4,0-0.7-0.6-0.9c-0.4-0.1-0.6-0.2-0.6-0.3c-0.1,0-0.2,0-0.4,0.1c-0.1,0.1-0.3,0.1-0.3,0c0,0-0.1-0.1-0.1-0.2
		c0-0.1,0-0.2-0.1-0.2s-0.1-0.1-0.2-0.1c-0.2-0.1-0.3-0.2-0.3-0.4c-0.1,0-0.2,0-0.3-0.1c-0.1,0-0.2-0.1-0.3-0.1
		c-0.6-0.8-1.1-1.3-1.5-1.5c-0.6-0.6-0.9-0.9-1-0.9c-0.2-0.3-0.4-0.5-0.7-0.7c-0.1,0-0.1,0-0.1,0.1s0,0.1-0.1,0l-0.1-0.3
		c-0.7-0.6-1.2-1.3-1.5-2c-0.3-0.1-0.5-0.1-0.6-0.1c-0.2-0.1-0.3-0.4-0.4-0.9c-0.4-0.1-0.7-0.4-1-0.9c-0.3-0.5-0.5-0.7-0.6-0.7
		c-0.4,0.2-0.6-0.2-0.6-1.2c-0.1,0-0.3,0-0.6-0.1c0-0.1-0.1-0.3-0.3-0.6c-0.2-0.3-0.4-0.4-0.6-0.4c0-0.2-0.3-0.8-1-1.9
		c-0.2,0-0.3,0-0.4,0c-0.1-0.3-0.2-0.5-0.4-0.6c-0.1-0.7-0.4-1.1-1-1.3c-0.1,0-0.1,0.2-0.1,0.6c-0.1,0-0.2,0.3-0.4,1
		c-0.1,0-0.2,0-0.2,0.1c0,0.1-0.1,0.2-0.1,0.2c-0.1,0.1-0.1,0.1-0.1,0.3c0,0.1,0,0.2,0,0.3s-0.1,0.2-0.3,0.5
		c-0.1,0.2-0.1,0.5-0.1,0.8s0,0.6,0,0.7c-0.1,0.1-0.2,0.2-0.3,0.3c-0.1,0.1-0.1,0.2-0.1,0.3c-0.1,0.2-0.1,0.5-0.1,0.9
		c0,0.4,0,0.6-0.1,0.7c-0.2,0.2-0.3,0.3-0.4,0.4s-0.1,0.2-0.1,0.4c0,0.1,0,0.3,0,0.4c0,0.1-0.1,0.2-0.4,0.4c0.1,0.3,0,0.7-0.1,1.1
		c-0.2,0.4-0.3,0.7-0.3,0.8c-0.1,0.1-0.1,0.2,0,0.4c-0.1,0.1-0.2,0.2-0.3,0.4c-0.1,0.1-0.1,0.3-0.1,0.4c0,0.2,0,0.3-0.1,0.3
		s-0.1,0.1-0.2,0.3c-0.1,0.1-0.2,0.3-0.3,0.7c-0.1,0.3-0.2,0.6-0.3,0.7c0,0.1,0,0.2,0.1,0.2s0.1,0.1,0.1,0.2
		c-0.1,0.1-0.2,0.3-0.4,0.6c-0.4,0.6-0.8,1-1.3,1.2c-0.2,0.5-0.3,0.8-0.4,0.9c-0.1,0-0.3,0-0.6-0.1c-0.3,0-0.5,0-0.6,0.1
		c-0.2,0.2-0.3,0.3-0.4,0.3c0,0-0.3,0-0.7-0.1c-0.1,0.1-0.2,0.1-0.3,0.1c-0.2-0.3-0.3-0.5-0.4-0.6c-0.1,0-0.3,0.1-0.5,0.2
		c-0.2,0.1-0.4,0.3-0.5,0.4c-0.4-0.2-0.6-0.4-0.6-0.7c-0.6-0.1-1-0.4-1.2-1c-0.4,0-0.8-0.2-1.2-0.7c-0.4-0.5-0.7-0.8-0.8-0.9V37
		c0-0.1-0.1-0.2-0.2-0.3s-0.3-0.2-0.4-0.3c0.1-0.2,0.1-0.3,0-0.3c0-0.1-0.4-0.4-1.2-0.9c0-0.1,0-0.2,0.1-0.3c0-0.1,0.1-0.2,0.1-0.3
		c-0.4-0.2-0.6-0.3-0.7-0.4c0.1-0.5,0-0.9-0.4-1.3c-0.3-0.4-0.6-0.7-0.7-1c0-0.1-0.1-0.2-0.2-0.2s-0.3-0.1-0.4-0.2
		c0-0.2-0.2-0.4-0.6-0.7c0-0.3-0.1-0.6-0.4-0.9c0-0.5-0.2-0.9-0.6-1.2c-0.2-0.1-0.3-0.2-0.4-0.3c0-0.5-0.2-0.8-0.7-1
		c-0.5,1.3-0.7,3.1-0.6,5.6c-0.1,0.1-0.2,0.2-0.3,0.3c-0.1,0.1-0.1,0.2-0.1,0.3c-0.1,0.2-0.1,0.5,0,0.8s0.1,0.6,0,0.8
		c-0.3,0.2-0.4,0.3-0.4,0.4s0.1,0.3,0.2,0.5s0.2,0.5,0.1,0.8c-0.2,0.3-0.3,0.5-0.4,0.6c0,0.1,0,0.4,0.1,0.8c0,0.4,0,0.7-0.2,0.7
		c0,0.1,0.1,0.2,0.1,0.2c0.1,0,0.1,0.1,0.1,0.2c0,0.1-0.1,0.2-0.4,0.3c0,0.3,0,0.8-0.1,1.4c-0.1,0.6-0.1,1.1-0.1,1.4
		c-0.2,0.1-0.3,0.2-0.3,0.4s0.1,0.3,0.4,0.4c0,0.1-0.1,0.2-0.2,0.2s-0.2,0.1-0.2,0.1s0,0.4-0.1,0.9c-0.1,0.3-0.2,0.5-0.4,0.6
		c0.1,0.3,0.1,0.6-0.1,1c-0.1,0.4-0.3,0.6-0.5,0.6s-0.3,0-0.4-0.1c-0.4,0.2-0.8,0.5-1.3,0.9c-0.3,0.3-0.4,0.6-0.4,1
		c-0.1,0-0.2,0-0.3,0c-0.1-0.1-0.1-0.3-0.1-0.6s-0.1-0.5-0.3-0.6c-0.1,0-0.2,0.2-0.4,0.7h-0.4c0.1-0.7-0.2-1-1-1
		c0,0.3-0.1,0.4-0.1,0.4c-0.4-0.1-0.6-0.2-0.7-0.4c0-0.1,0-0.2,0-0.3s0-0.1-0.1-0.1c-0.1-0.6-0.7-0.8-1.9-0.7
		c-0.2-0.1-0.3-0.3-0.3-0.6V45c-0.1-0.2-0.3-0.4-0.5-0.7s-0.4-0.5-0.5-0.6c0-0.1-0.1-0.1-0.1-0.1s-0.1,0-0.1-0.1
		c-0.1-0.4-0.2-0.7-0.3-0.9l-0.3-0.1c0.1-0.9,0.1-1.4,0.1-1.5c-0.1-0.1-0.2-0.4-0.4-0.7c-0.2-0.3-0.3-0.5-0.4-0.6
		c0-0.2,0.1-0.4,0.3-0.7c0-0.3-0.1-0.6-0.3-1c-0.2-0.3-0.3-0.7-0.1-1c-0.1-0.2-0.3-0.3-0.7-0.3c-0.1-0.2,0-0.3,0.3-0.4
		c0-0.2,0-0.4,0-0.5s0-0.3,0-0.4c0-0.1-0.1-0.2-0.2-0.4c-0.1-0.1-0.2-0.3-0.2-0.4c-0.1-0.2-0.1-0.5-0.1-0.8s0-0.6-0.1-0.7
		c0-0.1-0.1-0.2-0.2-0.3s-0.2-0.2-0.2-0.2s0-0.3,0.1-0.7c-0.1-0.7-0.2-1.1-0.4-1.3c0-1.1-0.1-1.7-0.3-1.8c-0.3,0-0.4,0-0.4-0.1
		c0-0.1,0-0.2,0.1-0.2s0.1-0.1,0.1-0.2c0-0.1,0-0.3,0-0.6c-0.1-0.8-0.3-1.2-0.7-1.2c-0.2-0.2-0.1-0.6,0.1-1.2c0-0.2-0.1-0.3-0.2-0.4
		c-0.1-0.1-0.2-0.2-0.2-0.3c0.1-0.5,0-0.8-0.4-1c0.2-0.2,0.3-0.3,0.3-0.4c-0.2-0.1-0.3-0.4-0.3-0.9s-0.1-0.8-0.3-0.9
		c0-0.1,0-0.2,0.1-0.2c0,0,0.1-0.1,0.1-0.2c-0.2-0.2-0.3-0.3-0.3-0.4c0-0.1,0-0.3-0.1-0.5s-0.1-0.4-0.1-0.5c-0.1,0-0.2-0.1-0.4-0.3
		c-0.1-0.1-0.1-0.2,0-0.3s0.1-0.2,0.1-0.3c-0.1-1.7,0.1-2.5,0.7-2.6v-0.9c0.6-0.6,1.2-0.9,1.9-0.9l0.3-0.4c0.3,0.2,0.9,0.1,1.8-0.3
		c0.2,0.2,0.4,0.3,0.7,0.3c0.3,0,0.5,0,0.7,0c0.1,0,0.2,0.1,0.4,0.2c0.1,0.1,0.3,0.2,0.4,0.2c0.5,0.2,0.7,0.3,0.7,0.4
		c0.2,0.1,0.3,0.1,0.4,0c1.4,1.5,2,2.2,2,2.3c0.4,0,0.6,0,0.7-0.1c0.1-0.1,0.1-0.1,0.1-0.3c0-0.1,0-0.2,0.1-0.3c0,0,0.1-0.1,0.2-0.2
		c0.1-0.1,0.2-0.2,0.3-0.3c0-0.1,0-0.2-0.1-0.4c0-0.1,0.1-0.2,0.3-0.4c0.2-0.2,0.3-0.4,0.3-0.6c0.1,0,0.2-0.1,0.4-0.3
		c0.3-0.4,0.6-0.5,1-0.4c0.2-0.1,0.4-0.3,0.5-0.6s0.3-0.5,0.5-0.6h0.4c0.1,0,0.2-0.1,0.4-0.2c0.1-0.1,0.3-0.2,0.4-0.2
		c0.4,0,0.7,0,1-0.1c0.1,0,0.3,0,0.6,0.1c0.2,0.3,0.6,0.5,1.2,0.7s0.9,0.3,0.9,0.4c0,0.3,0.2,0.5,0.7,0.6c0.2,0.1,0.3,0.2,0.4,0.3
		c0,0.4,0.2,0.6,0.6,0.7c0.2,0.3,0.6,0.8,1.3,1.4c0.7,0.6,1.2,1.2,1.5,1.7v0.3c0.3,0.2,0.6,0.5,1,0.9c0.3,0.4,0.6,0.8,0.8,1
		c0.1,0.2,0.3,0.4,0.5,0.7c0.2,0.3,0.4,0.6,0.4,0.9c0.1,0,0.2,0,0.3,0.1c0.1,0,0.2,0.1,0.3,0.1c0.1,0.4,0.4,0.9,0.9,1.5
		c0.2,0.4,0.3,0.7,0.4,0.9c0,0.2,0,0.3,0.1,0.3c0.2,0.2,0.3,0,0.4-0.6c0.1-0.1,0.2-0.3,0.4-0.6c0.1-0.3,0.3-0.5,0.4-0.6
		c0-0.4,0.1-0.8,0.4-1.3c0.2-0.5,0.4-0.9,0.4-1.3c0.1-0.1,0.2-0.4,0.4-0.9c0.1-0.5,0.3-0.8,0.4-0.9c0-0.4,0.3-0.9,1-1.5
		c0-0.1,0-0.2,0-0.4c0-0.1,0-0.2,0.1-0.3s0.2-0.2,0.3-0.3c0-0.2,0-0.3,0-0.4s0-0.1,0.1-0.2s0.1-0.2,0.1-0.2s0-0.2,0.1-0.5
		c0.5-0.4,0.7-0.7,0.6-0.9c0.2-0.1,0.4-0.4,0.6-0.9c0.2,0,0.3,0,0.4,0c0.2-1,0.8-1.4,1.8-1.3c0.2-0.1,0.5-0.2,0.8-0.4
		C322.8,10.9,323,10.7,323.2,10.5z M323.2,10.1c0.2-0.1,0.4,0,0.7,0.3c0.4-0.1,1,0.1,1.8,0.7c0.2,0,0.3,0,0.4,0
		c0.1,0.1,0.3,0.3,0.7,0.7c0.3,0.4,0.7,0.7,1,0.9c0.1,0.3,0.5,0.6,1.1,1c0.6,0.3,1,0.7,1.2,0.9v0.3c0.6,0.6,1,0.9,1.3,0.9l0.1,0.6
		c0.3,0.4,0.8,0.9,1.4,1.5c0.6,0.6,1.1,1,1.4,1.2c0,0.1,0,0.2,0,0.4c0.1,0.1,0.2,0.2,0.4,0.3c0.1,0.1,0.3,0.2,0.4,0.3
		c0,0.1,0,0.2,0,0.3c0.1,0.2,0.2,0.4,0.4,0.7c0.4,0.6,0.7,1,1,1.2c0,0.5,0.3,0.9,1,1.3c0,0.1,0,0.2,0.1,0.4c0.4,0.5,0.6,0.8,0.6,1
		c0.2,0.2,0.5,0.5,0.9,0.9c0.4,0.4,0.7,0.7,0.9,0.9c0.1,0.4,0.5,0.9,1.3,1.6c0.3,0.2,0.5,0.4,0.7,0.6c0,0.1,0.1,0.2,0.2,0.4
		c0.1,0.1,0.3,0.3,0.4,0.4c0.3,0.3,0.5,0.4,0.6,0.4s0.2,0,0.4,0.1c0.1,0,0.2,0.1,0.3,0.3c0.2,0.2,0.5,0.2,1,0
		c-0.1,0.1-0.1,0.2,0,0.3c0.8,0.6,1.3,1.1,1.6,1.5c0,0.3,0.1,0.6,0.4,0.9c0.3,0.3,0.5,0.6,0.6,0.7c0.2,0.1,0.3,0.1,0.4,0.1
		c-0.1,1.5,0,2.3,0.1,2.5h0.1c0.1,0,0.2,0.1,0.2,0.1c0,0.1-0.1,0.2-0.4,0.3c-0.3,0.2-0.5,0.4-0.7,0.6l-0.4,0.3
		c0,0.2-0.1,0.4-0.4,0.7c-0.2,0.2-0.4,0.4-0.4,0.5c-0.1,0.1-0.2,0.2-0.4,0.2c-0.1,0-0.2,0.1-0.2,0.2c-0.1,0-0.1,0.1-0.1,0.4
		c0,0.3,0,0.4-0.1,0.4c-0.2,0.1-0.6,0.1-1.1-0.1c-0.5-0.2-1-0.2-1.2,0c-0.4-0.2-0.7-0.2-0.9-0.1c-0.1-0.1-0.5,0-1.2,0.1
		c0.2-0.4,0-0.7-0.6-0.9c-0.4-0.1-0.6-0.2-0.6-0.3c-0.1,0-0.2,0-0.4,0.1c-0.1,0.1-0.3,0.1-0.3,0c0,0-0.1-0.1-0.1-0.2
		c0-0.1,0-0.2-0.1-0.2s-0.1-0.1-0.2-0.1c-0.2-0.1-0.3-0.2-0.3-0.4c-0.1,0-0.2,0-0.3-0.1c-0.1,0-0.2-0.1-0.3-0.1
		c-0.6-0.8-1.1-1.3-1.5-1.5c-0.1-0.1-0.2-0.2-0.3-0.3c-0.2-0.4-0.4-0.6-0.7-0.6c-0.2-0.3-0.4-0.5-0.7-0.7c-0.1,0-0.1,0-0.1,0.1
		s0,0.1-0.1,0l-0.1-0.3c-0.7-0.6-1.2-1.3-1.5-2c-0.3-0.1-0.5-0.1-0.6-0.1c-0.2-0.1-0.3-0.4-0.4-0.9c-0.4-0.1-0.7-0.4-1-0.9
		c-0.3-0.5-0.5-0.7-0.6-0.7c-0.4,0.2-0.6-0.2-0.6-1.2c-0.1,0-0.3,0-0.6-0.1c0-0.1-0.1-0.3-0.3-0.6c-0.2-0.3-0.4-0.4-0.6-0.4
		c0-0.2-0.3-0.8-1-1.9c-0.2,0-0.3,0-0.4,0c-0.1-0.3-0.2-0.5-0.4-0.6c-0.1-0.7-0.4-1.1-1-1.3c-0.1,0-0.1,0.2-0.1,0.6
		c-0.1,0-0.2,0.3-0.4,1c-0.1,0-0.2,0-0.2,0.1c0,0.1-0.1,0.2-0.1,0.2c-0.1,0.1-0.1,0.1-0.1,0.3c0,0.1,0,0.2,0,0.3s-0.1,0.2-0.3,0.5
		c-0.1,0.2-0.1,0.5-0.1,0.8s0,0.6,0,0.7c-0.1,0.1-0.2,0.2-0.3,0.3c-0.1,0.1-0.1,0.2-0.1,0.3c-0.1,0.2-0.1,0.5-0.1,0.9
		c0,0.4,0,0.6-0.1,0.7c-0.2,0.2-0.3,0.3-0.4,0.4s-0.1,0.2-0.1,0.4c0,0.1,0,0.3,0,0.4c0,0.1-0.1,0.2-0.4,0.4c0.1,0.3,0,0.7-0.1,1.1
		c-0.2,0.4-0.3,0.7-0.3,0.8c-0.1,0.1-0.1,0.2,0,0.4c-0.1,0.1-0.2,0.2-0.3,0.4c-0.1,0.1-0.1,0.3-0.1,0.4c0,0.2,0,0.3-0.1,0.3
		s-0.1,0.1-0.2,0.3c-0.1,0.1-0.2,0.3-0.3,0.7c-0.1,0.3-0.2,0.6-0.3,0.7c0,0.1,0,0.2,0.1,0.2s0.1,0.1,0.1,0.2
		c-0.1,0.1-0.2,0.3-0.4,0.6c-0.4,0.6-0.8,1-1.3,1.2c-0.2,0.5-0.3,0.8-0.4,0.9c-0.1,0-0.3,0-0.6-0.1c-0.3,0-0.5,0-0.6,0.1
		c-0.2,0.2-0.3,0.3-0.4,0.3c0,0-0.3,0-0.7-0.1c-0.1,0.1-0.2,0.1-0.3,0.1c-0.2-0.3-0.3-0.5-0.4-0.6c-0.1,0.1-0.3,0.2-0.5,0.3
		s-0.4,0.2-0.5,0.3c-0.4-0.2-0.6-0.4-0.6-0.7c-0.6-0.1-1-0.4-1.2-1c-0.4,0-0.8-0.2-1.2-0.7c-0.4-0.5-0.7-0.8-0.8-0.9V37
		c0-0.1-0.1-0.2-0.2-0.3s-0.3-0.2-0.4-0.3c0.1-0.2,0.1-0.3,0-0.3c0-0.1-0.4-0.4-1.2-0.9c0-0.1,0-0.2,0.1-0.3c0-0.1,0.1-0.2,0.1-0.3
		c-0.4-0.2-0.6-0.3-0.7-0.4c0.1-0.5,0-0.9-0.4-1.3c-0.3-0.4-0.6-0.7-0.7-1c0-0.1-0.1-0.2-0.2-0.2s-0.3-0.1-0.4-0.2
		c0-0.2-0.2-0.4-0.6-0.7c0-0.3-0.1-0.6-0.4-0.9c0-0.5-0.2-0.9-0.6-1.2c-0.2-0.1-0.3-0.2-0.4-0.3c0-0.5-0.2-0.8-0.7-1
		c-0.5,1.3-0.7,3.1-0.6,5.6c-0.1,0.1-0.2,0.2-0.3,0.3c-0.1,0.1-0.1,0.2-0.1,0.3c-0.1,0.2-0.1,0.5,0,0.8s0.1,0.6,0,0.8
		c-0.3,0.2-0.4,0.3-0.4,0.4s0.1,0.3,0.2,0.5s0.2,0.5,0.1,0.8c-0.2,0.3-0.3,0.5-0.4,0.6c0,0.1,0,0.4,0.1,0.8c0,0.4,0,0.7-0.2,0.7
		c0,0.1,0.1,0.2,0.1,0.2c0.1,0,0.1,0.1,0.1,0.2c0,0.1-0.1,0.2-0.4,0.3c0,0.3,0,0.8-0.1,1.4c-0.1,0.6-0.1,1.1-0.1,1.4
		c-0.2,0.1-0.3,0.2-0.3,0.4s0.1,0.3,0.4,0.4c0,0.1-0.1,0.2-0.2,0.2s-0.2,0.1-0.2,0.1s0,0.4-0.1,0.9c-0.1,0.3-0.2,0.5-0.4,0.6
		c0.1,0.3,0.1,0.6-0.1,1c-0.1,0.4-0.3,0.6-0.5,0.6s-0.3,0-0.4-0.1c-0.4,0.2-0.8,0.5-1.3,0.9c-0.3,0.3-0.4,0.6-0.4,1
		c-0.1,0-0.2,0-0.3,0c-0.1-0.1-0.1-0.3-0.1-0.5s-0.1-0.5-0.3-0.7c-0.1,0-0.2,0.2-0.4,0.7h-0.4c0-0.3-0.1-0.5-0.3-0.7
		c-0.2-0.2-0.4-0.3-0.7-0.3c0,0.3-0.1,0.4-0.1,0.4c-0.4-0.1-0.6-0.2-0.7-0.4c0-0.1,0-0.2,0-0.3s0-0.1-0.1-0.1
		c-0.1-0.6-0.7-0.8-1.9-0.7c-0.2-0.1-0.3-0.3-0.3-0.6V45c-0.1-0.2-0.3-0.4-0.5-0.7s-0.4-0.5-0.5-0.6c0-0.1-0.1-0.1-0.1-0.1
		s-0.1,0-0.1-0.1c-0.1-0.4-0.2-0.7-0.3-0.9l-0.3-0.1c0.1-0.9,0.1-1.4,0.1-1.5c-0.1-0.1-0.2-0.4-0.4-0.7c-0.2-0.3-0.3-0.5-0.4-0.6
		c0-0.2,0.1-0.4,0.3-0.7c0-0.3-0.1-0.6-0.3-1c-0.2-0.3-0.3-0.7-0.1-1c-0.1-0.2-0.3-0.3-0.7-0.3c-0.1-0.2,0-0.3,0.3-0.4
		c0-0.2,0-0.4,0-0.5s0-0.3,0-0.4c0-0.1-0.1-0.2-0.2-0.4c-0.1-0.1-0.2-0.3-0.2-0.4c-0.1-0.2-0.1-0.5-0.1-0.8s0-0.6-0.1-0.7
		c0-0.1-0.1-0.2-0.2-0.3s-0.2-0.2-0.2-0.2s0-0.3,0.1-0.7c-0.1-0.7-0.2-1.1-0.4-1.3c0-1.1-0.1-1.7-0.3-1.8c-0.3,0-0.4,0-0.4-0.1
		c0-0.1,0-0.2,0.1-0.2s0.1-0.1,0.1-0.2c0-0.1,0-0.3,0-0.6c-0.1-0.8-0.3-1.2-0.7-1.2c-0.2-0.2-0.1-0.6,0.1-1.2c0-0.2-0.1-0.3-0.2-0.4
		c-0.1-0.1-0.2-0.2-0.2-0.3c0.1-0.5,0-0.8-0.4-1c0.2-0.2,0.3-0.3,0.3-0.4c-0.2-0.1-0.3-0.4-0.3-0.9s-0.1-0.8-0.3-0.9
		c0-0.1,0-0.2,0.1-0.2c0,0,0.1-0.1,0.1-0.2c-0.2-0.2-0.3-0.3-0.3-0.4c0-0.1,0-0.3-0.1-0.5s-0.1-0.4-0.1-0.5c-0.1,0-0.2-0.1-0.4-0.3
		c-0.1-0.1-0.1-0.2,0-0.3s0.1-0.2,0.1-0.3c-0.1-1.7,0.1-2.5,0.7-2.6v-0.9c0.6-0.6,1.2-0.9,1.9-0.9l0.3-0.4c0.3,0.2,0.9,0.1,1.8-0.3
		c0.2,0.2,0.4,0.3,0.7,0.3c0.3,0,0.5,0,0.7,0c0.1,0,0.2,0.1,0.4,0.2c0.1,0.1,0.3,0.2,0.4,0.2c0.5,0.2,0.7,0.3,0.7,0.4
		c0.2,0.1,0.3,0.1,0.4,0c1.4,1.5,2,2.2,2,2.3c0.4,0,0.6,0,0.7-0.1c0.1-0.1,0.1-0.1,0.1-0.3c0-0.1,0-0.2,0.1-0.3c0,0,0.1-0.1,0.2-0.2
		c0.1-0.1,0.2-0.2,0.3-0.3c0-0.1,0-0.2-0.1-0.4c0-0.1,0.1-0.2,0.3-0.4c0.2-0.2,0.3-0.4,0.3-0.6c0.1,0,0.2-0.1,0.4-0.3
		c0.3-0.4,0.6-0.5,1-0.4c0.2-0.1,0.4-0.3,0.5-0.6s0.3-0.5,0.5-0.6h0.4c0.1,0,0.2-0.1,0.4-0.2c0.1-0.1,0.3-0.2,0.4-0.2
		c0.4,0,0.7,0,1-0.1c0.1,0,0.3,0,0.6,0.1c0.2,0.3,0.6,0.5,1.2,0.7s0.9,0.3,0.9,0.4c0,0.3,0.2,0.5,0.7,0.6c0.2,0.1,0.3,0.2,0.4,0.3
		c0,0.4,0.2,0.6,0.6,0.7c0.2,0.3,0.6,0.8,1.3,1.4c0.7,0.6,1.2,1.2,1.5,1.7v0.3c0.3,0.2,0.6,0.5,1,0.9c0.3,0.4,0.6,0.8,0.8,1
		c0.1,0.2,0.3,0.4,0.5,0.7c0.2,0.3,0.4,0.6,0.4,0.9c0.1,0,0.2,0,0.3,0.1c0.1,0,0.2,0.1,0.3,0.1c0.1,0.4,0.4,0.9,0.9,1.5
		c0.2,0.4,0.3,0.7,0.4,0.9c0,0.2,0,0.3,0.1,0.3c0.2,0.2,0.3,0,0.4-0.6c0.1-0.1,0.2-0.3,0.4-0.6c0.1-0.3,0.3-0.5,0.4-0.6
		c0-0.4,0.1-0.8,0.4-1.3c0.2-0.5,0.4-0.9,0.4-1.3c0.1-0.1,0.2-0.4,0.4-0.9c0.1-0.5,0.3-0.8,0.4-0.9c0-0.4,0.3-0.9,1-1.5
		c0-0.1,0-0.2,0-0.4c0-0.1,0-0.2,0.1-0.3s0.2-0.2,0.3-0.3c0-0.2,0-0.3,0-0.4s0-0.1,0.1-0.2s0.1-0.2,0.1-0.2s0-0.2,0.1-0.5
		c0.5-0.4,0.7-0.7,0.6-0.9c0.2-0.1,0.4-0.4,0.6-0.9c0.2,0,0.3,0,0.4,0c0.2-1,0.8-1.4,1.8-1.3c0.2-0.1,0.5-0.2,0.8-0.4
		s0.6-0.4,0.8-0.6C323.1,10.3,323.1,10.1,323.2,10.1z"/>
	<path fill="#F9B7B5" d="M379.1,11.7c0,0.3,0.2,0.7,0.7,1.2c1,0.8,1.6,1.2,1.9,1.3c0,0.1,0,0.2-0.1,0.2c-0.1,0.1-0.1,0.1-0.1,0.2
		c0.2,0.2,0.5,0.4,0.8,0.7c0.3,0.3,0.6,0.5,0.7,0.7c0,0.3,0.1,0.7,0.4,1.2s0.3,0.9,0,1.1l0.9,1.8c0,0.1-0.1,0.2-0.2,0.4
		c-0.1,0.2-0.2,0.4-0.2,0.6c-0.1,0.2-0.1,0.6,0,1.3c0.1,0.7,0.1,1.2,0,1.6c-0.3,0.4-0.5,0.6-0.6,0.7c0,0.2-0.1,0.5-0.1,0.8
		c-0.1,0.3-0.1,0.6-0.1,0.8c-0.1,0.1-0.3,0.3-0.5,0.7c-0.2,0.3-0.4,0.6-0.4,0.8c-0.6,0.5-0.9,0.9-0.9,1.3c-0.1,0-0.2,0-0.2,0
		c-0.1,0-0.1,0-0.2,0v0.6c-0.1,0-0.2,0-0.3-0.1c-0.1,0-0.2-0.1-0.3-0.1c-0.2,0-0.3,0.1-0.4,0.4c-0.1,0.2-0.2,0.4-0.3,0.5
		c-0.1,0-0.3,0-0.7-0.1c-0.4,0-0.6,0-0.7,0.1c-0.2,0.3-0.3,0.4-0.4,0.4s-0.2,0-0.4,0.1c-0.1,0.1-0.3,0.2-0.4,0.2
		c-0.1,0.1-0.2,0.2-0.4,0.4c-0.1,0-0.2,0-0.4,0.1c-0.1,0-0.2,0.1-0.2,0.2c0,0.1,0,0.2,0.1,0.2s0.1,0.1,0,0.2c-0.6,0.6-1.3,0.8-2,0.7
		c-0.1,0.1-0.3,0.2-0.7,0.3c-0.1,0.1-0.2,0.2-0.4,0.4c-0.2,0.1-0.3,0.2-0.4,0.2s-0.1,0-0.3,0c-0.1,0-0.3,0-0.4,0
		c-0.2,0-0.4,0.1-0.7,0.2c-0.3,0.1-0.5,0.2-0.6,0.2s-0.2,0-0.4-0.1c-0.2-0.1-0.3-0.1-0.4-0.1c-0.4,0.2-0.6,0.3-0.7,0.3
		s-0.2,0-0.2-0.1c-0.1-0.1-0.1-0.1-0.2-0.1l-0.9-0.1c-0.2-0.2-0.3-0.3-0.4-0.3s-0.4,0-1-0.1c-0.6,0-1-0.1-1.2-0.1
		c-0.2,0.1-0.3,0.2-0.2,0.4c0,0.2,0.1,0.3,0.2,0.3c0.3,1.2,0.6,2,1,2.3v0.4c0.3,0.4,0.8,0.8,1.5,1.1s1.1,0.6,1.3,0.8
		c0.6,0.1,1,0,1.2-0.3c0.4,0,0.6,0,0.7,0.1c0,0,0,0.2-0.1,0.4c0.1,0.1,0.3,0.2,0.6,0.3c0.3,0.1,0.5,0.1,0.6,0.1
		c0-0.1,0.1-0.2,0.4-0.3c0.2-0.1,0.4-0.1,0.5,0v0.3c0.3,0.3,0.9,0.4,2,0.4s1.7,0.1,2.1,0.1c0.6-0.3,1-0.5,1.3-0.6
		c0.1,0,0.2,0,0.4,0.1c0.7,0.1,1.8-0.1,3.2-0.7c0.1,0,0.2-0.1,0.4-0.2c0.2-0.1,0.4-0.2,0.6-0.2c0.1-0.1,0.3-0.1,0.6-0.1
		c0.3,0.1,0.5,0.1,0.6,0.1s0.2,0,0.2-0.1s0.1-0.1,0.1-0.1s0.2,0,0.5-0.1s0.5-0.2,0.6-0.3c0.8,0,1.6-0.4,2.3-1.3
		c0.1,0,0.2,0.1,0.4,0.3c0.2,0,0.4-0.1,0.5-0.3s0.3-0.3,0.5-0.3c0.1,0,0.2-0.1,0.3-0.1c0.1-0.1,0.1-0.2,0.1-0.3c0.4,0.1,0.7,0,1-0.3
		c0.3,0.1,0.6,0,0.9-0.3c0.1-0.1,0.2-0.2,0.3-0.2c0.1,0,0.2-0.1,0.4-0.1c0.1,0,0.3,0,0.4,0c0.1-0.1,0.3-0.2,0.5-0.4
		c0.2-0.1,0.5-0.3,0.7-0.4l1.5,0.1c0.1,0,0.2,0.1,0.2,0.2c0,0.1,0.1,0.2,0.2,0.2c0.4-0.1,0.6-0.1,0.7,0c0,0.1-0.1,0.1-0.4,0.1
		c0,0.2,0.2,0.3,0.6,0.3c0.7,0.4,1,0.8,1,1.3c0.5,0.1,0.8,0.2,0.9,0.3c0.3,0.7,0.1,1.5-0.4,2.3v0.1c-0.5,0-0.9,0.2-1.1,0.7
		s-0.4,0.8-0.5,0.9c-0.1,0.1-0.2,0.2-0.4,0.3c-0.1,0.1-0.3,0.2-0.4,0.3c0-0.1-0.1-0.1-0.3,0c-0.1,0-0.2,0.1-0.4,0.4
		c-0.1,0.2-0.3,0.4-0.4,0.4c-0.1,0.1-0.3,0.1-0.6,0.2c-0.3,0.1-0.5,0.2-0.6,0.3c-0.1,0-0.2,0.1-0.3,0.3c-0.1,0.2-0.2,0.3-0.3,0.4
		c-0.2,0.1-0.6,0.2-1.1,0.2c-0.5,0.1-1,0.2-1.2,0.4c-0.9,0.1-1.4,0.2-1.5,0.3c0,0.2,0,0.3,0,0.4c-0.7,0.1-1.1,0.3-1.3,0.7
		c-0.4-0.1-0.8,0-1.3,0.3c-0.2,0.2-0.4,0.3-0.6,0.4h-0.3c-0.1,0.1-0.2,0.2-0.4,0.3c-0.4,0.2-0.7,0.2-0.9,0c-0.4,0.3-0.7,0.5-1,0.6
		c-0.3,0.2-0.4,0.3-0.4,0.4c-0.3,0.1-0.8,0.1-1.5,0.1c-0.1,0-0.2,0-0.4,0c-0.1,0-0.3,0-0.4,0s-0.2,0-0.3,0.1
		c-0.1,0.1-0.2,0.2-0.3,0.3c-0.1,0-0.2,0-0.4,0c-0.1,0-0.3,0-0.4,0s-0.3,0-0.6,0.1c-0.1,0-0.2,0-0.4-0.1c-0.2,0-0.3-0.1-0.4-0.1
		c-0.2,0-0.4,0-0.7,0.1c-0.3,0-0.5,0.1-0.7,0.1s-0.5,0-1-0.1c-0.4,0-0.8-0.1-1-0.1s-0.6,0-1,0.1c-0.7,0.1-1.1,0.1-1.2-0.1
		c-0.2,0-0.5,0-0.8,0.1c-0.3,0-0.6,0.1-0.8,0.1c-0.1,0-0.2,0-0.4-0.1c-0.1,0-0.2-0.1-0.3-0.1c-0.1,0-0.1,0-0.3,0c-0.1,0-0.2,0-0.3,0
		c-0.1,0-0.1,0-0.2-0.1c-0.1,0-0.2-0.1-0.3-0.2c-0.1,0-0.2,0-0.4,0.1c-0.1,0-0.2,0.1-0.3,0.1s-0.2-0.1-0.5-0.3c-0.7-0.2-1-0.3-1-0.4
		c-0.4-0.1-0.6-0.2-0.7-0.3c0-0.1-0.2-0.2-0.6-0.2s-0.6-0.2-0.7-0.4c-0.4,0-0.7-0.1-1-0.4c-0.3,0-0.6-0.1-1-0.3c-0.3,0-0.5,0-0.6,0
		c0-0.2,0-0.3,0-0.4c-0.8-0.7-1.3-1.2-1.6-1.6c-0.1,0-0.2,0-0.3,0.1c-0.1,0.1-0.2,0-0.3-0.1c0-0.1-0.1-0.3-0.3-0.5
		c-0.2-0.2-0.3-0.5-0.3-0.7c-0.2-0.1-0.4-0.1-0.6-0.1v-0.3c-0.3-0.2-0.6-0.3-0.9-0.4c-0.5-0.7-0.8-1-0.9-1v-0.3
		c-0.1-0.2-0.3-0.5-0.5-1s-0.4-0.8-0.5-0.9c-0.4-0.5-0.6-0.8-0.6-0.9c-0.1-0.1-0.1-0.2-0.1-0.4s0-0.3,0-0.4
		c-0.1-0.1-0.1-0.2-0.2-0.4s-0.2-0.3-0.3-0.4c0-0.2,0-0.4,0-0.7s0-0.5,0-0.7c0-0.1,0-0.2-0.1-0.3c0-0.1-0.1-0.2-0.1-0.3
		c0-0.2,0.2-0.5,0.6-0.9c-0.1-0.3-0.3-0.4-0.6-0.4l-0.3-1c0.7-0.4,0.8-0.8,0.4-1.2c0.2-0.6,0.3-0.9,0.3-1c0,0,0.1-0.2,0.3-0.4
		c0.2-0.2,0.2-0.4,0.1-0.6c0-0.1,0.1-0.2,0.2-0.2c0.1-0.1,0.2-0.1,0.2-0.2c0-0.1-0.1-0.2-0.2-0.2s-0.2-0.1-0.2-0.2
		c0-0.1,0.1-0.3,0.3-0.6c0-0.1,0-0.3,0-0.6c0-0.3,0-0.5,0-0.6c0.2-0.5,0.3-0.8,0.3-1c0.3,0,0.4-0.2,0.4-0.7c0-0.3,0-0.5,0-0.7
		c0.1-0.1,0.3-0.3,0.7-0.6c0.6-0.6,0.9-1,1-1.1c0-0.1,0.1-0.4,0.1-0.7c0-0.3,0.1-0.6,0.1-0.7c0.1-0.1,0.2-0.2,0.4-0.3
		c0.2-0.1,0.3-0.2,0.4-0.2c0,0,0-0.1-0.1-0.2c-0.1-0.1-0.1-0.2-0.1-0.3c0.1-0.1,0.2-0.3,0.3-0.5c0.1-0.2,0.2-0.4,0.3-0.5
		c0.3-0.1,0.6-0.3,1-0.7c-0.1-0.2,0-0.6,0.3-1.3c0.7-0.1,1.1-0.5,1.2-1.2c0.1-0.1,0.2-0.1,0.3-0.1c0.1,0,0.2-0.1,0.3-0.4
		c0.1,0,0.2,0,0.3,0.1c0.1,0.1,0.2,0.1,0.3,0.2c0.3,0,0.6-0.2,1-0.7c0-0.4,0-0.6,0.1-0.7c0.1,0,0.3,0.1,0.7,0.4
		c0.7-0.1,0.9-0.5,0.7-1.3c0.3,0,0.6-0.1,1-0.3s0.7-0.3,0.9-0.4c0.3,0,0.5,0,0.5,0s0.1,0,0.1-0.1l0.1-0.1c0,0,0.1-0.1,0.3-0.1
		c0.1,0,0.2,0,0.2-0.1c0.1,0,0.3-0.1,0.5-0.4c0.2-0.2,0.4-0.4,0.5-0.4c0.1-0.1,0.3-0.1,0.7-0.1c0.4,0.1,0.6,0,0.7-0.1
		c0.1,0,0.2,0,0.4-0.1c0.1-0.1,0.2-0.2,0.3-0.2c0-0.1,0.1-0.1,0.3-0.1c0.1,0,0.3,0,0.4,0s0.2-0.1,0.3-0.2c0.1-0.1,0.2-0.2,0.4-0.2
		c0.1,0,0.2,0.1,0.3,0.2c0.1,0.1,0.2,0.2,0.3,0.2c0.1,0,0.2,0,0.4,0c0.2,0,0.4,0,0.6,0c0.2,0.3,0.6,0.5,1.3,0.6c0.1,0,0.2,0,0.4,0.1
		c0.1,0,0.3,0.1,0.4,0.1l1.2,0.3C378.6,11.4,378.8,11.7,379.1,11.7z M377.2,10.5l1.2,0.3c0.2,0.6,0.4,0.9,0.7,0.9
		c0,0.3,0.2,0.7,0.7,1.2c1,0.8,1.6,1.2,1.9,1.3c0,0.1,0,0.2-0.1,0.2c-0.1,0.1-0.1,0.1-0.1,0.2c0.2,0.2,0.5,0.4,0.8,0.7
		c0.3,0.3,0.6,0.5,0.7,0.7c0,0.3,0.1,0.7,0.4,1.2s0.3,0.9,0,1.1l0.9,1.8c0,0.1-0.1,0.2-0.2,0.4c-0.1,0.2-0.2,0.4-0.2,0.6
		c-0.1,0.2-0.1,0.6,0,1.3c0.1,0.7,0.1,1.2,0,1.6c-0.3,0.4-0.5,0.6-0.6,0.7c0,0.2-0.1,0.5-0.1,0.8c-0.1,0.3-0.1,0.6-0.1,0.7
		c-0.1,0.2-0.3,0.5-0.5,0.8s-0.4,0.6-0.4,0.8c-0.6,0.5-0.9,0.9-0.9,1.3c-0.1,0-0.2,0-0.2,0c-0.1,0-0.1,0-0.2,0v0.6
		c-0.1,0-0.2,0-0.3-0.1c-0.1,0-0.2-0.1-0.3-0.1c-0.2,0-0.3,0.1-0.4,0.4c-0.1,0.2-0.2,0.4-0.3,0.5c-0.1,0-0.3,0-0.7-0.1
		c-0.4,0-0.6,0-0.7,0.1c-0.2,0.3-0.3,0.4-0.4,0.4s-0.2,0-0.4,0.1c-0.1,0.1-0.3,0.2-0.4,0.2c-0.1,0.1-0.2,0.2-0.4,0.4
		c-0.1,0-0.2,0-0.4,0.1c-0.1,0-0.2,0.1-0.2,0.2c0,0.1,0,0.2,0.1,0.2s0.1,0.1,0,0.2c-0.6,0.6-1.3,0.8-2,0.7c-0.1,0.1-0.3,0.2-0.7,0.3
		c-0.1,0.1-0.2,0.2-0.4,0.4c-0.2,0.1-0.3,0.2-0.4,0.2s-0.1,0-0.3,0c-0.1,0-0.3,0-0.4,0c-0.2,0-0.4,0.1-0.7,0.2
		c-0.3,0.1-0.5,0.2-0.6,0.2s-0.2,0-0.4-0.1c-0.2-0.1-0.3-0.1-0.4-0.1c-0.4,0.2-0.6,0.3-0.7,0.3s-0.2,0-0.2-0.1
		c-0.1-0.1-0.1-0.1-0.2-0.1l-0.9-0.1c-0.2-0.2-0.3-0.3-0.4-0.3s-0.4,0-1-0.1c-0.6,0-1-0.1-1.3-0.1c-0.1,0.1-0.1,0.2-0.1,0.4
		s0.1,0.3,0.2,0.3c0.3,1.2,0.6,2,1,2.3v0.4c0.3,0.4,0.8,0.8,1.5,1.1s1.1,0.6,1.3,0.8c0.6,0.1,1,0,1.2-0.3c0.4,0,0.6,0,0.7,0.1
		c0,0,0,0.2-0.1,0.4c0.1,0.1,0.3,0.2,0.6,0.3h0.6c0.5-0.2,0.8-0.2,0.9-0.1v0.3c0.3,0.3,0.9,0.4,2,0.4s1.7,0.1,2.1,0.1
		c0.6-0.3,1-0.5,1.3-0.6c0.1,0,0.2,0,0.4,0.1c0.7,0.1,1.8-0.1,3.2-0.7c0.1,0,0.2-0.1,0.4-0.2c0.2-0.1,0.4-0.2,0.6-0.2
		c0.1-0.1,0.3-0.1,0.6-0.1c0.3,0.1,0.5,0.1,0.6,0.1s0.2,0,0.2-0.1s0.1-0.1,0.1-0.1s0.2,0,0.5-0.1s0.5-0.2,0.6-0.3
		c0.8,0,1.6-0.4,2.3-1.3c0.1,0,0.2,0.1,0.4,0.3c0.2,0,0.4-0.1,0.5-0.3s0.3-0.3,0.5-0.3c0.1,0,0.2-0.1,0.3-0.1
		c0.1-0.1,0.1-0.2,0.1-0.3c0.4,0.1,0.7,0,1-0.3c0.3,0.1,0.6,0,0.9-0.3c0.1-0.1,0.2-0.2,0.3-0.2c0.1,0,0.2-0.1,0.4-0.1
		c0.1,0,0.3,0,0.4,0c0.1-0.1,0.3-0.2,0.5-0.4c0.2-0.1,0.5-0.3,0.7-0.4l1.5,0.1c0.1,0,0.2,0.1,0.2,0.2c0,0.1,0.1,0.2,0.2,0.2
		c0.4-0.1,0.6-0.1,0.7,0c0,0.1-0.1,0.1-0.4,0.1c0,0.2,0.2,0.3,0.6,0.3c0.7,0.4,1,0.8,1,1.3c0.5,0.1,0.8,0.2,0.9,0.3
		c0.3,0.7,0.1,1.5-0.4,2.3V39c-0.5,0-0.9,0.2-1.1,0.7s-0.4,0.8-0.5,0.9c-0.1,0.1-0.2,0.2-0.4,0.3c-0.1,0.1-0.3,0.2-0.4,0.3
		c0-0.1-0.1-0.1-0.3,0c-0.1,0-0.2,0.1-0.4,0.4c-0.1,0.2-0.3,0.4-0.4,0.4c-0.1,0.1-0.3,0.1-0.6,0.2c-0.3,0.1-0.5,0.2-0.6,0.3
		c-0.1,0-0.2,0.1-0.3,0.3c-0.1,0.2-0.2,0.3-0.3,0.4c-0.2,0.1-0.6,0.2-1.1,0.2c-0.5,0.1-1,0.2-1.2,0.4c-0.9,0.1-1.4,0.2-1.5,0.3
		c0,0.2,0,0.3,0,0.4c-0.7,0.1-1.1,0.3-1.3,0.7c-0.4-0.1-0.8,0-1.3,0.3c-0.2,0.2-0.4,0.3-0.6,0.4h-0.3c-0.1,0.1-0.2,0.2-0.4,0.3
		c-0.4,0.2-0.7,0.2-0.9,0c-0.4,0.3-0.7,0.5-1,0.6c-0.3,0.2-0.4,0.3-0.4,0.4c-0.3,0.1-0.8,0.1-1.5,0.1c-0.1,0-0.2,0-0.4,0
		c-0.1,0-0.3,0-0.4,0s-0.2,0-0.3,0.1c-0.1,0.1-0.2,0.2-0.3,0.3c-0.1,0-0.2,0-0.4,0c-0.1,0-0.3,0-0.4,0s-0.3,0-0.6,0.1
		c-0.1,0-0.2,0-0.4-0.1c-0.2,0-0.3-0.1-0.4-0.1c-0.2,0-0.4,0-0.7,0.1c-0.3,0-0.5,0.1-0.7,0.1s-0.5,0-1-0.1c-0.4,0-0.8-0.1-1-0.1
		s-0.6,0-1,0.1c-0.7,0.1-1.1,0.1-1.2-0.1c-0.2,0-0.5,0-0.8,0.1c-0.3,0-0.6,0.1-0.8,0.1c-0.1,0-0.2,0-0.4-0.1c-0.1,0-0.2-0.1-0.3-0.1
		c-0.1,0-0.1,0-0.3,0c-0.1,0-0.2,0-0.3,0c-0.1,0-0.1,0-0.2-0.1c-0.1,0-0.2-0.1-0.3-0.2c-0.1,0-0.2,0-0.4,0.1c-0.1,0-0.2,0.1-0.3,0.1
		s-0.2-0.1-0.5-0.3c-0.7-0.2-1-0.3-1-0.4c-0.4-0.1-0.6-0.2-0.7-0.3c0-0.1-0.2-0.2-0.6-0.2s-0.6-0.2-0.7-0.4c-0.4,0-0.7-0.1-1-0.4
		c-0.3,0-0.6-0.1-1-0.3c-0.3,0-0.5,0-0.6,0c0-0.2,0-0.3,0-0.4c-0.8-0.7-1.3-1.2-1.6-1.6c-0.1,0-0.2,0-0.3,0.1
		c-0.1,0.1-0.2,0-0.3-0.1c0-0.1-0.1-0.3-0.3-0.5c-0.2-0.2-0.3-0.5-0.3-0.7c-0.2-0.1-0.4-0.1-0.6-0.1v-0.3c-0.3-0.2-0.6-0.3-0.9-0.4
		c-0.5-0.7-0.8-1-0.9-1v-0.3c-0.1-0.2-0.3-0.5-0.5-1s-0.4-0.8-0.5-0.9c-0.4-0.5-0.6-0.8-0.6-0.9c-0.1-0.1-0.1-0.2-0.1-0.4
		s0-0.3,0-0.4c-0.1-0.1-0.1-0.2-0.2-0.4s-0.2-0.3-0.3-0.4c0-0.2,0-0.4,0-0.7s0-0.5,0-0.7c0-0.1,0-0.2-0.1-0.3c0-0.1-0.1-0.2-0.1-0.3
		c0-0.2,0.2-0.5,0.6-0.9c-0.1-0.3-0.3-0.4-0.6-0.4l-0.3-1c0.7-0.4,0.8-0.8,0.4-1.2c0.2-0.6,0.3-0.9,0.3-1c0,0,0.1-0.2,0.3-0.4
		c0.2-0.2,0.2-0.4,0.1-0.6c0-0.1,0.1-0.2,0.2-0.2c0.1-0.1,0.2-0.1,0.2-0.2c0-0.1-0.1-0.2-0.2-0.2s-0.2-0.1-0.2-0.2
		c0-0.1,0.1-0.3,0.3-0.6c0-0.1,0-0.3,0-0.6c0-0.3,0-0.5,0-0.6c0.2-0.5,0.3-0.8,0.3-1c0.3,0,0.4-0.2,0.4-0.7c0-0.3,0-0.5,0-0.7
		c0.1-0.1,0.3-0.3,0.7-0.6c0.6-0.6,0.9-1,1-1.1c0-0.1,0.1-0.4,0.1-0.7c0-0.3,0.1-0.6,0.1-0.7c0.1-0.1,0.2-0.2,0.4-0.3
		c0.2-0.1,0.3-0.2,0.4-0.2c0,0,0-0.1-0.1-0.2c-0.1-0.1-0.1-0.2-0.1-0.3c0.1-0.1,0.2-0.3,0.3-0.5c0.1-0.2,0.2-0.4,0.3-0.5
		c0.3-0.1,0.6-0.3,1-0.7c-0.1-0.2,0-0.6,0.3-1.3c0.7-0.1,1.1-0.5,1.2-1.2c0.1-0.1,0.2-0.1,0.3-0.1c0.1,0,0.2-0.1,0.3-0.4
		c0.1,0,0.2,0,0.3,0.1c0.1,0.1,0.2,0.1,0.3,0.2c0.3,0,0.6-0.2,1-0.7c0-0.4,0-0.6,0.1-0.7c0.1,0,0.3,0.1,0.7,0.4
		c0.7-0.1,0.9-0.5,0.7-1.3c0.3,0,0.6-0.1,1-0.3s0.7-0.3,0.9-0.4c0.3,0,0.5,0,0.5,0s0.1,0,0.1-0.1l0.1-0.1c0,0,0.1-0.1,0.3-0.1
		c0.1,0,0.2,0,0.2-0.1c0.1,0,0.3-0.1,0.5-0.4c0.2-0.2,0.4-0.4,0.5-0.4c0.1-0.1,0.3-0.1,0.7-0.1c0.4,0.1,0.6,0,0.7-0.1
		c0.1,0,0.2,0,0.4-0.1c0.1-0.1,0.2-0.2,0.3-0.2c0-0.1,0.1-0.1,0.3-0.1c0.1,0,0.3,0,0.4,0s0.2-0.1,0.3-0.2c0.1-0.1,0.2-0.2,0.4-0.2
		c0.1,0,0.2,0.1,0.3,0.2c0.1,0.1,0.2,0.2,0.3,0.2c0.1,0,0.2,0,0.4,0c0.2,0,0.4,0,0.6,0c0.2,0.3,0.6,0.5,1.3,0.6c0.1,0,0.2,0,0.4,0.1
		C377,10.5,377.1,10.5,377.2,10.5z M362.6,14.9c0,0.1,0,0.2,0,0.3c0.1,0.1,0.2,0.1,0.3,0.1c0-0.1,0-0.2-0.1-0.3
		C362.8,15,362.7,14.9,362.6,14.9z M362.6,15.2c0.1,0.1,0.2,0.1,0.3,0.1c0-0.1,0-0.2-0.1-0.3c-0.1-0.1-0.1-0.1-0.2-0.1
		C362.6,15,362.6,15.1,362.6,15.2z M369.8,24.5c0.4,0,0.8-0.1,1.2-0.4c0.4-0.2,0.8-0.4,1-0.5c0.4-0.5,0.9-0.8,1.5-1
		c0-0.1,0.1-0.2,0.3-0.4c0.4-0.7,0.6-1.2,0.6-1.5c0-0.5-0.2-0.7-0.6-0.6c-0.7,0.2-1.2,0.5-1.5,0.9c-0.3-0.2-0.7-0.1-1.2,0.3
		c-1.3,0.9-2,1.5-2,1.8c-0.2,0.1-0.4,0.2-0.6,0.4c0,0.2-0.1,0.4-0.1,0.5c-0.1,0.1-0.1,0.3-0.1,0.4c0.1,0.1,0.4,0.1,0.8,0.1
		C369.4,24.3,369.7,24.4,369.8,24.5z M368.2,24.3c0.1,0.1,0.4,0.1,0.8,0.1s0.7,0,0.8,0.1c0.4,0,0.8-0.1,1.2-0.4
		c0.4-0.2,0.8-0.4,1-0.5c0.4-0.5,0.9-0.8,1.5-1c0-0.1,0.1-0.2,0.3-0.4c0.4-0.7,0.6-1.2,0.6-1.5c0-0.5-0.2-0.7-0.6-0.6
		c-0.7,0.2-1.2,0.5-1.5,0.9c-0.3-0.2-0.7-0.1-1.2,0.3c-1.3,0.9-2,1.5-2,1.8c-0.2,0.1-0.4,0.2-0.6,0.4c0,0.2-0.1,0.4-0.1,0.5
		C368.2,24.1,368.2,24.2,368.2,24.3z"/>
</g>
</svg>
