<?xml version="1.0" encoding="utf-8"?>
<!-- Generator: Adobe Illustrator 19.0.1, SVG Export Plug-In . SVG Version: 6.00 Build 0)  -->
<svg version="1.1" id="Layer_1" xmlns="http://www.w3.org/2000/svg" xmlns:xlink="http://www.w3.org/1999/xlink" x="0px" y="0px"
	 viewBox="0 -35 400 140" enable-background="new 0 -35 400 140" xml:space="preserve">
<g>
	<path fill="#F9B7B5" d="M24.9,12c0.5,0.5,1,0.8,1.2,0.8c0.3,0.3,0.7,0.5,1.4,0.8s1.1,0.5,1.2,0.6c0,0.1,0,0.3,0,0.6
		c0.1,0.3,0.3,0.5,0.6,0.8c0.1,0.3,0.5,0.8,1.1,1.5c0.6,0.7,0.6,1.2-0.1,1.5c0,0.1,0.2,0.3,0.5,0.5c0.3,0.2,0.5,0.4,0.5,0.7
		c0,0.1,0,0.3,0,0.4s0,0.3,0,0.4c-0.1,0-0.1,0.2,0,0.6c-0.1,0.3-0.3,0.5-0.6,0.8l-0.3,0.4c-0.1,0.1-0.4,0.4-0.7,0.8
		s-0.6,0.6-0.9,0.6c0,0.4,0.1,0.7,0.2,0.8c-0.4,0.3-0.9,0.7-1.5,1.3s-1.1,1.1-1.3,1.3c-0.5,0.1-0.8,0.3-0.8,0.4
		c0.3,0.3,0.8,0.4,1.7,0.5c0.9,0.1,1.5,0.2,1.7,0.5c0.1,0,0.7,0,1.6,0c0.1,0,0.3,0.1,0.6,0.3c0.3,0.2,0.5,0.3,0.6,0.3s0.3,0,0.5-0.1
		c0.2-0.1,0.4-0.1,0.5-0.1s0.4,0.1,0.8,0.2c0.1,0,0.4,0,0.8,0s0.7,0.1,0.8,0.2c0.3,0.1,0.5,0.2,0.6,0.2c0.1,0.1,0.4,0.2,0.9,0.1
		s0.8-0.1,1,0s0.6,0.5,1.1,1.3c0.1,0,0.3,0,0.6,0c1.9,1.6,3,2.6,3.2,2.8c0.3,0.7,0.5,1.1,0.8,1.2c0,0.5,0.2,1.1,0.6,1.6
		c0.1,0.1,0.1,0.8,0,1.8c0,0.3,0.1,0.7,0.2,1.2c0.1,1.2,0,2-0.4,2.4c-0.1,1.4-0.4,2.2-0.8,2.4c0,0.1-0.2,0.6-0.6,1.4
		c0,0.1,0.1,0.2,0.3,0.3s0.3,0.2,0.3,0.3s-0.1,0.2-0.3,0.3S42.1,46.9,42,47c0.1,0.4,0,0.8-0.3,1.1s-0.5,0.6-0.5,0.9
		c-0.1,0-0.3-0.1-0.6-0.2c0,0.1-0.1,0.4-0.2,0.7c-0.1,0.3-0.3,0.6-0.4,0.7c-1.5,1.6-3,3.1-4.5,4.5v0.6c-0.1,0-0.2-0.1-0.3-0.2
		s-0.2-0.1-0.3,0c-1.4,1-2.1,1.6-2.2,1.8c-0.7,0.1-1.2,0.1-1.6,0c-0.3,0-0.4,0.1-0.4,0.4s-0.1,0.4-0.2,0.4s-0.3-0.1-0.4-0.2
		s-0.2-0.2-0.3-0.2c-0.1,0-0.2,0.1-0.3,0.2c-0.1,0.1-0.2,0.3-0.1,0.5s0,0.3-0.1,0.3c-0.4,0.3-0.9,0.2-1.4-0.2
		c-0.3,0.1-0.4,0.5-0.4,1c-0.4,0-0.7,0-0.8,0c-0.1,0-0.2-0.1-0.3-0.2c-0.1-0.1-0.2-0.2-0.3-0.2c-0.1,0-0.3,0.1-0.6,0.4
		c-0.3,0.1-0.7,0.2-1.3,0.2c-0.6,0-1,0.1-1.1,0.2c-0.1,0-0.3,0.1-0.5,0.3s-0.4,0.3-0.5,0.3s-0.4,0-0.9,0s-0.8,0-0.9,0
		c-1-0.1-1.6-0.2-1.8-0.2c-0.1,0-0.4,0-0.8,0s-0.8,0-1,0c-0.3,0.1-0.5,0.2-0.6,0.2s-0.4-0.1-0.8-0.2c-0.4-0.1-0.8-0.1-1,0
		c-0.3-0.5-1-0.7-2-0.4c-0.3-0.4-1.1-1-2.6-1.8c0,0.1,0,0.3,0,0.5s-0.1,0.3-0.2,0.3c-0.1-0.3-0.3-0.6-0.5-1.1s-0.4-0.8-0.5-0.9H7.8
		c-0.8-1.5-1.5-2.4-2-2.6c-0.1-0.8-0.5-1.4-1.2-1.8c0-0.1,0.1-0.2,0.3-0.3c0.2-0.1,0.3-0.2,0.3-0.3c-0.4-0.7-0.5-1.1-0.4-1.2
		s0.3-0.1,0.5,0s0.4,0.2,0.5,0.2c0.1-0.3,0-0.6-0.4-0.9S4.8,49,4.8,48.9s0.1-0.5,0.2-1c0.5-0.3,0.9-0.7,1.2-1.2
		c0.7-0.3,1.1-0.6,1.2-1c0.1-0.1,0.4-0.3,0.7-0.6c0.3-0.3,0.6-0.4,0.9-0.4c0.1-0.7,0.3-1,0.4-1c0.3,0,0.4,0.2,0.4,0.5
		s0.1,0.5,0.2,0.5c0.5,0,0.9-0.4,1-1.2c0.7-0.3,1.3-0.1,1.9,0.4c0.6,0.5,1,1.1,1.3,1.6c0.4,0,0.9,0.1,1.4,0.4s1,0.3,1.4,0.2
		c0.3-0.3,0.5-0.4,0.6-0.4s0.3,0.1,0.4,0.2c0.4,0.1,0.7,0.1,0.8-0.2c-0.1-0.3-0.2-0.5-0.2-0.6c1.2-0.1,2,0,2.2,0.4
		c0.1,0,0.2-0.1,0.3-0.2c0.1-0.1,0.2-0.2,0.3-0.2c0.1-0.1,0.4-0.2,0.8-0.2s0.7-0.1,0.8-0.2c0.1,0,0.2,0,0.3-0.1
		c0.1-0.1,0.1-0.1,0.2-0.2s0.2-0.1,0.5-0.1c0.4-0.1,0.6-0.3,0.6-0.4l-0.2-1c0.1,0,0.3,0.2,0.4,0.6c1.1-0.3,2.2-1,3.5-2
		c-0.1-0.1-0.3-0.3-0.4-0.4c-0.1,0-0.4,0-0.8,0c-0.5-0.3-2-0.4-4.5-0.4c-0.3,0-0.7-0.1-1.3-0.2c-0.6-0.1-1-0.2-1.2-0.2
		s-0.6,0.2-1.1,0.5s-1,0.4-1.4,0.1c-0.1-0.5-0.3-0.9-0.6-1c-0.8-0.4-1.5-0.3-2,0.2v-0.4c-0.4-0.5-1.1-0.6-2-0.2
		c-0.1,0-0.2-0.1-0.2-0.4c-0.5-0.3-1-0.6-1.4-1c-0.1,0-0.3,0.1-0.4,0.2h-0.2c-0.1,0-0.3-0.2-0.6-0.6c-0.7,0.1-1.3,0-1.8-0.4
		s-1-0.7-1.2-1c-0.1,0-0.3,0-0.5,0.1S6.3,36.5,6,36.5c0-0.3,0-0.5,0-0.6c-0.1-0.3-0.5-0.7-1.2-1.4c-0.7-0.7-1.1-1.3-1.4-1.8
		c-0.5-0.7-1-1.2-1.2-1.6c-0.1,0-0.3-0.1-0.4-0.2c0-0.1-0.1-0.3-0.2-0.6c-0.1-0.5-0.3-0.9-0.6-1c0-0.5-0.1-1.1-0.2-1.8
		c-0.1,0-0.3,0-0.4,0l-0.2-0.2c-0.1-0.3-0.1-0.6,0-1h0.4C0.9,26,1,25.5,1,24.8s0.1-1.3,0.4-1.7c0.1,0,0.2,0.1,0.3,0.2
		c0.1,0.1,0.2,0.3,0.3,0.4c0.1-0.1,0.3-0.4,0.4-0.8c0.1-0.4,0.3-0.6,0.4-0.6c0.1-0.1,0.1-0.3,0-0.6C3,21.4,3.4,21.3,4,21.3
		c0.5-0.1,0.9-0.2,1-0.3c0.1,0,0.3-0.2,0.5-0.5S5.9,20,6.2,20c0.1-0.1,0.5-0.2,1-0.3s0.9-0.2,1-0.5c0.5,0,1-0.2,1.2-0.6
		c0.5,0,0.9-0.2,1-0.6c0.5,0,1-0.1,1.2-0.4c0-0.1,0-0.2-0.1-0.3c-0.1-0.1-0.1-0.2-0.1-0.3c0.4-0.1,0.8-0.1,1.2,0.2
		c0.1,0,0.4-0.2,0.7-0.6c0.3-0.4,0.6-0.6,0.9-0.6c0.1,0,0.2,0,0.3,0s0.2,0,0.3,0c0.1-0.1,0.3-0.3,0.6-0.6S15.9,15,16,15
		c1.1,0,1.8-0.5,2-1.4c1-0.5,1.6-0.6,2-0.2c0.3-0.1,0.6-0.4,1-0.8s0.7-0.7,1-0.8c0.1,0.1,0.4,0.3,0.8,0.6c0.4,0.1,0.8,0.1,1.1,0
		C24.5,12.1,24.8,12,24.9,12z M24.2,12.2c0.3-0.1,0.6-0.2,0.7-0.2c0.5,0.5,1,0.8,1.2,0.8c0.3,0.3,0.7,0.5,1.4,0.8s1.1,0.5,1.2,0.6
		c0,0.1,0,0.3,0,0.6c0.1,0.3,0.3,0.5,0.6,0.8c0.1,0.3,0.5,0.8,1.1,1.5c0.6,0.7,0.6,1.2-0.1,1.5c0,0.1,0.2,0.3,0.5,0.5
		c0.3,0.2,0.5,0.4,0.5,0.7c0,0.1,0,0.3,0,0.4s0,0.3,0,0.4c-0.1,0-0.1,0.2,0,0.6c-0.1,0.3-0.3,0.5-0.6,0.8l-0.3,0.4
		c-0.1,0.1-0.4,0.4-0.7,0.8s-0.6,0.6-0.9,0.6c0,0.4,0.1,0.7,0.2,0.8c-0.4,0.3-0.9,0.7-1.5,1.3s-1.1,1.1-1.3,1.3
		c-0.5,0.1-0.8,0.3-0.8,0.4c0.3,0.3,0.8,0.4,1.7,0.5c0.9,0.1,1.5,0.2,1.7,0.5c0.1,0,0.7,0,1.6,0c0.1,0,0.3,0.1,0.6,0.3
		c0.3,0.2,0.5,0.3,0.6,0.3s0.3,0,0.5-0.1c0.2-0.1,0.4-0.1,0.5-0.1s0.4,0.1,0.8,0.2c0.1,0,0.4,0,0.8,0s0.7,0.1,0.8,0.2
		c0.3,0.1,0.5,0.2,0.6,0.2c0.1,0.1,0.4,0.2,0.9,0.1s0.8-0.1,1,0s0.6,0.5,1.1,1.3c0.1,0,0.3,0,0.6,0c1.9,1.6,3,2.6,3.2,2.8
		c0.3,0.7,0.5,1.1,0.8,1.2c0,0.5,0.2,1.1,0.6,1.6c0.1,0.1,0.1,0.8,0,1.8c0,0.3,0.1,0.7,0.2,1.2c0.1,1.2,0,2-0.4,2.4
		c-0.1,1.4-0.4,2.2-0.8,2.4c0,0.1-0.2,0.6-0.6,1.4c0,0.1,0.1,0.2,0.3,0.3s0.3,0.2,0.3,0.3s-0.1,0.2-0.3,0.3S42.1,46.9,42,47
		c0.1,0.4,0,0.8-0.3,1.1s-0.5,0.6-0.5,0.9c-0.1,0-0.3-0.1-0.6-0.2c0,0.1-0.1,0.4-0.2,0.7c-0.1,0.3-0.3,0.6-0.4,0.7
		c-1.5,1.6-3,3.1-4.5,4.5v0.6c-0.1,0-0.2-0.1-0.3-0.2s-0.2-0.1-0.3,0c-1.4,1-2.1,1.6-2.2,1.8c-0.7,0.1-1.2,0.1-1.6,0
		c-0.3,0-0.4,0.1-0.4,0.4s-0.1,0.4-0.2,0.4s-0.3-0.1-0.4-0.2s-0.2-0.2-0.3-0.2c-0.1,0-0.2,0.1-0.3,0.2c-0.1,0.1-0.2,0.3-0.1,0.5
		s0,0.3-0.1,0.3c-0.4,0.3-0.9,0.2-1.4-0.2c-0.3,0.1-0.4,0.5-0.4,1c-0.4,0-0.7,0-0.8,0c-0.1,0-0.2-0.1-0.3-0.2
		c-0.1-0.1-0.2-0.2-0.3-0.2c-0.1,0-0.3,0.1-0.6,0.4c-0.3,0.1-0.7,0.2-1.3,0.2c-0.6,0-1,0.1-1.1,0.2c-0.1,0-0.3,0.1-0.5,0.3
		s-0.4,0.3-0.5,0.3s-0.4,0-0.9,0s-0.8,0-0.9,0c-1-0.1-1.6-0.2-1.8-0.2c-0.1,0-0.4,0-0.8,0s-0.8,0-1,0c-0.3,0.1-0.5,0.2-0.6,0.2
		s-0.4-0.1-0.8-0.2c-0.4-0.1-0.8-0.1-1,0c-0.3-0.5-1-0.7-2-0.4c-0.3-0.4-1.1-1-2.6-1.8c0,0.1,0,0.3,0,0.5s-0.1,0.3-0.2,0.3
		c-0.1-0.3-0.3-0.6-0.5-1.1s-0.4-0.8-0.5-0.9H7.8c-0.8-1.5-1.5-2.4-2-2.6c-0.1-0.8-0.5-1.4-1.2-1.8c0-0.1,0.1-0.2,0.3-0.3
		c0.2-0.1,0.3-0.2,0.3-0.3c-0.4-0.7-0.5-1.1-0.4-1.2s0.3-0.1,0.5,0s0.4,0.2,0.5,0.2c0.1-0.3,0-0.6-0.4-0.9S4.8,49,4.8,48.9
		s0.1-0.5,0.2-1c0.5-0.3,0.9-0.7,1.2-1.2c0.7-0.3,1.1-0.6,1.2-1c0.1-0.1,0.4-0.3,0.7-0.6c0.3-0.3,0.6-0.4,0.9-0.4
		c0.1-0.7,0.3-1,0.4-1c0.3,0,0.4,0.2,0.4,0.5s0.1,0.5,0.2,0.5c0.5,0,0.9-0.4,1-1.2c0.7-0.3,1.3-0.1,1.9,0.4c0.6,0.5,1,1.1,1.3,1.6
		c0.4,0,0.9,0.1,1.4,0.4s1,0.3,1.4,0.2c0.3-0.3,0.5-0.4,0.6-0.4s0.3,0.1,0.4,0.2c0.4,0.1,0.7,0.1,0.8-0.2c-0.1-0.3-0.2-0.5-0.2-0.6
		c1.2-0.1,2,0,2.2,0.4c0.1,0,0.2-0.1,0.3-0.2c0.1-0.1,0.2-0.2,0.3-0.2c0.1-0.1,0.4-0.2,0.8-0.2s0.7,0,0.8,0c0.1-0.1,0.2-0.2,0.3-0.3
		c0.1-0.1,0.1-0.1,0.2-0.2s0.2-0.1,0.5-0.1c0.4-0.1,0.6-0.3,0.6-0.4l-0.2-1c0.1,0,0.3,0.2,0.4,0.6c1.1-0.3,2.2-1,3.5-2
		c-0.1-0.1-0.3-0.3-0.4-0.4c-0.1,0-0.4,0-0.8,0c-0.5-0.3-2-0.4-4.5-0.4c-0.3,0-0.7-0.1-1.3-0.2c-0.6-0.1-1-0.2-1.2-0.2
		s-0.6,0.2-1.1,0.5s-1,0.4-1.4,0.1c-0.1-0.5-0.3-0.9-0.6-1c-0.8-0.4-1.5-0.3-2,0.2v-0.4c-0.4-0.5-1.1-0.6-2-0.2
		c-0.1,0-0.2-0.1-0.2-0.4c-0.5-0.3-1-0.6-1.4-1c-0.1,0-0.3,0.1-0.4,0.2h-0.2c-0.1,0-0.3-0.2-0.6-0.6c-0.7,0.1-1.3,0-1.8-0.4
		s-1-0.7-1.2-1c-0.1,0-0.3,0-0.5,0.1S6.3,36.5,6,36.5c0-0.3,0-0.5,0-0.6c-0.1-0.3-0.5-0.7-1.2-1.4c-0.7-0.7-1.1-1.3-1.4-1.8
		c-0.5-0.7-1-1.2-1.2-1.6c-0.1,0-0.3-0.1-0.4-0.2c0-0.1-0.1-0.3-0.2-0.6c-0.1-0.5-0.3-0.9-0.6-1c0-0.5-0.1-1.1-0.2-1.8
		c-0.1,0-0.3,0-0.4,0l-0.2-0.2c-0.1-0.3-0.1-0.6,0-1h0.4C0.9,26,1,25.5,1,24.8s0.1-1.3,0.4-1.7c0.1,0,0.2,0.1,0.3,0.2
		c0.1,0.1,0.2,0.3,0.3,0.4c0.1-0.1,0.3-0.4,0.4-0.8c0.1-0.4,0.3-0.6,0.4-0.6c0.1-0.1,0.1-0.3,0-0.6C3,21.4,3.4,21.3,4,21.3
		c0.5-0.1,0.9-0.2,1-0.3c0.1,0,0.3-0.2,0.5-0.5S5.9,20,6.2,20c0.1-0.1,0.5-0.2,1-0.3s0.9-0.2,1-0.5c0.5,0,1-0.2,1.2-0.6
		c0.5,0,0.9-0.2,1-0.6c0.5,0,1-0.1,1.2-0.4c0-0.1,0-0.2-0.1-0.3c-0.1-0.1-0.1-0.2-0.1-0.3c0.4-0.1,0.8-0.1,1.2,0.2
		c0.1,0,0.4-0.2,0.7-0.6c0.3-0.4,0.6-0.6,0.9-0.6c0.1,0,0.2,0,0.3,0s0.2,0,0.3,0c0.1-0.1,0.3-0.3,0.6-0.6S15.9,15,16,15
		c1.1,0,1.8-0.5,2-1.4c1-0.5,1.6-0.6,2-0.2c0.3-0.1,0.6-0.4,1-0.8s0.7-0.7,1-0.8c0.1,0.1,0.4,0.3,0.8,0.6
		C23.5,12.4,23.8,12.4,24.2,12.2z"/>
	<path fill="#F9B7B5" d="M86.9,11.2c0,0.4,0.3,1,1,1.6c1.3,1.1,2.2,1.7,2.6,1.8c0,0.1,0,0.2-0.1,0.3s-0.1,0.2-0.1,0.3
		c0.3,0.3,0.6,0.6,1.1,1s0.8,0.7,0.9,1c0,0.4,0.2,1,0.6,1.7c0.4,0.7,0.4,1.3,0,1.5l1.2,2.4c0,0.1-0.1,0.3-0.3,0.6
		c-0.2,0.3-0.3,0.5-0.3,0.8c-0.1,0.3-0.1,0.9,0,1.8c0.1,1,0.1,1.7,0,2.2c-0.4,0.5-0.7,0.9-0.8,1c0,0.3-0.1,0.6-0.2,1.1
		s-0.2,0.8-0.2,1.1c-0.1,0.1-0.4,0.4-0.7,0.9c-0.3,0.5-0.5,0.8-0.5,1.1c-0.8,0.7-1.2,1.3-1.2,1.8c-0.1,0-0.2,0-0.3,0
		c-0.1,0-0.2,0-0.3,0v1.2c-0.1,0-0.3,0-0.4-0.1s-0.3-0.1-0.4-0.1c-0.3,0-0.5,0.2-0.6,0.5s-0.3,0.6-0.4,0.7c-0.1,0-0.5,0-1-0.1
		s-0.9,0-1,0.1C85.2,37.8,85,38,84.9,38s-0.3,0.1-0.5,0.2s-0.4,0.2-0.5,0.3s-0.3,0.2-0.6,0.5c-0.1,0-0.3,0-0.5,0.1s-0.3,0.2-0.3,0.3
		s0.1,0.2,0.2,0.3s0.1,0.2,0,0.3c-0.8,0.8-1.8,1.1-2.8,1c-0.1,0.1-0.5,0.3-1,0.4c-0.1,0.1-0.3,0.3-0.6,0.5c-0.3,0.2-0.4,0.3-0.5,0.3
		s-0.2,0-0.4,0c-0.2,0-0.4,0-0.5,0c-0.3,0-0.6,0.1-1,0.3s-0.7,0.3-0.8,0.3c-0.1,0-0.3-0.1-0.6-0.2c-0.3-0.1-0.5-0.2-0.6-0.2
		c-0.5,0.3-0.9,0.4-1,0.4s-0.2-0.1-0.3-0.2c-0.1-0.1-0.2-0.2-0.3-0.2l-1.2-0.2c-0.3-0.3-0.4-0.4-0.5-0.4s-0.5,0-1.3-0.1
		s-1.4-0.1-1.6-0.1c-0.3,0.1-0.4,0.3-0.3,0.6s0.2,0.4,0.3,0.4c0.4,1.6,0.9,2.7,1.4,3.2v0.6c0.4,0.5,1.1,1.1,2,1.5
		c1,0.5,1.6,0.9,1.8,1.1c0.8,0.1,1.3,0,1.6-0.4c0.5,0,0.8,0,0.9,0.1s0,0.2-0.1,0.5c0.1,0.1,0.4,0.3,0.8,0.4s0.7,0.2,0.8,0.2
		c0-0.1,0.2-0.3,0.5-0.4s0.6-0.1,0.7,0v0.4c0.4,0.4,1.3,0.6,2.7,0.6c1.4,0,2.4,0.1,3,0.2c0.8-0.4,1.4-0.7,1.8-0.8
		c0.1,0,0.3,0.1,0.6,0.2c0.9,0.1,2.4-0.2,4.5-1c0.1,0,0.3-0.1,0.6-0.3c0.3-0.2,0.5-0.3,0.8-0.3c0.1-0.1,0.4-0.2,0.8-0.1
		s0.7,0.1,0.8,0.1c0.1,0,0.2-0.1,0.3-0.2c0.1-0.1,0.1-0.2,0.2-0.2s0.3-0.1,0.7-0.2c0.4-0.1,0.7-0.3,0.8-0.4c1.1,0,2.2-0.6,3.2-1.8
		c0.1,0,0.3,0.1,0.6,0.4c0.3,0,0.5-0.1,0.7-0.4s0.4-0.4,0.7-0.4c0.1,0,0.3-0.1,0.4-0.2s0.2-0.3,0.2-0.4c0.5,0.1,1,0,1.4-0.4
		c0.4,0.1,0.8,0,1.2-0.4c0.1-0.1,0.3-0.2,0.4-0.3s0.3-0.1,0.5-0.1s0.4,0,0.5,0c0.1-0.1,0.4-0.3,0.7-0.5c0.3-0.2,0.6-0.4,0.9-0.5
		l2,0.2c0.1,0,0.2,0.1,0.3,0.3c0.1,0.2,0.2,0.3,0.3,0.3c0.5-0.1,0.9-0.1,1,0c0,0.1-0.2,0.2-0.6,0.2c0,0.3,0.3,0.4,0.8,0.4
		c1,0.5,1.4,1.2,1.4,1.8c0.7,0.1,1.1,0.3,1.2,0.4c0.4,1,0.2,2-0.6,3.2v0.2c-0.7,0-1.2,0.3-1.5,1s-0.6,1.1-0.7,1.2s-0.3,0.3-0.5,0.4
		s-0.4,0.3-0.5,0.4c0-0.1-0.1-0.1-0.4,0c-0.1,0-0.3,0.2-0.5,0.5s-0.4,0.5-0.5,0.6s-0.4,0.2-0.8,0.3s-0.7,0.3-0.8,0.4
		c-0.1,0-0.3,0.1-0.4,0.4s-0.3,0.5-0.4,0.6c-0.3,0.1-0.8,0.2-1.5,0.3c-0.8,0.1-1.3,0.2-1.7,0.5c-1.2,0.1-1.9,0.3-2,0.4
		c0,0.3,0,0.5,0,0.6c-1,0.1-1.6,0.5-1.8,1c-0.5-0.1-1.2,0-1.8,0.4c-0.3,0.3-0.5,0.5-0.8,0.6h-0.4c-0.1,0.1-0.3,0.3-0.6,0.4
		c-0.5,0.3-0.9,0.3-1.2,0c-0.5,0.4-1,0.7-1.4,0.8c-0.4,0.3-0.6,0.5-0.6,0.6c-0.4,0.1-1.1,0.2-2,0.2c-0.1,0-0.3,0-0.5,0s-0.4,0-0.5,0
		s-0.3,0.1-0.4,0.2s-0.3,0.3-0.4,0.4c-0.1,0-0.3,0-0.5,0s-0.4,0-0.5,0s-0.4,0.1-0.8,0.2c-0.1,0-0.3,0-0.6-0.1
		c-0.3-0.1-0.5-0.1-0.6-0.1c-0.3,0-0.6,0-1,0.1s-0.7,0.1-1,0.1s-0.7,0-1.3-0.1c-0.6-0.1-1.1-0.1-1.4-0.1s-0.8,0.1-1.3,0.2
		c-0.9,0.1-1.5,0.1-1.6-0.2c-0.3,0-0.6,0-1.1,0.1s-0.9,0.1-1.1,0.1c-0.1,0-0.3,0-0.5-0.1s-0.3-0.1-0.4-0.1s-0.2,0-0.4,0
		c-0.2,0-0.3,0-0.4,0s-0.2,0-0.3-0.1c-0.1-0.1-0.3-0.2-0.4-0.3c-0.1,0-0.3,0-0.5,0.1s-0.3,0.1-0.4,0.1s-0.3-0.1-0.7-0.4
		c-1-0.3-1.4-0.5-1.4-0.6c-0.5-0.1-0.9-0.3-1-0.4c0-0.1-0.3-0.2-0.8-0.3s-0.9-0.2-1-0.5c-0.5,0-1-0.2-1.4-0.6
		c-0.4,0-0.9-0.1-1.4-0.4c-0.4,0-0.7,0-0.8,0c0-0.3,0-0.5,0-0.6c-1.1-0.9-1.8-1.7-2.2-2.2c-0.1,0-0.3,0-0.4,0.1
		c-0.1,0.1-0.3,0-0.4-0.1c0-0.1-0.1-0.4-0.4-0.7c-0.3-0.3-0.4-0.6-0.4-0.9c-0.3-0.1-0.5-0.2-0.8-0.2v-0.4c-0.4-0.3-0.8-0.5-1.2-0.6
		c-0.7-1-1.1-1.4-1.2-1.4v-0.4c-0.1-0.3-0.4-0.7-0.7-1.4s-0.6-1.1-0.7-1.2c-0.5-0.7-0.8-1.1-0.8-1.2c-0.1-0.1-0.2-0.3-0.1-0.6
		c0.1-0.3,0.1-0.5,0-0.6s-0.2-0.3-0.3-0.6s-0.3-0.5-0.4-0.6c0-0.3,0-0.6,0-1s0-0.7,0-1c0-0.1,0-0.3-0.1-0.4s-0.1-0.3-0.1-0.4
		c0-0.3,0.3-0.7,0.8-1.2c-0.1-0.4-0.4-0.6-0.8-0.6l-0.4-1.4c0.9-0.5,1.1-1.1,0.6-1.6c0.3-0.8,0.4-1.2,0.4-1.3s0.1-0.2,0.4-0.5
		c0.3-0.3,0.3-0.5,0.2-0.8c0-0.1,0.1-0.2,0.3-0.3c0.2-0.1,0.3-0.2,0.3-0.3s-0.1-0.2-0.3-0.3c-0.2-0.1-0.3-0.2-0.3-0.3
		s0.1-0.4,0.4-0.8c0-0.1,0-0.4,0-0.8s0-0.7,0-0.8c0.3-0.7,0.4-1.1,0.4-1.4c0.4,0,0.6-0.3,0.6-1c0-0.4,0-0.7,0-1
		c0.1-0.1,0.5-0.4,1-0.8c0.8-0.8,1.3-1.3,1.3-1.5c0.1-0.2,0.1-0.5,0.1-1s0.1-0.8,0.2-0.9c0.1-0.1,0.3-0.3,0.6-0.4s0.4-0.2,0.5-0.3
		s0-0.2-0.1-0.3s-0.2-0.3-0.2-0.4c0.1-0.1,0.3-0.4,0.4-0.7c0.1-0.3,0.3-0.6,0.4-0.7c0.4-0.1,0.9-0.5,1.4-1c-0.1-0.3,0-0.9,0.4-1.8
		c0.9-0.1,1.5-0.7,1.6-1.6c0.1-0.1,0.3-0.2,0.4-0.2s0.3-0.2,0.4-0.6c0.1,0,0.3,0,0.4,0.1s0.3,0.2,0.4,0.3c0.4,0,0.9-0.3,1.4-1
		c0-0.5,0.1-0.9,0.2-1c0.1,0,0.5,0.2,1,0.6c0.9-0.1,1.3-0.7,1-1.8c0.4,0,0.9-0.1,1.4-0.4c0.5-0.3,1-0.5,1.2-0.6c0.4,0,0.6,0,0.7,0
		s0.1,0,0.2-0.1c0.1-0.1,0.1-0.1,0.2-0.2C72.7,11,72.8,11,73,11c0.2,0,0.3-0.1,0.3-0.2c0.1,0,0.4-0.2,0.7-0.5s0.6-0.5,0.7-0.5
		c0.1-0.1,0.5-0.2,1-0.1c0.5,0.1,0.9,0,1-0.1c0.1,0,0.3-0.1,0.5-0.2s0.3-0.2,0.4-0.3S77.8,9,78,9c0.2,0,0.4,0,0.5,0s0.3-0.1,0.4-0.3
		c0.1-0.2,0.3-0.3,0.6-0.3c0.1,0,0.3,0.1,0.4,0.3S80.2,9,80.3,9s0.3,0,0.6,0c0.3,0,0.5,0,0.8,0c0.3,0.4,0.9,0.7,1.8,0.8
		c0.1,0,0.3,0,0.5,0.1s0.4,0.1,0.5,0.1l1.6,0.4C86.1,10.8,86.5,11.2,86.9,11.2z M84.2,9.6l1.6,0.4c0.3,0.8,0.6,1.2,1,1.2
		c0,0.4,0.3,1,1,1.6c1.3,1.1,2.2,1.7,2.6,1.8c0,0.1,0,0.2-0.1,0.3s-0.1,0.2-0.1,0.3c0.3,0.3,0.6,0.6,1.1,1s0.8,0.7,0.9,1
		c0,0.4,0.2,1,0.6,1.7c0.4,0.7,0.4,1.3,0,1.5l1.2,2.4c0,0.1-0.1,0.3-0.3,0.6c-0.2,0.3-0.3,0.5-0.3,0.8c-0.1,0.3-0.1,0.9,0,1.8
		c0.1,1,0.1,1.7,0,2.2c-0.4,0.5-0.7,0.9-0.8,1c0,0.3-0.1,0.6-0.2,1.1s-0.2,0.8-0.2,0.9c-0.1,0.3-0.4,0.6-0.7,1.1
		c-0.3,0.5-0.5,0.8-0.5,1.1c-0.8,0.7-1.2,1.3-1.2,1.8c-0.1,0-0.2,0-0.3,0c-0.1,0-0.2,0-0.3,0v1.2c-0.1,0-0.3,0-0.4-0.1
		s-0.3-0.1-0.4-0.1c-0.3,0-0.5,0.2-0.6,0.5s-0.3,0.6-0.4,0.7c-0.1,0-0.5,0-1-0.1s-0.9,0-1,0.1c-0.3,0.4-0.5,0.6-0.6,0.6
		s-0.3,0.1-0.5,0.2s-0.4,0.2-0.5,0.3s-0.3,0.2-0.6,0.5c-0.1,0-0.3,0-0.5,0.1s-0.3,0.2-0.3,0.3s0.1,0.2,0.2,0.3s0.1,0.2,0,0.3
		c-0.8,0.8-1.8,1.1-2.8,1c-0.1,0.1-0.5,0.3-1,0.4c-0.1,0.1-0.3,0.3-0.6,0.5c-0.3,0.2-0.4,0.3-0.5,0.3s-0.2,0-0.4,0
		c-0.2,0-0.4,0-0.5,0c-0.3,0-0.6,0.1-1,0.3s-0.7,0.3-0.8,0.3c-0.1,0-0.3-0.1-0.6-0.2c-0.3-0.1-0.5-0.2-0.6-0.2
		c-0.5,0.3-0.9,0.4-1,0.4s-0.2-0.1-0.3-0.2c-0.1-0.1-0.2-0.2-0.3-0.2L71,42.2c-0.3-0.3-0.4-0.4-0.5-0.4s-0.5,0-1.3-0.1
		s-1.4-0.1-1.8-0.1c-0.1,0.1-0.2,0.3-0.1,0.6s0.2,0.4,0.3,0.4c0.4,1.6,0.9,2.7,1.4,3.2v0.6c0.4,0.5,1.1,1.1,2,1.5
		c1,0.5,1.6,0.9,1.8,1.1c0.8,0.1,1.3,0,1.6-0.4c0.5,0,0.8,0,0.9,0.1s0,0.2-0.1,0.5c0.1,0.1,0.4,0.3,0.8,0.4h0.8
		c0.7-0.3,1.1-0.3,1.2-0.2v0.4c0.4,0.4,1.3,0.6,2.7,0.6c1.4,0,2.4,0.1,3,0.2c0.8-0.4,1.4-0.7,1.8-0.8c0.1,0,0.3,0.1,0.6,0.2
		c0.9,0.1,2.4-0.2,4.5-1c0.1,0,0.3-0.1,0.6-0.3c0.3-0.2,0.5-0.3,0.8-0.3c0.1-0.1,0.4-0.2,0.8-0.1s0.7,0.1,0.8,0.1
		c0.1,0,0.2-0.1,0.3-0.2C94,48.1,94,48,94.1,48s0.3-0.1,0.7-0.2c0.4-0.1,0.7-0.3,0.8-0.4c1.1,0,2.2-0.6,3.2-1.8
		c0.1,0,0.3,0.1,0.6,0.4c0.3,0,0.5-0.1,0.7-0.4s0.4-0.4,0.7-0.4c0.1,0,0.3-0.1,0.4-0.2s0.2-0.3,0.2-0.4c0.5,0.1,1,0,1.4-0.4
		c0.4,0.1,0.8,0,1.2-0.4c0.1-0.1,0.3-0.2,0.4-0.3s0.3-0.1,0.5-0.1s0.4,0,0.5,0c0.1-0.1,0.4-0.3,0.7-0.5c0.3-0.2,0.6-0.4,0.9-0.5
		l2,0.2c0.1,0,0.2,0.1,0.3,0.3c0.1,0.2,0.2,0.3,0.3,0.3c0.5-0.1,0.9-0.1,1,0c0,0.1-0.2,0.2-0.6,0.2c0,0.3,0.3,0.4,0.8,0.4
		c1,0.5,1.4,1.2,1.4,1.8c0.7,0.1,1.1,0.3,1.2,0.4c0.4,1,0.2,2-0.6,3.2v0.2c-0.7,0-1.2,0.3-1.5,1s-0.6,1.1-0.7,1.2s-0.3,0.3-0.5,0.4
		s-0.4,0.3-0.5,0.4c0-0.1-0.1-0.1-0.4,0c-0.1,0-0.3,0.2-0.5,0.5s-0.4,0.5-0.5,0.6s-0.4,0.2-0.8,0.3s-0.7,0.3-0.8,0.4
		c-0.1,0-0.3,0.1-0.4,0.4s-0.3,0.5-0.4,0.6c-0.3,0.1-0.8,0.2-1.5,0.3c-0.8,0.1-1.3,0.2-1.7,0.5c-1.2,0.1-1.9,0.3-2,0.4
		c0,0.3,0,0.5,0,0.6c-1,0.1-1.6,0.5-1.8,1c-0.5-0.1-1.2,0-1.8,0.4c-0.3,0.3-0.5,0.5-0.8,0.6h-0.4c-0.1,0.1-0.3,0.3-0.6,0.4
		c-0.5,0.3-0.9,0.3-1.2,0c-0.5,0.4-1,0.7-1.4,0.8c-0.4,0.3-0.6,0.5-0.6,0.6c-0.4,0.1-1.1,0.2-2,0.2c-0.1,0-0.3,0-0.5,0s-0.4,0-0.5,0
		s-0.3,0.1-0.4,0.2s-0.3,0.3-0.4,0.4c-0.1,0-0.3,0-0.5,0s-0.4,0-0.5,0s-0.4,0.1-0.8,0.2c-0.1,0-0.3,0-0.6-0.1
		c-0.3-0.1-0.5-0.1-0.6-0.1c-0.3,0-0.6,0-1,0.1s-0.7,0.1-1,0.1s-0.7,0-1.3-0.1c-0.6-0.1-1.1-0.1-1.4-0.1s-0.8,0.1-1.3,0.2
		c-0.9,0.1-1.5,0.1-1.6-0.2c-0.3,0-0.6,0-1.1,0.1s-0.9,0.1-1.1,0.1c-0.1,0-0.3,0-0.5-0.1s-0.3-0.1-0.4-0.1s-0.2,0-0.4,0
		c-0.2,0-0.3,0-0.4,0s-0.2,0-0.3-0.1c-0.1-0.1-0.3-0.2-0.4-0.3c-0.1,0-0.3,0-0.5,0.1s-0.3,0.1-0.4,0.1s-0.3-0.1-0.7-0.4
		c-1-0.3-1.4-0.5-1.4-0.6c-0.5-0.1-0.9-0.3-1-0.4c0-0.1-0.3-0.2-0.8-0.3s-0.9-0.2-1-0.5c-0.5,0-1-0.2-1.4-0.6
		c-0.4,0-0.9-0.1-1.4-0.4c-0.4,0-0.7,0-0.8,0c0-0.3,0-0.5,0-0.6c-1.1-0.9-1.8-1.7-2.2-2.2c-0.1,0-0.3,0-0.4,0.1
		c-0.1,0.1-0.3,0-0.4-0.1c0-0.1-0.1-0.4-0.4-0.7c-0.3-0.3-0.4-0.6-0.4-0.9c-0.3-0.1-0.5-0.2-0.8-0.2v-0.4c-0.4-0.3-0.8-0.5-1.2-0.6
		c-0.7-1-1.1-1.4-1.2-1.4v-0.4c-0.1-0.3-0.4-0.7-0.7-1.4s-0.6-1.1-0.7-1.2c-0.5-0.7-0.8-1.1-0.8-1.2c-0.1-0.1-0.2-0.3-0.1-0.6
		c0.1-0.3,0.1-0.5,0-0.6s-0.2-0.3-0.3-0.6s-0.3-0.5-0.4-0.6c0-0.3,0-0.6,0-1s0-0.7,0-1c0-0.1,0-0.3-0.1-0.4s-0.1-0.3-0.1-0.4
		c0-0.3,0.3-0.7,0.8-1.2c-0.1-0.4-0.4-0.6-0.8-0.6L53,38.6c0.9-0.5,1.1-1.1,0.6-1.6c0.3-0.8,0.4-1.2,0.4-1.3s0.1-0.2,0.4-0.5
		c0.3-0.3,0.3-0.5,0.2-0.8c0-0.1,0.1-0.2,0.3-0.3c0.2-0.1,0.3-0.2,0.3-0.3s-0.1-0.2-0.3-0.3c-0.2-0.1-0.3-0.2-0.3-0.3
		s0.1-0.4,0.4-0.8c0-0.1,0-0.4,0-0.8s0-0.7,0-0.8c0.3-0.7,0.4-1.1,0.4-1.4c0.4,0,0.6-0.3,0.6-1c0-0.4,0-0.7,0-1
		c0.1-0.1,0.5-0.4,1-0.8c0.8-0.8,1.3-1.3,1.3-1.5c0.1-0.2,0.1-0.5,0.1-1s0.1-0.8,0.2-0.9c0.1-0.1,0.3-0.3,0.6-0.4s0.4-0.2,0.5-0.3
		s0-0.2-0.1-0.3s-0.2-0.3-0.2-0.4c0.1-0.1,0.3-0.4,0.4-0.7c0.1-0.3,0.3-0.6,0.4-0.7c0.4-0.1,0.9-0.5,1.4-1c-0.1-0.3,0-0.9,0.4-1.8
		c0.9-0.1,1.5-0.7,1.6-1.6c0.1-0.1,0.3-0.2,0.4-0.2c0.1,0,0.3-0.2,0.4-0.6c0.1,0,0.3,0,0.4,0.1s0.3,0.2,0.4,0.3c0.4,0,0.9-0.3,1.4-1
		c0-0.5,0.1-0.9,0.2-1c0.1,0,0.5,0.2,1,0.6c0.9-0.1,1.3-0.7,1-1.8c0.4,0,0.9-0.1,1.4-0.4c0.5-0.3,1-0.5,1.2-0.6c0.4,0,0.6,0,0.7,0
		s0.1,0,0.2-0.1c0.1-0.1,0.1-0.1,0.2-0.2c0.1-0.1,0.2-0.1,0.4-0.1c0.2,0,0.3-0.1,0.3-0.2c0.1,0,0.4-0.2,0.7-0.5s0.6-0.5,0.7-0.5
		c0.1-0.1,0.5-0.2,1-0.1c0.5,0.1,0.9,0,1-0.1c0.1,0,0.3-0.1,0.5-0.2s0.3-0.2,0.4-0.3S77.7,9,77.9,9c0.2,0,0.4,0,0.5,0
		s0.3-0.1,0.4-0.3c0.1-0.2,0.3-0.3,0.6-0.3c0.1,0,0.3,0.1,0.4,0.3S80.1,9,80.2,9s0.3,0,0.6,0c0.3,0,0.5,0,0.8,0
		c0.3,0.4,0.9,0.7,1.8,0.8c0.1,0,0.3,0,0.5,0.1C84.1,10,84.1,9.6,84.2,9.6z M63.9,15.7c0,0.1,0,0.3,0,0.4c0.1,0.1,0.3,0.2,0.4,0.2
		c0-0.1,0-0.3-0.1-0.4C64.1,15.7,64,15.7,63.9,15.7z M63.9,16.1c0.1,0.1,0.3,0.2,0.4,0.2c0-0.1,0-0.3-0.1-0.4
		c-0.1-0.1-0.2-0.2-0.3-0.2C63.9,15.8,63.9,15.9,63.9,16.1z M71.6,28.7c0.1,0.1,0.5,0.2,1.1,0.1s1,0,1.1,0.1c0.5,0,1.1-0.2,1.7-0.5
		s1.1-0.6,1.3-0.7c0.5-0.7,1.2-1.1,2-1.4c0-0.1,0.1-0.3,0.4-0.6c0.5-1,0.8-1.6,0.8-2c0-0.7-0.3-1-0.8-0.8c-1,0.3-1.6,0.7-2,1.2
		c-0.4-0.3-1-0.1-1.6,0.4c-1.8,1.2-2.7,2-2.8,2.4c-0.3,0.1-0.5,0.3-0.8,0.6c0,0.3-0.1,0.5-0.2,0.7S71.6,28.5,71.6,28.7z M73.9,28.9
		c0.5,0,1.1-0.2,1.7-0.5s1.1-0.6,1.3-0.7c0.5-0.7,1.2-1.1,2-1.4c0-0.1,0.1-0.3,0.4-0.6c0.5-1,0.8-1.6,0.8-2c0-0.7-0.3-1-0.8-0.8
		c-1,0.3-1.6,0.7-2,1.2c-0.4-0.3-1-0.1-1.6,0.4c-1.8,1.2-2.7,2-2.8,2.4c-0.3,0.1-0.5,0.3-0.8,0.6c0,0.3-0.1,0.5-0.2,0.7
		s-0.2,0.4-0.2,0.5c0.1,0.1,0.5,0.2,1.1,0.1S73.7,28.8,73.9,28.9z"/>
	<path fill="#F9B7B5" d="M156.8,13.4c0,0.3,0,0.4,0,0.4s0,0,0,0.1s0.1,0.2,0.4,0.5c0.3,0.3,0.4,0.6,0.4,1c0.1,0,0.3,0,0.5,0
		s0.4,0,0.5,0c0.1,0.4,0.4,0.8,0.9,1.2c0.5,0.4,0.7,0.8,0.7,1c0,0.1,0,0.4,0,0.8c0,0.4,0,0.7,0,0.8c0,0.1,0.1,0.2,0.4,0.2
		s0.3,0.1,0.2,0.4h-0.4c-0.1,0.3-0.1,0.7,0.2,1.2c-0.1,0.3-0.3,0.6-0.6,1l-0.4,0.8c-0.1,0.3-0.1,0.5,0.1,0.7
		c0.2,0.2,0.3,0.4,0.3,0.5c-0.4,0.4-0.6,0.7-0.6,0.8s0.1,0.3,0.2,0.5c0.1,0.2,0.2,0.4,0.2,0.5c-1,1.1-1.9,1.6-2.8,1.6
		c-0.1,0-0.3,0-0.5,0s-0.4,0-0.7,0l-0.4,0.2c-0.3,0-0.6-0.2-1.1-0.5s-0.9-0.4-1.3-0.3c-0.5-0.4-1-0.6-1.4-0.6
		c-0.3,0.3-0.5,0.4-0.6,0.5s-0.3,0.1-0.4,0.1s-0.2,0-0.3,0.1s-0.2,0.1-0.3,0.2s-0.2,0.2-0.2,0.3c-0.1,0-0.5,0.2-1,0.5
		s-1,0.6-1.2,0.9c-0.3,0.3-0.5,0.5-0.6,0.6c-0.4,0.3-1.3,1.2-2.6,2.8c-0.1,0.3-0.4,0.6-0.7,1c-0.3,0.4-0.6,0.7-0.7,0.8
		c0,0.1-0.1,0.3-0.2,0.4c-0.1,0.1-0.3,0.2-0.4,0.2c0,0.4-0.2,0.8-0.5,1.1s-0.6,0.6-0.7,0.7v1c-0.4,0.3-0.8,0.9-1.3,1.7
		c-0.5,0.9-0.8,1.5-1.1,1.7c0,0.4-0.1,0.8-0.3,1.3s-0.4,0.8-0.5,1.1c-0.3,0.1-0.4,0.3-0.4,0.4s0.1,0.3,0.2,0.4
		c0.1,0.1,0.2,0.3,0.2,0.4s-0.1,0.2-0.4,0.3c-0.3,0.1-0.5,0.1-0.6,0.1c0.1,0.5,0.5,0.7,1,0.4c0.1,0,0.3-0.2,0.6-0.5s0.6-0.5,1-0.5
		c0.1-0.1,0.3-0.3,0.4-0.4c0.1-0.1,0.3-0.3,0.4-0.4h0.4c0.3-0.1,0.6-0.4,1-0.8s0.7-0.7,0.8-0.8s0.3-0.2,0.6-0.3s0.5-0.2,0.6-0.3
		c0.3-0.1,0.5-0.5,0.8-1c0.3-0.3,0.5-0.4,0.6-0.4c0.3-0.3,0.7-0.7,1.4-1.4c0.3-0.3,0.6-0.7,1.1-1.2s0.8-0.9,1.1-1
		c1.1-1.1,1.8-1.8,2-2.2c0.3-0.1,0.8-0.6,1.6-1.4c0.1-0.7,0.2-1,0.2-1.1s0.1-0.1,0.3,0s0.4,0.1,0.5,0.1s0.2-0.1,0.3-0.4
		s0.2-0.4,0.3-0.4c0-0.1,0.1-0.3,0.4-0.4s0.5-0.2,0.6-0.3s0.3-0.2,0.4-0.5c0.1-0.3,0.3-0.5,0.4-0.6c0.4,0.1,0.9-0.1,1.4-0.6
		c0.3,0.1,0.7,0.1,1.2,0h0.4c0.1,0,0.3,0,0.4,0c0.1,0,0.3,0,0.4,0c0.1,0,0.3-0.1,0.4-0.2c0.1-0.1,0.2-0.2,0.3-0.2s0.1,0.1,0.2,0.2
		c0.1,0.1,0.2,0.2,0.3,0.2h0.2c0.1,0.1,0.4,0.3,0.8,0.6c0.1,0.1,0.3,0.2,0.5,0.1s0.4,0,0.5,0.1l0.6,1c0.5,0,1.3,0.6,2.2,1.8
		c-0.1,0.4,0.1,0.8,0.6,1.2c0.3,0.1,0.4,0.3,0.4,0.4c0.1,0,0.3,0.3,0.4,0.8c0.1,0.1,0.2,0.2,0.3,0.3s0.1,0.2,0.1,0.3
		c0.1,0.1,0.2,0.3,0.3,0.6s0.1,0.5,0.1,0.6c0.1,0.1,0.3,0.4,0.5,0.7s0.4,0.6,0.5,0.7c0.1,0.5,0.3,0.9,0.6,1.2c0,0.1,0,0.3,0.1,0.6
		s0.1,0.5,0.1,0.6l0.6,0.2c-0.3,0.5-0.2,1.1,0.3,1.5c0.5,0.5,0.7,0.9,0.7,1.3l1,1.4c0.4,0.3,0.9,0.7,1.5,1.3s1,1,1.1,1.1
		c0,0.1,0,0.2,0.1,0.3s0.1,0.2,0.1,0.3c0.3,0.3,0.8,0.8,1.6,1.7s1.5,1.5,2,1.9h0.4c0.7,0.4,1.2,0.6,1.6,0.6c0.3,0.3,0.6,0.7,1,1.2
		c0.5,0,1.4-0.3,2.4-0.8c0.1,0.1,0.5,0.1,1.2,0c1.1,0,1.8,0.1,2,0.4c0.1,0.1,0.2,0.2,0.3,0.1s0.2-0.1,0.3-0.1
		c0.4,0.5,1.2,0.6,2.4,0.2c0.1,0.3,0.1,0.6,0,1c-0.1,0.1-0.2,0.3-0.2,0.4c-0.1,0.7,0.3,1.1,1.2,1.2c0.4,0,0.7,0.1,0.8,0.2
		s0.1,0.4-0.1,0.7c-0.2,0.3-0.2,0.6-0.1,0.7c0,0.3,0.1,0.5,0.2,0.6c0.1,0.1,0.3,0.3,0.4,0.4c0,0.5-0.3,1-0.8,1.4s-0.9,0.7-1,0.8
		c0,0.3,0,0.6,0.1,0.9s0.1,0.6,0.1,0.7c-0.1,0.3-0.3,0.6-0.6,1.1s-0.4,0.8-0.4,1.1c-2,0-3.2,0.9-3.7,2.6c-0.3,0-0.5-0.1-0.6-0.2
		s-0.3-0.2-0.4-0.2c-0.1,0-0.3,0.1-0.4,0.4c0,0.1-0.1,0.2-0.2,0.2c-0.5-0.1-1-0.1-1.2,0c-0.4-0.8-0.8-0.8-1.2,0
		c-0.1,0-0.3-0.1-0.5-0.2c-0.2-0.1-0.4-0.2-0.7-0.2c-0.1,0-0.2,0.1-0.2,0.2c0,0.1-0.1,0.2-0.2,0.2c-0.1-0.1-0.6-0.2-1.4-0.2
		c-0.1-0.1-0.2-0.3-0.2-0.6c-0.1,0-0.3-0.1-0.6-0.2s-0.5-0.2-0.6-0.2s-0.3,0.1-0.4,0.2c-0.1,0.1-0.3,0.1-0.6,0
		c0-0.5-0.1-0.8-0.2-0.8c-0.5,0.1-0.9,0.2-1,0.2c0-0.5-0.1-0.9-0.4-1c-0.1,0-0.3,0.1-0.4,0.2c-0.1,0.1-0.3,0.1-0.4,0
		c0-0.3-0.1-0.4-0.2-0.4c0-0.1-0.1-0.1-0.4,0l-0.8-1c-0.3,0-0.5,0.1-0.6,0.2s-0.3,0.2-0.4,0.2v-0.6l-0.2-0.2
		c-0.3-0.1-0.7-0.5-1.4-1.1s-1.2-1-1.6-1.1c-0.3-0.4-0.7-0.9-1.3-1.4s-1-0.9-1.1-1c-0.1,0-0.3-0.1-0.6-0.2s-0.5-0.3-0.6-0.4
		c0-0.1-0.1-0.5-0.4-1c-0.5-0.1-1-0.5-1.4-1.2c0.1-0.3,0.2-0.4,0.2-0.5s-0.1-0.2-0.2-0.3c-1-0.1-1.4-0.5-1.4-1
		c0-0.1-0.5-0.6-1.4-1.4l-0.6-1.2c0-0.1,0-0.3,0-0.4s0-0.2-0.1-0.3s-0.4-0.3-1.1-0.7c-0.4-1.4-0.8-2-1.2-2c-0.4-0.1-0.9,0.2-1.4,0.9
		s-0.9,1.1-1,1.1c-0.4,0.3-0.8,0.6-1.2,1c-0.1,0.1-0.3,0.2-0.4,0.2c-0.1,0.1-0.4,0.3-0.8,0.6c-0.4,0.3-0.6,0.5-0.6,0.6
		c-0.1,0.1-0.3,0.3-0.5,0.5s-0.4,0.4-0.5,0.5s-0.3,0.3-0.6,0.4c-0.7,0.3-1,0.7-1,1.2c-0.5-0.1-1.1,0-1.6,0.5s-0.9,0.7-1,0.7
		c0,0.1-0.1,0.3-0.2,0.6c-1.1,0-1.8,0.5-2.2,1.4l-0.4-0.2c-0.1,0.3-0.5,0.5-1.1,0.6s-1,0.3-1.1,0.6c-0.5,0-0.9,0.1-1.2,0.2
		s-0.4,0.4-0.4,0.8c0,0.1-0.3,0.2-0.8,0.2c-0.1-0.4-0.3-0.6-0.4-0.6s-0.3,0.1-0.4,0.3c-0.1,0.2-0.3,0.3-0.4,0.3
		c-0.1,0-0.2-0.1-0.3-0.2s-0.2-0.2-0.3-0.2c-0.3,0-0.5,0.2-0.6,0.6c-0.8,0.1-1.5,0.1-2-0.2c-0.7,0.5-1.2,0.3-1.6-0.6h-0.8
		c-0.1,0-0.5-0.3-1-0.9s-1.1-0.9-1.6-0.9c-0.4-0.7-1.1-1.4-2.1-2.1s-1.7-1.5-1.9-2.1c-0.4-0.1-0.7-0.2-1-0.2
		c-0.1-0.1-0.2-0.4-0.2-0.7s0-0.6,0-0.7s-0.1-0.3-0.3-0.5c-0.2-0.2-0.3-0.4-0.3-0.5s0.1-0.3,0.2-0.6s0.2-0.5,0.1-0.6
		s-0.2-0.3-0.3-0.5c-0.1-0.2-0.3-0.4-0.4-0.5c0.1-0.1,0.2-0.2,0.3-0.3c0.1-0.1,0.1-0.2,0.1-0.3s-0.2-0.4-0.5-0.8s-0.4-0.7-0.1-1
		c0-0.1-0.1-0.3-0.3-0.4c-0.2-0.1-0.4-0.3-0.5-0.4c0.1-0.3,0.3-0.5,0.4-0.8c0.1-1,0.1-1.6-0.2-2c-0.4-0.3-0.5-0.5-0.4-0.6h0.4
		c0.1-0.1,0.3-0.3,0.5-0.5s0.4-0.4,0.5-0.5c0.1-0.3,0.2-0.9,0.2-2s0.2-1.7,0.6-1.8c0-0.1,0-0.2,0-0.3s0-0.2,0-0.3
		c0.1-0.1,0.5-0.7,1-1.7s1-1.7,1.4-1.9c0-0.5,0.2-1.1,0.6-1.6v-0.4c0-0.1,0.2-0.5,0.7-1.2s0.8-1.1,1.1-1.4c0-0.3,0.2-0.7,0.6-1.2
		c0-0.5,0.2-1,0.6-1.4c0.1,0,0.3,0,0.4,0c0.4-0.3,0.9-0.9,1.4-1.8s1-1.6,1.4-1.8v-0.6c0.3-0.1,1-1,2.2-2.6c0.8-0.3,1.4-0.7,1.6-1.2
		c0.1-0.4,0.2-0.6,0.3-0.6s0.3-0.1,0.7-0.3s0.6-0.4,0.6-0.7c0.3,0,0.6-0.1,0.9-0.4c0.3-0.3,0.6-0.4,0.9-0.4c0-0.1,0.2-0.4,0.7-0.7
		s0.7-0.7,0.7-1.1c0.1,0,0.2,0,0.3,0.1s0.2,0.1,0.3,0.1l0.6-0.6c0.1,0,0.4,0,0.7,0s0.6-0.1,0.7-0.2c0.4,0,0.8-0.1,1.1-0.4
		c0.3-0.3,0.6-0.4,0.7-0.4c0.1,0,0.3,0,0.4,0c0.5,0.3,0.9,0.3,1.2,0.2c0.1,0,0.2-0.1,0.3-0.4c0.1-0.3,0.3-0.3,0.7-0.2
		c0.5,0.3,0.9,0.4,1.1,0.5s0.5,0.1,0.8,0s0.6-0.1,0.9-0.1c0,0.1,0.1,0.2,0.2,0.2c0.1,0,0.3,0,0.4,0c0.1,0.1,0.4,0.2,0.9,0.1
		c0.5-0.1,0.8-0.1,0.9-0.1c1.1,0.1,1.7,0.5,1.8,1.2C156.8,13,156.8,13.2,156.8,13.4z M157.6,15.5c0.1,0,0.3,0,0.5,0s0.4,0,0.5,0
		c0.1,0.4,0.4,0.8,0.9,1.2c0.5,0.4,0.7,0.8,0.7,1c0,0.1,0,0.4,0,0.8s0,0.7,0,0.8c0,0.1,0.1,0.2,0.4,0.2s0.3,0.1,0.2,0.4h-0.4
		c-0.1,0.3-0.1,0.7,0.2,1.2c-0.1,0.3-0.3,0.6-0.6,1l-0.4,0.8c-0.1,0.3-0.1,0.5,0.1,0.7c0.2,0.2,0.3,0.4,0.3,0.5
		c-0.4,0.4-0.6,0.7-0.6,0.8s0.1,0.3,0.2,0.5c0.1,0.2,0.2,0.4,0.2,0.5c-1,1.1-1.9,1.6-2.8,1.6c-0.1,0-0.3,0-0.5,0s-0.4,0-0.7,0
		l-0.4,0.2c-0.3,0-0.6-0.2-1.1-0.5s-0.9-0.4-1.3-0.3c-0.5-0.4-1-0.6-1.4-0.6c-0.3,0.3-0.5,0.4-0.6,0.5s-0.3,0.1-0.4,0.1
		s-0.2,0-0.3,0.1s-0.2,0.1-0.3,0.2s-0.2,0.2-0.2,0.3c-0.1,0-0.5,0.2-1,0.5s-1,0.6-1.2,0.9c-0.3,0.3-0.5,0.5-0.6,0.6
		c-0.4,0.3-1.3,1.2-2.6,2.8c-0.1,0.3-0.4,0.6-0.7,1s-0.6,0.7-0.7,0.8c0,0.1-0.1,0.3-0.2,0.4c-0.1,0.1-0.3,0.2-0.4,0.2
		c0,0.4-0.2,0.8-0.5,1.1s-0.6,0.6-0.7,0.7v0.9c-0.4,0.3-0.8,0.9-1.3,1.7c-0.5,0.9-0.8,1.5-1.1,1.7c0,0.4-0.1,0.8-0.3,1.3
		s-0.4,0.8-0.5,1.1c-0.3,0.1-0.4,0.3-0.4,0.4s0.1,0.3,0.2,0.4c0.1,0.1,0.2,0.3,0.2,0.4s-0.1,0.2-0.4,0.3c-0.3,0.1-0.5,0.1-0.6,0.1
		c0.1,0.5,0.5,0.7,1,0.4c0.1,0,0.3-0.2,0.6-0.5s0.6-0.5,1-0.5c0.1-0.1,0.3-0.3,0.4-0.4c0.1-0.1,0.3-0.3,0.4-0.4h0.4
		c0.3-0.1,0.6-0.4,1-0.8s0.7-0.7,0.8-0.8s0.3-0.2,0.6-0.3s0.5-0.2,0.6-0.3c0.3-0.1,0.5-0.5,0.8-1c0.3-0.3,0.5-0.4,0.6-0.4
		c0.3-0.3,0.7-0.7,1.4-1.4c0.3-0.3,0.6-0.7,1.1-1.2s0.8-0.9,1.1-1c1.1-1.1,1.8-1.8,2-2.2c0.3-0.1,0.8-0.6,1.6-1.4
		c0.1-0.7,0.2-1,0.2-1.1s0.1-0.1,0.3,0s0.4,0.1,0.5,0.1s0.2-0.1,0.3-0.4s0.2-0.4,0.3-0.4c0-0.1,0.1-0.3,0.4-0.4s0.5-0.2,0.6-0.3
		s0.3-0.2,0.4-0.5c0.1-0.3,0.3-0.5,0.4-0.6c0.4,0.1,0.9-0.1,1.4-0.6c0.3,0.1,0.7,0.1,1.2,0h0.4c0.1,0,0.3,0,0.4,0c0.1,0,0.3,0,0.4,0
		c0.1,0,0.3-0.1,0.4-0.2c0.1-0.1,0.2-0.2,0.3-0.2s0.1,0.1,0.2,0.2c0.1,0.1,0.2,0.2,0.3,0.2h0.2c0.1,0.1,0.4,0.3,0.8,0.6
		c0.1,0.1,0.3,0.2,0.5,0.1s0.4,0,0.5,0.1l0.6,1c0.5,0,1.3,0.6,2.2,1.8c-0.1,0.4,0.1,0.8,0.6,1.2c0.3,0.1,0.4,0.3,0.4,0.4
		c0.1,0,0.3,0.3,0.4,0.8c0.1,0.1,0.2,0.2,0.3,0.3s0.1,0.2,0.1,0.3c0.1,0.1,0.2,0.3,0.3,0.6s0.1,0.5,0.1,0.6c0.1,0.1,0.3,0.4,0.5,0.7
		s0.4,0.6,0.5,0.7c0.1,0.5,0.3,0.9,0.6,1.2c0,0.1,0,0.3,0.1,0.6s0.1,0.5,0.1,0.6l0.6,0.2c-0.3,0.5-0.2,1.1,0.3,1.5
		c0.5,0.5,0.7,0.9,0.7,1.3l1,1.4c0.4,0.3,0.9,0.7,1.5,1.3s1,1,1.1,1.1c0,0.1,0,0.2,0.1,0.3s0.1,0.2,0.1,0.3c0.3,0.3,0.8,0.8,1.6,1.7
		s1.5,1.5,2,1.9h0.4c0.7,0.4,1.2,0.6,1.6,0.6c0.3,0.3,0.6,0.7,1,1.2c0.5,0,1.4-0.3,2.4-0.8c0.1,0.1,0.5,0.1,1.2,0
		c1.1,0,1.8,0.1,2,0.4c0.1,0.1,0.2,0.2,0.3,0.1s0.2-0.1,0.3-0.1c0.4,0.5,1.2,0.6,2.4,0.2c0.1,0.3,0.1,0.6,0,1
		c-0.1,0.1-0.2,0.3-0.2,0.4c-0.1,0.7,0.3,1.1,1.2,1.2c0.4,0,0.7,0.1,0.8,0.2s0.1,0.4-0.1,0.7c-0.2,0.3-0.2,0.6-0.1,0.7
		c0,0.3,0.1,0.5,0.2,0.6c0.1,0.1,0.3,0.3,0.4,0.4c0,0.5-0.3,1-0.8,1.4s-0.9,0.7-1,0.8c0,0.3,0,0.6,0.1,0.9s0.1,0.6,0.1,0.7
		c-0.1,0.3-0.3,0.6-0.6,1.1s-0.4,0.8-0.4,1.1c-2,0-3.2,0.9-3.7,2.6c-0.3,0-0.5-0.1-0.6-0.2s-0.3-0.2-0.4-0.2c-0.1,0-0.3,0.1-0.4,0.4
		c0,0.1-0.1,0.2-0.2,0.2c-0.5-0.1-1-0.1-1.2,0c-0.4-0.8-0.8-0.8-1.2,0c-0.1,0-0.3-0.1-0.5-0.2c-0.2-0.1-0.4-0.2-0.7-0.2
		c-0.1,0-0.2,0.1-0.2,0.2c0,0.1-0.1,0.2-0.2,0.2c-0.1-0.1-0.6-0.2-1.4-0.2c-0.1-0.1-0.2-0.3-0.2-0.6c-0.1,0-0.3-0.1-0.6-0.2
		s-0.5-0.2-0.6-0.2s-0.3,0.1-0.4,0.2c-0.1,0.1-0.3,0.1-0.6,0c0-0.5-0.1-0.8-0.2-0.8c-0.5,0.1-0.9,0.2-1,0.2c0-0.5-0.1-0.9-0.4-1
		c-0.1,0-0.3,0.1-0.4,0.2c-0.1,0.1-0.3,0.1-0.4,0c0-0.3-0.1-0.4-0.2-0.4c0-0.1-0.1-0.1-0.4,0l-0.8-1c-0.3,0-0.5,0.1-0.6,0.2
		s-0.3,0.2-0.4,0.2v-0.6l-0.2-0.2c-0.3-0.1-0.7-0.5-1.4-1.1s-1.2-1-1.6-1.1c-0.3-0.4-0.7-0.9-1.3-1.4s-1-0.9-1.1-1
		c-0.1,0-0.3-0.1-0.6-0.2s-0.5-0.3-0.6-0.4c0-0.1-0.1-0.5-0.4-1c-0.5-0.1-1-0.5-1.4-1.2c0.1-0.3,0.2-0.4,0.2-0.5s-0.1-0.2-0.2-0.3
		c-1-0.1-1.4-0.5-1.4-1c0-0.1-0.5-0.6-1.4-1.4l-0.6-1.2c0-0.1,0-0.3,0-0.4s0-0.2-0.1-0.3s-0.4-0.3-1.1-0.7c-0.4-1.4-0.8-2-1.2-2
		c-0.4-0.1-0.9,0.2-1.4,0.9s-0.9,1.1-1,1.1c-0.4,0.3-0.8,0.6-1.2,1c-0.1,0.1-0.3,0.2-0.4,0.2c-0.1,0.1-0.4,0.3-0.8,0.6
		c-0.4,0.3-0.6,0.5-0.6,0.6c-0.1,0.1-0.3,0.3-0.5,0.5s-0.4,0.4-0.5,0.5s-0.3,0.3-0.6,0.4c-0.7,0.3-1,0.7-1,1.2
		c-0.5-0.1-1.1,0-1.6,0.5s-0.9,0.7-1,0.7c0,0.1-0.1,0.3-0.2,0.6c-1.1,0-1.8,0.5-2.2,1.4l-0.4-0.2c-0.1,0.3-0.5,0.5-1.1,0.6
		s-1,0.3-1.1,0.6c-0.5,0-0.9,0.1-1.2,0.2s-0.4,0.4-0.4,0.8c0,0.1-0.3,0.2-0.8,0.2c-0.1-0.4-0.3-0.6-0.4-0.6s-0.3,0.1-0.4,0.3
		c-0.1,0.2-0.3,0.3-0.4,0.3c-0.1,0-0.2-0.1-0.3-0.2s-0.2-0.2-0.3-0.2c-0.3,0-0.5,0.2-0.6,0.6c-0.8,0.1-1.5,0.1-2-0.2
		c-0.7,0.5-1.2,0.3-1.6-0.6h-0.8c-0.1,0-0.5-0.3-1-0.9s-1.1-0.9-1.6-0.9c-0.4-0.7-1.1-1.4-2.1-2.1s-1.7-1.5-1.9-2.1
		c-0.4-0.1-0.7-0.2-1-0.2c-0.1-0.1-0.2-0.4-0.2-0.7s0-0.6,0-0.7s-0.1-0.3-0.3-0.5c-0.2-0.2-0.3-0.4-0.3-0.5s0.1-0.3,0.2-0.6
		s0.2-0.5,0.1-0.6s-0.2-0.3-0.3-0.5c-0.1-0.2-0.3-0.4-0.4-0.5c0.1-0.1,0.2-0.2,0.3-0.3c0.1-0.1,0.1-0.2,0.1-0.3s-0.2-0.4-0.5-0.8
		s-0.4-0.7-0.1-1c0-0.1-0.1-0.3-0.3-0.4c-0.2-0.1-0.4-0.3-0.5-0.4c0.1-0.3,0.3-0.5,0.4-0.8c0.1-1,0.1-1.6-0.2-2
		c-0.4-0.3-0.5-0.5-0.4-0.6h0.4c0.1-0.1,0.3-0.3,0.5-0.5s0.4-0.4,0.5-0.5c0.1-0.3,0.2-0.9,0.2-2s0.2-1.7,0.6-1.8c0-0.1,0-0.2,0-0.3
		s0-0.2,0-0.3c0.1-0.1,0.5-0.7,1-1.7s1-1.7,1.4-1.9c0-0.5,0.2-1.1,0.6-1.6v-0.4c0-0.1,0.2-0.5,0.7-1.2s0.8-1.1,1.1-1.4
		c0-0.3,0.2-0.7,0.6-1.2c0-0.5,0.2-1,0.6-1.4c0.1,0,0.3,0,0.4,0c0.4-0.3,0.9-0.9,1.4-1.8s1-1.6,1.4-1.8v-0.6c0.3-0.1,1-1,2.2-2.6
		c0.8-0.3,1.4-0.7,1.6-1.2c0.1-0.4,0.2-0.6,0.3-0.6s0.3-0.1,0.7-0.3s0.6-0.4,0.6-0.7c0.3,0,0.6-0.1,0.9-0.4c0.3-0.3,0.6-0.4,0.9-0.4
		c0-0.1,0.2-0.4,0.7-0.7s0.7-0.7,0.7-1.1c0.1,0,0.2,0,0.3,0.1s0.2,0.1,0.3,0.1l0.6-0.6c0.1,0,0.4,0,0.7,0s0.6-0.1,0.7-0.2
		c0.4,0,0.8-0.1,1.1-0.4c0.3-0.3,0.6-0.4,0.7-0.4c0.1,0,0.3,0,0.4,0c0.5,0.3,0.9,0.3,1.2,0.2c0.1,0,0.2-0.1,0.3-0.4
		c0.1-0.3,0.3-0.3,0.7-0.2c0.5,0.3,0.9,0.4,1.1,0.5s0.5,0.1,0.8,0s0.6-0.1,0.9-0.1c0,0.1,0.1,0.2,0.2,0.2c0.1,0,0.3,0,0.4,0
		c0.1,0.1,0.4,0.2,0.9,0.1c0.5-0.1,0.8-0.1,0.9-0.1c1.1,0.1,1.7,0.5,1.8,1.2c0,0.1,0,0.3,0,0.6s0,0.4,0,0.5s0.1,0.2,0.4,0.5
		C157.4,14.7,157.6,15.1,157.6,15.5z M129.5,56.3c-0.1,0.1-0.2,0.2-0.2,0.3s0.1,0.1,0.2,0.1c0.1,0,0.3,0,0.4,0
		C129.9,56.5,129.8,56.3,129.5,56.3z M129.5,56.7c0.1,0,0.3,0,0.4,0c0-0.3-0.1-0.4-0.4-0.4c-0.1,0.1-0.2,0.2-0.2,0.3
		C129.3,56.7,129.4,56.7,129.5,56.7z M160.6,21v-0.2h0.2C161,20.9,160.9,21,160.6,21z M160.6,20.8h0.2c0.1,0.1,0.1,0.2-0.2,0.2V20.8
		z"/>
	<path fill="#F9B7B5" d="M266.9,16.8c0.4,0.2,0.6,0.4,0.6,0.7c-0.3,0.8,0.1,1.4,1.2,1.8c0.1,0.1,0.1,0.3,0,0.5s-0.2,0.4-0.2,0.5
		c0.1,0.1,0.3,0.3,0.5,0.4s0.3,0.3,0.3,0.4s-0.2,0.3-0.6,0.5s-0.5,0.5-0.4,0.9c-0.1,0.3-0.4,0.5-0.8,0.6c-0.1,0.4-0.3,1.1-0.4,2
		c-0.5,0.5-1,0.8-1.4,0.8c-0.1,0-0.2,0.3-0.2,1c0,0.1-0.4,0.2-1.2,0.2c-0.1,0.1-0.3,0.2-0.6,0.3c-0.3,0.1-0.4,0.1-0.5,0.1
		s-0.2,0-0.3-0.1c-0.1-0.1-0.3-0.2-0.4-0.3c-1.3-0.3-2.2-0.1-2.4,0.6c-1.1-0.9-1.9-1.4-2.4-1.2c-0.1,0-0.3,0.1-0.4,0.2
		s-0.3,0.2-0.4,0.2l-0.6-0.4c-0.1,0-0.4,0.1-0.9,0.2s-0.8,0.2-0.9,0.2c-0.1,0-0.3-0.1-0.5-0.2s-0.4-0.2-0.5-0.2
		c-0.5,0.1-0.8,0.5-0.8,1c-0.3,0.1-0.8,0-1.6-0.4c-0.5,0-0.9,0.4-1,1.2c-0.7,0-1.1-0.1-1.2-0.4c-0.1,0-0.3,0.1-0.5,0.4
		s-0.4,0.5-0.5,0.6c-0.1,0-0.2,0-0.2-0.1s-0.1-0.1-0.2-0.1c-1.9,0.7-2.9,1.4-3,2c-0.1,0-0.3-0.1-0.4-0.2c-0.1-0.1-0.3-0.2-0.4-0.2
		c-0.1,0.1-0.3,0.3-0.4,0.6c-0.1,0.3-0.2,0.5-0.2,0.6c-0.4,0-0.8,0.2-1.1,0.5c-0.3,0.3-0.5,0.6-0.5,0.7c0,0.3-0.1,0.5-0.3,0.7
		c-0.2,0.2-0.3,0.4-0.3,0.5c0,0.3,0,0.5,0,0.6c-0.3,0-0.6-0.1-1-0.4c-0.1,0.1-0.2,0.3-0.2,0.6v0.2c-0.1,0.3-0.4,0.8-0.7,1.6
		s-0.6,1.4-0.9,1.6c0,0.1-0.1,0.7-0.4,1.8c0,0.1-0.1,0.4-0.2,0.7c-0.1,0.3-0.3,0.6-0.4,0.7c0.1,0.3,0.2,0.5,0.2,0.6s0,0.4,0,0.8
		s0,0.7,0,0.8s0,0.3,0.1,0.4s0.1,0.3,0.1,0.4s0,0.3-0.1,0.4s-0.2,0.3-0.3,0.4c0.1,0.3,0.2,0.4,0.2,0.5s-0.1,0.2-0.2,0.5
		c0,0.3,0,0.6,0.1,0.9s0.1,0.6,0.1,0.9c-0.1,0.4-0.2,0.7-0.2,0.8s0.1,0.5,0.2,1.2c-0.1,0.4-0.2,0.9-0.2,1.4s0.2,1,0.6,1.2
		c0,0.1-0.1,0.2-0.2,0.3c-0.1,0.1-0.2,0.2-0.2,0.3c0.5,0.5,0.7,1.2,0.6,1.8c0,0.1-0.2,0.4-0.6,0.8c0,0.3,0.1,0.5,0.2,0.8l0.2,0.2
		c0,0.1,0,0.3-0.1,0.4s-0.1,0.3-0.1,0.4c0.4,0.7,0.6,1.1,0.6,1.2c-0.1,0-0.3,0-0.4-0.1c-0.1-0.1-0.3,0-0.4,0.1
		c0.1,0.4,0.2,0.6,0.1,0.7c-0.1,0.1-0.2,0.1-0.4,0s-0.4-0.1-0.5-0.1c-0.1,0.1-0.3,0.3-0.4,0.5c-0.1,0.2-0.2,0.3-0.3,0.4
		s-0.2,0.1-0.3,0.1s-0.2,0-0.3,0.1s-0.2,0.2-0.3,0.3s-0.2,0.2-0.3,0.3s-0.3,0.1-0.6,0s-0.6,0-0.9,0.1c-0.3,0.1-0.5,0.3-0.6,0.4
		c-0.1,0-0.4,0-0.9,0.1s-0.8,0.2-1.1,0.5c0-0.1,0-0.2-0.1-0.3s-0.2-0.1-0.3-0.1c-0.7,0.5-1.1,0.7-1.4,0.6c0-0.4-0.3-0.6-0.9-0.7
		c-0.6-0.1-1-0.2-1.1-0.3c0-0.8-0.7-1.2-2-1.2c0-0.1,0-0.3,0-0.6c-0.3-0.4-0.8-1-1.6-1.6c-0.4-0.4-0.7-0.7-0.8-0.8
		c-0.1,0-0.4-0.2-0.7-0.7s-0.6-0.8-0.9-0.9c-0.1-0.4-0.6-0.9-1.3-1.4s-1.1-1.1-1.1-1.8c-0.4-0.3-1.1-0.9-1.9-1.9
		c-0.9-1-1.6-1.7-2.1-2.1c-0.3-0.5-0.5-0.9-0.6-1H212c0-0.4-0.2-0.8-0.6-1.2c0.1-0.4,0-0.8-0.3-1.2s-0.5-0.7-0.5-1
		c-0.1,0-0.3-0.1-0.6-0.4s-0.5-0.4-0.6-0.4c-0.1-1.1-0.7-2.2-1.8-3.2c-0.1-0.4-0.7-1.4-1.8-3.1c0-0.4-0.3-1-0.8-1.8
		c0.1-0.3-0.1-0.7-0.6-1.4c0.1-0.4,0-0.8-0.3-1.1s-0.5-0.6-0.5-0.9c0-0.1-0.1-0.2-0.2-0.3c-0.1-0.1-0.3-0.1-0.4-0.1
		c0-0.3-0.1-0.6-0.4-1.1c-0.3-0.5-0.5-0.8-0.6-1.1c0-0.1,0-0.3,0-0.5s0-0.3,0-0.4s-0.1-0.2-0.3-0.4s-0.3-0.4-0.3-0.5v-0.4
		c0-0.1,0-0.5,0-1.1s0-1.1,0-1.5c0.3-0.3,0.5-0.5,0.6-0.6c-0.5-0.8-0.7-1.4-0.4-1.8c0.1-0.1,0.3-0.1,0.6,0c0.1,0,0.2-0.3,0.2-0.8
		c0.4-0.3,0.7-0.4,0.8-0.4c0.1-0.1,0.4-0.3,0.8-0.4c0.4-0.1,0.6-0.3,0.6-0.6c0.4,0,0.9-0.2,1.4-0.6c2-0.1,3.2,0.1,3.5,0.6h0.6
		c0.1,0,0.2,0.1,0.2,0.2s0.1,0.2,0.2,0.2s0.2,0,0.3-0.1s0.2-0.1,0.3-0.1c0.5,0.3,1.2,0.8,1.9,1.7s1.4,1.5,1.9,1.7
		c0,0.3,0.1,0.4,0.2,0.4c0.3,0.1,0.5,0.6,0.7,1.3s0.4,1.2,0.7,1.3c-0.1,0.4,0,0.9,0.4,1.4c0.1,0.1,0.2,0.2,0.2,0.3s0,0.2,0,0.4
		s0,0.3,0,0.4s0.2,0.3,0.6,0.8c0.4,0.5,0.5,1,0.4,1.5c0.7,0.5,1.3,1.6,2,3.2c0.3,0.3,0.6,0.8,1.1,1.5c0.5,0.8,0.9,1.2,1.3,1.3
		c0.1-0.1,0.3-0.4,0.4-0.9c0.1-0.5,0.3-0.8,0.4-1.1l0.6-0.8c0-0.1,0-0.4,0-0.7c0-0.3,0.1-0.6,0.2-0.7c0.3-0.8,0.3-1.4,0-1.6
		c0.1-0.1,0.4-0.5,0.7-1.1s0.4-1.1,0.3-1.3c0.1-0.1,0.3-0.3,0.6-0.4c0-0.5,0.2-1,0.7-1.5s0.7-0.9,0.7-1.3c0.4-0.4,1-1.1,1.8-2
		s1.4-1.6,1.8-2c0-0.1,0-0.2-0.1-0.3s-0.1-0.2-0.1-0.3c0.1,0,0.3,0,0.6,0s0.5,0,0.6,0l1-0.6c1.2-0.9,1.8-1.5,1.8-1.6
		c0.7,0.1,1.2-0.1,1.7-0.7c0.5-0.6,0.8-0.9,1.1-0.9s0.5,0,0.6,0c0.3,0,0.6-0.2,1.1-0.6c0.5-0.4,0.8-0.7,0.9-0.8
		c0.3,0,0.6-0.1,1.1-0.3s0.8-0.3,1.1-0.3c0.1,0,0.4-0.2,0.8-0.6c0.4,0.1,0.8,0,1.2-0.4c0.1-0.1,0.3-0.3,0.4-0.4
		c0.5-0.1,1-0.2,1.4-0.2c0.1,0,0.3,0,0.4,0.1c0.1,0.1,0.3,0.1,0.4,0.1c0.1,0,0.3,0,0.4-0.1c0.1-0.1,0.2-0.2,0.2-0.3
		c0.3,0,0.6,0,1.1-0.1s0.8-0.1,0.9-0.1c0.3-0.7,0.7-1,1.2-0.8c0.1,0,0.3,0.1,0.6,0.4c0.4,0,1.4-0.1,2.9-0.2s2.4-0.1,2.5,0.2
		c0.3,0.4,0.9,0.6,1.9,0.6s1.7,0.1,2.1,0.4c0.8-0.1,1.5,0.1,2,0.6c0.5,0,1.1,0.3,1.8,0.8c0.4,0.1,0.6,0.2,0.7,0.3s0.2,0.3,0.3,0.7
		C266.2,16.4,266.5,16.6,266.9,16.8z M267.5,17.5c-0.3,0.8,0.1,1.4,1.2,1.8c0.1,0.1,0.1,0.3,0,0.5s-0.2,0.4-0.2,0.5
		c0.1,0.1,0.3,0.3,0.5,0.4s0.3,0.3,0.3,0.4s-0.2,0.3-0.6,0.5s-0.5,0.5-0.4,0.9c-0.1,0.3-0.4,0.5-0.8,0.6c-0.1,0.4-0.3,1.1-0.4,2
		c-0.5,0.5-1,0.8-1.4,0.8c-0.1,0-0.2,0.3-0.2,1c0,0.1-0.4,0.2-1.2,0.2c-0.1,0.1-0.3,0.2-0.6,0.3c-0.3,0.1-0.4,0.1-0.5,0.1
		s-0.2,0-0.3-0.1c-0.1-0.1-0.3-0.2-0.4-0.3c-1.3-0.3-2.2-0.1-2.4,0.6c-1.1-0.9-1.9-1.4-2.4-1.2c-0.1,0-0.3,0.1-0.4,0.2
		s-0.3,0.2-0.4,0.2l-0.6-0.4c-0.1,0-0.4,0.1-0.9,0.2s-0.8,0.2-0.9,0.2c-0.1,0-0.3-0.1-0.5-0.2s-0.4-0.2-0.5-0.2
		c-0.5,0.1-0.8,0.5-0.8,1c-0.3,0.1-0.6,0.1-1,0s-0.6-0.3-0.6-0.4c-0.5,0-0.9,0.4-1,1.2c-0.7,0-1.1-0.1-1.2-0.4
		c-0.1,0-0.3,0.1-0.5,0.4s-0.4,0.5-0.5,0.6c-0.1,0-0.2,0-0.2-0.1s-0.1-0.1-0.2-0.1c-1.9,0.7-2.9,1.4-3,2c-0.1,0-0.3-0.1-0.4-0.2
		c-0.1-0.1-0.3-0.2-0.4-0.2c-0.1,0.1-0.3,0.3-0.4,0.6c-0.1,0.3-0.2,0.5-0.2,0.6c-0.4,0-0.8,0.2-1.1,0.5s-0.5,0.6-0.5,0.7
		c0,0.3-0.1,0.5-0.3,0.7s-0.3,0.4-0.3,0.5c0,0.3,0,0.5,0,0.6c-0.3,0-0.6-0.1-1-0.4c-0.1,0.1-0.2,0.3-0.2,0.6v0.2
		c-0.1,0.3-0.4,0.8-0.7,1.6s-0.6,1.4-0.9,1.6c0,0.1-0.1,0.7-0.4,1.8c0,0.1-0.1,0.4-0.2,0.7c-0.1,0.3-0.3,0.6-0.4,0.7
		c0.1,0.3,0.2,0.5,0.2,0.6s0,0.4,0,0.8s0,0.7,0,0.8s0,0.3,0.1,0.4s0.1,0.3,0.1,0.4s0,0.3-0.1,0.4s-0.2,0.3-0.3,0.4
		c0.1,0.3,0.2,0.4,0.2,0.5s-0.1,0.2-0.2,0.5c0,0.3,0,0.6,0.1,0.9s0.1,0.6,0.1,0.9c-0.1,0.4-0.2,0.7-0.2,0.8s0.1,0.5,0.2,1.2
		c-0.1,0.4-0.2,0.9-0.2,1.4s0.2,1,0.6,1.2c0,0.1-0.1,0.2-0.2,0.3c-0.1,0.1-0.2,0.2-0.2,0.3c0.5,0.5,0.7,1.2,0.6,1.8
		c0,0.1-0.2,0.4-0.6,0.8c0,0.3,0.1,0.5,0.2,0.8l0.2,0.2c0,0.1,0,0.3-0.1,0.4s-0.1,0.3-0.1,0.4c0.4,0.7,0.6,1.1,0.6,1.2
		c-0.1,0-0.3,0-0.4-0.1c-0.1-0.1-0.3,0-0.4,0.1c0.1,0.4,0.2,0.6,0.1,0.7c-0.1,0.1-0.2,0.1-0.4,0s-0.4-0.1-0.5-0.1
		c-0.1,0.1-0.3,0.3-0.4,0.5c-0.1,0.2-0.2,0.3-0.3,0.4s-0.2,0.1-0.3,0.1s-0.2,0-0.3,0.1s-0.2,0.2-0.3,0.3s-0.2,0.2-0.3,0.3
		s-0.3,0.1-0.6,0s-0.6,0-0.9,0.1c-0.3,0.3-0.5,0.4-0.6,0.4s-0.4,0-0.9,0.1s-0.8,0.2-1.1,0.5c0-0.1,0-0.2-0.1-0.3s-0.2-0.1-0.3-0.1
		c-0.7,0.5-1.1,0.7-1.4,0.6c0-0.4-0.3-0.6-0.9-0.7c-0.6-0.1-1-0.2-1.1-0.3c0-0.8-0.7-1.2-2-1.2c0-0.1,0-0.3,0-0.6
		c-0.3-0.4-0.8-1-1.6-1.6c-0.4-0.4-0.7-0.7-0.8-0.8c-0.1,0-0.4-0.2-0.7-0.7s-0.6-0.8-0.9-0.9c-0.1-0.4-0.6-0.9-1.3-1.4
		s-1.1-1.1-1.1-1.8c-0.4-0.3-1.1-0.9-1.9-1.9c-0.9-1-1.6-1.7-2.1-2.1c-0.3-0.5-0.5-0.9-0.6-1H212c0-0.4-0.2-0.8-0.6-1.2
		c0.1-0.4,0-0.8-0.3-1.2s-0.5-0.7-0.5-1c-0.1,0-0.3-0.1-0.6-0.4s-0.5-0.4-0.6-0.4c-0.1-1.1-0.7-2.2-1.8-3.2
		c-0.1-0.4-0.7-1.4-1.8-3.1c0-0.4-0.3-1-0.8-1.8c0.1-0.3-0.1-0.7-0.6-1.4c0.1-0.4,0-0.8-0.3-1.1c-0.3-0.3-0.5-0.6-0.5-0.9
		c0-0.1-0.1-0.2-0.2-0.3c-0.1-0.1-0.3-0.1-0.4-0.1c0-0.3-0.1-0.6-0.4-1.1c-0.3-0.5-0.5-0.8-0.6-1.1c0-0.1,0-0.3,0-0.5s0-0.3,0-0.4
		s-0.1-0.2-0.3-0.4s-0.3-0.4-0.3-0.5v-0.4c0-0.1,0-0.5,0-1.1s0-1.1,0-1.5c0.3-0.3,0.5-0.5,0.6-0.6c-0.5-0.8-0.7-1.4-0.4-1.8
		c0.1-0.1,0.3-0.1,0.6,0c0.1,0,0.2-0.3,0.2-0.8c0.4-0.3,0.7-0.4,0.8-0.4c0.1-0.1,0.4-0.3,0.8-0.4c0.4-0.1,0.6-0.3,0.6-0.6
		c0.4,0,0.9-0.2,1.4-0.6c2-0.1,3.2,0.1,3.5,0.6h0.6c0.1,0,0.2,0.1,0.2,0.2s0.1,0.2,0.2,0.2s0.2,0,0.3-0.1s0.2-0.1,0.3-0.1
		c0.5,0.3,1.2,0.8,1.9,1.7s1.4,1.5,1.9,1.7c0,0.3,0.1,0.4,0.2,0.4c0.3,0.1,0.5,0.6,0.7,1.3s0.4,1.2,0.7,1.3c-0.1,0.4,0,0.9,0.4,1.4
		c0.1,0.1,0.2,0.2,0.2,0.3s0,0.2,0,0.4s0,0.3,0,0.4s0.2,0.3,0.6,0.8c0.4,0.5,0.5,1,0.4,1.5c0.7,0.5,1.3,1.6,2,3.2
		c0.3,0.3,0.6,0.8,1.1,1.5c0.5,0.8,0.9,1.2,1.3,1.3c0.1-0.1,0.3-0.4,0.4-0.9c0.1-0.5,0.3-0.8,0.4-1.1l0.6-0.8c0-0.1,0-0.4,0-0.7
		c0-0.3,0.1-0.6,0.2-0.7c0.3-0.8,0.3-1.4,0-1.6c0.1-0.1,0.4-0.5,0.7-1.1s0.4-1.1,0.3-1.3c0.1-0.1,0.3-0.3,0.6-0.4
		c0-0.5,0.2-1,0.7-1.5s0.7-0.9,0.7-1.3c0.4-0.4,1-1.1,1.8-2s1.4-1.6,1.8-2c0-0.1,0-0.2-0.1-0.3s-0.1-0.2-0.1-0.3c0.1,0,0.3,0,0.6,0
		s0.5,0,0.6,0l1-0.6c1.2-0.9,1.8-1.5,1.8-1.6c0.7,0.1,1.2-0.1,1.7-0.7c0.5-0.6,0.8-0.9,1.1-0.9s0.5,0,0.6,0c0.3,0,0.6-0.2,1.1-0.6
		c0.5-0.4,0.8-0.7,0.9-0.8c0.3,0,0.6-0.1,1.1-0.3s0.8-0.3,1.1-0.3c0.1,0,0.4-0.2,0.8-0.6c0.4,0.1,0.8,0,1.2-0.4
		c0.1-0.1,0.3-0.3,0.4-0.4c0.5-0.1,1-0.2,1.4-0.2c0.1,0,0.3,0,0.4,0.1c0.1,0.1,0.3,0.1,0.4,0.1c0.1,0,0.3,0,0.4-0.1
		c0.1-0.1,0.2-0.2,0.2-0.3c0.3,0,0.6,0,1.1-0.1s0.8-0.1,0.9-0.1c0.3-0.5,0.7-0.8,1.2-0.8c0.1,0,0.3,0.1,0.6,0.4
		c0.4,0,1.4-0.1,2.9-0.2s2.4-0.1,2.5,0.2c0.3,0.4,0.9,0.6,1.9,0.6s1.7,0.1,2.1,0.4c0.8-0.1,1.5,0.1,2,0.6c0.5,0,1.1,0.3,1.8,0.8
		c0.4,0.1,0.6,0.2,0.7,0.3s0.2,0.3,0.3,0.7c0.1,0.1,0.4,0.3,0.8,0.5C267.3,17,267.5,17.2,267.5,17.5z"/>
	<path fill="#F9B7B5" d="M312.8,25.2l-0.8,0.4c-0.1,0-0.4,0-0.7,0c-0.3,0-0.6,0-0.7,0c-0.1,0.1-0.2,0.3-0.3,0.4
		c-0.1,0.1-0.2,0.2-0.3,0.2c-0.5,0.1-1,0.4-1.2,0.8H308c-0.1,0.3-0.5,0.4-1,0.5s-0.9,0.2-1,0.3c0,0.3,0,0.5,0,0.6
		c-1,0-1.6,0.5-1.8,1.4c-0.8-0.1-1.7,0.1-2.6,0.6c-0.3,0.3-0.5,0.4-0.8,0.4c0,0.1,0,0.3,0,0.6H300c-0.1,0.3-0.4,0.6-0.7,0.9
		c-0.3,0.3-0.6,0.6-0.7,0.7c-0.3,0.1-0.5,0.2-0.6,0.2c-0.1,0.4-0.5,0.9-1.1,1.5s-1,1.2-1.1,1.7c-0.1,0.1-0.3,0.3-0.5,0.5
		s-0.4,0.4-0.7,0.5c-0.5,1.2-1.1,2.3-1.8,3.2c0,0.1,0,0.4,0.1,0.9s0.1,0.8,0.1,0.9l0.6,0.2c0.1,0.1,0.2,0.4,0.3,0.7
		c0.1,0.3,0.1,0.5,0.1,0.6s0.2,0.2,0.6,0.5c0.5,0.7,0.9,1,1,1c0.4-0.3,0.7-0.3,1-0.2c-0.1,0.5,0.1,0.9,0.6,1s0.8,0.3,0.8,0.4
		c0.4-0.1,1.1,0.1,2,0.6c0.1,0,0.2-0.1,0.2-0.2s0.1-0.2,0.2-0.2c0.5,0.7,1.6,0.9,3,0.6c1.5-0.3,2.7-0.2,3.7,0.2
		c1.2-0.4,2-0.5,2.2-0.2c0.1,0,0.2,0,0.3-0.1c0.1-0.1,0.2-0.1,0.3-0.1c0.3,0.1,1.2,0.1,2.8-0.2c1.3-0.3,2.1-0.5,2.2-0.8h2
		c0.3,0,0.5-0.1,0.7-0.3s0.4-0.3,0.5-0.3c0.1-0.1,0.4-0.2,0.9-0.2s0.8,0,0.9,0c1.1-0.3,1.7-0.4,1.8-0.4c0,0.1,0,0.3,0,0.6
		s0.1,0.4,0.2,0.4c0,0.1,0.2,0.2,0.7,0.2s0.8,0.1,0.9,0.2c-0.1,0.5-0.2,0.8-0.2,0.9s0.3,0.1,0.8,0.1c0,0.3,0,0.6,0,1
		c0.1,1,0.1,1.6,0,1.8c0,0.1,0.1,0.3,0.2,0.6c-0.5,0.3-1,0.7-1.2,1.4c-0.3,0.7,0,1,0.8,1c0,0.3-0.3,0.4-0.8,0.4c-0.1,0-0.3,0-0.4,0
		c-0.1,0.1-0.4,0.4-0.7,0.7c-0.3,0.3-0.6,0.6-0.7,0.7c-0.4,0.3-1,0.5-1.6,0.8c-0.3,0.3-0.6,0.7-1,1.3s-0.7,1.1-1,1.3
		c-0.3,0.3-0.5,0.4-0.6,0.4c-0.3,0-0.5,0-0.6,0s-0.3,0.2-0.6,0.6c-0.4,0.1-1,0.2-1.7,0.1s-1.3,0-1.7,0.1c-0.1,0-0.2,0.2-0.2,0.6
		c-0.3,0-0.7,0-1.3-0.1c-0.6-0.1-1,0-1.1,0.1c0,0.1,0,0.3,0,0.6c-1.2,0.1-2,0.1-2.2-0.2c-0.7,0-1.7,0-2.9-0.1
		c-1.3-0.1-2.2,0-2.7,0.1c-0.8,0.1-1.3,0.1-1.4,0c-0.4,0-1.1-0.1-2-0.4s-1.6-0.3-1.8,0c-0.5-0.3-0.9-0.5-1-0.8c-0.1,0-0.3,0-0.5,0.1
		s-0.4,0.1-0.5,0.1c-0.3-0.1-0.7-0.4-1.2-0.8c-0.1,0-0.3,0-0.4,0s-0.2,0-0.3-0.1c-0.1-0.1-0.2-0.2-0.5-0.4s-0.5-0.2-0.8-0.1
		c-0.1-0.3-0.4-0.5-0.9-0.7s-0.7-0.4-0.7-0.5c-0.1,0-0.3,0-0.4,0.1s-0.3,0.1-0.4,0.1c0-0.1,0-0.3-0.1-0.5s-0.2-0.3-0.3-0.4
		c-0.1-0.1-0.3,0-0.6,0.1c-1.5-1.8-2.8-3-3.9-3.9c-0.1-0.3-0.3-0.7-0.6-1.2c-0.1,0-0.3,0.1-0.4,0.2s-0.3,0.1-0.4,0
		c0-0.5-0.3-1-0.8-1.2v-0.6c0-0.1-0.2-0.3-0.6-0.6c0-0.4-0.2-0.8-0.6-1.2s-0.6-0.8-0.6-1.2c-0.1-0.1-0.3-0.3-0.4-0.5
		s-0.3-0.4-0.4-0.5c0-0.5-0.2-1-0.6-1.4c0.1-0.4,0.1-1,0-1.6c-0.1-0.7-0.2-1.1-0.2-1.2c0-1.1,0-1.7-0.1-1.7
		c-0.1-0.1-0.2-0.1-0.3-0.1s-0.3,0-0.4,0c0-0.3,0.2-0.5,0.6-0.6c0.3-0.4,0.4-1,0.4-1.6s0-1.3,0-1.8c0.1,0,0.3-0.2,0.5-0.6
		c0.2-0.4,0.3-0.7,0.3-1c0.4-0.5,0.8-1.3,1.1-2.3c0.3-1,0.6-1.7,0.7-1.9c0.3-0.1,0.5-0.4,0.6-0.8c0.5-0.4,0.9-0.7,1-0.8
		c0.1-1.4,1.1-2.6,2.8-3.9c0-0.1,0-0.2,0-0.3s0-0.2,0-0.3c0.4-0.3,1-0.8,1.8-1.5s1.5-1.3,2-1.7c0-0.3,0-0.4,0.1-0.5s0.2,0,0.3,0.1
		s0.3,0.2,0.4,0.2c0.4,0,0.7-0.3,0.8-0.8c0.1-0.5,0.3-0.9,0.4-1c0.4-0.1,0.7-0.2,0.8-0.2c0.1-0.3,0.2-0.4,0.3-0.5
		c0.1-0.1,0.2-0.1,0.4-0.1c0.2,0,0.3,0,0.3-0.1c0-0.1,0.1-0.1,0.2-0.2s0.2-0.1,0.2-0.2c0-0.1,0.1-0.1,0.4-0.1
		c0.1-0.1,0.3-0.3,0.5-0.5c0.2-0.2,0.4-0.4,0.5-0.5c0-0.1,0-0.3,0-0.6c0.1,0,0.3,0.1,0.4,0.2c0.1,0.1,0.3,0.2,0.4,0.2l2-1.4
		c0.1,0,0.5,0,1.2,0c0.1,0,0.2-0.1,0.2-0.3s0-0.4,0-0.5c0.7,0.1,1.3,0,1.8-0.5s0.9-0.7,1-0.7s0.2,0,0.3,0.1c0.1,0.1,0.2,0.1,0.3,0.1
		c0.3,0.1,0.6,0.1,1,0c0.1-0.1,0.3-0.2,0.4-0.2s0.3,0,0.6,0c0.1,0,0.3-0.1,0.5-0.2c0.2-0.1,0.4-0.2,0.5-0.2c0.3-0.1,0.9-0.2,1.8-0.1
		c0.9,0.1,1.5,0.1,1.6,0.1c0.1,0.1,0.3,0.3,0.5,0.5s0.4,0.3,0.7,0.3c0.1,0.3,0.4,0.5,0.8,0.6c0.1,0.7,0.5,1.3,1,1.8s0.9,1,1,1.2
		c0,0.4,0.1,0.9,0.4,1.5c0.3,0.6,0.4,1,0.4,1.1c0,0.1-0.2,0.5-0.6,1c0,0.8-0.1,1.4-0.4,1.8c-0.3,0.3-0.4,0.5-0.4,0.6
		s0.1,0.3,0.3,0.6c0.2,0.3,0.3,0.5,0.3,0.6C312.9,24.6,312.7,25,312.8,25.2z M313.4,24c-0.5,0.5-0.7,1-0.6,1.2l-0.8,0.4
		c-0.1,0-0.4,0-0.7,0c-0.3,0-0.6,0-0.7,0c-0.1,0.1-0.2,0.3-0.3,0.4c-0.1,0.1-0.2,0.2-0.3,0.2c-0.5,0.1-1,0.4-1.2,0.8H308
		c-0.1,0.3-0.5,0.4-1,0.5s-0.9,0.2-1,0.3c0,0.3,0,0.5,0,0.6c-1,0-1.6,0.5-1.8,1.4c-0.8-0.1-1.7,0.1-2.6,0.6
		c-0.3,0.3-0.5,0.4-0.8,0.4c0,0.1,0,0.3,0,0.6H300c-0.1,0.3-0.4,0.6-0.7,0.9c-0.3,0.3-0.6,0.6-0.7,0.7c-0.3,0.1-0.5,0.2-0.6,0.2
		c-0.1,0.4-0.5,0.9-1.1,1.5c-0.6,0.6-1,1.2-1.1,1.7c-0.1,0.1-0.3,0.3-0.5,0.5s-0.4,0.4-0.7,0.5c-0.5,1.2-1.1,2.3-1.8,3.2
		c0,0.1,0,0.4,0.1,0.9s0.1,0.8,0.1,0.9l0.6,0.2c0.1,0.1,0.2,0.4,0.3,0.7c0.1,0.3,0.1,0.5,0.1,0.6s0.2,0.2,0.6,0.5c0.5,0.7,0.9,1,1,1
		c0.4-0.3,0.7-0.3,1-0.2c-0.1,0.5,0.1,0.9,0.6,1s0.8,0.3,0.8,0.4c0.4-0.1,1.1,0.1,2,0.6c0.1,0,0.2-0.1,0.2-0.2s0.1-0.2,0.2-0.2
		c0.5,0.7,1.6,0.9,3,0.6c1.5-0.3,2.7-0.2,3.7,0.2c1.2-0.4,2-0.5,2.2-0.2c0.1,0,0.2,0,0.3-0.1c0.1-0.1,0.2-0.1,0.3-0.1
		c0.3,0.1,1.2,0.1,2.8-0.2c1.3-0.3,2.1-0.5,2.2-0.8h2c0.3,0,0.5-0.1,0.7-0.3s0.4-0.3,0.5-0.3c0.1-0.1,0.4-0.2,0.9-0.2s0.8,0,0.9,0
		c1.1-0.3,1.7-0.4,1.8-0.4c0,0.1,0,0.3,0,0.6s0.1,0.4,0.2,0.4c0,0.1,0.2,0.2,0.7,0.2s0.8,0.1,0.9,0.2c-0.1,0.5-0.2,0.8-0.2,0.9
		s0.3,0.1,0.8,0.1c0,0.3,0,0.6,0,1c0.1,1,0.1,1.6,0,1.8c0,0.1,0.1,0.3,0.2,0.6c-0.5,0.3-1,0.7-1.2,1.4c-0.3,0.7,0,1,0.8,1
		c0,0.3-0.3,0.4-0.8,0.4c-0.1,0-0.3,0-0.4,0c-0.1,0.1-0.4,0.4-0.7,0.7c-0.3,0.3-0.6,0.6-0.7,0.7c-0.4,0.3-1,0.5-1.6,0.8
		c-0.3,0.3-0.6,0.7-1,1.3s-0.7,1.1-1,1.3c-0.3,0.3-0.5,0.4-0.6,0.4c-0.3,0-0.5,0-0.6,0s-0.3,0.2-0.6,0.6c-0.4,0.1-1,0.2-1.7,0.1
		s-1.3,0-1.7,0.1c-0.1,0-0.2,0.2-0.2,0.6c-0.3,0-0.7,0-1.3-0.1c-0.6-0.1-1,0-1.1,0.1c0,0.1,0,0.3,0,0.6c-1.2,0.1-2,0.1-2.2-0.2
		c-0.7,0-1.7,0-2.9-0.1c-1.3-0.1-2.2,0-2.7,0.1c-0.8,0.1-1.3,0.1-1.4,0c-0.4,0-1.1-0.1-2-0.4s-1.6-0.3-1.8,0c-0.5-0.3-0.9-0.5-1-0.8
		c-0.1,0-0.3,0-0.5,0.1s-0.4,0.1-0.5,0.1c-0.3-0.1-0.7-0.4-1.2-0.8c-0.1,0-0.3,0-0.4,0s-0.2,0-0.3-0.1c-0.1-0.1-0.2-0.2-0.5-0.4
		s-0.5-0.2-0.8-0.1c-0.1-0.3-0.4-0.5-0.9-0.7s-0.7-0.4-0.7-0.5c-0.1,0-0.3,0-0.4,0.1s-0.3,0.1-0.4,0.1c0-0.1,0-0.3-0.1-0.5
		s-0.2-0.3-0.3-0.4c-0.1-0.1-0.3,0-0.6,0.1c-1.5-1.8-2.8-3-3.9-3.9c-0.1-0.3-0.3-0.7-0.6-1.2c-0.1,0-0.3,0.1-0.4,0.2s-0.3,0.1-0.4,0
		c0-0.5-0.3-1-0.8-1.2v-0.6c0-0.1-0.2-0.3-0.6-0.6c0-0.4-0.2-0.8-0.6-1.2s-0.6-0.8-0.6-1.2c-0.1-0.1-0.3-0.3-0.4-0.5
		s-0.3-0.4-0.4-0.5c0-0.5-0.2-1-0.6-1.4c0.1-0.4,0.1-1,0-1.6c-0.1-0.7-0.2-1.1-0.2-1.2c0-1.1,0-1.7-0.1-1.7
		c-0.1-0.1-0.2-0.1-0.3-0.1s-0.3,0-0.4,0c0-0.3,0.2-0.5,0.6-0.6c0.3-0.4,0.4-1,0.4-1.6s0-1.3,0-1.8c0.1,0,0.3-0.2,0.5-0.6
		c0.2-0.4,0.3-0.7,0.3-1c0.4-0.5,0.8-1.3,1.1-2.3c0.3-1,0.6-1.7,0.7-1.9c0.3-0.1,0.5-0.4,0.6-0.8c0.5-0.4,0.9-0.7,1-0.8
		c0.1-1.4,1.1-2.6,2.8-3.9c0-0.1,0-0.2,0-0.3s0-0.2,0-0.3c0.4-0.3,1-0.8,1.8-1.5s1.5-1.3,2-1.7c0-0.3,0-0.4,0.1-0.5s0.2,0,0.3,0.1
		s0.3,0.2,0.4,0.2c0.4,0,0.7-0.3,0.8-0.8c0.1-0.5,0.3-0.9,0.4-1c0.4-0.1,0.7-0.2,0.8-0.2c0.1-0.3,0.2-0.4,0.3-0.5
		c0.1-0.1,0.2-0.1,0.4-0.1c0.2,0,0.3,0,0.3-0.1c0-0.1,0.1-0.1,0.2-0.2s0.2-0.1,0.2-0.2c0-0.1,0.1-0.1,0.4-0.1
		c0.1-0.1,0.3-0.3,0.5-0.5c0.2-0.2,0.4-0.4,0.5-0.5c0-0.1,0-0.3,0-0.6c0.1,0,0.3,0.1,0.4,0.2c0.1,0.1,0.3,0.2,0.4,0.2l2-1.4
		c0.1,0,0.5,0,1.2,0c0.1,0,0.2-0.1,0.2-0.3s0-0.4,0-0.5c0.7,0.1,1.3,0,1.8-0.5s0.9-0.7,1-0.7s0.2,0,0.3,0.1c0.1,0.1,0.2,0.1,0.3,0.1
		c0.1,0.1,0.6,0.1,1.4-0.2c0.1,0,0.3,0,0.6,0c0.1,0,0.3-0.1,0.5-0.2c0.2-0.1,0.4-0.2,0.5-0.2c0.3-0.1,0.9-0.2,1.8-0.1
		c0.9,0.1,1.5,0.1,1.6,0.1c0.1,0.1,0.3,0.3,0.5,0.5s0.4,0.3,0.7,0.3c0.1,0.3,0.4,0.5,0.8,0.6c0.1,0.7,0.5,1.3,1,1.8s0.9,1,1,1.2
		c0,0.4,0.1,0.9,0.4,1.5c0.3,0.6,0.4,1,0.4,1.1c0,0.1-0.2,0.5-0.6,1c0,0.8-0.1,1.4-0.4,1.8c-0.3,0.3-0.4,0.5-0.4,0.6
		s0.1,0.3,0.3,0.6C313.3,23.7,313.4,23.9,313.4,24z"/>
	<path fill="#F9B7B5" d="M346.9-15.4c0,0.1,0.1,0.4,0.4,0.8c0.1,0,0.3,0,0.4-0.1s0.2,0,0.2,0.1v0.4c-0.5-0.1-0.8,0-0.8,0.5
		s0.3,0.6,0.8,0.5c0,1.6-0.1,2.5-0.4,2.6c0.4,0.1,0.6,0.2,0.7,0.2s0.1,0.1,0.1,0.3s0,0.4,0,0.5s-0.1,0.3-0.4,0.4s-0.4,0.3-0.4,0.6
		c0.5,0.3,0.8,0.5,0.8,0.6s-0.1,0.3-0.3,0.5c-0.2,0.2-0.3,0.4-0.3,0.5c0,0.3,0.1,0.6,0.3,1.1c0.2,0.5,0.3,0.8,0.3,0.9
		c0,0.4,0,0.7,0,1s0.2,0.5,0.6,0.6c0.1,0.7,0.1,1.2-0.2,1.6c0.1,0.3,0.2,0.8,0.2,1.6s0,1.4,0,1.6c0,0.1,0.1,0.2,0.3,0.3
		c0.2,0.1,0.4,0.1,0.5,0.1c0,0.1-0.1,0.4-0.4,0.8c-0.1,0.3-0.1,0.6,0.2,1.1c0.3,0.5,0.4,0.8,0.4,0.9c0.1,0.1,0.2,0.5,0.1,1.2
		s0,1.1,0.1,1.2c-0.3,0.5-0.1,1,0.4,1.2c0.1-0.1,0.3-0.2,0.4-0.2c0,0.3-0.1,0.4-0.2,0.5s-0.3,0.1-0.4,0.1c0.1,0.3,0.2,0.6,0.2,1
		c0.1,1.1,0.3,1.7,0.6,1.8c0,0.1,0,0.3-0.1,0.4c-0.1,0.1-0.1,0.2-0.1,0.3s0.1,0.2,0.2,0.4s0.2,0.3,0.2,0.4s0,0.2,0,0.5s0,0.5,0,0.6
		s0.1,0.3,0.3,0.5c0.2,0.2,0.3,0.4,0.3,0.7c-0.1,0.3-0.2,0.5-0.2,0.6s0,0.3,0.1,0.5s0.1,0.4,0.1,0.5c0.1,0.3,0.2,0.6,0.1,1.1
		s-0.1,0.9-0.1,1.1c0.4,0.5,0.7,1,0.8,1.4c0,0.1-0.1,0.5-0.2,1.1s-0.1,1,0.2,1.1c0,0.1,0.1,0.3,0.2,0.4s0.2,0.3,0.2,0.4
		c0,1,0,1.5,0,1.6s0,0.4,0,0.7s0,0.6,0,0.7c0,0.3,0.1,0.6,0.3,1.1c0.2,0.5,0.3,0.8,0.3,0.9s0.1,0.5,0.2,1c0,1,0.2,1.6,0.6,1.8
		c0.7-0.5,1.1-1.1,1.4-1.6c0.4-0.1,0.7-0.5,0.8-1c0.1-0.4,0.3-0.7,0.4-0.8h0.6c0.3,0,0.3-0.2,0.2-0.6c0.3-0.3,0.7-0.7,1.3-1.2
		c0.6-0.5,1-1.1,1.1-1.6c0.7-0.3,1-0.5,1-0.8c0.8-0.5,1.5-1,2-1.4c0.4,0.3,0.7,0.2,1-0.3s0.5-0.8,0.6-0.9c0.4,0,0.7,0,0.8,0
		c0.1-0.1,0.3-0.4,0.4-0.7s0.3-0.6,0.4-0.7c0.9,0.1,1.6-0.2,1.8-1c0.3,0,0.8-0.2,1.6-0.6c0.5,0,1.3-0.3,2.2-0.8
		c1.1,0.1,1.7,0,1.8-0.4c0.8,0.7,1.4,1.1,1.6,1.2c0.1,0.1,0.4,0.4,0.8,0.8c0.4,0.4,0.7,0.7,0.8,1c0.3,0.1,0.4,0.2,0.5,0.3
		s0.1,0.2,0.1,0.3s0,0.2,0.1,0.3s0.2,0,0.3-0.1s0.3-0.1,0.4,0c0,0.1,0.1,0.3,0.2,0.6c0.4,0.7,0.8,1.1,1.2,1.2
		c0.3,0.7,0.3,1.2,0.2,1.4c0.1,0.1,0.3,0.4,0.6,0.8c0.1,0.1,0.3,0.3,0.6,0.4s0.4,0.3,0.4,0.6c0.1,0,0.2,0.3,0.3,0.9
		c0.1,0.6,0.2,1,0.5,1.1v0.6c0,0.1,0.1,0.3,0.3,0.4c0.2,0.1,0.3,0.3,0.3,0.4c0,0.3,0,0.6,0,0.9s0,0.6,0,0.7s0.1,0.3,0.3,0.4
		c0.2,0.1,0.3,0.3,0.4,0.4s0.1,0.3,0,0.6c-0.1,0.3-0.1,0.5,0,0.6c0.1,0.1,0.2,0.3,0.4,0.4c0.2,0.1,0.3,0.3,0.3,0.4
		c-0.1,0.5-0.1,1.1,0.2,1.8c0.3,0.3,0.4,0.5,0.4,0.7s0,0.5,0,0.9s0,0.7,0,0.8s0.1,0.3,0.2,0.4s0.2,0.2,0.2,0.3s0.1,0.4,0.2,0.9
		s0.3,0.9,0.4,1c0,0.1,0.3,0.5,0.8,1.2c-0.1,0.3,0.1,0.7,0.6,1.4c0,0.1,0,0.3,0,0.5s0,0.4,0,0.5c0.1,0.3,0.5,0.7,1.2,1.2
		c0,0.1,0.1,0.4,0.4,0.7s0.5,0.6,0.6,0.7c0.1,0,0.3,0,0.4-0.1s0.2-0.1,0.3-0.1c0.1,0,0.1,0.1,0.2,0.2s0.2,0.2,0.3,0.2
		c0.1,0,1,0,2.4,0c0.1,0,0.3,0,0.6,0c0.1,0,0.3,0.1,0.4,0.3s0.2,0.4,0.2,0.5c0.1-0.1,0.3-0.3,0.6-0.4c0.3-0.1,0.5-0.1,0.6,0
		s0.1,0.5-0.2,1.2c0.1,0.1,0.3,0.1,0.6,0c0.3-0.1,0.4-0.1,0.4,0c0.4,0.3,0.3,0.8-0.2,1.4l1.2,2c0,0.3,0.1,0.7,0.2,1.3s0,1-0.4,1.1
		c0.1,0.4,0,0.9-0.5,1.3c-0.5,0.5-0.6,0.9-0.5,1.3c-0.3,0.3-0.5,0.4-0.6,0.4c0,0.5-0.3,1.1-1,1.6c-0.1,0.1-0.3,0.3-0.4,0.4
		c0.1,0.4,0.1,0.6,0,0.6c-0.3,0-0.5-0.1-0.8-0.4c-0.4,0-0.8,0.2-1,0.6c-0.3,0.4-0.5,0.6-0.6,0.6c-1,0-1.4,0.3-1.4,0.8
		c-0.3,0-0.7,0-1.4,0c-1.4,0.1-2.1-0.1-2.2-0.6c-0.3,0-0.5,0.1-0.8,0.4c-0.1-0.1-0.3-0.3-0.4-0.6s-0.3-0.5-0.4-0.6
		c-0.4,0.1-0.8,0.1-1.1,0c-0.3-0.1-0.6-0.2-0.9-0.2c0-0.1-0.1-0.3-0.2-0.6c-1.2-1-2-1.5-2.4-1.6l-0.2-1c-0.1,0-0.5-0.4-1.2-1.2
		c-0.8-1-1.2-1.5-1.2-1.6s0-0.3,0-0.4s0-0.3,0-0.4c-0.1-0.1-0.5-0.3-1.2-0.6c-0.3-0.8-0.7-1.5-1.4-2c0.1-0.5-0.1-0.9-0.8-1.2
		c0.1-0.4,0-0.7-0.4-1c0.1-1.1-0.1-1.8-0.8-2c0.3-0.5,0.1-1.1-0.6-1.6c0.1-0.1,0-0.5-0.4-1.2c0-0.1-0.1-0.3-0.2-0.6
		c-0.1-0.5-0.3-0.8-0.6-0.8c0.1-0.4,0.1-0.8-0.2-1.2c-0.1-0.3-0.2-0.5-0.2-0.6s0-0.3,0-0.6s0-0.5-0.1-0.6s-0.2-0.3-0.4-0.6
		c-0.2-0.3-0.3-0.5-0.3-0.6c0-0.4,0-0.6,0-0.7s-0.1-0.1-0.2-0.2s-0.2-0.2-0.2-0.3s0-0.3,0-0.4c-0.1-0.7-0.3-1-0.6-1
		c-0.3,0-0.8,0.5-1.6,1.6c-0.3,0.1-0.6,0.5-1.1,1.1s-0.9,1-1.1,1.1c0,0.3,0,0.5,0,0.6c-0.1,0.1-0.3,0.3-0.6,0.6
		c-0.1,0.4-0.5,1-1,1.7s-0.9,1.4-1,1.9c-0.3,0.1-0.5,0.2-0.6,0.2c0,0.1,0,0.2,0,0.3s0,0.2,0,0.3c-0.3,0.3-0.6,0.7-0.9,1.4
		s-0.7,1.1-1.1,1.4c0.1,0.4,0,0.8-0.5,1.1s-0.7,0.8-0.7,1.3c-0.1,0.1-0.5,0.5-1.2,1.2v0.8c-0.4,0.8-0.6,1.5-0.6,2l-0.4,0.4
		c-0.4,0.1-0.7,0.5-0.8,1.2c-0.1,0.7-0.3,1.1-0.6,1.2V57c-0.5,0.5-0.8,1-0.8,1.2c-0.3,0-0.4,0-0.5,0.1s-0.1,0.2,0,0.3s0,0.2-0.1,0.2
		s-0.3-0.1-0.4-0.4c-0.3,0.4-0.5,0.5-0.8,0.4c0-0.5-0.1-0.8-0.2-0.8c-0.1-0.1-0.4-0.1-0.7,0c-0.3,0.1-0.6,0.2-0.7,0.2
		c0-0.5-0.3-0.8-0.8-0.9s-0.8,0.2-0.8,0.7c-0.3,0-0.8,0.2-1.6,0.6l-0.4-1c-0.1,0-0.3,0-0.4,0s-0.3-0.1-0.4-0.2
		c-0.1-0.4-0.5-0.9-1.1-1.4s-1-1-1.1-1.4c-0.1-0.1-0.3-0.4-0.6-0.7c-0.3-0.3-0.5-0.6-0.8-0.7c0-0.8-0.4-1.4-1.2-1.8
		c0-0.1,0.1-0.2,0.2-0.2s0.3-0.1,0.4-0.2c0.3-0.3,0.3-0.8,0-1.6c0-0.4,0-0.7,0-1c0-0.4,0-0.6,0-0.7s-0.3-0.2-0.8-0.3
		c0-0.4,0.1-0.7,0.4-1c0-1.2-0.2-2-0.6-2.4c0-0.1,0.1-0.3,0.2-0.6c-0.1-0.1-0.2-0.7-0.3-1.8c-0.1-1.1-0.4-1.5-1.1-1.2
		c0-0.3,0.2-0.5,0.6-0.8c0.1-0.1,0.1-0.3,0-0.6c0.3-0.3,0.3-0.8,0.1-1.5c-0.2-0.7-0.3-1.3-0.3-1.7c-0.5-0.4-0.5-0.9,0-1.4
		c0-0.1-0.1-0.3-0.3-0.5c-0.2-0.2-0.3-0.4-0.3-0.5c0-0.4-0.1-0.9-0.3-1.5c-0.2-0.6-0.4-1.1-0.5-1.5c0.1,0,0.3,0,0.6,0
		c-0.3-0.7-0.5-2.2-0.6-4.7c-0.4,0-0.6-0.1-0.6-0.2c-0.1-0.3,0-0.7,0.4-1.2c-0.1-0.7-0.3-1.3-0.6-1.8l-0.2-1.8c0-0.1,0-0.4,0-0.7
		s0-0.6,0-0.7c0-0.1-0.1-0.3-0.2-0.6c-0.1-0.3-0.2-0.5-0.2-0.6c0-0.1,0-0.4-0.1-0.7s-0.1-0.6-0.1-0.7c-0.1-1.1-0.3-1.7-0.4-1.8
		c0.3-1,0.2-1.7-0.2-2.2c-0.1-0.1-0.2-0.4-0.1-0.9s0-0.8-0.1-0.9c-0.1-0.3-0.3-0.4-0.4-0.4c0-0.1,0-0.4-0.1-0.8s-0.2-0.7-0.3-1
		c0.1-0.1,0.2-0.5,0.2-1s-0.1-0.9-0.4-1c0-0.8-0.2-1.4-0.6-1.8c-0.1,0.1-0.2,0.1-0.2-0.2c0.1,0,0.2,0.1,0.2,0.2
		c0.3-0.5,0.4-0.9,0.4-1l-0.4-0.6c-0.1-0.1-0.2-0.3-0.1-0.6s0.1-0.5,0.1-0.6c-0.1-0.1-0.3-0.3-0.4-0.6S335,1,334.9,0.9
		c0.1-0.4,0.1-1,0-1.6c-0.1-0.7-0.1-1.1,0-1.4l-0.6-0.8c0-0.5,0-1.3,0-2.1c0-0.9,0-1.5,0-1.7c0-0.3-0.1-0.6-0.3-1
		c-0.2-0.4-0.3-0.7-0.3-0.8c-0.1-0.3-0.2-0.7-0.1-1.4s0-1.1-0.1-1.4c0-0.1-0.1-0.2-0.2-0.3s-0.2-0.2-0.2-0.3s0.1-0.3,0.4-0.4
		c0-0.3-0.1-0.4-0.2-0.5s-0.3-0.1-0.4-0.1c0.1-0.3,0.2-0.7,0.1-1.2s-0.1-1-0.1-1.4c0.4-0.3,0.6-0.4,0.7-0.5s0.1-0.2,0.1-0.4
		s0-0.3,0-0.4s0-0.2,0.1-0.3c0.1-0.1,0.1-0.3,0.1-0.4s-0.1-0.4-0.2-0.7s-0.1-0.6,0-0.7c0.1,0,0.3,0.1,0.6,0.4
		c0.4,0.1,0.6-0.1,0.7-0.6s0.2-0.8,0.5-0.8c1.1,0.1,1.9,0,2.4-0.4c0.5,0.1,1.1-0.1,1.6-0.6c0.3,0.1,0.8,0.2,1.5,0.1s1.3-0.1,1.5-0.1
		c0.1,0,1.1,0.7,3,2.2c0,0.4,0.2,0.8,0.6,1.2s0.6,0.6,0.7,0.7s0.1,0.3,0.1,0.6C346.9-15.8,346.9-15.5,346.9-15.4z M347.8-14.7
		c0.1-0.1,0.2,0,0.2,0.1v0.4c-0.5-0.1-0.8,0-0.8,0.5s0.3,0.6,0.8,0.5c0,1.6-0.1,2.5-0.4,2.6c0.4,0.1,0.6,0.2,0.7,0.2
		s0.1,0.1,0.1,0.3s0,0.4,0,0.5s-0.1,0.3-0.4,0.4s-0.4,0.3-0.4,0.6c0.5,0.3,0.8,0.5,0.8,0.6s-0.1,0.3-0.3,0.5
		c-0.2,0.2-0.3,0.4-0.3,0.5c0,0.3,0.1,0.6,0.3,1.1c0.2,0.5,0.3,0.8,0.3,0.9c0,0.4,0,0.7,0,1s0.2,0.5,0.6,0.6
		c0.1,0.7,0.1,1.2-0.2,1.6c0.1,0.3,0.2,0.8,0.2,1.6s0,1.4,0,1.6c0,0.1,0.1,0.2,0.3,0.3c0.2,0.1,0.4,0.1,0.5,0.1
		c0,0.1-0.1,0.4-0.4,0.8c-0.1,0.3-0.1,0.6,0.2,1.1c0.3,0.5,0.4,0.8,0.4,0.9c0.1,0.1,0.2,0.5,0.1,1.2s0,1.1,0.1,1.2
		c-0.3,0.5-0.1,1,0.4,1.2c0.1-0.1,0.3-0.2,0.4-0.2c0,0.3-0.1,0.4-0.2,0.5s-0.3,0.1-0.4,0.1c0.1,0.3,0.2,0.6,0.2,1
		c0.1,1.1,0.3,1.7,0.6,1.8c0,0.1,0,0.3-0.1,0.4c-0.1,0.1-0.1,0.2-0.1,0.3s0.1,0.2,0.2,0.4s0.2,0.3,0.2,0.4s0,0.2,0,0.5s0,0.5,0,0.6
		s0.1,0.3,0.3,0.5c0.2,0.2,0.3,0.4,0.3,0.7c-0.1,0.3-0.2,0.5-0.2,0.6s0,0.3,0.1,0.5s0.1,0.4,0.1,0.5c0.1,0.3,0.2,0.6,0.1,1.1
		S352,18.8,352,19c0.4,0.5,0.7,1,0.8,1.4c0,0.1-0.1,0.5-0.2,1.1s-0.1,1,0.2,1.1c0,0.1,0.1,0.3,0.2,0.4s0.2,0.3,0.2,0.4
		c0,1,0,1.5,0,1.6s0,0.4,0,0.7s0,0.6,0,0.7c0,0.3,0.1,0.6,0.3,1.1c0.2,0.5,0.3,0.8,0.3,0.9s0.1,0.5,0.2,1c0,1,0.2,1.6,0.6,1.8
		c0.7-0.5,1.1-1.1,1.4-1.6c0.4-0.1,0.7-0.5,0.8-1c0.1-0.4,0.3-0.7,0.4-0.8h0.6c0.3,0,0.3-0.2,0.2-0.6c0.3-0.3,0.7-0.7,1.3-1.2
		c0.6-0.5,1-1.1,1.1-1.6c0.7-0.3,1-0.5,1-0.8c0.8-0.4,1.5-0.9,2-1.4c0.4,0.3,0.7,0.2,1-0.3s0.5-0.8,0.6-0.9c0.4,0,0.7,0,0.8,0
		c0.1-0.1,0.3-0.4,0.4-0.7s0.3-0.6,0.4-0.7c0.9,0.1,1.6-0.2,1.8-1c0.3,0,0.8-0.2,1.6-0.6c0.5,0,1.3-0.3,2.2-0.8
		c1.1,0.1,1.7,0,1.8-0.4c0.8,0.7,1.4,1.1,1.6,1.2c0.1,0.1,0.4,0.4,0.8,0.8c0.4,0.4,0.7,0.7,0.8,1c0.3,0.1,0.4,0.2,0.5,0.3
		s0.1,0.2,0.1,0.3s0,0.2,0.1,0.3s0.2,0,0.3-0.1s0.3-0.1,0.4,0c0,0.1,0.1,0.3,0.2,0.6c0.4,0.7,0.8,1.1,1.2,1.2
		c0.3,0.7,0.3,1.2,0.2,1.4c0.1,0.1,0.3,0.4,0.6,0.8c0.1,0.1,0.3,0.3,0.6,0.4s0.4,0.3,0.4,0.6c0.1,0,0.2,0.3,0.3,0.9
		c0.1,0.6,0.2,1,0.5,1.1v0.6c0,0.1,0.1,0.3,0.3,0.4c0.2,0.1,0.3,0.3,0.3,0.4c0,0.3,0,0.6,0,0.9s0,0.6,0,0.7s0.1,0.3,0.3,0.4
		c0.2,0.1,0.3,0.3,0.4,0.4s0.1,0.3,0,0.6c-0.1,0.3-0.1,0.5,0,0.6c0.1,0.1,0.2,0.3,0.4,0.4c0.2,0.1,0.3,0.3,0.3,0.4
		c-0.1,0.5-0.1,1.1,0.2,1.8c0.3,0.3,0.4,0.5,0.4,0.7s0,0.5,0,0.9s0,0.7,0,0.8s0.1,0.3,0.2,0.4s0.2,0.2,0.2,0.3s0.1,0.4,0.2,0.9
		s0.3,0.9,0.4,1c0,0.1,0.3,0.5,0.8,1.2c-0.1,0.3,0.1,0.7,0.6,1.4c0,0.1,0,0.3,0,0.5s0,0.4,0,0.5c0.1,0.3,0.5,0.7,1.2,1.2
		c0,0.1,0.1,0.4,0.4,0.7s0.5,0.6,0.6,0.7c0.1,0,0.3,0,0.4-0.1s0.2-0.1,0.3-0.1c0.1,0,0.1,0.1,0.2,0.2s0.2,0.2,0.3,0.2
		c0.1,0,1,0,2.4,0c0.1,0,0.3,0,0.6,0c0.1,0,0.3,0.1,0.4,0.3s0.2,0.4,0.2,0.5c0.1-0.1,0.3-0.3,0.6-0.4c0.3-0.1,0.5-0.1,0.6,0
		s0.1,0.5-0.2,1.2c0.1,0.1,0.3,0.1,0.6,0c0.3-0.1,0.4-0.1,0.4,0c0.4,0.3,0.3,0.8-0.2,1.4l1.2,2c0,0.3,0.1,0.7,0.2,1.3s0,1-0.4,1.1
		c0.1,0.4,0,0.9-0.5,1.3c-0.5,0.5-0.6,0.9-0.5,1.3c-0.3,0.3-0.5,0.4-0.6,0.4c0,0.5-0.3,1.1-1,1.6c-0.1,0.1-0.3,0.3-0.4,0.4
		c0.1,0.4,0.1,0.6,0,0.6c-0.3,0-0.5-0.1-0.8-0.4c-0.4,0-0.8,0.2-1,0.6c-0.3,0.4-0.5,0.6-0.6,0.6c-1,0-1.4,0.3-1.4,0.8
		c-0.3,0-0.7,0-1.4,0c-1.4,0.1-2.1-0.1-2.2-0.6c-0.3,0-0.5,0.1-0.8,0.4c-0.1-0.1-0.3-0.3-0.4-0.6s-0.3-0.5-0.4-0.6
		c-0.4,0.1-0.8,0.1-1.1,0c-0.3-0.1-0.6-0.2-0.9-0.2c0-0.1-0.1-0.3-0.2-0.6c-1.2-1-2-1.5-2.4-1.6l-0.2-1c-0.1,0-0.5-0.4-1.2-1.2
		c-0.8-1-1.2-1.5-1.2-1.6s0-0.3,0-0.4s0-0.3,0-0.4c-0.1-0.1-0.5-0.3-1.2-0.6c-0.3-0.8-0.7-1.5-1.4-2c0.1-0.5-0.1-0.9-0.8-1.2
		c0.1-0.4,0-0.7-0.4-1c0.1-1.1-0.1-1.8-0.8-2c0.3-0.5,0.1-1.1-0.6-1.6c0.1-0.1,0-0.5-0.4-1.2c0-0.1-0.1-0.3-0.2-0.6
		c-0.1-0.5-0.3-0.8-0.6-0.8c0.1-0.4,0.1-0.8-0.2-1.2c-0.1-0.3-0.2-0.5-0.2-0.6s0-0.3,0-0.6s0-0.5-0.1-0.6s-0.2-0.3-0.4-0.6
		c-0.2-0.3-0.3-0.5-0.3-0.6c0-0.4,0-0.6,0-0.7s-0.1-0.1-0.2-0.2s-0.2-0.2-0.2-0.3s0-0.3,0-0.4c-0.1-0.7-0.3-1-0.6-1
		c-0.3,0-0.8,0.5-1.6,1.6c-0.3,0.1-0.6,0.5-1.1,1.1s-0.9,1-1.1,1.1c0,0.3,0,0.5,0,0.6c-0.1,0.1-0.3,0.3-0.6,0.6
		c-0.1,0.4-0.5,1-1,1.7s-0.9,1.4-1,1.9c-0.3,0.1-0.5,0.2-0.6,0.2c0,0.1,0,0.2,0,0.3s0,0.2,0,0.3c-0.3,0.3-0.6,0.7-0.9,1.4
		s-0.7,1.1-1.1,1.4c0.1,0.4,0,0.8-0.5,1.1s-0.7,0.8-0.7,1.3c-0.1,0.1-0.5,0.5-1.2,1.2v0.8c-0.4,0.8-0.6,1.5-0.6,2l-0.4,0.4
		c-0.4,0.1-0.7,0.5-0.8,1.2c-0.1,0.7-0.3,1.1-0.6,1.2V57c-0.5,0.5-0.8,1-0.8,1.2c-0.3,0-0.4,0-0.5,0.1s-0.1,0.2,0,0.3s0,0.2-0.1,0.2
		s-0.3-0.1-0.4-0.4c-0.3,0.4-0.5,0.5-0.8,0.4c0-0.5-0.1-0.8-0.2-0.8c-0.1-0.1-0.4-0.1-0.7,0c-0.3,0.1-0.6,0.2-0.7,0.2
		c0-0.5-0.3-0.8-0.8-0.9S350,57.5,350,58c-0.3,0-0.8,0.2-1.6,0.6l-0.4-1c-0.1,0-0.3,0-0.4,0s-0.3-0.1-0.4-0.2
		c-0.1-0.4-0.5-0.9-1.1-1.4s-1-1-1.1-1.4c-0.1-0.1-0.3-0.4-0.6-0.7c-0.3-0.3-0.5-0.6-0.8-0.7c0-0.8-0.4-1.4-1.2-1.8
		c0-0.1,0.1-0.2,0.2-0.2s0.3-0.1,0.4-0.2c0.3-0.3,0.3-0.8,0-1.6c0-0.4,0-0.7,0-1c0-0.4,0-0.6,0-0.7s-0.3-0.2-0.8-0.3
		c0-0.4,0.1-0.7,0.4-1c0-1.2-0.2-2-0.6-2.4c0-0.1,0.1-0.3,0.2-0.6c-0.1-0.1-0.2-0.7-0.3-1.8c-0.1-1.1-0.4-1.5-1.1-1.2
		c0-0.3,0.2-0.5,0.6-0.8c0.1-0.1,0.1-0.3,0-0.6c0.3-0.3,0.3-0.8,0.1-1.5c-0.2-0.7-0.3-1.3-0.3-1.7c-0.5-0.4-0.5-0.9,0-1.4
		c0-0.1-0.1-0.3-0.3-0.5c-0.2-0.2-0.3-0.4-0.3-0.5c0-0.4-0.1-0.9-0.3-1.5c-0.2-0.6-0.4-1.1-0.5-1.5c0.1,0,0.3,0,0.6,0
		c-0.3-0.7-0.5-2.2-0.6-4.7c-0.4,0-0.6-0.1-0.6-0.2c-0.1-0.3,0-0.7,0.4-1.2c-0.1-0.7-0.3-1.3-0.6-1.8l-0.2-1.8c0-0.1,0-0.4,0-0.7
		s0-0.6,0-0.7c0-0.1-0.1-0.3-0.2-0.6c-0.1-0.3-0.2-0.5-0.2-0.6c0-0.1,0-0.4-0.1-0.7s-0.1-0.6-0.1-0.7c-0.1-1.1-0.3-1.7-0.6-1.8
		c0.4-1,0.4-1.7,0-2.2c-0.1-0.1-0.2-0.4-0.1-0.9s0-0.8-0.1-0.9c-0.1-0.3-0.3-0.4-0.4-0.4c0-0.1,0-0.4-0.1-0.8s-0.2-0.7-0.3-1
		c0.1-0.1,0.2-0.5,0.2-1s-0.1-0.9-0.4-1c0-0.8-0.2-1.4-0.6-1.8c-0.1,0.1-0.2,0.1-0.2-0.2c0.1,0,0.2,0.1,0.2,0.2
		c0.3-0.5,0.4-0.9,0.4-1l-0.4-0.6c-0.1-0.1-0.2-0.3-0.1-0.6s0.1-0.5,0.1-0.6c-0.1-0.1-0.3-0.3-0.4-0.6S335.1,1,335,0.9
		c0.1-0.4,0.1-1,0-1.6c-0.1-0.7-0.1-1.1,0-1.4l-0.6-0.8c0-0.5,0-1.3,0-2.1c0-0.9,0-1.5,0-1.7c0-0.3-0.1-0.6-0.3-1
		c-0.2-0.4-0.3-0.7-0.3-0.8c-0.1-0.3-0.2-0.7-0.1-1.4s0-1.1-0.1-1.4c0-0.1-0.1-0.2-0.2-0.3s-0.2-0.2-0.2-0.3s0.1-0.3,0.4-0.4
		c0-0.3-0.1-0.4-0.2-0.5s-0.3-0.1-0.4-0.1c0.1-0.3,0.2-0.7,0.1-1.2s-0.1-1-0.1-1.4c0.4-0.3,0.6-0.4,0.7-0.5s0.1-0.2,0.1-0.4
		s0-0.3,0-0.4s0-0.2,0.1-0.3c0.1-0.1,0.1-0.3,0.1-0.4s-0.1-0.4-0.2-0.7s-0.1-0.6,0-0.7c0.1,0,0.3,0.1,0.6,0.4
		c0.4,0.1,0.6-0.1,0.7-0.6s0.2-0.8,0.5-0.8c1.1,0.1,1.9,0,2.4-0.4c0.5,0.1,1.1-0.1,1.6-0.6c0.3,0.1,0.8,0.2,1.5,0.1s1.3-0.1,1.5-0.1
		c0.1,0,1.1,0.7,3,2.2c0,0.4,0.2,0.8,0.6,1.2s0.6,0.6,0.7,0.7s0.1,0.3,0.1,0.6c0,0.3,0,0.6,0,0.7s0.1,0.4,0.4,0.8
		C347.5-14.6,347.6-14.6,347.8-14.7z M338.4,23.2V23h0.2v0.2H338.4z M338.4,23h0.2v0.2h-0.2V23z M350.2,59.4c0.1,0,0.3,0.1,0.4,0.2
		l-0.2,0.4C350.3,59.8,350.2,59.6,350.2,59.4z M350.4,60c-0.1-0.1-0.2-0.3-0.2-0.6c0.1,0,0.3,0.1,0.4,0.2L350.4,60z"/>
</g>
</svg>
